G75*
%MOIN*%
%OFA0B0*%
%FSLAX25Y25*%
%IPPOS*%
%LPD*%
%AMOC8*
5,1,8,0,0,1.08239X$1,22.5*
%
%ADD10C,0.00000*%
%ADD11C,0.00200*%
%ADD12C,0.02362*%
%ADD13C,0.01969*%
%ADD14C,0.00400*%
D10*
X0020469Y0005737D02*
X0020469Y0127784D01*
X0118894Y0127784D01*
X0118894Y0005737D01*
X0020469Y0005737D01*
D11*
X0029228Y0023507D02*
X0029228Y0024786D01*
X0029655Y0025212D01*
X0030507Y0025212D01*
X0030934Y0024786D01*
X0030934Y0023507D01*
X0031786Y0023507D02*
X0029228Y0023507D01*
X0029228Y0026044D02*
X0029228Y0027323D01*
X0029655Y0027750D01*
X0030507Y0027750D01*
X0030934Y0027323D01*
X0030934Y0026044D01*
X0031786Y0026044D02*
X0029228Y0026044D01*
X0030934Y0026897D02*
X0031786Y0027750D01*
X0031786Y0028582D02*
X0031786Y0030287D01*
X0031360Y0031120D02*
X0031786Y0031546D01*
X0031786Y0032399D01*
X0031360Y0032825D01*
X0030934Y0032825D01*
X0030507Y0032399D01*
X0030507Y0031546D01*
X0030081Y0031120D01*
X0029655Y0031120D01*
X0029228Y0031546D01*
X0029228Y0032399D01*
X0029655Y0032825D01*
X0029655Y0033657D02*
X0030081Y0033657D01*
X0030507Y0034084D01*
X0030507Y0034936D01*
X0030934Y0035363D01*
X0031360Y0035363D01*
X0031786Y0034936D01*
X0031786Y0034084D01*
X0031360Y0033657D01*
X0029655Y0033657D02*
X0029228Y0034084D01*
X0029228Y0034936D01*
X0029655Y0035363D01*
X0029228Y0038732D02*
X0029228Y0040011D01*
X0029655Y0040438D01*
X0030507Y0040438D01*
X0030934Y0040011D01*
X0030934Y0038732D01*
X0031786Y0038732D02*
X0029228Y0038732D01*
X0029655Y0041270D02*
X0031360Y0041270D01*
X0031786Y0041696D01*
X0031786Y0042549D01*
X0031360Y0042975D01*
X0029655Y0042975D01*
X0029228Y0042549D01*
X0029228Y0041696D01*
X0029655Y0041270D01*
X0029228Y0043808D02*
X0031786Y0043808D01*
X0030934Y0044660D01*
X0031786Y0045513D01*
X0029228Y0045513D01*
X0029228Y0046345D02*
X0031786Y0046345D01*
X0031786Y0048051D01*
X0031786Y0048883D02*
X0029228Y0048883D01*
X0029228Y0050162D01*
X0029655Y0050588D01*
X0030507Y0050588D01*
X0030934Y0050162D01*
X0030934Y0048883D01*
X0030934Y0049736D02*
X0031786Y0050588D01*
X0031360Y0053958D02*
X0029655Y0053958D01*
X0029228Y0054384D01*
X0029228Y0055237D01*
X0029655Y0055663D01*
X0031360Y0055663D01*
X0031786Y0055237D01*
X0031786Y0054384D01*
X0031360Y0053958D01*
X0031786Y0056496D02*
X0029228Y0056496D01*
X0031786Y0058201D01*
X0029228Y0058201D01*
X0029228Y0048051D02*
X0029228Y0046345D01*
X0030507Y0046345D02*
X0030507Y0047198D01*
X0029228Y0030287D02*
X0029228Y0028582D01*
X0031786Y0028582D01*
X0030507Y0028582D02*
X0030507Y0029435D01*
X0048126Y0037890D02*
X0048552Y0037464D01*
X0048979Y0037464D01*
X0049405Y0037890D01*
X0049405Y0038743D01*
X0049831Y0039169D01*
X0050258Y0039169D01*
X0050684Y0038743D01*
X0050684Y0037890D01*
X0050258Y0037464D01*
X0050684Y0040001D02*
X0049831Y0040854D01*
X0050684Y0041707D01*
X0048126Y0041707D01*
X0048979Y0042539D02*
X0048126Y0043392D01*
X0050684Y0043392D01*
X0050684Y0044244D02*
X0050684Y0042539D01*
X0050684Y0040001D02*
X0048126Y0040001D01*
X0048552Y0039169D02*
X0048126Y0038743D01*
X0048126Y0037890D01*
X0061701Y0030442D02*
X0061701Y0028278D01*
X0061701Y0028999D02*
X0062783Y0028999D01*
X0063144Y0029360D01*
X0063144Y0030081D01*
X0062783Y0030442D01*
X0061701Y0030442D01*
X0062423Y0028999D02*
X0063144Y0028278D01*
X0063876Y0028278D02*
X0065319Y0028278D01*
X0064598Y0028278D02*
X0064598Y0030442D01*
X0063876Y0029721D01*
X0070567Y0029252D02*
X0070567Y0030334D01*
X0070928Y0030695D01*
X0072371Y0030695D01*
X0072731Y0030334D01*
X0072731Y0029252D01*
X0070567Y0029252D01*
X0071289Y0031428D02*
X0070567Y0032149D01*
X0072731Y0032149D01*
X0072731Y0031428D02*
X0072731Y0032870D01*
X0073753Y0042727D02*
X0073392Y0043088D01*
X0073392Y0043809D01*
X0073753Y0044170D01*
X0075195Y0044170D01*
X0075556Y0043809D01*
X0075556Y0043088D01*
X0075195Y0042727D01*
X0073753Y0042727D01*
X0074835Y0043448D02*
X0075556Y0044170D01*
X0075556Y0044902D02*
X0075556Y0046345D01*
X0075556Y0045623D02*
X0073392Y0045623D01*
X0074113Y0044902D01*
X0064857Y0050906D02*
X0064857Y0051988D01*
X0064497Y0052349D01*
X0063054Y0052349D01*
X0062693Y0051988D01*
X0062693Y0050906D01*
X0064857Y0050906D01*
X0064857Y0053081D02*
X0063415Y0054524D01*
X0063054Y0054524D01*
X0062693Y0054163D01*
X0062693Y0053442D01*
X0063054Y0053081D01*
X0064857Y0053081D02*
X0064857Y0054524D01*
X0065999Y0058199D02*
X0065638Y0058560D01*
X0065638Y0060003D01*
X0065999Y0060363D01*
X0066720Y0060363D01*
X0067081Y0060003D01*
X0067081Y0058560D01*
X0066720Y0058199D01*
X0065999Y0058199D01*
X0066360Y0058921D02*
X0067081Y0058199D01*
X0067813Y0058199D02*
X0069256Y0059642D01*
X0069256Y0060003D01*
X0068895Y0060363D01*
X0068174Y0060363D01*
X0067813Y0060003D01*
X0067813Y0058199D02*
X0069256Y0058199D01*
X0076849Y0058560D02*
X0077210Y0058199D01*
X0077931Y0058199D01*
X0078292Y0058560D01*
X0078292Y0060363D01*
X0079024Y0059642D02*
X0079745Y0060363D01*
X0079745Y0058199D01*
X0079024Y0058199D02*
X0080467Y0058199D01*
X0076849Y0058560D02*
X0076849Y0060363D01*
X0075161Y0075522D02*
X0073719Y0075522D01*
X0075161Y0076965D01*
X0075161Y0077325D01*
X0074801Y0077686D01*
X0074079Y0077686D01*
X0073719Y0077325D01*
X0072986Y0077325D02*
X0072986Y0076604D01*
X0072626Y0076243D01*
X0071544Y0076243D01*
X0071544Y0075522D02*
X0071544Y0077686D01*
X0072626Y0077686D01*
X0072986Y0077325D01*
X0072265Y0076243D02*
X0072986Y0075522D01*
X0072371Y0084764D02*
X0070928Y0084764D01*
X0070567Y0085125D01*
X0070567Y0085846D01*
X0070928Y0086207D01*
X0070928Y0086939D02*
X0070567Y0087300D01*
X0070567Y0088021D01*
X0070928Y0088382D01*
X0071289Y0088382D01*
X0072731Y0086939D01*
X0072731Y0088382D01*
X0072371Y0086207D02*
X0072731Y0085846D01*
X0072731Y0085125D01*
X0072371Y0084764D01*
X0063350Y0077325D02*
X0063350Y0076965D01*
X0062990Y0076604D01*
X0063350Y0076243D01*
X0063350Y0075883D01*
X0062990Y0075522D01*
X0062268Y0075522D01*
X0061908Y0075883D01*
X0061175Y0075522D02*
X0060454Y0076243D01*
X0060815Y0076243D02*
X0059733Y0076243D01*
X0059733Y0075522D02*
X0059733Y0077686D01*
X0060815Y0077686D01*
X0061175Y0077325D01*
X0061175Y0076604D01*
X0060815Y0076243D01*
X0061908Y0077325D02*
X0062268Y0077686D01*
X0062990Y0077686D01*
X0063350Y0077325D01*
X0062990Y0076604D02*
X0062629Y0076604D01*
X0053046Y0080794D02*
X0053046Y0081516D01*
X0052686Y0081876D01*
X0053046Y0082609D02*
X0053046Y0084051D01*
X0053046Y0083330D02*
X0050882Y0083330D01*
X0051604Y0082609D01*
X0051243Y0081876D02*
X0050882Y0081516D01*
X0050882Y0080794D01*
X0051243Y0080434D01*
X0052686Y0080434D01*
X0053046Y0080794D01*
X0053128Y0094813D02*
X0053488Y0095174D01*
X0053488Y0096977D01*
X0054221Y0096617D02*
X0054582Y0096977D01*
X0055303Y0096977D01*
X0055664Y0096617D01*
X0055664Y0096256D01*
X0054221Y0094813D01*
X0055664Y0094813D01*
X0053128Y0094813D02*
X0052406Y0094813D01*
X0052046Y0095174D01*
X0052046Y0096977D01*
X0067024Y0098938D02*
X0067024Y0100020D01*
X0067385Y0100380D01*
X0068106Y0100380D01*
X0068467Y0100020D01*
X0068467Y0098938D01*
X0068467Y0099659D02*
X0069188Y0100380D01*
X0068827Y0101113D02*
X0069188Y0101473D01*
X0069188Y0102195D01*
X0068827Y0102555D01*
X0068106Y0102555D01*
X0067745Y0102195D01*
X0067745Y0101834D01*
X0068106Y0101113D01*
X0067024Y0101113D01*
X0067024Y0102555D01*
X0067024Y0104056D02*
X0067024Y0105138D01*
X0067385Y0105498D01*
X0068106Y0105498D01*
X0068467Y0105138D01*
X0068467Y0104056D01*
X0068467Y0104777D02*
X0069188Y0105498D01*
X0068106Y0106231D02*
X0068106Y0107673D01*
X0067024Y0107313D02*
X0068106Y0106231D01*
X0069188Y0107313D02*
X0067024Y0107313D01*
X0067024Y0104056D02*
X0069188Y0104056D01*
X0069188Y0098938D02*
X0067024Y0098938D01*
X0083166Y0099593D02*
X0084969Y0099593D01*
X0085330Y0099232D01*
X0085330Y0098511D01*
X0084969Y0098150D01*
X0083166Y0098150D01*
X0083526Y0100325D02*
X0083166Y0100686D01*
X0083166Y0101407D01*
X0083526Y0101768D01*
X0083887Y0101768D01*
X0084248Y0101407D01*
X0084608Y0101768D01*
X0084969Y0101768D01*
X0085330Y0101407D01*
X0085330Y0100686D01*
X0084969Y0100325D01*
X0084248Y0101047D02*
X0084248Y0101407D01*
X0086676Y0087988D02*
X0087037Y0087988D01*
X0087397Y0087628D01*
X0087758Y0087988D01*
X0088119Y0087988D01*
X0088479Y0087628D01*
X0088479Y0086906D01*
X0088119Y0086546D01*
X0088119Y0085813D02*
X0088479Y0085453D01*
X0088479Y0084731D01*
X0088119Y0084371D01*
X0086676Y0084371D01*
X0086315Y0084731D01*
X0086315Y0085453D01*
X0086676Y0085813D01*
X0086676Y0086546D02*
X0086315Y0086906D01*
X0086315Y0087628D01*
X0086676Y0087988D01*
X0087397Y0087628D02*
X0087397Y0087267D01*
X0109150Y0086747D02*
X0109150Y0085665D01*
X0111314Y0085665D01*
X0111314Y0086747D01*
X0110953Y0087107D01*
X0109511Y0087107D01*
X0109150Y0086747D01*
X0109150Y0084932D02*
X0111314Y0084932D01*
X0109150Y0083490D01*
X0111314Y0083490D01*
X0110953Y0082757D02*
X0110232Y0082757D01*
X0110232Y0082036D01*
X0109511Y0082757D02*
X0109150Y0082397D01*
X0109150Y0081675D01*
X0109511Y0081315D01*
X0110953Y0081315D01*
X0111314Y0081675D01*
X0111314Y0082397D01*
X0110953Y0082757D01*
X0113087Y0083896D02*
X0113939Y0084749D01*
X0115645Y0084749D01*
X0115645Y0085581D02*
X0113087Y0085581D01*
X0115645Y0087286D01*
X0113087Y0087286D01*
X0113939Y0088119D02*
X0113087Y0088971D01*
X0113939Y0089824D01*
X0115645Y0089824D01*
X0115645Y0090656D02*
X0115645Y0092362D01*
X0115218Y0093194D02*
X0115645Y0093620D01*
X0115645Y0094473D01*
X0115218Y0094899D01*
X0113513Y0094899D01*
X0113087Y0094473D01*
X0113087Y0093620D01*
X0113513Y0093194D01*
X0115218Y0093194D01*
X0115645Y0090656D02*
X0113087Y0090656D01*
X0114366Y0089824D02*
X0114366Y0088119D01*
X0113939Y0088119D02*
X0115645Y0088119D01*
X0114366Y0084749D02*
X0114366Y0083043D01*
X0113939Y0083043D02*
X0113087Y0083896D01*
X0113939Y0083043D02*
X0115645Y0083043D01*
X0110593Y0090463D02*
X0109150Y0090463D01*
X0110593Y0090463D02*
X0111314Y0091185D01*
X0110593Y0091906D01*
X0109150Y0091906D01*
X0109150Y0092638D02*
X0109150Y0093720D01*
X0109511Y0094081D01*
X0110232Y0094081D01*
X0110593Y0093720D01*
X0110593Y0092638D01*
X0111314Y0092638D02*
X0109150Y0092638D01*
X0110593Y0093360D02*
X0111314Y0094081D01*
X0111314Y0094813D02*
X0111314Y0096256D01*
X0111314Y0096988D02*
X0109150Y0096988D01*
X0109150Y0098431D01*
X0110232Y0097710D02*
X0110232Y0096988D01*
X0109150Y0096256D02*
X0109150Y0094813D01*
X0111314Y0094813D01*
X0110232Y0094813D02*
X0110232Y0095535D01*
X0113087Y0096158D02*
X0113513Y0095731D01*
X0115218Y0095731D01*
X0115645Y0096158D01*
X0115645Y0097010D01*
X0115218Y0097437D01*
X0114366Y0097437D01*
X0114366Y0096584D01*
X0113513Y0097437D02*
X0113087Y0097010D01*
X0113087Y0096158D01*
X0113513Y0100807D02*
X0115218Y0100807D01*
X0115645Y0101233D01*
X0115645Y0102086D01*
X0115218Y0102512D01*
X0113513Y0102512D01*
X0113087Y0102086D01*
X0113087Y0101233D01*
X0113513Y0100807D01*
X0111314Y0101027D02*
X0110593Y0101748D01*
X0109150Y0101748D01*
X0109150Y0102481D02*
X0109150Y0103563D01*
X0109511Y0103924D01*
X0109871Y0103924D01*
X0110232Y0103563D01*
X0110232Y0102481D01*
X0110232Y0103563D02*
X0110593Y0103924D01*
X0110953Y0103924D01*
X0111314Y0103563D01*
X0111314Y0102481D01*
X0109150Y0102481D01*
X0109871Y0104656D02*
X0109150Y0105377D01*
X0109871Y0106099D01*
X0111314Y0106099D01*
X0110232Y0106099D02*
X0110232Y0104656D01*
X0109871Y0104656D02*
X0111314Y0104656D01*
X0113087Y0105050D02*
X0115218Y0105050D01*
X0115645Y0104623D01*
X0115645Y0103771D01*
X0115218Y0103344D01*
X0113087Y0103344D01*
X0111314Y0101027D02*
X0110593Y0100306D01*
X0109150Y0100306D01*
X0113087Y0105882D02*
X0113087Y0107587D01*
X0113087Y0108419D02*
X0113087Y0109698D01*
X0113513Y0110125D01*
X0114366Y0110125D01*
X0114792Y0109698D01*
X0114792Y0108419D01*
X0115645Y0108419D02*
X0113087Y0108419D01*
X0111314Y0107552D02*
X0109150Y0107552D01*
X0109150Y0106831D02*
X0109150Y0108274D01*
X0109150Y0111236D02*
X0110593Y0111236D01*
X0111314Y0111957D01*
X0110593Y0112678D01*
X0109150Y0112678D01*
X0109150Y0113411D02*
X0109150Y0114493D01*
X0109511Y0114854D01*
X0110953Y0114854D01*
X0111314Y0114493D01*
X0111314Y0113411D01*
X0109150Y0113411D01*
X0109150Y0115586D02*
X0109150Y0116668D01*
X0109511Y0117029D01*
X0110953Y0117029D01*
X0111314Y0116668D01*
X0111314Y0115586D01*
X0109150Y0115586D01*
X0113087Y0115200D02*
X0113087Y0113495D01*
X0113087Y0112662D02*
X0115218Y0112662D01*
X0115645Y0112236D01*
X0115645Y0111383D01*
X0115218Y0110957D01*
X0113087Y0110957D01*
X0113087Y0114347D02*
X0115645Y0114347D01*
X0115645Y0106734D02*
X0113087Y0106734D01*
X0109150Y0075203D02*
X0109150Y0073760D01*
X0111314Y0073760D01*
X0110232Y0073760D02*
X0110232Y0074481D01*
X0109150Y0073028D02*
X0109150Y0071585D01*
X0111314Y0071585D01*
X0110953Y0070853D02*
X0109511Y0070853D01*
X0109150Y0070492D01*
X0109150Y0069771D01*
X0109511Y0069410D01*
X0110953Y0069410D01*
X0111314Y0069771D01*
X0111314Y0070492D01*
X0110953Y0070853D01*
X0110232Y0071585D02*
X0110232Y0072306D01*
X0110232Y0068678D02*
X0109511Y0068678D01*
X0109150Y0068317D01*
X0109150Y0067235D01*
X0111314Y0067235D01*
X0110593Y0067235D02*
X0110593Y0068317D01*
X0110232Y0068678D01*
X0113087Y0067650D02*
X0115645Y0067650D01*
X0115645Y0069355D01*
X0115218Y0066818D02*
X0113513Y0066818D01*
X0113087Y0066391D01*
X0113087Y0065539D01*
X0113513Y0065112D01*
X0115218Y0065112D01*
X0115645Y0065539D01*
X0115645Y0066391D01*
X0115218Y0066818D01*
X0115645Y0064280D02*
X0114792Y0063427D01*
X0114792Y0063854D02*
X0114792Y0062575D01*
X0115645Y0062575D02*
X0113087Y0062575D01*
X0113087Y0063854D01*
X0113513Y0064280D01*
X0114366Y0064280D01*
X0114792Y0063854D01*
X0113087Y0061742D02*
X0113087Y0060037D01*
X0113087Y0059205D02*
X0115645Y0059205D01*
X0113087Y0057499D01*
X0115645Y0057499D01*
X0115218Y0056667D02*
X0113513Y0056667D01*
X0113087Y0056241D01*
X0113087Y0055388D01*
X0113513Y0054962D01*
X0115218Y0054962D01*
X0115645Y0055388D01*
X0115645Y0056241D01*
X0115218Y0056667D01*
X0115218Y0054130D02*
X0115645Y0053703D01*
X0115645Y0052851D01*
X0115218Y0052424D01*
X0113513Y0052424D01*
X0113087Y0052851D01*
X0113087Y0053703D01*
X0113513Y0054130D01*
X0111314Y0053282D02*
X0110953Y0053643D01*
X0109511Y0053643D01*
X0109150Y0053282D01*
X0109150Y0052200D01*
X0111314Y0052200D01*
X0111314Y0053282D01*
X0110953Y0051468D02*
X0109511Y0051468D01*
X0109150Y0051107D01*
X0109150Y0050025D01*
X0111314Y0050025D01*
X0111314Y0051107D01*
X0110953Y0051468D01*
X0110593Y0049293D02*
X0109150Y0049293D01*
X0110593Y0049293D02*
X0111314Y0048571D01*
X0110593Y0047850D01*
X0109150Y0047850D01*
X0113087Y0047349D02*
X0113087Y0048628D01*
X0113513Y0049054D01*
X0114366Y0049054D01*
X0114792Y0048628D01*
X0114792Y0047349D01*
X0115645Y0047349D02*
X0113087Y0047349D01*
X0113087Y0046517D02*
X0115645Y0046517D01*
X0114792Y0045664D01*
X0115645Y0044812D01*
X0113087Y0044812D01*
X0113513Y0043979D02*
X0113087Y0043553D01*
X0113087Y0042274D01*
X0115645Y0042274D01*
X0114792Y0042274D02*
X0114792Y0043553D01*
X0114366Y0043979D01*
X0113513Y0043979D01*
X0111314Y0043440D02*
X0111314Y0042358D01*
X0109150Y0042358D01*
X0109150Y0043440D01*
X0109511Y0043800D01*
X0110953Y0043800D01*
X0111314Y0043440D01*
X0111314Y0041625D02*
X0109150Y0041625D01*
X0109150Y0040183D02*
X0111314Y0041625D01*
X0111314Y0040183D02*
X0109150Y0040183D01*
X0109511Y0039450D02*
X0109150Y0039089D01*
X0109150Y0038368D01*
X0109511Y0038007D01*
X0110953Y0038007D01*
X0111314Y0038368D01*
X0111314Y0039089D01*
X0110953Y0039450D01*
X0110232Y0039450D01*
X0110232Y0038729D01*
X0113087Y0032084D02*
X0113087Y0030379D01*
X0113087Y0029547D02*
X0113087Y0027841D01*
X0113087Y0028694D02*
X0115645Y0028694D01*
X0115645Y0027009D02*
X0113939Y0027009D01*
X0113087Y0026156D01*
X0113939Y0025304D01*
X0115645Y0025304D01*
X0115218Y0024472D02*
X0115645Y0024045D01*
X0115645Y0022766D01*
X0113087Y0022766D01*
X0113087Y0024045D01*
X0113513Y0024472D01*
X0113939Y0024472D01*
X0114366Y0024045D01*
X0114366Y0022766D01*
X0114366Y0024045D02*
X0114792Y0024472D01*
X0115218Y0024472D01*
X0114366Y0025304D02*
X0114366Y0027009D01*
X0111314Y0027491D02*
X0109871Y0027491D01*
X0109150Y0028212D01*
X0109871Y0028933D01*
X0111314Y0028933D01*
X0110232Y0028933D02*
X0110232Y0027491D01*
X0109871Y0026758D02*
X0110232Y0026397D01*
X0110232Y0025315D01*
X0110593Y0024583D02*
X0109150Y0024583D01*
X0109150Y0025315D02*
X0109150Y0026397D01*
X0109511Y0026758D01*
X0109871Y0026758D01*
X0110232Y0026397D02*
X0110593Y0026758D01*
X0110953Y0026758D01*
X0111314Y0026397D01*
X0111314Y0025315D01*
X0109150Y0025315D01*
X0110593Y0024583D02*
X0111314Y0023862D01*
X0110593Y0023140D01*
X0109150Y0023140D01*
X0109511Y0020178D02*
X0109150Y0019818D01*
X0109150Y0018736D01*
X0111314Y0018736D01*
X0111314Y0019818D01*
X0110953Y0020178D01*
X0109511Y0020178D01*
X0109150Y0018003D02*
X0111314Y0018003D01*
X0109150Y0016560D01*
X0111314Y0016560D01*
X0110953Y0015828D02*
X0110232Y0015828D01*
X0110232Y0015107D01*
X0109511Y0015828D02*
X0109150Y0015467D01*
X0109150Y0014746D01*
X0109511Y0014385D01*
X0110953Y0014385D01*
X0111314Y0014746D01*
X0111314Y0015467D01*
X0110953Y0015828D01*
X0113087Y0015153D02*
X0115645Y0016859D01*
X0115645Y0018544D02*
X0113087Y0018544D01*
X0113087Y0019396D02*
X0113087Y0017691D01*
X0113087Y0016859D02*
X0115645Y0015153D01*
X0115645Y0014321D02*
X0115645Y0012616D01*
X0113087Y0012616D01*
X0113087Y0014321D01*
X0114366Y0013468D02*
X0114366Y0012616D01*
X0109150Y0029666D02*
X0109150Y0031108D01*
X0109150Y0030387D02*
X0111314Y0030387D01*
X0113087Y0031232D02*
X0115645Y0031232D01*
X0114792Y0048202D02*
X0115645Y0049054D01*
X0111314Y0056999D02*
X0109150Y0056999D01*
X0111314Y0058441D01*
X0109150Y0058441D01*
X0109150Y0059174D02*
X0109150Y0060256D01*
X0109511Y0060616D01*
X0110232Y0060616D01*
X0110593Y0060256D01*
X0110593Y0059174D01*
X0111314Y0059174D02*
X0109150Y0059174D01*
X0110593Y0059895D02*
X0111314Y0060616D01*
X0110953Y0061349D02*
X0111314Y0061709D01*
X0111314Y0062431D01*
X0110953Y0062792D01*
X0110593Y0062792D01*
X0110232Y0062431D01*
X0110232Y0061709D01*
X0109871Y0061349D01*
X0109511Y0061349D01*
X0109150Y0061709D01*
X0109150Y0062431D01*
X0109511Y0062792D01*
X0109150Y0063524D02*
X0109150Y0064967D01*
X0109150Y0064245D02*
X0111314Y0064245D01*
X0113087Y0060890D02*
X0115645Y0060890D01*
X0089267Y0032870D02*
X0089267Y0031428D01*
X0089267Y0032149D02*
X0087103Y0032149D01*
X0087824Y0031428D01*
X0087103Y0030695D02*
X0087103Y0029252D01*
X0089267Y0029252D01*
X0088185Y0029252D02*
X0088185Y0029974D01*
X0034542Y0084328D02*
X0033821Y0085049D01*
X0032378Y0085049D01*
X0032378Y0085782D02*
X0032378Y0086864D01*
X0032739Y0087224D01*
X0033100Y0087224D01*
X0033460Y0086864D01*
X0033460Y0085782D01*
X0034542Y0085782D02*
X0032378Y0085782D01*
X0033460Y0086864D02*
X0033821Y0087224D01*
X0034182Y0087224D01*
X0034542Y0086864D01*
X0034542Y0085782D01*
X0034542Y0084328D02*
X0033821Y0083607D01*
X0032378Y0083607D01*
X0033100Y0087957D02*
X0032378Y0088678D01*
X0033100Y0089399D01*
X0034542Y0089399D01*
X0033460Y0089399D02*
X0033460Y0087957D01*
X0033100Y0087957D02*
X0034542Y0087957D01*
X0034542Y0090853D02*
X0032378Y0090853D01*
X0032378Y0090132D02*
X0032378Y0091575D01*
X0033460Y0092307D02*
X0033460Y0093750D01*
X0033460Y0094482D02*
X0033460Y0095925D01*
X0032378Y0096657D02*
X0033460Y0098100D01*
X0034542Y0096657D01*
X0034542Y0098832D02*
X0033100Y0098832D01*
X0032378Y0099554D01*
X0033100Y0100275D01*
X0034542Y0100275D01*
X0033821Y0101007D02*
X0034542Y0101729D01*
X0033821Y0102450D01*
X0032378Y0102450D01*
X0032378Y0103182D02*
X0032378Y0103904D01*
X0032378Y0103543D02*
X0034542Y0103543D01*
X0034542Y0103182D02*
X0034542Y0103904D01*
X0034542Y0104632D02*
X0032378Y0104632D01*
X0034542Y0106075D01*
X0032378Y0106075D01*
X0032378Y0101007D02*
X0033821Y0101007D01*
X0033460Y0100275D02*
X0033460Y0098832D01*
D12*
X0065745Y0097076D03*
X0083855Y0107706D03*
X0083461Y0059674D03*
X0062201Y0048650D03*
D13*
X0071257Y0069123D03*
D14*
X0095631Y0080194D02*
X0096148Y0079677D01*
X0098217Y0079677D01*
X0098734Y0080194D01*
X0098734Y0081228D01*
X0098217Y0081746D01*
X0098734Y0082900D02*
X0095631Y0082900D01*
X0098734Y0084968D01*
X0095631Y0084968D01*
X0096665Y0086123D02*
X0095631Y0087157D01*
X0098734Y0087157D01*
X0098734Y0086123D02*
X0098734Y0088191D01*
X0096148Y0081746D02*
X0095631Y0081228D01*
X0095631Y0080194D01*
X0096148Y0044884D02*
X0095631Y0044367D01*
X0095631Y0043333D01*
X0096148Y0042816D01*
X0095631Y0041661D02*
X0098734Y0041661D01*
X0095631Y0039593D01*
X0098734Y0039593D01*
X0098217Y0038439D02*
X0098734Y0037921D01*
X0098734Y0036887D01*
X0098217Y0036370D01*
X0096148Y0036370D01*
X0095631Y0036887D01*
X0095631Y0037921D01*
X0096148Y0038439D01*
X0098734Y0042816D02*
X0096665Y0044884D01*
X0096148Y0044884D01*
X0098734Y0044884D02*
X0098734Y0042816D01*
X0098217Y0021262D02*
X0098734Y0020745D01*
X0098734Y0019711D01*
X0098217Y0019194D01*
X0098734Y0018039D02*
X0095631Y0018039D01*
X0096148Y0019194D02*
X0095631Y0019711D01*
X0095631Y0020745D01*
X0096148Y0021262D01*
X0096665Y0021262D01*
X0097182Y0020745D01*
X0097700Y0021262D01*
X0098217Y0021262D01*
X0097182Y0020745D02*
X0097182Y0020228D01*
X0098734Y0018039D02*
X0095631Y0015971D01*
X0098734Y0015971D01*
X0098217Y0014816D02*
X0098734Y0014299D01*
X0098734Y0013265D01*
X0098217Y0012748D01*
X0096148Y0012748D01*
X0095631Y0013265D01*
X0095631Y0014299D01*
X0096148Y0014816D01*
X0047937Y0095757D02*
X0045869Y0095757D01*
X0045352Y0096274D01*
X0045352Y0097308D01*
X0045869Y0097825D01*
X0045352Y0098980D02*
X0048454Y0101048D01*
X0045352Y0101048D01*
X0046903Y0102202D02*
X0045352Y0103754D01*
X0048454Y0103754D01*
X0046903Y0104271D02*
X0046903Y0102202D01*
X0048454Y0098980D02*
X0045352Y0098980D01*
X0047937Y0097825D02*
X0048454Y0097308D01*
X0048454Y0096274D01*
X0047937Y0095757D01*
M02*
