%
M48
M72
T01C0.01181
T02C0.03500
%
T01
X72044Y61249
X61020Y68729
X67713Y76603
X61020Y86839
X53146Y90383
X53934Y101800
X69288Y97076
X75587Y89202
X79131Y88414
X88186Y97469
X88186Y100619
X91729Y101406
X79524Y110461
X85430Y71485
X88186Y67548
X86217Y64792
T02
X40154Y90225
X40154Y100225
X103934Y104477
X103934Y94477
X103934Y84477
X103934Y71170
X103934Y61170
X103934Y51170
X103934Y41170
X103934Y27548
X103934Y17548
X103934Y114477
M30
