G75*
%MOIN*%
%OFA0B0*%
%FSLAX25Y25*%
%IPPOS*%
%LPD*%
%AMOC8*
5,1,8,0,0,1.08239X$1,22.5*
%
%ADD10C,0.00000*%
%ADD11R,0.06500X0.06500*%
%ADD12C,0.06500*%
%ADD13C,0.01600*%
%ADD14C,0.02381*%
%ADD15C,0.00800*%
D10*
X0020469Y0005737D02*
X0020469Y0127784D01*
X0118894Y0127784D01*
X0118894Y0005737D01*
X0020469Y0005737D01*
D11*
X0040154Y0100225D03*
X0103934Y0084477D03*
X0103934Y0041170D03*
X0103934Y0017548D03*
D12*
X0103934Y0027548D03*
X0103934Y0051170D03*
X0103934Y0061170D03*
X0103934Y0071170D03*
X0103934Y0094477D03*
X0103934Y0104477D03*
X0103934Y0114477D03*
X0040154Y0090225D03*
D13*
X0036514Y0094575D02*
X0035364Y0093426D01*
X0034504Y0091349D01*
X0034504Y0089101D01*
X0035364Y0087025D01*
X0036954Y0085435D01*
X0039030Y0084575D01*
X0041278Y0084575D01*
X0043355Y0085435D01*
X0044610Y0086691D01*
X0048017Y0083285D01*
X0048804Y0082497D01*
X0049833Y0082071D01*
X0058286Y0082071D01*
X0064123Y0076234D01*
X0064123Y0075889D01*
X0064669Y0074569D01*
X0065679Y0073559D01*
X0066999Y0073013D01*
X0068427Y0073013D01*
X0069747Y0073559D01*
X0070757Y0074569D01*
X0071304Y0075889D01*
X0071304Y0077317D01*
X0070757Y0078637D01*
X0069747Y0079647D01*
X0068427Y0080194D01*
X0068082Y0080194D01*
X0064237Y0084039D01*
X0078113Y0084039D01*
X0079142Y0084466D01*
X0079500Y0084824D01*
X0079845Y0084824D01*
X0081164Y0085370D01*
X0082174Y0086380D01*
X0082721Y0087700D01*
X0082721Y0088045D01*
X0086983Y0092307D01*
X0089924Y0092307D01*
X0090953Y0092733D01*
X0091741Y0093521D01*
X0092134Y0093914D01*
X0092922Y0094702D01*
X0093348Y0095731D01*
X0093348Y0098190D01*
X0093763Y0098362D01*
X0094773Y0099372D01*
X0095320Y0100692D01*
X0095320Y0102120D01*
X0094773Y0103440D01*
X0093763Y0104450D01*
X0092443Y0104997D01*
X0091015Y0104997D01*
X0089695Y0104450D01*
X0089292Y0104047D01*
X0088900Y0104209D01*
X0087471Y0104209D01*
X0086152Y0103663D01*
X0085908Y0103419D01*
X0084293Y0103419D01*
X0084293Y0109050D01*
X0083866Y0110079D01*
X0083115Y0110831D01*
X0083115Y0111176D01*
X0082568Y0112495D01*
X0081558Y0113505D01*
X0080238Y0114052D01*
X0078810Y0114052D01*
X0077490Y0113505D01*
X0076480Y0112495D01*
X0075934Y0111176D01*
X0075934Y0109747D01*
X0076480Y0108428D01*
X0077490Y0107417D01*
X0078693Y0106919D01*
X0078693Y0101243D01*
X0079119Y0100214D01*
X0080289Y0099044D01*
X0078725Y0097481D01*
X0078299Y0096451D01*
X0078299Y0095873D01*
X0075218Y0092792D01*
X0074873Y0092792D01*
X0073553Y0092245D01*
X0072543Y0091235D01*
X0071997Y0089916D01*
X0071997Y0089639D01*
X0063298Y0089639D01*
X0063054Y0089883D01*
X0061735Y0090430D01*
X0061458Y0090430D01*
X0061458Y0097633D01*
X0061032Y0098662D01*
X0060244Y0099449D01*
X0057524Y0102169D01*
X0057524Y0102514D01*
X0056978Y0103834D01*
X0055968Y0104844D01*
X0054648Y0105391D01*
X0053220Y0105391D01*
X0051900Y0104844D01*
X0050890Y0103834D01*
X0050343Y0102514D01*
X0050343Y0101086D01*
X0050890Y0099766D01*
X0051900Y0098756D01*
X0053220Y0098209D01*
X0053564Y0098209D01*
X0055858Y0095916D01*
X0055858Y0089639D01*
X0051944Y0089639D01*
X0045594Y0095990D01*
X0045804Y0096498D01*
X0045804Y0103953D01*
X0045439Y0104835D01*
X0044764Y0105510D01*
X0043882Y0105875D01*
X0036427Y0105875D01*
X0035545Y0105510D01*
X0034870Y0104835D01*
X0034504Y0103953D01*
X0034504Y0096498D01*
X0034870Y0095616D01*
X0035545Y0094941D01*
X0036427Y0094575D01*
X0036514Y0094575D01*
X0035594Y0093655D02*
X0022869Y0093655D01*
X0022869Y0092057D02*
X0034797Y0092057D01*
X0034504Y0090458D02*
X0022869Y0090458D01*
X0022869Y0088860D02*
X0034604Y0088860D01*
X0035266Y0087261D02*
X0022869Y0087261D01*
X0022869Y0085663D02*
X0036727Y0085663D01*
X0043582Y0085663D02*
X0045639Y0085663D01*
X0047237Y0084064D02*
X0022869Y0084064D01*
X0022869Y0082466D02*
X0048881Y0082466D01*
X0051125Y0090458D02*
X0055858Y0090458D01*
X0055858Y0092057D02*
X0049527Y0092057D01*
X0047928Y0093655D02*
X0055858Y0093655D01*
X0055858Y0095254D02*
X0046330Y0095254D01*
X0045804Y0096852D02*
X0054922Y0096852D01*
X0052637Y0098451D02*
X0045804Y0098451D01*
X0045804Y0100049D02*
X0050773Y0100049D01*
X0050343Y0101648D02*
X0045804Y0101648D01*
X0045804Y0103246D02*
X0050646Y0103246D01*
X0051902Y0104845D02*
X0045429Y0104845D01*
X0055966Y0104845D02*
X0078693Y0104845D01*
X0078693Y0106443D02*
X0022869Y0106443D01*
X0022869Y0104845D02*
X0034880Y0104845D01*
X0034504Y0103246D02*
X0022869Y0103246D01*
X0022869Y0101648D02*
X0034504Y0101648D01*
X0034504Y0100049D02*
X0022869Y0100049D01*
X0022869Y0098451D02*
X0034504Y0098451D01*
X0034504Y0096852D02*
X0022869Y0096852D01*
X0022869Y0095254D02*
X0035232Y0095254D01*
X0022869Y0108042D02*
X0076866Y0108042D01*
X0075978Y0109640D02*
X0022869Y0109640D01*
X0022869Y0111239D02*
X0075960Y0111239D01*
X0076822Y0112837D02*
X0022869Y0112837D01*
X0022869Y0114436D02*
X0098284Y0114436D01*
X0098284Y0113353D02*
X0098284Y0115601D01*
X0099144Y0117678D01*
X0100733Y0119267D01*
X0102810Y0120127D01*
X0105058Y0120127D01*
X0107134Y0119267D01*
X0108724Y0117678D01*
X0109584Y0115601D01*
X0109584Y0113353D01*
X0108724Y0111277D01*
X0107134Y0109687D01*
X0106627Y0109477D01*
X0107134Y0109267D01*
X0108724Y0107678D01*
X0109584Y0105601D01*
X0109584Y0103353D01*
X0108724Y0101277D01*
X0107134Y0099687D01*
X0106627Y0099477D01*
X0107134Y0099267D01*
X0108724Y0097678D01*
X0109584Y0095601D01*
X0109584Y0093353D01*
X0108724Y0091277D01*
X0107134Y0089687D01*
X0106747Y0089527D01*
X0107421Y0089527D01*
X0107878Y0089404D01*
X0108289Y0089168D01*
X0108624Y0088832D01*
X0108861Y0088422D01*
X0108984Y0087964D01*
X0108984Y0084552D01*
X0104009Y0084552D01*
X0104009Y0084402D01*
X0108984Y0084402D01*
X0108984Y0080990D01*
X0108861Y0080532D01*
X0108624Y0080122D01*
X0108289Y0079787D01*
X0107878Y0079550D01*
X0107421Y0079427D01*
X0104009Y0079427D01*
X0104009Y0084402D01*
X0103859Y0084402D01*
X0103859Y0079427D01*
X0100447Y0079427D01*
X0099989Y0079550D01*
X0099578Y0079787D01*
X0099243Y0080122D01*
X0099006Y0080532D01*
X0098884Y0080990D01*
X0098884Y0084402D01*
X0103859Y0084402D01*
X0103859Y0084552D01*
X0098884Y0084552D01*
X0098884Y0087964D01*
X0099006Y0088422D01*
X0099243Y0088832D01*
X0099578Y0089168D01*
X0099989Y0089404D01*
X0100447Y0089527D01*
X0101120Y0089527D01*
X0100733Y0089687D01*
X0099144Y0091277D01*
X0098284Y0093353D01*
X0098284Y0095601D01*
X0099144Y0097678D01*
X0100733Y0099267D01*
X0101241Y0099477D01*
X0100733Y0099687D01*
X0099144Y0101277D01*
X0098284Y0103353D01*
X0098284Y0105601D01*
X0099144Y0107678D01*
X0100733Y0109267D01*
X0101241Y0109477D01*
X0100733Y0109687D01*
X0099144Y0111277D01*
X0098284Y0113353D01*
X0098497Y0112837D02*
X0082226Y0112837D01*
X0083089Y0111239D02*
X0099182Y0111239D01*
X0100847Y0109640D02*
X0084048Y0109640D01*
X0084293Y0108042D02*
X0099508Y0108042D01*
X0098633Y0106443D02*
X0084293Y0106443D01*
X0084293Y0104845D02*
X0090648Y0104845D01*
X0092810Y0104845D02*
X0098284Y0104845D01*
X0098328Y0103246D02*
X0094853Y0103246D01*
X0095320Y0101648D02*
X0098990Y0101648D01*
X0100371Y0100049D02*
X0095053Y0100049D01*
X0093851Y0098451D02*
X0099917Y0098451D01*
X0098802Y0096852D02*
X0093348Y0096852D01*
X0093150Y0095254D02*
X0098284Y0095254D01*
X0098284Y0093655D02*
X0091875Y0093655D01*
X0086733Y0092057D02*
X0098821Y0092057D01*
X0099962Y0090458D02*
X0085134Y0090458D01*
X0083536Y0088860D02*
X0099271Y0088860D01*
X0098884Y0087261D02*
X0082539Y0087261D01*
X0081457Y0085663D02*
X0098884Y0085663D01*
X0098884Y0084064D02*
X0078172Y0084064D01*
X0072221Y0090458D02*
X0061458Y0090458D01*
X0061458Y0092057D02*
X0073365Y0092057D01*
X0076081Y0093655D02*
X0061458Y0093655D01*
X0061458Y0095254D02*
X0077680Y0095254D01*
X0078465Y0096852D02*
X0061458Y0096852D01*
X0061119Y0098451D02*
X0079695Y0098451D01*
X0079284Y0100049D02*
X0059644Y0100049D01*
X0058046Y0101648D02*
X0078693Y0101648D01*
X0078693Y0103246D02*
X0057221Y0103246D01*
X0065811Y0082466D02*
X0098884Y0082466D01*
X0098917Y0080867D02*
X0067409Y0080867D01*
X0070126Y0079269D02*
X0116494Y0079269D01*
X0116494Y0080867D02*
X0108951Y0080867D01*
X0108984Y0082466D02*
X0116494Y0082466D01*
X0116494Y0084064D02*
X0108984Y0084064D01*
X0108984Y0085663D02*
X0116494Y0085663D01*
X0116494Y0087261D02*
X0108984Y0087261D01*
X0108597Y0088860D02*
X0116494Y0088860D01*
X0116494Y0090458D02*
X0107905Y0090458D01*
X0109047Y0092057D02*
X0116494Y0092057D01*
X0116494Y0093655D02*
X0109584Y0093655D01*
X0109584Y0095254D02*
X0116494Y0095254D01*
X0116494Y0096852D02*
X0109065Y0096852D01*
X0107951Y0098451D02*
X0116494Y0098451D01*
X0116494Y0100049D02*
X0107496Y0100049D01*
X0108877Y0101648D02*
X0116494Y0101648D01*
X0116494Y0103246D02*
X0109539Y0103246D01*
X0109584Y0104845D02*
X0116494Y0104845D01*
X0116494Y0106443D02*
X0109235Y0106443D01*
X0108359Y0108042D02*
X0116494Y0108042D01*
X0116494Y0109640D02*
X0107020Y0109640D01*
X0108686Y0111239D02*
X0116494Y0111239D01*
X0116494Y0112837D02*
X0109370Y0112837D01*
X0109584Y0114436D02*
X0116494Y0114436D01*
X0116494Y0116034D02*
X0109404Y0116034D01*
X0108742Y0117633D02*
X0116494Y0117633D01*
X0116494Y0119231D02*
X0107170Y0119231D01*
X0100698Y0119231D02*
X0022869Y0119231D01*
X0022869Y0117633D02*
X0099125Y0117633D01*
X0098463Y0116034D02*
X0022869Y0116034D01*
X0022869Y0120830D02*
X0116494Y0120830D01*
X0116494Y0122428D02*
X0022869Y0122428D01*
X0022869Y0124027D02*
X0116494Y0124027D01*
X0116494Y0125384D02*
X0022869Y0125384D01*
X0022869Y0008137D01*
X0116494Y0008137D01*
X0116494Y0125384D01*
X0104009Y0084064D02*
X0103859Y0084064D01*
X0103859Y0082466D02*
X0104009Y0082466D01*
X0104009Y0080867D02*
X0103859Y0080867D01*
X0102810Y0076820D02*
X0100733Y0075960D01*
X0099144Y0074371D01*
X0098284Y0072294D01*
X0098284Y0070046D01*
X0098450Y0069646D01*
X0097971Y0069167D01*
X0091401Y0069167D01*
X0091230Y0069582D01*
X0090220Y0070592D01*
X0088900Y0071139D01*
X0087471Y0071139D01*
X0086152Y0070592D01*
X0085142Y0069582D01*
X0084595Y0068262D01*
X0084595Y0068007D01*
X0084183Y0067836D01*
X0083173Y0066826D01*
X0082627Y0065506D01*
X0082627Y0064078D01*
X0082639Y0064049D01*
X0074322Y0064049D01*
X0074078Y0064293D01*
X0072758Y0064839D01*
X0071330Y0064839D01*
X0070010Y0064293D01*
X0069000Y0063283D01*
X0068453Y0061963D01*
X0068453Y0060535D01*
X0069000Y0059215D01*
X0070010Y0058205D01*
X0071330Y0057658D01*
X0072758Y0057658D01*
X0074078Y0058205D01*
X0074322Y0058449D01*
X0094483Y0058449D01*
X0098675Y0053239D01*
X0098284Y0052294D01*
X0098284Y0050046D01*
X0099144Y0047970D01*
X0100733Y0046380D01*
X0101120Y0046220D01*
X0100447Y0046220D01*
X0099989Y0046097D01*
X0099578Y0045860D01*
X0099243Y0045525D01*
X0099006Y0045115D01*
X0098884Y0044657D01*
X0098884Y0041245D01*
X0103859Y0041245D01*
X0103859Y0041095D01*
X0104009Y0041095D01*
X0104009Y0041245D01*
X0108984Y0041245D01*
X0108984Y0044657D01*
X0108861Y0045115D01*
X0108624Y0045525D01*
X0108289Y0045860D01*
X0107878Y0046097D01*
X0107421Y0046220D01*
X0106747Y0046220D01*
X0107134Y0046380D01*
X0108724Y0047970D01*
X0109584Y0050046D01*
X0109584Y0052294D01*
X0108724Y0054371D01*
X0107134Y0055960D01*
X0106627Y0056170D01*
X0107134Y0056380D01*
X0108724Y0057970D01*
X0109584Y0060046D01*
X0109584Y0062294D01*
X0108724Y0064371D01*
X0107134Y0065960D01*
X0106627Y0066170D01*
X0107134Y0066380D01*
X0108724Y0067970D01*
X0109584Y0070046D01*
X0109584Y0072294D01*
X0108724Y0074371D01*
X0107134Y0075960D01*
X0105058Y0076820D01*
X0102810Y0076820D01*
X0101003Y0076072D02*
X0071304Y0076072D01*
X0071158Y0077670D02*
X0116494Y0077670D01*
X0116494Y0076072D02*
X0106865Y0076072D01*
X0108621Y0074473D02*
X0116494Y0074473D01*
X0116494Y0072874D02*
X0109343Y0072874D01*
X0109584Y0071276D02*
X0116494Y0071276D01*
X0116494Y0069677D02*
X0109431Y0069677D01*
X0108769Y0068079D02*
X0116494Y0068079D01*
X0116494Y0066480D02*
X0107234Y0066480D01*
X0108212Y0064882D02*
X0116494Y0064882D01*
X0116494Y0063283D02*
X0109174Y0063283D01*
X0109584Y0061685D02*
X0116494Y0061685D01*
X0116494Y0060086D02*
X0109584Y0060086D01*
X0108938Y0058488D02*
X0116494Y0058488D01*
X0116494Y0056889D02*
X0107643Y0056889D01*
X0107803Y0055291D02*
X0116494Y0055291D01*
X0116494Y0053692D02*
X0109004Y0053692D01*
X0109584Y0052094D02*
X0116494Y0052094D01*
X0116494Y0050495D02*
X0109584Y0050495D01*
X0109108Y0048897D02*
X0116494Y0048897D01*
X0116494Y0047298D02*
X0108052Y0047298D01*
X0108450Y0045700D02*
X0116494Y0045700D01*
X0116494Y0044101D02*
X0108984Y0044101D01*
X0108984Y0042503D02*
X0116494Y0042503D01*
X0116494Y0040904D02*
X0108984Y0040904D01*
X0108984Y0041095D02*
X0104009Y0041095D01*
X0104009Y0036120D01*
X0107421Y0036120D01*
X0107878Y0036243D01*
X0108289Y0036480D01*
X0108624Y0036815D01*
X0108861Y0037225D01*
X0108984Y0037683D01*
X0108984Y0041095D01*
X0108984Y0039306D02*
X0116494Y0039306D01*
X0116494Y0037707D02*
X0108984Y0037707D01*
X0107134Y0032338D02*
X0105058Y0033198D01*
X0102810Y0033198D01*
X0100733Y0032338D01*
X0099144Y0030748D01*
X0098284Y0028672D01*
X0098284Y0026424D01*
X0099144Y0024348D01*
X0100733Y0022758D01*
X0101120Y0022598D01*
X0100447Y0022598D01*
X0099989Y0022475D01*
X0099578Y0022238D01*
X0099243Y0021903D01*
X0099006Y0021493D01*
X0098884Y0021035D01*
X0098884Y0017623D01*
X0103859Y0017623D01*
X0103859Y0017473D01*
X0104009Y0017473D01*
X0104009Y0017623D01*
X0108984Y0017623D01*
X0108984Y0021035D01*
X0108861Y0021493D01*
X0108624Y0021903D01*
X0108289Y0022238D01*
X0107878Y0022475D01*
X0107421Y0022598D01*
X0106747Y0022598D01*
X0107134Y0022758D01*
X0108724Y0024348D01*
X0109584Y0026424D01*
X0109584Y0028672D01*
X0108724Y0030748D01*
X0107134Y0032338D01*
X0108159Y0031313D02*
X0116494Y0031313D01*
X0116494Y0029715D02*
X0109152Y0029715D01*
X0109584Y0028116D02*
X0116494Y0028116D01*
X0116494Y0026518D02*
X0109584Y0026518D01*
X0108960Y0024919D02*
X0116494Y0024919D01*
X0116494Y0023321D02*
X0107697Y0023321D01*
X0108729Y0021722D02*
X0116494Y0021722D01*
X0116494Y0020124D02*
X0108984Y0020124D01*
X0108984Y0018525D02*
X0116494Y0018525D01*
X0116494Y0016927D02*
X0108984Y0016927D01*
X0108984Y0017473D02*
X0104009Y0017473D01*
X0104009Y0012498D01*
X0107421Y0012498D01*
X0107878Y0012621D01*
X0108289Y0012858D01*
X0108624Y0013193D01*
X0108861Y0013603D01*
X0108984Y0014061D01*
X0108984Y0017473D01*
X0108984Y0015328D02*
X0116494Y0015328D01*
X0116494Y0013730D02*
X0108895Y0013730D01*
X0104009Y0013730D02*
X0103859Y0013730D01*
X0103859Y0012498D02*
X0100447Y0012498D01*
X0099989Y0012621D01*
X0099578Y0012858D01*
X0099243Y0013193D01*
X0099006Y0013603D01*
X0098884Y0014061D01*
X0098884Y0017473D01*
X0103859Y0017473D01*
X0103859Y0012498D01*
X0103859Y0015328D02*
X0104009Y0015328D01*
X0104009Y0016927D02*
X0103859Y0016927D01*
X0098884Y0016927D02*
X0022869Y0016927D01*
X0022869Y0018525D02*
X0098884Y0018525D01*
X0098884Y0020124D02*
X0022869Y0020124D01*
X0022869Y0021722D02*
X0099139Y0021722D01*
X0100171Y0023321D02*
X0022869Y0023321D01*
X0022869Y0024919D02*
X0098907Y0024919D01*
X0098284Y0026518D02*
X0022869Y0026518D01*
X0022869Y0028116D02*
X0098284Y0028116D01*
X0098716Y0029715D02*
X0022869Y0029715D01*
X0022869Y0031313D02*
X0099709Y0031313D01*
X0102119Y0032912D02*
X0022869Y0032912D01*
X0022869Y0034510D02*
X0116494Y0034510D01*
X0116494Y0032912D02*
X0105749Y0032912D01*
X0103859Y0036120D02*
X0100447Y0036120D01*
X0099989Y0036243D01*
X0099578Y0036480D01*
X0099243Y0036815D01*
X0099006Y0037225D01*
X0098884Y0037683D01*
X0098884Y0041095D01*
X0103859Y0041095D01*
X0103859Y0036120D01*
X0103859Y0037707D02*
X0104009Y0037707D01*
X0104009Y0039306D02*
X0103859Y0039306D01*
X0103859Y0040904D02*
X0104009Y0040904D01*
X0098884Y0040904D02*
X0022869Y0040904D01*
X0022869Y0039306D02*
X0098884Y0039306D01*
X0098884Y0037707D02*
X0022869Y0037707D01*
X0022869Y0036109D02*
X0116494Y0036109D01*
X0099815Y0047298D02*
X0022869Y0047298D01*
X0022869Y0045700D02*
X0099418Y0045700D01*
X0098884Y0044101D02*
X0022869Y0044101D01*
X0022869Y0042503D02*
X0098884Y0042503D01*
X0098760Y0048897D02*
X0022869Y0048897D01*
X0022869Y0050495D02*
X0098284Y0050495D01*
X0098284Y0052094D02*
X0022869Y0052094D01*
X0022869Y0053692D02*
X0098310Y0053692D01*
X0097024Y0055291D02*
X0022869Y0055291D01*
X0022869Y0056889D02*
X0095738Y0056889D01*
X0098436Y0069677D02*
X0091134Y0069677D01*
X0085237Y0069677D02*
X0022869Y0069677D01*
X0022869Y0068079D02*
X0084595Y0068079D01*
X0083030Y0066480D02*
X0022869Y0066480D01*
X0022869Y0064882D02*
X0082627Y0064882D01*
X0070661Y0074473D02*
X0099246Y0074473D01*
X0098524Y0072874D02*
X0022869Y0072874D01*
X0022869Y0071276D02*
X0098284Y0071276D01*
X0069001Y0063283D02*
X0022869Y0063283D01*
X0022869Y0061685D02*
X0068453Y0061685D01*
X0068639Y0060086D02*
X0022869Y0060086D01*
X0022869Y0058488D02*
X0069727Y0058488D01*
X0064766Y0074473D02*
X0022869Y0074473D01*
X0022869Y0076072D02*
X0064123Y0076072D01*
X0062687Y0077670D02*
X0022869Y0077670D01*
X0022869Y0079269D02*
X0061088Y0079269D01*
X0059490Y0080867D02*
X0022869Y0080867D01*
X0022869Y0015328D02*
X0098884Y0015328D01*
X0098973Y0013730D02*
X0022869Y0013730D01*
X0022869Y0012131D02*
X0116494Y0012131D01*
X0116494Y0010533D02*
X0022869Y0010533D01*
X0022869Y0008934D02*
X0116494Y0008934D01*
D14*
X0072044Y0061249D03*
X0061020Y0068729D03*
X0067713Y0076603D03*
X0061020Y0086839D03*
X0053146Y0090383D03*
X0053934Y0101800D03*
X0069288Y0097076D03*
X0075587Y0089202D03*
X0079131Y0088414D03*
X0088186Y0097469D03*
X0088186Y0100619D03*
X0091729Y0101406D03*
X0079524Y0110461D03*
X0085430Y0071485D03*
X0088186Y0067548D03*
X0086217Y0064792D03*
D15*
X0100312Y0064792D01*
X0103934Y0061170D01*
X0099131Y0066367D02*
X0089367Y0066367D01*
X0088186Y0067548D01*
X0095823Y0061249D02*
X0072044Y0061249D01*
X0067713Y0076603D02*
X0059446Y0084871D01*
X0050390Y0084871D01*
X0045036Y0090225D01*
X0040154Y0090225D01*
X0040154Y0097469D02*
X0050784Y0086839D01*
X0061020Y0086839D01*
X0077556Y0086839D01*
X0079131Y0088414D01*
X0085823Y0095107D01*
X0089367Y0095107D01*
X0090548Y0096288D01*
X0090548Y0100225D01*
X0091729Y0101406D01*
X0088186Y0100619D02*
X0082674Y0100619D01*
X0081493Y0101800D01*
X0081493Y0108493D01*
X0079524Y0110461D01*
X0082674Y0097469D02*
X0088186Y0097469D01*
X0082674Y0097469D02*
X0081099Y0095894D01*
X0081099Y0094713D01*
X0075587Y0089202D01*
X0061020Y0086839D02*
X0059839Y0086839D01*
X0058658Y0088020D01*
X0058658Y0097076D01*
X0053934Y0101800D01*
X0040154Y0100225D02*
X0040154Y0097469D01*
X0095823Y0061249D02*
X0103934Y0051170D01*
X0099131Y0066367D02*
X0103934Y0071170D01*
M02*
