G75*
%MOIN*%
%OFA0B0*%
%FSLAX25Y25*%
%IPPOS*%
%LPD*%
%AMOC8*
5,1,8,0,0,1.08239X$1,22.5*
%
%ADD10C,0.00000*%
%ADD11R,0.03937X0.03937*%
%ADD12R,0.01969X0.00984*%
%ADD13R,0.02559X0.04134*%
%ADD14R,0.03150X0.02756*%
%ADD15R,0.00787X0.01929*%
%ADD16R,0.02126X0.00945*%
%ADD17R,0.02756X0.03642*%
%ADD18R,0.02756X0.01496*%
%ADD19R,0.00886X0.00984*%
%ADD20R,0.03543X0.03346*%
%ADD21R,0.00984X0.01181*%
%ADD22R,0.02362X0.00866*%
%ADD23R,0.02362X0.00945*%
%ADD24R,0.00787X0.03150*%
%ADD25R,0.06102X0.05709*%
D10*
X0020469Y0005737D02*
X0020469Y0127784D01*
X0118894Y0127784D01*
X0118894Y0005737D01*
X0020469Y0005737D01*
D11*
X0083461Y0028178D03*
X0083461Y0034477D03*
D12*
X0075587Y0032607D03*
X0075587Y0030048D03*
X0067713Y0051702D03*
X0067713Y0054261D03*
D13*
X0044386Y0049339D03*
X0035922Y0049339D03*
X0035922Y0033001D03*
X0044386Y0033001D03*
D14*
X0061020Y0033296D03*
X0066532Y0033296D03*
X0064564Y0072666D03*
X0059052Y0072666D03*
X0070863Y0072666D03*
X0076375Y0072666D03*
X0063383Y0101013D03*
X0063383Y0106131D03*
X0057871Y0106131D03*
X0057871Y0101013D03*
D15*
X0058658Y0095796D03*
X0060627Y0095796D03*
X0062595Y0095796D03*
X0062595Y0090481D03*
X0060627Y0090481D03*
X0058658Y0090481D03*
D16*
X0058068Y0093139D03*
X0063186Y0093139D03*
D17*
X0067713Y0089398D03*
X0067713Y0084280D03*
X0055902Y0085068D03*
X0055902Y0079950D03*
X0083461Y0083887D03*
X0083461Y0089005D03*
D18*
X0067713Y0040383D03*
D19*
X0064318Y0040580D03*
X0064318Y0043139D03*
X0064318Y0045698D03*
X0071109Y0045698D03*
X0071109Y0043139D03*
X0071109Y0040580D03*
D20*
X0067713Y0044418D03*
D21*
X0067713Y0063020D03*
X0066237Y0066564D03*
X0069190Y0066564D03*
D22*
X0082438Y0066761D03*
X0082438Y0064792D03*
X0082438Y0062824D03*
D23*
X0076611Y0062824D03*
X0076611Y0066761D03*
D24*
X0076572Y0094517D03*
X0078540Y0094517D03*
X0080509Y0094517D03*
X0074603Y0094517D03*
X0074603Y0105934D03*
X0076572Y0105934D03*
X0078540Y0105934D03*
X0080509Y0105934D03*
D25*
X0077556Y0100225D03*
M02*
