G75*
%MOIN*%
%OFA0B0*%
%FSLAX25Y25*%
%IPPOS*%
%LPD*%
%AMOC8*
5,1,8,0,0,1.08239X$1,22.5*
%
%ADD10C,0.00000*%
%ADD11R,0.04337X0.04337*%
%ADD12R,0.02756X0.01772*%
%ADD13R,0.02953X0.04528*%
%ADD14R,0.03550X0.03156*%
%ADD15R,0.01378X0.02559*%
%ADD16R,0.02756X0.01575*%
%ADD17R,0.03156X0.04042*%
%ADD18R,0.03543X0.02283*%
%ADD19R,0.04528X0.04134*%
%ADD20R,0.01476X0.01575*%
%ADD21R,0.01772X0.01969*%
%ADD22R,0.03031X0.01575*%
%ADD23R,0.01378X0.03740*%
%ADD24R,0.06693X0.06299*%
%ADD25R,0.06900X0.06900*%
%ADD26C,0.06900*%
D10*
X0020469Y0005737D02*
X0020469Y0127784D01*
X0118894Y0127784D01*
X0118894Y0005737D01*
X0020469Y0005737D01*
D11*
X0083461Y0028178D03*
X0083461Y0034477D03*
D12*
X0075587Y0032607D03*
X0075587Y0030048D03*
X0067713Y0051702D03*
X0067713Y0054261D03*
D13*
X0044386Y0049339D03*
X0035922Y0049339D03*
X0035922Y0033001D03*
X0044386Y0033001D03*
D14*
X0061020Y0033296D03*
X0066532Y0033296D03*
X0064564Y0072666D03*
X0059052Y0072666D03*
X0070863Y0072666D03*
X0076375Y0072666D03*
X0063383Y0101013D03*
X0063383Y0106131D03*
X0057871Y0106131D03*
X0057871Y0101013D03*
D15*
X0058638Y0095796D03*
X0060627Y0095796D03*
X0062615Y0095796D03*
X0062575Y0090481D03*
X0060607Y0090481D03*
X0058638Y0090481D03*
D16*
X0058068Y0093139D03*
X0063186Y0093139D03*
D17*
X0067713Y0089398D03*
X0067713Y0084280D03*
X0055902Y0085068D03*
X0055902Y0079950D03*
X0083461Y0083887D03*
X0083461Y0089005D03*
D18*
X0067713Y0040383D03*
D19*
X0067713Y0044418D03*
D20*
X0064318Y0043139D03*
X0064318Y0045698D03*
X0064318Y0040580D03*
X0071109Y0040580D03*
X0071109Y0043139D03*
X0071109Y0045698D03*
D21*
X0067713Y0063020D03*
X0066237Y0066564D03*
X0069190Y0066564D03*
D22*
X0076631Y0066761D03*
X0076631Y0062824D03*
X0082418Y0062824D03*
X0082418Y0064792D03*
X0082418Y0066761D03*
D23*
X0080509Y0094517D03*
X0078540Y0094517D03*
X0076572Y0094517D03*
X0074603Y0094517D03*
X0074603Y0105934D03*
X0076572Y0105934D03*
X0078540Y0105934D03*
X0080509Y0105934D03*
D24*
X0077556Y0100225D03*
D25*
X0103934Y0084477D03*
X0103934Y0041170D03*
X0103934Y0017548D03*
X0040154Y0100225D03*
D26*
X0040154Y0090225D03*
X0103934Y0094477D03*
X0103934Y0104477D03*
X0103934Y0114477D03*
X0103934Y0071170D03*
X0103934Y0061170D03*
X0103934Y0051170D03*
X0103934Y0027548D03*
M02*
