%
M48
M72
T01C0.01181
T02C0.03500
%
T01
X73959Y47469
X81046Y64792
X83408Y67154
X85770Y73454
X85376Y86446
X85376Y89989
X62148Y88808
X95613Y46682
X113329Y112036
X113329Y115580
X111361Y120304
X114117Y123060
T02
X121203Y159083
X121203Y149083
X121203Y139083
X121203Y129083
X121203Y119083
X121203Y109083
X121203Y95501
X121203Y85501
X121203Y75501
X121203Y61643
X121203Y51643
X121203Y41643
X121203Y31643
X121203Y21643
X50337Y21485
X50337Y31485
M30
