G75*
%MOIN*%
%OFA0B0*%
%FSLAX25Y25*%
%IPPOS*%
%LPD*%
%AMOC8*
5,1,8,0,0,1.08239X$1,22.5*
%
%ADD10C,0.00000*%
%ADD11R,0.04042X0.03156*%
%ADD12R,0.01575X0.03543*%
%ADD13R,0.05912X0.06306*%
%ADD14R,0.06900X0.06900*%
%ADD15C,0.06900*%
%ADD16R,0.01969X0.02362*%
%ADD17R,0.02362X0.01772*%
%ADD18C,0.00001*%
%ADD19R,0.03550X0.03156*%
%ADD20R,0.03156X0.03550*%
%ADD21R,0.03543X0.02362*%
%ADD22C,0.40400*%
%ADD23R,0.10400X0.20400*%
%ADD24R,0.03150X0.02362*%
%ADD25R,0.02565X0.02565*%
D10*
X0037739Y0009674D02*
X0037739Y0167154D01*
X0136164Y0167154D01*
X0136164Y0009674D01*
X0037739Y0009674D01*
X0066557Y0047863D02*
X0068683Y0047863D01*
X0068683Y0049044D01*
X0070022Y0049044D01*
X0070022Y0050619D01*
X0068683Y0050619D01*
X0068683Y0051800D01*
X0066557Y0051800D01*
X0066557Y0047863D01*
D11*
X0089904Y0085658D03*
X0089904Y0090383D03*
X0095022Y0090383D03*
X0095022Y0085658D03*
D12*
X0084786Y0040383D03*
X0082817Y0040383D03*
X0080849Y0040383D03*
X0078880Y0040383D03*
X0076912Y0040383D03*
X0074943Y0040383D03*
X0072975Y0040383D03*
X0071006Y0040383D03*
D13*
X0064904Y0028375D03*
X0090888Y0028375D03*
D14*
X0121203Y0061643D03*
X0121203Y0095501D03*
X0121203Y0159083D03*
X0050337Y0021485D03*
D15*
X0050337Y0031485D03*
X0121203Y0031643D03*
X0121203Y0021643D03*
X0121203Y0041643D03*
X0121203Y0051643D03*
X0121203Y0075501D03*
X0121203Y0085501D03*
X0121203Y0109083D03*
X0121203Y0119083D03*
X0121203Y0129083D03*
X0121203Y0139083D03*
X0121203Y0149083D03*
D16*
X0110770Y0044123D03*
X0108014Y0044123D03*
X0108014Y0039005D03*
X0110770Y0039005D03*
D17*
X0064904Y0048552D03*
X0064904Y0051111D03*
D18*
X0066557Y0051117D02*
X0068683Y0051117D01*
X0068683Y0051118D02*
X0066557Y0051118D01*
X0066557Y0051119D02*
X0068683Y0051119D01*
X0068683Y0051120D02*
X0066557Y0051120D01*
X0066557Y0051121D02*
X0068683Y0051121D01*
X0068683Y0051122D02*
X0066557Y0051122D01*
X0066557Y0051123D02*
X0068683Y0051123D01*
X0068683Y0051124D02*
X0066557Y0051124D01*
X0066557Y0051125D02*
X0068683Y0051125D01*
X0068683Y0051126D02*
X0066557Y0051126D01*
X0066557Y0051127D02*
X0068683Y0051127D01*
X0068683Y0051128D02*
X0066557Y0051128D01*
X0066557Y0051129D02*
X0068683Y0051129D01*
X0068683Y0051130D02*
X0066557Y0051130D01*
X0066557Y0051131D02*
X0068683Y0051131D01*
X0068683Y0051132D02*
X0066557Y0051132D01*
X0066557Y0051133D02*
X0068683Y0051133D01*
X0068683Y0051134D02*
X0066557Y0051134D01*
X0066557Y0051135D02*
X0068683Y0051135D01*
X0068683Y0051136D02*
X0066557Y0051136D01*
X0066557Y0051137D02*
X0068683Y0051137D01*
X0068683Y0051138D02*
X0066557Y0051138D01*
X0066557Y0051139D02*
X0068683Y0051139D01*
X0068683Y0051140D02*
X0066557Y0051140D01*
X0066557Y0051141D02*
X0068683Y0051141D01*
X0068683Y0051142D02*
X0066557Y0051142D01*
X0066557Y0051143D02*
X0068683Y0051143D01*
X0068683Y0051144D02*
X0066557Y0051144D01*
X0068683Y0051144D01*
X0068683Y0051145D02*
X0066557Y0051145D01*
X0066557Y0051146D02*
X0068683Y0051146D01*
X0068683Y0051147D02*
X0066557Y0051147D01*
X0066557Y0051148D02*
X0068683Y0051148D01*
X0068683Y0051149D02*
X0066557Y0051149D01*
X0066557Y0051150D02*
X0068683Y0051150D01*
X0068683Y0051151D02*
X0066557Y0051151D01*
X0066557Y0051152D02*
X0068683Y0051152D01*
X0068683Y0051153D02*
X0066557Y0051153D01*
X0066557Y0051154D02*
X0068683Y0051154D01*
X0068683Y0051155D02*
X0066557Y0051155D01*
X0066557Y0051156D02*
X0068683Y0051156D01*
X0068683Y0051157D02*
X0066557Y0051157D01*
X0066557Y0051158D02*
X0068683Y0051158D01*
X0068683Y0051159D02*
X0066557Y0051159D01*
X0066557Y0051160D02*
X0068683Y0051160D01*
X0068683Y0051161D02*
X0066557Y0051161D01*
X0066557Y0051162D02*
X0068683Y0051162D01*
X0068683Y0051163D02*
X0066557Y0051163D01*
X0066557Y0051164D02*
X0068683Y0051164D01*
X0068683Y0051165D02*
X0066557Y0051165D01*
X0066557Y0051166D02*
X0068683Y0051166D01*
X0068683Y0051167D02*
X0066557Y0051167D01*
X0066557Y0051168D02*
X0068683Y0051168D01*
X0068683Y0051169D02*
X0066557Y0051169D01*
X0066557Y0051170D02*
X0068683Y0051170D01*
X0068683Y0051171D02*
X0066557Y0051171D01*
X0066557Y0051172D02*
X0068683Y0051172D01*
X0068683Y0051173D02*
X0066557Y0051173D01*
X0066557Y0051174D02*
X0068683Y0051174D01*
X0068683Y0051175D02*
X0066557Y0051175D01*
X0066557Y0051176D02*
X0068683Y0051176D01*
X0068683Y0051177D02*
X0066557Y0051177D01*
X0066557Y0051178D02*
X0068683Y0051178D01*
X0068683Y0051179D02*
X0066557Y0051179D01*
X0066557Y0051180D02*
X0068683Y0051180D01*
X0068683Y0051181D02*
X0066557Y0051181D01*
X0066557Y0051182D02*
X0068683Y0051182D01*
X0068683Y0051183D02*
X0066557Y0051183D01*
X0066557Y0051184D02*
X0068683Y0051184D01*
X0068683Y0051185D02*
X0066557Y0051185D01*
X0066557Y0051186D02*
X0068683Y0051186D01*
X0068683Y0051187D02*
X0066557Y0051187D01*
X0066557Y0051188D02*
X0068683Y0051188D01*
X0068683Y0051189D02*
X0066557Y0051189D01*
X0066557Y0051190D02*
X0068683Y0051190D01*
X0068683Y0051191D02*
X0066557Y0051191D01*
X0066557Y0051192D02*
X0068683Y0051192D01*
X0068683Y0051193D02*
X0066557Y0051193D01*
X0066557Y0051194D02*
X0068683Y0051194D01*
X0068683Y0051195D02*
X0066557Y0051195D01*
X0066557Y0051196D02*
X0068683Y0051196D01*
X0068683Y0051197D02*
X0066557Y0051197D01*
X0066557Y0051198D02*
X0068683Y0051198D01*
X0068683Y0051199D02*
X0066557Y0051199D01*
X0066557Y0051200D02*
X0068683Y0051200D01*
X0068683Y0051201D02*
X0066557Y0051201D01*
X0066557Y0051202D02*
X0068683Y0051202D01*
X0068683Y0051203D02*
X0066557Y0051203D01*
X0066557Y0051204D02*
X0068683Y0051204D01*
X0068683Y0051205D02*
X0066557Y0051205D01*
X0066557Y0051206D02*
X0068683Y0051206D01*
X0066557Y0051206D01*
X0066557Y0051207D02*
X0068683Y0051207D01*
X0068683Y0051208D02*
X0066557Y0051208D01*
X0066557Y0051209D02*
X0068683Y0051209D01*
X0068683Y0051210D02*
X0066557Y0051210D01*
X0066557Y0051211D02*
X0068683Y0051211D01*
X0068683Y0051212D02*
X0066557Y0051212D01*
X0066557Y0051213D02*
X0068683Y0051213D01*
X0068683Y0051214D02*
X0066557Y0051214D01*
X0066557Y0051215D02*
X0068683Y0051215D01*
X0068683Y0051216D02*
X0066557Y0051216D01*
X0066557Y0051217D02*
X0068683Y0051217D01*
X0068683Y0051218D02*
X0066557Y0051218D01*
X0066557Y0051219D02*
X0068683Y0051219D01*
X0068683Y0051220D02*
X0066557Y0051220D01*
X0066557Y0051221D02*
X0068683Y0051221D01*
X0068683Y0051222D02*
X0066557Y0051222D01*
X0066557Y0051223D02*
X0068683Y0051223D01*
X0068683Y0051224D02*
X0066557Y0051224D01*
X0066557Y0051225D02*
X0068683Y0051225D01*
X0068683Y0051226D02*
X0066557Y0051226D01*
X0066557Y0051227D02*
X0068683Y0051227D01*
X0068683Y0051228D02*
X0066557Y0051228D01*
X0066557Y0051229D02*
X0068683Y0051229D01*
X0068683Y0051230D02*
X0066557Y0051230D01*
X0066557Y0051231D02*
X0068683Y0051231D01*
X0068683Y0051232D02*
X0066557Y0051232D01*
X0066557Y0051233D02*
X0068683Y0051233D01*
X0068683Y0051234D02*
X0066557Y0051234D01*
X0066557Y0051235D02*
X0068683Y0051235D01*
X0068683Y0051236D02*
X0066557Y0051236D01*
X0066557Y0051237D02*
X0068683Y0051237D01*
X0068683Y0051238D02*
X0066557Y0051238D01*
X0066557Y0051239D02*
X0068683Y0051239D01*
X0068683Y0051240D02*
X0066557Y0051240D01*
X0066557Y0051241D02*
X0068683Y0051241D01*
X0068683Y0051242D02*
X0066557Y0051242D01*
X0066557Y0051243D02*
X0068683Y0051243D01*
X0068683Y0051244D02*
X0066557Y0051244D01*
X0066557Y0051245D02*
X0068683Y0051245D01*
X0068683Y0051246D02*
X0066557Y0051246D01*
X0066557Y0051247D02*
X0068683Y0051247D01*
X0068683Y0051248D02*
X0066557Y0051248D01*
X0066557Y0051249D02*
X0068683Y0051249D01*
X0068683Y0051250D02*
X0066557Y0051250D01*
X0066557Y0051251D02*
X0068683Y0051251D01*
X0068683Y0051252D02*
X0066557Y0051252D01*
X0066557Y0051253D02*
X0068683Y0051253D01*
X0068683Y0051254D02*
X0066557Y0051254D01*
X0066557Y0051255D02*
X0068683Y0051255D01*
X0068683Y0051256D02*
X0066557Y0051256D01*
X0066557Y0051257D02*
X0068683Y0051257D01*
X0068683Y0051258D02*
X0066557Y0051258D01*
X0066557Y0051259D02*
X0068683Y0051259D01*
X0068683Y0051260D02*
X0066557Y0051260D01*
X0066557Y0051261D02*
X0068683Y0051261D01*
X0068683Y0051262D02*
X0066557Y0051262D01*
X0066557Y0051263D02*
X0068683Y0051263D01*
X0068683Y0051264D02*
X0066557Y0051264D01*
X0066557Y0051265D02*
X0068683Y0051265D01*
X0068683Y0051266D02*
X0066557Y0051266D01*
X0066557Y0051267D02*
X0068683Y0051267D01*
X0068683Y0051268D02*
X0066557Y0051268D01*
X0066557Y0051269D02*
X0068683Y0051269D01*
X0066557Y0051269D01*
X0066557Y0051270D02*
X0068683Y0051270D01*
X0068683Y0051271D02*
X0066557Y0051271D01*
X0066557Y0051272D02*
X0068683Y0051272D01*
X0068683Y0051273D02*
X0066557Y0051273D01*
X0066557Y0051274D02*
X0068683Y0051274D01*
X0068683Y0051275D02*
X0066557Y0051275D01*
X0066557Y0051276D02*
X0068683Y0051276D01*
X0068683Y0051277D02*
X0066557Y0051277D01*
X0066557Y0051278D02*
X0068683Y0051278D01*
X0068683Y0051279D02*
X0066557Y0051279D01*
X0066557Y0051280D02*
X0068683Y0051280D01*
X0068683Y0051281D02*
X0066557Y0051281D01*
X0066557Y0051282D02*
X0068683Y0051282D01*
X0068683Y0051283D02*
X0066557Y0051283D01*
X0066557Y0051284D02*
X0068683Y0051284D01*
X0068683Y0051285D02*
X0066557Y0051285D01*
X0066557Y0051286D02*
X0068683Y0051286D01*
X0068683Y0051287D02*
X0066557Y0051287D01*
X0066557Y0051288D02*
X0068683Y0051288D01*
X0068683Y0051289D02*
X0066557Y0051289D01*
X0066557Y0051290D02*
X0068683Y0051290D01*
X0068683Y0051291D02*
X0066557Y0051291D01*
X0066557Y0051292D02*
X0068683Y0051292D01*
X0068683Y0051293D02*
X0066557Y0051293D01*
X0066557Y0051294D02*
X0068683Y0051294D01*
X0068683Y0051295D02*
X0066557Y0051295D01*
X0066557Y0051296D02*
X0068683Y0051296D01*
X0068683Y0051297D02*
X0066557Y0051297D01*
X0066557Y0051298D02*
X0068683Y0051298D01*
X0068683Y0051299D02*
X0066557Y0051299D01*
X0066557Y0051300D02*
X0068683Y0051300D01*
X0068683Y0051301D02*
X0066557Y0051301D01*
X0066557Y0051302D02*
X0068683Y0051302D01*
X0068683Y0051303D02*
X0066557Y0051303D01*
X0066557Y0051304D02*
X0068683Y0051304D01*
X0068683Y0051305D02*
X0066557Y0051305D01*
X0066557Y0051306D02*
X0068683Y0051306D01*
X0068683Y0051307D02*
X0066557Y0051307D01*
X0066557Y0051308D02*
X0068683Y0051308D01*
X0068683Y0051309D02*
X0066557Y0051309D01*
X0066557Y0051310D02*
X0068683Y0051310D01*
X0068683Y0051311D02*
X0066557Y0051311D01*
X0066557Y0051312D02*
X0068683Y0051312D01*
X0068683Y0051313D02*
X0066557Y0051313D01*
X0066557Y0051314D02*
X0068683Y0051314D01*
X0068683Y0051315D02*
X0066557Y0051315D01*
X0066557Y0051316D02*
X0068683Y0051316D01*
X0068683Y0051317D02*
X0066557Y0051317D01*
X0066557Y0051318D02*
X0068683Y0051318D01*
X0068683Y0051319D02*
X0066557Y0051319D01*
X0066557Y0051320D02*
X0068683Y0051320D01*
X0068683Y0051321D02*
X0066557Y0051321D01*
X0066557Y0051322D02*
X0068683Y0051322D01*
X0068683Y0051323D02*
X0066557Y0051323D01*
X0066557Y0051324D02*
X0068683Y0051324D01*
X0068683Y0051325D02*
X0066557Y0051325D01*
X0066557Y0051326D02*
X0068683Y0051326D01*
X0068683Y0051327D02*
X0066557Y0051327D01*
X0066557Y0051328D02*
X0068683Y0051328D01*
X0068683Y0051329D02*
X0066557Y0051329D01*
X0066557Y0051330D02*
X0068683Y0051330D01*
X0068683Y0051331D02*
X0066557Y0051331D01*
X0068683Y0051331D01*
X0068683Y0051332D02*
X0066557Y0051332D01*
X0066557Y0051333D02*
X0068683Y0051333D01*
X0068683Y0051334D02*
X0066557Y0051334D01*
X0066557Y0051335D02*
X0068683Y0051335D01*
X0068683Y0051336D02*
X0066557Y0051336D01*
X0066557Y0051337D02*
X0068683Y0051337D01*
X0068683Y0051338D02*
X0066557Y0051338D01*
X0066557Y0051339D02*
X0068683Y0051339D01*
X0068683Y0051340D02*
X0066557Y0051340D01*
X0066557Y0051341D02*
X0068683Y0051341D01*
X0068683Y0051342D02*
X0066557Y0051342D01*
X0066557Y0051343D02*
X0068683Y0051343D01*
X0068683Y0051344D02*
X0066557Y0051344D01*
X0066557Y0051345D02*
X0068683Y0051345D01*
X0068683Y0051346D02*
X0066557Y0051346D01*
X0066557Y0051347D02*
X0068683Y0051347D01*
X0068683Y0051348D02*
X0066557Y0051348D01*
X0066557Y0051349D02*
X0068683Y0051349D01*
X0068683Y0051350D02*
X0066557Y0051350D01*
X0066557Y0051351D02*
X0068683Y0051351D01*
X0068683Y0051352D02*
X0066557Y0051352D01*
X0066557Y0051353D02*
X0068683Y0051353D01*
X0068683Y0051354D02*
X0066557Y0051354D01*
X0066557Y0051355D02*
X0068683Y0051355D01*
X0068683Y0051356D02*
X0066557Y0051356D01*
X0066557Y0051357D02*
X0068683Y0051357D01*
X0068683Y0051358D02*
X0066557Y0051358D01*
X0066557Y0051359D02*
X0068683Y0051359D01*
X0068683Y0051360D02*
X0066557Y0051360D01*
X0066557Y0051361D02*
X0068683Y0051361D01*
X0068683Y0051362D02*
X0066557Y0051362D01*
X0066557Y0051363D02*
X0068683Y0051363D01*
X0068683Y0051364D02*
X0066557Y0051364D01*
X0066557Y0051365D02*
X0068683Y0051365D01*
X0068683Y0051366D02*
X0066557Y0051366D01*
X0066557Y0051367D02*
X0068683Y0051367D01*
X0068683Y0051368D02*
X0066557Y0051368D01*
X0066557Y0051369D02*
X0068683Y0051369D01*
X0068683Y0051370D02*
X0066557Y0051370D01*
X0066557Y0051371D02*
X0068683Y0051371D01*
X0068683Y0051372D02*
X0066557Y0051372D01*
X0066557Y0051373D02*
X0068683Y0051373D01*
X0068683Y0051374D02*
X0066557Y0051374D01*
X0066557Y0051375D02*
X0068683Y0051375D01*
X0068683Y0051376D02*
X0066557Y0051376D01*
X0066557Y0051377D02*
X0068683Y0051377D01*
X0068683Y0051378D02*
X0066557Y0051378D01*
X0066557Y0051379D02*
X0068683Y0051379D01*
X0068683Y0051380D02*
X0066557Y0051380D01*
X0066557Y0051381D02*
X0068683Y0051381D01*
X0068683Y0051382D02*
X0066557Y0051382D01*
X0066557Y0051383D02*
X0068683Y0051383D01*
X0068683Y0051384D02*
X0066557Y0051384D01*
X0066557Y0051385D02*
X0068683Y0051385D01*
X0068683Y0051386D02*
X0066557Y0051386D01*
X0066557Y0051387D02*
X0068683Y0051387D01*
X0068683Y0051388D02*
X0066557Y0051388D01*
X0066557Y0051389D02*
X0068683Y0051389D01*
X0068683Y0051390D02*
X0066557Y0051390D01*
X0066557Y0051391D02*
X0068683Y0051391D01*
X0068683Y0051392D02*
X0066557Y0051392D01*
X0066557Y0051393D02*
X0068683Y0051393D01*
X0068683Y0051394D02*
X0066557Y0051394D01*
X0068683Y0051394D01*
X0068683Y0051395D02*
X0066557Y0051395D01*
X0066557Y0051396D02*
X0068683Y0051396D01*
X0068683Y0051397D02*
X0066557Y0051397D01*
X0066557Y0051398D02*
X0068683Y0051398D01*
X0068683Y0051399D02*
X0066557Y0051399D01*
X0066557Y0051400D02*
X0068683Y0051400D01*
X0068683Y0051401D02*
X0066557Y0051401D01*
X0066557Y0051402D02*
X0068683Y0051402D01*
X0068683Y0051403D02*
X0066557Y0051403D01*
X0066557Y0051404D02*
X0068683Y0051404D01*
X0068683Y0051405D02*
X0066557Y0051405D01*
X0066557Y0051406D02*
X0068683Y0051406D01*
X0068683Y0051407D02*
X0066557Y0051407D01*
X0066557Y0051408D02*
X0068683Y0051408D01*
X0068683Y0051409D02*
X0066557Y0051409D01*
X0066557Y0051410D02*
X0068683Y0051410D01*
X0068683Y0051411D02*
X0066557Y0051411D01*
X0066557Y0051412D02*
X0068683Y0051412D01*
X0068683Y0051413D02*
X0066557Y0051413D01*
X0066557Y0051414D02*
X0068683Y0051414D01*
X0068683Y0051415D02*
X0066557Y0051415D01*
X0066557Y0051416D02*
X0068683Y0051416D01*
X0068683Y0051417D02*
X0066557Y0051417D01*
X0066557Y0051418D02*
X0068683Y0051418D01*
X0068683Y0051419D02*
X0066557Y0051419D01*
X0066557Y0051420D02*
X0068683Y0051420D01*
X0068683Y0051421D02*
X0066557Y0051421D01*
X0066557Y0051422D02*
X0068683Y0051422D01*
X0068683Y0051423D02*
X0066557Y0051423D01*
X0066557Y0051424D02*
X0068683Y0051424D01*
X0068683Y0051425D02*
X0066557Y0051425D01*
X0066557Y0051426D02*
X0068683Y0051426D01*
X0068683Y0051427D02*
X0066557Y0051427D01*
X0066557Y0051428D02*
X0068683Y0051428D01*
X0068683Y0051429D02*
X0066557Y0051429D01*
X0066557Y0051430D02*
X0068683Y0051430D01*
X0068683Y0051431D02*
X0066557Y0051431D01*
X0066557Y0051432D02*
X0068683Y0051432D01*
X0068683Y0051433D02*
X0066557Y0051433D01*
X0066557Y0051434D02*
X0068683Y0051434D01*
X0068683Y0051435D02*
X0066557Y0051435D01*
X0066557Y0051436D02*
X0068683Y0051436D01*
X0068683Y0051437D02*
X0066557Y0051437D01*
X0066557Y0051438D02*
X0068683Y0051438D01*
X0068683Y0051439D02*
X0066557Y0051439D01*
X0066557Y0051440D02*
X0068683Y0051440D01*
X0068683Y0051441D02*
X0066557Y0051441D01*
X0066557Y0051442D02*
X0068683Y0051442D01*
X0068683Y0051443D02*
X0066557Y0051443D01*
X0066557Y0051444D02*
X0068683Y0051444D01*
X0068683Y0051445D02*
X0066557Y0051445D01*
X0066557Y0051446D02*
X0068683Y0051446D01*
X0068683Y0051447D02*
X0066557Y0051447D01*
X0066557Y0051448D02*
X0068683Y0051448D01*
X0068683Y0051449D02*
X0066557Y0051449D01*
X0066557Y0051450D02*
X0068683Y0051450D01*
X0068683Y0051451D02*
X0066557Y0051451D01*
X0066557Y0051452D02*
X0068683Y0051452D01*
X0068683Y0051453D02*
X0066557Y0051453D01*
X0066557Y0051454D02*
X0068683Y0051454D01*
X0068683Y0051455D02*
X0066557Y0051455D01*
X0066557Y0051456D02*
X0068683Y0051456D01*
X0066557Y0051456D01*
X0066557Y0051457D02*
X0068683Y0051457D01*
X0068683Y0051458D02*
X0066557Y0051458D01*
X0066557Y0051459D02*
X0068683Y0051459D01*
X0068683Y0051460D02*
X0066557Y0051460D01*
X0066557Y0051461D02*
X0068683Y0051461D01*
X0068683Y0051462D02*
X0066557Y0051462D01*
X0066557Y0051463D02*
X0068683Y0051463D01*
X0068683Y0051464D02*
X0066557Y0051464D01*
X0066557Y0051465D02*
X0068683Y0051465D01*
X0068683Y0051466D02*
X0066557Y0051466D01*
X0066557Y0051467D02*
X0068683Y0051467D01*
X0068683Y0051468D02*
X0066557Y0051468D01*
X0066557Y0051469D02*
X0068683Y0051469D01*
X0068683Y0051470D02*
X0066557Y0051470D01*
X0066557Y0051471D02*
X0068683Y0051471D01*
X0068683Y0051472D02*
X0066557Y0051472D01*
X0066557Y0051473D02*
X0068683Y0051473D01*
X0068683Y0051474D02*
X0066557Y0051474D01*
X0066557Y0051475D02*
X0068683Y0051475D01*
X0068683Y0051476D02*
X0066557Y0051476D01*
X0066557Y0051477D02*
X0068683Y0051477D01*
X0068683Y0051478D02*
X0066557Y0051478D01*
X0066557Y0051479D02*
X0068683Y0051479D01*
X0068683Y0051480D02*
X0066557Y0051480D01*
X0066557Y0051481D02*
X0068683Y0051481D01*
X0068683Y0051482D02*
X0066557Y0051482D01*
X0066557Y0051483D02*
X0068683Y0051483D01*
X0068683Y0051484D02*
X0066557Y0051484D01*
X0066557Y0051485D02*
X0068683Y0051485D01*
X0068683Y0051486D02*
X0066557Y0051486D01*
X0066557Y0051487D02*
X0068683Y0051487D01*
X0068683Y0051488D02*
X0066557Y0051488D01*
X0066557Y0051489D02*
X0068683Y0051489D01*
X0068683Y0051490D02*
X0066557Y0051490D01*
X0066557Y0051491D02*
X0068683Y0051491D01*
X0068683Y0051492D02*
X0066557Y0051492D01*
X0066557Y0051493D02*
X0068683Y0051493D01*
X0068683Y0051494D02*
X0066557Y0051494D01*
X0066557Y0051495D02*
X0068683Y0051495D01*
X0068683Y0051496D02*
X0066557Y0051496D01*
X0066557Y0051497D02*
X0068683Y0051497D01*
X0068683Y0051498D02*
X0066557Y0051498D01*
X0066557Y0051499D02*
X0068683Y0051499D01*
X0068683Y0051500D02*
X0066557Y0051500D01*
X0066557Y0051501D02*
X0068683Y0051501D01*
X0068683Y0051502D02*
X0066557Y0051502D01*
X0066557Y0051503D02*
X0068683Y0051503D01*
X0068683Y0051504D02*
X0066557Y0051504D01*
X0066557Y0051505D02*
X0068683Y0051505D01*
X0068683Y0051506D02*
X0066557Y0051506D01*
X0066557Y0051507D02*
X0068683Y0051507D01*
X0068683Y0051508D02*
X0066557Y0051508D01*
X0066557Y0051509D02*
X0068683Y0051509D01*
X0068683Y0051510D02*
X0066557Y0051510D01*
X0066557Y0051511D02*
X0068683Y0051511D01*
X0068683Y0051512D02*
X0066557Y0051512D01*
X0066557Y0051513D02*
X0068683Y0051513D01*
X0068683Y0051514D02*
X0066557Y0051514D01*
X0066557Y0051515D02*
X0068683Y0051515D01*
X0068683Y0051516D02*
X0066557Y0051516D01*
X0066557Y0051517D02*
X0068683Y0051517D01*
X0068683Y0051518D02*
X0066557Y0051518D01*
X0066557Y0051519D02*
X0068683Y0051519D01*
X0066557Y0051519D01*
X0066557Y0051520D02*
X0068683Y0051520D01*
X0068683Y0051521D02*
X0066557Y0051521D01*
X0066557Y0051522D02*
X0068683Y0051522D01*
X0068683Y0051523D02*
X0066557Y0051523D01*
X0066557Y0051524D02*
X0068683Y0051524D01*
X0068683Y0051525D02*
X0066557Y0051525D01*
X0066557Y0051526D02*
X0068683Y0051526D01*
X0068683Y0051527D02*
X0066557Y0051527D01*
X0066557Y0051528D02*
X0068683Y0051528D01*
X0068683Y0051529D02*
X0066557Y0051529D01*
X0066557Y0051530D02*
X0068683Y0051530D01*
X0068683Y0051531D02*
X0066557Y0051531D01*
X0066557Y0051532D02*
X0068683Y0051532D01*
X0068683Y0051533D02*
X0066557Y0051533D01*
X0066557Y0051534D02*
X0068683Y0051534D01*
X0068683Y0051535D02*
X0066557Y0051535D01*
X0066557Y0051536D02*
X0068683Y0051536D01*
X0068683Y0051537D02*
X0066557Y0051537D01*
X0066557Y0051538D02*
X0068683Y0051538D01*
X0068683Y0051539D02*
X0066557Y0051539D01*
X0066557Y0051540D02*
X0068683Y0051540D01*
X0068683Y0051541D02*
X0066557Y0051541D01*
X0066557Y0051542D02*
X0068683Y0051542D01*
X0068683Y0051543D02*
X0066557Y0051543D01*
X0066557Y0051544D02*
X0068683Y0051544D01*
X0068683Y0051545D02*
X0066557Y0051545D01*
X0066557Y0051546D02*
X0068683Y0051546D01*
X0068683Y0051547D02*
X0066557Y0051547D01*
X0066557Y0051548D02*
X0068683Y0051548D01*
X0068683Y0051549D02*
X0066557Y0051549D01*
X0066557Y0051550D02*
X0068683Y0051550D01*
X0068683Y0051551D02*
X0066557Y0051551D01*
X0066557Y0051552D02*
X0068683Y0051552D01*
X0068683Y0051553D02*
X0066557Y0051553D01*
X0066557Y0051554D02*
X0068683Y0051554D01*
X0068683Y0051555D02*
X0066557Y0051555D01*
X0066557Y0051556D02*
X0068683Y0051556D01*
X0068683Y0051557D02*
X0066557Y0051557D01*
X0066557Y0051558D02*
X0068683Y0051558D01*
X0068683Y0051559D02*
X0066557Y0051559D01*
X0066557Y0051560D02*
X0068683Y0051560D01*
X0068683Y0051561D02*
X0066557Y0051561D01*
X0066557Y0051562D02*
X0068683Y0051562D01*
X0068683Y0051563D02*
X0066557Y0051563D01*
X0066557Y0051564D02*
X0068683Y0051564D01*
X0068683Y0051565D02*
X0066557Y0051565D01*
X0066557Y0051566D02*
X0068683Y0051566D01*
X0068683Y0051567D02*
X0066557Y0051567D01*
X0066557Y0051568D02*
X0068683Y0051568D01*
X0068683Y0051569D02*
X0066557Y0051569D01*
X0066557Y0051570D02*
X0068683Y0051570D01*
X0068683Y0051571D02*
X0066557Y0051571D01*
X0066557Y0051572D02*
X0068683Y0051572D01*
X0068683Y0051573D02*
X0066557Y0051573D01*
X0066557Y0051574D02*
X0068683Y0051574D01*
X0068683Y0051575D02*
X0066557Y0051575D01*
X0066557Y0051576D02*
X0068683Y0051576D01*
X0068683Y0051577D02*
X0066557Y0051577D01*
X0066557Y0051578D02*
X0068683Y0051578D01*
X0068683Y0051579D02*
X0066557Y0051579D01*
X0066557Y0051580D02*
X0068683Y0051580D01*
X0068683Y0051581D02*
X0066557Y0051581D01*
X0068683Y0051581D01*
X0068683Y0051582D02*
X0066557Y0051582D01*
X0066557Y0051583D02*
X0068683Y0051583D01*
X0068683Y0051584D02*
X0066557Y0051584D01*
X0066557Y0051585D02*
X0068683Y0051585D01*
X0068683Y0051586D02*
X0066557Y0051586D01*
X0066557Y0051587D02*
X0068683Y0051587D01*
X0068683Y0051588D02*
X0066557Y0051588D01*
X0066557Y0051589D02*
X0068683Y0051589D01*
X0068683Y0051590D02*
X0066557Y0051590D01*
X0066557Y0051591D02*
X0068683Y0051591D01*
X0068683Y0051592D02*
X0066557Y0051592D01*
X0066557Y0051593D02*
X0068683Y0051593D01*
X0068683Y0051594D02*
X0066557Y0051594D01*
X0066557Y0051595D02*
X0068683Y0051595D01*
X0068683Y0051596D02*
X0066557Y0051596D01*
X0066557Y0051597D02*
X0068683Y0051597D01*
X0068683Y0051598D02*
X0066557Y0051598D01*
X0066557Y0051599D02*
X0068683Y0051599D01*
X0068683Y0051600D02*
X0066557Y0051600D01*
X0066557Y0051601D02*
X0068683Y0051601D01*
X0068683Y0051602D02*
X0066557Y0051602D01*
X0066557Y0051603D02*
X0068683Y0051603D01*
X0068683Y0051604D02*
X0066557Y0051604D01*
X0066557Y0051605D02*
X0068683Y0051605D01*
X0068683Y0051606D02*
X0066557Y0051606D01*
X0066557Y0051607D02*
X0068683Y0051607D01*
X0068683Y0051608D02*
X0066557Y0051608D01*
X0066557Y0051609D02*
X0068683Y0051609D01*
X0068683Y0051610D02*
X0066557Y0051610D01*
X0066557Y0051611D02*
X0068683Y0051611D01*
X0068683Y0051612D02*
X0066557Y0051612D01*
X0066557Y0051613D02*
X0068683Y0051613D01*
X0068683Y0051614D02*
X0066557Y0051614D01*
X0066557Y0051615D02*
X0068683Y0051615D01*
X0068683Y0051616D02*
X0066557Y0051616D01*
X0066557Y0051617D02*
X0068683Y0051617D01*
X0068683Y0051618D02*
X0066557Y0051618D01*
X0066557Y0051619D02*
X0068683Y0051619D01*
X0068683Y0051620D02*
X0066557Y0051620D01*
X0066557Y0051621D02*
X0068683Y0051621D01*
X0068683Y0051622D02*
X0066557Y0051622D01*
X0066557Y0051623D02*
X0068683Y0051623D01*
X0068683Y0051624D02*
X0066557Y0051624D01*
X0066557Y0051625D02*
X0068683Y0051625D01*
X0068683Y0051626D02*
X0066557Y0051626D01*
X0066557Y0051627D02*
X0068683Y0051627D01*
X0068683Y0051628D02*
X0066557Y0051628D01*
X0066557Y0051629D02*
X0068683Y0051629D01*
X0068683Y0051630D02*
X0066557Y0051630D01*
X0066557Y0051631D02*
X0068683Y0051631D01*
X0068683Y0051632D02*
X0066557Y0051632D01*
X0066557Y0051633D02*
X0068683Y0051633D01*
X0068683Y0051634D02*
X0066557Y0051634D01*
X0066557Y0051635D02*
X0068683Y0051635D01*
X0068683Y0051636D02*
X0066557Y0051636D01*
X0066557Y0051637D02*
X0068683Y0051637D01*
X0068683Y0051638D02*
X0066557Y0051638D01*
X0066557Y0051639D02*
X0068683Y0051639D01*
X0068683Y0051640D02*
X0066557Y0051640D01*
X0066557Y0051641D02*
X0068683Y0051641D01*
X0068683Y0051642D02*
X0066557Y0051642D01*
X0066557Y0051643D02*
X0068683Y0051643D01*
X0068683Y0051644D02*
X0066557Y0051644D01*
X0068683Y0051644D01*
X0068683Y0051645D02*
X0066557Y0051645D01*
X0066557Y0051646D02*
X0068683Y0051646D01*
X0068683Y0051647D02*
X0066557Y0051647D01*
X0066557Y0051648D02*
X0068683Y0051648D01*
X0068683Y0051649D02*
X0066557Y0051649D01*
X0066557Y0051650D02*
X0068683Y0051650D01*
X0068683Y0051651D02*
X0066557Y0051651D01*
X0066557Y0051652D02*
X0068683Y0051652D01*
X0068683Y0051653D02*
X0066557Y0051653D01*
X0066557Y0051654D02*
X0068683Y0051654D01*
X0068683Y0051655D02*
X0066557Y0051655D01*
X0066557Y0051656D02*
X0068683Y0051656D01*
X0068683Y0051657D02*
X0066557Y0051657D01*
X0066557Y0051658D02*
X0068683Y0051658D01*
X0068683Y0051659D02*
X0066557Y0051659D01*
X0066557Y0051660D02*
X0068683Y0051660D01*
X0068683Y0051661D02*
X0066557Y0051661D01*
X0066557Y0051662D02*
X0068683Y0051662D01*
X0068683Y0051663D02*
X0066557Y0051663D01*
X0066557Y0051664D02*
X0068683Y0051664D01*
X0068683Y0051665D02*
X0066557Y0051665D01*
X0066557Y0051666D02*
X0068683Y0051666D01*
X0068683Y0051667D02*
X0066557Y0051667D01*
X0066557Y0051668D02*
X0068683Y0051668D01*
X0068683Y0051669D02*
X0066557Y0051669D01*
X0066557Y0051670D02*
X0068683Y0051670D01*
X0068683Y0051671D02*
X0066557Y0051671D01*
X0066557Y0051672D02*
X0068683Y0051672D01*
X0068683Y0051673D02*
X0066557Y0051673D01*
X0066557Y0051674D02*
X0068683Y0051674D01*
X0068683Y0051675D02*
X0066557Y0051675D01*
X0066557Y0051676D02*
X0068683Y0051676D01*
X0068683Y0051677D02*
X0066557Y0051677D01*
X0066557Y0051678D02*
X0068683Y0051678D01*
X0068683Y0051679D02*
X0066557Y0051679D01*
X0066557Y0051680D02*
X0068683Y0051680D01*
X0068683Y0051681D02*
X0066557Y0051681D01*
X0066557Y0051682D02*
X0068683Y0051682D01*
X0068683Y0051683D02*
X0066557Y0051683D01*
X0066557Y0051684D02*
X0068683Y0051684D01*
X0068683Y0051685D02*
X0066557Y0051685D01*
X0066557Y0051686D02*
X0068683Y0051686D01*
X0068683Y0051687D02*
X0066557Y0051687D01*
X0066557Y0051688D02*
X0068683Y0051688D01*
X0068683Y0051689D02*
X0066557Y0051689D01*
X0066557Y0051690D02*
X0068683Y0051690D01*
X0068683Y0051691D02*
X0066557Y0051691D01*
X0066557Y0051692D02*
X0068683Y0051692D01*
X0068683Y0051693D02*
X0066557Y0051693D01*
X0066557Y0051694D02*
X0068683Y0051694D01*
X0068683Y0051695D02*
X0066557Y0051695D01*
X0066557Y0051696D02*
X0068683Y0051696D01*
X0068683Y0051697D02*
X0066557Y0051697D01*
X0066557Y0051698D02*
X0068683Y0051698D01*
X0068683Y0051699D02*
X0066557Y0051699D01*
X0066557Y0051700D02*
X0068683Y0051700D01*
X0068683Y0051701D02*
X0066557Y0051701D01*
X0066557Y0051702D02*
X0068683Y0051702D01*
X0068683Y0051703D02*
X0066557Y0051703D01*
X0066557Y0051704D02*
X0068683Y0051704D01*
X0068683Y0051705D02*
X0066557Y0051705D01*
X0066557Y0051706D02*
X0068683Y0051706D01*
X0066557Y0051706D01*
X0066557Y0051707D02*
X0068683Y0051707D01*
X0068683Y0051708D02*
X0066557Y0051708D01*
X0066557Y0051709D02*
X0068683Y0051709D01*
X0068683Y0051710D02*
X0066557Y0051710D01*
X0066557Y0051711D02*
X0068683Y0051711D01*
X0068683Y0051712D02*
X0066557Y0051712D01*
X0066557Y0051713D02*
X0068683Y0051713D01*
X0068683Y0051714D02*
X0066557Y0051714D01*
X0066557Y0051715D02*
X0068683Y0051715D01*
X0068683Y0051716D02*
X0066557Y0051716D01*
X0066557Y0051717D02*
X0068683Y0051717D01*
X0068683Y0051718D02*
X0066557Y0051718D01*
X0066557Y0051719D02*
X0068683Y0051719D01*
X0068683Y0051720D02*
X0066557Y0051720D01*
X0066557Y0051721D02*
X0068683Y0051721D01*
X0068683Y0051722D02*
X0066557Y0051722D01*
X0066557Y0051723D02*
X0068683Y0051723D01*
X0068683Y0051724D02*
X0066557Y0051724D01*
X0066557Y0051725D02*
X0068683Y0051725D01*
X0068683Y0051726D02*
X0066557Y0051726D01*
X0066557Y0051727D02*
X0068683Y0051727D01*
X0068683Y0051728D02*
X0066557Y0051728D01*
X0066557Y0051729D02*
X0068683Y0051729D01*
X0068683Y0051730D02*
X0066557Y0051730D01*
X0066557Y0051731D02*
X0068683Y0051731D01*
X0068683Y0051732D02*
X0066557Y0051732D01*
X0066557Y0051733D02*
X0068683Y0051733D01*
X0068683Y0051734D02*
X0066557Y0051734D01*
X0066557Y0051735D02*
X0068683Y0051735D01*
X0068683Y0051736D02*
X0066557Y0051736D01*
X0066557Y0051737D02*
X0068683Y0051737D01*
X0068683Y0051738D02*
X0066557Y0051738D01*
X0066557Y0051739D02*
X0068683Y0051739D01*
X0068683Y0051740D02*
X0066557Y0051740D01*
X0066557Y0051741D02*
X0068683Y0051741D01*
X0068683Y0051742D02*
X0066557Y0051742D01*
X0066557Y0051743D02*
X0068683Y0051743D01*
X0068683Y0051744D02*
X0066557Y0051744D01*
X0066557Y0051745D02*
X0068683Y0051745D01*
X0068683Y0051746D02*
X0066557Y0051746D01*
X0066557Y0051747D02*
X0068683Y0051747D01*
X0068683Y0051748D02*
X0066557Y0051748D01*
X0066557Y0051749D02*
X0068683Y0051749D01*
X0068683Y0051750D02*
X0066557Y0051750D01*
X0066557Y0051751D02*
X0068683Y0051751D01*
X0068683Y0051752D02*
X0066557Y0051752D01*
X0066557Y0051753D02*
X0068683Y0051753D01*
X0068683Y0051754D02*
X0066557Y0051754D01*
X0066557Y0051755D02*
X0068683Y0051755D01*
X0068683Y0051756D02*
X0066557Y0051756D01*
X0066557Y0051757D02*
X0068683Y0051757D01*
X0068683Y0051758D02*
X0066557Y0051758D01*
X0066557Y0051759D02*
X0068683Y0051759D01*
X0068683Y0051760D02*
X0066557Y0051760D01*
X0066557Y0051761D02*
X0068683Y0051761D01*
X0068683Y0051762D02*
X0066557Y0051762D01*
X0066557Y0051763D02*
X0068683Y0051763D01*
X0068683Y0051764D02*
X0066557Y0051764D01*
X0066557Y0051765D02*
X0068683Y0051765D01*
X0068683Y0051766D02*
X0066557Y0051766D01*
X0066557Y0051767D02*
X0068683Y0051767D01*
X0068683Y0051768D02*
X0066557Y0051768D01*
X0066557Y0051769D02*
X0068683Y0051769D01*
X0066557Y0051769D01*
X0066557Y0051770D02*
X0068683Y0051770D01*
X0068683Y0051771D02*
X0066557Y0051771D01*
X0066557Y0051772D02*
X0068683Y0051772D01*
X0068683Y0051773D02*
X0066557Y0051773D01*
X0066557Y0051774D02*
X0068683Y0051774D01*
X0068683Y0051775D02*
X0066557Y0051775D01*
X0066557Y0051776D02*
X0068683Y0051776D01*
X0068683Y0051777D02*
X0066557Y0051777D01*
X0066557Y0051778D02*
X0068683Y0051778D01*
X0068683Y0051779D02*
X0066557Y0051779D01*
X0066557Y0051780D02*
X0068683Y0051780D01*
X0068683Y0051781D02*
X0066557Y0051781D01*
X0066557Y0051782D02*
X0068683Y0051782D01*
X0068683Y0051783D02*
X0066557Y0051783D01*
X0066557Y0051784D02*
X0068683Y0051784D01*
X0068683Y0051785D02*
X0066557Y0051785D01*
X0066557Y0051786D02*
X0068683Y0051786D01*
X0068683Y0051787D02*
X0066557Y0051787D01*
X0066557Y0051788D02*
X0068683Y0051788D01*
X0068683Y0051789D02*
X0066557Y0051789D01*
X0066557Y0051790D02*
X0068683Y0051790D01*
X0068683Y0051791D02*
X0066557Y0051791D01*
X0066557Y0051792D02*
X0068683Y0051792D01*
X0068683Y0051793D02*
X0066557Y0051793D01*
X0066557Y0051794D02*
X0068683Y0051794D01*
X0068683Y0051795D02*
X0066557Y0051795D01*
X0066557Y0051796D02*
X0068683Y0051796D01*
X0068683Y0051797D02*
X0066557Y0051797D01*
X0066557Y0051798D02*
X0068683Y0051798D01*
X0068683Y0051799D02*
X0066557Y0051799D01*
X0066557Y0051116D02*
X0068683Y0051116D01*
X0068683Y0051115D02*
X0066557Y0051115D01*
X0066557Y0051114D02*
X0068683Y0051114D01*
X0068683Y0051113D02*
X0066557Y0051113D01*
X0066557Y0051112D02*
X0068683Y0051112D01*
X0068683Y0051111D02*
X0066557Y0051111D01*
X0066557Y0051110D02*
X0068683Y0051110D01*
X0068683Y0051109D02*
X0066557Y0051109D01*
X0066557Y0051108D02*
X0068683Y0051108D01*
X0068683Y0051107D02*
X0066557Y0051107D01*
X0066557Y0051106D02*
X0068683Y0051106D01*
X0068683Y0051105D02*
X0066557Y0051105D01*
X0066557Y0051104D02*
X0068683Y0051104D01*
X0068683Y0051103D02*
X0066557Y0051103D01*
X0066557Y0051102D02*
X0068683Y0051102D01*
X0068683Y0051101D02*
X0066557Y0051101D01*
X0066557Y0051100D02*
X0068683Y0051100D01*
X0068683Y0051099D02*
X0066557Y0051099D01*
X0066557Y0051098D02*
X0068683Y0051098D01*
X0068683Y0051097D02*
X0066557Y0051097D01*
X0066557Y0051096D02*
X0068683Y0051096D01*
X0068683Y0051095D02*
X0066557Y0051095D01*
X0066557Y0051094D02*
X0068683Y0051094D01*
X0068683Y0051093D02*
X0066557Y0051093D01*
X0066557Y0051092D02*
X0068683Y0051092D01*
X0068683Y0051091D02*
X0066557Y0051091D01*
X0066557Y0051090D02*
X0068683Y0051090D01*
X0068683Y0051089D02*
X0066557Y0051089D01*
X0066557Y0051088D02*
X0068683Y0051088D01*
X0068683Y0051087D02*
X0066557Y0051087D01*
X0066557Y0051086D02*
X0068683Y0051086D01*
X0068683Y0051085D02*
X0066557Y0051085D01*
X0066557Y0051084D02*
X0068683Y0051084D01*
X0068683Y0051083D02*
X0066557Y0051083D01*
X0066557Y0051082D02*
X0068683Y0051082D01*
X0068683Y0051081D02*
X0066557Y0051081D01*
X0068683Y0051081D01*
X0068683Y0051080D02*
X0066557Y0051080D01*
X0066557Y0051079D02*
X0068683Y0051079D01*
X0068683Y0051078D02*
X0066557Y0051078D01*
X0066557Y0051077D02*
X0068683Y0051077D01*
X0068683Y0051076D02*
X0066557Y0051076D01*
X0066557Y0051075D02*
X0068683Y0051075D01*
X0068683Y0051074D02*
X0066557Y0051074D01*
X0066557Y0051073D02*
X0068683Y0051073D01*
X0068683Y0051072D02*
X0066557Y0051072D01*
X0066557Y0051071D02*
X0068683Y0051071D01*
X0068683Y0051070D02*
X0066557Y0051070D01*
X0066557Y0051069D02*
X0068683Y0051069D01*
X0068683Y0051068D02*
X0066557Y0051068D01*
X0066557Y0051067D02*
X0068683Y0051067D01*
X0068683Y0051066D02*
X0066557Y0051066D01*
X0066557Y0051065D02*
X0068683Y0051065D01*
X0068683Y0051064D02*
X0066557Y0051064D01*
X0066557Y0051063D02*
X0068683Y0051063D01*
X0068683Y0051062D02*
X0066557Y0051062D01*
X0066557Y0051061D02*
X0068683Y0051061D01*
X0068683Y0051060D02*
X0066557Y0051060D01*
X0066557Y0051059D02*
X0068683Y0051059D01*
X0068683Y0051058D02*
X0066557Y0051058D01*
X0066557Y0051057D02*
X0068683Y0051057D01*
X0068683Y0051056D02*
X0066557Y0051056D01*
X0066557Y0051055D02*
X0068683Y0051055D01*
X0068683Y0051054D02*
X0066557Y0051054D01*
X0066557Y0051053D02*
X0068683Y0051053D01*
X0068683Y0051052D02*
X0066557Y0051052D01*
X0066557Y0051051D02*
X0068683Y0051051D01*
X0068683Y0051050D02*
X0066557Y0051050D01*
X0066557Y0051049D02*
X0068683Y0051049D01*
X0068683Y0051048D02*
X0066557Y0051048D01*
X0066557Y0051047D02*
X0068683Y0051047D01*
X0068683Y0051046D02*
X0066557Y0051046D01*
X0066557Y0051045D02*
X0068683Y0051045D01*
X0068683Y0051044D02*
X0066557Y0051044D01*
X0066557Y0051043D02*
X0068683Y0051043D01*
X0068683Y0051042D02*
X0066557Y0051042D01*
X0066557Y0051041D02*
X0068683Y0051041D01*
X0068683Y0051040D02*
X0066557Y0051040D01*
X0066557Y0051039D02*
X0068683Y0051039D01*
X0068683Y0051038D02*
X0066557Y0051038D01*
X0066557Y0051037D02*
X0068683Y0051037D01*
X0068683Y0051036D02*
X0066557Y0051036D01*
X0066557Y0051035D02*
X0068683Y0051035D01*
X0068683Y0051034D02*
X0066557Y0051034D01*
X0066557Y0051033D02*
X0068683Y0051033D01*
X0068683Y0051032D02*
X0066557Y0051032D01*
X0066557Y0051031D02*
X0068683Y0051031D01*
X0068683Y0051030D02*
X0066557Y0051030D01*
X0066557Y0051029D02*
X0068683Y0051029D01*
X0068683Y0051028D02*
X0066557Y0051028D01*
X0066557Y0051027D02*
X0068683Y0051027D01*
X0068683Y0051026D02*
X0066557Y0051026D01*
X0066557Y0051025D02*
X0068683Y0051025D01*
X0068683Y0051024D02*
X0066557Y0051024D01*
X0066557Y0051023D02*
X0068683Y0051023D01*
X0068683Y0051022D02*
X0066557Y0051022D01*
X0066557Y0051021D02*
X0068683Y0051021D01*
X0068683Y0051020D02*
X0066557Y0051020D01*
X0066557Y0051019D02*
X0068683Y0051019D01*
X0066557Y0051019D01*
X0066557Y0051018D02*
X0068683Y0051018D01*
X0068683Y0051017D02*
X0066557Y0051017D01*
X0066557Y0051016D02*
X0068683Y0051016D01*
X0068683Y0051015D02*
X0066557Y0051015D01*
X0066557Y0051014D02*
X0068683Y0051014D01*
X0068683Y0051013D02*
X0066557Y0051013D01*
X0066557Y0051012D02*
X0068683Y0051012D01*
X0068683Y0051011D02*
X0066557Y0051011D01*
X0066557Y0051010D02*
X0068683Y0051010D01*
X0068683Y0051009D02*
X0066557Y0051009D01*
X0066557Y0051008D02*
X0068683Y0051008D01*
X0068683Y0051007D02*
X0066557Y0051007D01*
X0066557Y0051006D02*
X0068683Y0051006D01*
X0068683Y0051005D02*
X0066557Y0051005D01*
X0066557Y0051004D02*
X0068683Y0051004D01*
X0068683Y0051003D02*
X0066557Y0051003D01*
X0066557Y0051002D02*
X0068683Y0051002D01*
X0068683Y0051001D02*
X0066557Y0051001D01*
X0066557Y0051000D02*
X0068683Y0051000D01*
X0068683Y0050999D02*
X0066557Y0050999D01*
X0066557Y0050998D02*
X0068683Y0050998D01*
X0068683Y0050997D02*
X0066557Y0050997D01*
X0066557Y0050996D02*
X0068683Y0050996D01*
X0068683Y0050995D02*
X0066557Y0050995D01*
X0066557Y0050994D02*
X0068683Y0050994D01*
X0068683Y0050993D02*
X0066557Y0050993D01*
X0066557Y0050992D02*
X0068683Y0050992D01*
X0068683Y0050991D02*
X0066557Y0050991D01*
X0066557Y0050990D02*
X0068683Y0050990D01*
X0068683Y0050989D02*
X0066557Y0050989D01*
X0066557Y0050988D02*
X0068683Y0050988D01*
X0068683Y0050987D02*
X0066557Y0050987D01*
X0066557Y0050986D02*
X0068683Y0050986D01*
X0068683Y0050985D02*
X0066557Y0050985D01*
X0066557Y0050984D02*
X0068683Y0050984D01*
X0068683Y0050983D02*
X0066557Y0050983D01*
X0066557Y0050982D02*
X0068683Y0050982D01*
X0068683Y0050981D02*
X0066557Y0050981D01*
X0066557Y0050980D02*
X0068683Y0050980D01*
X0068683Y0050979D02*
X0066557Y0050979D01*
X0066557Y0050978D02*
X0068683Y0050978D01*
X0068683Y0050977D02*
X0066557Y0050977D01*
X0066557Y0050976D02*
X0068683Y0050976D01*
X0068683Y0050975D02*
X0066557Y0050975D01*
X0066557Y0050974D02*
X0068683Y0050974D01*
X0068683Y0050973D02*
X0066557Y0050973D01*
X0066557Y0050972D02*
X0068683Y0050972D01*
X0068683Y0050971D02*
X0066557Y0050971D01*
X0066557Y0050970D02*
X0068683Y0050970D01*
X0068683Y0050969D02*
X0066557Y0050969D01*
X0066557Y0050968D02*
X0068683Y0050968D01*
X0068683Y0050967D02*
X0066557Y0050967D01*
X0066557Y0050966D02*
X0068683Y0050966D01*
X0068683Y0050965D02*
X0066557Y0050965D01*
X0066557Y0050964D02*
X0068683Y0050964D01*
X0068683Y0050963D02*
X0066557Y0050963D01*
X0066557Y0050962D02*
X0068683Y0050962D01*
X0068683Y0050961D02*
X0066557Y0050961D01*
X0066557Y0050960D02*
X0068683Y0050960D01*
X0068683Y0050959D02*
X0066557Y0050959D01*
X0066557Y0050958D02*
X0068683Y0050958D01*
X0068683Y0050957D02*
X0066557Y0050957D01*
X0066557Y0050956D02*
X0068683Y0050956D01*
X0066557Y0050956D01*
X0066557Y0050955D02*
X0068683Y0050955D01*
X0068683Y0050954D02*
X0066557Y0050954D01*
X0066557Y0050953D02*
X0068683Y0050953D01*
X0068683Y0050952D02*
X0066557Y0050952D01*
X0066557Y0050951D02*
X0068683Y0050951D01*
X0068683Y0050950D02*
X0066557Y0050950D01*
X0066557Y0050949D02*
X0068683Y0050949D01*
X0068683Y0050948D02*
X0066557Y0050948D01*
X0066557Y0050947D02*
X0068683Y0050947D01*
X0068683Y0050946D02*
X0066557Y0050946D01*
X0066557Y0050945D02*
X0068683Y0050945D01*
X0068683Y0050944D02*
X0066557Y0050944D01*
X0066557Y0050943D02*
X0068683Y0050943D01*
X0068683Y0050942D02*
X0066557Y0050942D01*
X0066557Y0050941D02*
X0068683Y0050941D01*
X0068683Y0050940D02*
X0066557Y0050940D01*
X0066557Y0050939D02*
X0068683Y0050939D01*
X0068683Y0050938D02*
X0066557Y0050938D01*
X0066557Y0050937D02*
X0068683Y0050937D01*
X0068683Y0050936D02*
X0066557Y0050936D01*
X0066557Y0050935D02*
X0068683Y0050935D01*
X0068683Y0050934D02*
X0066557Y0050934D01*
X0066557Y0050933D02*
X0068683Y0050933D01*
X0068683Y0050932D02*
X0066557Y0050932D01*
X0066557Y0050931D02*
X0068683Y0050931D01*
X0068683Y0050930D02*
X0066557Y0050930D01*
X0066557Y0050929D02*
X0068683Y0050929D01*
X0068683Y0050928D02*
X0066557Y0050928D01*
X0066557Y0050927D02*
X0068683Y0050927D01*
X0068683Y0050926D02*
X0066557Y0050926D01*
X0066557Y0050925D02*
X0068683Y0050925D01*
X0068683Y0050924D02*
X0066557Y0050924D01*
X0066557Y0050923D02*
X0068683Y0050923D01*
X0068683Y0050922D02*
X0066557Y0050922D01*
X0066557Y0050921D02*
X0068683Y0050921D01*
X0068683Y0050920D02*
X0066557Y0050920D01*
X0066557Y0050919D02*
X0068683Y0050919D01*
X0068683Y0050918D02*
X0066557Y0050918D01*
X0066557Y0050917D02*
X0068683Y0050917D01*
X0068683Y0050916D02*
X0066557Y0050916D01*
X0066557Y0050915D02*
X0068683Y0050915D01*
X0068683Y0050914D02*
X0066557Y0050914D01*
X0066557Y0050913D02*
X0068683Y0050913D01*
X0068683Y0050912D02*
X0066557Y0050912D01*
X0066557Y0050911D02*
X0068683Y0050911D01*
X0068683Y0050910D02*
X0066557Y0050910D01*
X0066557Y0050909D02*
X0068683Y0050909D01*
X0068683Y0050908D02*
X0066557Y0050908D01*
X0066557Y0050907D02*
X0068683Y0050907D01*
X0068683Y0050906D02*
X0066557Y0050906D01*
X0066557Y0050905D02*
X0068683Y0050905D01*
X0068683Y0050904D02*
X0066557Y0050904D01*
X0066557Y0050903D02*
X0068683Y0050903D01*
X0068683Y0050902D02*
X0066557Y0050902D01*
X0066557Y0050901D02*
X0068683Y0050901D01*
X0068683Y0050900D02*
X0066557Y0050900D01*
X0066557Y0050899D02*
X0068683Y0050899D01*
X0068683Y0050898D02*
X0066557Y0050898D01*
X0066557Y0050897D02*
X0068683Y0050897D01*
X0068683Y0050896D02*
X0066557Y0050896D01*
X0066557Y0050895D02*
X0068683Y0050895D01*
X0068683Y0050894D02*
X0066557Y0050894D01*
X0068683Y0050894D01*
X0068683Y0050893D02*
X0066557Y0050893D01*
X0066557Y0050892D02*
X0068683Y0050892D01*
X0068683Y0050891D02*
X0066557Y0050891D01*
X0066557Y0050890D02*
X0068683Y0050890D01*
X0068683Y0050889D02*
X0066557Y0050889D01*
X0066557Y0050888D02*
X0068683Y0050888D01*
X0068683Y0050887D02*
X0066557Y0050887D01*
X0066557Y0050886D02*
X0068683Y0050886D01*
X0068683Y0050885D02*
X0066557Y0050885D01*
X0066557Y0050884D02*
X0068683Y0050884D01*
X0068683Y0050883D02*
X0066557Y0050883D01*
X0066557Y0050882D02*
X0068683Y0050882D01*
X0068683Y0050881D02*
X0066557Y0050881D01*
X0066557Y0050880D02*
X0068683Y0050880D01*
X0068683Y0050879D02*
X0066557Y0050879D01*
X0066557Y0050878D02*
X0068683Y0050878D01*
X0068683Y0050877D02*
X0066557Y0050877D01*
X0066557Y0050876D02*
X0068683Y0050876D01*
X0068683Y0050875D02*
X0066557Y0050875D01*
X0066557Y0050874D02*
X0068683Y0050874D01*
X0068683Y0050873D02*
X0066557Y0050873D01*
X0066557Y0050872D02*
X0068683Y0050872D01*
X0068683Y0050871D02*
X0066557Y0050871D01*
X0066557Y0050870D02*
X0068683Y0050870D01*
X0068683Y0050869D02*
X0066557Y0050869D01*
X0066557Y0050868D02*
X0068683Y0050868D01*
X0068683Y0050867D02*
X0066557Y0050867D01*
X0066557Y0050866D02*
X0068683Y0050866D01*
X0068683Y0050865D02*
X0066557Y0050865D01*
X0066557Y0050864D02*
X0068683Y0050864D01*
X0068683Y0050863D02*
X0066557Y0050863D01*
X0066557Y0050862D02*
X0068683Y0050862D01*
X0068683Y0050861D02*
X0066557Y0050861D01*
X0066557Y0050860D02*
X0068683Y0050860D01*
X0068683Y0050859D02*
X0066557Y0050859D01*
X0066557Y0050858D02*
X0068683Y0050858D01*
X0068683Y0050857D02*
X0066557Y0050857D01*
X0066557Y0050856D02*
X0068683Y0050856D01*
X0068683Y0050855D02*
X0066557Y0050855D01*
X0066557Y0050854D02*
X0068683Y0050854D01*
X0068683Y0050853D02*
X0066557Y0050853D01*
X0066557Y0050852D02*
X0068683Y0050852D01*
X0068683Y0050851D02*
X0066557Y0050851D01*
X0066557Y0050850D02*
X0068683Y0050850D01*
X0068683Y0050849D02*
X0066557Y0050849D01*
X0066557Y0050848D02*
X0068683Y0050848D01*
X0068683Y0050847D02*
X0066557Y0050847D01*
X0066557Y0050846D02*
X0068683Y0050846D01*
X0068683Y0050845D02*
X0066557Y0050845D01*
X0066557Y0050844D02*
X0068683Y0050844D01*
X0068683Y0050843D02*
X0066557Y0050843D01*
X0066557Y0050842D02*
X0068683Y0050842D01*
X0068683Y0050841D02*
X0066557Y0050841D01*
X0066557Y0050840D02*
X0068683Y0050840D01*
X0068683Y0050839D02*
X0066557Y0050839D01*
X0066557Y0050838D02*
X0068683Y0050838D01*
X0068683Y0050837D02*
X0066557Y0050837D01*
X0066557Y0050836D02*
X0068683Y0050836D01*
X0068683Y0050835D02*
X0066557Y0050835D01*
X0066557Y0050834D02*
X0068683Y0050834D01*
X0068683Y0050833D02*
X0066557Y0050833D01*
X0066557Y0050832D02*
X0068683Y0050832D01*
X0068683Y0050831D02*
X0066557Y0050831D01*
X0068683Y0050831D01*
X0068683Y0050830D02*
X0066557Y0050830D01*
X0066557Y0050829D02*
X0068683Y0050829D01*
X0068683Y0050828D02*
X0066557Y0050828D01*
X0066557Y0050827D02*
X0068683Y0050827D01*
X0068683Y0050826D02*
X0066557Y0050826D01*
X0066557Y0050825D02*
X0068683Y0050825D01*
X0068683Y0050824D02*
X0066557Y0050824D01*
X0066557Y0050823D02*
X0068683Y0050823D01*
X0068683Y0050822D02*
X0066557Y0050822D01*
X0066557Y0050821D02*
X0068683Y0050821D01*
X0068683Y0050820D02*
X0066557Y0050820D01*
X0066557Y0050819D02*
X0068683Y0050819D01*
X0068683Y0050818D02*
X0066557Y0050818D01*
X0066557Y0050817D02*
X0068683Y0050817D01*
X0068683Y0050816D02*
X0066557Y0050816D01*
X0066557Y0050815D02*
X0068683Y0050815D01*
X0068683Y0050814D02*
X0066557Y0050814D01*
X0066557Y0050813D02*
X0068683Y0050813D01*
X0068683Y0050812D02*
X0066557Y0050812D01*
X0066557Y0050811D02*
X0068683Y0050811D01*
X0068683Y0050810D02*
X0066557Y0050810D01*
X0066557Y0050809D02*
X0068683Y0050809D01*
X0068683Y0050808D02*
X0066557Y0050808D01*
X0066557Y0050807D02*
X0068683Y0050807D01*
X0068683Y0050806D02*
X0066557Y0050806D01*
X0066557Y0050805D02*
X0068683Y0050805D01*
X0068683Y0050804D02*
X0066557Y0050804D01*
X0066557Y0050803D02*
X0068683Y0050803D01*
X0068683Y0050802D02*
X0066557Y0050802D01*
X0066557Y0050801D02*
X0068683Y0050801D01*
X0068683Y0050800D02*
X0066557Y0050800D01*
X0066557Y0050799D02*
X0068683Y0050799D01*
X0068683Y0050798D02*
X0066557Y0050798D01*
X0066557Y0050797D02*
X0068683Y0050797D01*
X0068683Y0050796D02*
X0066557Y0050796D01*
X0066557Y0050795D02*
X0068683Y0050795D01*
X0068683Y0050794D02*
X0066557Y0050794D01*
X0066557Y0050793D02*
X0068683Y0050793D01*
X0068683Y0050792D02*
X0066557Y0050792D01*
X0066557Y0050791D02*
X0068683Y0050791D01*
X0068683Y0050790D02*
X0066557Y0050790D01*
X0066557Y0050789D02*
X0068683Y0050789D01*
X0068683Y0050788D02*
X0066557Y0050788D01*
X0066557Y0050787D02*
X0068683Y0050787D01*
X0068683Y0050786D02*
X0066557Y0050786D01*
X0066557Y0050785D02*
X0068683Y0050785D01*
X0068683Y0050784D02*
X0066557Y0050784D01*
X0066557Y0050783D02*
X0068683Y0050783D01*
X0068683Y0050782D02*
X0066557Y0050782D01*
X0066557Y0050781D02*
X0068683Y0050781D01*
X0068683Y0050780D02*
X0066557Y0050780D01*
X0066557Y0050779D02*
X0068683Y0050779D01*
X0068683Y0050778D02*
X0066557Y0050778D01*
X0066557Y0050777D02*
X0068683Y0050777D01*
X0068683Y0050776D02*
X0066557Y0050776D01*
X0066557Y0050775D02*
X0068683Y0050775D01*
X0068683Y0050774D02*
X0066557Y0050774D01*
X0066557Y0050773D02*
X0068683Y0050773D01*
X0068683Y0050772D02*
X0066557Y0050772D01*
X0066557Y0050771D02*
X0068683Y0050771D01*
X0068683Y0050770D02*
X0066557Y0050770D01*
X0066557Y0050769D02*
X0068683Y0050769D01*
X0066557Y0050769D01*
X0066557Y0050768D02*
X0068683Y0050768D01*
X0068683Y0050767D02*
X0066557Y0050767D01*
X0066557Y0050766D02*
X0068683Y0050766D01*
X0068683Y0050765D02*
X0066557Y0050765D01*
X0066557Y0050764D02*
X0068683Y0050764D01*
X0068683Y0050763D02*
X0066557Y0050763D01*
X0066557Y0050762D02*
X0068683Y0050762D01*
X0068683Y0050761D02*
X0066557Y0050761D01*
X0066557Y0050760D02*
X0068683Y0050760D01*
X0068683Y0050759D02*
X0066557Y0050759D01*
X0066557Y0050758D02*
X0068683Y0050758D01*
X0068683Y0050757D02*
X0066557Y0050757D01*
X0066557Y0050756D02*
X0068683Y0050756D01*
X0068683Y0050755D02*
X0066557Y0050755D01*
X0066557Y0050754D02*
X0068683Y0050754D01*
X0068683Y0050753D02*
X0066557Y0050753D01*
X0066557Y0050752D02*
X0068683Y0050752D01*
X0068683Y0050751D02*
X0066557Y0050751D01*
X0066557Y0050750D02*
X0068683Y0050750D01*
X0068683Y0050749D02*
X0066557Y0050749D01*
X0066557Y0050748D02*
X0068683Y0050748D01*
X0068683Y0050747D02*
X0066557Y0050747D01*
X0066557Y0050746D02*
X0068683Y0050746D01*
X0068683Y0050745D02*
X0066557Y0050745D01*
X0066557Y0050744D02*
X0068683Y0050744D01*
X0068683Y0050743D02*
X0066557Y0050743D01*
X0066557Y0050742D02*
X0068683Y0050742D01*
X0068683Y0050741D02*
X0066557Y0050741D01*
X0066557Y0050740D02*
X0068683Y0050740D01*
X0068683Y0050739D02*
X0066557Y0050739D01*
X0066557Y0050738D02*
X0068683Y0050738D01*
X0068683Y0050737D02*
X0066557Y0050737D01*
X0066557Y0050736D02*
X0068683Y0050736D01*
X0068683Y0050735D02*
X0066557Y0050735D01*
X0066557Y0050734D02*
X0068683Y0050734D01*
X0068683Y0050733D02*
X0066557Y0050733D01*
X0066557Y0050732D02*
X0068683Y0050732D01*
X0068683Y0050731D02*
X0066557Y0050731D01*
X0066557Y0050730D02*
X0068683Y0050730D01*
X0068683Y0050729D02*
X0066557Y0050729D01*
X0066557Y0050728D02*
X0068683Y0050728D01*
X0068683Y0050727D02*
X0066557Y0050727D01*
X0066557Y0050726D02*
X0068683Y0050726D01*
X0068683Y0050725D02*
X0066557Y0050725D01*
X0066557Y0050724D02*
X0068683Y0050724D01*
X0068683Y0050723D02*
X0066557Y0050723D01*
X0066557Y0050722D02*
X0068683Y0050722D01*
X0068683Y0050721D02*
X0066557Y0050721D01*
X0066557Y0050720D02*
X0068683Y0050720D01*
X0068683Y0050719D02*
X0066557Y0050719D01*
X0066557Y0050718D02*
X0068683Y0050718D01*
X0068683Y0050717D02*
X0066557Y0050717D01*
X0066557Y0050716D02*
X0068683Y0050716D01*
X0068683Y0050715D02*
X0066557Y0050715D01*
X0066557Y0050714D02*
X0068683Y0050714D01*
X0068683Y0050713D02*
X0066557Y0050713D01*
X0066557Y0050712D02*
X0068683Y0050712D01*
X0068683Y0050711D02*
X0066557Y0050711D01*
X0066557Y0050710D02*
X0068683Y0050710D01*
X0068683Y0050709D02*
X0066557Y0050709D01*
X0066557Y0050708D02*
X0068683Y0050708D01*
X0068683Y0050707D02*
X0066557Y0050707D01*
X0066557Y0050706D02*
X0068683Y0050706D01*
X0066557Y0050706D01*
X0066557Y0050705D02*
X0068683Y0050705D01*
X0068683Y0050704D02*
X0066557Y0050704D01*
X0066557Y0050703D02*
X0068683Y0050703D01*
X0068683Y0050702D02*
X0066557Y0050702D01*
X0066557Y0050701D02*
X0068683Y0050701D01*
X0068683Y0050700D02*
X0066557Y0050700D01*
X0066557Y0050699D02*
X0068683Y0050699D01*
X0068683Y0050698D02*
X0066557Y0050698D01*
X0066557Y0050697D02*
X0068683Y0050697D01*
X0068683Y0050696D02*
X0066557Y0050696D01*
X0066557Y0050695D02*
X0068683Y0050695D01*
X0068683Y0050694D02*
X0066557Y0050694D01*
X0066557Y0050693D02*
X0068683Y0050693D01*
X0068683Y0050692D02*
X0066557Y0050692D01*
X0066557Y0050691D02*
X0068683Y0050691D01*
X0068683Y0050690D02*
X0066557Y0050690D01*
X0066557Y0050689D02*
X0068683Y0050689D01*
X0068683Y0050688D02*
X0066557Y0050688D01*
X0066557Y0050687D02*
X0068683Y0050687D01*
X0068683Y0050686D02*
X0066557Y0050686D01*
X0066557Y0050685D02*
X0068683Y0050685D01*
X0068683Y0050684D02*
X0066557Y0050684D01*
X0066557Y0050683D02*
X0068683Y0050683D01*
X0068683Y0050682D02*
X0066557Y0050682D01*
X0066557Y0050681D02*
X0068683Y0050681D01*
X0068683Y0050680D02*
X0066557Y0050680D01*
X0066557Y0050679D02*
X0068683Y0050679D01*
X0068683Y0050678D02*
X0066557Y0050678D01*
X0066557Y0050677D02*
X0068683Y0050677D01*
X0068683Y0050676D02*
X0066557Y0050676D01*
X0066557Y0050675D02*
X0068683Y0050675D01*
X0068683Y0050674D02*
X0066557Y0050674D01*
X0066557Y0050673D02*
X0068683Y0050673D01*
X0068683Y0050672D02*
X0066557Y0050672D01*
X0066557Y0050671D02*
X0068683Y0050671D01*
X0068683Y0050670D02*
X0066557Y0050670D01*
X0066557Y0050669D02*
X0068683Y0050669D01*
X0068683Y0050668D02*
X0066557Y0050668D01*
X0066557Y0050667D02*
X0068683Y0050667D01*
X0068683Y0050666D02*
X0066557Y0050666D01*
X0066557Y0050665D02*
X0068683Y0050665D01*
X0068683Y0050664D02*
X0066557Y0050664D01*
X0066557Y0050663D02*
X0068683Y0050663D01*
X0068683Y0050662D02*
X0066557Y0050662D01*
X0066557Y0050661D02*
X0068683Y0050661D01*
X0068683Y0050660D02*
X0066557Y0050660D01*
X0066557Y0050659D02*
X0068683Y0050659D01*
X0068683Y0050658D02*
X0066557Y0050658D01*
X0066557Y0050657D02*
X0068683Y0050657D01*
X0068683Y0050656D02*
X0066557Y0050656D01*
X0066557Y0050655D02*
X0068683Y0050655D01*
X0068683Y0050654D02*
X0066557Y0050654D01*
X0066557Y0050653D02*
X0068683Y0050653D01*
X0068683Y0050652D02*
X0066557Y0050652D01*
X0066557Y0050651D02*
X0068683Y0050651D01*
X0068683Y0050650D02*
X0066557Y0050650D01*
X0066557Y0050649D02*
X0068683Y0050649D01*
X0068683Y0050648D02*
X0066557Y0050648D01*
X0066557Y0050647D02*
X0068683Y0050647D01*
X0068683Y0050646D02*
X0066557Y0050646D01*
X0066557Y0050645D02*
X0068683Y0050645D01*
X0068683Y0050644D02*
X0066557Y0050644D01*
X0068683Y0050644D01*
X0068683Y0050643D02*
X0066557Y0050643D01*
X0066557Y0050642D02*
X0068683Y0050642D01*
X0068683Y0050641D02*
X0066557Y0050641D01*
X0066557Y0050640D02*
X0068683Y0050640D01*
X0068683Y0050639D02*
X0066557Y0050639D01*
X0066557Y0050638D02*
X0068683Y0050638D01*
X0068683Y0050637D02*
X0066557Y0050637D01*
X0066557Y0050636D02*
X0068683Y0050636D01*
X0068683Y0050635D02*
X0066557Y0050635D01*
X0066557Y0050634D02*
X0068683Y0050634D01*
X0068683Y0050633D02*
X0066557Y0050633D01*
X0066557Y0050632D02*
X0068683Y0050632D01*
X0068683Y0050631D02*
X0066557Y0050631D01*
X0066557Y0050630D02*
X0068683Y0050630D01*
X0068683Y0050629D02*
X0066557Y0050629D01*
X0066557Y0050628D02*
X0068683Y0050628D01*
X0068683Y0050627D02*
X0066557Y0050627D01*
X0066557Y0050626D02*
X0068683Y0050626D01*
X0068683Y0050625D02*
X0066557Y0050625D01*
X0066557Y0050624D02*
X0068683Y0050624D01*
X0068683Y0050623D02*
X0066557Y0050623D01*
X0066557Y0050622D02*
X0068683Y0050622D01*
X0068683Y0050621D02*
X0066557Y0050621D01*
X0066557Y0050620D02*
X0068683Y0050620D01*
X0068683Y0050619D02*
X0066557Y0050619D01*
X0066557Y0050618D02*
X0070022Y0050618D01*
X0070022Y0050617D02*
X0066557Y0050617D01*
X0066557Y0050616D02*
X0070022Y0050616D01*
X0070022Y0050615D02*
X0066557Y0050615D01*
X0066557Y0050614D02*
X0070022Y0050614D01*
X0070022Y0050613D02*
X0066557Y0050613D01*
X0066557Y0050612D02*
X0070022Y0050612D01*
X0070022Y0050611D02*
X0066557Y0050611D01*
X0066557Y0050610D02*
X0070022Y0050610D01*
X0070022Y0050609D02*
X0066557Y0050609D01*
X0066557Y0050608D02*
X0070022Y0050608D01*
X0070022Y0050607D02*
X0066557Y0050607D01*
X0066557Y0050606D02*
X0070022Y0050606D01*
X0070022Y0050605D02*
X0066557Y0050605D01*
X0066557Y0050604D02*
X0070022Y0050604D01*
X0070022Y0050603D02*
X0066557Y0050603D01*
X0066557Y0050602D02*
X0070022Y0050602D01*
X0070022Y0050601D02*
X0066557Y0050601D01*
X0066557Y0050600D02*
X0070022Y0050600D01*
X0070022Y0050599D02*
X0066557Y0050599D01*
X0066557Y0050598D02*
X0070022Y0050598D01*
X0070022Y0050597D02*
X0066557Y0050597D01*
X0066557Y0050596D02*
X0070022Y0050596D01*
X0070022Y0050595D02*
X0066557Y0050595D01*
X0066557Y0050594D02*
X0070022Y0050594D01*
X0070022Y0050593D02*
X0066557Y0050593D01*
X0066557Y0050592D02*
X0070022Y0050592D01*
X0070022Y0050591D02*
X0066557Y0050591D01*
X0066557Y0050590D02*
X0070022Y0050590D01*
X0070022Y0050589D02*
X0066557Y0050589D01*
X0066557Y0050588D02*
X0070022Y0050588D01*
X0070022Y0050587D02*
X0066557Y0050587D01*
X0066557Y0050586D02*
X0070022Y0050586D01*
X0070022Y0050585D02*
X0066557Y0050585D01*
X0066557Y0050584D02*
X0070022Y0050584D01*
X0070022Y0050583D02*
X0066557Y0050583D01*
X0066557Y0050582D02*
X0070022Y0050582D01*
X0070022Y0050581D02*
X0066557Y0050581D01*
X0070022Y0050581D01*
X0070022Y0050580D02*
X0066557Y0050580D01*
X0066557Y0050579D02*
X0070022Y0050579D01*
X0070022Y0050578D02*
X0066557Y0050578D01*
X0066557Y0050577D02*
X0070022Y0050577D01*
X0070022Y0050576D02*
X0066557Y0050576D01*
X0066557Y0050575D02*
X0070022Y0050575D01*
X0070022Y0050574D02*
X0066557Y0050574D01*
X0066557Y0050573D02*
X0070022Y0050573D01*
X0070022Y0050572D02*
X0066557Y0050572D01*
X0066557Y0050571D02*
X0070022Y0050571D01*
X0070022Y0050570D02*
X0066557Y0050570D01*
X0066557Y0050569D02*
X0070022Y0050569D01*
X0070022Y0050568D02*
X0066557Y0050568D01*
X0066557Y0050567D02*
X0070022Y0050567D01*
X0070022Y0050566D02*
X0066557Y0050566D01*
X0066557Y0050565D02*
X0070022Y0050565D01*
X0070022Y0050564D02*
X0066557Y0050564D01*
X0066557Y0050563D02*
X0070022Y0050563D01*
X0070022Y0050562D02*
X0066557Y0050562D01*
X0066557Y0050561D02*
X0070022Y0050561D01*
X0070022Y0050560D02*
X0066557Y0050560D01*
X0066557Y0050559D02*
X0070022Y0050559D01*
X0070022Y0050558D02*
X0066557Y0050558D01*
X0066557Y0050557D02*
X0070022Y0050557D01*
X0070022Y0050556D02*
X0066557Y0050556D01*
X0066557Y0050555D02*
X0070022Y0050555D01*
X0070022Y0050554D02*
X0066557Y0050554D01*
X0066557Y0050553D02*
X0070022Y0050553D01*
X0070022Y0050552D02*
X0066557Y0050552D01*
X0066557Y0050551D02*
X0070022Y0050551D01*
X0070022Y0050550D02*
X0066557Y0050550D01*
X0066557Y0050549D02*
X0070022Y0050549D01*
X0070022Y0050548D02*
X0066557Y0050548D01*
X0066557Y0050547D02*
X0070022Y0050547D01*
X0070022Y0050546D02*
X0066557Y0050546D01*
X0066557Y0050545D02*
X0070022Y0050545D01*
X0070022Y0050544D02*
X0066557Y0050544D01*
X0066557Y0050543D02*
X0070022Y0050543D01*
X0070022Y0050542D02*
X0066557Y0050542D01*
X0066557Y0050541D02*
X0070022Y0050541D01*
X0070022Y0050540D02*
X0066557Y0050540D01*
X0066557Y0050539D02*
X0070022Y0050539D01*
X0070022Y0050538D02*
X0066557Y0050538D01*
X0066557Y0050537D02*
X0070022Y0050537D01*
X0070022Y0050536D02*
X0066557Y0050536D01*
X0066557Y0050535D02*
X0070022Y0050535D01*
X0070022Y0050534D02*
X0066557Y0050534D01*
X0066557Y0050533D02*
X0070022Y0050533D01*
X0070022Y0050532D02*
X0066557Y0050532D01*
X0066557Y0050531D02*
X0070022Y0050531D01*
X0070022Y0050530D02*
X0066557Y0050530D01*
X0066557Y0050529D02*
X0070022Y0050529D01*
X0070022Y0050528D02*
X0066557Y0050528D01*
X0066557Y0050527D02*
X0070022Y0050527D01*
X0070022Y0050526D02*
X0066557Y0050526D01*
X0066557Y0050525D02*
X0070022Y0050525D01*
X0070022Y0050524D02*
X0066557Y0050524D01*
X0066557Y0050523D02*
X0070022Y0050523D01*
X0070022Y0050522D02*
X0066557Y0050522D01*
X0066557Y0050521D02*
X0070022Y0050521D01*
X0070022Y0050520D02*
X0066557Y0050520D01*
X0066557Y0050519D02*
X0070022Y0050519D01*
X0066557Y0050519D01*
X0066557Y0050518D02*
X0070022Y0050518D01*
X0070022Y0050517D02*
X0066557Y0050517D01*
X0066557Y0050516D02*
X0070022Y0050516D01*
X0070022Y0050515D02*
X0066557Y0050515D01*
X0066557Y0050514D02*
X0070022Y0050514D01*
X0070022Y0050513D02*
X0066557Y0050513D01*
X0066557Y0050512D02*
X0070022Y0050512D01*
X0070022Y0050511D02*
X0066557Y0050511D01*
X0066557Y0050510D02*
X0070022Y0050510D01*
X0070022Y0050509D02*
X0066557Y0050509D01*
X0066557Y0050508D02*
X0070022Y0050508D01*
X0070022Y0050507D02*
X0066557Y0050507D01*
X0066557Y0050506D02*
X0070022Y0050506D01*
X0070022Y0050505D02*
X0066557Y0050505D01*
X0066557Y0050504D02*
X0070022Y0050504D01*
X0070022Y0050503D02*
X0066557Y0050503D01*
X0066557Y0050502D02*
X0070022Y0050502D01*
X0070022Y0050501D02*
X0066557Y0050501D01*
X0066557Y0050500D02*
X0070022Y0050500D01*
X0070022Y0050499D02*
X0066557Y0050499D01*
X0066557Y0050498D02*
X0070022Y0050498D01*
X0070022Y0050497D02*
X0066557Y0050497D01*
X0066557Y0050496D02*
X0070022Y0050496D01*
X0070022Y0050495D02*
X0066557Y0050495D01*
X0066557Y0050494D02*
X0070022Y0050494D01*
X0070022Y0050493D02*
X0066557Y0050493D01*
X0066557Y0050492D02*
X0070022Y0050492D01*
X0070022Y0050491D02*
X0066557Y0050491D01*
X0066557Y0050490D02*
X0070022Y0050490D01*
X0070022Y0050489D02*
X0066557Y0050489D01*
X0066557Y0050488D02*
X0070022Y0050488D01*
X0070022Y0050487D02*
X0066557Y0050487D01*
X0066557Y0050486D02*
X0070022Y0050486D01*
X0070022Y0050485D02*
X0066557Y0050485D01*
X0066557Y0050484D02*
X0070022Y0050484D01*
X0070022Y0050483D02*
X0066557Y0050483D01*
X0066557Y0050482D02*
X0070022Y0050482D01*
X0070022Y0050481D02*
X0066557Y0050481D01*
X0066557Y0050480D02*
X0070022Y0050480D01*
X0070022Y0050479D02*
X0066557Y0050479D01*
X0066557Y0050478D02*
X0070022Y0050478D01*
X0070022Y0050477D02*
X0066557Y0050477D01*
X0066557Y0050476D02*
X0070022Y0050476D01*
X0070022Y0050475D02*
X0066557Y0050475D01*
X0066557Y0050474D02*
X0070022Y0050474D01*
X0070022Y0050473D02*
X0066557Y0050473D01*
X0066557Y0050472D02*
X0070022Y0050472D01*
X0070022Y0050471D02*
X0066557Y0050471D01*
X0066557Y0050470D02*
X0070022Y0050470D01*
X0070022Y0050469D02*
X0066557Y0050469D01*
X0066557Y0050468D02*
X0070022Y0050468D01*
X0070022Y0050467D02*
X0066557Y0050467D01*
X0066557Y0050466D02*
X0070022Y0050466D01*
X0070022Y0050465D02*
X0066557Y0050465D01*
X0066557Y0050464D02*
X0070022Y0050464D01*
X0070022Y0050463D02*
X0066557Y0050463D01*
X0066557Y0050462D02*
X0070022Y0050462D01*
X0070022Y0050461D02*
X0066557Y0050461D01*
X0066557Y0050460D02*
X0070022Y0050460D01*
X0070022Y0050459D02*
X0066557Y0050459D01*
X0066557Y0050458D02*
X0070022Y0050458D01*
X0070022Y0050457D02*
X0066557Y0050457D01*
X0066557Y0050456D02*
X0070022Y0050456D01*
X0066557Y0050456D01*
X0066557Y0050455D02*
X0070022Y0050455D01*
X0070022Y0050454D02*
X0066557Y0050454D01*
X0066557Y0050453D02*
X0070022Y0050453D01*
X0070022Y0050452D02*
X0066557Y0050452D01*
X0066557Y0050451D02*
X0070022Y0050451D01*
X0070022Y0050450D02*
X0066557Y0050450D01*
X0066557Y0050449D02*
X0070022Y0050449D01*
X0070022Y0050448D02*
X0066557Y0050448D01*
X0066557Y0050447D02*
X0070022Y0050447D01*
X0070022Y0050446D02*
X0066557Y0050446D01*
X0066557Y0050445D02*
X0070022Y0050445D01*
X0070022Y0050444D02*
X0066557Y0050444D01*
X0066557Y0050443D02*
X0070022Y0050443D01*
X0070022Y0050442D02*
X0066557Y0050442D01*
X0066557Y0050441D02*
X0070022Y0050441D01*
X0070022Y0050440D02*
X0066557Y0050440D01*
X0066557Y0050439D02*
X0070022Y0050439D01*
X0070022Y0050438D02*
X0066557Y0050438D01*
X0066557Y0050437D02*
X0070022Y0050437D01*
X0070022Y0050436D02*
X0066557Y0050436D01*
X0066557Y0050435D02*
X0070022Y0050435D01*
X0070022Y0050434D02*
X0066557Y0050434D01*
X0066557Y0050433D02*
X0070022Y0050433D01*
X0070022Y0050432D02*
X0066557Y0050432D01*
X0066557Y0050431D02*
X0070022Y0050431D01*
X0070022Y0050430D02*
X0066557Y0050430D01*
X0066557Y0050429D02*
X0070022Y0050429D01*
X0070022Y0050428D02*
X0066557Y0050428D01*
X0066557Y0050427D02*
X0070022Y0050427D01*
X0070022Y0050426D02*
X0066557Y0050426D01*
X0066557Y0050425D02*
X0070022Y0050425D01*
X0070022Y0050424D02*
X0066557Y0050424D01*
X0066557Y0050423D02*
X0070022Y0050423D01*
X0070022Y0050422D02*
X0066557Y0050422D01*
X0066557Y0050421D02*
X0070022Y0050421D01*
X0070022Y0050420D02*
X0066557Y0050420D01*
X0066557Y0050419D02*
X0070022Y0050419D01*
X0070022Y0050418D02*
X0066557Y0050418D01*
X0066557Y0050417D02*
X0070022Y0050417D01*
X0070022Y0050416D02*
X0066557Y0050416D01*
X0066557Y0050415D02*
X0070022Y0050415D01*
X0070022Y0050414D02*
X0066557Y0050414D01*
X0066557Y0050413D02*
X0070022Y0050413D01*
X0070022Y0050412D02*
X0066557Y0050412D01*
X0066557Y0050411D02*
X0070022Y0050411D01*
X0070022Y0050410D02*
X0066557Y0050410D01*
X0066557Y0050409D02*
X0070022Y0050409D01*
X0070022Y0050408D02*
X0066557Y0050408D01*
X0066557Y0050407D02*
X0070022Y0050407D01*
X0070022Y0050406D02*
X0066557Y0050406D01*
X0066557Y0050405D02*
X0070022Y0050405D01*
X0070022Y0050404D02*
X0066557Y0050404D01*
X0066557Y0050403D02*
X0070022Y0050403D01*
X0070022Y0050402D02*
X0066557Y0050402D01*
X0066557Y0050401D02*
X0070022Y0050401D01*
X0070022Y0050400D02*
X0066557Y0050400D01*
X0066557Y0050399D02*
X0070022Y0050399D01*
X0070022Y0050398D02*
X0066557Y0050398D01*
X0066557Y0050397D02*
X0070022Y0050397D01*
X0070022Y0050396D02*
X0066557Y0050396D01*
X0066557Y0050395D02*
X0070022Y0050395D01*
X0070022Y0050394D02*
X0066557Y0050394D01*
X0070022Y0050394D01*
X0070022Y0050393D02*
X0066557Y0050393D01*
X0066557Y0050392D02*
X0070022Y0050392D01*
X0070022Y0050391D02*
X0066557Y0050391D01*
X0066557Y0050390D02*
X0070022Y0050390D01*
X0070022Y0050389D02*
X0066557Y0050389D01*
X0066557Y0050388D02*
X0070022Y0050388D01*
X0070022Y0050387D02*
X0066557Y0050387D01*
X0066557Y0050386D02*
X0070022Y0050386D01*
X0070022Y0050385D02*
X0066557Y0050385D01*
X0066557Y0050384D02*
X0070022Y0050384D01*
X0070022Y0050383D02*
X0066557Y0050383D01*
X0066557Y0050382D02*
X0070022Y0050382D01*
X0070022Y0050381D02*
X0066557Y0050381D01*
X0066557Y0050380D02*
X0070022Y0050380D01*
X0070022Y0050379D02*
X0066557Y0050379D01*
X0066557Y0050378D02*
X0070022Y0050378D01*
X0070022Y0050377D02*
X0066557Y0050377D01*
X0066557Y0050376D02*
X0070022Y0050376D01*
X0070022Y0050375D02*
X0066557Y0050375D01*
X0066557Y0050374D02*
X0070022Y0050374D01*
X0070022Y0050373D02*
X0066557Y0050373D01*
X0066557Y0050372D02*
X0070022Y0050372D01*
X0070022Y0050371D02*
X0066557Y0050371D01*
X0066557Y0050370D02*
X0070022Y0050370D01*
X0070022Y0050369D02*
X0066557Y0050369D01*
X0066557Y0050368D02*
X0070022Y0050368D01*
X0070022Y0050367D02*
X0066557Y0050367D01*
X0066557Y0050366D02*
X0070022Y0050366D01*
X0070022Y0050365D02*
X0066557Y0050365D01*
X0066557Y0050364D02*
X0070022Y0050364D01*
X0070022Y0050363D02*
X0066557Y0050363D01*
X0066557Y0050362D02*
X0070022Y0050362D01*
X0070022Y0050361D02*
X0066557Y0050361D01*
X0066557Y0050360D02*
X0070022Y0050360D01*
X0070022Y0050359D02*
X0066557Y0050359D01*
X0066557Y0050358D02*
X0070022Y0050358D01*
X0070022Y0050357D02*
X0066557Y0050357D01*
X0066557Y0050356D02*
X0070022Y0050356D01*
X0070022Y0050355D02*
X0066557Y0050355D01*
X0066557Y0050354D02*
X0070022Y0050354D01*
X0070022Y0050353D02*
X0066557Y0050353D01*
X0066557Y0050352D02*
X0070022Y0050352D01*
X0070022Y0050351D02*
X0066557Y0050351D01*
X0066557Y0050350D02*
X0070022Y0050350D01*
X0070022Y0050349D02*
X0066557Y0050349D01*
X0066557Y0050348D02*
X0070022Y0050348D01*
X0070022Y0050347D02*
X0066557Y0050347D01*
X0066557Y0050346D02*
X0070022Y0050346D01*
X0070022Y0050345D02*
X0066557Y0050345D01*
X0066557Y0050344D02*
X0070022Y0050344D01*
X0070022Y0050343D02*
X0066557Y0050343D01*
X0066557Y0050342D02*
X0070022Y0050342D01*
X0070022Y0050341D02*
X0066557Y0050341D01*
X0066557Y0050340D02*
X0070022Y0050340D01*
X0070022Y0050339D02*
X0066557Y0050339D01*
X0066557Y0050338D02*
X0070022Y0050338D01*
X0070022Y0050337D02*
X0066557Y0050337D01*
X0066557Y0050336D02*
X0070022Y0050336D01*
X0070022Y0050335D02*
X0066557Y0050335D01*
X0066557Y0050334D02*
X0070022Y0050334D01*
X0070022Y0050333D02*
X0066557Y0050333D01*
X0066557Y0050332D02*
X0070022Y0050332D01*
X0070022Y0050331D02*
X0066557Y0050331D01*
X0070022Y0050331D01*
X0070022Y0050330D02*
X0066557Y0050330D01*
X0066557Y0050329D02*
X0070022Y0050329D01*
X0070022Y0050328D02*
X0066557Y0050328D01*
X0066557Y0050327D02*
X0070022Y0050327D01*
X0070022Y0050326D02*
X0066557Y0050326D01*
X0066557Y0050325D02*
X0070022Y0050325D01*
X0070022Y0050324D02*
X0066557Y0050324D01*
X0066557Y0050323D02*
X0070022Y0050323D01*
X0070022Y0050322D02*
X0066557Y0050322D01*
X0066557Y0050321D02*
X0070022Y0050321D01*
X0070022Y0050320D02*
X0066557Y0050320D01*
X0066557Y0050319D02*
X0070022Y0050319D01*
X0070022Y0050318D02*
X0066557Y0050318D01*
X0066557Y0050317D02*
X0070022Y0050317D01*
X0070022Y0050316D02*
X0066557Y0050316D01*
X0066557Y0050315D02*
X0070022Y0050315D01*
X0070022Y0050314D02*
X0066557Y0050314D01*
X0066557Y0050313D02*
X0070022Y0050313D01*
X0070022Y0050312D02*
X0066557Y0050312D01*
X0066557Y0050311D02*
X0070022Y0050311D01*
X0070022Y0050310D02*
X0066557Y0050310D01*
X0066557Y0050309D02*
X0070022Y0050309D01*
X0070022Y0050308D02*
X0066557Y0050308D01*
X0066557Y0050307D02*
X0070022Y0050307D01*
X0070022Y0050306D02*
X0066557Y0050306D01*
X0066557Y0050305D02*
X0070022Y0050305D01*
X0070022Y0050304D02*
X0066557Y0050304D01*
X0066557Y0050303D02*
X0070022Y0050303D01*
X0070022Y0050302D02*
X0066557Y0050302D01*
X0066557Y0050301D02*
X0070022Y0050301D01*
X0070022Y0050300D02*
X0066557Y0050300D01*
X0066557Y0050299D02*
X0070022Y0050299D01*
X0070022Y0050298D02*
X0066557Y0050298D01*
X0066557Y0050297D02*
X0070022Y0050297D01*
X0070022Y0050296D02*
X0066557Y0050296D01*
X0066557Y0050295D02*
X0070022Y0050295D01*
X0070022Y0050294D02*
X0066557Y0050294D01*
X0066557Y0050293D02*
X0070022Y0050293D01*
X0070022Y0050292D02*
X0066557Y0050292D01*
X0066557Y0050291D02*
X0070022Y0050291D01*
X0070022Y0050290D02*
X0066557Y0050290D01*
X0066557Y0050289D02*
X0070022Y0050289D01*
X0070022Y0050288D02*
X0066557Y0050288D01*
X0066557Y0050287D02*
X0070022Y0050287D01*
X0070022Y0050286D02*
X0066557Y0050286D01*
X0066557Y0050285D02*
X0070022Y0050285D01*
X0070022Y0050284D02*
X0066557Y0050284D01*
X0066557Y0050283D02*
X0070022Y0050283D01*
X0070022Y0050282D02*
X0066557Y0050282D01*
X0066557Y0050281D02*
X0070022Y0050281D01*
X0070022Y0050280D02*
X0066557Y0050280D01*
X0066557Y0050279D02*
X0070022Y0050279D01*
X0070022Y0050278D02*
X0066557Y0050278D01*
X0066557Y0050277D02*
X0070022Y0050277D01*
X0070022Y0050276D02*
X0066557Y0050276D01*
X0066557Y0050275D02*
X0070022Y0050275D01*
X0070022Y0050274D02*
X0066557Y0050274D01*
X0066557Y0050273D02*
X0070022Y0050273D01*
X0070022Y0050272D02*
X0066557Y0050272D01*
X0066557Y0050271D02*
X0070022Y0050271D01*
X0070022Y0050270D02*
X0066557Y0050270D01*
X0066557Y0050269D02*
X0070022Y0050269D01*
X0066557Y0050269D01*
X0066557Y0050268D02*
X0070022Y0050268D01*
X0070022Y0050267D02*
X0066557Y0050267D01*
X0066557Y0050266D02*
X0070022Y0050266D01*
X0070022Y0050265D02*
X0066557Y0050265D01*
X0066557Y0050264D02*
X0070022Y0050264D01*
X0070022Y0050263D02*
X0066557Y0050263D01*
X0066557Y0050262D02*
X0070022Y0050262D01*
X0070022Y0050261D02*
X0066557Y0050261D01*
X0066557Y0050260D02*
X0070022Y0050260D01*
X0070022Y0050259D02*
X0066557Y0050259D01*
X0066557Y0050258D02*
X0070022Y0050258D01*
X0070022Y0050257D02*
X0066557Y0050257D01*
X0066557Y0050256D02*
X0070022Y0050256D01*
X0070022Y0050255D02*
X0066557Y0050255D01*
X0066557Y0050254D02*
X0070022Y0050254D01*
X0070022Y0050253D02*
X0066557Y0050253D01*
X0066557Y0050252D02*
X0070022Y0050252D01*
X0070022Y0050251D02*
X0066557Y0050251D01*
X0066557Y0050250D02*
X0070022Y0050250D01*
X0070022Y0050249D02*
X0066557Y0050249D01*
X0066557Y0050248D02*
X0070022Y0050248D01*
X0070022Y0050247D02*
X0066557Y0050247D01*
X0066557Y0050246D02*
X0070022Y0050246D01*
X0070022Y0050245D02*
X0066557Y0050245D01*
X0066557Y0050244D02*
X0070022Y0050244D01*
X0070022Y0050243D02*
X0066557Y0050243D01*
X0066557Y0050242D02*
X0070022Y0050242D01*
X0070022Y0050241D02*
X0066557Y0050241D01*
X0066557Y0050240D02*
X0070022Y0050240D01*
X0070022Y0050239D02*
X0066557Y0050239D01*
X0066557Y0050238D02*
X0070022Y0050238D01*
X0070022Y0050237D02*
X0066557Y0050237D01*
X0066557Y0050236D02*
X0070022Y0050236D01*
X0070022Y0050235D02*
X0066557Y0050235D01*
X0066557Y0050234D02*
X0070022Y0050234D01*
X0070022Y0050233D02*
X0066557Y0050233D01*
X0066557Y0050232D02*
X0070022Y0050232D01*
X0070022Y0050231D02*
X0066557Y0050231D01*
X0066557Y0050230D02*
X0070022Y0050230D01*
X0070022Y0050229D02*
X0066557Y0050229D01*
X0066557Y0050228D02*
X0070022Y0050228D01*
X0070022Y0050227D02*
X0066557Y0050227D01*
X0066557Y0050226D02*
X0070022Y0050226D01*
X0070022Y0050225D02*
X0066557Y0050225D01*
X0066557Y0050224D02*
X0070022Y0050224D01*
X0070022Y0050223D02*
X0066557Y0050223D01*
X0066557Y0050222D02*
X0070022Y0050222D01*
X0070022Y0050221D02*
X0066557Y0050221D01*
X0066557Y0050220D02*
X0070022Y0050220D01*
X0070022Y0050219D02*
X0066557Y0050219D01*
X0066557Y0050218D02*
X0070022Y0050218D01*
X0070022Y0050217D02*
X0066557Y0050217D01*
X0066557Y0050216D02*
X0070022Y0050216D01*
X0070022Y0050215D02*
X0066557Y0050215D01*
X0066557Y0050214D02*
X0070022Y0050214D01*
X0070022Y0050213D02*
X0066557Y0050213D01*
X0066557Y0050212D02*
X0070022Y0050212D01*
X0070022Y0050211D02*
X0066557Y0050211D01*
X0066557Y0050210D02*
X0070022Y0050210D01*
X0070022Y0050209D02*
X0066557Y0050209D01*
X0066557Y0050208D02*
X0070022Y0050208D01*
X0070022Y0050207D02*
X0066557Y0050207D01*
X0066557Y0050206D02*
X0070022Y0050206D01*
X0066557Y0050206D01*
X0066557Y0050205D02*
X0070022Y0050205D01*
X0070022Y0050204D02*
X0066557Y0050204D01*
X0066557Y0050203D02*
X0070022Y0050203D01*
X0070022Y0050202D02*
X0066557Y0050202D01*
X0066557Y0050201D02*
X0070022Y0050201D01*
X0070022Y0050200D02*
X0066557Y0050200D01*
X0066557Y0050199D02*
X0070022Y0050199D01*
X0070022Y0050198D02*
X0066557Y0050198D01*
X0066557Y0050197D02*
X0070022Y0050197D01*
X0070022Y0050196D02*
X0066557Y0050196D01*
X0066557Y0050195D02*
X0070022Y0050195D01*
X0070022Y0050194D02*
X0066557Y0050194D01*
X0066557Y0050193D02*
X0070022Y0050193D01*
X0070022Y0050192D02*
X0066557Y0050192D01*
X0066557Y0050191D02*
X0070022Y0050191D01*
X0070022Y0050190D02*
X0066557Y0050190D01*
X0066557Y0050189D02*
X0070022Y0050189D01*
X0070022Y0050188D02*
X0066557Y0050188D01*
X0066557Y0050187D02*
X0070022Y0050187D01*
X0070022Y0050186D02*
X0066557Y0050186D01*
X0066557Y0050185D02*
X0070022Y0050185D01*
X0070022Y0050184D02*
X0066557Y0050184D01*
X0066557Y0050183D02*
X0070022Y0050183D01*
X0070022Y0050182D02*
X0066557Y0050182D01*
X0066557Y0050181D02*
X0070022Y0050181D01*
X0070022Y0050180D02*
X0066557Y0050180D01*
X0066557Y0050179D02*
X0070022Y0050179D01*
X0070022Y0050178D02*
X0066557Y0050178D01*
X0066557Y0050177D02*
X0070022Y0050177D01*
X0070022Y0050176D02*
X0066557Y0050176D01*
X0066557Y0050175D02*
X0070022Y0050175D01*
X0070022Y0050174D02*
X0066557Y0050174D01*
X0066557Y0050173D02*
X0070022Y0050173D01*
X0070022Y0050172D02*
X0066557Y0050172D01*
X0066557Y0050171D02*
X0070022Y0050171D01*
X0070022Y0050170D02*
X0066557Y0050170D01*
X0066557Y0050169D02*
X0070022Y0050169D01*
X0070022Y0050168D02*
X0066557Y0050168D01*
X0066557Y0050167D02*
X0070022Y0050167D01*
X0070022Y0050166D02*
X0066557Y0050166D01*
X0066557Y0050165D02*
X0070022Y0050165D01*
X0070022Y0050164D02*
X0066557Y0050164D01*
X0066557Y0050163D02*
X0070022Y0050163D01*
X0070022Y0050162D02*
X0066557Y0050162D01*
X0066557Y0050161D02*
X0070022Y0050161D01*
X0070022Y0050160D02*
X0066557Y0050160D01*
X0066557Y0050159D02*
X0070022Y0050159D01*
X0070022Y0050158D02*
X0066557Y0050158D01*
X0066557Y0050157D02*
X0070022Y0050157D01*
X0070022Y0050156D02*
X0066557Y0050156D01*
X0066557Y0050155D02*
X0070022Y0050155D01*
X0070022Y0050154D02*
X0066557Y0050154D01*
X0066557Y0050153D02*
X0070022Y0050153D01*
X0070022Y0050152D02*
X0066557Y0050152D01*
X0066557Y0050151D02*
X0070022Y0050151D01*
X0070022Y0050150D02*
X0066557Y0050150D01*
X0066557Y0050149D02*
X0070022Y0050149D01*
X0070022Y0050148D02*
X0066557Y0050148D01*
X0066557Y0050147D02*
X0070022Y0050147D01*
X0070022Y0050146D02*
X0066557Y0050146D01*
X0066557Y0050145D02*
X0070022Y0050145D01*
X0070022Y0050144D02*
X0066557Y0050144D01*
X0070022Y0050144D01*
X0070022Y0050143D02*
X0066557Y0050143D01*
X0066557Y0050142D02*
X0070022Y0050142D01*
X0070022Y0050141D02*
X0066557Y0050141D01*
X0066557Y0050140D02*
X0070022Y0050140D01*
X0070022Y0050139D02*
X0066557Y0050139D01*
X0066557Y0050138D02*
X0070022Y0050138D01*
X0070022Y0050137D02*
X0066557Y0050137D01*
X0066557Y0050136D02*
X0070022Y0050136D01*
X0070022Y0050135D02*
X0066557Y0050135D01*
X0066557Y0050134D02*
X0070022Y0050134D01*
X0070022Y0050133D02*
X0066557Y0050133D01*
X0066557Y0050132D02*
X0070022Y0050132D01*
X0070022Y0050131D02*
X0066557Y0050131D01*
X0066557Y0050130D02*
X0070022Y0050130D01*
X0070022Y0050129D02*
X0066557Y0050129D01*
X0066557Y0050128D02*
X0070022Y0050128D01*
X0070022Y0050127D02*
X0066557Y0050127D01*
X0066557Y0050126D02*
X0070022Y0050126D01*
X0070022Y0050125D02*
X0066557Y0050125D01*
X0066557Y0050124D02*
X0070022Y0050124D01*
X0070022Y0050123D02*
X0066557Y0050123D01*
X0066557Y0050122D02*
X0070022Y0050122D01*
X0070022Y0050121D02*
X0066557Y0050121D01*
X0066557Y0050120D02*
X0070022Y0050120D01*
X0070022Y0050119D02*
X0066557Y0050119D01*
X0066557Y0050118D02*
X0070022Y0050118D01*
X0070022Y0050117D02*
X0066557Y0050117D01*
X0066557Y0050116D02*
X0070022Y0050116D01*
X0070022Y0050115D02*
X0066557Y0050115D01*
X0066557Y0050114D02*
X0070022Y0050114D01*
X0070022Y0050113D02*
X0066557Y0050113D01*
X0066557Y0050112D02*
X0070022Y0050112D01*
X0070022Y0050111D02*
X0066557Y0050111D01*
X0066557Y0050110D02*
X0070022Y0050110D01*
X0070022Y0050109D02*
X0066557Y0050109D01*
X0066557Y0050108D02*
X0070022Y0050108D01*
X0070022Y0050107D02*
X0066557Y0050107D01*
X0066557Y0050106D02*
X0070022Y0050106D01*
X0070022Y0050105D02*
X0066557Y0050105D01*
X0066557Y0050104D02*
X0070022Y0050104D01*
X0070022Y0050103D02*
X0066557Y0050103D01*
X0066557Y0050102D02*
X0070022Y0050102D01*
X0070022Y0050101D02*
X0066557Y0050101D01*
X0066557Y0050100D02*
X0070022Y0050100D01*
X0070022Y0050099D02*
X0066557Y0050099D01*
X0066557Y0050098D02*
X0070022Y0050098D01*
X0070022Y0050097D02*
X0066557Y0050097D01*
X0066557Y0050096D02*
X0070022Y0050096D01*
X0070022Y0050095D02*
X0066557Y0050095D01*
X0066557Y0050094D02*
X0070022Y0050094D01*
X0070022Y0050093D02*
X0066557Y0050093D01*
X0066557Y0050092D02*
X0070022Y0050092D01*
X0070022Y0050091D02*
X0066557Y0050091D01*
X0066557Y0050090D02*
X0070022Y0050090D01*
X0070022Y0050089D02*
X0066557Y0050089D01*
X0066557Y0050088D02*
X0070022Y0050088D01*
X0070022Y0050087D02*
X0066557Y0050087D01*
X0066557Y0050086D02*
X0070022Y0050086D01*
X0070022Y0050085D02*
X0066557Y0050085D01*
X0066557Y0050084D02*
X0070022Y0050084D01*
X0070022Y0050083D02*
X0066557Y0050083D01*
X0066557Y0050082D02*
X0070022Y0050082D01*
X0070022Y0050081D02*
X0066557Y0050081D01*
X0070022Y0050081D01*
X0070022Y0050080D02*
X0066557Y0050080D01*
X0066557Y0050079D02*
X0070022Y0050079D01*
X0070022Y0050078D02*
X0066557Y0050078D01*
X0066557Y0050077D02*
X0070022Y0050077D01*
X0070022Y0050076D02*
X0066557Y0050076D01*
X0066557Y0050075D02*
X0070022Y0050075D01*
X0070022Y0050074D02*
X0066557Y0050074D01*
X0066557Y0050073D02*
X0070022Y0050073D01*
X0070022Y0050072D02*
X0066557Y0050072D01*
X0066557Y0050071D02*
X0070022Y0050071D01*
X0070022Y0050070D02*
X0066557Y0050070D01*
X0066557Y0050069D02*
X0070022Y0050069D01*
X0070022Y0050068D02*
X0066557Y0050068D01*
X0066557Y0050067D02*
X0070022Y0050067D01*
X0070022Y0050066D02*
X0066557Y0050066D01*
X0066557Y0050065D02*
X0070022Y0050065D01*
X0070022Y0050064D02*
X0066557Y0050064D01*
X0066557Y0050063D02*
X0070022Y0050063D01*
X0070022Y0050062D02*
X0066557Y0050062D01*
X0066557Y0050061D02*
X0070022Y0050061D01*
X0070022Y0050060D02*
X0066557Y0050060D01*
X0066557Y0050059D02*
X0070022Y0050059D01*
X0070022Y0050058D02*
X0066557Y0050058D01*
X0066557Y0050057D02*
X0070022Y0050057D01*
X0070022Y0050056D02*
X0066557Y0050056D01*
X0066557Y0050055D02*
X0070022Y0050055D01*
X0070022Y0050054D02*
X0066557Y0050054D01*
X0066557Y0050053D02*
X0070022Y0050053D01*
X0070022Y0050052D02*
X0066557Y0050052D01*
X0066557Y0050051D02*
X0070022Y0050051D01*
X0070022Y0050050D02*
X0066557Y0050050D01*
X0066557Y0050049D02*
X0070022Y0050049D01*
X0070022Y0050048D02*
X0066557Y0050048D01*
X0066557Y0050047D02*
X0070022Y0050047D01*
X0070022Y0050046D02*
X0066557Y0050046D01*
X0066557Y0050045D02*
X0070022Y0050045D01*
X0070022Y0050044D02*
X0066557Y0050044D01*
X0066557Y0050043D02*
X0070022Y0050043D01*
X0070022Y0050042D02*
X0066557Y0050042D01*
X0066557Y0050041D02*
X0070022Y0050041D01*
X0070022Y0050040D02*
X0066557Y0050040D01*
X0066557Y0050039D02*
X0070022Y0050039D01*
X0070022Y0050038D02*
X0066557Y0050038D01*
X0066557Y0050037D02*
X0070022Y0050037D01*
X0070022Y0050036D02*
X0066557Y0050036D01*
X0066557Y0050035D02*
X0070022Y0050035D01*
X0070022Y0050034D02*
X0066557Y0050034D01*
X0066557Y0050033D02*
X0070022Y0050033D01*
X0070022Y0050032D02*
X0066557Y0050032D01*
X0066557Y0050031D02*
X0070022Y0050031D01*
X0070022Y0050030D02*
X0066557Y0050030D01*
X0066557Y0050029D02*
X0070022Y0050029D01*
X0070022Y0050028D02*
X0066557Y0050028D01*
X0066557Y0050027D02*
X0070022Y0050027D01*
X0070022Y0050026D02*
X0066557Y0050026D01*
X0066557Y0050025D02*
X0070022Y0050025D01*
X0070022Y0050024D02*
X0066557Y0050024D01*
X0066557Y0050023D02*
X0070022Y0050023D01*
X0070022Y0050022D02*
X0066557Y0050022D01*
X0066557Y0050021D02*
X0070022Y0050021D01*
X0070022Y0050020D02*
X0066557Y0050020D01*
X0066557Y0050019D02*
X0070022Y0050019D01*
X0066557Y0050019D01*
X0066557Y0050018D02*
X0070022Y0050018D01*
X0070022Y0050017D02*
X0066557Y0050017D01*
X0066557Y0050016D02*
X0070022Y0050016D01*
X0070022Y0050015D02*
X0066557Y0050015D01*
X0066557Y0050014D02*
X0070022Y0050014D01*
X0070022Y0050013D02*
X0066557Y0050013D01*
X0066557Y0050012D02*
X0070022Y0050012D01*
X0070022Y0050011D02*
X0066557Y0050011D01*
X0066557Y0050010D02*
X0070022Y0050010D01*
X0070022Y0050009D02*
X0066557Y0050009D01*
X0066557Y0050008D02*
X0070022Y0050008D01*
X0070022Y0050007D02*
X0066557Y0050007D01*
X0066557Y0050006D02*
X0070022Y0050006D01*
X0070022Y0050005D02*
X0066557Y0050005D01*
X0066557Y0050004D02*
X0070022Y0050004D01*
X0070022Y0050003D02*
X0066557Y0050003D01*
X0066557Y0050002D02*
X0070022Y0050002D01*
X0070022Y0050001D02*
X0066557Y0050001D01*
X0066557Y0050000D02*
X0070022Y0050000D01*
X0070022Y0049999D02*
X0066557Y0049999D01*
X0066557Y0049998D02*
X0070022Y0049998D01*
X0070022Y0049997D02*
X0066557Y0049997D01*
X0066557Y0049996D02*
X0070022Y0049996D01*
X0070022Y0049995D02*
X0066557Y0049995D01*
X0066557Y0049994D02*
X0070022Y0049994D01*
X0070022Y0049993D02*
X0066557Y0049993D01*
X0066557Y0049992D02*
X0070022Y0049992D01*
X0070022Y0049991D02*
X0066557Y0049991D01*
X0066557Y0049990D02*
X0070022Y0049990D01*
X0070022Y0049989D02*
X0066557Y0049989D01*
X0066557Y0049988D02*
X0070022Y0049988D01*
X0070022Y0049987D02*
X0066557Y0049987D01*
X0066557Y0049986D02*
X0070022Y0049986D01*
X0070022Y0049985D02*
X0066557Y0049985D01*
X0066557Y0049984D02*
X0070022Y0049984D01*
X0070022Y0049983D02*
X0066557Y0049983D01*
X0066557Y0049982D02*
X0070022Y0049982D01*
X0070022Y0049981D02*
X0066557Y0049981D01*
X0066557Y0049980D02*
X0070022Y0049980D01*
X0070022Y0049979D02*
X0066557Y0049979D01*
X0066557Y0049978D02*
X0070022Y0049978D01*
X0070022Y0049977D02*
X0066557Y0049977D01*
X0066557Y0049976D02*
X0070022Y0049976D01*
X0070022Y0049975D02*
X0066557Y0049975D01*
X0066557Y0049974D02*
X0070022Y0049974D01*
X0070022Y0049973D02*
X0066557Y0049973D01*
X0066557Y0049972D02*
X0070022Y0049972D01*
X0070022Y0049971D02*
X0066557Y0049971D01*
X0066557Y0049970D02*
X0070022Y0049970D01*
X0070022Y0049969D02*
X0066557Y0049969D01*
X0066557Y0049968D02*
X0070022Y0049968D01*
X0070022Y0049967D02*
X0066557Y0049967D01*
X0066557Y0049966D02*
X0070022Y0049966D01*
X0070022Y0049965D02*
X0066557Y0049965D01*
X0066557Y0049964D02*
X0070022Y0049964D01*
X0070022Y0049963D02*
X0066557Y0049963D01*
X0066557Y0049962D02*
X0070022Y0049962D01*
X0070022Y0049961D02*
X0066557Y0049961D01*
X0066557Y0049960D02*
X0070022Y0049960D01*
X0070022Y0049959D02*
X0066557Y0049959D01*
X0066557Y0049958D02*
X0070022Y0049958D01*
X0070022Y0049957D02*
X0066557Y0049957D01*
X0066557Y0049956D02*
X0070022Y0049956D01*
X0066557Y0049956D01*
X0066557Y0049955D02*
X0070022Y0049955D01*
X0070022Y0049954D02*
X0066557Y0049954D01*
X0066557Y0049953D02*
X0070022Y0049953D01*
X0070022Y0049952D02*
X0066557Y0049952D01*
X0066557Y0049951D02*
X0070022Y0049951D01*
X0070022Y0049950D02*
X0066557Y0049950D01*
X0066557Y0049949D02*
X0070022Y0049949D01*
X0070022Y0049948D02*
X0066557Y0049948D01*
X0066557Y0049947D02*
X0070022Y0049947D01*
X0070022Y0049946D02*
X0066557Y0049946D01*
X0066557Y0049945D02*
X0070022Y0049945D01*
X0070022Y0049944D02*
X0066557Y0049944D01*
X0066557Y0049943D02*
X0070022Y0049943D01*
X0070022Y0049942D02*
X0066557Y0049942D01*
X0066557Y0049941D02*
X0070022Y0049941D01*
X0070022Y0049940D02*
X0066557Y0049940D01*
X0066557Y0049939D02*
X0070022Y0049939D01*
X0070022Y0049938D02*
X0066557Y0049938D01*
X0066557Y0049937D02*
X0070022Y0049937D01*
X0070022Y0049936D02*
X0066557Y0049936D01*
X0066557Y0049935D02*
X0070022Y0049935D01*
X0070022Y0049934D02*
X0066557Y0049934D01*
X0066557Y0049933D02*
X0070022Y0049933D01*
X0070022Y0049932D02*
X0066557Y0049932D01*
X0066557Y0049931D02*
X0070022Y0049931D01*
X0070022Y0049930D02*
X0066557Y0049930D01*
X0066557Y0049929D02*
X0070022Y0049929D01*
X0070022Y0049928D02*
X0066557Y0049928D01*
X0066557Y0049927D02*
X0070022Y0049927D01*
X0070022Y0049926D02*
X0066557Y0049926D01*
X0066557Y0049925D02*
X0070022Y0049925D01*
X0070022Y0049924D02*
X0066557Y0049924D01*
X0066557Y0049923D02*
X0070022Y0049923D01*
X0070022Y0049922D02*
X0066557Y0049922D01*
X0066557Y0049921D02*
X0070022Y0049921D01*
X0070022Y0049920D02*
X0066557Y0049920D01*
X0066557Y0049919D02*
X0070022Y0049919D01*
X0070022Y0049918D02*
X0066557Y0049918D01*
X0066557Y0049917D02*
X0070022Y0049917D01*
X0070022Y0049916D02*
X0066557Y0049916D01*
X0066557Y0049915D02*
X0070022Y0049915D01*
X0070022Y0049914D02*
X0066557Y0049914D01*
X0066557Y0049913D02*
X0070022Y0049913D01*
X0070022Y0049912D02*
X0066557Y0049912D01*
X0066557Y0049911D02*
X0070022Y0049911D01*
X0070022Y0049910D02*
X0066557Y0049910D01*
X0066557Y0049909D02*
X0070022Y0049909D01*
X0070022Y0049908D02*
X0066557Y0049908D01*
X0066557Y0049907D02*
X0070022Y0049907D01*
X0070022Y0049906D02*
X0066557Y0049906D01*
X0066557Y0049905D02*
X0070022Y0049905D01*
X0070022Y0049904D02*
X0066557Y0049904D01*
X0066557Y0049903D02*
X0070022Y0049903D01*
X0070022Y0049902D02*
X0066557Y0049902D01*
X0066557Y0049901D02*
X0070022Y0049901D01*
X0070022Y0049900D02*
X0066557Y0049900D01*
X0066557Y0049899D02*
X0070022Y0049899D01*
X0070022Y0049898D02*
X0066557Y0049898D01*
X0066557Y0049897D02*
X0070022Y0049897D01*
X0070022Y0049896D02*
X0066557Y0049896D01*
X0066557Y0049895D02*
X0070022Y0049895D01*
X0070022Y0049894D02*
X0066557Y0049894D01*
X0070022Y0049894D01*
X0070022Y0049893D02*
X0066557Y0049893D01*
X0066557Y0049892D02*
X0070022Y0049892D01*
X0070022Y0049891D02*
X0066557Y0049891D01*
X0066557Y0049890D02*
X0070022Y0049890D01*
X0070022Y0049889D02*
X0066557Y0049889D01*
X0066557Y0049888D02*
X0070022Y0049888D01*
X0070022Y0049887D02*
X0066557Y0049887D01*
X0066557Y0049886D02*
X0070022Y0049886D01*
X0070022Y0049885D02*
X0066557Y0049885D01*
X0066557Y0049884D02*
X0070022Y0049884D01*
X0070022Y0049883D02*
X0066557Y0049883D01*
X0066557Y0049882D02*
X0070022Y0049882D01*
X0070022Y0049881D02*
X0066557Y0049881D01*
X0066557Y0049880D02*
X0070022Y0049880D01*
X0070022Y0049879D02*
X0066557Y0049879D01*
X0066557Y0049878D02*
X0070022Y0049878D01*
X0070022Y0049877D02*
X0066557Y0049877D01*
X0066557Y0049876D02*
X0070022Y0049876D01*
X0070022Y0049875D02*
X0066557Y0049875D01*
X0066557Y0049874D02*
X0070022Y0049874D01*
X0070022Y0049873D02*
X0066557Y0049873D01*
X0066557Y0049872D02*
X0070022Y0049872D01*
X0070022Y0049871D02*
X0066557Y0049871D01*
X0066557Y0049870D02*
X0070022Y0049870D01*
X0070022Y0049869D02*
X0066557Y0049869D01*
X0066557Y0049868D02*
X0070022Y0049868D01*
X0070022Y0049867D02*
X0066557Y0049867D01*
X0066557Y0049866D02*
X0070022Y0049866D01*
X0070022Y0049865D02*
X0066557Y0049865D01*
X0066557Y0049864D02*
X0070022Y0049864D01*
X0070022Y0049863D02*
X0066557Y0049863D01*
X0066557Y0049862D02*
X0070022Y0049862D01*
X0070022Y0049861D02*
X0066557Y0049861D01*
X0066557Y0049860D02*
X0070022Y0049860D01*
X0070022Y0049859D02*
X0066557Y0049859D01*
X0066557Y0049858D02*
X0070022Y0049858D01*
X0070022Y0049857D02*
X0066557Y0049857D01*
X0066557Y0049856D02*
X0070022Y0049856D01*
X0070022Y0049855D02*
X0066557Y0049855D01*
X0066557Y0049854D02*
X0070022Y0049854D01*
X0070022Y0049853D02*
X0066557Y0049853D01*
X0066557Y0049852D02*
X0070022Y0049852D01*
X0070022Y0049851D02*
X0066557Y0049851D01*
X0066557Y0049850D02*
X0070022Y0049850D01*
X0070022Y0049849D02*
X0066557Y0049849D01*
X0066557Y0049848D02*
X0070022Y0049848D01*
X0070022Y0049847D02*
X0066557Y0049847D01*
X0066557Y0049846D02*
X0070022Y0049846D01*
X0070022Y0049845D02*
X0066557Y0049845D01*
X0066557Y0049844D02*
X0070022Y0049844D01*
X0070022Y0049843D02*
X0066557Y0049843D01*
X0066557Y0049842D02*
X0070022Y0049842D01*
X0070022Y0049841D02*
X0066557Y0049841D01*
X0066557Y0049840D02*
X0070022Y0049840D01*
X0070022Y0049839D02*
X0066557Y0049839D01*
X0066557Y0049838D02*
X0070022Y0049838D01*
X0070022Y0049837D02*
X0066557Y0049837D01*
X0066557Y0049836D02*
X0070022Y0049836D01*
X0070022Y0049835D02*
X0066557Y0049835D01*
X0066557Y0049834D02*
X0070022Y0049834D01*
X0070022Y0049833D02*
X0066557Y0049833D01*
X0066557Y0049832D02*
X0070022Y0049832D01*
X0070022Y0049831D02*
X0066557Y0049831D01*
X0070022Y0049831D01*
X0070022Y0049830D02*
X0066557Y0049830D01*
X0066557Y0049829D02*
X0070022Y0049829D01*
X0070022Y0049828D02*
X0066557Y0049828D01*
X0066557Y0049827D02*
X0070022Y0049827D01*
X0070022Y0049826D02*
X0066557Y0049826D01*
X0066557Y0049825D02*
X0070022Y0049825D01*
X0070022Y0049824D02*
X0066557Y0049824D01*
X0066557Y0049823D02*
X0070022Y0049823D01*
X0070022Y0049822D02*
X0066557Y0049822D01*
X0066557Y0049821D02*
X0070022Y0049821D01*
X0070022Y0049820D02*
X0066557Y0049820D01*
X0066557Y0049819D02*
X0070022Y0049819D01*
X0070022Y0049818D02*
X0066557Y0049818D01*
X0066557Y0049817D02*
X0070022Y0049817D01*
X0070022Y0049816D02*
X0066557Y0049816D01*
X0066557Y0049815D02*
X0070022Y0049815D01*
X0070022Y0049814D02*
X0066557Y0049814D01*
X0066557Y0049813D02*
X0070022Y0049813D01*
X0070022Y0049812D02*
X0066557Y0049812D01*
X0066557Y0049811D02*
X0070022Y0049811D01*
X0070022Y0049810D02*
X0066557Y0049810D01*
X0066557Y0049809D02*
X0070022Y0049809D01*
X0070022Y0049808D02*
X0066557Y0049808D01*
X0066557Y0049807D02*
X0070022Y0049807D01*
X0070022Y0049806D02*
X0066557Y0049806D01*
X0066557Y0049805D02*
X0070022Y0049805D01*
X0070022Y0049804D02*
X0066557Y0049804D01*
X0066557Y0049803D02*
X0070022Y0049803D01*
X0070022Y0049802D02*
X0066557Y0049802D01*
X0066557Y0049801D02*
X0070022Y0049801D01*
X0070022Y0049800D02*
X0066557Y0049800D01*
X0066557Y0049799D02*
X0070022Y0049799D01*
X0070022Y0049798D02*
X0066557Y0049798D01*
X0066557Y0049797D02*
X0070022Y0049797D01*
X0070022Y0049796D02*
X0066557Y0049796D01*
X0066557Y0049795D02*
X0070022Y0049795D01*
X0070022Y0049794D02*
X0066557Y0049794D01*
X0066557Y0049793D02*
X0070022Y0049793D01*
X0070022Y0049792D02*
X0066557Y0049792D01*
X0066557Y0049791D02*
X0070022Y0049791D01*
X0070022Y0049790D02*
X0066557Y0049790D01*
X0066557Y0049789D02*
X0070022Y0049789D01*
X0070022Y0049788D02*
X0066557Y0049788D01*
X0066557Y0049787D02*
X0070022Y0049787D01*
X0070022Y0049786D02*
X0066557Y0049786D01*
X0066557Y0049785D02*
X0070022Y0049785D01*
X0070022Y0049784D02*
X0066557Y0049784D01*
X0066557Y0049783D02*
X0070022Y0049783D01*
X0070022Y0049782D02*
X0066557Y0049782D01*
X0066557Y0049781D02*
X0070022Y0049781D01*
X0070022Y0049780D02*
X0066557Y0049780D01*
X0066557Y0049779D02*
X0070022Y0049779D01*
X0070022Y0049778D02*
X0066557Y0049778D01*
X0066557Y0049777D02*
X0070022Y0049777D01*
X0070022Y0049776D02*
X0066557Y0049776D01*
X0066557Y0049775D02*
X0070022Y0049775D01*
X0070022Y0049774D02*
X0066557Y0049774D01*
X0066557Y0049773D02*
X0070022Y0049773D01*
X0070022Y0049772D02*
X0066557Y0049772D01*
X0066557Y0049771D02*
X0070022Y0049771D01*
X0070022Y0049770D02*
X0066557Y0049770D01*
X0066557Y0049769D02*
X0070022Y0049769D01*
X0066557Y0049769D01*
X0066557Y0049768D02*
X0070022Y0049768D01*
X0070022Y0049767D02*
X0066557Y0049767D01*
X0066557Y0049766D02*
X0070022Y0049766D01*
X0070022Y0049765D02*
X0066557Y0049765D01*
X0066557Y0049764D02*
X0070022Y0049764D01*
X0070022Y0049763D02*
X0066557Y0049763D01*
X0066557Y0049762D02*
X0070022Y0049762D01*
X0070022Y0049761D02*
X0066557Y0049761D01*
X0066557Y0049760D02*
X0070022Y0049760D01*
X0070022Y0049759D02*
X0066557Y0049759D01*
X0066557Y0049758D02*
X0070022Y0049758D01*
X0070022Y0049757D02*
X0066557Y0049757D01*
X0066557Y0049756D02*
X0070022Y0049756D01*
X0070022Y0049755D02*
X0066557Y0049755D01*
X0066557Y0049754D02*
X0070022Y0049754D01*
X0070022Y0049753D02*
X0066557Y0049753D01*
X0066557Y0049752D02*
X0070022Y0049752D01*
X0070022Y0049751D02*
X0066557Y0049751D01*
X0066557Y0049750D02*
X0070022Y0049750D01*
X0070022Y0049749D02*
X0066557Y0049749D01*
X0066557Y0049748D02*
X0070022Y0049748D01*
X0070022Y0049747D02*
X0066557Y0049747D01*
X0066557Y0049746D02*
X0070022Y0049746D01*
X0070022Y0049745D02*
X0066557Y0049745D01*
X0066557Y0049744D02*
X0070022Y0049744D01*
X0070022Y0049743D02*
X0066557Y0049743D01*
X0066557Y0049742D02*
X0070022Y0049742D01*
X0070022Y0049741D02*
X0066557Y0049741D01*
X0066557Y0049740D02*
X0070022Y0049740D01*
X0070022Y0049739D02*
X0066557Y0049739D01*
X0066557Y0049738D02*
X0070022Y0049738D01*
X0070022Y0049737D02*
X0066557Y0049737D01*
X0066557Y0049736D02*
X0070022Y0049736D01*
X0070022Y0049735D02*
X0066557Y0049735D01*
X0066557Y0049734D02*
X0070022Y0049734D01*
X0070022Y0049733D02*
X0066557Y0049733D01*
X0066557Y0049732D02*
X0070022Y0049732D01*
X0070022Y0049731D02*
X0066557Y0049731D01*
X0066557Y0049730D02*
X0070022Y0049730D01*
X0070022Y0049729D02*
X0066557Y0049729D01*
X0066557Y0049728D02*
X0070022Y0049728D01*
X0070022Y0049727D02*
X0066557Y0049727D01*
X0066557Y0049726D02*
X0070022Y0049726D01*
X0070022Y0049725D02*
X0066557Y0049725D01*
X0066557Y0049724D02*
X0070022Y0049724D01*
X0070022Y0049723D02*
X0066557Y0049723D01*
X0066557Y0049722D02*
X0070022Y0049722D01*
X0070022Y0049721D02*
X0066557Y0049721D01*
X0066557Y0049720D02*
X0070022Y0049720D01*
X0070022Y0049719D02*
X0066557Y0049719D01*
X0066557Y0049718D02*
X0070022Y0049718D01*
X0070022Y0049717D02*
X0066557Y0049717D01*
X0066557Y0049716D02*
X0070022Y0049716D01*
X0070022Y0049715D02*
X0066557Y0049715D01*
X0066557Y0049714D02*
X0070022Y0049714D01*
X0070022Y0049713D02*
X0066557Y0049713D01*
X0066557Y0049712D02*
X0070022Y0049712D01*
X0070022Y0049711D02*
X0066557Y0049711D01*
X0066557Y0049710D02*
X0070022Y0049710D01*
X0070022Y0049709D02*
X0066557Y0049709D01*
X0066557Y0049708D02*
X0070022Y0049708D01*
X0070022Y0049707D02*
X0066557Y0049707D01*
X0066557Y0049706D02*
X0070022Y0049706D01*
X0066557Y0049706D01*
X0066557Y0049705D02*
X0070022Y0049705D01*
X0070022Y0049704D02*
X0066557Y0049704D01*
X0066557Y0049703D02*
X0070022Y0049703D01*
X0070022Y0049702D02*
X0066557Y0049702D01*
X0066557Y0049701D02*
X0070022Y0049701D01*
X0070022Y0049700D02*
X0066557Y0049700D01*
X0066557Y0049699D02*
X0070022Y0049699D01*
X0070022Y0049698D02*
X0066557Y0049698D01*
X0066557Y0049697D02*
X0070022Y0049697D01*
X0070022Y0049696D02*
X0066557Y0049696D01*
X0066557Y0049695D02*
X0070022Y0049695D01*
X0070022Y0049694D02*
X0066557Y0049694D01*
X0066557Y0049693D02*
X0070022Y0049693D01*
X0070022Y0049692D02*
X0066557Y0049692D01*
X0066557Y0049691D02*
X0070022Y0049691D01*
X0070022Y0049690D02*
X0066557Y0049690D01*
X0066557Y0049689D02*
X0070022Y0049689D01*
X0070022Y0049688D02*
X0066557Y0049688D01*
X0066557Y0049687D02*
X0070022Y0049687D01*
X0070022Y0049686D02*
X0066557Y0049686D01*
X0066557Y0049685D02*
X0070022Y0049685D01*
X0070022Y0049684D02*
X0066557Y0049684D01*
X0066557Y0049683D02*
X0070022Y0049683D01*
X0070022Y0049682D02*
X0066557Y0049682D01*
X0066557Y0049681D02*
X0070022Y0049681D01*
X0070022Y0049680D02*
X0066557Y0049680D01*
X0066557Y0049679D02*
X0070022Y0049679D01*
X0070022Y0049678D02*
X0066557Y0049678D01*
X0066557Y0049677D02*
X0070022Y0049677D01*
X0070022Y0049676D02*
X0066557Y0049676D01*
X0066557Y0049675D02*
X0070022Y0049675D01*
X0070022Y0049674D02*
X0066557Y0049674D01*
X0066557Y0049673D02*
X0070022Y0049673D01*
X0070022Y0049672D02*
X0066557Y0049672D01*
X0066557Y0049671D02*
X0070022Y0049671D01*
X0070022Y0049670D02*
X0066557Y0049670D01*
X0066557Y0049669D02*
X0070022Y0049669D01*
X0070022Y0049668D02*
X0066557Y0049668D01*
X0066557Y0049667D02*
X0070022Y0049667D01*
X0070022Y0049666D02*
X0066557Y0049666D01*
X0066557Y0049665D02*
X0070022Y0049665D01*
X0070022Y0049664D02*
X0066557Y0049664D01*
X0066557Y0049663D02*
X0070022Y0049663D01*
X0070022Y0049662D02*
X0066557Y0049662D01*
X0066557Y0049661D02*
X0070022Y0049661D01*
X0070022Y0049660D02*
X0066557Y0049660D01*
X0066557Y0049659D02*
X0070022Y0049659D01*
X0070022Y0049658D02*
X0066557Y0049658D01*
X0066557Y0049657D02*
X0070022Y0049657D01*
X0070022Y0049656D02*
X0066557Y0049656D01*
X0066557Y0049655D02*
X0070022Y0049655D01*
X0070022Y0049654D02*
X0066557Y0049654D01*
X0066557Y0049653D02*
X0070022Y0049653D01*
X0070022Y0049652D02*
X0066557Y0049652D01*
X0066557Y0049651D02*
X0070022Y0049651D01*
X0070022Y0049650D02*
X0066557Y0049650D01*
X0066557Y0049649D02*
X0070022Y0049649D01*
X0070022Y0049648D02*
X0066557Y0049648D01*
X0066557Y0049647D02*
X0070022Y0049647D01*
X0070022Y0049646D02*
X0066557Y0049646D01*
X0066557Y0049645D02*
X0070022Y0049645D01*
X0070022Y0049644D02*
X0066557Y0049644D01*
X0070022Y0049644D01*
X0070022Y0049643D02*
X0066557Y0049643D01*
X0066557Y0049642D02*
X0070022Y0049642D01*
X0070022Y0049641D02*
X0066557Y0049641D01*
X0066557Y0049640D02*
X0070022Y0049640D01*
X0070022Y0049639D02*
X0066557Y0049639D01*
X0066557Y0049638D02*
X0070022Y0049638D01*
X0070022Y0049637D02*
X0066557Y0049637D01*
X0066557Y0049636D02*
X0070022Y0049636D01*
X0070022Y0049635D02*
X0066557Y0049635D01*
X0066557Y0049634D02*
X0070022Y0049634D01*
X0070022Y0049633D02*
X0066557Y0049633D01*
X0066557Y0049632D02*
X0070022Y0049632D01*
X0070022Y0049631D02*
X0066557Y0049631D01*
X0066557Y0049630D02*
X0070022Y0049630D01*
X0070022Y0049629D02*
X0066557Y0049629D01*
X0066557Y0049628D02*
X0070022Y0049628D01*
X0070022Y0049627D02*
X0066557Y0049627D01*
X0066557Y0049626D02*
X0070022Y0049626D01*
X0070022Y0049625D02*
X0066557Y0049625D01*
X0066557Y0049624D02*
X0070022Y0049624D01*
X0070022Y0049623D02*
X0066557Y0049623D01*
X0066557Y0049622D02*
X0070022Y0049622D01*
X0070022Y0049621D02*
X0066557Y0049621D01*
X0066557Y0049620D02*
X0070022Y0049620D01*
X0070022Y0049619D02*
X0066557Y0049619D01*
X0066557Y0049618D02*
X0070022Y0049618D01*
X0070022Y0049617D02*
X0066557Y0049617D01*
X0066557Y0049616D02*
X0070022Y0049616D01*
X0070022Y0049615D02*
X0066557Y0049615D01*
X0066557Y0049614D02*
X0070022Y0049614D01*
X0070022Y0049613D02*
X0066557Y0049613D01*
X0066557Y0049612D02*
X0070022Y0049612D01*
X0070022Y0049611D02*
X0066557Y0049611D01*
X0066557Y0049610D02*
X0070022Y0049610D01*
X0070022Y0049609D02*
X0066557Y0049609D01*
X0066557Y0049608D02*
X0070022Y0049608D01*
X0070022Y0049607D02*
X0066557Y0049607D01*
X0066557Y0049606D02*
X0070022Y0049606D01*
X0070022Y0049605D02*
X0066557Y0049605D01*
X0066557Y0049604D02*
X0070022Y0049604D01*
X0070022Y0049603D02*
X0066557Y0049603D01*
X0066557Y0049602D02*
X0070022Y0049602D01*
X0070022Y0049601D02*
X0066557Y0049601D01*
X0066557Y0049600D02*
X0070022Y0049600D01*
X0070022Y0049599D02*
X0066557Y0049599D01*
X0066557Y0049598D02*
X0070022Y0049598D01*
X0070022Y0049597D02*
X0066557Y0049597D01*
X0066557Y0049596D02*
X0070022Y0049596D01*
X0070022Y0049595D02*
X0066557Y0049595D01*
X0066557Y0049594D02*
X0070022Y0049594D01*
X0070022Y0049593D02*
X0066557Y0049593D01*
X0066557Y0049592D02*
X0070022Y0049592D01*
X0070022Y0049591D02*
X0066557Y0049591D01*
X0066557Y0049590D02*
X0070022Y0049590D01*
X0070022Y0049589D02*
X0066557Y0049589D01*
X0066557Y0049588D02*
X0070022Y0049588D01*
X0070022Y0049587D02*
X0066557Y0049587D01*
X0066557Y0049586D02*
X0070022Y0049586D01*
X0070022Y0049585D02*
X0066557Y0049585D01*
X0066557Y0049584D02*
X0070022Y0049584D01*
X0070022Y0049583D02*
X0066557Y0049583D01*
X0066557Y0049582D02*
X0070022Y0049582D01*
X0070022Y0049581D02*
X0066557Y0049581D01*
X0070022Y0049581D01*
X0070022Y0049580D02*
X0066557Y0049580D01*
X0066557Y0049579D02*
X0070022Y0049579D01*
X0070022Y0049578D02*
X0066557Y0049578D01*
X0066557Y0049577D02*
X0070022Y0049577D01*
X0070022Y0049576D02*
X0066557Y0049576D01*
X0066557Y0049575D02*
X0070022Y0049575D01*
X0070022Y0049574D02*
X0066557Y0049574D01*
X0066557Y0049573D02*
X0070022Y0049573D01*
X0070022Y0049572D02*
X0066557Y0049572D01*
X0066557Y0049571D02*
X0070022Y0049571D01*
X0070022Y0049570D02*
X0066557Y0049570D01*
X0066557Y0049569D02*
X0070022Y0049569D01*
X0070022Y0049568D02*
X0066557Y0049568D01*
X0066557Y0049567D02*
X0070022Y0049567D01*
X0070022Y0049566D02*
X0066557Y0049566D01*
X0066557Y0049565D02*
X0070022Y0049565D01*
X0070022Y0049564D02*
X0066557Y0049564D01*
X0066557Y0049563D02*
X0070022Y0049563D01*
X0070022Y0049562D02*
X0066557Y0049562D01*
X0066557Y0049561D02*
X0070022Y0049561D01*
X0070022Y0049560D02*
X0066557Y0049560D01*
X0066557Y0049559D02*
X0070022Y0049559D01*
X0070022Y0049558D02*
X0066557Y0049558D01*
X0066557Y0049557D02*
X0070022Y0049557D01*
X0070022Y0049556D02*
X0066557Y0049556D01*
X0066557Y0049555D02*
X0070022Y0049555D01*
X0070022Y0049554D02*
X0066557Y0049554D01*
X0066557Y0049553D02*
X0070022Y0049553D01*
X0070022Y0049552D02*
X0066557Y0049552D01*
X0066557Y0049551D02*
X0070022Y0049551D01*
X0070022Y0049550D02*
X0066557Y0049550D01*
X0066557Y0049549D02*
X0070022Y0049549D01*
X0070022Y0049548D02*
X0066557Y0049548D01*
X0066557Y0049547D02*
X0070022Y0049547D01*
X0070022Y0049546D02*
X0066557Y0049546D01*
X0066557Y0049545D02*
X0070022Y0049545D01*
X0070022Y0049544D02*
X0066557Y0049544D01*
X0066557Y0049543D02*
X0070022Y0049543D01*
X0070022Y0049542D02*
X0066557Y0049542D01*
X0066557Y0049541D02*
X0070022Y0049541D01*
X0070022Y0049540D02*
X0066557Y0049540D01*
X0066557Y0049539D02*
X0070022Y0049539D01*
X0070022Y0049538D02*
X0066557Y0049538D01*
X0066557Y0049537D02*
X0070022Y0049537D01*
X0070022Y0049536D02*
X0066557Y0049536D01*
X0066557Y0049535D02*
X0070022Y0049535D01*
X0070022Y0049534D02*
X0066557Y0049534D01*
X0066557Y0049533D02*
X0070022Y0049533D01*
X0070022Y0049532D02*
X0066557Y0049532D01*
X0066557Y0049531D02*
X0070022Y0049531D01*
X0070022Y0049530D02*
X0066557Y0049530D01*
X0066557Y0049529D02*
X0070022Y0049529D01*
X0070022Y0049528D02*
X0066557Y0049528D01*
X0066557Y0049527D02*
X0070022Y0049527D01*
X0070022Y0049526D02*
X0066557Y0049526D01*
X0066557Y0049525D02*
X0070022Y0049525D01*
X0070022Y0049524D02*
X0066557Y0049524D01*
X0066557Y0049523D02*
X0070022Y0049523D01*
X0070022Y0049522D02*
X0066557Y0049522D01*
X0066557Y0049521D02*
X0070022Y0049521D01*
X0070022Y0049520D02*
X0066557Y0049520D01*
X0066557Y0049519D02*
X0070022Y0049519D01*
X0066557Y0049519D01*
X0066557Y0049518D02*
X0070022Y0049518D01*
X0070022Y0049517D02*
X0066557Y0049517D01*
X0066557Y0049516D02*
X0070022Y0049516D01*
X0070022Y0049515D02*
X0066557Y0049515D01*
X0066557Y0049514D02*
X0070022Y0049514D01*
X0070022Y0049513D02*
X0066557Y0049513D01*
X0066557Y0049512D02*
X0070022Y0049512D01*
X0070022Y0049511D02*
X0066557Y0049511D01*
X0066557Y0049510D02*
X0070022Y0049510D01*
X0070022Y0049509D02*
X0066557Y0049509D01*
X0066557Y0049508D02*
X0070022Y0049508D01*
X0070022Y0049507D02*
X0066557Y0049507D01*
X0066557Y0049506D02*
X0070022Y0049506D01*
X0070022Y0049505D02*
X0066557Y0049505D01*
X0066557Y0049504D02*
X0070022Y0049504D01*
X0070022Y0049503D02*
X0066557Y0049503D01*
X0066557Y0049502D02*
X0070022Y0049502D01*
X0070022Y0049501D02*
X0066557Y0049501D01*
X0066557Y0049500D02*
X0070022Y0049500D01*
X0070022Y0049499D02*
X0066557Y0049499D01*
X0066557Y0049498D02*
X0070022Y0049498D01*
X0070022Y0049497D02*
X0066557Y0049497D01*
X0066557Y0049496D02*
X0070022Y0049496D01*
X0070022Y0049495D02*
X0066557Y0049495D01*
X0066557Y0049494D02*
X0070022Y0049494D01*
X0070022Y0049493D02*
X0066557Y0049493D01*
X0066557Y0049492D02*
X0070022Y0049492D01*
X0070022Y0049491D02*
X0066557Y0049491D01*
X0066557Y0049490D02*
X0070022Y0049490D01*
X0070022Y0049489D02*
X0066557Y0049489D01*
X0066557Y0049488D02*
X0070022Y0049488D01*
X0070022Y0049487D02*
X0066557Y0049487D01*
X0066557Y0049486D02*
X0070022Y0049486D01*
X0070022Y0049485D02*
X0066557Y0049485D01*
X0066557Y0049484D02*
X0070022Y0049484D01*
X0070022Y0049483D02*
X0066557Y0049483D01*
X0066557Y0049482D02*
X0070022Y0049482D01*
X0070022Y0049481D02*
X0066557Y0049481D01*
X0066557Y0049480D02*
X0070022Y0049480D01*
X0070022Y0049479D02*
X0066557Y0049479D01*
X0066557Y0049478D02*
X0070022Y0049478D01*
X0070022Y0049477D02*
X0066557Y0049477D01*
X0066557Y0049476D02*
X0070022Y0049476D01*
X0070022Y0049475D02*
X0066557Y0049475D01*
X0066557Y0049474D02*
X0070022Y0049474D01*
X0070022Y0049473D02*
X0066557Y0049473D01*
X0066557Y0049472D02*
X0070022Y0049472D01*
X0070022Y0049471D02*
X0066557Y0049471D01*
X0066557Y0049470D02*
X0070022Y0049470D01*
X0070022Y0049469D02*
X0066557Y0049469D01*
X0066557Y0049468D02*
X0070022Y0049468D01*
X0070022Y0049467D02*
X0066557Y0049467D01*
X0066557Y0049466D02*
X0070022Y0049466D01*
X0070022Y0049465D02*
X0066557Y0049465D01*
X0066557Y0049464D02*
X0070022Y0049464D01*
X0070022Y0049463D02*
X0066557Y0049463D01*
X0066557Y0049462D02*
X0070022Y0049462D01*
X0070022Y0049461D02*
X0066557Y0049461D01*
X0066557Y0049460D02*
X0070022Y0049460D01*
X0070022Y0049459D02*
X0066557Y0049459D01*
X0066557Y0049458D02*
X0070022Y0049458D01*
X0070022Y0049457D02*
X0066557Y0049457D01*
X0066557Y0049456D02*
X0070022Y0049456D01*
X0066557Y0049456D01*
X0066557Y0049455D02*
X0070022Y0049455D01*
X0070022Y0049454D02*
X0066557Y0049454D01*
X0066557Y0049453D02*
X0070022Y0049453D01*
X0070022Y0049452D02*
X0066557Y0049452D01*
X0066557Y0049451D02*
X0070022Y0049451D01*
X0070022Y0049450D02*
X0066557Y0049450D01*
X0066557Y0049449D02*
X0070022Y0049449D01*
X0070022Y0049448D02*
X0066557Y0049448D01*
X0066557Y0049447D02*
X0070022Y0049447D01*
X0070022Y0049446D02*
X0066557Y0049446D01*
X0066557Y0049445D02*
X0070022Y0049445D01*
X0070022Y0049444D02*
X0066557Y0049444D01*
X0066557Y0049443D02*
X0070022Y0049443D01*
X0070022Y0049442D02*
X0066557Y0049442D01*
X0066557Y0049441D02*
X0070022Y0049441D01*
X0070022Y0049440D02*
X0066557Y0049440D01*
X0066557Y0049439D02*
X0070022Y0049439D01*
X0070022Y0049438D02*
X0066557Y0049438D01*
X0066557Y0049437D02*
X0070022Y0049437D01*
X0070022Y0049436D02*
X0066557Y0049436D01*
X0066557Y0049435D02*
X0070022Y0049435D01*
X0070022Y0049434D02*
X0066557Y0049434D01*
X0066557Y0049433D02*
X0070022Y0049433D01*
X0070022Y0049432D02*
X0066557Y0049432D01*
X0066557Y0049431D02*
X0070022Y0049431D01*
X0070022Y0049430D02*
X0066557Y0049430D01*
X0066557Y0049429D02*
X0070022Y0049429D01*
X0070022Y0049428D02*
X0066557Y0049428D01*
X0066557Y0049427D02*
X0070022Y0049427D01*
X0070022Y0049426D02*
X0066557Y0049426D01*
X0066557Y0049425D02*
X0070022Y0049425D01*
X0070022Y0049424D02*
X0066557Y0049424D01*
X0066557Y0049423D02*
X0070022Y0049423D01*
X0070022Y0049422D02*
X0066557Y0049422D01*
X0066557Y0049421D02*
X0070022Y0049421D01*
X0070022Y0049420D02*
X0066557Y0049420D01*
X0066557Y0049419D02*
X0070022Y0049419D01*
X0070022Y0049418D02*
X0066557Y0049418D01*
X0066557Y0049417D02*
X0070022Y0049417D01*
X0070022Y0049416D02*
X0066557Y0049416D01*
X0066557Y0049415D02*
X0070022Y0049415D01*
X0070022Y0049414D02*
X0066557Y0049414D01*
X0066557Y0049413D02*
X0070022Y0049413D01*
X0070022Y0049412D02*
X0066557Y0049412D01*
X0066557Y0049411D02*
X0070022Y0049411D01*
X0070022Y0049410D02*
X0066557Y0049410D01*
X0066557Y0049409D02*
X0070022Y0049409D01*
X0070022Y0049408D02*
X0066557Y0049408D01*
X0066557Y0049407D02*
X0070022Y0049407D01*
X0070022Y0049406D02*
X0066557Y0049406D01*
X0066557Y0049405D02*
X0070022Y0049405D01*
X0070022Y0049404D02*
X0066557Y0049404D01*
X0066557Y0049403D02*
X0070022Y0049403D01*
X0070022Y0049402D02*
X0066557Y0049402D01*
X0066557Y0049401D02*
X0070022Y0049401D01*
X0070022Y0049400D02*
X0066557Y0049400D01*
X0066557Y0049399D02*
X0070022Y0049399D01*
X0070022Y0049398D02*
X0066557Y0049398D01*
X0066557Y0049397D02*
X0070022Y0049397D01*
X0070022Y0049396D02*
X0066557Y0049396D01*
X0066557Y0049395D02*
X0070022Y0049395D01*
X0070022Y0049394D02*
X0066557Y0049394D01*
X0070022Y0049394D01*
X0070022Y0049393D02*
X0066557Y0049393D01*
X0066557Y0049392D02*
X0070022Y0049392D01*
X0070022Y0049391D02*
X0066557Y0049391D01*
X0066557Y0049390D02*
X0070022Y0049390D01*
X0070022Y0049389D02*
X0066557Y0049389D01*
X0066557Y0049388D02*
X0070022Y0049388D01*
X0070022Y0049387D02*
X0066557Y0049387D01*
X0066557Y0049386D02*
X0070022Y0049386D01*
X0070022Y0049385D02*
X0066557Y0049385D01*
X0066557Y0049384D02*
X0070022Y0049384D01*
X0070022Y0049383D02*
X0066557Y0049383D01*
X0066557Y0049382D02*
X0070022Y0049382D01*
X0070022Y0049381D02*
X0066557Y0049381D01*
X0066557Y0049380D02*
X0070022Y0049380D01*
X0070022Y0049379D02*
X0066557Y0049379D01*
X0066557Y0049378D02*
X0070022Y0049378D01*
X0070022Y0049377D02*
X0066557Y0049377D01*
X0066557Y0049376D02*
X0070022Y0049376D01*
X0070022Y0049375D02*
X0066557Y0049375D01*
X0066557Y0049374D02*
X0070022Y0049374D01*
X0070022Y0049373D02*
X0066557Y0049373D01*
X0066557Y0049372D02*
X0070022Y0049372D01*
X0070022Y0049371D02*
X0066557Y0049371D01*
X0066557Y0049370D02*
X0070022Y0049370D01*
X0070022Y0049369D02*
X0066557Y0049369D01*
X0066557Y0049368D02*
X0070022Y0049368D01*
X0070022Y0049367D02*
X0066557Y0049367D01*
X0066557Y0049366D02*
X0070022Y0049366D01*
X0070022Y0049365D02*
X0066557Y0049365D01*
X0066557Y0049364D02*
X0070022Y0049364D01*
X0070022Y0049363D02*
X0066557Y0049363D01*
X0066557Y0049362D02*
X0070022Y0049362D01*
X0070022Y0049361D02*
X0066557Y0049361D01*
X0066557Y0049360D02*
X0070022Y0049360D01*
X0070022Y0049359D02*
X0066557Y0049359D01*
X0066557Y0049358D02*
X0070022Y0049358D01*
X0070022Y0049357D02*
X0066557Y0049357D01*
X0066557Y0049356D02*
X0070022Y0049356D01*
X0070022Y0049355D02*
X0066557Y0049355D01*
X0066557Y0049354D02*
X0070022Y0049354D01*
X0070022Y0049353D02*
X0066557Y0049353D01*
X0066557Y0049352D02*
X0070022Y0049352D01*
X0070022Y0049351D02*
X0066557Y0049351D01*
X0066557Y0049350D02*
X0070022Y0049350D01*
X0070022Y0049349D02*
X0066557Y0049349D01*
X0066557Y0049348D02*
X0070022Y0049348D01*
X0070022Y0049347D02*
X0066557Y0049347D01*
X0066557Y0049346D02*
X0070022Y0049346D01*
X0070022Y0049345D02*
X0066557Y0049345D01*
X0066557Y0049344D02*
X0070022Y0049344D01*
X0070022Y0049343D02*
X0066557Y0049343D01*
X0066557Y0049342D02*
X0070022Y0049342D01*
X0070022Y0049341D02*
X0066557Y0049341D01*
X0066557Y0049340D02*
X0070022Y0049340D01*
X0070022Y0049339D02*
X0066557Y0049339D01*
X0066557Y0049338D02*
X0070022Y0049338D01*
X0070022Y0049337D02*
X0066557Y0049337D01*
X0066557Y0049336D02*
X0070022Y0049336D01*
X0070022Y0049335D02*
X0066557Y0049335D01*
X0066557Y0049334D02*
X0070022Y0049334D01*
X0070022Y0049333D02*
X0066557Y0049333D01*
X0066557Y0049332D02*
X0070022Y0049332D01*
X0070022Y0049331D02*
X0066557Y0049331D01*
X0070022Y0049331D01*
X0070022Y0049330D02*
X0066557Y0049330D01*
X0066557Y0049329D02*
X0070022Y0049329D01*
X0070022Y0049328D02*
X0066557Y0049328D01*
X0066557Y0049327D02*
X0070022Y0049327D01*
X0070022Y0049326D02*
X0066557Y0049326D01*
X0066557Y0049325D02*
X0070022Y0049325D01*
X0070022Y0049324D02*
X0066557Y0049324D01*
X0066557Y0049323D02*
X0070022Y0049323D01*
X0070022Y0049322D02*
X0066557Y0049322D01*
X0066557Y0049321D02*
X0070022Y0049321D01*
X0070022Y0049320D02*
X0066557Y0049320D01*
X0066557Y0049319D02*
X0070022Y0049319D01*
X0070022Y0049318D02*
X0066557Y0049318D01*
X0066557Y0049317D02*
X0070022Y0049317D01*
X0070022Y0049316D02*
X0066557Y0049316D01*
X0066557Y0049315D02*
X0070022Y0049315D01*
X0070022Y0049314D02*
X0066557Y0049314D01*
X0066557Y0049313D02*
X0070022Y0049313D01*
X0070022Y0049312D02*
X0066557Y0049312D01*
X0066557Y0049311D02*
X0070022Y0049311D01*
X0070022Y0049310D02*
X0066557Y0049310D01*
X0066557Y0049309D02*
X0070022Y0049309D01*
X0070022Y0049308D02*
X0066557Y0049308D01*
X0066557Y0049307D02*
X0070022Y0049307D01*
X0070022Y0049306D02*
X0066557Y0049306D01*
X0066557Y0049305D02*
X0070022Y0049305D01*
X0070022Y0049304D02*
X0066557Y0049304D01*
X0066557Y0049303D02*
X0070022Y0049303D01*
X0070022Y0049302D02*
X0066557Y0049302D01*
X0066557Y0049301D02*
X0070022Y0049301D01*
X0070022Y0049300D02*
X0066557Y0049300D01*
X0066557Y0049299D02*
X0070022Y0049299D01*
X0070022Y0049298D02*
X0066557Y0049298D01*
X0066557Y0049297D02*
X0070022Y0049297D01*
X0070022Y0049296D02*
X0066557Y0049296D01*
X0066557Y0049295D02*
X0070022Y0049295D01*
X0070022Y0049294D02*
X0066557Y0049294D01*
X0066557Y0049293D02*
X0070022Y0049293D01*
X0070022Y0049292D02*
X0066557Y0049292D01*
X0066557Y0049291D02*
X0070022Y0049291D01*
X0070022Y0049290D02*
X0066557Y0049290D01*
X0066557Y0049289D02*
X0070022Y0049289D01*
X0070022Y0049288D02*
X0066557Y0049288D01*
X0066557Y0049287D02*
X0070022Y0049287D01*
X0070022Y0049286D02*
X0066557Y0049286D01*
X0066557Y0049285D02*
X0070022Y0049285D01*
X0070022Y0049284D02*
X0066557Y0049284D01*
X0066557Y0049283D02*
X0070022Y0049283D01*
X0070022Y0049282D02*
X0066557Y0049282D01*
X0066557Y0049281D02*
X0070022Y0049281D01*
X0070022Y0049280D02*
X0066557Y0049280D01*
X0066557Y0049279D02*
X0070022Y0049279D01*
X0070022Y0049278D02*
X0066557Y0049278D01*
X0066557Y0049277D02*
X0070022Y0049277D01*
X0070022Y0049276D02*
X0066557Y0049276D01*
X0066557Y0049275D02*
X0070022Y0049275D01*
X0070022Y0049274D02*
X0066557Y0049274D01*
X0066557Y0049273D02*
X0070022Y0049273D01*
X0070022Y0049272D02*
X0066557Y0049272D01*
X0066557Y0049271D02*
X0070022Y0049271D01*
X0070022Y0049270D02*
X0066557Y0049270D01*
X0066557Y0049269D02*
X0070022Y0049269D01*
X0066557Y0049269D01*
X0066557Y0049268D02*
X0070022Y0049268D01*
X0070022Y0049267D02*
X0066557Y0049267D01*
X0066557Y0049266D02*
X0070022Y0049266D01*
X0070022Y0049265D02*
X0066557Y0049265D01*
X0066557Y0049264D02*
X0070022Y0049264D01*
X0070022Y0049263D02*
X0066557Y0049263D01*
X0066557Y0049262D02*
X0070022Y0049262D01*
X0070022Y0049261D02*
X0066557Y0049261D01*
X0066557Y0049260D02*
X0070022Y0049260D01*
X0070022Y0049259D02*
X0066557Y0049259D01*
X0066557Y0049258D02*
X0070022Y0049258D01*
X0070022Y0049257D02*
X0066557Y0049257D01*
X0066557Y0049256D02*
X0070022Y0049256D01*
X0070022Y0049255D02*
X0066557Y0049255D01*
X0066557Y0049254D02*
X0070022Y0049254D01*
X0070022Y0049253D02*
X0066557Y0049253D01*
X0066557Y0049252D02*
X0070022Y0049252D01*
X0070022Y0049251D02*
X0066557Y0049251D01*
X0066557Y0049250D02*
X0070022Y0049250D01*
X0070022Y0049249D02*
X0066557Y0049249D01*
X0066557Y0049248D02*
X0070022Y0049248D01*
X0070022Y0049247D02*
X0066557Y0049247D01*
X0066557Y0049246D02*
X0070022Y0049246D01*
X0070022Y0049245D02*
X0066557Y0049245D01*
X0066557Y0049244D02*
X0070022Y0049244D01*
X0070022Y0049243D02*
X0066557Y0049243D01*
X0066557Y0049242D02*
X0070022Y0049242D01*
X0070022Y0049241D02*
X0066557Y0049241D01*
X0066557Y0049240D02*
X0070022Y0049240D01*
X0070022Y0049239D02*
X0066557Y0049239D01*
X0066557Y0049238D02*
X0070022Y0049238D01*
X0070022Y0049237D02*
X0066557Y0049237D01*
X0066557Y0049236D02*
X0070022Y0049236D01*
X0070022Y0049235D02*
X0066557Y0049235D01*
X0066557Y0049234D02*
X0070022Y0049234D01*
X0070022Y0049233D02*
X0066557Y0049233D01*
X0066557Y0049232D02*
X0070022Y0049232D01*
X0070022Y0049231D02*
X0066557Y0049231D01*
X0066557Y0049230D02*
X0070022Y0049230D01*
X0070022Y0049229D02*
X0066557Y0049229D01*
X0066557Y0049228D02*
X0070022Y0049228D01*
X0070022Y0049227D02*
X0066557Y0049227D01*
X0066557Y0049226D02*
X0070022Y0049226D01*
X0070022Y0049225D02*
X0066557Y0049225D01*
X0066557Y0049224D02*
X0070022Y0049224D01*
X0070022Y0049223D02*
X0066557Y0049223D01*
X0066557Y0049222D02*
X0070022Y0049222D01*
X0070022Y0049221D02*
X0066557Y0049221D01*
X0066557Y0049220D02*
X0070022Y0049220D01*
X0070022Y0049219D02*
X0066557Y0049219D01*
X0066557Y0049218D02*
X0070022Y0049218D01*
X0070022Y0049217D02*
X0066557Y0049217D01*
X0066557Y0049216D02*
X0070022Y0049216D01*
X0070022Y0049215D02*
X0066557Y0049215D01*
X0066557Y0049214D02*
X0070022Y0049214D01*
X0070022Y0049213D02*
X0066557Y0049213D01*
X0066557Y0049212D02*
X0070022Y0049212D01*
X0070022Y0049211D02*
X0066557Y0049211D01*
X0066557Y0049210D02*
X0070022Y0049210D01*
X0070022Y0049209D02*
X0066557Y0049209D01*
X0066557Y0049208D02*
X0070022Y0049208D01*
X0070022Y0049207D02*
X0066557Y0049207D01*
X0066557Y0049206D02*
X0070022Y0049206D01*
X0066557Y0049206D01*
X0066557Y0049205D02*
X0070022Y0049205D01*
X0070022Y0049204D02*
X0066557Y0049204D01*
X0066557Y0049203D02*
X0070022Y0049203D01*
X0070022Y0049202D02*
X0066557Y0049202D01*
X0066557Y0049201D02*
X0070022Y0049201D01*
X0070022Y0049200D02*
X0066557Y0049200D01*
X0066557Y0049199D02*
X0070022Y0049199D01*
X0070022Y0049198D02*
X0066557Y0049198D01*
X0066557Y0049197D02*
X0070022Y0049197D01*
X0070022Y0049196D02*
X0066557Y0049196D01*
X0066557Y0049195D02*
X0070022Y0049195D01*
X0070022Y0049194D02*
X0066557Y0049194D01*
X0066557Y0049193D02*
X0070022Y0049193D01*
X0070022Y0049192D02*
X0066557Y0049192D01*
X0066557Y0049191D02*
X0070022Y0049191D01*
X0070022Y0049190D02*
X0066557Y0049190D01*
X0066557Y0049189D02*
X0070022Y0049189D01*
X0070022Y0049188D02*
X0066557Y0049188D01*
X0066557Y0049187D02*
X0070022Y0049187D01*
X0070022Y0049186D02*
X0066557Y0049186D01*
X0066557Y0049185D02*
X0070022Y0049185D01*
X0070022Y0049184D02*
X0066557Y0049184D01*
X0066557Y0049183D02*
X0070022Y0049183D01*
X0070022Y0049182D02*
X0066557Y0049182D01*
X0066557Y0049181D02*
X0070022Y0049181D01*
X0070022Y0049180D02*
X0066557Y0049180D01*
X0066557Y0049179D02*
X0070022Y0049179D01*
X0070022Y0049178D02*
X0066557Y0049178D01*
X0066557Y0049177D02*
X0070022Y0049177D01*
X0070022Y0049176D02*
X0066557Y0049176D01*
X0066557Y0049175D02*
X0070022Y0049175D01*
X0070022Y0049174D02*
X0066557Y0049174D01*
X0066557Y0049173D02*
X0070022Y0049173D01*
X0070022Y0049172D02*
X0066557Y0049172D01*
X0066557Y0049171D02*
X0070022Y0049171D01*
X0070022Y0049170D02*
X0066557Y0049170D01*
X0066557Y0049169D02*
X0070022Y0049169D01*
X0070022Y0049168D02*
X0066557Y0049168D01*
X0066557Y0049167D02*
X0070022Y0049167D01*
X0070022Y0049166D02*
X0066557Y0049166D01*
X0066557Y0049165D02*
X0070022Y0049165D01*
X0070022Y0049164D02*
X0066557Y0049164D01*
X0066557Y0049163D02*
X0070022Y0049163D01*
X0070022Y0049162D02*
X0066557Y0049162D01*
X0066557Y0049161D02*
X0070022Y0049161D01*
X0070022Y0049160D02*
X0066557Y0049160D01*
X0066557Y0049159D02*
X0070022Y0049159D01*
X0070022Y0049158D02*
X0066557Y0049158D01*
X0066557Y0049157D02*
X0070022Y0049157D01*
X0070022Y0049156D02*
X0066557Y0049156D01*
X0066557Y0049155D02*
X0070022Y0049155D01*
X0070022Y0049154D02*
X0066557Y0049154D01*
X0066557Y0049153D02*
X0070022Y0049153D01*
X0070022Y0049152D02*
X0066557Y0049152D01*
X0066557Y0049151D02*
X0070022Y0049151D01*
X0070022Y0049150D02*
X0066557Y0049150D01*
X0066557Y0049149D02*
X0070022Y0049149D01*
X0070022Y0049148D02*
X0066557Y0049148D01*
X0066557Y0049147D02*
X0070022Y0049147D01*
X0070022Y0049146D02*
X0066557Y0049146D01*
X0066557Y0049145D02*
X0070022Y0049145D01*
X0070022Y0049144D02*
X0066557Y0049144D01*
X0070022Y0049144D01*
X0070022Y0049143D02*
X0066557Y0049143D01*
X0066557Y0049142D02*
X0070022Y0049142D01*
X0070022Y0049141D02*
X0066557Y0049141D01*
X0066557Y0049140D02*
X0070022Y0049140D01*
X0070022Y0049139D02*
X0066557Y0049139D01*
X0066557Y0049138D02*
X0070022Y0049138D01*
X0070022Y0049137D02*
X0066557Y0049137D01*
X0066557Y0049136D02*
X0070022Y0049136D01*
X0070022Y0049135D02*
X0066557Y0049135D01*
X0066557Y0049134D02*
X0070022Y0049134D01*
X0070022Y0049133D02*
X0066557Y0049133D01*
X0066557Y0049132D02*
X0070022Y0049132D01*
X0070022Y0049131D02*
X0066557Y0049131D01*
X0066557Y0049130D02*
X0070022Y0049130D01*
X0070022Y0049129D02*
X0066557Y0049129D01*
X0066557Y0049128D02*
X0070022Y0049128D01*
X0070022Y0049127D02*
X0066557Y0049127D01*
X0066557Y0049126D02*
X0070022Y0049126D01*
X0070022Y0049125D02*
X0066557Y0049125D01*
X0066557Y0049124D02*
X0070022Y0049124D01*
X0070022Y0049123D02*
X0066557Y0049123D01*
X0066557Y0049122D02*
X0070022Y0049122D01*
X0070022Y0049121D02*
X0066557Y0049121D01*
X0066557Y0049120D02*
X0070022Y0049120D01*
X0070022Y0049119D02*
X0066557Y0049119D01*
X0066557Y0049118D02*
X0070022Y0049118D01*
X0070022Y0049117D02*
X0066557Y0049117D01*
X0066557Y0049116D02*
X0070022Y0049116D01*
X0070022Y0049115D02*
X0066557Y0049115D01*
X0066557Y0049114D02*
X0070022Y0049114D01*
X0070022Y0049113D02*
X0066557Y0049113D01*
X0066557Y0049112D02*
X0070022Y0049112D01*
X0070022Y0049111D02*
X0066557Y0049111D01*
X0066557Y0049110D02*
X0070022Y0049110D01*
X0070022Y0049109D02*
X0066557Y0049109D01*
X0066557Y0049108D02*
X0070022Y0049108D01*
X0070022Y0049107D02*
X0066557Y0049107D01*
X0066557Y0049106D02*
X0070022Y0049106D01*
X0070022Y0049105D02*
X0066557Y0049105D01*
X0066557Y0049104D02*
X0070022Y0049104D01*
X0070022Y0049103D02*
X0066557Y0049103D01*
X0066557Y0049102D02*
X0070022Y0049102D01*
X0070022Y0049101D02*
X0066557Y0049101D01*
X0066557Y0049100D02*
X0070022Y0049100D01*
X0070022Y0049099D02*
X0066557Y0049099D01*
X0066557Y0049098D02*
X0070022Y0049098D01*
X0070022Y0049097D02*
X0066557Y0049097D01*
X0066557Y0049096D02*
X0070022Y0049096D01*
X0070022Y0049095D02*
X0066557Y0049095D01*
X0066557Y0049094D02*
X0070022Y0049094D01*
X0070022Y0049093D02*
X0066557Y0049093D01*
X0066557Y0049092D02*
X0070022Y0049092D01*
X0070022Y0049091D02*
X0066557Y0049091D01*
X0066557Y0049090D02*
X0070022Y0049090D01*
X0070022Y0049089D02*
X0066557Y0049089D01*
X0066557Y0049088D02*
X0070022Y0049088D01*
X0070022Y0049087D02*
X0066557Y0049087D01*
X0066557Y0049086D02*
X0070022Y0049086D01*
X0070022Y0049085D02*
X0066557Y0049085D01*
X0066557Y0049084D02*
X0070022Y0049084D01*
X0070022Y0049083D02*
X0066557Y0049083D01*
X0066557Y0049082D02*
X0070022Y0049082D01*
X0070022Y0049081D02*
X0066557Y0049081D01*
X0070022Y0049081D01*
X0070022Y0049080D02*
X0066557Y0049080D01*
X0066557Y0049079D02*
X0070022Y0049079D01*
X0070022Y0049078D02*
X0066557Y0049078D01*
X0066557Y0049077D02*
X0070022Y0049077D01*
X0070022Y0049076D02*
X0066557Y0049076D01*
X0066557Y0049075D02*
X0070022Y0049075D01*
X0070022Y0049074D02*
X0066557Y0049074D01*
X0066557Y0049073D02*
X0070022Y0049073D01*
X0070022Y0049072D02*
X0066557Y0049072D01*
X0066557Y0049071D02*
X0070022Y0049071D01*
X0070022Y0049070D02*
X0066557Y0049070D01*
X0066557Y0049069D02*
X0070022Y0049069D01*
X0070022Y0049068D02*
X0066557Y0049068D01*
X0066557Y0049067D02*
X0070022Y0049067D01*
X0070022Y0049066D02*
X0066557Y0049066D01*
X0066557Y0049065D02*
X0070022Y0049065D01*
X0070022Y0049064D02*
X0066557Y0049064D01*
X0066557Y0049063D02*
X0070022Y0049063D01*
X0070022Y0049062D02*
X0066557Y0049062D01*
X0066557Y0049061D02*
X0070022Y0049061D01*
X0070022Y0049060D02*
X0066557Y0049060D01*
X0066557Y0049059D02*
X0070022Y0049059D01*
X0070022Y0049058D02*
X0066557Y0049058D01*
X0066557Y0049057D02*
X0070022Y0049057D01*
X0070022Y0049056D02*
X0066557Y0049056D01*
X0066557Y0049055D02*
X0070022Y0049055D01*
X0070022Y0049054D02*
X0066557Y0049054D01*
X0066557Y0049053D02*
X0070022Y0049053D01*
X0070022Y0049052D02*
X0066557Y0049052D01*
X0066557Y0049051D02*
X0070022Y0049051D01*
X0070022Y0049050D02*
X0066557Y0049050D01*
X0066557Y0049049D02*
X0070022Y0049049D01*
X0070022Y0049048D02*
X0066557Y0049048D01*
X0066557Y0049047D02*
X0070022Y0049047D01*
X0070022Y0049046D02*
X0066557Y0049046D01*
X0066557Y0049045D02*
X0070022Y0049045D01*
X0070022Y0049044D02*
X0066557Y0049044D01*
X0066557Y0049043D02*
X0068683Y0049043D01*
X0068683Y0049042D02*
X0066557Y0049042D01*
X0066557Y0049041D02*
X0068683Y0049041D01*
X0068683Y0049040D02*
X0066557Y0049040D01*
X0066557Y0049039D02*
X0068683Y0049039D01*
X0068683Y0049038D02*
X0066557Y0049038D01*
X0066557Y0049037D02*
X0068683Y0049037D01*
X0068683Y0049036D02*
X0066557Y0049036D01*
X0066557Y0049035D02*
X0068683Y0049035D01*
X0068683Y0049034D02*
X0066557Y0049034D01*
X0066557Y0049033D02*
X0068683Y0049033D01*
X0068683Y0049032D02*
X0066557Y0049032D01*
X0066557Y0049031D02*
X0068683Y0049031D01*
X0068683Y0049030D02*
X0066557Y0049030D01*
X0066557Y0049029D02*
X0068683Y0049029D01*
X0068683Y0049028D02*
X0066557Y0049028D01*
X0066557Y0049027D02*
X0068683Y0049027D01*
X0068683Y0049026D02*
X0066557Y0049026D01*
X0066557Y0049025D02*
X0068683Y0049025D01*
X0068683Y0049024D02*
X0066557Y0049024D01*
X0066557Y0049023D02*
X0068683Y0049023D01*
X0068683Y0049022D02*
X0066557Y0049022D01*
X0066557Y0049021D02*
X0068683Y0049021D01*
X0068683Y0049020D02*
X0066557Y0049020D01*
X0066557Y0049019D02*
X0068683Y0049019D01*
X0066557Y0049019D01*
X0066557Y0049018D02*
X0068683Y0049018D01*
X0068683Y0049017D02*
X0066557Y0049017D01*
X0066557Y0049016D02*
X0068683Y0049016D01*
X0068683Y0049015D02*
X0066557Y0049015D01*
X0066557Y0049014D02*
X0068683Y0049014D01*
X0068683Y0049013D02*
X0066557Y0049013D01*
X0066557Y0049012D02*
X0068683Y0049012D01*
X0068683Y0049011D02*
X0066557Y0049011D01*
X0066557Y0049010D02*
X0068683Y0049010D01*
X0068683Y0049009D02*
X0066557Y0049009D01*
X0066557Y0049008D02*
X0068683Y0049008D01*
X0068683Y0049007D02*
X0066557Y0049007D01*
X0066557Y0049006D02*
X0068683Y0049006D01*
X0068683Y0049005D02*
X0066557Y0049005D01*
X0066557Y0049004D02*
X0068683Y0049004D01*
X0068683Y0049003D02*
X0066557Y0049003D01*
X0066557Y0049002D02*
X0068683Y0049002D01*
X0068683Y0049001D02*
X0066557Y0049001D01*
X0066557Y0049000D02*
X0068683Y0049000D01*
X0068683Y0048999D02*
X0066557Y0048999D01*
X0066557Y0048998D02*
X0068683Y0048998D01*
X0068683Y0048997D02*
X0066557Y0048997D01*
X0066557Y0048996D02*
X0068683Y0048996D01*
X0068683Y0048995D02*
X0066557Y0048995D01*
X0066557Y0048994D02*
X0068683Y0048994D01*
X0068683Y0048993D02*
X0066557Y0048993D01*
X0066557Y0048992D02*
X0068683Y0048992D01*
X0068683Y0048991D02*
X0066557Y0048991D01*
X0066557Y0048990D02*
X0068683Y0048990D01*
X0068683Y0048989D02*
X0066557Y0048989D01*
X0066557Y0048988D02*
X0068683Y0048988D01*
X0068683Y0048987D02*
X0066557Y0048987D01*
X0066557Y0048986D02*
X0068683Y0048986D01*
X0068683Y0048985D02*
X0066557Y0048985D01*
X0066557Y0048984D02*
X0068683Y0048984D01*
X0068683Y0048983D02*
X0066557Y0048983D01*
X0066557Y0048982D02*
X0068683Y0048982D01*
X0068683Y0048981D02*
X0066557Y0048981D01*
X0066557Y0048980D02*
X0068683Y0048980D01*
X0068683Y0048979D02*
X0066557Y0048979D01*
X0066557Y0048978D02*
X0068683Y0048978D01*
X0068683Y0048977D02*
X0066557Y0048977D01*
X0066557Y0048976D02*
X0068683Y0048976D01*
X0068683Y0048975D02*
X0066557Y0048975D01*
X0066557Y0048974D02*
X0068683Y0048974D01*
X0068683Y0048973D02*
X0066557Y0048973D01*
X0066557Y0048972D02*
X0068683Y0048972D01*
X0068683Y0048971D02*
X0066557Y0048971D01*
X0066557Y0048970D02*
X0068683Y0048970D01*
X0068683Y0048969D02*
X0066557Y0048969D01*
X0066557Y0048968D02*
X0068683Y0048968D01*
X0068683Y0048967D02*
X0066557Y0048967D01*
X0066557Y0048966D02*
X0068683Y0048966D01*
X0068683Y0048965D02*
X0066557Y0048965D01*
X0066557Y0048964D02*
X0068683Y0048964D01*
X0068683Y0048963D02*
X0066557Y0048963D01*
X0066557Y0048962D02*
X0068683Y0048962D01*
X0068683Y0048961D02*
X0066557Y0048961D01*
X0066557Y0048960D02*
X0068683Y0048960D01*
X0068683Y0048959D02*
X0066557Y0048959D01*
X0066557Y0048958D02*
X0068683Y0048958D01*
X0068683Y0048957D02*
X0066557Y0048957D01*
X0066557Y0048956D02*
X0068683Y0048956D01*
X0066557Y0048956D01*
X0066557Y0048955D02*
X0068683Y0048955D01*
X0068683Y0048954D02*
X0066557Y0048954D01*
X0066557Y0048953D02*
X0068683Y0048953D01*
X0068683Y0048952D02*
X0066557Y0048952D01*
X0066557Y0048951D02*
X0068683Y0048951D01*
X0068683Y0048950D02*
X0066557Y0048950D01*
X0066557Y0048949D02*
X0068683Y0048949D01*
X0068683Y0048948D02*
X0066557Y0048948D01*
X0066557Y0048947D02*
X0068683Y0048947D01*
X0068683Y0048946D02*
X0066557Y0048946D01*
X0066557Y0048945D02*
X0068683Y0048945D01*
X0068683Y0048944D02*
X0066557Y0048944D01*
X0066557Y0048943D02*
X0068683Y0048943D01*
X0068683Y0048942D02*
X0066557Y0048942D01*
X0066557Y0048941D02*
X0068683Y0048941D01*
X0068683Y0048940D02*
X0066557Y0048940D01*
X0066557Y0048939D02*
X0068683Y0048939D01*
X0068683Y0048938D02*
X0066557Y0048938D01*
X0066557Y0048937D02*
X0068683Y0048937D01*
X0068683Y0048936D02*
X0066557Y0048936D01*
X0066557Y0048935D02*
X0068683Y0048935D01*
X0068683Y0048934D02*
X0066557Y0048934D01*
X0066557Y0048933D02*
X0068683Y0048933D01*
X0068683Y0048932D02*
X0066557Y0048932D01*
X0066557Y0048931D02*
X0068683Y0048931D01*
X0068683Y0048930D02*
X0066557Y0048930D01*
X0066557Y0048929D02*
X0068683Y0048929D01*
X0068683Y0048928D02*
X0066557Y0048928D01*
X0066557Y0048927D02*
X0068683Y0048927D01*
X0068683Y0048926D02*
X0066557Y0048926D01*
X0066557Y0048925D02*
X0068683Y0048925D01*
X0068683Y0048924D02*
X0066557Y0048924D01*
X0066557Y0048923D02*
X0068683Y0048923D01*
X0068683Y0048922D02*
X0066557Y0048922D01*
X0066557Y0048921D02*
X0068683Y0048921D01*
X0068683Y0048920D02*
X0066557Y0048920D01*
X0066557Y0048919D02*
X0068683Y0048919D01*
X0068683Y0048918D02*
X0066557Y0048918D01*
X0066557Y0048917D02*
X0068683Y0048917D01*
X0068683Y0048916D02*
X0066557Y0048916D01*
X0066557Y0048915D02*
X0068683Y0048915D01*
X0068683Y0048914D02*
X0066557Y0048914D01*
X0066557Y0048913D02*
X0068683Y0048913D01*
X0068683Y0048912D02*
X0066557Y0048912D01*
X0066557Y0048911D02*
X0068683Y0048911D01*
X0068683Y0048910D02*
X0066557Y0048910D01*
X0066557Y0048909D02*
X0068683Y0048909D01*
X0068683Y0048908D02*
X0066557Y0048908D01*
X0066557Y0048907D02*
X0068683Y0048907D01*
X0068683Y0048906D02*
X0066557Y0048906D01*
X0066557Y0048905D02*
X0068683Y0048905D01*
X0068683Y0048904D02*
X0066557Y0048904D01*
X0066557Y0048903D02*
X0068683Y0048903D01*
X0068683Y0048902D02*
X0066557Y0048902D01*
X0066557Y0048901D02*
X0068683Y0048901D01*
X0068683Y0048900D02*
X0066557Y0048900D01*
X0066557Y0048899D02*
X0068683Y0048899D01*
X0068683Y0048898D02*
X0066557Y0048898D01*
X0066557Y0048897D02*
X0068683Y0048897D01*
X0068683Y0048896D02*
X0066557Y0048896D01*
X0066557Y0048895D02*
X0068683Y0048895D01*
X0068683Y0048894D02*
X0066557Y0048894D01*
X0068683Y0048894D01*
X0068683Y0048893D02*
X0066557Y0048893D01*
X0066557Y0048892D02*
X0068683Y0048892D01*
X0068683Y0048891D02*
X0066557Y0048891D01*
X0066557Y0048890D02*
X0068683Y0048890D01*
X0068683Y0048889D02*
X0066557Y0048889D01*
X0066557Y0048888D02*
X0068683Y0048888D01*
X0068683Y0048887D02*
X0066557Y0048887D01*
X0066557Y0048886D02*
X0068683Y0048886D01*
X0068683Y0048885D02*
X0066557Y0048885D01*
X0066557Y0048884D02*
X0068683Y0048884D01*
X0068683Y0048883D02*
X0066557Y0048883D01*
X0066557Y0048882D02*
X0068683Y0048882D01*
X0068683Y0048881D02*
X0066557Y0048881D01*
X0066557Y0048880D02*
X0068683Y0048880D01*
X0068683Y0048879D02*
X0066557Y0048879D01*
X0066557Y0048878D02*
X0068683Y0048878D01*
X0068683Y0048877D02*
X0066557Y0048877D01*
X0066557Y0048876D02*
X0068683Y0048876D01*
X0068683Y0048875D02*
X0066557Y0048875D01*
X0066557Y0048874D02*
X0068683Y0048874D01*
X0068683Y0048873D02*
X0066557Y0048873D01*
X0066557Y0048872D02*
X0068683Y0048872D01*
X0068683Y0048871D02*
X0066557Y0048871D01*
X0066557Y0048870D02*
X0068683Y0048870D01*
X0068683Y0048869D02*
X0066557Y0048869D01*
X0066557Y0048868D02*
X0068683Y0048868D01*
X0068683Y0048867D02*
X0066557Y0048867D01*
X0066557Y0048866D02*
X0068683Y0048866D01*
X0068683Y0048865D02*
X0066557Y0048865D01*
X0066557Y0048864D02*
X0068683Y0048864D01*
X0068683Y0048863D02*
X0066557Y0048863D01*
X0066557Y0048862D02*
X0068683Y0048862D01*
X0068683Y0048861D02*
X0066557Y0048861D01*
X0066557Y0048860D02*
X0068683Y0048860D01*
X0068683Y0048859D02*
X0066557Y0048859D01*
X0066557Y0048858D02*
X0068683Y0048858D01*
X0068683Y0048857D02*
X0066557Y0048857D01*
X0066557Y0048856D02*
X0068683Y0048856D01*
X0068683Y0048855D02*
X0066557Y0048855D01*
X0066557Y0048854D02*
X0068683Y0048854D01*
X0068683Y0048853D02*
X0066557Y0048853D01*
X0066557Y0048852D02*
X0068683Y0048852D01*
X0068683Y0048851D02*
X0066557Y0048851D01*
X0066557Y0048850D02*
X0068683Y0048850D01*
X0068683Y0048849D02*
X0066557Y0048849D01*
X0066557Y0048848D02*
X0068683Y0048848D01*
X0068683Y0048847D02*
X0066557Y0048847D01*
X0066557Y0048846D02*
X0068683Y0048846D01*
X0068683Y0048845D02*
X0066557Y0048845D01*
X0066557Y0048844D02*
X0068683Y0048844D01*
X0068683Y0048843D02*
X0066557Y0048843D01*
X0066557Y0048842D02*
X0068683Y0048842D01*
X0068683Y0048841D02*
X0066557Y0048841D01*
X0066557Y0048840D02*
X0068683Y0048840D01*
X0068683Y0048839D02*
X0066557Y0048839D01*
X0066557Y0048838D02*
X0068683Y0048838D01*
X0068683Y0048837D02*
X0066557Y0048837D01*
X0066557Y0048836D02*
X0068683Y0048836D01*
X0068683Y0048835D02*
X0066557Y0048835D01*
X0066557Y0048834D02*
X0068683Y0048834D01*
X0068683Y0048833D02*
X0066557Y0048833D01*
X0066557Y0048832D02*
X0068683Y0048832D01*
X0068683Y0048831D02*
X0066557Y0048831D01*
X0068683Y0048831D01*
X0068683Y0048830D02*
X0066557Y0048830D01*
X0066557Y0048829D02*
X0068683Y0048829D01*
X0068683Y0048828D02*
X0066557Y0048828D01*
X0066557Y0048827D02*
X0068683Y0048827D01*
X0068683Y0048826D02*
X0066557Y0048826D01*
X0066557Y0048825D02*
X0068683Y0048825D01*
X0068683Y0048824D02*
X0066557Y0048824D01*
X0066557Y0048823D02*
X0068683Y0048823D01*
X0068683Y0048822D02*
X0066557Y0048822D01*
X0066557Y0048821D02*
X0068683Y0048821D01*
X0068683Y0048820D02*
X0066557Y0048820D01*
X0066557Y0048819D02*
X0068683Y0048819D01*
X0068683Y0048818D02*
X0066557Y0048818D01*
X0066557Y0048817D02*
X0068683Y0048817D01*
X0068683Y0048816D02*
X0066557Y0048816D01*
X0066557Y0048815D02*
X0068683Y0048815D01*
X0068683Y0048814D02*
X0066557Y0048814D01*
X0066557Y0048813D02*
X0068683Y0048813D01*
X0068683Y0048812D02*
X0066557Y0048812D01*
X0066557Y0048811D02*
X0068683Y0048811D01*
X0068683Y0048810D02*
X0066557Y0048810D01*
X0066557Y0048809D02*
X0068683Y0048809D01*
X0068683Y0048808D02*
X0066557Y0048808D01*
X0066557Y0048807D02*
X0068683Y0048807D01*
X0068683Y0048806D02*
X0066557Y0048806D01*
X0066557Y0048805D02*
X0068683Y0048805D01*
X0068683Y0048804D02*
X0066557Y0048804D01*
X0066557Y0048803D02*
X0068683Y0048803D01*
X0068683Y0048802D02*
X0066557Y0048802D01*
X0066557Y0048801D02*
X0068683Y0048801D01*
X0068683Y0048800D02*
X0066557Y0048800D01*
X0066557Y0048799D02*
X0068683Y0048799D01*
X0068683Y0048798D02*
X0066557Y0048798D01*
X0066557Y0048797D02*
X0068683Y0048797D01*
X0068683Y0048796D02*
X0066557Y0048796D01*
X0066557Y0048795D02*
X0068683Y0048795D01*
X0068683Y0048794D02*
X0066557Y0048794D01*
X0066557Y0048793D02*
X0068683Y0048793D01*
X0068683Y0048792D02*
X0066557Y0048792D01*
X0066557Y0048791D02*
X0068683Y0048791D01*
X0068683Y0048790D02*
X0066557Y0048790D01*
X0066557Y0048789D02*
X0068683Y0048789D01*
X0068683Y0048788D02*
X0066557Y0048788D01*
X0066557Y0048787D02*
X0068683Y0048787D01*
X0068683Y0048786D02*
X0066557Y0048786D01*
X0066557Y0048785D02*
X0068683Y0048785D01*
X0068683Y0048784D02*
X0066557Y0048784D01*
X0066557Y0048783D02*
X0068683Y0048783D01*
X0068683Y0048782D02*
X0066557Y0048782D01*
X0066557Y0048781D02*
X0068683Y0048781D01*
X0068683Y0048780D02*
X0066557Y0048780D01*
X0066557Y0048779D02*
X0068683Y0048779D01*
X0068683Y0048778D02*
X0066557Y0048778D01*
X0066557Y0048777D02*
X0068683Y0048777D01*
X0068683Y0048776D02*
X0066557Y0048776D01*
X0066557Y0048775D02*
X0068683Y0048775D01*
X0068683Y0048774D02*
X0066557Y0048774D01*
X0066557Y0048773D02*
X0068683Y0048773D01*
X0068683Y0048772D02*
X0066557Y0048772D01*
X0066557Y0048771D02*
X0068683Y0048771D01*
X0068683Y0048770D02*
X0066557Y0048770D01*
X0066557Y0048769D02*
X0068683Y0048769D01*
X0066557Y0048769D01*
X0066557Y0048768D02*
X0068683Y0048768D01*
X0068683Y0048767D02*
X0066557Y0048767D01*
X0066557Y0048766D02*
X0068683Y0048766D01*
X0068683Y0048765D02*
X0066557Y0048765D01*
X0066557Y0048764D02*
X0068683Y0048764D01*
X0068683Y0048763D02*
X0066557Y0048763D01*
X0066557Y0048762D02*
X0068683Y0048762D01*
X0068683Y0048761D02*
X0066557Y0048761D01*
X0066557Y0048760D02*
X0068683Y0048760D01*
X0068683Y0048759D02*
X0066557Y0048759D01*
X0066557Y0048758D02*
X0068683Y0048758D01*
X0068683Y0048757D02*
X0066557Y0048757D01*
X0066557Y0048756D02*
X0068683Y0048756D01*
X0068683Y0048755D02*
X0066557Y0048755D01*
X0066557Y0048754D02*
X0068683Y0048754D01*
X0068683Y0048753D02*
X0066557Y0048753D01*
X0066557Y0048752D02*
X0068683Y0048752D01*
X0068683Y0048751D02*
X0066557Y0048751D01*
X0066557Y0048750D02*
X0068683Y0048750D01*
X0068683Y0048749D02*
X0066557Y0048749D01*
X0066557Y0048748D02*
X0068683Y0048748D01*
X0068683Y0048747D02*
X0066557Y0048747D01*
X0066557Y0048746D02*
X0068683Y0048746D01*
X0068683Y0048745D02*
X0066557Y0048745D01*
X0066557Y0048744D02*
X0068683Y0048744D01*
X0068683Y0048743D02*
X0066557Y0048743D01*
X0066557Y0048742D02*
X0068683Y0048742D01*
X0068683Y0048741D02*
X0066557Y0048741D01*
X0066557Y0048740D02*
X0068683Y0048740D01*
X0068683Y0048739D02*
X0066557Y0048739D01*
X0066557Y0048738D02*
X0068683Y0048738D01*
X0068683Y0048737D02*
X0066557Y0048737D01*
X0066557Y0048736D02*
X0068683Y0048736D01*
X0068683Y0048735D02*
X0066557Y0048735D01*
X0066557Y0048734D02*
X0068683Y0048734D01*
X0068683Y0048733D02*
X0066557Y0048733D01*
X0066557Y0048732D02*
X0068683Y0048732D01*
X0068683Y0048731D02*
X0066557Y0048731D01*
X0066557Y0048730D02*
X0068683Y0048730D01*
X0068683Y0048729D02*
X0066557Y0048729D01*
X0066557Y0048728D02*
X0068683Y0048728D01*
X0068683Y0048727D02*
X0066557Y0048727D01*
X0066557Y0048726D02*
X0068683Y0048726D01*
X0068683Y0048725D02*
X0066557Y0048725D01*
X0066557Y0048724D02*
X0068683Y0048724D01*
X0068683Y0048723D02*
X0066557Y0048723D01*
X0066557Y0048722D02*
X0068683Y0048722D01*
X0068683Y0048721D02*
X0066557Y0048721D01*
X0066557Y0048720D02*
X0068683Y0048720D01*
X0068683Y0048719D02*
X0066557Y0048719D01*
X0066557Y0048718D02*
X0068683Y0048718D01*
X0068683Y0048717D02*
X0066557Y0048717D01*
X0066557Y0048716D02*
X0068683Y0048716D01*
X0068683Y0048715D02*
X0066557Y0048715D01*
X0066557Y0048714D02*
X0068683Y0048714D01*
X0068683Y0048713D02*
X0066557Y0048713D01*
X0066557Y0048712D02*
X0068683Y0048712D01*
X0068683Y0048711D02*
X0066557Y0048711D01*
X0066557Y0048710D02*
X0068683Y0048710D01*
X0068683Y0048709D02*
X0066557Y0048709D01*
X0066557Y0048708D02*
X0068683Y0048708D01*
X0068683Y0048707D02*
X0066557Y0048707D01*
X0066557Y0048706D02*
X0068683Y0048706D01*
X0066557Y0048706D01*
X0066557Y0048705D02*
X0068683Y0048705D01*
X0068683Y0048704D02*
X0066557Y0048704D01*
X0066557Y0048703D02*
X0068683Y0048703D01*
X0068683Y0048702D02*
X0066557Y0048702D01*
X0066557Y0048701D02*
X0068683Y0048701D01*
X0068683Y0048700D02*
X0066557Y0048700D01*
X0066557Y0048699D02*
X0068683Y0048699D01*
X0068683Y0048698D02*
X0066557Y0048698D01*
X0066557Y0048697D02*
X0068683Y0048697D01*
X0068683Y0048696D02*
X0066557Y0048696D01*
X0066557Y0048695D02*
X0068683Y0048695D01*
X0068683Y0048694D02*
X0066557Y0048694D01*
X0066557Y0048693D02*
X0068683Y0048693D01*
X0068683Y0048692D02*
X0066557Y0048692D01*
X0066557Y0048691D02*
X0068683Y0048691D01*
X0068683Y0048690D02*
X0066557Y0048690D01*
X0066557Y0048689D02*
X0068683Y0048689D01*
X0068683Y0048688D02*
X0066557Y0048688D01*
X0066557Y0048687D02*
X0068683Y0048687D01*
X0068683Y0048686D02*
X0066557Y0048686D01*
X0066557Y0048685D02*
X0068683Y0048685D01*
X0068683Y0048684D02*
X0066557Y0048684D01*
X0066557Y0048683D02*
X0068683Y0048683D01*
X0068683Y0048682D02*
X0066557Y0048682D01*
X0066557Y0048681D02*
X0068683Y0048681D01*
X0068683Y0048680D02*
X0066557Y0048680D01*
X0066557Y0048679D02*
X0068683Y0048679D01*
X0068683Y0048678D02*
X0066557Y0048678D01*
X0066557Y0048677D02*
X0068683Y0048677D01*
X0068683Y0048676D02*
X0066557Y0048676D01*
X0066557Y0048675D02*
X0068683Y0048675D01*
X0068683Y0048674D02*
X0066557Y0048674D01*
X0066557Y0048673D02*
X0068683Y0048673D01*
X0068683Y0048672D02*
X0066557Y0048672D01*
X0066557Y0048671D02*
X0068683Y0048671D01*
X0068683Y0048670D02*
X0066557Y0048670D01*
X0066557Y0048669D02*
X0068683Y0048669D01*
X0068683Y0048668D02*
X0066557Y0048668D01*
X0066557Y0048667D02*
X0068683Y0048667D01*
X0068683Y0048666D02*
X0066557Y0048666D01*
X0066557Y0048665D02*
X0068683Y0048665D01*
X0068683Y0048664D02*
X0066557Y0048664D01*
X0066557Y0048663D02*
X0068683Y0048663D01*
X0068683Y0048662D02*
X0066557Y0048662D01*
X0066557Y0048661D02*
X0068683Y0048661D01*
X0068683Y0048660D02*
X0066557Y0048660D01*
X0066557Y0048659D02*
X0068683Y0048659D01*
X0068683Y0048658D02*
X0066557Y0048658D01*
X0066557Y0048657D02*
X0068683Y0048657D01*
X0068683Y0048656D02*
X0066557Y0048656D01*
X0066557Y0048655D02*
X0068683Y0048655D01*
X0068683Y0048654D02*
X0066557Y0048654D01*
X0066557Y0048653D02*
X0068683Y0048653D01*
X0068683Y0048652D02*
X0066557Y0048652D01*
X0066557Y0048651D02*
X0068683Y0048651D01*
X0068683Y0048650D02*
X0066557Y0048650D01*
X0066557Y0048649D02*
X0068683Y0048649D01*
X0068683Y0048648D02*
X0066557Y0048648D01*
X0066557Y0048647D02*
X0068683Y0048647D01*
X0068683Y0048646D02*
X0066557Y0048646D01*
X0066557Y0048645D02*
X0068683Y0048645D01*
X0068683Y0048644D02*
X0066557Y0048644D01*
X0068683Y0048644D01*
X0068683Y0048643D02*
X0066557Y0048643D01*
X0066557Y0048642D02*
X0068683Y0048642D01*
X0068683Y0048641D02*
X0066557Y0048641D01*
X0066557Y0048640D02*
X0068683Y0048640D01*
X0068683Y0048639D02*
X0066557Y0048639D01*
X0066557Y0048638D02*
X0068683Y0048638D01*
X0068683Y0048637D02*
X0066557Y0048637D01*
X0066557Y0048636D02*
X0068683Y0048636D01*
X0068683Y0048635D02*
X0066557Y0048635D01*
X0066557Y0048634D02*
X0068683Y0048634D01*
X0068683Y0048633D02*
X0066557Y0048633D01*
X0066557Y0048632D02*
X0068683Y0048632D01*
X0068683Y0048631D02*
X0066557Y0048631D01*
X0066557Y0048630D02*
X0068683Y0048630D01*
X0068683Y0048629D02*
X0066557Y0048629D01*
X0066557Y0048628D02*
X0068683Y0048628D01*
X0068683Y0048627D02*
X0066557Y0048627D01*
X0066557Y0048626D02*
X0068683Y0048626D01*
X0068683Y0048625D02*
X0066557Y0048625D01*
X0066557Y0048624D02*
X0068683Y0048624D01*
X0068683Y0048623D02*
X0066557Y0048623D01*
X0066557Y0048622D02*
X0068683Y0048622D01*
X0068683Y0048621D02*
X0066557Y0048621D01*
X0066557Y0048620D02*
X0068683Y0048620D01*
X0068683Y0048619D02*
X0066557Y0048619D01*
X0066557Y0048618D02*
X0068683Y0048618D01*
X0068683Y0048617D02*
X0066557Y0048617D01*
X0066557Y0048616D02*
X0068683Y0048616D01*
X0068683Y0048615D02*
X0066557Y0048615D01*
X0066557Y0048614D02*
X0068683Y0048614D01*
X0068683Y0048613D02*
X0066557Y0048613D01*
X0066557Y0048612D02*
X0068683Y0048612D01*
X0068683Y0048611D02*
X0066557Y0048611D01*
X0066557Y0048610D02*
X0068683Y0048610D01*
X0068683Y0048609D02*
X0066557Y0048609D01*
X0066557Y0048608D02*
X0068683Y0048608D01*
X0068683Y0048607D02*
X0066557Y0048607D01*
X0066557Y0048606D02*
X0068683Y0048606D01*
X0068683Y0048605D02*
X0066557Y0048605D01*
X0066557Y0048604D02*
X0068683Y0048604D01*
X0068683Y0048603D02*
X0066557Y0048603D01*
X0066557Y0048602D02*
X0068683Y0048602D01*
X0068683Y0048601D02*
X0066557Y0048601D01*
X0066557Y0048600D02*
X0068683Y0048600D01*
X0068683Y0048599D02*
X0066557Y0048599D01*
X0066557Y0048598D02*
X0068683Y0048598D01*
X0068683Y0048597D02*
X0066557Y0048597D01*
X0066557Y0048596D02*
X0068683Y0048596D01*
X0068683Y0048595D02*
X0066557Y0048595D01*
X0066557Y0048594D02*
X0068683Y0048594D01*
X0068683Y0048593D02*
X0066557Y0048593D01*
X0066557Y0048592D02*
X0068683Y0048592D01*
X0068683Y0048591D02*
X0066557Y0048591D01*
X0066557Y0048590D02*
X0068683Y0048590D01*
X0068683Y0048589D02*
X0066557Y0048589D01*
X0066557Y0048588D02*
X0068683Y0048588D01*
X0068683Y0048587D02*
X0066557Y0048587D01*
X0066557Y0048586D02*
X0068683Y0048586D01*
X0068683Y0048585D02*
X0066557Y0048585D01*
X0066557Y0048584D02*
X0068683Y0048584D01*
X0068683Y0048583D02*
X0066557Y0048583D01*
X0066557Y0048582D02*
X0068683Y0048582D01*
X0068683Y0048581D02*
X0066557Y0048581D01*
X0068683Y0048581D01*
X0068683Y0048580D02*
X0066557Y0048580D01*
X0066557Y0048579D02*
X0068683Y0048579D01*
X0068683Y0048578D02*
X0066557Y0048578D01*
X0066557Y0048577D02*
X0068683Y0048577D01*
X0068683Y0048576D02*
X0066557Y0048576D01*
X0066557Y0048575D02*
X0068683Y0048575D01*
X0068683Y0048574D02*
X0066557Y0048574D01*
X0066557Y0048573D02*
X0068683Y0048573D01*
X0068683Y0048572D02*
X0066557Y0048572D01*
X0066557Y0048571D02*
X0068683Y0048571D01*
X0068683Y0048570D02*
X0066557Y0048570D01*
X0066557Y0048569D02*
X0068683Y0048569D01*
X0068683Y0048568D02*
X0066557Y0048568D01*
X0066557Y0048567D02*
X0068683Y0048567D01*
X0068683Y0048566D02*
X0066557Y0048566D01*
X0066557Y0048565D02*
X0068683Y0048565D01*
X0068683Y0048564D02*
X0066557Y0048564D01*
X0066557Y0048563D02*
X0068683Y0048563D01*
X0068683Y0048562D02*
X0066557Y0048562D01*
X0066557Y0048561D02*
X0068683Y0048561D01*
X0068683Y0048560D02*
X0066557Y0048560D01*
X0066557Y0048559D02*
X0068683Y0048559D01*
X0068683Y0048558D02*
X0066557Y0048558D01*
X0066557Y0048557D02*
X0068683Y0048557D01*
X0068683Y0048556D02*
X0066557Y0048556D01*
X0066557Y0048555D02*
X0068683Y0048555D01*
X0068683Y0048554D02*
X0066557Y0048554D01*
X0066557Y0048553D02*
X0068683Y0048553D01*
X0068683Y0048552D02*
X0066557Y0048552D01*
X0066557Y0048551D02*
X0068683Y0048551D01*
X0068683Y0048550D02*
X0066557Y0048550D01*
X0066557Y0048549D02*
X0068683Y0048549D01*
X0068683Y0048548D02*
X0066557Y0048548D01*
X0066557Y0048547D02*
X0068683Y0048547D01*
X0068683Y0048546D02*
X0066557Y0048546D01*
X0066557Y0048545D02*
X0068683Y0048545D01*
X0068683Y0048544D02*
X0066557Y0048544D01*
X0066557Y0048543D02*
X0068683Y0048543D01*
X0068683Y0048542D02*
X0066557Y0048542D01*
X0066557Y0048541D02*
X0068683Y0048541D01*
X0068683Y0048540D02*
X0066557Y0048540D01*
X0066557Y0048539D02*
X0068683Y0048539D01*
X0068683Y0048538D02*
X0066557Y0048538D01*
X0066557Y0048537D02*
X0068683Y0048537D01*
X0068683Y0048536D02*
X0066557Y0048536D01*
X0066557Y0048535D02*
X0068683Y0048535D01*
X0068683Y0048534D02*
X0066557Y0048534D01*
X0066557Y0048533D02*
X0068683Y0048533D01*
X0068683Y0048532D02*
X0066557Y0048532D01*
X0066557Y0048531D02*
X0068683Y0048531D01*
X0068683Y0048530D02*
X0066557Y0048530D01*
X0066557Y0048529D02*
X0068683Y0048529D01*
X0068683Y0048528D02*
X0066557Y0048528D01*
X0066557Y0048527D02*
X0068683Y0048527D01*
X0068683Y0048526D02*
X0066557Y0048526D01*
X0066557Y0048525D02*
X0068683Y0048525D01*
X0068683Y0048524D02*
X0066557Y0048524D01*
X0066557Y0048523D02*
X0068683Y0048523D01*
X0068683Y0048522D02*
X0066557Y0048522D01*
X0066557Y0048521D02*
X0068683Y0048521D01*
X0068683Y0048520D02*
X0066557Y0048520D01*
X0066557Y0048519D02*
X0068683Y0048519D01*
X0066557Y0048519D01*
X0066557Y0048518D02*
X0068683Y0048518D01*
X0068683Y0048517D02*
X0066557Y0048517D01*
X0066557Y0048516D02*
X0068683Y0048516D01*
X0068683Y0048515D02*
X0066557Y0048515D01*
X0066557Y0048514D02*
X0068683Y0048514D01*
X0068683Y0048513D02*
X0066557Y0048513D01*
X0066557Y0048512D02*
X0068683Y0048512D01*
X0068683Y0048511D02*
X0066557Y0048511D01*
X0066557Y0048510D02*
X0068683Y0048510D01*
X0068683Y0048509D02*
X0066557Y0048509D01*
X0066557Y0048508D02*
X0068683Y0048508D01*
X0068683Y0048507D02*
X0066557Y0048507D01*
X0066557Y0048506D02*
X0068683Y0048506D01*
X0068683Y0048505D02*
X0066557Y0048505D01*
X0066557Y0048504D02*
X0068683Y0048504D01*
X0068683Y0048503D02*
X0066557Y0048503D01*
X0066557Y0048502D02*
X0068683Y0048502D01*
X0068683Y0048501D02*
X0066557Y0048501D01*
X0066557Y0048500D02*
X0068683Y0048500D01*
X0068683Y0048499D02*
X0066557Y0048499D01*
X0066557Y0048498D02*
X0068683Y0048498D01*
X0068683Y0048497D02*
X0066557Y0048497D01*
X0066557Y0048496D02*
X0068683Y0048496D01*
X0068683Y0048495D02*
X0066557Y0048495D01*
X0066557Y0048494D02*
X0068683Y0048494D01*
X0068683Y0048493D02*
X0066557Y0048493D01*
X0066557Y0048492D02*
X0068683Y0048492D01*
X0068683Y0048491D02*
X0066557Y0048491D01*
X0066557Y0048490D02*
X0068683Y0048490D01*
X0068683Y0048489D02*
X0066557Y0048489D01*
X0066557Y0048488D02*
X0068683Y0048488D01*
X0068683Y0048487D02*
X0066557Y0048487D01*
X0066557Y0048486D02*
X0068683Y0048486D01*
X0068683Y0048485D02*
X0066557Y0048485D01*
X0066557Y0048484D02*
X0068683Y0048484D01*
X0068683Y0048483D02*
X0066557Y0048483D01*
X0066557Y0048482D02*
X0068683Y0048482D01*
X0068683Y0048481D02*
X0066557Y0048481D01*
X0066557Y0048480D02*
X0068683Y0048480D01*
X0068683Y0048479D02*
X0066557Y0048479D01*
X0066557Y0048478D02*
X0068683Y0048478D01*
X0068683Y0048477D02*
X0066557Y0048477D01*
X0066557Y0048476D02*
X0068683Y0048476D01*
X0068683Y0048475D02*
X0066557Y0048475D01*
X0066557Y0048474D02*
X0068683Y0048474D01*
X0068683Y0048473D02*
X0066557Y0048473D01*
X0066557Y0048472D02*
X0068683Y0048472D01*
X0068683Y0048471D02*
X0066557Y0048471D01*
X0066557Y0048470D02*
X0068683Y0048470D01*
X0068683Y0048469D02*
X0066557Y0048469D01*
X0066557Y0048468D02*
X0068683Y0048468D01*
X0068683Y0048467D02*
X0066557Y0048467D01*
X0066557Y0048466D02*
X0068683Y0048466D01*
X0068683Y0048465D02*
X0066557Y0048465D01*
X0066557Y0048464D02*
X0068683Y0048464D01*
X0068683Y0048463D02*
X0066557Y0048463D01*
X0066557Y0048462D02*
X0068683Y0048462D01*
X0068683Y0048461D02*
X0066557Y0048461D01*
X0066557Y0048460D02*
X0068683Y0048460D01*
X0068683Y0048459D02*
X0066557Y0048459D01*
X0066557Y0048458D02*
X0068683Y0048458D01*
X0068683Y0048457D02*
X0066557Y0048457D01*
X0066557Y0048456D02*
X0068683Y0048456D01*
X0066557Y0048456D01*
X0066557Y0048455D02*
X0068683Y0048455D01*
X0068683Y0048454D02*
X0066557Y0048454D01*
X0066557Y0048453D02*
X0068683Y0048453D01*
X0068683Y0048452D02*
X0066557Y0048452D01*
X0066557Y0048451D02*
X0068683Y0048451D01*
X0068683Y0048450D02*
X0066557Y0048450D01*
X0066557Y0048449D02*
X0068683Y0048449D01*
X0068683Y0048448D02*
X0066557Y0048448D01*
X0066557Y0048447D02*
X0068683Y0048447D01*
X0068683Y0048446D02*
X0066557Y0048446D01*
X0066557Y0048445D02*
X0068683Y0048445D01*
X0068683Y0048444D02*
X0066557Y0048444D01*
X0066557Y0048443D02*
X0068683Y0048443D01*
X0068683Y0048442D02*
X0066557Y0048442D01*
X0066557Y0048441D02*
X0068683Y0048441D01*
X0068683Y0048440D02*
X0066557Y0048440D01*
X0066557Y0048439D02*
X0068683Y0048439D01*
X0068683Y0048438D02*
X0066557Y0048438D01*
X0066557Y0048437D02*
X0068683Y0048437D01*
X0068683Y0048436D02*
X0066557Y0048436D01*
X0066557Y0048435D02*
X0068683Y0048435D01*
X0068683Y0048434D02*
X0066557Y0048434D01*
X0066557Y0048433D02*
X0068683Y0048433D01*
X0068683Y0048432D02*
X0066557Y0048432D01*
X0066557Y0048431D02*
X0068683Y0048431D01*
X0068683Y0048430D02*
X0066557Y0048430D01*
X0066557Y0048429D02*
X0068683Y0048429D01*
X0068683Y0048428D02*
X0066557Y0048428D01*
X0066557Y0048427D02*
X0068683Y0048427D01*
X0068683Y0048426D02*
X0066557Y0048426D01*
X0066557Y0048425D02*
X0068683Y0048425D01*
X0068683Y0048424D02*
X0066557Y0048424D01*
X0066557Y0048423D02*
X0068683Y0048423D01*
X0068683Y0048422D02*
X0066557Y0048422D01*
X0066557Y0048421D02*
X0068683Y0048421D01*
X0068683Y0048420D02*
X0066557Y0048420D01*
X0066557Y0048419D02*
X0068683Y0048419D01*
X0068683Y0048418D02*
X0066557Y0048418D01*
X0066557Y0048417D02*
X0068683Y0048417D01*
X0068683Y0048416D02*
X0066557Y0048416D01*
X0066557Y0048415D02*
X0068683Y0048415D01*
X0068683Y0048414D02*
X0066557Y0048414D01*
X0066557Y0048413D02*
X0068683Y0048413D01*
X0068683Y0048412D02*
X0066557Y0048412D01*
X0066557Y0048411D02*
X0068683Y0048411D01*
X0068683Y0048410D02*
X0066557Y0048410D01*
X0066557Y0048409D02*
X0068683Y0048409D01*
X0068683Y0048408D02*
X0066557Y0048408D01*
X0066557Y0048407D02*
X0068683Y0048407D01*
X0068683Y0048406D02*
X0066557Y0048406D01*
X0066557Y0048405D02*
X0068683Y0048405D01*
X0068683Y0048404D02*
X0066557Y0048404D01*
X0066557Y0048403D02*
X0068683Y0048403D01*
X0068683Y0048402D02*
X0066557Y0048402D01*
X0066557Y0048401D02*
X0068683Y0048401D01*
X0068683Y0048400D02*
X0066557Y0048400D01*
X0066557Y0048399D02*
X0068683Y0048399D01*
X0068683Y0048398D02*
X0066557Y0048398D01*
X0066557Y0048397D02*
X0068683Y0048397D01*
X0068683Y0048396D02*
X0066557Y0048396D01*
X0066557Y0048395D02*
X0068683Y0048395D01*
X0068683Y0048394D02*
X0066557Y0048394D01*
X0068683Y0048394D01*
X0068683Y0048393D02*
X0066557Y0048393D01*
X0066557Y0048392D02*
X0068683Y0048392D01*
X0068683Y0048391D02*
X0066557Y0048391D01*
X0066557Y0048390D02*
X0068683Y0048390D01*
X0068683Y0048389D02*
X0066557Y0048389D01*
X0066557Y0048388D02*
X0068683Y0048388D01*
X0068683Y0048387D02*
X0066557Y0048387D01*
X0066557Y0048386D02*
X0068683Y0048386D01*
X0068683Y0048385D02*
X0066557Y0048385D01*
X0066557Y0048384D02*
X0068683Y0048384D01*
X0068683Y0048383D02*
X0066557Y0048383D01*
X0066557Y0048382D02*
X0068683Y0048382D01*
X0068683Y0048381D02*
X0066557Y0048381D01*
X0066557Y0048380D02*
X0068683Y0048380D01*
X0068683Y0048379D02*
X0066557Y0048379D01*
X0066557Y0048378D02*
X0068683Y0048378D01*
X0068683Y0048377D02*
X0066557Y0048377D01*
X0066557Y0048376D02*
X0068683Y0048376D01*
X0068683Y0048375D02*
X0066557Y0048375D01*
X0066557Y0048374D02*
X0068683Y0048374D01*
X0068683Y0048373D02*
X0066557Y0048373D01*
X0066557Y0048372D02*
X0068683Y0048372D01*
X0068683Y0048371D02*
X0066557Y0048371D01*
X0066557Y0048370D02*
X0068683Y0048370D01*
X0068683Y0048369D02*
X0066557Y0048369D01*
X0066557Y0048368D02*
X0068683Y0048368D01*
X0068683Y0048367D02*
X0066557Y0048367D01*
X0066557Y0048366D02*
X0068683Y0048366D01*
X0068683Y0048365D02*
X0066557Y0048365D01*
X0066557Y0048364D02*
X0068683Y0048364D01*
X0068683Y0048363D02*
X0066557Y0048363D01*
X0066557Y0048362D02*
X0068683Y0048362D01*
X0068683Y0048361D02*
X0066557Y0048361D01*
X0066557Y0048360D02*
X0068683Y0048360D01*
X0068683Y0048359D02*
X0066557Y0048359D01*
X0066557Y0048358D02*
X0068683Y0048358D01*
X0068683Y0048357D02*
X0066557Y0048357D01*
X0066557Y0048356D02*
X0068683Y0048356D01*
X0068683Y0048355D02*
X0066557Y0048355D01*
X0066557Y0048354D02*
X0068683Y0048354D01*
X0068683Y0048353D02*
X0066557Y0048353D01*
X0066557Y0048352D02*
X0068683Y0048352D01*
X0068683Y0048351D02*
X0066557Y0048351D01*
X0066557Y0048350D02*
X0068683Y0048350D01*
X0068683Y0048349D02*
X0066557Y0048349D01*
X0066557Y0048348D02*
X0068683Y0048348D01*
X0068683Y0048347D02*
X0066557Y0048347D01*
X0066557Y0048346D02*
X0068683Y0048346D01*
X0068683Y0048345D02*
X0066557Y0048345D01*
X0066557Y0048344D02*
X0068683Y0048344D01*
X0068683Y0048343D02*
X0066557Y0048343D01*
X0066557Y0048342D02*
X0068683Y0048342D01*
X0068683Y0048341D02*
X0066557Y0048341D01*
X0066557Y0048340D02*
X0068683Y0048340D01*
X0068683Y0048339D02*
X0066557Y0048339D01*
X0066557Y0048338D02*
X0068683Y0048338D01*
X0068683Y0048337D02*
X0066557Y0048337D01*
X0066557Y0048336D02*
X0068683Y0048336D01*
X0068683Y0048335D02*
X0066557Y0048335D01*
X0066557Y0048334D02*
X0068683Y0048334D01*
X0068683Y0048333D02*
X0066557Y0048333D01*
X0066557Y0048332D02*
X0068683Y0048332D01*
X0068683Y0048331D02*
X0066557Y0048331D01*
X0068683Y0048331D01*
X0068683Y0048330D02*
X0066557Y0048330D01*
X0066557Y0048329D02*
X0068683Y0048329D01*
X0068683Y0048328D02*
X0066557Y0048328D01*
X0066557Y0048327D02*
X0068683Y0048327D01*
X0068683Y0048326D02*
X0066557Y0048326D01*
X0066557Y0048325D02*
X0068683Y0048325D01*
X0068683Y0048324D02*
X0066557Y0048324D01*
X0066557Y0048323D02*
X0068683Y0048323D01*
X0068683Y0048322D02*
X0066557Y0048322D01*
X0066557Y0048321D02*
X0068683Y0048321D01*
X0068683Y0048320D02*
X0066557Y0048320D01*
X0066557Y0048319D02*
X0068683Y0048319D01*
X0068683Y0048318D02*
X0066557Y0048318D01*
X0066557Y0048317D02*
X0068683Y0048317D01*
X0068683Y0048316D02*
X0066557Y0048316D01*
X0066557Y0048315D02*
X0068683Y0048315D01*
X0068683Y0048314D02*
X0066557Y0048314D01*
X0066557Y0048313D02*
X0068683Y0048313D01*
X0068683Y0048312D02*
X0066557Y0048312D01*
X0066557Y0048311D02*
X0068683Y0048311D01*
X0068683Y0048310D02*
X0066557Y0048310D01*
X0066557Y0048309D02*
X0068683Y0048309D01*
X0068683Y0048308D02*
X0066557Y0048308D01*
X0066557Y0048307D02*
X0068683Y0048307D01*
X0068683Y0048306D02*
X0066557Y0048306D01*
X0066557Y0048305D02*
X0068683Y0048305D01*
X0068683Y0048304D02*
X0066557Y0048304D01*
X0066557Y0048303D02*
X0068683Y0048303D01*
X0068683Y0048302D02*
X0066557Y0048302D01*
X0066557Y0048301D02*
X0068683Y0048301D01*
X0068683Y0048300D02*
X0066557Y0048300D01*
X0066557Y0048299D02*
X0068683Y0048299D01*
X0068683Y0048298D02*
X0066557Y0048298D01*
X0066557Y0048297D02*
X0068683Y0048297D01*
X0068683Y0048296D02*
X0066557Y0048296D01*
X0066557Y0048295D02*
X0068683Y0048295D01*
X0068683Y0048294D02*
X0066557Y0048294D01*
X0066557Y0048293D02*
X0068683Y0048293D01*
X0068683Y0048292D02*
X0066557Y0048292D01*
X0066557Y0048291D02*
X0068683Y0048291D01*
X0068683Y0048290D02*
X0066557Y0048290D01*
X0066557Y0048289D02*
X0068683Y0048289D01*
X0068683Y0048288D02*
X0066557Y0048288D01*
X0066557Y0048287D02*
X0068683Y0048287D01*
X0068683Y0048286D02*
X0066557Y0048286D01*
X0066557Y0048285D02*
X0068683Y0048285D01*
X0068683Y0048284D02*
X0066557Y0048284D01*
X0066557Y0048283D02*
X0068683Y0048283D01*
X0068683Y0048282D02*
X0066557Y0048282D01*
X0066557Y0048281D02*
X0068683Y0048281D01*
X0068683Y0048280D02*
X0066557Y0048280D01*
X0066557Y0048279D02*
X0068683Y0048279D01*
X0068683Y0048278D02*
X0066557Y0048278D01*
X0066557Y0048277D02*
X0068683Y0048277D01*
X0068683Y0048276D02*
X0066557Y0048276D01*
X0066557Y0048275D02*
X0068683Y0048275D01*
X0068683Y0048274D02*
X0066557Y0048274D01*
X0066557Y0048273D02*
X0068683Y0048273D01*
X0068683Y0048272D02*
X0066557Y0048272D01*
X0066557Y0048271D02*
X0068683Y0048271D01*
X0068683Y0048270D02*
X0066557Y0048270D01*
X0066557Y0048269D02*
X0068683Y0048269D01*
X0066557Y0048269D01*
X0066557Y0048268D02*
X0068683Y0048268D01*
X0068683Y0048267D02*
X0066557Y0048267D01*
X0066557Y0048266D02*
X0068683Y0048266D01*
X0068683Y0048265D02*
X0066557Y0048265D01*
X0066557Y0048264D02*
X0068683Y0048264D01*
X0068683Y0048263D02*
X0066557Y0048263D01*
X0066557Y0048262D02*
X0068683Y0048262D01*
X0068683Y0048261D02*
X0066557Y0048261D01*
X0066557Y0048260D02*
X0068683Y0048260D01*
X0068683Y0048259D02*
X0066557Y0048259D01*
X0066557Y0048258D02*
X0068683Y0048258D01*
X0068683Y0048257D02*
X0066557Y0048257D01*
X0066557Y0048256D02*
X0068683Y0048256D01*
X0068683Y0048255D02*
X0066557Y0048255D01*
X0066557Y0048254D02*
X0068683Y0048254D01*
X0068683Y0048253D02*
X0066557Y0048253D01*
X0066557Y0048252D02*
X0068683Y0048252D01*
X0068683Y0048251D02*
X0066557Y0048251D01*
X0066557Y0048250D02*
X0068683Y0048250D01*
X0068683Y0048249D02*
X0066557Y0048249D01*
X0066557Y0048248D02*
X0068683Y0048248D01*
X0068683Y0048247D02*
X0066557Y0048247D01*
X0066557Y0048246D02*
X0068683Y0048246D01*
X0068683Y0048245D02*
X0066557Y0048245D01*
X0066557Y0048244D02*
X0068683Y0048244D01*
X0068683Y0048243D02*
X0066557Y0048243D01*
X0066557Y0048242D02*
X0068683Y0048242D01*
X0068683Y0048241D02*
X0066557Y0048241D01*
X0066557Y0048240D02*
X0068683Y0048240D01*
X0068683Y0048239D02*
X0066557Y0048239D01*
X0066557Y0048238D02*
X0068683Y0048238D01*
X0068683Y0048237D02*
X0066557Y0048237D01*
X0066557Y0048236D02*
X0068683Y0048236D01*
X0068683Y0048235D02*
X0066557Y0048235D01*
X0066557Y0048234D02*
X0068683Y0048234D01*
X0068683Y0048233D02*
X0066557Y0048233D01*
X0066557Y0048232D02*
X0068683Y0048232D01*
X0068683Y0048231D02*
X0066557Y0048231D01*
X0066557Y0048230D02*
X0068683Y0048230D01*
X0068683Y0048229D02*
X0066557Y0048229D01*
X0066557Y0048228D02*
X0068683Y0048228D01*
X0068683Y0048227D02*
X0066557Y0048227D01*
X0066557Y0048226D02*
X0068683Y0048226D01*
X0068683Y0048225D02*
X0066557Y0048225D01*
X0066557Y0048224D02*
X0068683Y0048224D01*
X0068683Y0048223D02*
X0066557Y0048223D01*
X0066557Y0048222D02*
X0068683Y0048222D01*
X0068683Y0048221D02*
X0066557Y0048221D01*
X0066557Y0048220D02*
X0068683Y0048220D01*
X0068683Y0048219D02*
X0066557Y0048219D01*
X0066557Y0048218D02*
X0068683Y0048218D01*
X0068683Y0048217D02*
X0066557Y0048217D01*
X0066557Y0048216D02*
X0068683Y0048216D01*
X0068683Y0048215D02*
X0066557Y0048215D01*
X0066557Y0048214D02*
X0068683Y0048214D01*
X0068683Y0048213D02*
X0066557Y0048213D01*
X0066557Y0048212D02*
X0068683Y0048212D01*
X0068683Y0048211D02*
X0066557Y0048211D01*
X0066557Y0048210D02*
X0068683Y0048210D01*
X0068683Y0048209D02*
X0066557Y0048209D01*
X0066557Y0048208D02*
X0068683Y0048208D01*
X0068683Y0048207D02*
X0066557Y0048207D01*
X0066557Y0048206D02*
X0068683Y0048206D01*
X0066557Y0048206D01*
X0066557Y0048205D02*
X0068683Y0048205D01*
X0068683Y0048204D02*
X0066557Y0048204D01*
X0066557Y0048203D02*
X0068683Y0048203D01*
X0068683Y0048202D02*
X0066557Y0048202D01*
X0066557Y0048201D02*
X0068683Y0048201D01*
X0068683Y0048200D02*
X0066557Y0048200D01*
X0066557Y0048199D02*
X0068683Y0048199D01*
X0068683Y0048198D02*
X0066557Y0048198D01*
X0066557Y0048197D02*
X0068683Y0048197D01*
X0068683Y0048196D02*
X0066557Y0048196D01*
X0066557Y0048195D02*
X0068683Y0048195D01*
X0068683Y0048194D02*
X0066557Y0048194D01*
X0066557Y0048193D02*
X0068683Y0048193D01*
X0068683Y0048192D02*
X0066557Y0048192D01*
X0066557Y0048191D02*
X0068683Y0048191D01*
X0068683Y0048190D02*
X0066557Y0048190D01*
X0066557Y0048189D02*
X0068683Y0048189D01*
X0068683Y0048188D02*
X0066557Y0048188D01*
X0066557Y0048187D02*
X0068683Y0048187D01*
X0068683Y0048186D02*
X0066557Y0048186D01*
X0066557Y0048185D02*
X0068683Y0048185D01*
X0068683Y0048184D02*
X0066557Y0048184D01*
X0066557Y0048183D02*
X0068683Y0048183D01*
X0068683Y0048182D02*
X0066557Y0048182D01*
X0066557Y0048181D02*
X0068683Y0048181D01*
X0068683Y0048180D02*
X0066557Y0048180D01*
X0066557Y0048179D02*
X0068683Y0048179D01*
X0068683Y0048178D02*
X0066557Y0048178D01*
X0066557Y0048177D02*
X0068683Y0048177D01*
X0068683Y0048176D02*
X0066557Y0048176D01*
X0066557Y0048175D02*
X0068683Y0048175D01*
X0068683Y0048174D02*
X0066557Y0048174D01*
X0066557Y0048173D02*
X0068683Y0048173D01*
X0068683Y0048172D02*
X0066557Y0048172D01*
X0066557Y0048171D02*
X0068683Y0048171D01*
X0068683Y0048170D02*
X0066557Y0048170D01*
X0066557Y0048169D02*
X0068683Y0048169D01*
X0068683Y0048168D02*
X0066557Y0048168D01*
X0066557Y0048167D02*
X0068683Y0048167D01*
X0068683Y0048166D02*
X0066557Y0048166D01*
X0066557Y0048165D02*
X0068683Y0048165D01*
X0068683Y0048164D02*
X0066557Y0048164D01*
X0066557Y0048163D02*
X0068683Y0048163D01*
X0068683Y0048162D02*
X0066557Y0048162D01*
X0066557Y0048161D02*
X0068683Y0048161D01*
X0068683Y0048160D02*
X0066557Y0048160D01*
X0066557Y0048159D02*
X0068683Y0048159D01*
X0068683Y0048158D02*
X0066557Y0048158D01*
X0066557Y0048157D02*
X0068683Y0048157D01*
X0068683Y0048156D02*
X0066557Y0048156D01*
X0066557Y0048155D02*
X0068683Y0048155D01*
X0068683Y0048154D02*
X0066557Y0048154D01*
X0066557Y0048153D02*
X0068683Y0048153D01*
X0068683Y0048152D02*
X0066557Y0048152D01*
X0066557Y0048151D02*
X0068683Y0048151D01*
X0068683Y0048150D02*
X0066557Y0048150D01*
X0066557Y0048149D02*
X0068683Y0048149D01*
X0068683Y0048148D02*
X0066557Y0048148D01*
X0066557Y0048147D02*
X0068683Y0048147D01*
X0068683Y0048146D02*
X0066557Y0048146D01*
X0066557Y0048145D02*
X0068683Y0048145D01*
X0068683Y0048144D02*
X0066557Y0048144D01*
X0068683Y0048144D01*
X0068683Y0048143D02*
X0066557Y0048143D01*
X0066557Y0048142D02*
X0068683Y0048142D01*
X0068683Y0048141D02*
X0066557Y0048141D01*
X0066557Y0048140D02*
X0068683Y0048140D01*
X0068683Y0048139D02*
X0066557Y0048139D01*
X0066557Y0048138D02*
X0068683Y0048138D01*
X0068683Y0048137D02*
X0066557Y0048137D01*
X0066557Y0048136D02*
X0068683Y0048136D01*
X0068683Y0048135D02*
X0066557Y0048135D01*
X0066557Y0048134D02*
X0068683Y0048134D01*
X0068683Y0048133D02*
X0066557Y0048133D01*
X0066557Y0048132D02*
X0068683Y0048132D01*
X0068683Y0048131D02*
X0066557Y0048131D01*
X0066557Y0048130D02*
X0068683Y0048130D01*
X0068683Y0048129D02*
X0066557Y0048129D01*
X0066557Y0048128D02*
X0068683Y0048128D01*
X0068683Y0048127D02*
X0066557Y0048127D01*
X0066557Y0048126D02*
X0068683Y0048126D01*
X0068683Y0048125D02*
X0066557Y0048125D01*
X0066557Y0048124D02*
X0068683Y0048124D01*
X0068683Y0048123D02*
X0066557Y0048123D01*
X0066557Y0048122D02*
X0068683Y0048122D01*
X0068683Y0048121D02*
X0066557Y0048121D01*
X0066557Y0048120D02*
X0068683Y0048120D01*
X0068683Y0048119D02*
X0066557Y0048119D01*
X0066557Y0048118D02*
X0068683Y0048118D01*
X0068683Y0048117D02*
X0066557Y0048117D01*
X0066557Y0048116D02*
X0068683Y0048116D01*
X0068683Y0048115D02*
X0066557Y0048115D01*
X0066557Y0048114D02*
X0068683Y0048114D01*
X0068683Y0048113D02*
X0066557Y0048113D01*
X0066557Y0048112D02*
X0068683Y0048112D01*
X0068683Y0048111D02*
X0066557Y0048111D01*
X0066557Y0048110D02*
X0068683Y0048110D01*
X0068683Y0048109D02*
X0066557Y0048109D01*
X0066557Y0048108D02*
X0068683Y0048108D01*
X0068683Y0048107D02*
X0066557Y0048107D01*
X0066557Y0048106D02*
X0068683Y0048106D01*
X0068683Y0048105D02*
X0066557Y0048105D01*
X0066557Y0048104D02*
X0068683Y0048104D01*
X0068683Y0048103D02*
X0066557Y0048103D01*
X0066557Y0048102D02*
X0068683Y0048102D01*
X0068683Y0048101D02*
X0066557Y0048101D01*
X0066557Y0048100D02*
X0068683Y0048100D01*
X0068683Y0048099D02*
X0066557Y0048099D01*
X0066557Y0048098D02*
X0068683Y0048098D01*
X0068683Y0048097D02*
X0066557Y0048097D01*
X0066557Y0048096D02*
X0068683Y0048096D01*
X0068683Y0048095D02*
X0066557Y0048095D01*
X0066557Y0048094D02*
X0068683Y0048094D01*
X0068683Y0048093D02*
X0066557Y0048093D01*
X0066557Y0048092D02*
X0068683Y0048092D01*
X0068683Y0048091D02*
X0066557Y0048091D01*
X0066557Y0048090D02*
X0068683Y0048090D01*
X0068683Y0048089D02*
X0066557Y0048089D01*
X0066557Y0048088D02*
X0068683Y0048088D01*
X0068683Y0048087D02*
X0066557Y0048087D01*
X0066557Y0048086D02*
X0068683Y0048086D01*
X0068683Y0048085D02*
X0066557Y0048085D01*
X0066557Y0048084D02*
X0068683Y0048084D01*
X0068683Y0048083D02*
X0066557Y0048083D01*
X0066557Y0048082D02*
X0068683Y0048082D01*
X0068683Y0048081D02*
X0066557Y0048081D01*
X0068683Y0048081D01*
X0068683Y0048080D02*
X0066557Y0048080D01*
X0066557Y0048079D02*
X0068683Y0048079D01*
X0068683Y0048078D02*
X0066557Y0048078D01*
X0066557Y0048077D02*
X0068683Y0048077D01*
X0068683Y0048076D02*
X0066557Y0048076D01*
X0066557Y0048075D02*
X0068683Y0048075D01*
X0068683Y0048074D02*
X0066557Y0048074D01*
X0066557Y0048073D02*
X0068683Y0048073D01*
X0068683Y0048072D02*
X0066557Y0048072D01*
X0066557Y0048071D02*
X0068683Y0048071D01*
X0068683Y0048070D02*
X0066557Y0048070D01*
X0066557Y0048069D02*
X0068683Y0048069D01*
X0068683Y0048068D02*
X0066557Y0048068D01*
X0066557Y0048067D02*
X0068683Y0048067D01*
X0068683Y0048066D02*
X0066557Y0048066D01*
X0066557Y0048065D02*
X0068683Y0048065D01*
X0068683Y0048064D02*
X0066557Y0048064D01*
X0066557Y0048063D02*
X0068683Y0048063D01*
X0068683Y0048062D02*
X0066557Y0048062D01*
X0066557Y0048061D02*
X0068683Y0048061D01*
X0068683Y0048060D02*
X0066557Y0048060D01*
X0066557Y0048059D02*
X0068683Y0048059D01*
X0068683Y0048058D02*
X0066557Y0048058D01*
X0066557Y0048057D02*
X0068683Y0048057D01*
X0068683Y0048056D02*
X0066557Y0048056D01*
X0066557Y0048055D02*
X0068683Y0048055D01*
X0068683Y0048054D02*
X0066557Y0048054D01*
X0066557Y0048053D02*
X0068683Y0048053D01*
X0068683Y0048052D02*
X0066557Y0048052D01*
X0066557Y0048051D02*
X0068683Y0048051D01*
X0068683Y0048050D02*
X0066557Y0048050D01*
X0066557Y0048049D02*
X0068683Y0048049D01*
X0068683Y0048048D02*
X0066557Y0048048D01*
X0066557Y0048047D02*
X0068683Y0048047D01*
X0068683Y0048046D02*
X0066557Y0048046D01*
X0066557Y0048045D02*
X0068683Y0048045D01*
X0068683Y0048044D02*
X0066557Y0048044D01*
X0066557Y0048043D02*
X0068683Y0048043D01*
X0068683Y0048042D02*
X0066557Y0048042D01*
X0066557Y0048041D02*
X0068683Y0048041D01*
X0068683Y0048040D02*
X0066557Y0048040D01*
X0066557Y0048039D02*
X0068683Y0048039D01*
X0068683Y0048038D02*
X0066557Y0048038D01*
X0066557Y0048037D02*
X0068683Y0048037D01*
X0068683Y0048036D02*
X0066557Y0048036D01*
X0066557Y0048035D02*
X0068683Y0048035D01*
X0068683Y0048034D02*
X0066557Y0048034D01*
X0066557Y0048033D02*
X0068683Y0048033D01*
X0068683Y0048032D02*
X0066557Y0048032D01*
X0066557Y0048031D02*
X0068683Y0048031D01*
X0068683Y0048030D02*
X0066557Y0048030D01*
X0066557Y0048029D02*
X0068683Y0048029D01*
X0068683Y0048028D02*
X0066557Y0048028D01*
X0066557Y0048027D02*
X0068683Y0048027D01*
X0068683Y0048026D02*
X0066557Y0048026D01*
X0066557Y0048025D02*
X0068683Y0048025D01*
X0068683Y0048024D02*
X0066557Y0048024D01*
X0066557Y0048023D02*
X0068683Y0048023D01*
X0068683Y0048022D02*
X0066557Y0048022D01*
X0066557Y0048021D02*
X0068683Y0048021D01*
X0068683Y0048020D02*
X0066557Y0048020D01*
X0066557Y0048019D02*
X0068683Y0048019D01*
X0066557Y0048019D01*
X0066557Y0048018D02*
X0068683Y0048018D01*
X0068683Y0048017D02*
X0066557Y0048017D01*
X0066557Y0048016D02*
X0068683Y0048016D01*
X0068683Y0048015D02*
X0066557Y0048015D01*
X0066557Y0048014D02*
X0068683Y0048014D01*
X0068683Y0048013D02*
X0066557Y0048013D01*
X0066557Y0048012D02*
X0068683Y0048012D01*
X0068683Y0048011D02*
X0066557Y0048011D01*
X0066557Y0048010D02*
X0068683Y0048010D01*
X0068683Y0048009D02*
X0066557Y0048009D01*
X0066557Y0048008D02*
X0068683Y0048008D01*
X0068683Y0048007D02*
X0066557Y0048007D01*
X0066557Y0048006D02*
X0068683Y0048006D01*
X0068683Y0048005D02*
X0066557Y0048005D01*
X0066557Y0048004D02*
X0068683Y0048004D01*
X0068683Y0048003D02*
X0066557Y0048003D01*
X0066557Y0048002D02*
X0068683Y0048002D01*
X0068683Y0048001D02*
X0066557Y0048001D01*
X0066557Y0048000D02*
X0068683Y0048000D01*
X0068683Y0047999D02*
X0066557Y0047999D01*
X0066557Y0047998D02*
X0068683Y0047998D01*
X0068683Y0047997D02*
X0066557Y0047997D01*
X0066557Y0047996D02*
X0068683Y0047996D01*
X0068683Y0047995D02*
X0066557Y0047995D01*
X0066557Y0047994D02*
X0068683Y0047994D01*
X0068683Y0047993D02*
X0066557Y0047993D01*
X0066557Y0047992D02*
X0068683Y0047992D01*
X0068683Y0047991D02*
X0066557Y0047991D01*
X0066557Y0047990D02*
X0068683Y0047990D01*
X0068683Y0047989D02*
X0066557Y0047989D01*
X0066557Y0047988D02*
X0068683Y0047988D01*
X0068683Y0047987D02*
X0066557Y0047987D01*
X0066557Y0047986D02*
X0068683Y0047986D01*
X0068683Y0047985D02*
X0066557Y0047985D01*
X0066557Y0047984D02*
X0068683Y0047984D01*
X0068683Y0047983D02*
X0066557Y0047983D01*
X0066557Y0047982D02*
X0068683Y0047982D01*
X0068683Y0047981D02*
X0066557Y0047981D01*
X0066557Y0047980D02*
X0068683Y0047980D01*
X0068683Y0047979D02*
X0066557Y0047979D01*
X0066557Y0047978D02*
X0068683Y0047978D01*
X0068683Y0047977D02*
X0066557Y0047977D01*
X0066557Y0047976D02*
X0068683Y0047976D01*
X0068683Y0047975D02*
X0066557Y0047975D01*
X0066557Y0047974D02*
X0068683Y0047974D01*
X0068683Y0047973D02*
X0066557Y0047973D01*
X0066557Y0047972D02*
X0068683Y0047972D01*
X0068683Y0047971D02*
X0066557Y0047971D01*
X0066557Y0047970D02*
X0068683Y0047970D01*
X0068683Y0047969D02*
X0066557Y0047969D01*
X0066557Y0047968D02*
X0068683Y0047968D01*
X0068683Y0047967D02*
X0066557Y0047967D01*
X0066557Y0047966D02*
X0068683Y0047966D01*
X0068683Y0047965D02*
X0066557Y0047965D01*
X0066557Y0047964D02*
X0068683Y0047964D01*
X0068683Y0047963D02*
X0066557Y0047963D01*
X0066557Y0047962D02*
X0068683Y0047962D01*
X0068683Y0047961D02*
X0066557Y0047961D01*
X0066557Y0047960D02*
X0068683Y0047960D01*
X0068683Y0047959D02*
X0066557Y0047959D01*
X0066557Y0047958D02*
X0068683Y0047958D01*
X0068683Y0047957D02*
X0066557Y0047957D01*
X0066557Y0047956D02*
X0068683Y0047956D01*
X0066557Y0047956D01*
X0066557Y0047955D02*
X0068683Y0047955D01*
X0068683Y0047954D02*
X0066557Y0047954D01*
X0066557Y0047953D02*
X0068683Y0047953D01*
X0068683Y0047952D02*
X0066557Y0047952D01*
X0066557Y0047951D02*
X0068683Y0047951D01*
X0068683Y0047950D02*
X0066557Y0047950D01*
X0066557Y0047949D02*
X0068683Y0047949D01*
X0068683Y0047948D02*
X0066557Y0047948D01*
X0066557Y0047947D02*
X0068683Y0047947D01*
X0068683Y0047946D02*
X0066557Y0047946D01*
X0066557Y0047945D02*
X0068683Y0047945D01*
X0068683Y0047944D02*
X0066557Y0047944D01*
X0066557Y0047943D02*
X0068683Y0047943D01*
X0068683Y0047942D02*
X0066557Y0047942D01*
X0066557Y0047941D02*
X0068683Y0047941D01*
X0068683Y0047940D02*
X0066557Y0047940D01*
X0066557Y0047939D02*
X0068683Y0047939D01*
X0068683Y0047938D02*
X0066557Y0047938D01*
X0066557Y0047937D02*
X0068683Y0047937D01*
X0068683Y0047936D02*
X0066557Y0047936D01*
X0066557Y0047935D02*
X0068683Y0047935D01*
X0068683Y0047934D02*
X0066557Y0047934D01*
X0066557Y0047933D02*
X0068683Y0047933D01*
X0068683Y0047932D02*
X0066557Y0047932D01*
X0066557Y0047931D02*
X0068683Y0047931D01*
X0068683Y0047930D02*
X0066557Y0047930D01*
X0066557Y0047929D02*
X0068683Y0047929D01*
X0068683Y0047928D02*
X0066557Y0047928D01*
X0066557Y0047927D02*
X0068683Y0047927D01*
X0068683Y0047926D02*
X0066557Y0047926D01*
X0066557Y0047925D02*
X0068683Y0047925D01*
X0068683Y0047924D02*
X0066557Y0047924D01*
X0066557Y0047923D02*
X0068683Y0047923D01*
X0068683Y0047922D02*
X0066557Y0047922D01*
X0066557Y0047921D02*
X0068683Y0047921D01*
X0068683Y0047920D02*
X0066557Y0047920D01*
X0066557Y0047919D02*
X0068683Y0047919D01*
X0068683Y0047918D02*
X0066557Y0047918D01*
X0066557Y0047917D02*
X0068683Y0047917D01*
X0068683Y0047916D02*
X0066557Y0047916D01*
X0066557Y0047915D02*
X0068683Y0047915D01*
X0068683Y0047914D02*
X0066557Y0047914D01*
X0066557Y0047913D02*
X0068683Y0047913D01*
X0068683Y0047912D02*
X0066557Y0047912D01*
X0066557Y0047911D02*
X0068683Y0047911D01*
X0068683Y0047910D02*
X0066557Y0047910D01*
X0066557Y0047909D02*
X0068683Y0047909D01*
X0068683Y0047908D02*
X0066557Y0047908D01*
X0066557Y0047907D02*
X0068683Y0047907D01*
X0068683Y0047906D02*
X0066557Y0047906D01*
X0066557Y0047905D02*
X0068683Y0047905D01*
X0068683Y0047904D02*
X0066557Y0047904D01*
X0066557Y0047903D02*
X0068683Y0047903D01*
X0068683Y0047902D02*
X0066557Y0047902D01*
X0066557Y0047901D02*
X0068683Y0047901D01*
X0068683Y0047900D02*
X0066557Y0047900D01*
X0066557Y0047899D02*
X0068683Y0047899D01*
X0068683Y0047898D02*
X0066557Y0047898D01*
X0066557Y0047897D02*
X0068683Y0047897D01*
X0068683Y0047896D02*
X0066557Y0047896D01*
X0066557Y0047895D02*
X0068683Y0047895D01*
X0068683Y0047894D02*
X0066557Y0047894D01*
X0068683Y0047894D01*
X0068683Y0047893D02*
X0066557Y0047893D01*
X0066557Y0047892D02*
X0068683Y0047892D01*
X0068683Y0047891D02*
X0066557Y0047891D01*
X0066557Y0047890D02*
X0068683Y0047890D01*
X0068683Y0047889D02*
X0066557Y0047889D01*
X0066557Y0047888D02*
X0068683Y0047888D01*
X0068683Y0047887D02*
X0066557Y0047887D01*
X0066557Y0047886D02*
X0068683Y0047886D01*
X0068683Y0047885D02*
X0066557Y0047885D01*
X0066557Y0047884D02*
X0068683Y0047884D01*
X0068683Y0047883D02*
X0066557Y0047883D01*
X0066557Y0047882D02*
X0068683Y0047882D01*
X0068683Y0047881D02*
X0066557Y0047881D01*
X0066557Y0047880D02*
X0068683Y0047880D01*
X0068683Y0047879D02*
X0066557Y0047879D01*
X0066557Y0047878D02*
X0068683Y0047878D01*
X0068683Y0047877D02*
X0066557Y0047877D01*
X0066557Y0047876D02*
X0068683Y0047876D01*
X0068683Y0047875D02*
X0066557Y0047875D01*
X0066557Y0047874D02*
X0068683Y0047874D01*
X0068683Y0047873D02*
X0066557Y0047873D01*
X0066557Y0047872D02*
X0068683Y0047872D01*
X0068683Y0047871D02*
X0066557Y0047871D01*
X0066557Y0047870D02*
X0068683Y0047870D01*
X0068683Y0047869D02*
X0066557Y0047869D01*
X0066557Y0047868D02*
X0068683Y0047868D01*
X0068683Y0047867D02*
X0066557Y0047867D01*
X0066557Y0047866D02*
X0068683Y0047866D01*
X0068683Y0047865D02*
X0066557Y0047865D01*
X0066557Y0047864D02*
X0068683Y0047864D01*
X0068683Y0047863D02*
X0066557Y0047863D01*
D19*
X0064117Y0056524D03*
X0064117Y0061249D03*
X0069628Y0061249D03*
X0069628Y0056524D03*
X0075928Y0071091D03*
X0075928Y0075816D03*
X0081439Y0075816D03*
X0081439Y0071091D03*
X0081046Y0097863D03*
X0086557Y0097863D03*
X0104274Y0058493D03*
X0104274Y0053769D03*
X0104274Y0049044D03*
X0109786Y0049044D03*
X0109786Y0053769D03*
X0109786Y0058493D03*
D20*
X0054668Y0088808D03*
X0054668Y0094320D03*
D21*
X0076321Y0093335D03*
X0076321Y0089792D03*
X0076321Y0086249D03*
X0076321Y0082706D03*
X0081046Y0082706D03*
X0081046Y0086249D03*
X0081046Y0089792D03*
X0081046Y0093335D03*
D22*
X0078683Y0141564D03*
D23*
X0048683Y0141564D03*
X0108683Y0141564D03*
D24*
X0049943Y0093139D03*
X0049943Y0089989D03*
D25*
X0107916Y0031820D03*
X0110868Y0031820D03*
X0110868Y0021387D03*
X0107916Y0021387D03*
M02*
