G75*
%MOIN*%
%OFA0B0*%
%FSLAX25Y25*%
%IPPOS*%
%LPD*%
%AMOC8*
5,1,8,0,0,1.08239X$1,22.5*
%
%ADD10C,0.00000*%
%ADD11R,0.03642X0.02756*%
%ADD12R,0.01102X0.03150*%
%ADD13R,0.05512X0.05906*%
%ADD14R,0.06500X0.06500*%
%ADD15C,0.06500*%
%ADD16R,0.01575X0.01969*%
%ADD17R,0.01969X0.01378*%
%ADD18R,0.01181X0.01969*%
%ADD19C,0.00001*%
%ADD20R,0.03150X0.02756*%
%ADD21R,0.02756X0.03150*%
%ADD22R,0.03150X0.01969*%
%ADD23C,0.40000*%
%ADD24R,0.10000X0.20000*%
%ADD25R,0.02756X0.01969*%
%ADD26R,0.02165X0.02165*%
%ADD27C,0.00800*%
%ADD28C,0.01600*%
%ADD29C,0.02381*%
D10*
X0037739Y0009674D02*
X0037739Y0167154D01*
X0136164Y0167154D01*
X0136164Y0009674D01*
X0037739Y0009674D01*
X0066754Y0048060D02*
X0068487Y0048060D01*
X0068487Y0049241D01*
X0069825Y0049241D01*
X0069825Y0050422D01*
X0068487Y0050422D01*
X0068487Y0051603D01*
X0066754Y0051603D01*
X0066754Y0048060D01*
D11*
X0089904Y0085658D03*
X0089904Y0090383D03*
X0095022Y0090383D03*
X0095022Y0085658D03*
D12*
X0084786Y0040383D03*
X0082817Y0040383D03*
X0080849Y0040383D03*
X0078880Y0040383D03*
X0076912Y0040383D03*
X0074943Y0040383D03*
X0072975Y0040383D03*
X0071006Y0040383D03*
D13*
X0064904Y0028375D03*
X0090888Y0028375D03*
D14*
X0121203Y0061643D03*
X0121203Y0095501D03*
X0121203Y0159083D03*
X0050337Y0021485D03*
D15*
X0050337Y0031485D03*
X0121203Y0031643D03*
X0121203Y0021643D03*
X0121203Y0041643D03*
X0121203Y0051643D03*
X0121203Y0075501D03*
X0121203Y0085501D03*
X0121203Y0109083D03*
X0121203Y0119083D03*
X0121203Y0129083D03*
X0121203Y0139083D03*
X0121203Y0149083D03*
D16*
X0110770Y0044123D03*
X0108014Y0044123D03*
X0108014Y0039005D03*
X0110770Y0039005D03*
D17*
X0064904Y0048552D03*
X0064904Y0051111D03*
D18*
X0067620Y0049831D03*
D19*
X0066754Y0049835D02*
X0069825Y0049835D01*
X0069825Y0049834D02*
X0066754Y0049834D01*
X0066754Y0049833D02*
X0069825Y0049833D01*
X0069825Y0049832D02*
X0066754Y0049832D01*
X0066754Y0049831D02*
X0069825Y0049831D01*
X0066754Y0049831D01*
X0066754Y0049830D02*
X0069825Y0049830D01*
X0069825Y0049829D02*
X0066754Y0049829D01*
X0066754Y0049828D02*
X0069825Y0049828D01*
X0069825Y0049827D02*
X0066754Y0049827D01*
X0066754Y0049826D02*
X0069825Y0049826D01*
X0069825Y0049825D02*
X0066754Y0049825D01*
X0066754Y0049824D02*
X0069825Y0049824D01*
X0069825Y0049823D02*
X0066754Y0049823D01*
X0066754Y0049822D02*
X0069825Y0049822D01*
X0069825Y0049821D02*
X0066754Y0049821D01*
X0066754Y0049820D02*
X0069825Y0049820D01*
X0069825Y0049819D02*
X0066754Y0049819D01*
X0066754Y0049818D02*
X0069825Y0049818D01*
X0069825Y0049817D02*
X0066754Y0049817D01*
X0066754Y0049816D02*
X0069825Y0049816D01*
X0069825Y0049815D02*
X0066754Y0049815D01*
X0066754Y0049814D02*
X0069825Y0049814D01*
X0069825Y0049813D02*
X0066754Y0049813D01*
X0066754Y0049812D02*
X0069825Y0049812D01*
X0069825Y0049811D02*
X0066754Y0049811D01*
X0066754Y0049810D02*
X0069825Y0049810D01*
X0069825Y0049809D02*
X0066754Y0049809D01*
X0066754Y0049808D02*
X0069825Y0049808D01*
X0069825Y0049807D02*
X0066754Y0049807D01*
X0066754Y0049806D02*
X0069825Y0049806D01*
X0069825Y0049805D02*
X0066754Y0049805D01*
X0066754Y0049804D02*
X0069825Y0049804D01*
X0069825Y0049803D02*
X0066754Y0049803D01*
X0066754Y0049802D02*
X0069825Y0049802D01*
X0069825Y0049801D02*
X0066754Y0049801D01*
X0066754Y0049800D02*
X0069825Y0049800D01*
X0069825Y0049799D02*
X0066754Y0049799D01*
X0066754Y0049798D02*
X0069825Y0049798D01*
X0069825Y0049797D02*
X0066754Y0049797D01*
X0066754Y0049796D02*
X0069825Y0049796D01*
X0069825Y0049795D02*
X0066754Y0049795D01*
X0066754Y0049794D02*
X0069825Y0049794D01*
X0069825Y0049793D02*
X0066754Y0049793D01*
X0066754Y0049792D02*
X0069825Y0049792D01*
X0069825Y0049791D02*
X0066754Y0049791D01*
X0066754Y0049790D02*
X0069825Y0049790D01*
X0069825Y0049789D02*
X0066754Y0049789D01*
X0066754Y0049788D02*
X0069825Y0049788D01*
X0069825Y0049787D02*
X0066754Y0049787D01*
X0066754Y0049786D02*
X0069825Y0049786D01*
X0069825Y0049785D02*
X0066754Y0049785D01*
X0066754Y0049784D02*
X0069825Y0049784D01*
X0069825Y0049783D02*
X0066754Y0049783D01*
X0066754Y0049782D02*
X0069825Y0049782D01*
X0069825Y0049781D02*
X0066754Y0049781D01*
X0066754Y0049780D02*
X0069825Y0049780D01*
X0069825Y0049779D02*
X0066754Y0049779D01*
X0066754Y0049778D02*
X0069825Y0049778D01*
X0069825Y0049777D02*
X0066754Y0049777D01*
X0066754Y0049776D02*
X0069825Y0049776D01*
X0069825Y0049775D02*
X0066754Y0049775D01*
X0066754Y0049774D02*
X0069825Y0049774D01*
X0069825Y0049773D02*
X0066754Y0049773D01*
X0066754Y0049772D02*
X0069825Y0049772D01*
X0069825Y0049771D02*
X0066754Y0049771D01*
X0066754Y0049770D02*
X0069825Y0049770D01*
X0069825Y0049769D02*
X0066754Y0049769D01*
X0069825Y0049769D01*
X0069825Y0049768D02*
X0066754Y0049768D01*
X0066754Y0049767D02*
X0069825Y0049767D01*
X0069825Y0049766D02*
X0066754Y0049766D01*
X0066754Y0049765D02*
X0069825Y0049765D01*
X0069825Y0049764D02*
X0066754Y0049764D01*
X0066754Y0049763D02*
X0069825Y0049763D01*
X0069825Y0049762D02*
X0066754Y0049762D01*
X0066754Y0049761D02*
X0069825Y0049761D01*
X0069825Y0049760D02*
X0066754Y0049760D01*
X0066754Y0049759D02*
X0069825Y0049759D01*
X0069825Y0049758D02*
X0066754Y0049758D01*
X0066754Y0049757D02*
X0069825Y0049757D01*
X0069825Y0049756D02*
X0066754Y0049756D01*
X0066754Y0049755D02*
X0069825Y0049755D01*
X0069825Y0049754D02*
X0066754Y0049754D01*
X0066754Y0049753D02*
X0069825Y0049753D01*
X0069825Y0049752D02*
X0066754Y0049752D01*
X0066754Y0049751D02*
X0069825Y0049751D01*
X0069825Y0049750D02*
X0066754Y0049750D01*
X0066754Y0049749D02*
X0069825Y0049749D01*
X0069825Y0049748D02*
X0066754Y0049748D01*
X0066754Y0049747D02*
X0069825Y0049747D01*
X0069825Y0049746D02*
X0066754Y0049746D01*
X0066754Y0049745D02*
X0069825Y0049745D01*
X0069825Y0049744D02*
X0066754Y0049744D01*
X0066754Y0049743D02*
X0069825Y0049743D01*
X0069825Y0049742D02*
X0066754Y0049742D01*
X0066754Y0049741D02*
X0069825Y0049741D01*
X0069825Y0049740D02*
X0066754Y0049740D01*
X0066754Y0049739D02*
X0069825Y0049739D01*
X0069825Y0049738D02*
X0066754Y0049738D01*
X0066754Y0049737D02*
X0069825Y0049737D01*
X0069825Y0049736D02*
X0066754Y0049736D01*
X0066754Y0049735D02*
X0069825Y0049735D01*
X0069825Y0049734D02*
X0066754Y0049734D01*
X0066754Y0049733D02*
X0069825Y0049733D01*
X0069825Y0049732D02*
X0066754Y0049732D01*
X0066754Y0049731D02*
X0069825Y0049731D01*
X0069825Y0049730D02*
X0066754Y0049730D01*
X0066754Y0049729D02*
X0069825Y0049729D01*
X0069825Y0049728D02*
X0066754Y0049728D01*
X0066754Y0049727D02*
X0069825Y0049727D01*
X0069825Y0049726D02*
X0066754Y0049726D01*
X0066754Y0049725D02*
X0069825Y0049725D01*
X0069825Y0049724D02*
X0066754Y0049724D01*
X0066754Y0049723D02*
X0069825Y0049723D01*
X0069825Y0049722D02*
X0066754Y0049722D01*
X0066754Y0049721D02*
X0069825Y0049721D01*
X0069825Y0049720D02*
X0066754Y0049720D01*
X0066754Y0049719D02*
X0069825Y0049719D01*
X0069825Y0049718D02*
X0066754Y0049718D01*
X0066754Y0049717D02*
X0069825Y0049717D01*
X0069825Y0049716D02*
X0066754Y0049716D01*
X0066754Y0049715D02*
X0069825Y0049715D01*
X0069825Y0049714D02*
X0066754Y0049714D01*
X0066754Y0049713D02*
X0069825Y0049713D01*
X0069825Y0049712D02*
X0066754Y0049712D01*
X0066754Y0049711D02*
X0069825Y0049711D01*
X0069825Y0049710D02*
X0066754Y0049710D01*
X0066754Y0049709D02*
X0069825Y0049709D01*
X0069825Y0049708D02*
X0066754Y0049708D01*
X0066754Y0049707D02*
X0069825Y0049707D01*
X0069825Y0049706D02*
X0066754Y0049706D01*
X0069825Y0049706D01*
X0069825Y0049705D02*
X0066754Y0049705D01*
X0066754Y0049704D02*
X0069825Y0049704D01*
X0069825Y0049703D02*
X0066754Y0049703D01*
X0066754Y0049702D02*
X0069825Y0049702D01*
X0069825Y0049701D02*
X0066754Y0049701D01*
X0066754Y0049700D02*
X0069825Y0049700D01*
X0069825Y0049699D02*
X0066754Y0049699D01*
X0066754Y0049698D02*
X0069825Y0049698D01*
X0069825Y0049697D02*
X0066754Y0049697D01*
X0066754Y0049696D02*
X0069825Y0049696D01*
X0069825Y0049695D02*
X0066754Y0049695D01*
X0066754Y0049694D02*
X0069825Y0049694D01*
X0069825Y0049693D02*
X0066754Y0049693D01*
X0066754Y0049692D02*
X0069825Y0049692D01*
X0069825Y0049691D02*
X0066754Y0049691D01*
X0066754Y0049690D02*
X0069825Y0049690D01*
X0069825Y0049689D02*
X0066754Y0049689D01*
X0066754Y0049688D02*
X0069825Y0049688D01*
X0069825Y0049687D02*
X0066754Y0049687D01*
X0066754Y0049686D02*
X0069825Y0049686D01*
X0069825Y0049685D02*
X0066754Y0049685D01*
X0066754Y0049684D02*
X0069825Y0049684D01*
X0069825Y0049683D02*
X0066754Y0049683D01*
X0066754Y0049682D02*
X0069825Y0049682D01*
X0069825Y0049681D02*
X0066754Y0049681D01*
X0066754Y0049680D02*
X0069825Y0049680D01*
X0069825Y0049679D02*
X0066754Y0049679D01*
X0066754Y0049678D02*
X0069825Y0049678D01*
X0069825Y0049677D02*
X0066754Y0049677D01*
X0066754Y0049676D02*
X0069825Y0049676D01*
X0069825Y0049675D02*
X0066754Y0049675D01*
X0066754Y0049674D02*
X0069825Y0049674D01*
X0069825Y0049673D02*
X0066754Y0049673D01*
X0066754Y0049672D02*
X0069825Y0049672D01*
X0069825Y0049671D02*
X0066754Y0049671D01*
X0066754Y0049670D02*
X0069825Y0049670D01*
X0069825Y0049669D02*
X0066754Y0049669D01*
X0066754Y0049668D02*
X0069825Y0049668D01*
X0069825Y0049667D02*
X0066754Y0049667D01*
X0066754Y0049666D02*
X0069825Y0049666D01*
X0069825Y0049665D02*
X0066754Y0049665D01*
X0066754Y0049664D02*
X0069825Y0049664D01*
X0069825Y0049663D02*
X0066754Y0049663D01*
X0066754Y0049662D02*
X0069825Y0049662D01*
X0069825Y0049661D02*
X0066754Y0049661D01*
X0066754Y0049660D02*
X0069825Y0049660D01*
X0069825Y0049659D02*
X0066754Y0049659D01*
X0066754Y0049658D02*
X0069825Y0049658D01*
X0069825Y0049657D02*
X0066754Y0049657D01*
X0066754Y0049656D02*
X0069825Y0049656D01*
X0069825Y0049655D02*
X0066754Y0049655D01*
X0066754Y0049654D02*
X0069825Y0049654D01*
X0069825Y0049653D02*
X0066754Y0049653D01*
X0066754Y0049652D02*
X0069825Y0049652D01*
X0069825Y0049651D02*
X0066754Y0049651D01*
X0066754Y0049650D02*
X0069825Y0049650D01*
X0069825Y0049649D02*
X0066754Y0049649D01*
X0066754Y0049648D02*
X0069825Y0049648D01*
X0069825Y0049647D02*
X0066754Y0049647D01*
X0066754Y0049646D02*
X0069825Y0049646D01*
X0069825Y0049645D02*
X0066754Y0049645D01*
X0066754Y0049644D02*
X0069825Y0049644D01*
X0066754Y0049644D01*
X0066754Y0049643D02*
X0069825Y0049643D01*
X0069825Y0049642D02*
X0066754Y0049642D01*
X0066754Y0049641D02*
X0069825Y0049641D01*
X0069825Y0049640D02*
X0066754Y0049640D01*
X0066754Y0049639D02*
X0069825Y0049639D01*
X0069825Y0049638D02*
X0066754Y0049638D01*
X0066754Y0049637D02*
X0069825Y0049637D01*
X0069825Y0049636D02*
X0066754Y0049636D01*
X0066754Y0049635D02*
X0069825Y0049635D01*
X0069825Y0049634D02*
X0066754Y0049634D01*
X0066754Y0049633D02*
X0069825Y0049633D01*
X0069825Y0049632D02*
X0066754Y0049632D01*
X0066754Y0049631D02*
X0069825Y0049631D01*
X0069825Y0049630D02*
X0066754Y0049630D01*
X0066754Y0049629D02*
X0069825Y0049629D01*
X0069825Y0049628D02*
X0066754Y0049628D01*
X0066754Y0049627D02*
X0069825Y0049627D01*
X0069825Y0049626D02*
X0066754Y0049626D01*
X0066754Y0049625D02*
X0069825Y0049625D01*
X0069825Y0049624D02*
X0066754Y0049624D01*
X0066754Y0049623D02*
X0069825Y0049623D01*
X0069825Y0049622D02*
X0066754Y0049622D01*
X0066754Y0049621D02*
X0069825Y0049621D01*
X0069825Y0049620D02*
X0066754Y0049620D01*
X0066754Y0049619D02*
X0069825Y0049619D01*
X0069825Y0049618D02*
X0066754Y0049618D01*
X0066754Y0049617D02*
X0069825Y0049617D01*
X0069825Y0049616D02*
X0066754Y0049616D01*
X0066754Y0049615D02*
X0069825Y0049615D01*
X0069825Y0049614D02*
X0066754Y0049614D01*
X0066754Y0049613D02*
X0069825Y0049613D01*
X0069825Y0049612D02*
X0066754Y0049612D01*
X0066754Y0049611D02*
X0069825Y0049611D01*
X0069825Y0049610D02*
X0066754Y0049610D01*
X0066754Y0049609D02*
X0069825Y0049609D01*
X0069825Y0049608D02*
X0066754Y0049608D01*
X0066754Y0049607D02*
X0069825Y0049607D01*
X0069825Y0049606D02*
X0066754Y0049606D01*
X0066754Y0049605D02*
X0069825Y0049605D01*
X0069825Y0049604D02*
X0066754Y0049604D01*
X0066754Y0049603D02*
X0069825Y0049603D01*
X0069825Y0049602D02*
X0066754Y0049602D01*
X0066754Y0049601D02*
X0069825Y0049601D01*
X0069825Y0049600D02*
X0066754Y0049600D01*
X0066754Y0049599D02*
X0069825Y0049599D01*
X0069825Y0049598D02*
X0066754Y0049598D01*
X0066754Y0049597D02*
X0069825Y0049597D01*
X0069825Y0049596D02*
X0066754Y0049596D01*
X0066754Y0049595D02*
X0069825Y0049595D01*
X0069825Y0049594D02*
X0066754Y0049594D01*
X0066754Y0049593D02*
X0069825Y0049593D01*
X0069825Y0049592D02*
X0066754Y0049592D01*
X0066754Y0049591D02*
X0069825Y0049591D01*
X0069825Y0049590D02*
X0066754Y0049590D01*
X0066754Y0049589D02*
X0069825Y0049589D01*
X0069825Y0049588D02*
X0066754Y0049588D01*
X0066754Y0049587D02*
X0069825Y0049587D01*
X0069825Y0049586D02*
X0066754Y0049586D01*
X0066754Y0049585D02*
X0069825Y0049585D01*
X0069825Y0049584D02*
X0066754Y0049584D01*
X0066754Y0049583D02*
X0069825Y0049583D01*
X0069825Y0049582D02*
X0066754Y0049582D01*
X0066754Y0049581D02*
X0069825Y0049581D01*
X0066754Y0049581D01*
X0066754Y0049580D02*
X0069825Y0049580D01*
X0069825Y0049579D02*
X0066754Y0049579D01*
X0066754Y0049578D02*
X0069825Y0049578D01*
X0069825Y0049577D02*
X0066754Y0049577D01*
X0066754Y0049576D02*
X0069825Y0049576D01*
X0069825Y0049575D02*
X0066754Y0049575D01*
X0066754Y0049574D02*
X0069825Y0049574D01*
X0069825Y0049573D02*
X0066754Y0049573D01*
X0066754Y0049572D02*
X0069825Y0049572D01*
X0069825Y0049571D02*
X0066754Y0049571D01*
X0066754Y0049570D02*
X0069825Y0049570D01*
X0069825Y0049569D02*
X0066754Y0049569D01*
X0066754Y0049568D02*
X0069825Y0049568D01*
X0069825Y0049567D02*
X0066754Y0049567D01*
X0066754Y0049566D02*
X0069825Y0049566D01*
X0069825Y0049565D02*
X0066754Y0049565D01*
X0066754Y0049564D02*
X0069825Y0049564D01*
X0069825Y0049563D02*
X0066754Y0049563D01*
X0066754Y0049562D02*
X0069825Y0049562D01*
X0069825Y0049561D02*
X0066754Y0049561D01*
X0066754Y0049560D02*
X0069825Y0049560D01*
X0069825Y0049559D02*
X0066754Y0049559D01*
X0066754Y0049558D02*
X0069825Y0049558D01*
X0069825Y0049557D02*
X0066754Y0049557D01*
X0066754Y0049556D02*
X0069825Y0049556D01*
X0069825Y0049555D02*
X0066754Y0049555D01*
X0066754Y0049554D02*
X0069825Y0049554D01*
X0069825Y0049553D02*
X0066754Y0049553D01*
X0066754Y0049552D02*
X0069825Y0049552D01*
X0069825Y0049551D02*
X0066754Y0049551D01*
X0066754Y0049550D02*
X0069825Y0049550D01*
X0069825Y0049549D02*
X0066754Y0049549D01*
X0066754Y0049548D02*
X0069825Y0049548D01*
X0069825Y0049547D02*
X0066754Y0049547D01*
X0066754Y0049546D02*
X0069825Y0049546D01*
X0069825Y0049545D02*
X0066754Y0049545D01*
X0066754Y0049544D02*
X0069825Y0049544D01*
X0069825Y0049543D02*
X0066754Y0049543D01*
X0066754Y0049542D02*
X0069825Y0049542D01*
X0069825Y0049541D02*
X0066754Y0049541D01*
X0066754Y0049540D02*
X0069825Y0049540D01*
X0069825Y0049539D02*
X0066754Y0049539D01*
X0066754Y0049538D02*
X0069825Y0049538D01*
X0069825Y0049537D02*
X0066754Y0049537D01*
X0066754Y0049536D02*
X0069825Y0049536D01*
X0069825Y0049535D02*
X0066754Y0049535D01*
X0066754Y0049534D02*
X0069825Y0049534D01*
X0069825Y0049533D02*
X0066754Y0049533D01*
X0066754Y0049532D02*
X0069825Y0049532D01*
X0069825Y0049531D02*
X0066754Y0049531D01*
X0066754Y0049530D02*
X0069825Y0049530D01*
X0069825Y0049529D02*
X0066754Y0049529D01*
X0066754Y0049528D02*
X0069825Y0049528D01*
X0069825Y0049527D02*
X0066754Y0049527D01*
X0066754Y0049526D02*
X0069825Y0049526D01*
X0069825Y0049525D02*
X0066754Y0049525D01*
X0066754Y0049524D02*
X0069825Y0049524D01*
X0069825Y0049523D02*
X0066754Y0049523D01*
X0066754Y0049522D02*
X0069825Y0049522D01*
X0069825Y0049521D02*
X0066754Y0049521D01*
X0066754Y0049520D02*
X0069825Y0049520D01*
X0069825Y0049519D02*
X0066754Y0049519D01*
X0069825Y0049519D01*
X0069825Y0049518D02*
X0066754Y0049518D01*
X0066754Y0049517D02*
X0069825Y0049517D01*
X0069825Y0049516D02*
X0066754Y0049516D01*
X0066754Y0049515D02*
X0069825Y0049515D01*
X0069825Y0049514D02*
X0066754Y0049514D01*
X0066754Y0049513D02*
X0069825Y0049513D01*
X0069825Y0049512D02*
X0066754Y0049512D01*
X0066754Y0049511D02*
X0069825Y0049511D01*
X0069825Y0049510D02*
X0066754Y0049510D01*
X0066754Y0049509D02*
X0069825Y0049509D01*
X0069825Y0049508D02*
X0066754Y0049508D01*
X0066754Y0049507D02*
X0069825Y0049507D01*
X0069825Y0049506D02*
X0066754Y0049506D01*
X0066754Y0049505D02*
X0069825Y0049505D01*
X0069825Y0049504D02*
X0066754Y0049504D01*
X0066754Y0049503D02*
X0069825Y0049503D01*
X0069825Y0049502D02*
X0066754Y0049502D01*
X0066754Y0049501D02*
X0069825Y0049501D01*
X0069825Y0049500D02*
X0066754Y0049500D01*
X0066754Y0049499D02*
X0069825Y0049499D01*
X0069825Y0049498D02*
X0066754Y0049498D01*
X0066754Y0049497D02*
X0069825Y0049497D01*
X0069825Y0049496D02*
X0066754Y0049496D01*
X0066754Y0049495D02*
X0069825Y0049495D01*
X0069825Y0049494D02*
X0066754Y0049494D01*
X0066754Y0049493D02*
X0069825Y0049493D01*
X0069825Y0049492D02*
X0066754Y0049492D01*
X0066754Y0049491D02*
X0069825Y0049491D01*
X0069825Y0049490D02*
X0066754Y0049490D01*
X0066754Y0049489D02*
X0069825Y0049489D01*
X0069825Y0049488D02*
X0066754Y0049488D01*
X0066754Y0049487D02*
X0069825Y0049487D01*
X0069825Y0049486D02*
X0066754Y0049486D01*
X0066754Y0049485D02*
X0069825Y0049485D01*
X0069825Y0049484D02*
X0066754Y0049484D01*
X0066754Y0049483D02*
X0069825Y0049483D01*
X0069825Y0049482D02*
X0066754Y0049482D01*
X0066754Y0049481D02*
X0069825Y0049481D01*
X0069825Y0049480D02*
X0066754Y0049480D01*
X0066754Y0049479D02*
X0069825Y0049479D01*
X0069825Y0049478D02*
X0066754Y0049478D01*
X0066754Y0049477D02*
X0069825Y0049477D01*
X0069825Y0049476D02*
X0066754Y0049476D01*
X0066754Y0049475D02*
X0069825Y0049475D01*
X0069825Y0049474D02*
X0066754Y0049474D01*
X0066754Y0049473D02*
X0069825Y0049473D01*
X0069825Y0049472D02*
X0066754Y0049472D01*
X0066754Y0049471D02*
X0069825Y0049471D01*
X0069825Y0049470D02*
X0066754Y0049470D01*
X0066754Y0049469D02*
X0069825Y0049469D01*
X0069825Y0049468D02*
X0066754Y0049468D01*
X0066754Y0049467D02*
X0069825Y0049467D01*
X0069825Y0049466D02*
X0066754Y0049466D01*
X0066754Y0049465D02*
X0069825Y0049465D01*
X0069825Y0049464D02*
X0066754Y0049464D01*
X0066754Y0049463D02*
X0069825Y0049463D01*
X0069825Y0049462D02*
X0066754Y0049462D01*
X0066754Y0049461D02*
X0069825Y0049461D01*
X0069825Y0049460D02*
X0066754Y0049460D01*
X0066754Y0049459D02*
X0069825Y0049459D01*
X0069825Y0049458D02*
X0066754Y0049458D01*
X0066754Y0049457D02*
X0069825Y0049457D01*
X0069825Y0049456D02*
X0066754Y0049456D01*
X0069825Y0049456D01*
X0069825Y0049455D02*
X0066754Y0049455D01*
X0066754Y0049454D02*
X0069825Y0049454D01*
X0069825Y0049453D02*
X0066754Y0049453D01*
X0066754Y0049452D02*
X0069825Y0049452D01*
X0069825Y0049451D02*
X0066754Y0049451D01*
X0066754Y0049450D02*
X0069825Y0049450D01*
X0069825Y0049449D02*
X0066754Y0049449D01*
X0066754Y0049448D02*
X0069825Y0049448D01*
X0069825Y0049447D02*
X0066754Y0049447D01*
X0066754Y0049446D02*
X0069825Y0049446D01*
X0069825Y0049445D02*
X0066754Y0049445D01*
X0066754Y0049444D02*
X0069825Y0049444D01*
X0069825Y0049443D02*
X0066754Y0049443D01*
X0066754Y0049442D02*
X0069825Y0049442D01*
X0069825Y0049441D02*
X0066754Y0049441D01*
X0066754Y0049440D02*
X0069825Y0049440D01*
X0069825Y0049439D02*
X0066754Y0049439D01*
X0066754Y0049438D02*
X0069825Y0049438D01*
X0069825Y0049437D02*
X0066754Y0049437D01*
X0066754Y0049436D02*
X0069825Y0049436D01*
X0069825Y0049435D02*
X0066754Y0049435D01*
X0066754Y0049434D02*
X0069825Y0049434D01*
X0069825Y0049433D02*
X0066754Y0049433D01*
X0066754Y0049432D02*
X0069825Y0049432D01*
X0069825Y0049431D02*
X0066754Y0049431D01*
X0066754Y0049430D02*
X0069825Y0049430D01*
X0069825Y0049429D02*
X0066754Y0049429D01*
X0066754Y0049428D02*
X0069825Y0049428D01*
X0069825Y0049427D02*
X0066754Y0049427D01*
X0066754Y0049426D02*
X0069825Y0049426D01*
X0069825Y0049425D02*
X0066754Y0049425D01*
X0066754Y0049424D02*
X0069825Y0049424D01*
X0069825Y0049423D02*
X0066754Y0049423D01*
X0066754Y0049422D02*
X0069825Y0049422D01*
X0069825Y0049421D02*
X0066754Y0049421D01*
X0066754Y0049420D02*
X0069825Y0049420D01*
X0069825Y0049419D02*
X0066754Y0049419D01*
X0066754Y0049418D02*
X0069825Y0049418D01*
X0069825Y0049417D02*
X0066754Y0049417D01*
X0066754Y0049416D02*
X0069825Y0049416D01*
X0069825Y0049415D02*
X0066754Y0049415D01*
X0066754Y0049414D02*
X0069825Y0049414D01*
X0069825Y0049413D02*
X0066754Y0049413D01*
X0066754Y0049412D02*
X0069825Y0049412D01*
X0069825Y0049411D02*
X0066754Y0049411D01*
X0066754Y0049410D02*
X0069825Y0049410D01*
X0069825Y0049409D02*
X0066754Y0049409D01*
X0066754Y0049408D02*
X0069825Y0049408D01*
X0069825Y0049407D02*
X0066754Y0049407D01*
X0066754Y0049406D02*
X0069825Y0049406D01*
X0069825Y0049405D02*
X0066754Y0049405D01*
X0066754Y0049404D02*
X0069825Y0049404D01*
X0069825Y0049403D02*
X0066754Y0049403D01*
X0066754Y0049402D02*
X0069825Y0049402D01*
X0069825Y0049401D02*
X0066754Y0049401D01*
X0066754Y0049400D02*
X0069825Y0049400D01*
X0069825Y0049399D02*
X0066754Y0049399D01*
X0066754Y0049398D02*
X0069825Y0049398D01*
X0069825Y0049397D02*
X0066754Y0049397D01*
X0066754Y0049396D02*
X0069825Y0049396D01*
X0069825Y0049395D02*
X0066754Y0049395D01*
X0066754Y0049394D02*
X0069825Y0049394D01*
X0066754Y0049394D01*
X0066754Y0049393D02*
X0069825Y0049393D01*
X0069825Y0049392D02*
X0066754Y0049392D01*
X0066754Y0049391D02*
X0069825Y0049391D01*
X0069825Y0049390D02*
X0066754Y0049390D01*
X0066754Y0049389D02*
X0069825Y0049389D01*
X0069825Y0049388D02*
X0066754Y0049388D01*
X0066754Y0049387D02*
X0069825Y0049387D01*
X0069825Y0049386D02*
X0066754Y0049386D01*
X0066754Y0049385D02*
X0069825Y0049385D01*
X0069825Y0049384D02*
X0066754Y0049384D01*
X0066754Y0049383D02*
X0069825Y0049383D01*
X0069825Y0049382D02*
X0066754Y0049382D01*
X0066754Y0049381D02*
X0069825Y0049381D01*
X0069825Y0049380D02*
X0066754Y0049380D01*
X0066754Y0049379D02*
X0069825Y0049379D01*
X0069825Y0049378D02*
X0066754Y0049378D01*
X0066754Y0049377D02*
X0069825Y0049377D01*
X0069825Y0049376D02*
X0066754Y0049376D01*
X0066754Y0049375D02*
X0069825Y0049375D01*
X0069825Y0049374D02*
X0066754Y0049374D01*
X0066754Y0049373D02*
X0069825Y0049373D01*
X0069825Y0049372D02*
X0066754Y0049372D01*
X0066754Y0049371D02*
X0069825Y0049371D01*
X0069825Y0049370D02*
X0066754Y0049370D01*
X0066754Y0049369D02*
X0069825Y0049369D01*
X0069825Y0049368D02*
X0066754Y0049368D01*
X0066754Y0049367D02*
X0069825Y0049367D01*
X0069825Y0049366D02*
X0066754Y0049366D01*
X0066754Y0049365D02*
X0069825Y0049365D01*
X0069825Y0049364D02*
X0066754Y0049364D01*
X0066754Y0049363D02*
X0069825Y0049363D01*
X0069825Y0049362D02*
X0066754Y0049362D01*
X0066754Y0049361D02*
X0069825Y0049361D01*
X0069825Y0049360D02*
X0066754Y0049360D01*
X0066754Y0049359D02*
X0069825Y0049359D01*
X0069825Y0049358D02*
X0066754Y0049358D01*
X0066754Y0049357D02*
X0069825Y0049357D01*
X0069825Y0049356D02*
X0066754Y0049356D01*
X0066754Y0049355D02*
X0069825Y0049355D01*
X0069825Y0049354D02*
X0066754Y0049354D01*
X0066754Y0049353D02*
X0069825Y0049353D01*
X0069825Y0049352D02*
X0066754Y0049352D01*
X0066754Y0049351D02*
X0069825Y0049351D01*
X0069825Y0049350D02*
X0066754Y0049350D01*
X0066754Y0049349D02*
X0069825Y0049349D01*
X0069825Y0049348D02*
X0066754Y0049348D01*
X0066754Y0049347D02*
X0069825Y0049347D01*
X0069825Y0049346D02*
X0066754Y0049346D01*
X0066754Y0049345D02*
X0069825Y0049345D01*
X0069825Y0049344D02*
X0066754Y0049344D01*
X0066754Y0049343D02*
X0069825Y0049343D01*
X0069825Y0049342D02*
X0066754Y0049342D01*
X0066754Y0049341D02*
X0069825Y0049341D01*
X0069825Y0049340D02*
X0066754Y0049340D01*
X0066754Y0049339D02*
X0069825Y0049339D01*
X0069825Y0049338D02*
X0066754Y0049338D01*
X0066754Y0049337D02*
X0069825Y0049337D01*
X0069825Y0049336D02*
X0066754Y0049336D01*
X0066754Y0049335D02*
X0069825Y0049335D01*
X0069825Y0049334D02*
X0066754Y0049334D01*
X0066754Y0049333D02*
X0069825Y0049333D01*
X0069825Y0049332D02*
X0066754Y0049332D01*
X0066754Y0049331D02*
X0069825Y0049331D01*
X0066754Y0049331D01*
X0066754Y0049330D02*
X0069825Y0049330D01*
X0069825Y0049329D02*
X0066754Y0049329D01*
X0066754Y0049328D02*
X0069825Y0049328D01*
X0069825Y0049327D02*
X0066754Y0049327D01*
X0066754Y0049326D02*
X0069825Y0049326D01*
X0069825Y0049325D02*
X0066754Y0049325D01*
X0066754Y0049324D02*
X0069825Y0049324D01*
X0069825Y0049323D02*
X0066754Y0049323D01*
X0066754Y0049322D02*
X0069825Y0049322D01*
X0069825Y0049321D02*
X0066754Y0049321D01*
X0066754Y0049320D02*
X0069825Y0049320D01*
X0069825Y0049319D02*
X0066754Y0049319D01*
X0066754Y0049318D02*
X0069825Y0049318D01*
X0069825Y0049317D02*
X0066754Y0049317D01*
X0066754Y0049316D02*
X0069825Y0049316D01*
X0069825Y0049315D02*
X0066754Y0049315D01*
X0066754Y0049314D02*
X0069825Y0049314D01*
X0069825Y0049313D02*
X0066754Y0049313D01*
X0066754Y0049312D02*
X0069825Y0049312D01*
X0069825Y0049311D02*
X0066754Y0049311D01*
X0066754Y0049310D02*
X0069825Y0049310D01*
X0069825Y0049309D02*
X0066754Y0049309D01*
X0066754Y0049308D02*
X0069825Y0049308D01*
X0069825Y0049307D02*
X0066754Y0049307D01*
X0066754Y0049306D02*
X0069825Y0049306D01*
X0069825Y0049305D02*
X0066754Y0049305D01*
X0066754Y0049304D02*
X0069825Y0049304D01*
X0069825Y0049303D02*
X0066754Y0049303D01*
X0066754Y0049302D02*
X0069825Y0049302D01*
X0069825Y0049301D02*
X0066754Y0049301D01*
X0066754Y0049300D02*
X0069825Y0049300D01*
X0069825Y0049299D02*
X0066754Y0049299D01*
X0066754Y0049298D02*
X0069825Y0049298D01*
X0069825Y0049297D02*
X0066754Y0049297D01*
X0066754Y0049296D02*
X0069825Y0049296D01*
X0069825Y0049295D02*
X0066754Y0049295D01*
X0066754Y0049294D02*
X0069825Y0049294D01*
X0069825Y0049293D02*
X0066754Y0049293D01*
X0066754Y0049292D02*
X0069825Y0049292D01*
X0069825Y0049291D02*
X0066754Y0049291D01*
X0066754Y0049290D02*
X0069825Y0049290D01*
X0069825Y0049289D02*
X0066754Y0049289D01*
X0066754Y0049288D02*
X0069825Y0049288D01*
X0069825Y0049287D02*
X0066754Y0049287D01*
X0066754Y0049286D02*
X0069825Y0049286D01*
X0069825Y0049285D02*
X0066754Y0049285D01*
X0066754Y0049284D02*
X0069825Y0049284D01*
X0069825Y0049283D02*
X0066754Y0049283D01*
X0066754Y0049282D02*
X0069825Y0049282D01*
X0069825Y0049281D02*
X0066754Y0049281D01*
X0066754Y0049280D02*
X0069825Y0049280D01*
X0069825Y0049279D02*
X0066754Y0049279D01*
X0066754Y0049278D02*
X0069825Y0049278D01*
X0069825Y0049277D02*
X0066754Y0049277D01*
X0066754Y0049276D02*
X0069825Y0049276D01*
X0069825Y0049275D02*
X0066754Y0049275D01*
X0066754Y0049274D02*
X0069825Y0049274D01*
X0069825Y0049273D02*
X0066754Y0049273D01*
X0066754Y0049272D02*
X0069825Y0049272D01*
X0069825Y0049271D02*
X0066754Y0049271D01*
X0066754Y0049270D02*
X0069825Y0049270D01*
X0069825Y0049269D02*
X0066754Y0049269D01*
X0069825Y0049269D01*
X0069825Y0049268D02*
X0066754Y0049268D01*
X0066754Y0049267D02*
X0069825Y0049267D01*
X0069825Y0049266D02*
X0066754Y0049266D01*
X0066754Y0049265D02*
X0069825Y0049265D01*
X0069825Y0049264D02*
X0066754Y0049264D01*
X0066754Y0049263D02*
X0069825Y0049263D01*
X0069825Y0049262D02*
X0066754Y0049262D01*
X0066754Y0049261D02*
X0069825Y0049261D01*
X0069825Y0049260D02*
X0066754Y0049260D01*
X0066754Y0049259D02*
X0069825Y0049259D01*
X0069825Y0049258D02*
X0066754Y0049258D01*
X0066754Y0049257D02*
X0069825Y0049257D01*
X0069825Y0049256D02*
X0066754Y0049256D01*
X0066754Y0049255D02*
X0069825Y0049255D01*
X0069825Y0049254D02*
X0066754Y0049254D01*
X0066754Y0049253D02*
X0069825Y0049253D01*
X0069825Y0049252D02*
X0066754Y0049252D01*
X0066754Y0049251D02*
X0069825Y0049251D01*
X0069825Y0049250D02*
X0066754Y0049250D01*
X0066754Y0049249D02*
X0069825Y0049249D01*
X0069825Y0049248D02*
X0066754Y0049248D01*
X0066754Y0049247D02*
X0069825Y0049247D01*
X0069825Y0049246D02*
X0066754Y0049246D01*
X0066754Y0049245D02*
X0069825Y0049245D01*
X0069825Y0049244D02*
X0066754Y0049244D01*
X0066754Y0049243D02*
X0069825Y0049243D01*
X0069825Y0049242D02*
X0066754Y0049242D01*
X0066754Y0049241D02*
X0069825Y0049241D01*
X0069825Y0049836D02*
X0066754Y0049836D01*
X0066754Y0049837D02*
X0069825Y0049837D01*
X0069825Y0049838D02*
X0066754Y0049838D01*
X0066754Y0049839D02*
X0069825Y0049839D01*
X0069825Y0049840D02*
X0066754Y0049840D01*
X0066754Y0049841D02*
X0069825Y0049841D01*
X0069825Y0049842D02*
X0066754Y0049842D01*
X0066754Y0049843D02*
X0069825Y0049843D01*
X0069825Y0049844D02*
X0066754Y0049844D01*
X0066754Y0049845D02*
X0069825Y0049845D01*
X0069825Y0049846D02*
X0066754Y0049846D01*
X0066754Y0049847D02*
X0069825Y0049847D01*
X0069825Y0049848D02*
X0066754Y0049848D01*
X0066754Y0049849D02*
X0069825Y0049849D01*
X0069825Y0049850D02*
X0066754Y0049850D01*
X0066754Y0049851D02*
X0069825Y0049851D01*
X0069825Y0049852D02*
X0066754Y0049852D01*
X0066754Y0049853D02*
X0069825Y0049853D01*
X0069825Y0049854D02*
X0066754Y0049854D01*
X0066754Y0049855D02*
X0069825Y0049855D01*
X0069825Y0049856D02*
X0066754Y0049856D01*
X0066754Y0049857D02*
X0069825Y0049857D01*
X0069825Y0049858D02*
X0066754Y0049858D01*
X0066754Y0049859D02*
X0069825Y0049859D01*
X0069825Y0049860D02*
X0066754Y0049860D01*
X0066754Y0049861D02*
X0069825Y0049861D01*
X0069825Y0049862D02*
X0066754Y0049862D01*
X0066754Y0049863D02*
X0069825Y0049863D01*
X0069825Y0049864D02*
X0066754Y0049864D01*
X0066754Y0049865D02*
X0069825Y0049865D01*
X0069825Y0049866D02*
X0066754Y0049866D01*
X0066754Y0049867D02*
X0069825Y0049867D01*
X0069825Y0049868D02*
X0066754Y0049868D01*
X0066754Y0049869D02*
X0069825Y0049869D01*
X0069825Y0049870D02*
X0066754Y0049870D01*
X0066754Y0049871D02*
X0069825Y0049871D01*
X0069825Y0049872D02*
X0066754Y0049872D01*
X0066754Y0049873D02*
X0069825Y0049873D01*
X0069825Y0049874D02*
X0066754Y0049874D01*
X0066754Y0049875D02*
X0069825Y0049875D01*
X0069825Y0049876D02*
X0066754Y0049876D01*
X0066754Y0049877D02*
X0069825Y0049877D01*
X0069825Y0049878D02*
X0066754Y0049878D01*
X0066754Y0049879D02*
X0069825Y0049879D01*
X0069825Y0049880D02*
X0066754Y0049880D01*
X0066754Y0049881D02*
X0069825Y0049881D01*
X0069825Y0049882D02*
X0066754Y0049882D01*
X0066754Y0049883D02*
X0069825Y0049883D01*
X0069825Y0049884D02*
X0066754Y0049884D01*
X0066754Y0049885D02*
X0069825Y0049885D01*
X0069825Y0049886D02*
X0066754Y0049886D01*
X0066754Y0049887D02*
X0069825Y0049887D01*
X0069825Y0049888D02*
X0066754Y0049888D01*
X0066754Y0049889D02*
X0069825Y0049889D01*
X0069825Y0049890D02*
X0066754Y0049890D01*
X0066754Y0049891D02*
X0069825Y0049891D01*
X0069825Y0049892D02*
X0066754Y0049892D01*
X0066754Y0049893D02*
X0069825Y0049893D01*
X0069825Y0049894D02*
X0066754Y0049894D01*
X0069825Y0049894D01*
X0069825Y0049895D02*
X0066754Y0049895D01*
X0066754Y0049896D02*
X0069825Y0049896D01*
X0069825Y0049897D02*
X0066754Y0049897D01*
X0066754Y0049898D02*
X0069825Y0049898D01*
X0069825Y0049899D02*
X0066754Y0049899D01*
X0066754Y0049900D02*
X0069825Y0049900D01*
X0069825Y0049901D02*
X0066754Y0049901D01*
X0066754Y0049902D02*
X0069825Y0049902D01*
X0069825Y0049903D02*
X0066754Y0049903D01*
X0066754Y0049904D02*
X0069825Y0049904D01*
X0069825Y0049905D02*
X0066754Y0049905D01*
X0066754Y0049906D02*
X0069825Y0049906D01*
X0069825Y0049907D02*
X0066754Y0049907D01*
X0066754Y0049908D02*
X0069825Y0049908D01*
X0069825Y0049909D02*
X0066754Y0049909D01*
X0066754Y0049910D02*
X0069825Y0049910D01*
X0069825Y0049911D02*
X0066754Y0049911D01*
X0066754Y0049912D02*
X0069825Y0049912D01*
X0069825Y0049913D02*
X0066754Y0049913D01*
X0066754Y0049914D02*
X0069825Y0049914D01*
X0069825Y0049915D02*
X0066754Y0049915D01*
X0066754Y0049916D02*
X0069825Y0049916D01*
X0069825Y0049917D02*
X0066754Y0049917D01*
X0066754Y0049918D02*
X0069825Y0049918D01*
X0069825Y0049919D02*
X0066754Y0049919D01*
X0066754Y0049920D02*
X0069825Y0049920D01*
X0069825Y0049921D02*
X0066754Y0049921D01*
X0066754Y0049922D02*
X0069825Y0049922D01*
X0069825Y0049923D02*
X0066754Y0049923D01*
X0066754Y0049924D02*
X0069825Y0049924D01*
X0069825Y0049925D02*
X0066754Y0049925D01*
X0066754Y0049926D02*
X0069825Y0049926D01*
X0069825Y0049927D02*
X0066754Y0049927D01*
X0066754Y0049928D02*
X0069825Y0049928D01*
X0069825Y0049929D02*
X0066754Y0049929D01*
X0066754Y0049930D02*
X0069825Y0049930D01*
X0069825Y0049931D02*
X0066754Y0049931D01*
X0066754Y0049932D02*
X0069825Y0049932D01*
X0069825Y0049933D02*
X0066754Y0049933D01*
X0066754Y0049934D02*
X0069825Y0049934D01*
X0069825Y0049935D02*
X0066754Y0049935D01*
X0066754Y0049936D02*
X0069825Y0049936D01*
X0069825Y0049937D02*
X0066754Y0049937D01*
X0066754Y0049938D02*
X0069825Y0049938D01*
X0069825Y0049939D02*
X0066754Y0049939D01*
X0066754Y0049940D02*
X0069825Y0049940D01*
X0069825Y0049941D02*
X0066754Y0049941D01*
X0066754Y0049942D02*
X0069825Y0049942D01*
X0069825Y0049943D02*
X0066754Y0049943D01*
X0066754Y0049944D02*
X0069825Y0049944D01*
X0069825Y0049945D02*
X0066754Y0049945D01*
X0066754Y0049946D02*
X0069825Y0049946D01*
X0069825Y0049947D02*
X0066754Y0049947D01*
X0066754Y0049948D02*
X0069825Y0049948D01*
X0069825Y0049949D02*
X0066754Y0049949D01*
X0066754Y0049950D02*
X0069825Y0049950D01*
X0069825Y0049951D02*
X0066754Y0049951D01*
X0066754Y0049952D02*
X0069825Y0049952D01*
X0069825Y0049953D02*
X0066754Y0049953D01*
X0066754Y0049954D02*
X0069825Y0049954D01*
X0069825Y0049955D02*
X0066754Y0049955D01*
X0066754Y0049956D02*
X0069825Y0049956D01*
X0066754Y0049956D01*
X0066754Y0049957D02*
X0069825Y0049957D01*
X0069825Y0049958D02*
X0066754Y0049958D01*
X0066754Y0049959D02*
X0069825Y0049959D01*
X0069825Y0049960D02*
X0066754Y0049960D01*
X0066754Y0049961D02*
X0069825Y0049961D01*
X0069825Y0049962D02*
X0066754Y0049962D01*
X0066754Y0049963D02*
X0069825Y0049963D01*
X0069825Y0049964D02*
X0066754Y0049964D01*
X0066754Y0049965D02*
X0069825Y0049965D01*
X0069825Y0049966D02*
X0066754Y0049966D01*
X0066754Y0049967D02*
X0069825Y0049967D01*
X0069825Y0049968D02*
X0066754Y0049968D01*
X0066754Y0049969D02*
X0069825Y0049969D01*
X0069825Y0049970D02*
X0066754Y0049970D01*
X0066754Y0049971D02*
X0069825Y0049971D01*
X0069825Y0049972D02*
X0066754Y0049972D01*
X0066754Y0049973D02*
X0069825Y0049973D01*
X0069825Y0049974D02*
X0066754Y0049974D01*
X0066754Y0049975D02*
X0069825Y0049975D01*
X0069825Y0049976D02*
X0066754Y0049976D01*
X0066754Y0049977D02*
X0069825Y0049977D01*
X0069825Y0049978D02*
X0066754Y0049978D01*
X0066754Y0049979D02*
X0069825Y0049979D01*
X0069825Y0049980D02*
X0066754Y0049980D01*
X0066754Y0049981D02*
X0069825Y0049981D01*
X0069825Y0049982D02*
X0066754Y0049982D01*
X0066754Y0049983D02*
X0069825Y0049983D01*
X0069825Y0049984D02*
X0066754Y0049984D01*
X0066754Y0049985D02*
X0069825Y0049985D01*
X0069825Y0049986D02*
X0066754Y0049986D01*
X0066754Y0049987D02*
X0069825Y0049987D01*
X0069825Y0049988D02*
X0066754Y0049988D01*
X0066754Y0049989D02*
X0069825Y0049989D01*
X0069825Y0049990D02*
X0066754Y0049990D01*
X0066754Y0049991D02*
X0069825Y0049991D01*
X0069825Y0049992D02*
X0066754Y0049992D01*
X0066754Y0049993D02*
X0069825Y0049993D01*
X0069825Y0049994D02*
X0066754Y0049994D01*
X0066754Y0049995D02*
X0069825Y0049995D01*
X0069825Y0049996D02*
X0066754Y0049996D01*
X0066754Y0049997D02*
X0069825Y0049997D01*
X0069825Y0049998D02*
X0066754Y0049998D01*
X0066754Y0049999D02*
X0069825Y0049999D01*
X0069825Y0050000D02*
X0066754Y0050000D01*
X0066754Y0050001D02*
X0069825Y0050001D01*
X0069825Y0050002D02*
X0066754Y0050002D01*
X0066754Y0050003D02*
X0069825Y0050003D01*
X0069825Y0050004D02*
X0066754Y0050004D01*
X0066754Y0050005D02*
X0069825Y0050005D01*
X0069825Y0050006D02*
X0066754Y0050006D01*
X0066754Y0050007D02*
X0069825Y0050007D01*
X0069825Y0050008D02*
X0066754Y0050008D01*
X0066754Y0050009D02*
X0069825Y0050009D01*
X0069825Y0050010D02*
X0066754Y0050010D01*
X0066754Y0050011D02*
X0069825Y0050011D01*
X0069825Y0050012D02*
X0066754Y0050012D01*
X0066754Y0050013D02*
X0069825Y0050013D01*
X0069825Y0050014D02*
X0066754Y0050014D01*
X0066754Y0050015D02*
X0069825Y0050015D01*
X0069825Y0050016D02*
X0066754Y0050016D01*
X0066754Y0050017D02*
X0069825Y0050017D01*
X0069825Y0050018D02*
X0066754Y0050018D01*
X0066754Y0050019D02*
X0069825Y0050019D01*
X0066754Y0050019D01*
X0066754Y0050020D02*
X0069825Y0050020D01*
X0069825Y0050021D02*
X0066754Y0050021D01*
X0066754Y0050022D02*
X0069825Y0050022D01*
X0069825Y0050023D02*
X0066754Y0050023D01*
X0066754Y0050024D02*
X0069825Y0050024D01*
X0069825Y0050025D02*
X0066754Y0050025D01*
X0066754Y0050026D02*
X0069825Y0050026D01*
X0069825Y0050027D02*
X0066754Y0050027D01*
X0066754Y0050028D02*
X0069825Y0050028D01*
X0069825Y0050029D02*
X0066754Y0050029D01*
X0066754Y0050030D02*
X0069825Y0050030D01*
X0069825Y0050031D02*
X0066754Y0050031D01*
X0066754Y0050032D02*
X0069825Y0050032D01*
X0069825Y0050033D02*
X0066754Y0050033D01*
X0066754Y0050034D02*
X0069825Y0050034D01*
X0069825Y0050035D02*
X0066754Y0050035D01*
X0066754Y0050036D02*
X0069825Y0050036D01*
X0069825Y0050037D02*
X0066754Y0050037D01*
X0066754Y0050038D02*
X0069825Y0050038D01*
X0069825Y0050039D02*
X0066754Y0050039D01*
X0066754Y0050040D02*
X0069825Y0050040D01*
X0069825Y0050041D02*
X0066754Y0050041D01*
X0066754Y0050042D02*
X0069825Y0050042D01*
X0069825Y0050043D02*
X0066754Y0050043D01*
X0066754Y0050044D02*
X0069825Y0050044D01*
X0069825Y0050045D02*
X0066754Y0050045D01*
X0066754Y0050046D02*
X0069825Y0050046D01*
X0069825Y0050047D02*
X0066754Y0050047D01*
X0066754Y0050048D02*
X0069825Y0050048D01*
X0069825Y0050049D02*
X0066754Y0050049D01*
X0066754Y0050050D02*
X0069825Y0050050D01*
X0069825Y0050051D02*
X0066754Y0050051D01*
X0066754Y0050052D02*
X0069825Y0050052D01*
X0069825Y0050053D02*
X0066754Y0050053D01*
X0066754Y0050054D02*
X0069825Y0050054D01*
X0069825Y0050055D02*
X0066754Y0050055D01*
X0066754Y0050056D02*
X0069825Y0050056D01*
X0069825Y0050057D02*
X0066754Y0050057D01*
X0066754Y0050058D02*
X0069825Y0050058D01*
X0069825Y0050059D02*
X0066754Y0050059D01*
X0066754Y0050060D02*
X0069825Y0050060D01*
X0069825Y0050061D02*
X0066754Y0050061D01*
X0066754Y0050062D02*
X0069825Y0050062D01*
X0069825Y0050063D02*
X0066754Y0050063D01*
X0066754Y0050064D02*
X0069825Y0050064D01*
X0069825Y0050065D02*
X0066754Y0050065D01*
X0066754Y0050066D02*
X0069825Y0050066D01*
X0069825Y0050067D02*
X0066754Y0050067D01*
X0066754Y0050068D02*
X0069825Y0050068D01*
X0069825Y0050069D02*
X0066754Y0050069D01*
X0066754Y0050070D02*
X0069825Y0050070D01*
X0069825Y0050071D02*
X0066754Y0050071D01*
X0066754Y0050072D02*
X0069825Y0050072D01*
X0069825Y0050073D02*
X0066754Y0050073D01*
X0066754Y0050074D02*
X0069825Y0050074D01*
X0069825Y0050075D02*
X0066754Y0050075D01*
X0066754Y0050076D02*
X0069825Y0050076D01*
X0069825Y0050077D02*
X0066754Y0050077D01*
X0066754Y0050078D02*
X0069825Y0050078D01*
X0069825Y0050079D02*
X0066754Y0050079D01*
X0066754Y0050080D02*
X0069825Y0050080D01*
X0069825Y0050081D02*
X0066754Y0050081D01*
X0069825Y0050081D01*
X0069825Y0050082D02*
X0066754Y0050082D01*
X0066754Y0050083D02*
X0069825Y0050083D01*
X0069825Y0050084D02*
X0066754Y0050084D01*
X0066754Y0050085D02*
X0069825Y0050085D01*
X0069825Y0050086D02*
X0066754Y0050086D01*
X0066754Y0050087D02*
X0069825Y0050087D01*
X0069825Y0050088D02*
X0066754Y0050088D01*
X0066754Y0050089D02*
X0069825Y0050089D01*
X0069825Y0050090D02*
X0066754Y0050090D01*
X0066754Y0050091D02*
X0069825Y0050091D01*
X0069825Y0050092D02*
X0066754Y0050092D01*
X0066754Y0050093D02*
X0069825Y0050093D01*
X0069825Y0050094D02*
X0066754Y0050094D01*
X0066754Y0050095D02*
X0069825Y0050095D01*
X0069825Y0050096D02*
X0066754Y0050096D01*
X0066754Y0050097D02*
X0069825Y0050097D01*
X0069825Y0050098D02*
X0066754Y0050098D01*
X0066754Y0050099D02*
X0069825Y0050099D01*
X0069825Y0050100D02*
X0066754Y0050100D01*
X0066754Y0050101D02*
X0069825Y0050101D01*
X0069825Y0050102D02*
X0066754Y0050102D01*
X0066754Y0050103D02*
X0069825Y0050103D01*
X0069825Y0050104D02*
X0066754Y0050104D01*
X0066754Y0050105D02*
X0069825Y0050105D01*
X0069825Y0050106D02*
X0066754Y0050106D01*
X0066754Y0050107D02*
X0069825Y0050107D01*
X0069825Y0050108D02*
X0066754Y0050108D01*
X0066754Y0050109D02*
X0069825Y0050109D01*
X0069825Y0050110D02*
X0066754Y0050110D01*
X0066754Y0050111D02*
X0069825Y0050111D01*
X0069825Y0050112D02*
X0066754Y0050112D01*
X0066754Y0050113D02*
X0069825Y0050113D01*
X0069825Y0050114D02*
X0066754Y0050114D01*
X0066754Y0050115D02*
X0069825Y0050115D01*
X0069825Y0050116D02*
X0066754Y0050116D01*
X0066754Y0050117D02*
X0069825Y0050117D01*
X0069825Y0050118D02*
X0066754Y0050118D01*
X0066754Y0050119D02*
X0069825Y0050119D01*
X0069825Y0050120D02*
X0066754Y0050120D01*
X0066754Y0050121D02*
X0069825Y0050121D01*
X0069825Y0050122D02*
X0066754Y0050122D01*
X0066754Y0050123D02*
X0069825Y0050123D01*
X0069825Y0050124D02*
X0066754Y0050124D01*
X0066754Y0050125D02*
X0069825Y0050125D01*
X0069825Y0050126D02*
X0066754Y0050126D01*
X0066754Y0050127D02*
X0069825Y0050127D01*
X0069825Y0050128D02*
X0066754Y0050128D01*
X0066754Y0050129D02*
X0069825Y0050129D01*
X0069825Y0050130D02*
X0066754Y0050130D01*
X0066754Y0050131D02*
X0069825Y0050131D01*
X0069825Y0050132D02*
X0066754Y0050132D01*
X0066754Y0050133D02*
X0069825Y0050133D01*
X0069825Y0050134D02*
X0066754Y0050134D01*
X0066754Y0050135D02*
X0069825Y0050135D01*
X0069825Y0050136D02*
X0066754Y0050136D01*
X0066754Y0050137D02*
X0069825Y0050137D01*
X0069825Y0050138D02*
X0066754Y0050138D01*
X0066754Y0050139D02*
X0069825Y0050139D01*
X0069825Y0050140D02*
X0066754Y0050140D01*
X0066754Y0050141D02*
X0069825Y0050141D01*
X0069825Y0050142D02*
X0066754Y0050142D01*
X0066754Y0050143D02*
X0069825Y0050143D01*
X0069825Y0050144D02*
X0066754Y0050144D01*
X0069825Y0050144D01*
X0069825Y0050145D02*
X0066754Y0050145D01*
X0066754Y0050146D02*
X0069825Y0050146D01*
X0069825Y0050147D02*
X0066754Y0050147D01*
X0066754Y0050148D02*
X0069825Y0050148D01*
X0069825Y0050149D02*
X0066754Y0050149D01*
X0066754Y0050150D02*
X0069825Y0050150D01*
X0069825Y0050151D02*
X0066754Y0050151D01*
X0066754Y0050152D02*
X0069825Y0050152D01*
X0069825Y0050153D02*
X0066754Y0050153D01*
X0066754Y0050154D02*
X0069825Y0050154D01*
X0069825Y0050155D02*
X0066754Y0050155D01*
X0066754Y0050156D02*
X0069825Y0050156D01*
X0069825Y0050157D02*
X0066754Y0050157D01*
X0066754Y0050158D02*
X0069825Y0050158D01*
X0069825Y0050159D02*
X0066754Y0050159D01*
X0066754Y0050160D02*
X0069825Y0050160D01*
X0069825Y0050161D02*
X0066754Y0050161D01*
X0066754Y0050162D02*
X0069825Y0050162D01*
X0069825Y0050163D02*
X0066754Y0050163D01*
X0066754Y0050164D02*
X0069825Y0050164D01*
X0069825Y0050165D02*
X0066754Y0050165D01*
X0066754Y0050166D02*
X0069825Y0050166D01*
X0069825Y0050167D02*
X0066754Y0050167D01*
X0066754Y0050168D02*
X0069825Y0050168D01*
X0069825Y0050169D02*
X0066754Y0050169D01*
X0066754Y0050170D02*
X0069825Y0050170D01*
X0069825Y0050171D02*
X0066754Y0050171D01*
X0066754Y0050172D02*
X0069825Y0050172D01*
X0069825Y0050173D02*
X0066754Y0050173D01*
X0066754Y0050174D02*
X0069825Y0050174D01*
X0069825Y0050175D02*
X0066754Y0050175D01*
X0066754Y0050176D02*
X0069825Y0050176D01*
X0069825Y0050177D02*
X0066754Y0050177D01*
X0066754Y0050178D02*
X0069825Y0050178D01*
X0069825Y0050179D02*
X0066754Y0050179D01*
X0066754Y0050180D02*
X0069825Y0050180D01*
X0069825Y0050181D02*
X0066754Y0050181D01*
X0066754Y0050182D02*
X0069825Y0050182D01*
X0069825Y0050183D02*
X0066754Y0050183D01*
X0066754Y0050184D02*
X0069825Y0050184D01*
X0069825Y0050185D02*
X0066754Y0050185D01*
X0066754Y0050186D02*
X0069825Y0050186D01*
X0069825Y0050187D02*
X0066754Y0050187D01*
X0066754Y0050188D02*
X0069825Y0050188D01*
X0069825Y0050189D02*
X0066754Y0050189D01*
X0066754Y0050190D02*
X0069825Y0050190D01*
X0069825Y0050191D02*
X0066754Y0050191D01*
X0066754Y0050192D02*
X0069825Y0050192D01*
X0069825Y0050193D02*
X0066754Y0050193D01*
X0066754Y0050194D02*
X0069825Y0050194D01*
X0069825Y0050195D02*
X0066754Y0050195D01*
X0066754Y0050196D02*
X0069825Y0050196D01*
X0069825Y0050197D02*
X0066754Y0050197D01*
X0066754Y0050198D02*
X0069825Y0050198D01*
X0069825Y0050199D02*
X0066754Y0050199D01*
X0066754Y0050200D02*
X0069825Y0050200D01*
X0069825Y0050201D02*
X0066754Y0050201D01*
X0066754Y0050202D02*
X0069825Y0050202D01*
X0069825Y0050203D02*
X0066754Y0050203D01*
X0066754Y0050204D02*
X0069825Y0050204D01*
X0069825Y0050205D02*
X0066754Y0050205D01*
X0066754Y0050206D02*
X0069825Y0050206D01*
X0066754Y0050206D01*
X0066754Y0050207D02*
X0069825Y0050207D01*
X0069825Y0050208D02*
X0066754Y0050208D01*
X0066754Y0050209D02*
X0069825Y0050209D01*
X0069825Y0050210D02*
X0066754Y0050210D01*
X0066754Y0050211D02*
X0069825Y0050211D01*
X0069825Y0050212D02*
X0066754Y0050212D01*
X0066754Y0050213D02*
X0069825Y0050213D01*
X0069825Y0050214D02*
X0066754Y0050214D01*
X0066754Y0050215D02*
X0069825Y0050215D01*
X0069825Y0050216D02*
X0066754Y0050216D01*
X0066754Y0050217D02*
X0069825Y0050217D01*
X0069825Y0050218D02*
X0066754Y0050218D01*
X0066754Y0050219D02*
X0069825Y0050219D01*
X0069825Y0050220D02*
X0066754Y0050220D01*
X0066754Y0050221D02*
X0069825Y0050221D01*
X0069825Y0050222D02*
X0066754Y0050222D01*
X0066754Y0050223D02*
X0069825Y0050223D01*
X0069825Y0050224D02*
X0066754Y0050224D01*
X0066754Y0050225D02*
X0069825Y0050225D01*
X0069825Y0050226D02*
X0066754Y0050226D01*
X0066754Y0050227D02*
X0069825Y0050227D01*
X0069825Y0050228D02*
X0066754Y0050228D01*
X0066754Y0050229D02*
X0069825Y0050229D01*
X0069825Y0050230D02*
X0066754Y0050230D01*
X0066754Y0050231D02*
X0069825Y0050231D01*
X0069825Y0050232D02*
X0066754Y0050232D01*
X0066754Y0050233D02*
X0069825Y0050233D01*
X0069825Y0050234D02*
X0066754Y0050234D01*
X0066754Y0050235D02*
X0069825Y0050235D01*
X0069825Y0050236D02*
X0066754Y0050236D01*
X0066754Y0050237D02*
X0069825Y0050237D01*
X0069825Y0050238D02*
X0066754Y0050238D01*
X0066754Y0050239D02*
X0069825Y0050239D01*
X0069825Y0050240D02*
X0066754Y0050240D01*
X0066754Y0050241D02*
X0069825Y0050241D01*
X0069825Y0050242D02*
X0066754Y0050242D01*
X0066754Y0050243D02*
X0069825Y0050243D01*
X0069825Y0050244D02*
X0066754Y0050244D01*
X0066754Y0050245D02*
X0069825Y0050245D01*
X0069825Y0050246D02*
X0066754Y0050246D01*
X0066754Y0050247D02*
X0069825Y0050247D01*
X0069825Y0050248D02*
X0066754Y0050248D01*
X0066754Y0050249D02*
X0069825Y0050249D01*
X0069825Y0050250D02*
X0066754Y0050250D01*
X0066754Y0050251D02*
X0069825Y0050251D01*
X0069825Y0050252D02*
X0066754Y0050252D01*
X0066754Y0050253D02*
X0069825Y0050253D01*
X0069825Y0050254D02*
X0066754Y0050254D01*
X0066754Y0050255D02*
X0069825Y0050255D01*
X0069825Y0050256D02*
X0066754Y0050256D01*
X0066754Y0050257D02*
X0069825Y0050257D01*
X0069825Y0050258D02*
X0066754Y0050258D01*
X0066754Y0050259D02*
X0069825Y0050259D01*
X0069825Y0050260D02*
X0066754Y0050260D01*
X0066754Y0050261D02*
X0069825Y0050261D01*
X0069825Y0050262D02*
X0066754Y0050262D01*
X0066754Y0050263D02*
X0069825Y0050263D01*
X0069825Y0050264D02*
X0066754Y0050264D01*
X0066754Y0050265D02*
X0069825Y0050265D01*
X0069825Y0050266D02*
X0066754Y0050266D01*
X0066754Y0050267D02*
X0069825Y0050267D01*
X0069825Y0050268D02*
X0066754Y0050268D01*
X0066754Y0050269D02*
X0069825Y0050269D01*
X0066754Y0050269D01*
X0066754Y0050270D02*
X0069825Y0050270D01*
X0069825Y0050271D02*
X0066754Y0050271D01*
X0066754Y0050272D02*
X0069825Y0050272D01*
X0069825Y0050273D02*
X0066754Y0050273D01*
X0066754Y0050274D02*
X0069825Y0050274D01*
X0069825Y0050275D02*
X0066754Y0050275D01*
X0066754Y0050276D02*
X0069825Y0050276D01*
X0069825Y0050277D02*
X0066754Y0050277D01*
X0066754Y0050278D02*
X0069825Y0050278D01*
X0069825Y0050279D02*
X0066754Y0050279D01*
X0066754Y0050280D02*
X0069825Y0050280D01*
X0069825Y0050281D02*
X0066754Y0050281D01*
X0066754Y0050282D02*
X0069825Y0050282D01*
X0069825Y0050283D02*
X0066754Y0050283D01*
X0066754Y0050284D02*
X0069825Y0050284D01*
X0069825Y0050285D02*
X0066754Y0050285D01*
X0066754Y0050286D02*
X0069825Y0050286D01*
X0069825Y0050287D02*
X0066754Y0050287D01*
X0066754Y0050288D02*
X0069825Y0050288D01*
X0069825Y0050289D02*
X0066754Y0050289D01*
X0066754Y0050290D02*
X0069825Y0050290D01*
X0069825Y0050291D02*
X0066754Y0050291D01*
X0066754Y0050292D02*
X0069825Y0050292D01*
X0069825Y0050293D02*
X0066754Y0050293D01*
X0066754Y0050294D02*
X0069825Y0050294D01*
X0069825Y0050295D02*
X0066754Y0050295D01*
X0066754Y0050296D02*
X0069825Y0050296D01*
X0069825Y0050297D02*
X0066754Y0050297D01*
X0066754Y0050298D02*
X0069825Y0050298D01*
X0069825Y0050299D02*
X0066754Y0050299D01*
X0066754Y0050300D02*
X0069825Y0050300D01*
X0069825Y0050301D02*
X0066754Y0050301D01*
X0066754Y0050302D02*
X0069825Y0050302D01*
X0069825Y0050303D02*
X0066754Y0050303D01*
X0066754Y0050304D02*
X0069825Y0050304D01*
X0069825Y0050305D02*
X0066754Y0050305D01*
X0066754Y0050306D02*
X0069825Y0050306D01*
X0069825Y0050307D02*
X0066754Y0050307D01*
X0066754Y0050308D02*
X0069825Y0050308D01*
X0069825Y0050309D02*
X0066754Y0050309D01*
X0066754Y0050310D02*
X0069825Y0050310D01*
X0069825Y0050311D02*
X0066754Y0050311D01*
X0066754Y0050312D02*
X0069825Y0050312D01*
X0069825Y0050313D02*
X0066754Y0050313D01*
X0066754Y0050314D02*
X0069825Y0050314D01*
X0069825Y0050315D02*
X0066754Y0050315D01*
X0066754Y0050316D02*
X0069825Y0050316D01*
X0069825Y0050317D02*
X0066754Y0050317D01*
X0066754Y0050318D02*
X0069825Y0050318D01*
X0069825Y0050319D02*
X0066754Y0050319D01*
X0066754Y0050320D02*
X0069825Y0050320D01*
X0069825Y0050321D02*
X0066754Y0050321D01*
X0066754Y0050322D02*
X0069825Y0050322D01*
X0069825Y0050323D02*
X0066754Y0050323D01*
X0066754Y0050324D02*
X0069825Y0050324D01*
X0069825Y0050325D02*
X0066754Y0050325D01*
X0066754Y0050326D02*
X0069825Y0050326D01*
X0069825Y0050327D02*
X0066754Y0050327D01*
X0066754Y0050328D02*
X0069825Y0050328D01*
X0069825Y0050329D02*
X0066754Y0050329D01*
X0066754Y0050330D02*
X0069825Y0050330D01*
X0069825Y0050331D02*
X0066754Y0050331D01*
X0069825Y0050331D01*
X0069825Y0050332D02*
X0066754Y0050332D01*
X0066754Y0050333D02*
X0069825Y0050333D01*
X0069825Y0050334D02*
X0066754Y0050334D01*
X0066754Y0050335D02*
X0069825Y0050335D01*
X0069825Y0050336D02*
X0066754Y0050336D01*
X0066754Y0050337D02*
X0069825Y0050337D01*
X0069825Y0050338D02*
X0066754Y0050338D01*
X0066754Y0050339D02*
X0069825Y0050339D01*
X0069825Y0050340D02*
X0066754Y0050340D01*
X0066754Y0050341D02*
X0069825Y0050341D01*
X0069825Y0050342D02*
X0066754Y0050342D01*
X0066754Y0050343D02*
X0069825Y0050343D01*
X0069825Y0050344D02*
X0066754Y0050344D01*
X0066754Y0050345D02*
X0069825Y0050345D01*
X0069825Y0050346D02*
X0066754Y0050346D01*
X0066754Y0050347D02*
X0069825Y0050347D01*
X0069825Y0050348D02*
X0066754Y0050348D01*
X0066754Y0050349D02*
X0069825Y0050349D01*
X0069825Y0050350D02*
X0066754Y0050350D01*
X0066754Y0050351D02*
X0069825Y0050351D01*
X0069825Y0050352D02*
X0066754Y0050352D01*
X0066754Y0050353D02*
X0069825Y0050353D01*
X0069825Y0050354D02*
X0066754Y0050354D01*
X0066754Y0050355D02*
X0069825Y0050355D01*
X0069825Y0050356D02*
X0066754Y0050356D01*
X0066754Y0050357D02*
X0069825Y0050357D01*
X0069825Y0050358D02*
X0066754Y0050358D01*
X0066754Y0050359D02*
X0069825Y0050359D01*
X0069825Y0050360D02*
X0066754Y0050360D01*
X0066754Y0050361D02*
X0069825Y0050361D01*
X0069825Y0050362D02*
X0066754Y0050362D01*
X0066754Y0050363D02*
X0069825Y0050363D01*
X0069825Y0050364D02*
X0066754Y0050364D01*
X0066754Y0050365D02*
X0069825Y0050365D01*
X0069825Y0050366D02*
X0066754Y0050366D01*
X0066754Y0050367D02*
X0069825Y0050367D01*
X0069825Y0050368D02*
X0066754Y0050368D01*
X0066754Y0050369D02*
X0069825Y0050369D01*
X0069825Y0050370D02*
X0066754Y0050370D01*
X0066754Y0050371D02*
X0069825Y0050371D01*
X0069825Y0050372D02*
X0066754Y0050372D01*
X0066754Y0050373D02*
X0069825Y0050373D01*
X0069825Y0050374D02*
X0066754Y0050374D01*
X0066754Y0050375D02*
X0069825Y0050375D01*
X0069825Y0050376D02*
X0066754Y0050376D01*
X0066754Y0050377D02*
X0069825Y0050377D01*
X0069825Y0050378D02*
X0066754Y0050378D01*
X0066754Y0050379D02*
X0069825Y0050379D01*
X0069825Y0050380D02*
X0066754Y0050380D01*
X0066754Y0050381D02*
X0069825Y0050381D01*
X0069825Y0050382D02*
X0066754Y0050382D01*
X0066754Y0050383D02*
X0069825Y0050383D01*
X0069825Y0050384D02*
X0066754Y0050384D01*
X0066754Y0050385D02*
X0069825Y0050385D01*
X0069825Y0050386D02*
X0066754Y0050386D01*
X0066754Y0050387D02*
X0069825Y0050387D01*
X0069825Y0050388D02*
X0066754Y0050388D01*
X0066754Y0050389D02*
X0069825Y0050389D01*
X0069825Y0050390D02*
X0066754Y0050390D01*
X0066754Y0050391D02*
X0069825Y0050391D01*
X0069825Y0050392D02*
X0066754Y0050392D01*
X0066754Y0050393D02*
X0069825Y0050393D01*
X0069825Y0050394D02*
X0066754Y0050394D01*
X0069825Y0050394D01*
X0069825Y0050395D02*
X0066754Y0050395D01*
X0066754Y0050396D02*
X0069825Y0050396D01*
X0069825Y0050397D02*
X0066754Y0050397D01*
X0066754Y0050398D02*
X0069825Y0050398D01*
X0069825Y0050399D02*
X0066754Y0050399D01*
X0066754Y0050400D02*
X0069825Y0050400D01*
X0069825Y0050401D02*
X0066754Y0050401D01*
X0066754Y0050402D02*
X0069825Y0050402D01*
X0069825Y0050403D02*
X0066754Y0050403D01*
X0066754Y0050404D02*
X0069825Y0050404D01*
X0069825Y0050405D02*
X0066754Y0050405D01*
X0066754Y0050406D02*
X0069825Y0050406D01*
X0069825Y0050407D02*
X0066754Y0050407D01*
X0066754Y0050408D02*
X0069825Y0050408D01*
X0069825Y0050409D02*
X0066754Y0050409D01*
X0066754Y0050410D02*
X0069825Y0050410D01*
X0069825Y0050411D02*
X0066754Y0050411D01*
X0066754Y0050412D02*
X0069825Y0050412D01*
X0069825Y0050413D02*
X0066754Y0050413D01*
X0066754Y0050414D02*
X0069825Y0050414D01*
X0069825Y0050415D02*
X0066754Y0050415D01*
X0066754Y0050416D02*
X0069825Y0050416D01*
X0069825Y0050417D02*
X0066754Y0050417D01*
X0066754Y0050418D02*
X0069825Y0050418D01*
X0069825Y0050419D02*
X0066754Y0050419D01*
X0066754Y0050420D02*
X0069825Y0050420D01*
X0069825Y0050421D02*
X0066754Y0050421D01*
X0066754Y0050422D02*
X0068487Y0050422D01*
X0068487Y0050423D02*
X0066754Y0050423D01*
X0066754Y0050424D02*
X0068487Y0050424D01*
X0068487Y0050425D02*
X0066754Y0050425D01*
X0066754Y0050426D02*
X0068487Y0050426D01*
X0068487Y0050427D02*
X0066754Y0050427D01*
X0066754Y0050428D02*
X0068487Y0050428D01*
X0068487Y0050429D02*
X0066754Y0050429D01*
X0066754Y0050430D02*
X0068487Y0050430D01*
X0068487Y0050431D02*
X0066754Y0050431D01*
X0066754Y0050432D02*
X0068487Y0050432D01*
X0068487Y0050433D02*
X0066754Y0050433D01*
X0066754Y0050434D02*
X0068487Y0050434D01*
X0068487Y0050435D02*
X0066754Y0050435D01*
X0066754Y0050436D02*
X0068487Y0050436D01*
X0068487Y0050437D02*
X0066754Y0050437D01*
X0066754Y0050438D02*
X0068487Y0050438D01*
X0068487Y0050439D02*
X0066754Y0050439D01*
X0066754Y0050440D02*
X0068487Y0050440D01*
X0068487Y0050441D02*
X0066754Y0050441D01*
X0066754Y0050442D02*
X0068487Y0050442D01*
X0068487Y0050443D02*
X0066754Y0050443D01*
X0066754Y0050444D02*
X0068487Y0050444D01*
X0068487Y0050445D02*
X0066754Y0050445D01*
X0066754Y0050446D02*
X0068487Y0050446D01*
X0068487Y0050447D02*
X0066754Y0050447D01*
X0066754Y0050448D02*
X0068487Y0050448D01*
X0068487Y0050449D02*
X0066754Y0050449D01*
X0066754Y0050450D02*
X0068487Y0050450D01*
X0068487Y0050451D02*
X0066754Y0050451D01*
X0066754Y0050452D02*
X0068487Y0050452D01*
X0068487Y0050453D02*
X0066754Y0050453D01*
X0066754Y0050454D02*
X0068487Y0050454D01*
X0068487Y0050455D02*
X0066754Y0050455D01*
X0066754Y0050456D02*
X0068487Y0050456D01*
X0066754Y0050456D01*
X0066754Y0050457D02*
X0068487Y0050457D01*
X0068487Y0050458D02*
X0066754Y0050458D01*
X0066754Y0050459D02*
X0068487Y0050459D01*
X0068487Y0050460D02*
X0066754Y0050460D01*
X0066754Y0050461D02*
X0068487Y0050461D01*
X0068487Y0050462D02*
X0066754Y0050462D01*
X0066754Y0050463D02*
X0068487Y0050463D01*
X0068487Y0050464D02*
X0066754Y0050464D01*
X0066754Y0050465D02*
X0068487Y0050465D01*
X0068487Y0050466D02*
X0066754Y0050466D01*
X0066754Y0050467D02*
X0068487Y0050467D01*
X0068487Y0050468D02*
X0066754Y0050468D01*
X0066754Y0050469D02*
X0068487Y0050469D01*
X0068487Y0050470D02*
X0066754Y0050470D01*
X0066754Y0050471D02*
X0068487Y0050471D01*
X0068487Y0050472D02*
X0066754Y0050472D01*
X0066754Y0050473D02*
X0068487Y0050473D01*
X0068487Y0050474D02*
X0066754Y0050474D01*
X0066754Y0050475D02*
X0068487Y0050475D01*
X0068487Y0050476D02*
X0066754Y0050476D01*
X0066754Y0050477D02*
X0068487Y0050477D01*
X0068487Y0050478D02*
X0066754Y0050478D01*
X0066754Y0050479D02*
X0068487Y0050479D01*
X0068487Y0050480D02*
X0066754Y0050480D01*
X0066754Y0050481D02*
X0068487Y0050481D01*
X0068487Y0050482D02*
X0066754Y0050482D01*
X0066754Y0050483D02*
X0068487Y0050483D01*
X0068487Y0050484D02*
X0066754Y0050484D01*
X0066754Y0050485D02*
X0068487Y0050485D01*
X0068487Y0050486D02*
X0066754Y0050486D01*
X0066754Y0050487D02*
X0068487Y0050487D01*
X0068487Y0050488D02*
X0066754Y0050488D01*
X0066754Y0050489D02*
X0068487Y0050489D01*
X0068487Y0050490D02*
X0066754Y0050490D01*
X0066754Y0050491D02*
X0068487Y0050491D01*
X0068487Y0050492D02*
X0066754Y0050492D01*
X0066754Y0050493D02*
X0068487Y0050493D01*
X0068487Y0050494D02*
X0066754Y0050494D01*
X0066754Y0050495D02*
X0068487Y0050495D01*
X0068487Y0050496D02*
X0066754Y0050496D01*
X0066754Y0050497D02*
X0068487Y0050497D01*
X0068487Y0050498D02*
X0066754Y0050498D01*
X0066754Y0050499D02*
X0068487Y0050499D01*
X0068487Y0050500D02*
X0066754Y0050500D01*
X0066754Y0050501D02*
X0068487Y0050501D01*
X0068487Y0050502D02*
X0066754Y0050502D01*
X0066754Y0050503D02*
X0068487Y0050503D01*
X0068487Y0050504D02*
X0066754Y0050504D01*
X0066754Y0050505D02*
X0068487Y0050505D01*
X0068487Y0050506D02*
X0066754Y0050506D01*
X0066754Y0050507D02*
X0068487Y0050507D01*
X0068487Y0050508D02*
X0066754Y0050508D01*
X0066754Y0050509D02*
X0068487Y0050509D01*
X0068487Y0050510D02*
X0066754Y0050510D01*
X0066754Y0050511D02*
X0068487Y0050511D01*
X0068487Y0050512D02*
X0066754Y0050512D01*
X0066754Y0050513D02*
X0068487Y0050513D01*
X0068487Y0050514D02*
X0066754Y0050514D01*
X0066754Y0050515D02*
X0068487Y0050515D01*
X0068487Y0050516D02*
X0066754Y0050516D01*
X0066754Y0050517D02*
X0068487Y0050517D01*
X0068487Y0050518D02*
X0066754Y0050518D01*
X0066754Y0050519D02*
X0068487Y0050519D01*
X0066754Y0050519D01*
X0066754Y0050520D02*
X0068487Y0050520D01*
X0068487Y0050521D02*
X0066754Y0050521D01*
X0066754Y0050522D02*
X0068487Y0050522D01*
X0068487Y0050523D02*
X0066754Y0050523D01*
X0066754Y0050524D02*
X0068487Y0050524D01*
X0068487Y0050525D02*
X0066754Y0050525D01*
X0066754Y0050526D02*
X0068487Y0050526D01*
X0068487Y0050527D02*
X0066754Y0050527D01*
X0066754Y0050528D02*
X0068487Y0050528D01*
X0068487Y0050529D02*
X0066754Y0050529D01*
X0066754Y0050530D02*
X0068487Y0050530D01*
X0068487Y0050531D02*
X0066754Y0050531D01*
X0066754Y0050532D02*
X0068487Y0050532D01*
X0068487Y0050533D02*
X0066754Y0050533D01*
X0066754Y0050534D02*
X0068487Y0050534D01*
X0068487Y0050535D02*
X0066754Y0050535D01*
X0066754Y0050536D02*
X0068487Y0050536D01*
X0068487Y0050537D02*
X0066754Y0050537D01*
X0066754Y0050538D02*
X0068487Y0050538D01*
X0068487Y0050539D02*
X0066754Y0050539D01*
X0066754Y0050540D02*
X0068487Y0050540D01*
X0068487Y0050541D02*
X0066754Y0050541D01*
X0066754Y0050542D02*
X0068487Y0050542D01*
X0068487Y0050543D02*
X0066754Y0050543D01*
X0066754Y0050544D02*
X0068487Y0050544D01*
X0068487Y0050545D02*
X0066754Y0050545D01*
X0066754Y0050546D02*
X0068487Y0050546D01*
X0068487Y0050547D02*
X0066754Y0050547D01*
X0066754Y0050548D02*
X0068487Y0050548D01*
X0068487Y0050549D02*
X0066754Y0050549D01*
X0066754Y0050550D02*
X0068487Y0050550D01*
X0068487Y0050551D02*
X0066754Y0050551D01*
X0066754Y0050552D02*
X0068487Y0050552D01*
X0068487Y0050553D02*
X0066754Y0050553D01*
X0066754Y0050554D02*
X0068487Y0050554D01*
X0068487Y0050555D02*
X0066754Y0050555D01*
X0066754Y0050556D02*
X0068487Y0050556D01*
X0068487Y0050557D02*
X0066754Y0050557D01*
X0066754Y0050558D02*
X0068487Y0050558D01*
X0068487Y0050559D02*
X0066754Y0050559D01*
X0066754Y0050560D02*
X0068487Y0050560D01*
X0068487Y0050561D02*
X0066754Y0050561D01*
X0066754Y0050562D02*
X0068487Y0050562D01*
X0068487Y0050563D02*
X0066754Y0050563D01*
X0066754Y0050564D02*
X0068487Y0050564D01*
X0068487Y0050565D02*
X0066754Y0050565D01*
X0066754Y0050566D02*
X0068487Y0050566D01*
X0068487Y0050567D02*
X0066754Y0050567D01*
X0066754Y0050568D02*
X0068487Y0050568D01*
X0068487Y0050569D02*
X0066754Y0050569D01*
X0066754Y0050570D02*
X0068487Y0050570D01*
X0068487Y0050571D02*
X0066754Y0050571D01*
X0066754Y0050572D02*
X0068487Y0050572D01*
X0068487Y0050573D02*
X0066754Y0050573D01*
X0066754Y0050574D02*
X0068487Y0050574D01*
X0068487Y0050575D02*
X0066754Y0050575D01*
X0066754Y0050576D02*
X0068487Y0050576D01*
X0068487Y0050577D02*
X0066754Y0050577D01*
X0066754Y0050578D02*
X0068487Y0050578D01*
X0068487Y0050579D02*
X0066754Y0050579D01*
X0066754Y0050580D02*
X0068487Y0050580D01*
X0068487Y0050581D02*
X0066754Y0050581D01*
X0068487Y0050581D01*
X0068487Y0050582D02*
X0066754Y0050582D01*
X0066754Y0050583D02*
X0068487Y0050583D01*
X0068487Y0050584D02*
X0066754Y0050584D01*
X0066754Y0050585D02*
X0068487Y0050585D01*
X0068487Y0050586D02*
X0066754Y0050586D01*
X0066754Y0050587D02*
X0068487Y0050587D01*
X0068487Y0050588D02*
X0066754Y0050588D01*
X0066754Y0050589D02*
X0068487Y0050589D01*
X0068487Y0050590D02*
X0066754Y0050590D01*
X0066754Y0050591D02*
X0068487Y0050591D01*
X0068487Y0050592D02*
X0066754Y0050592D01*
X0066754Y0050593D02*
X0068487Y0050593D01*
X0068487Y0050594D02*
X0066754Y0050594D01*
X0066754Y0050595D02*
X0068487Y0050595D01*
X0068487Y0050596D02*
X0066754Y0050596D01*
X0066754Y0050597D02*
X0068487Y0050597D01*
X0068487Y0050598D02*
X0066754Y0050598D01*
X0066754Y0050599D02*
X0068487Y0050599D01*
X0068487Y0050600D02*
X0066754Y0050600D01*
X0066754Y0050601D02*
X0068487Y0050601D01*
X0068487Y0050602D02*
X0066754Y0050602D01*
X0066754Y0050603D02*
X0068487Y0050603D01*
X0068487Y0050604D02*
X0066754Y0050604D01*
X0066754Y0050605D02*
X0068487Y0050605D01*
X0068487Y0050606D02*
X0066754Y0050606D01*
X0066754Y0050607D02*
X0068487Y0050607D01*
X0068487Y0050608D02*
X0066754Y0050608D01*
X0066754Y0050609D02*
X0068487Y0050609D01*
X0068487Y0050610D02*
X0066754Y0050610D01*
X0066754Y0050611D02*
X0068487Y0050611D01*
X0068487Y0050612D02*
X0066754Y0050612D01*
X0066754Y0050613D02*
X0068487Y0050613D01*
X0068487Y0050614D02*
X0066754Y0050614D01*
X0066754Y0050615D02*
X0068487Y0050615D01*
X0068487Y0050616D02*
X0066754Y0050616D01*
X0066754Y0050617D02*
X0068487Y0050617D01*
X0068487Y0050618D02*
X0066754Y0050618D01*
X0066754Y0050619D02*
X0068487Y0050619D01*
X0068487Y0050620D02*
X0066754Y0050620D01*
X0066754Y0050621D02*
X0068487Y0050621D01*
X0068487Y0050622D02*
X0066754Y0050622D01*
X0066754Y0050623D02*
X0068487Y0050623D01*
X0068487Y0050624D02*
X0066754Y0050624D01*
X0066754Y0050625D02*
X0068487Y0050625D01*
X0068487Y0050626D02*
X0066754Y0050626D01*
X0066754Y0050627D02*
X0068487Y0050627D01*
X0068487Y0050628D02*
X0066754Y0050628D01*
X0066754Y0050629D02*
X0068487Y0050629D01*
X0068487Y0050630D02*
X0066754Y0050630D01*
X0066754Y0050631D02*
X0068487Y0050631D01*
X0068487Y0050632D02*
X0066754Y0050632D01*
X0066754Y0050633D02*
X0068487Y0050633D01*
X0068487Y0050634D02*
X0066754Y0050634D01*
X0066754Y0050635D02*
X0068487Y0050635D01*
X0068487Y0050636D02*
X0066754Y0050636D01*
X0066754Y0050637D02*
X0068487Y0050637D01*
X0068487Y0050638D02*
X0066754Y0050638D01*
X0066754Y0050639D02*
X0068487Y0050639D01*
X0068487Y0050640D02*
X0066754Y0050640D01*
X0066754Y0050641D02*
X0068487Y0050641D01*
X0068487Y0050642D02*
X0066754Y0050642D01*
X0066754Y0050643D02*
X0068487Y0050643D01*
X0068487Y0050644D02*
X0066754Y0050644D01*
X0068487Y0050644D01*
X0068487Y0050645D02*
X0066754Y0050645D01*
X0066754Y0050646D02*
X0068487Y0050646D01*
X0068487Y0050647D02*
X0066754Y0050647D01*
X0066754Y0050648D02*
X0068487Y0050648D01*
X0068487Y0050649D02*
X0066754Y0050649D01*
X0066754Y0050650D02*
X0068487Y0050650D01*
X0068487Y0050651D02*
X0066754Y0050651D01*
X0066754Y0050652D02*
X0068487Y0050652D01*
X0068487Y0050653D02*
X0066754Y0050653D01*
X0066754Y0050654D02*
X0068487Y0050654D01*
X0068487Y0050655D02*
X0066754Y0050655D01*
X0066754Y0050656D02*
X0068487Y0050656D01*
X0068487Y0050657D02*
X0066754Y0050657D01*
X0066754Y0050658D02*
X0068487Y0050658D01*
X0068487Y0050659D02*
X0066754Y0050659D01*
X0066754Y0050660D02*
X0068487Y0050660D01*
X0068487Y0050661D02*
X0066754Y0050661D01*
X0066754Y0050662D02*
X0068487Y0050662D01*
X0068487Y0050663D02*
X0066754Y0050663D01*
X0066754Y0050664D02*
X0068487Y0050664D01*
X0068487Y0050665D02*
X0066754Y0050665D01*
X0066754Y0050666D02*
X0068487Y0050666D01*
X0068487Y0050667D02*
X0066754Y0050667D01*
X0066754Y0050668D02*
X0068487Y0050668D01*
X0068487Y0050669D02*
X0066754Y0050669D01*
X0066754Y0050670D02*
X0068487Y0050670D01*
X0068487Y0050671D02*
X0066754Y0050671D01*
X0066754Y0050672D02*
X0068487Y0050672D01*
X0068487Y0050673D02*
X0066754Y0050673D01*
X0066754Y0050674D02*
X0068487Y0050674D01*
X0068487Y0050675D02*
X0066754Y0050675D01*
X0066754Y0050676D02*
X0068487Y0050676D01*
X0068487Y0050677D02*
X0066754Y0050677D01*
X0066754Y0050678D02*
X0068487Y0050678D01*
X0068487Y0050679D02*
X0066754Y0050679D01*
X0066754Y0050680D02*
X0068487Y0050680D01*
X0068487Y0050681D02*
X0066754Y0050681D01*
X0066754Y0050682D02*
X0068487Y0050682D01*
X0068487Y0050683D02*
X0066754Y0050683D01*
X0066754Y0050684D02*
X0068487Y0050684D01*
X0068487Y0050685D02*
X0066754Y0050685D01*
X0066754Y0050686D02*
X0068487Y0050686D01*
X0068487Y0050687D02*
X0066754Y0050687D01*
X0066754Y0050688D02*
X0068487Y0050688D01*
X0068487Y0050689D02*
X0066754Y0050689D01*
X0066754Y0050690D02*
X0068487Y0050690D01*
X0068487Y0050691D02*
X0066754Y0050691D01*
X0066754Y0050692D02*
X0068487Y0050692D01*
X0068487Y0050693D02*
X0066754Y0050693D01*
X0066754Y0050694D02*
X0068487Y0050694D01*
X0068487Y0050695D02*
X0066754Y0050695D01*
X0066754Y0050696D02*
X0068487Y0050696D01*
X0068487Y0050697D02*
X0066754Y0050697D01*
X0066754Y0050698D02*
X0068487Y0050698D01*
X0068487Y0050699D02*
X0066754Y0050699D01*
X0066754Y0050700D02*
X0068487Y0050700D01*
X0068487Y0050701D02*
X0066754Y0050701D01*
X0066754Y0050702D02*
X0068487Y0050702D01*
X0068487Y0050703D02*
X0066754Y0050703D01*
X0066754Y0050704D02*
X0068487Y0050704D01*
X0068487Y0050705D02*
X0066754Y0050705D01*
X0066754Y0050706D02*
X0068487Y0050706D01*
X0066754Y0050706D01*
X0066754Y0050707D02*
X0068487Y0050707D01*
X0068487Y0050708D02*
X0066754Y0050708D01*
X0066754Y0050709D02*
X0068487Y0050709D01*
X0068487Y0050710D02*
X0066754Y0050710D01*
X0066754Y0050711D02*
X0068487Y0050711D01*
X0068487Y0050712D02*
X0066754Y0050712D01*
X0066754Y0050713D02*
X0068487Y0050713D01*
X0068487Y0050714D02*
X0066754Y0050714D01*
X0066754Y0050715D02*
X0068487Y0050715D01*
X0068487Y0050716D02*
X0066754Y0050716D01*
X0066754Y0050717D02*
X0068487Y0050717D01*
X0068487Y0050718D02*
X0066754Y0050718D01*
X0066754Y0050719D02*
X0068487Y0050719D01*
X0068487Y0050720D02*
X0066754Y0050720D01*
X0066754Y0050721D02*
X0068487Y0050721D01*
X0068487Y0050722D02*
X0066754Y0050722D01*
X0066754Y0050723D02*
X0068487Y0050723D01*
X0068487Y0050724D02*
X0066754Y0050724D01*
X0066754Y0050725D02*
X0068487Y0050725D01*
X0068487Y0050726D02*
X0066754Y0050726D01*
X0066754Y0050727D02*
X0068487Y0050727D01*
X0068487Y0050728D02*
X0066754Y0050728D01*
X0066754Y0050729D02*
X0068487Y0050729D01*
X0068487Y0050730D02*
X0066754Y0050730D01*
X0066754Y0050731D02*
X0068487Y0050731D01*
X0068487Y0050732D02*
X0066754Y0050732D01*
X0066754Y0050733D02*
X0068487Y0050733D01*
X0068487Y0050734D02*
X0066754Y0050734D01*
X0066754Y0050735D02*
X0068487Y0050735D01*
X0068487Y0050736D02*
X0066754Y0050736D01*
X0066754Y0050737D02*
X0068487Y0050737D01*
X0068487Y0050738D02*
X0066754Y0050738D01*
X0066754Y0050739D02*
X0068487Y0050739D01*
X0068487Y0050740D02*
X0066754Y0050740D01*
X0066754Y0050741D02*
X0068487Y0050741D01*
X0068487Y0050742D02*
X0066754Y0050742D01*
X0066754Y0050743D02*
X0068487Y0050743D01*
X0068487Y0050744D02*
X0066754Y0050744D01*
X0066754Y0050745D02*
X0068487Y0050745D01*
X0068487Y0050746D02*
X0066754Y0050746D01*
X0066754Y0050747D02*
X0068487Y0050747D01*
X0068487Y0050748D02*
X0066754Y0050748D01*
X0066754Y0050749D02*
X0068487Y0050749D01*
X0068487Y0050750D02*
X0066754Y0050750D01*
X0066754Y0050751D02*
X0068487Y0050751D01*
X0068487Y0050752D02*
X0066754Y0050752D01*
X0066754Y0050753D02*
X0068487Y0050753D01*
X0068487Y0050754D02*
X0066754Y0050754D01*
X0066754Y0050755D02*
X0068487Y0050755D01*
X0068487Y0050756D02*
X0066754Y0050756D01*
X0066754Y0050757D02*
X0068487Y0050757D01*
X0068487Y0050758D02*
X0066754Y0050758D01*
X0066754Y0050759D02*
X0068487Y0050759D01*
X0068487Y0050760D02*
X0066754Y0050760D01*
X0066754Y0050761D02*
X0068487Y0050761D01*
X0068487Y0050762D02*
X0066754Y0050762D01*
X0066754Y0050763D02*
X0068487Y0050763D01*
X0068487Y0050764D02*
X0066754Y0050764D01*
X0066754Y0050765D02*
X0068487Y0050765D01*
X0068487Y0050766D02*
X0066754Y0050766D01*
X0066754Y0050767D02*
X0068487Y0050767D01*
X0068487Y0050768D02*
X0066754Y0050768D01*
X0066754Y0050769D02*
X0068487Y0050769D01*
X0066754Y0050769D01*
X0066754Y0050770D02*
X0068487Y0050770D01*
X0068487Y0050771D02*
X0066754Y0050771D01*
X0066754Y0050772D02*
X0068487Y0050772D01*
X0068487Y0050773D02*
X0066754Y0050773D01*
X0066754Y0050774D02*
X0068487Y0050774D01*
X0068487Y0050775D02*
X0066754Y0050775D01*
X0066754Y0050776D02*
X0068487Y0050776D01*
X0068487Y0050777D02*
X0066754Y0050777D01*
X0066754Y0050778D02*
X0068487Y0050778D01*
X0068487Y0050779D02*
X0066754Y0050779D01*
X0066754Y0050780D02*
X0068487Y0050780D01*
X0068487Y0050781D02*
X0066754Y0050781D01*
X0066754Y0050782D02*
X0068487Y0050782D01*
X0068487Y0050783D02*
X0066754Y0050783D01*
X0066754Y0050784D02*
X0068487Y0050784D01*
X0068487Y0050785D02*
X0066754Y0050785D01*
X0066754Y0050786D02*
X0068487Y0050786D01*
X0068487Y0050787D02*
X0066754Y0050787D01*
X0066754Y0050788D02*
X0068487Y0050788D01*
X0068487Y0050789D02*
X0066754Y0050789D01*
X0066754Y0050790D02*
X0068487Y0050790D01*
X0068487Y0050791D02*
X0066754Y0050791D01*
X0066754Y0050792D02*
X0068487Y0050792D01*
X0068487Y0050793D02*
X0066754Y0050793D01*
X0066754Y0050794D02*
X0068487Y0050794D01*
X0068487Y0050795D02*
X0066754Y0050795D01*
X0066754Y0050796D02*
X0068487Y0050796D01*
X0068487Y0050797D02*
X0066754Y0050797D01*
X0066754Y0050798D02*
X0068487Y0050798D01*
X0068487Y0050799D02*
X0066754Y0050799D01*
X0066754Y0050800D02*
X0068487Y0050800D01*
X0068487Y0050801D02*
X0066754Y0050801D01*
X0066754Y0050802D02*
X0068487Y0050802D01*
X0068487Y0050803D02*
X0066754Y0050803D01*
X0066754Y0050804D02*
X0068487Y0050804D01*
X0068487Y0050805D02*
X0066754Y0050805D01*
X0066754Y0050806D02*
X0068487Y0050806D01*
X0068487Y0050807D02*
X0066754Y0050807D01*
X0066754Y0050808D02*
X0068487Y0050808D01*
X0068487Y0050809D02*
X0066754Y0050809D01*
X0066754Y0050810D02*
X0068487Y0050810D01*
X0068487Y0050811D02*
X0066754Y0050811D01*
X0066754Y0050812D02*
X0068487Y0050812D01*
X0068487Y0050813D02*
X0066754Y0050813D01*
X0066754Y0050814D02*
X0068487Y0050814D01*
X0068487Y0050815D02*
X0066754Y0050815D01*
X0066754Y0050816D02*
X0068487Y0050816D01*
X0068487Y0050817D02*
X0066754Y0050817D01*
X0066754Y0050818D02*
X0068487Y0050818D01*
X0068487Y0050819D02*
X0066754Y0050819D01*
X0066754Y0050820D02*
X0068487Y0050820D01*
X0068487Y0050821D02*
X0066754Y0050821D01*
X0066754Y0050822D02*
X0068487Y0050822D01*
X0068487Y0050823D02*
X0066754Y0050823D01*
X0066754Y0050824D02*
X0068487Y0050824D01*
X0068487Y0050825D02*
X0066754Y0050825D01*
X0066754Y0050826D02*
X0068487Y0050826D01*
X0068487Y0050827D02*
X0066754Y0050827D01*
X0066754Y0050828D02*
X0068487Y0050828D01*
X0068487Y0050829D02*
X0066754Y0050829D01*
X0066754Y0050830D02*
X0068487Y0050830D01*
X0068487Y0050831D02*
X0066754Y0050831D01*
X0068487Y0050831D01*
X0068487Y0050832D02*
X0066754Y0050832D01*
X0066754Y0050833D02*
X0068487Y0050833D01*
X0068487Y0050834D02*
X0066754Y0050834D01*
X0066754Y0050835D02*
X0068487Y0050835D01*
X0068487Y0050836D02*
X0066754Y0050836D01*
X0066754Y0050837D02*
X0068487Y0050837D01*
X0068487Y0050838D02*
X0066754Y0050838D01*
X0066754Y0050839D02*
X0068487Y0050839D01*
X0068487Y0050840D02*
X0066754Y0050840D01*
X0066754Y0050841D02*
X0068487Y0050841D01*
X0068487Y0050842D02*
X0066754Y0050842D01*
X0066754Y0050843D02*
X0068487Y0050843D01*
X0068487Y0050844D02*
X0066754Y0050844D01*
X0066754Y0050845D02*
X0068487Y0050845D01*
X0068487Y0050846D02*
X0066754Y0050846D01*
X0066754Y0050847D02*
X0068487Y0050847D01*
X0068487Y0050848D02*
X0066754Y0050848D01*
X0066754Y0050849D02*
X0068487Y0050849D01*
X0068487Y0050850D02*
X0066754Y0050850D01*
X0066754Y0050851D02*
X0068487Y0050851D01*
X0068487Y0050852D02*
X0066754Y0050852D01*
X0066754Y0050853D02*
X0068487Y0050853D01*
X0068487Y0050854D02*
X0066754Y0050854D01*
X0066754Y0050855D02*
X0068487Y0050855D01*
X0068487Y0050856D02*
X0066754Y0050856D01*
X0066754Y0050857D02*
X0068487Y0050857D01*
X0068487Y0050858D02*
X0066754Y0050858D01*
X0066754Y0050859D02*
X0068487Y0050859D01*
X0068487Y0050860D02*
X0066754Y0050860D01*
X0066754Y0050861D02*
X0068487Y0050861D01*
X0068487Y0050862D02*
X0066754Y0050862D01*
X0066754Y0050863D02*
X0068487Y0050863D01*
X0068487Y0050864D02*
X0066754Y0050864D01*
X0066754Y0050865D02*
X0068487Y0050865D01*
X0068487Y0050866D02*
X0066754Y0050866D01*
X0066754Y0050867D02*
X0068487Y0050867D01*
X0068487Y0050868D02*
X0066754Y0050868D01*
X0066754Y0050869D02*
X0068487Y0050869D01*
X0068487Y0050870D02*
X0066754Y0050870D01*
X0066754Y0050871D02*
X0068487Y0050871D01*
X0068487Y0050872D02*
X0066754Y0050872D01*
X0066754Y0050873D02*
X0068487Y0050873D01*
X0068487Y0050874D02*
X0066754Y0050874D01*
X0066754Y0050875D02*
X0068487Y0050875D01*
X0068487Y0050876D02*
X0066754Y0050876D01*
X0066754Y0050877D02*
X0068487Y0050877D01*
X0068487Y0050878D02*
X0066754Y0050878D01*
X0066754Y0050879D02*
X0068487Y0050879D01*
X0068487Y0050880D02*
X0066754Y0050880D01*
X0066754Y0050881D02*
X0068487Y0050881D01*
X0068487Y0050882D02*
X0066754Y0050882D01*
X0066754Y0050883D02*
X0068487Y0050883D01*
X0068487Y0050884D02*
X0066754Y0050884D01*
X0066754Y0050885D02*
X0068487Y0050885D01*
X0068487Y0050886D02*
X0066754Y0050886D01*
X0066754Y0050887D02*
X0068487Y0050887D01*
X0068487Y0050888D02*
X0066754Y0050888D01*
X0066754Y0050889D02*
X0068487Y0050889D01*
X0068487Y0050890D02*
X0066754Y0050890D01*
X0066754Y0050891D02*
X0068487Y0050891D01*
X0068487Y0050892D02*
X0066754Y0050892D01*
X0066754Y0050893D02*
X0068487Y0050893D01*
X0068487Y0050894D02*
X0066754Y0050894D01*
X0068487Y0050894D01*
X0068487Y0050895D02*
X0066754Y0050895D01*
X0066754Y0050896D02*
X0068487Y0050896D01*
X0068487Y0050897D02*
X0066754Y0050897D01*
X0066754Y0050898D02*
X0068487Y0050898D01*
X0068487Y0050899D02*
X0066754Y0050899D01*
X0066754Y0050900D02*
X0068487Y0050900D01*
X0068487Y0050901D02*
X0066754Y0050901D01*
X0066754Y0050902D02*
X0068487Y0050902D01*
X0068487Y0050903D02*
X0066754Y0050903D01*
X0066754Y0050904D02*
X0068487Y0050904D01*
X0068487Y0050905D02*
X0066754Y0050905D01*
X0066754Y0050906D02*
X0068487Y0050906D01*
X0068487Y0050907D02*
X0066754Y0050907D01*
X0066754Y0050908D02*
X0068487Y0050908D01*
X0068487Y0050909D02*
X0066754Y0050909D01*
X0066754Y0050910D02*
X0068487Y0050910D01*
X0068487Y0050911D02*
X0066754Y0050911D01*
X0066754Y0050912D02*
X0068487Y0050912D01*
X0068487Y0050913D02*
X0066754Y0050913D01*
X0066754Y0050914D02*
X0068487Y0050914D01*
X0068487Y0050915D02*
X0066754Y0050915D01*
X0066754Y0050916D02*
X0068487Y0050916D01*
X0068487Y0050917D02*
X0066754Y0050917D01*
X0066754Y0050918D02*
X0068487Y0050918D01*
X0068487Y0050919D02*
X0066754Y0050919D01*
X0066754Y0050920D02*
X0068487Y0050920D01*
X0068487Y0050921D02*
X0066754Y0050921D01*
X0066754Y0050922D02*
X0068487Y0050922D01*
X0068487Y0050923D02*
X0066754Y0050923D01*
X0066754Y0050924D02*
X0068487Y0050924D01*
X0068487Y0050925D02*
X0066754Y0050925D01*
X0066754Y0050926D02*
X0068487Y0050926D01*
X0068487Y0050927D02*
X0066754Y0050927D01*
X0066754Y0050928D02*
X0068487Y0050928D01*
X0068487Y0050929D02*
X0066754Y0050929D01*
X0066754Y0050930D02*
X0068487Y0050930D01*
X0068487Y0050931D02*
X0066754Y0050931D01*
X0066754Y0050932D02*
X0068487Y0050932D01*
X0068487Y0050933D02*
X0066754Y0050933D01*
X0066754Y0050934D02*
X0068487Y0050934D01*
X0068487Y0050935D02*
X0066754Y0050935D01*
X0066754Y0050936D02*
X0068487Y0050936D01*
X0068487Y0050937D02*
X0066754Y0050937D01*
X0066754Y0050938D02*
X0068487Y0050938D01*
X0068487Y0050939D02*
X0066754Y0050939D01*
X0066754Y0050940D02*
X0068487Y0050940D01*
X0068487Y0050941D02*
X0066754Y0050941D01*
X0066754Y0050942D02*
X0068487Y0050942D01*
X0068487Y0050943D02*
X0066754Y0050943D01*
X0066754Y0050944D02*
X0068487Y0050944D01*
X0068487Y0050945D02*
X0066754Y0050945D01*
X0066754Y0050946D02*
X0068487Y0050946D01*
X0068487Y0050947D02*
X0066754Y0050947D01*
X0066754Y0050948D02*
X0068487Y0050948D01*
X0068487Y0050949D02*
X0066754Y0050949D01*
X0066754Y0050950D02*
X0068487Y0050950D01*
X0068487Y0050951D02*
X0066754Y0050951D01*
X0066754Y0050952D02*
X0068487Y0050952D01*
X0068487Y0050953D02*
X0066754Y0050953D01*
X0066754Y0050954D02*
X0068487Y0050954D01*
X0068487Y0050955D02*
X0066754Y0050955D01*
X0066754Y0050956D02*
X0068487Y0050956D01*
X0066754Y0050956D01*
X0066754Y0050957D02*
X0068487Y0050957D01*
X0068487Y0050958D02*
X0066754Y0050958D01*
X0066754Y0050959D02*
X0068487Y0050959D01*
X0068487Y0050960D02*
X0066754Y0050960D01*
X0066754Y0050961D02*
X0068487Y0050961D01*
X0068487Y0050962D02*
X0066754Y0050962D01*
X0066754Y0050963D02*
X0068487Y0050963D01*
X0068487Y0050964D02*
X0066754Y0050964D01*
X0066754Y0050965D02*
X0068487Y0050965D01*
X0068487Y0050966D02*
X0066754Y0050966D01*
X0066754Y0050967D02*
X0068487Y0050967D01*
X0068487Y0050968D02*
X0066754Y0050968D01*
X0066754Y0050969D02*
X0068487Y0050969D01*
X0068487Y0050970D02*
X0066754Y0050970D01*
X0066754Y0050971D02*
X0068487Y0050971D01*
X0068487Y0050972D02*
X0066754Y0050972D01*
X0066754Y0050973D02*
X0068487Y0050973D01*
X0068487Y0050974D02*
X0066754Y0050974D01*
X0066754Y0050975D02*
X0068487Y0050975D01*
X0068487Y0050976D02*
X0066754Y0050976D01*
X0066754Y0050977D02*
X0068487Y0050977D01*
X0068487Y0050978D02*
X0066754Y0050978D01*
X0066754Y0050979D02*
X0068487Y0050979D01*
X0068487Y0050980D02*
X0066754Y0050980D01*
X0066754Y0050981D02*
X0068487Y0050981D01*
X0068487Y0050982D02*
X0066754Y0050982D01*
X0066754Y0050983D02*
X0068487Y0050983D01*
X0068487Y0050984D02*
X0066754Y0050984D01*
X0066754Y0050985D02*
X0068487Y0050985D01*
X0068487Y0050986D02*
X0066754Y0050986D01*
X0066754Y0050987D02*
X0068487Y0050987D01*
X0068487Y0050988D02*
X0066754Y0050988D01*
X0066754Y0050989D02*
X0068487Y0050989D01*
X0068487Y0050990D02*
X0066754Y0050990D01*
X0066754Y0050991D02*
X0068487Y0050991D01*
X0068487Y0050992D02*
X0066754Y0050992D01*
X0066754Y0050993D02*
X0068487Y0050993D01*
X0068487Y0050994D02*
X0066754Y0050994D01*
X0066754Y0050995D02*
X0068487Y0050995D01*
X0068487Y0050996D02*
X0066754Y0050996D01*
X0066754Y0050997D02*
X0068487Y0050997D01*
X0068487Y0050998D02*
X0066754Y0050998D01*
X0066754Y0050999D02*
X0068487Y0050999D01*
X0068487Y0051000D02*
X0066754Y0051000D01*
X0066754Y0051001D02*
X0068487Y0051001D01*
X0068487Y0051002D02*
X0066754Y0051002D01*
X0066754Y0051003D02*
X0068487Y0051003D01*
X0068487Y0051004D02*
X0066754Y0051004D01*
X0066754Y0051005D02*
X0068487Y0051005D01*
X0068487Y0051006D02*
X0066754Y0051006D01*
X0066754Y0051007D02*
X0068487Y0051007D01*
X0068487Y0051008D02*
X0066754Y0051008D01*
X0066754Y0051009D02*
X0068487Y0051009D01*
X0068487Y0051010D02*
X0066754Y0051010D01*
X0066754Y0051011D02*
X0068487Y0051011D01*
X0068487Y0051012D02*
X0066754Y0051012D01*
X0066754Y0051013D02*
X0068487Y0051013D01*
X0068487Y0051014D02*
X0066754Y0051014D01*
X0066754Y0051015D02*
X0068487Y0051015D01*
X0068487Y0051016D02*
X0066754Y0051016D01*
X0066754Y0051017D02*
X0068487Y0051017D01*
X0068487Y0051018D02*
X0066754Y0051018D01*
X0066754Y0051019D02*
X0068487Y0051019D01*
X0066754Y0051019D01*
X0066754Y0051020D02*
X0068487Y0051020D01*
X0068487Y0051021D02*
X0066754Y0051021D01*
X0066754Y0051022D02*
X0068487Y0051022D01*
X0068487Y0051023D02*
X0066754Y0051023D01*
X0066754Y0051024D02*
X0068487Y0051024D01*
X0068487Y0051025D02*
X0066754Y0051025D01*
X0066754Y0051026D02*
X0068487Y0051026D01*
X0068487Y0051027D02*
X0066754Y0051027D01*
X0066754Y0051028D02*
X0068487Y0051028D01*
X0068487Y0051029D02*
X0066754Y0051029D01*
X0066754Y0051030D02*
X0068487Y0051030D01*
X0068487Y0051031D02*
X0066754Y0051031D01*
X0066754Y0051032D02*
X0068487Y0051032D01*
X0068487Y0051033D02*
X0066754Y0051033D01*
X0066754Y0051034D02*
X0068487Y0051034D01*
X0068487Y0051035D02*
X0066754Y0051035D01*
X0066754Y0051036D02*
X0068487Y0051036D01*
X0068487Y0051037D02*
X0066754Y0051037D01*
X0066754Y0051038D02*
X0068487Y0051038D01*
X0068487Y0051039D02*
X0066754Y0051039D01*
X0066754Y0051040D02*
X0068487Y0051040D01*
X0068487Y0051041D02*
X0066754Y0051041D01*
X0066754Y0051042D02*
X0068487Y0051042D01*
X0068487Y0051043D02*
X0066754Y0051043D01*
X0066754Y0051044D02*
X0068487Y0051044D01*
X0068487Y0051045D02*
X0066754Y0051045D01*
X0066754Y0051046D02*
X0068487Y0051046D01*
X0068487Y0051047D02*
X0066754Y0051047D01*
X0066754Y0051048D02*
X0068487Y0051048D01*
X0068487Y0051049D02*
X0066754Y0051049D01*
X0066754Y0051050D02*
X0068487Y0051050D01*
X0068487Y0051051D02*
X0066754Y0051051D01*
X0066754Y0051052D02*
X0068487Y0051052D01*
X0068487Y0051053D02*
X0066754Y0051053D01*
X0066754Y0051054D02*
X0068487Y0051054D01*
X0068487Y0051055D02*
X0066754Y0051055D01*
X0066754Y0051056D02*
X0068487Y0051056D01*
X0068487Y0051057D02*
X0066754Y0051057D01*
X0066754Y0051058D02*
X0068487Y0051058D01*
X0068487Y0051059D02*
X0066754Y0051059D01*
X0066754Y0051060D02*
X0068487Y0051060D01*
X0068487Y0051061D02*
X0066754Y0051061D01*
X0066754Y0051062D02*
X0068487Y0051062D01*
X0068487Y0051063D02*
X0066754Y0051063D01*
X0066754Y0051064D02*
X0068487Y0051064D01*
X0068487Y0051065D02*
X0066754Y0051065D01*
X0066754Y0051066D02*
X0068487Y0051066D01*
X0068487Y0051067D02*
X0066754Y0051067D01*
X0066754Y0051068D02*
X0068487Y0051068D01*
X0068487Y0051069D02*
X0066754Y0051069D01*
X0066754Y0051070D02*
X0068487Y0051070D01*
X0068487Y0051071D02*
X0066754Y0051071D01*
X0066754Y0051072D02*
X0068487Y0051072D01*
X0068487Y0051073D02*
X0066754Y0051073D01*
X0066754Y0051074D02*
X0068487Y0051074D01*
X0068487Y0051075D02*
X0066754Y0051075D01*
X0066754Y0051076D02*
X0068487Y0051076D01*
X0068487Y0051077D02*
X0066754Y0051077D01*
X0066754Y0051078D02*
X0068487Y0051078D01*
X0068487Y0051079D02*
X0066754Y0051079D01*
X0066754Y0051080D02*
X0068487Y0051080D01*
X0068487Y0051081D02*
X0066754Y0051081D01*
X0068487Y0051081D01*
X0068487Y0051082D02*
X0066754Y0051082D01*
X0066754Y0051083D02*
X0068487Y0051083D01*
X0068487Y0051084D02*
X0066754Y0051084D01*
X0066754Y0051085D02*
X0068487Y0051085D01*
X0068487Y0051086D02*
X0066754Y0051086D01*
X0066754Y0051087D02*
X0068487Y0051087D01*
X0068487Y0051088D02*
X0066754Y0051088D01*
X0066754Y0051089D02*
X0068487Y0051089D01*
X0068487Y0051090D02*
X0066754Y0051090D01*
X0066754Y0051091D02*
X0068487Y0051091D01*
X0068487Y0051092D02*
X0066754Y0051092D01*
X0066754Y0051093D02*
X0068487Y0051093D01*
X0068487Y0051094D02*
X0066754Y0051094D01*
X0066754Y0051095D02*
X0068487Y0051095D01*
X0068487Y0051096D02*
X0066754Y0051096D01*
X0066754Y0051097D02*
X0068487Y0051097D01*
X0068487Y0051098D02*
X0066754Y0051098D01*
X0066754Y0051099D02*
X0068487Y0051099D01*
X0068487Y0051100D02*
X0066754Y0051100D01*
X0066754Y0051101D02*
X0068487Y0051101D01*
X0068487Y0051102D02*
X0066754Y0051102D01*
X0066754Y0051103D02*
X0068487Y0051103D01*
X0068487Y0051104D02*
X0066754Y0051104D01*
X0066754Y0051105D02*
X0068487Y0051105D01*
X0068487Y0051106D02*
X0066754Y0051106D01*
X0066754Y0051107D02*
X0068487Y0051107D01*
X0068487Y0051108D02*
X0066754Y0051108D01*
X0066754Y0051109D02*
X0068487Y0051109D01*
X0068487Y0051110D02*
X0066754Y0051110D01*
X0066754Y0051111D02*
X0068487Y0051111D01*
X0068487Y0051112D02*
X0066754Y0051112D01*
X0066754Y0051113D02*
X0068487Y0051113D01*
X0068487Y0051114D02*
X0066754Y0051114D01*
X0066754Y0051115D02*
X0068487Y0051115D01*
X0068487Y0051116D02*
X0066754Y0051116D01*
X0066754Y0051117D02*
X0068487Y0051117D01*
X0068487Y0051118D02*
X0066754Y0051118D01*
X0066754Y0051119D02*
X0068487Y0051119D01*
X0068487Y0051120D02*
X0066754Y0051120D01*
X0066754Y0051121D02*
X0068487Y0051121D01*
X0068487Y0051122D02*
X0066754Y0051122D01*
X0066754Y0051123D02*
X0068487Y0051123D01*
X0068487Y0051124D02*
X0066754Y0051124D01*
X0066754Y0051125D02*
X0068487Y0051125D01*
X0068487Y0051126D02*
X0066754Y0051126D01*
X0066754Y0051127D02*
X0068487Y0051127D01*
X0068487Y0051128D02*
X0066754Y0051128D01*
X0066754Y0051129D02*
X0068487Y0051129D01*
X0068487Y0051130D02*
X0066754Y0051130D01*
X0066754Y0051131D02*
X0068487Y0051131D01*
X0068487Y0051132D02*
X0066754Y0051132D01*
X0066754Y0051133D02*
X0068487Y0051133D01*
X0068487Y0051134D02*
X0066754Y0051134D01*
X0066754Y0051135D02*
X0068487Y0051135D01*
X0068487Y0051136D02*
X0066754Y0051136D01*
X0066754Y0051137D02*
X0068487Y0051137D01*
X0068487Y0051138D02*
X0066754Y0051138D01*
X0066754Y0051139D02*
X0068487Y0051139D01*
X0068487Y0051140D02*
X0066754Y0051140D01*
X0066754Y0051141D02*
X0068487Y0051141D01*
X0068487Y0051142D02*
X0066754Y0051142D01*
X0066754Y0051143D02*
X0068487Y0051143D01*
X0068487Y0051144D02*
X0066754Y0051144D01*
X0068487Y0051144D01*
X0068487Y0051145D02*
X0066754Y0051145D01*
X0066754Y0051146D02*
X0068487Y0051146D01*
X0068487Y0051147D02*
X0066754Y0051147D01*
X0066754Y0051148D02*
X0068487Y0051148D01*
X0068487Y0051149D02*
X0066754Y0051149D01*
X0066754Y0051150D02*
X0068487Y0051150D01*
X0068487Y0051151D02*
X0066754Y0051151D01*
X0066754Y0051152D02*
X0068487Y0051152D01*
X0068487Y0051153D02*
X0066754Y0051153D01*
X0066754Y0051154D02*
X0068487Y0051154D01*
X0068487Y0051155D02*
X0066754Y0051155D01*
X0066754Y0051156D02*
X0068487Y0051156D01*
X0068487Y0051157D02*
X0066754Y0051157D01*
X0066754Y0051158D02*
X0068487Y0051158D01*
X0068487Y0051159D02*
X0066754Y0051159D01*
X0066754Y0051160D02*
X0068487Y0051160D01*
X0068487Y0051161D02*
X0066754Y0051161D01*
X0066754Y0051162D02*
X0068487Y0051162D01*
X0068487Y0051163D02*
X0066754Y0051163D01*
X0066754Y0051164D02*
X0068487Y0051164D01*
X0068487Y0051165D02*
X0066754Y0051165D01*
X0066754Y0051166D02*
X0068487Y0051166D01*
X0068487Y0051167D02*
X0066754Y0051167D01*
X0066754Y0051168D02*
X0068487Y0051168D01*
X0068487Y0051169D02*
X0066754Y0051169D01*
X0066754Y0051170D02*
X0068487Y0051170D01*
X0068487Y0051171D02*
X0066754Y0051171D01*
X0066754Y0051172D02*
X0068487Y0051172D01*
X0068487Y0051173D02*
X0066754Y0051173D01*
X0066754Y0051174D02*
X0068487Y0051174D01*
X0068487Y0051175D02*
X0066754Y0051175D01*
X0066754Y0051176D02*
X0068487Y0051176D01*
X0068487Y0051177D02*
X0066754Y0051177D01*
X0066754Y0051178D02*
X0068487Y0051178D01*
X0068487Y0051179D02*
X0066754Y0051179D01*
X0066754Y0051180D02*
X0068487Y0051180D01*
X0068487Y0051181D02*
X0066754Y0051181D01*
X0066754Y0051182D02*
X0068487Y0051182D01*
X0068487Y0051183D02*
X0066754Y0051183D01*
X0066754Y0051184D02*
X0068487Y0051184D01*
X0068487Y0051185D02*
X0066754Y0051185D01*
X0066754Y0051186D02*
X0068487Y0051186D01*
X0068487Y0051187D02*
X0066754Y0051187D01*
X0066754Y0051188D02*
X0068487Y0051188D01*
X0068487Y0051189D02*
X0066754Y0051189D01*
X0066754Y0051190D02*
X0068487Y0051190D01*
X0068487Y0051191D02*
X0066754Y0051191D01*
X0066754Y0051192D02*
X0068487Y0051192D01*
X0068487Y0051193D02*
X0066754Y0051193D01*
X0066754Y0051194D02*
X0068487Y0051194D01*
X0068487Y0051195D02*
X0066754Y0051195D01*
X0066754Y0051196D02*
X0068487Y0051196D01*
X0068487Y0051197D02*
X0066754Y0051197D01*
X0066754Y0051198D02*
X0068487Y0051198D01*
X0068487Y0051199D02*
X0066754Y0051199D01*
X0066754Y0051200D02*
X0068487Y0051200D01*
X0068487Y0051201D02*
X0066754Y0051201D01*
X0066754Y0051202D02*
X0068487Y0051202D01*
X0068487Y0051203D02*
X0066754Y0051203D01*
X0066754Y0051204D02*
X0068487Y0051204D01*
X0068487Y0051205D02*
X0066754Y0051205D01*
X0066754Y0051206D02*
X0068487Y0051206D01*
X0066754Y0051206D01*
X0066754Y0051207D02*
X0068487Y0051207D01*
X0068487Y0051208D02*
X0066754Y0051208D01*
X0066754Y0051209D02*
X0068487Y0051209D01*
X0068487Y0051210D02*
X0066754Y0051210D01*
X0066754Y0051211D02*
X0068487Y0051211D01*
X0068487Y0051212D02*
X0066754Y0051212D01*
X0066754Y0051213D02*
X0068487Y0051213D01*
X0068487Y0051214D02*
X0066754Y0051214D01*
X0066754Y0051215D02*
X0068487Y0051215D01*
X0068487Y0051216D02*
X0066754Y0051216D01*
X0066754Y0051217D02*
X0068487Y0051217D01*
X0068487Y0051218D02*
X0066754Y0051218D01*
X0066754Y0051219D02*
X0068487Y0051219D01*
X0068487Y0051220D02*
X0066754Y0051220D01*
X0066754Y0051221D02*
X0068487Y0051221D01*
X0068487Y0051222D02*
X0066754Y0051222D01*
X0066754Y0051223D02*
X0068487Y0051223D01*
X0068487Y0051224D02*
X0066754Y0051224D01*
X0066754Y0051225D02*
X0068487Y0051225D01*
X0068487Y0051226D02*
X0066754Y0051226D01*
X0066754Y0051227D02*
X0068487Y0051227D01*
X0068487Y0051228D02*
X0066754Y0051228D01*
X0066754Y0051229D02*
X0068487Y0051229D01*
X0068487Y0051230D02*
X0066754Y0051230D01*
X0066754Y0051231D02*
X0068487Y0051231D01*
X0068487Y0051232D02*
X0066754Y0051232D01*
X0066754Y0051233D02*
X0068487Y0051233D01*
X0068487Y0051234D02*
X0066754Y0051234D01*
X0066754Y0051235D02*
X0068487Y0051235D01*
X0068487Y0051236D02*
X0066754Y0051236D01*
X0066754Y0051237D02*
X0068487Y0051237D01*
X0068487Y0051238D02*
X0066754Y0051238D01*
X0066754Y0051239D02*
X0068487Y0051239D01*
X0068487Y0051240D02*
X0066754Y0051240D01*
X0066754Y0051241D02*
X0068487Y0051241D01*
X0068487Y0051242D02*
X0066754Y0051242D01*
X0066754Y0051243D02*
X0068487Y0051243D01*
X0068487Y0051244D02*
X0066754Y0051244D01*
X0066754Y0051245D02*
X0068487Y0051245D01*
X0068487Y0051246D02*
X0066754Y0051246D01*
X0066754Y0051247D02*
X0068487Y0051247D01*
X0068487Y0051248D02*
X0066754Y0051248D01*
X0066754Y0051249D02*
X0068487Y0051249D01*
X0068487Y0051250D02*
X0066754Y0051250D01*
X0066754Y0051251D02*
X0068487Y0051251D01*
X0068487Y0051252D02*
X0066754Y0051252D01*
X0066754Y0051253D02*
X0068487Y0051253D01*
X0068487Y0051254D02*
X0066754Y0051254D01*
X0066754Y0051255D02*
X0068487Y0051255D01*
X0068487Y0051256D02*
X0066754Y0051256D01*
X0066754Y0051257D02*
X0068487Y0051257D01*
X0068487Y0051258D02*
X0066754Y0051258D01*
X0066754Y0051259D02*
X0068487Y0051259D01*
X0068487Y0051260D02*
X0066754Y0051260D01*
X0066754Y0051261D02*
X0068487Y0051261D01*
X0068487Y0051262D02*
X0066754Y0051262D01*
X0066754Y0051263D02*
X0068487Y0051263D01*
X0068487Y0051264D02*
X0066754Y0051264D01*
X0066754Y0051265D02*
X0068487Y0051265D01*
X0068487Y0051266D02*
X0066754Y0051266D01*
X0066754Y0051267D02*
X0068487Y0051267D01*
X0068487Y0051268D02*
X0066754Y0051268D01*
X0066754Y0051269D02*
X0068487Y0051269D01*
X0066754Y0051269D01*
X0066754Y0051270D02*
X0068487Y0051270D01*
X0068487Y0051271D02*
X0066754Y0051271D01*
X0066754Y0051272D02*
X0068487Y0051272D01*
X0068487Y0051273D02*
X0066754Y0051273D01*
X0066754Y0051274D02*
X0068487Y0051274D01*
X0068487Y0051275D02*
X0066754Y0051275D01*
X0066754Y0051276D02*
X0068487Y0051276D01*
X0068487Y0051277D02*
X0066754Y0051277D01*
X0066754Y0051278D02*
X0068487Y0051278D01*
X0068487Y0051279D02*
X0066754Y0051279D01*
X0066754Y0051280D02*
X0068487Y0051280D01*
X0068487Y0051281D02*
X0066754Y0051281D01*
X0066754Y0051282D02*
X0068487Y0051282D01*
X0068487Y0051283D02*
X0066754Y0051283D01*
X0066754Y0051284D02*
X0068487Y0051284D01*
X0068487Y0051285D02*
X0066754Y0051285D01*
X0066754Y0051286D02*
X0068487Y0051286D01*
X0068487Y0051287D02*
X0066754Y0051287D01*
X0066754Y0051288D02*
X0068487Y0051288D01*
X0068487Y0051289D02*
X0066754Y0051289D01*
X0066754Y0051290D02*
X0068487Y0051290D01*
X0068487Y0051291D02*
X0066754Y0051291D01*
X0066754Y0051292D02*
X0068487Y0051292D01*
X0068487Y0051293D02*
X0066754Y0051293D01*
X0066754Y0051294D02*
X0068487Y0051294D01*
X0068487Y0051295D02*
X0066754Y0051295D01*
X0066754Y0051296D02*
X0068487Y0051296D01*
X0068487Y0051297D02*
X0066754Y0051297D01*
X0066754Y0051298D02*
X0068487Y0051298D01*
X0068487Y0051299D02*
X0066754Y0051299D01*
X0066754Y0051300D02*
X0068487Y0051300D01*
X0068487Y0051301D02*
X0066754Y0051301D01*
X0066754Y0051302D02*
X0068487Y0051302D01*
X0068487Y0051303D02*
X0066754Y0051303D01*
X0066754Y0051304D02*
X0068487Y0051304D01*
X0068487Y0051305D02*
X0066754Y0051305D01*
X0066754Y0051306D02*
X0068487Y0051306D01*
X0068487Y0051307D02*
X0066754Y0051307D01*
X0066754Y0051308D02*
X0068487Y0051308D01*
X0068487Y0051309D02*
X0066754Y0051309D01*
X0066754Y0051310D02*
X0068487Y0051310D01*
X0068487Y0051311D02*
X0066754Y0051311D01*
X0066754Y0051312D02*
X0068487Y0051312D01*
X0068487Y0051313D02*
X0066754Y0051313D01*
X0066754Y0051314D02*
X0068487Y0051314D01*
X0068487Y0051315D02*
X0066754Y0051315D01*
X0066754Y0051316D02*
X0068487Y0051316D01*
X0068487Y0051317D02*
X0066754Y0051317D01*
X0066754Y0051318D02*
X0068487Y0051318D01*
X0068487Y0051319D02*
X0066754Y0051319D01*
X0066754Y0051320D02*
X0068487Y0051320D01*
X0068487Y0051321D02*
X0066754Y0051321D01*
X0066754Y0051322D02*
X0068487Y0051322D01*
X0068487Y0051323D02*
X0066754Y0051323D01*
X0066754Y0051324D02*
X0068487Y0051324D01*
X0068487Y0051325D02*
X0066754Y0051325D01*
X0066754Y0051326D02*
X0068487Y0051326D01*
X0068487Y0051327D02*
X0066754Y0051327D01*
X0066754Y0051328D02*
X0068487Y0051328D01*
X0068487Y0051329D02*
X0066754Y0051329D01*
X0066754Y0051330D02*
X0068487Y0051330D01*
X0068487Y0051331D02*
X0066754Y0051331D01*
X0068487Y0051331D01*
X0068487Y0051332D02*
X0066754Y0051332D01*
X0066754Y0051333D02*
X0068487Y0051333D01*
X0068487Y0051334D02*
X0066754Y0051334D01*
X0066754Y0051335D02*
X0068487Y0051335D01*
X0068487Y0051336D02*
X0066754Y0051336D01*
X0066754Y0051337D02*
X0068487Y0051337D01*
X0068487Y0051338D02*
X0066754Y0051338D01*
X0066754Y0051339D02*
X0068487Y0051339D01*
X0068487Y0051340D02*
X0066754Y0051340D01*
X0066754Y0051341D02*
X0068487Y0051341D01*
X0068487Y0051342D02*
X0066754Y0051342D01*
X0066754Y0051343D02*
X0068487Y0051343D01*
X0068487Y0051344D02*
X0066754Y0051344D01*
X0066754Y0051345D02*
X0068487Y0051345D01*
X0068487Y0051346D02*
X0066754Y0051346D01*
X0066754Y0051347D02*
X0068487Y0051347D01*
X0068487Y0051348D02*
X0066754Y0051348D01*
X0066754Y0051349D02*
X0068487Y0051349D01*
X0068487Y0051350D02*
X0066754Y0051350D01*
X0066754Y0051351D02*
X0068487Y0051351D01*
X0068487Y0051352D02*
X0066754Y0051352D01*
X0066754Y0051353D02*
X0068487Y0051353D01*
X0068487Y0051354D02*
X0066754Y0051354D01*
X0066754Y0051355D02*
X0068487Y0051355D01*
X0068487Y0051356D02*
X0066754Y0051356D01*
X0066754Y0051357D02*
X0068487Y0051357D01*
X0068487Y0051358D02*
X0066754Y0051358D01*
X0066754Y0051359D02*
X0068487Y0051359D01*
X0068487Y0051360D02*
X0066754Y0051360D01*
X0066754Y0051361D02*
X0068487Y0051361D01*
X0068487Y0051362D02*
X0066754Y0051362D01*
X0066754Y0051363D02*
X0068487Y0051363D01*
X0068487Y0051364D02*
X0066754Y0051364D01*
X0066754Y0051365D02*
X0068487Y0051365D01*
X0068487Y0051366D02*
X0066754Y0051366D01*
X0066754Y0051367D02*
X0068487Y0051367D01*
X0068487Y0051368D02*
X0066754Y0051368D01*
X0066754Y0051369D02*
X0068487Y0051369D01*
X0068487Y0051370D02*
X0066754Y0051370D01*
X0066754Y0051371D02*
X0068487Y0051371D01*
X0068487Y0051372D02*
X0066754Y0051372D01*
X0066754Y0051373D02*
X0068487Y0051373D01*
X0068487Y0051374D02*
X0066754Y0051374D01*
X0066754Y0051375D02*
X0068487Y0051375D01*
X0068487Y0051376D02*
X0066754Y0051376D01*
X0066754Y0051377D02*
X0068487Y0051377D01*
X0068487Y0051378D02*
X0066754Y0051378D01*
X0066754Y0051379D02*
X0068487Y0051379D01*
X0068487Y0051380D02*
X0066754Y0051380D01*
X0066754Y0051381D02*
X0068487Y0051381D01*
X0068487Y0051382D02*
X0066754Y0051382D01*
X0066754Y0051383D02*
X0068487Y0051383D01*
X0068487Y0051384D02*
X0066754Y0051384D01*
X0066754Y0051385D02*
X0068487Y0051385D01*
X0068487Y0051386D02*
X0066754Y0051386D01*
X0066754Y0051387D02*
X0068487Y0051387D01*
X0068487Y0051388D02*
X0066754Y0051388D01*
X0066754Y0051389D02*
X0068487Y0051389D01*
X0068487Y0051390D02*
X0066754Y0051390D01*
X0066754Y0051391D02*
X0068487Y0051391D01*
X0068487Y0051392D02*
X0066754Y0051392D01*
X0066754Y0051393D02*
X0068487Y0051393D01*
X0068487Y0051394D02*
X0066754Y0051394D01*
X0068487Y0051394D01*
X0068487Y0051395D02*
X0066754Y0051395D01*
X0066754Y0051396D02*
X0068487Y0051396D01*
X0068487Y0051397D02*
X0066754Y0051397D01*
X0066754Y0051398D02*
X0068487Y0051398D01*
X0068487Y0051399D02*
X0066754Y0051399D01*
X0066754Y0051400D02*
X0068487Y0051400D01*
X0068487Y0051401D02*
X0066754Y0051401D01*
X0066754Y0051402D02*
X0068487Y0051402D01*
X0068487Y0051403D02*
X0066754Y0051403D01*
X0066754Y0051404D02*
X0068487Y0051404D01*
X0068487Y0051405D02*
X0066754Y0051405D01*
X0066754Y0051406D02*
X0068487Y0051406D01*
X0068487Y0051407D02*
X0066754Y0051407D01*
X0066754Y0051408D02*
X0068487Y0051408D01*
X0068487Y0051409D02*
X0066754Y0051409D01*
X0066754Y0051410D02*
X0068487Y0051410D01*
X0068487Y0051411D02*
X0066754Y0051411D01*
X0066754Y0051412D02*
X0068487Y0051412D01*
X0068487Y0051413D02*
X0066754Y0051413D01*
X0066754Y0051414D02*
X0068487Y0051414D01*
X0068487Y0051415D02*
X0066754Y0051415D01*
X0066754Y0051416D02*
X0068487Y0051416D01*
X0068487Y0051417D02*
X0066754Y0051417D01*
X0066754Y0051418D02*
X0068487Y0051418D01*
X0068487Y0051419D02*
X0066754Y0051419D01*
X0066754Y0051420D02*
X0068487Y0051420D01*
X0068487Y0051421D02*
X0066754Y0051421D01*
X0066754Y0051422D02*
X0068487Y0051422D01*
X0068487Y0051423D02*
X0066754Y0051423D01*
X0066754Y0051424D02*
X0068487Y0051424D01*
X0068487Y0051425D02*
X0066754Y0051425D01*
X0066754Y0051426D02*
X0068487Y0051426D01*
X0068487Y0051427D02*
X0066754Y0051427D01*
X0066754Y0051428D02*
X0068487Y0051428D01*
X0068487Y0051429D02*
X0066754Y0051429D01*
X0066754Y0051430D02*
X0068487Y0051430D01*
X0068487Y0051431D02*
X0066754Y0051431D01*
X0066754Y0051432D02*
X0068487Y0051432D01*
X0068487Y0051433D02*
X0066754Y0051433D01*
X0066754Y0051434D02*
X0068487Y0051434D01*
X0068487Y0051435D02*
X0066754Y0051435D01*
X0066754Y0051436D02*
X0068487Y0051436D01*
X0068487Y0051437D02*
X0066754Y0051437D01*
X0066754Y0051438D02*
X0068487Y0051438D01*
X0068487Y0051439D02*
X0066754Y0051439D01*
X0066754Y0051440D02*
X0068487Y0051440D01*
X0068487Y0051441D02*
X0066754Y0051441D01*
X0066754Y0051442D02*
X0068487Y0051442D01*
X0068487Y0051443D02*
X0066754Y0051443D01*
X0066754Y0051444D02*
X0068487Y0051444D01*
X0068487Y0051445D02*
X0066754Y0051445D01*
X0066754Y0051446D02*
X0068487Y0051446D01*
X0068487Y0051447D02*
X0066754Y0051447D01*
X0066754Y0051448D02*
X0068487Y0051448D01*
X0068487Y0051449D02*
X0066754Y0051449D01*
X0066754Y0051450D02*
X0068487Y0051450D01*
X0068487Y0051451D02*
X0066754Y0051451D01*
X0066754Y0051452D02*
X0068487Y0051452D01*
X0068487Y0051453D02*
X0066754Y0051453D01*
X0066754Y0051454D02*
X0068487Y0051454D01*
X0068487Y0051455D02*
X0066754Y0051455D01*
X0066754Y0051456D02*
X0068487Y0051456D01*
X0066754Y0051456D01*
X0066754Y0051457D02*
X0068487Y0051457D01*
X0068487Y0051458D02*
X0066754Y0051458D01*
X0066754Y0051459D02*
X0068487Y0051459D01*
X0068487Y0051460D02*
X0066754Y0051460D01*
X0066754Y0051461D02*
X0068487Y0051461D01*
X0068487Y0051462D02*
X0066754Y0051462D01*
X0066754Y0051463D02*
X0068487Y0051463D01*
X0068487Y0051464D02*
X0066754Y0051464D01*
X0066754Y0051465D02*
X0068487Y0051465D01*
X0068487Y0051466D02*
X0066754Y0051466D01*
X0066754Y0051467D02*
X0068487Y0051467D01*
X0068487Y0051468D02*
X0066754Y0051468D01*
X0066754Y0051469D02*
X0068487Y0051469D01*
X0068487Y0051470D02*
X0066754Y0051470D01*
X0066754Y0051471D02*
X0068487Y0051471D01*
X0068487Y0051472D02*
X0066754Y0051472D01*
X0066754Y0051473D02*
X0068487Y0051473D01*
X0068487Y0051474D02*
X0066754Y0051474D01*
X0066754Y0051475D02*
X0068487Y0051475D01*
X0068487Y0051476D02*
X0066754Y0051476D01*
X0066754Y0051477D02*
X0068487Y0051477D01*
X0068487Y0051478D02*
X0066754Y0051478D01*
X0066754Y0051479D02*
X0068487Y0051479D01*
X0068487Y0051480D02*
X0066754Y0051480D01*
X0066754Y0051481D02*
X0068487Y0051481D01*
X0068487Y0051482D02*
X0066754Y0051482D01*
X0066754Y0051483D02*
X0068487Y0051483D01*
X0068487Y0051484D02*
X0066754Y0051484D01*
X0066754Y0051485D02*
X0068487Y0051485D01*
X0068487Y0051486D02*
X0066754Y0051486D01*
X0066754Y0051487D02*
X0068487Y0051487D01*
X0068487Y0051488D02*
X0066754Y0051488D01*
X0066754Y0051489D02*
X0068487Y0051489D01*
X0068487Y0051490D02*
X0066754Y0051490D01*
X0066754Y0051491D02*
X0068487Y0051491D01*
X0068487Y0051492D02*
X0066754Y0051492D01*
X0066754Y0051493D02*
X0068487Y0051493D01*
X0068487Y0051494D02*
X0066754Y0051494D01*
X0066754Y0051495D02*
X0068487Y0051495D01*
X0068487Y0051496D02*
X0066754Y0051496D01*
X0066754Y0051497D02*
X0068487Y0051497D01*
X0068487Y0051498D02*
X0066754Y0051498D01*
X0066754Y0051499D02*
X0068487Y0051499D01*
X0068487Y0051500D02*
X0066754Y0051500D01*
X0066754Y0051501D02*
X0068487Y0051501D01*
X0068487Y0051502D02*
X0066754Y0051502D01*
X0066754Y0051503D02*
X0068487Y0051503D01*
X0068487Y0051504D02*
X0066754Y0051504D01*
X0066754Y0051505D02*
X0068487Y0051505D01*
X0068487Y0051506D02*
X0066754Y0051506D01*
X0066754Y0051507D02*
X0068487Y0051507D01*
X0068487Y0051508D02*
X0066754Y0051508D01*
X0066754Y0051509D02*
X0068487Y0051509D01*
X0068487Y0051510D02*
X0066754Y0051510D01*
X0066754Y0051511D02*
X0068487Y0051511D01*
X0068487Y0051512D02*
X0066754Y0051512D01*
X0066754Y0051513D02*
X0068487Y0051513D01*
X0068487Y0051514D02*
X0066754Y0051514D01*
X0066754Y0051515D02*
X0068487Y0051515D01*
X0068487Y0051516D02*
X0066754Y0051516D01*
X0066754Y0051517D02*
X0068487Y0051517D01*
X0068487Y0051518D02*
X0066754Y0051518D01*
X0066754Y0051519D02*
X0068487Y0051519D01*
X0066754Y0051519D01*
X0066754Y0051520D02*
X0068487Y0051520D01*
X0068487Y0051521D02*
X0066754Y0051521D01*
X0066754Y0051522D02*
X0068487Y0051522D01*
X0068487Y0051523D02*
X0066754Y0051523D01*
X0066754Y0051524D02*
X0068487Y0051524D01*
X0068487Y0051525D02*
X0066754Y0051525D01*
X0066754Y0051526D02*
X0068487Y0051526D01*
X0068487Y0051527D02*
X0066754Y0051527D01*
X0066754Y0051528D02*
X0068487Y0051528D01*
X0068487Y0051529D02*
X0066754Y0051529D01*
X0066754Y0051530D02*
X0068487Y0051530D01*
X0068487Y0051531D02*
X0066754Y0051531D01*
X0066754Y0051532D02*
X0068487Y0051532D01*
X0068487Y0051533D02*
X0066754Y0051533D01*
X0066754Y0051534D02*
X0068487Y0051534D01*
X0068487Y0051535D02*
X0066754Y0051535D01*
X0066754Y0051536D02*
X0068487Y0051536D01*
X0068487Y0051537D02*
X0066754Y0051537D01*
X0066754Y0051538D02*
X0068487Y0051538D01*
X0068487Y0051539D02*
X0066754Y0051539D01*
X0066754Y0051540D02*
X0068487Y0051540D01*
X0068487Y0051541D02*
X0066754Y0051541D01*
X0066754Y0051542D02*
X0068487Y0051542D01*
X0068487Y0051543D02*
X0066754Y0051543D01*
X0066754Y0051544D02*
X0068487Y0051544D01*
X0068487Y0051545D02*
X0066754Y0051545D01*
X0066754Y0051546D02*
X0068487Y0051546D01*
X0068487Y0051547D02*
X0066754Y0051547D01*
X0066754Y0051548D02*
X0068487Y0051548D01*
X0068487Y0051549D02*
X0066754Y0051549D01*
X0066754Y0051550D02*
X0068487Y0051550D01*
X0068487Y0051551D02*
X0066754Y0051551D01*
X0066754Y0051552D02*
X0068487Y0051552D01*
X0068487Y0051553D02*
X0066754Y0051553D01*
X0066754Y0051554D02*
X0068487Y0051554D01*
X0068487Y0051555D02*
X0066754Y0051555D01*
X0066754Y0051556D02*
X0068487Y0051556D01*
X0068487Y0051557D02*
X0066754Y0051557D01*
X0066754Y0051558D02*
X0068487Y0051558D01*
X0068487Y0051559D02*
X0066754Y0051559D01*
X0066754Y0051560D02*
X0068487Y0051560D01*
X0068487Y0051561D02*
X0066754Y0051561D01*
X0066754Y0051562D02*
X0068487Y0051562D01*
X0068487Y0051563D02*
X0066754Y0051563D01*
X0066754Y0051564D02*
X0068487Y0051564D01*
X0068487Y0051565D02*
X0066754Y0051565D01*
X0066754Y0051566D02*
X0068487Y0051566D01*
X0068487Y0051567D02*
X0066754Y0051567D01*
X0066754Y0051568D02*
X0068487Y0051568D01*
X0068487Y0051569D02*
X0066754Y0051569D01*
X0066754Y0051570D02*
X0068487Y0051570D01*
X0068487Y0051571D02*
X0066754Y0051571D01*
X0066754Y0051572D02*
X0068487Y0051572D01*
X0068487Y0051573D02*
X0066754Y0051573D01*
X0066754Y0051574D02*
X0068487Y0051574D01*
X0068487Y0051575D02*
X0066754Y0051575D01*
X0066754Y0051576D02*
X0068487Y0051576D01*
X0068487Y0051577D02*
X0066754Y0051577D01*
X0066754Y0051578D02*
X0068487Y0051578D01*
X0068487Y0051579D02*
X0066754Y0051579D01*
X0066754Y0051580D02*
X0068487Y0051580D01*
X0068487Y0051581D02*
X0066754Y0051581D01*
X0068487Y0051581D01*
X0068487Y0051582D02*
X0066754Y0051582D01*
X0066754Y0051583D02*
X0068487Y0051583D01*
X0068487Y0051584D02*
X0066754Y0051584D01*
X0066754Y0051585D02*
X0068487Y0051585D01*
X0068487Y0051586D02*
X0066754Y0051586D01*
X0066754Y0051587D02*
X0068487Y0051587D01*
X0068487Y0051588D02*
X0066754Y0051588D01*
X0066754Y0051589D02*
X0068487Y0051589D01*
X0068487Y0051590D02*
X0066754Y0051590D01*
X0066754Y0051591D02*
X0068487Y0051591D01*
X0068487Y0051592D02*
X0066754Y0051592D01*
X0066754Y0051593D02*
X0068487Y0051593D01*
X0068487Y0051594D02*
X0066754Y0051594D01*
X0066754Y0051595D02*
X0068487Y0051595D01*
X0068487Y0051596D02*
X0066754Y0051596D01*
X0066754Y0051597D02*
X0068487Y0051597D01*
X0068487Y0051598D02*
X0066754Y0051598D01*
X0066754Y0051599D02*
X0068487Y0051599D01*
X0068487Y0051600D02*
X0066754Y0051600D01*
X0066754Y0051601D02*
X0068487Y0051601D01*
X0068487Y0051602D02*
X0066754Y0051602D01*
X0066754Y0049240D02*
X0068487Y0049240D01*
X0068487Y0049239D02*
X0066754Y0049239D01*
X0066754Y0049238D02*
X0068487Y0049238D01*
X0068487Y0049237D02*
X0066754Y0049237D01*
X0066754Y0049236D02*
X0068487Y0049236D01*
X0068487Y0049235D02*
X0066754Y0049235D01*
X0066754Y0049234D02*
X0068487Y0049234D01*
X0068487Y0049233D02*
X0066754Y0049233D01*
X0066754Y0049232D02*
X0068487Y0049232D01*
X0068487Y0049231D02*
X0066754Y0049231D01*
X0066754Y0049230D02*
X0068487Y0049230D01*
X0068487Y0049229D02*
X0066754Y0049229D01*
X0066754Y0049228D02*
X0068487Y0049228D01*
X0068487Y0049227D02*
X0066754Y0049227D01*
X0066754Y0049226D02*
X0068487Y0049226D01*
X0068487Y0049225D02*
X0066754Y0049225D01*
X0066754Y0049224D02*
X0068487Y0049224D01*
X0068487Y0049223D02*
X0066754Y0049223D01*
X0066754Y0049222D02*
X0068487Y0049222D01*
X0068487Y0049221D02*
X0066754Y0049221D01*
X0066754Y0049220D02*
X0068487Y0049220D01*
X0068487Y0049219D02*
X0066754Y0049219D01*
X0066754Y0049218D02*
X0068487Y0049218D01*
X0068487Y0049217D02*
X0066754Y0049217D01*
X0066754Y0049216D02*
X0068487Y0049216D01*
X0068487Y0049215D02*
X0066754Y0049215D01*
X0066754Y0049214D02*
X0068487Y0049214D01*
X0068487Y0049213D02*
X0066754Y0049213D01*
X0066754Y0049212D02*
X0068487Y0049212D01*
X0068487Y0049211D02*
X0066754Y0049211D01*
X0066754Y0049210D02*
X0068487Y0049210D01*
X0068487Y0049209D02*
X0066754Y0049209D01*
X0066754Y0049208D02*
X0068487Y0049208D01*
X0068487Y0049207D02*
X0066754Y0049207D01*
X0066754Y0049206D02*
X0068487Y0049206D01*
X0066754Y0049206D01*
X0066754Y0049205D02*
X0068487Y0049205D01*
X0068487Y0049204D02*
X0066754Y0049204D01*
X0066754Y0049203D02*
X0068487Y0049203D01*
X0068487Y0049202D02*
X0066754Y0049202D01*
X0066754Y0049201D02*
X0068487Y0049201D01*
X0068487Y0049200D02*
X0066754Y0049200D01*
X0066754Y0049199D02*
X0068487Y0049199D01*
X0068487Y0049198D02*
X0066754Y0049198D01*
X0066754Y0049197D02*
X0068487Y0049197D01*
X0068487Y0049196D02*
X0066754Y0049196D01*
X0066754Y0049195D02*
X0068487Y0049195D01*
X0068487Y0049194D02*
X0066754Y0049194D01*
X0066754Y0049193D02*
X0068487Y0049193D01*
X0068487Y0049192D02*
X0066754Y0049192D01*
X0066754Y0049191D02*
X0068487Y0049191D01*
X0068487Y0049190D02*
X0066754Y0049190D01*
X0066754Y0049189D02*
X0068487Y0049189D01*
X0068487Y0049188D02*
X0066754Y0049188D01*
X0066754Y0049187D02*
X0068487Y0049187D01*
X0068487Y0049186D02*
X0066754Y0049186D01*
X0066754Y0049185D02*
X0068487Y0049185D01*
X0068487Y0049184D02*
X0066754Y0049184D01*
X0066754Y0049183D02*
X0068487Y0049183D01*
X0068487Y0049182D02*
X0066754Y0049182D01*
X0066754Y0049181D02*
X0068487Y0049181D01*
X0068487Y0049180D02*
X0066754Y0049180D01*
X0066754Y0049179D02*
X0068487Y0049179D01*
X0068487Y0049178D02*
X0066754Y0049178D01*
X0066754Y0049177D02*
X0068487Y0049177D01*
X0068487Y0049176D02*
X0066754Y0049176D01*
X0066754Y0049175D02*
X0068487Y0049175D01*
X0068487Y0049174D02*
X0066754Y0049174D01*
X0066754Y0049173D02*
X0068487Y0049173D01*
X0068487Y0049172D02*
X0066754Y0049172D01*
X0066754Y0049171D02*
X0068487Y0049171D01*
X0068487Y0049170D02*
X0066754Y0049170D01*
X0066754Y0049169D02*
X0068487Y0049169D01*
X0068487Y0049168D02*
X0066754Y0049168D01*
X0066754Y0049167D02*
X0068487Y0049167D01*
X0068487Y0049166D02*
X0066754Y0049166D01*
X0066754Y0049165D02*
X0068487Y0049165D01*
X0068487Y0049164D02*
X0066754Y0049164D01*
X0066754Y0049163D02*
X0068487Y0049163D01*
X0068487Y0049162D02*
X0066754Y0049162D01*
X0066754Y0049161D02*
X0068487Y0049161D01*
X0068487Y0049160D02*
X0066754Y0049160D01*
X0066754Y0049159D02*
X0068487Y0049159D01*
X0068487Y0049158D02*
X0066754Y0049158D01*
X0066754Y0049157D02*
X0068487Y0049157D01*
X0068487Y0049156D02*
X0066754Y0049156D01*
X0066754Y0049155D02*
X0068487Y0049155D01*
X0068487Y0049154D02*
X0066754Y0049154D01*
X0066754Y0049153D02*
X0068487Y0049153D01*
X0068487Y0049152D02*
X0066754Y0049152D01*
X0066754Y0049151D02*
X0068487Y0049151D01*
X0068487Y0049150D02*
X0066754Y0049150D01*
X0066754Y0049149D02*
X0068487Y0049149D01*
X0068487Y0049148D02*
X0066754Y0049148D01*
X0066754Y0049147D02*
X0068487Y0049147D01*
X0068487Y0049146D02*
X0066754Y0049146D01*
X0066754Y0049145D02*
X0068487Y0049145D01*
X0068487Y0049144D02*
X0066754Y0049144D01*
X0068487Y0049144D01*
X0068487Y0049143D02*
X0066754Y0049143D01*
X0066754Y0049142D02*
X0068487Y0049142D01*
X0068487Y0049141D02*
X0066754Y0049141D01*
X0066754Y0049140D02*
X0068487Y0049140D01*
X0068487Y0049139D02*
X0066754Y0049139D01*
X0066754Y0049138D02*
X0068487Y0049138D01*
X0068487Y0049137D02*
X0066754Y0049137D01*
X0066754Y0049136D02*
X0068487Y0049136D01*
X0068487Y0049135D02*
X0066754Y0049135D01*
X0066754Y0049134D02*
X0068487Y0049134D01*
X0068487Y0049133D02*
X0066754Y0049133D01*
X0066754Y0049132D02*
X0068487Y0049132D01*
X0068487Y0049131D02*
X0066754Y0049131D01*
X0066754Y0049130D02*
X0068487Y0049130D01*
X0068487Y0049129D02*
X0066754Y0049129D01*
X0066754Y0049128D02*
X0068487Y0049128D01*
X0068487Y0049127D02*
X0066754Y0049127D01*
X0066754Y0049126D02*
X0068487Y0049126D01*
X0068487Y0049125D02*
X0066754Y0049125D01*
X0066754Y0049124D02*
X0068487Y0049124D01*
X0068487Y0049123D02*
X0066754Y0049123D01*
X0066754Y0049122D02*
X0068487Y0049122D01*
X0068487Y0049121D02*
X0066754Y0049121D01*
X0066754Y0049120D02*
X0068487Y0049120D01*
X0068487Y0049119D02*
X0066754Y0049119D01*
X0066754Y0049118D02*
X0068487Y0049118D01*
X0068487Y0049117D02*
X0066754Y0049117D01*
X0066754Y0049116D02*
X0068487Y0049116D01*
X0068487Y0049115D02*
X0066754Y0049115D01*
X0066754Y0049114D02*
X0068487Y0049114D01*
X0068487Y0049113D02*
X0066754Y0049113D01*
X0066754Y0049112D02*
X0068487Y0049112D01*
X0068487Y0049111D02*
X0066754Y0049111D01*
X0066754Y0049110D02*
X0068487Y0049110D01*
X0068487Y0049109D02*
X0066754Y0049109D01*
X0066754Y0049108D02*
X0068487Y0049108D01*
X0068487Y0049107D02*
X0066754Y0049107D01*
X0066754Y0049106D02*
X0068487Y0049106D01*
X0068487Y0049105D02*
X0066754Y0049105D01*
X0066754Y0049104D02*
X0068487Y0049104D01*
X0068487Y0049103D02*
X0066754Y0049103D01*
X0066754Y0049102D02*
X0068487Y0049102D01*
X0068487Y0049101D02*
X0066754Y0049101D01*
X0066754Y0049100D02*
X0068487Y0049100D01*
X0068487Y0049099D02*
X0066754Y0049099D01*
X0066754Y0049098D02*
X0068487Y0049098D01*
X0068487Y0049097D02*
X0066754Y0049097D01*
X0066754Y0049096D02*
X0068487Y0049096D01*
X0068487Y0049095D02*
X0066754Y0049095D01*
X0066754Y0049094D02*
X0068487Y0049094D01*
X0068487Y0049093D02*
X0066754Y0049093D01*
X0066754Y0049092D02*
X0068487Y0049092D01*
X0068487Y0049091D02*
X0066754Y0049091D01*
X0066754Y0049090D02*
X0068487Y0049090D01*
X0068487Y0049089D02*
X0066754Y0049089D01*
X0066754Y0049088D02*
X0068487Y0049088D01*
X0068487Y0049087D02*
X0066754Y0049087D01*
X0066754Y0049086D02*
X0068487Y0049086D01*
X0068487Y0049085D02*
X0066754Y0049085D01*
X0066754Y0049084D02*
X0068487Y0049084D01*
X0068487Y0049083D02*
X0066754Y0049083D01*
X0066754Y0049082D02*
X0068487Y0049082D01*
X0068487Y0049081D02*
X0066754Y0049081D01*
X0068487Y0049081D01*
X0068487Y0049080D02*
X0066754Y0049080D01*
X0066754Y0049079D02*
X0068487Y0049079D01*
X0068487Y0049078D02*
X0066754Y0049078D01*
X0066754Y0049077D02*
X0068487Y0049077D01*
X0068487Y0049076D02*
X0066754Y0049076D01*
X0066754Y0049075D02*
X0068487Y0049075D01*
X0068487Y0049074D02*
X0066754Y0049074D01*
X0066754Y0049073D02*
X0068487Y0049073D01*
X0068487Y0049072D02*
X0066754Y0049072D01*
X0066754Y0049071D02*
X0068487Y0049071D01*
X0068487Y0049070D02*
X0066754Y0049070D01*
X0066754Y0049069D02*
X0068487Y0049069D01*
X0068487Y0049068D02*
X0066754Y0049068D01*
X0066754Y0049067D02*
X0068487Y0049067D01*
X0068487Y0049066D02*
X0066754Y0049066D01*
X0066754Y0049065D02*
X0068487Y0049065D01*
X0068487Y0049064D02*
X0066754Y0049064D01*
X0066754Y0049063D02*
X0068487Y0049063D01*
X0068487Y0049062D02*
X0066754Y0049062D01*
X0066754Y0049061D02*
X0068487Y0049061D01*
X0068487Y0049060D02*
X0066754Y0049060D01*
X0066754Y0049059D02*
X0068487Y0049059D01*
X0068487Y0049058D02*
X0066754Y0049058D01*
X0066754Y0049057D02*
X0068487Y0049057D01*
X0068487Y0049056D02*
X0066754Y0049056D01*
X0066754Y0049055D02*
X0068487Y0049055D01*
X0068487Y0049054D02*
X0066754Y0049054D01*
X0066754Y0049053D02*
X0068487Y0049053D01*
X0068487Y0049052D02*
X0066754Y0049052D01*
X0066754Y0049051D02*
X0068487Y0049051D01*
X0068487Y0049050D02*
X0066754Y0049050D01*
X0066754Y0049049D02*
X0068487Y0049049D01*
X0068487Y0049048D02*
X0066754Y0049048D01*
X0066754Y0049047D02*
X0068487Y0049047D01*
X0068487Y0049046D02*
X0066754Y0049046D01*
X0066754Y0049045D02*
X0068487Y0049045D01*
X0068487Y0049044D02*
X0066754Y0049044D01*
X0066754Y0049043D02*
X0068487Y0049043D01*
X0068487Y0049042D02*
X0066754Y0049042D01*
X0066754Y0049041D02*
X0068487Y0049041D01*
X0068487Y0049040D02*
X0066754Y0049040D01*
X0066754Y0049039D02*
X0068487Y0049039D01*
X0068487Y0049038D02*
X0066754Y0049038D01*
X0066754Y0049037D02*
X0068487Y0049037D01*
X0068487Y0049036D02*
X0066754Y0049036D01*
X0066754Y0049035D02*
X0068487Y0049035D01*
X0068487Y0049034D02*
X0066754Y0049034D01*
X0066754Y0049033D02*
X0068487Y0049033D01*
X0068487Y0049032D02*
X0066754Y0049032D01*
X0066754Y0049031D02*
X0068487Y0049031D01*
X0068487Y0049030D02*
X0066754Y0049030D01*
X0066754Y0049029D02*
X0068487Y0049029D01*
X0068487Y0049028D02*
X0066754Y0049028D01*
X0066754Y0049027D02*
X0068487Y0049027D01*
X0068487Y0049026D02*
X0066754Y0049026D01*
X0066754Y0049025D02*
X0068487Y0049025D01*
X0068487Y0049024D02*
X0066754Y0049024D01*
X0066754Y0049023D02*
X0068487Y0049023D01*
X0068487Y0049022D02*
X0066754Y0049022D01*
X0066754Y0049021D02*
X0068487Y0049021D01*
X0068487Y0049020D02*
X0066754Y0049020D01*
X0066754Y0049019D02*
X0068487Y0049019D01*
X0066754Y0049019D01*
X0066754Y0049018D02*
X0068487Y0049018D01*
X0068487Y0049017D02*
X0066754Y0049017D01*
X0066754Y0049016D02*
X0068487Y0049016D01*
X0068487Y0049015D02*
X0066754Y0049015D01*
X0066754Y0049014D02*
X0068487Y0049014D01*
X0068487Y0049013D02*
X0066754Y0049013D01*
X0066754Y0049012D02*
X0068487Y0049012D01*
X0068487Y0049011D02*
X0066754Y0049011D01*
X0066754Y0049010D02*
X0068487Y0049010D01*
X0068487Y0049009D02*
X0066754Y0049009D01*
X0066754Y0049008D02*
X0068487Y0049008D01*
X0068487Y0049007D02*
X0066754Y0049007D01*
X0066754Y0049006D02*
X0068487Y0049006D01*
X0068487Y0049005D02*
X0066754Y0049005D01*
X0066754Y0049004D02*
X0068487Y0049004D01*
X0068487Y0049003D02*
X0066754Y0049003D01*
X0066754Y0049002D02*
X0068487Y0049002D01*
X0068487Y0049001D02*
X0066754Y0049001D01*
X0066754Y0049000D02*
X0068487Y0049000D01*
X0068487Y0048999D02*
X0066754Y0048999D01*
X0066754Y0048998D02*
X0068487Y0048998D01*
X0068487Y0048997D02*
X0066754Y0048997D01*
X0066754Y0048996D02*
X0068487Y0048996D01*
X0068487Y0048995D02*
X0066754Y0048995D01*
X0066754Y0048994D02*
X0068487Y0048994D01*
X0068487Y0048993D02*
X0066754Y0048993D01*
X0066754Y0048992D02*
X0068487Y0048992D01*
X0068487Y0048991D02*
X0066754Y0048991D01*
X0066754Y0048990D02*
X0068487Y0048990D01*
X0068487Y0048989D02*
X0066754Y0048989D01*
X0066754Y0048988D02*
X0068487Y0048988D01*
X0068487Y0048987D02*
X0066754Y0048987D01*
X0066754Y0048986D02*
X0068487Y0048986D01*
X0068487Y0048985D02*
X0066754Y0048985D01*
X0066754Y0048984D02*
X0068487Y0048984D01*
X0068487Y0048983D02*
X0066754Y0048983D01*
X0066754Y0048982D02*
X0068487Y0048982D01*
X0068487Y0048981D02*
X0066754Y0048981D01*
X0066754Y0048980D02*
X0068487Y0048980D01*
X0068487Y0048979D02*
X0066754Y0048979D01*
X0066754Y0048978D02*
X0068487Y0048978D01*
X0068487Y0048977D02*
X0066754Y0048977D01*
X0066754Y0048976D02*
X0068487Y0048976D01*
X0068487Y0048975D02*
X0066754Y0048975D01*
X0066754Y0048974D02*
X0068487Y0048974D01*
X0068487Y0048973D02*
X0066754Y0048973D01*
X0066754Y0048972D02*
X0068487Y0048972D01*
X0068487Y0048971D02*
X0066754Y0048971D01*
X0066754Y0048970D02*
X0068487Y0048970D01*
X0068487Y0048969D02*
X0066754Y0048969D01*
X0066754Y0048968D02*
X0068487Y0048968D01*
X0068487Y0048967D02*
X0066754Y0048967D01*
X0066754Y0048966D02*
X0068487Y0048966D01*
X0068487Y0048965D02*
X0066754Y0048965D01*
X0066754Y0048964D02*
X0068487Y0048964D01*
X0068487Y0048963D02*
X0066754Y0048963D01*
X0066754Y0048962D02*
X0068487Y0048962D01*
X0068487Y0048961D02*
X0066754Y0048961D01*
X0066754Y0048960D02*
X0068487Y0048960D01*
X0068487Y0048959D02*
X0066754Y0048959D01*
X0066754Y0048958D02*
X0068487Y0048958D01*
X0068487Y0048957D02*
X0066754Y0048957D01*
X0066754Y0048956D02*
X0068487Y0048956D01*
X0066754Y0048956D01*
X0066754Y0048955D02*
X0068487Y0048955D01*
X0068487Y0048954D02*
X0066754Y0048954D01*
X0066754Y0048953D02*
X0068487Y0048953D01*
X0068487Y0048952D02*
X0066754Y0048952D01*
X0066754Y0048951D02*
X0068487Y0048951D01*
X0068487Y0048950D02*
X0066754Y0048950D01*
X0066754Y0048949D02*
X0068487Y0048949D01*
X0068487Y0048948D02*
X0066754Y0048948D01*
X0066754Y0048947D02*
X0068487Y0048947D01*
X0068487Y0048946D02*
X0066754Y0048946D01*
X0066754Y0048945D02*
X0068487Y0048945D01*
X0068487Y0048944D02*
X0066754Y0048944D01*
X0066754Y0048943D02*
X0068487Y0048943D01*
X0068487Y0048942D02*
X0066754Y0048942D01*
X0066754Y0048941D02*
X0068487Y0048941D01*
X0068487Y0048940D02*
X0066754Y0048940D01*
X0066754Y0048939D02*
X0068487Y0048939D01*
X0068487Y0048938D02*
X0066754Y0048938D01*
X0066754Y0048937D02*
X0068487Y0048937D01*
X0068487Y0048936D02*
X0066754Y0048936D01*
X0066754Y0048935D02*
X0068487Y0048935D01*
X0068487Y0048934D02*
X0066754Y0048934D01*
X0066754Y0048933D02*
X0068487Y0048933D01*
X0068487Y0048932D02*
X0066754Y0048932D01*
X0066754Y0048931D02*
X0068487Y0048931D01*
X0068487Y0048930D02*
X0066754Y0048930D01*
X0066754Y0048929D02*
X0068487Y0048929D01*
X0068487Y0048928D02*
X0066754Y0048928D01*
X0066754Y0048927D02*
X0068487Y0048927D01*
X0068487Y0048926D02*
X0066754Y0048926D01*
X0066754Y0048925D02*
X0068487Y0048925D01*
X0068487Y0048924D02*
X0066754Y0048924D01*
X0066754Y0048923D02*
X0068487Y0048923D01*
X0068487Y0048922D02*
X0066754Y0048922D01*
X0066754Y0048921D02*
X0068487Y0048921D01*
X0068487Y0048920D02*
X0066754Y0048920D01*
X0066754Y0048919D02*
X0068487Y0048919D01*
X0068487Y0048918D02*
X0066754Y0048918D01*
X0066754Y0048917D02*
X0068487Y0048917D01*
X0068487Y0048916D02*
X0066754Y0048916D01*
X0066754Y0048915D02*
X0068487Y0048915D01*
X0068487Y0048914D02*
X0066754Y0048914D01*
X0066754Y0048913D02*
X0068487Y0048913D01*
X0068487Y0048912D02*
X0066754Y0048912D01*
X0066754Y0048911D02*
X0068487Y0048911D01*
X0068487Y0048910D02*
X0066754Y0048910D01*
X0066754Y0048909D02*
X0068487Y0048909D01*
X0068487Y0048908D02*
X0066754Y0048908D01*
X0066754Y0048907D02*
X0068487Y0048907D01*
X0068487Y0048906D02*
X0066754Y0048906D01*
X0066754Y0048905D02*
X0068487Y0048905D01*
X0068487Y0048904D02*
X0066754Y0048904D01*
X0066754Y0048903D02*
X0068487Y0048903D01*
X0068487Y0048902D02*
X0066754Y0048902D01*
X0066754Y0048901D02*
X0068487Y0048901D01*
X0068487Y0048900D02*
X0066754Y0048900D01*
X0066754Y0048899D02*
X0068487Y0048899D01*
X0068487Y0048898D02*
X0066754Y0048898D01*
X0066754Y0048897D02*
X0068487Y0048897D01*
X0068487Y0048896D02*
X0066754Y0048896D01*
X0066754Y0048895D02*
X0068487Y0048895D01*
X0068487Y0048894D02*
X0066754Y0048894D01*
X0068487Y0048894D01*
X0068487Y0048893D02*
X0066754Y0048893D01*
X0066754Y0048892D02*
X0068487Y0048892D01*
X0068487Y0048891D02*
X0066754Y0048891D01*
X0066754Y0048890D02*
X0068487Y0048890D01*
X0068487Y0048889D02*
X0066754Y0048889D01*
X0066754Y0048888D02*
X0068487Y0048888D01*
X0068487Y0048887D02*
X0066754Y0048887D01*
X0066754Y0048886D02*
X0068487Y0048886D01*
X0068487Y0048885D02*
X0066754Y0048885D01*
X0066754Y0048884D02*
X0068487Y0048884D01*
X0068487Y0048883D02*
X0066754Y0048883D01*
X0066754Y0048882D02*
X0068487Y0048882D01*
X0068487Y0048881D02*
X0066754Y0048881D01*
X0066754Y0048880D02*
X0068487Y0048880D01*
X0068487Y0048879D02*
X0066754Y0048879D01*
X0066754Y0048878D02*
X0068487Y0048878D01*
X0068487Y0048877D02*
X0066754Y0048877D01*
X0066754Y0048876D02*
X0068487Y0048876D01*
X0068487Y0048875D02*
X0066754Y0048875D01*
X0066754Y0048874D02*
X0068487Y0048874D01*
X0068487Y0048873D02*
X0066754Y0048873D01*
X0066754Y0048872D02*
X0068487Y0048872D01*
X0068487Y0048871D02*
X0066754Y0048871D01*
X0066754Y0048870D02*
X0068487Y0048870D01*
X0068487Y0048869D02*
X0066754Y0048869D01*
X0066754Y0048868D02*
X0068487Y0048868D01*
X0068487Y0048867D02*
X0066754Y0048867D01*
X0066754Y0048866D02*
X0068487Y0048866D01*
X0068487Y0048865D02*
X0066754Y0048865D01*
X0066754Y0048864D02*
X0068487Y0048864D01*
X0068487Y0048863D02*
X0066754Y0048863D01*
X0066754Y0048862D02*
X0068487Y0048862D01*
X0068487Y0048861D02*
X0066754Y0048861D01*
X0066754Y0048860D02*
X0068487Y0048860D01*
X0068487Y0048859D02*
X0066754Y0048859D01*
X0066754Y0048858D02*
X0068487Y0048858D01*
X0068487Y0048857D02*
X0066754Y0048857D01*
X0066754Y0048856D02*
X0068487Y0048856D01*
X0068487Y0048855D02*
X0066754Y0048855D01*
X0066754Y0048854D02*
X0068487Y0048854D01*
X0068487Y0048853D02*
X0066754Y0048853D01*
X0066754Y0048852D02*
X0068487Y0048852D01*
X0068487Y0048851D02*
X0066754Y0048851D01*
X0066754Y0048850D02*
X0068487Y0048850D01*
X0068487Y0048849D02*
X0066754Y0048849D01*
X0066754Y0048848D02*
X0068487Y0048848D01*
X0068487Y0048847D02*
X0066754Y0048847D01*
X0066754Y0048846D02*
X0068487Y0048846D01*
X0068487Y0048845D02*
X0066754Y0048845D01*
X0066754Y0048844D02*
X0068487Y0048844D01*
X0068487Y0048843D02*
X0066754Y0048843D01*
X0066754Y0048842D02*
X0068487Y0048842D01*
X0068487Y0048841D02*
X0066754Y0048841D01*
X0066754Y0048840D02*
X0068487Y0048840D01*
X0068487Y0048839D02*
X0066754Y0048839D01*
X0066754Y0048838D02*
X0068487Y0048838D01*
X0068487Y0048837D02*
X0066754Y0048837D01*
X0066754Y0048836D02*
X0068487Y0048836D01*
X0068487Y0048835D02*
X0066754Y0048835D01*
X0066754Y0048834D02*
X0068487Y0048834D01*
X0068487Y0048833D02*
X0066754Y0048833D01*
X0066754Y0048832D02*
X0068487Y0048832D01*
X0068487Y0048831D02*
X0066754Y0048831D01*
X0068487Y0048831D01*
X0068487Y0048830D02*
X0066754Y0048830D01*
X0066754Y0048829D02*
X0068487Y0048829D01*
X0068487Y0048828D02*
X0066754Y0048828D01*
X0066754Y0048827D02*
X0068487Y0048827D01*
X0068487Y0048826D02*
X0066754Y0048826D01*
X0066754Y0048825D02*
X0068487Y0048825D01*
X0068487Y0048824D02*
X0066754Y0048824D01*
X0066754Y0048823D02*
X0068487Y0048823D01*
X0068487Y0048822D02*
X0066754Y0048822D01*
X0066754Y0048821D02*
X0068487Y0048821D01*
X0068487Y0048820D02*
X0066754Y0048820D01*
X0066754Y0048819D02*
X0068487Y0048819D01*
X0068487Y0048818D02*
X0066754Y0048818D01*
X0066754Y0048817D02*
X0068487Y0048817D01*
X0068487Y0048816D02*
X0066754Y0048816D01*
X0066754Y0048815D02*
X0068487Y0048815D01*
X0068487Y0048814D02*
X0066754Y0048814D01*
X0066754Y0048813D02*
X0068487Y0048813D01*
X0068487Y0048812D02*
X0066754Y0048812D01*
X0066754Y0048811D02*
X0068487Y0048811D01*
X0068487Y0048810D02*
X0066754Y0048810D01*
X0066754Y0048809D02*
X0068487Y0048809D01*
X0068487Y0048808D02*
X0066754Y0048808D01*
X0066754Y0048807D02*
X0068487Y0048807D01*
X0068487Y0048806D02*
X0066754Y0048806D01*
X0066754Y0048805D02*
X0068487Y0048805D01*
X0068487Y0048804D02*
X0066754Y0048804D01*
X0066754Y0048803D02*
X0068487Y0048803D01*
X0068487Y0048802D02*
X0066754Y0048802D01*
X0066754Y0048801D02*
X0068487Y0048801D01*
X0068487Y0048800D02*
X0066754Y0048800D01*
X0066754Y0048799D02*
X0068487Y0048799D01*
X0068487Y0048798D02*
X0066754Y0048798D01*
X0066754Y0048797D02*
X0068487Y0048797D01*
X0068487Y0048796D02*
X0066754Y0048796D01*
X0066754Y0048795D02*
X0068487Y0048795D01*
X0068487Y0048794D02*
X0066754Y0048794D01*
X0066754Y0048793D02*
X0068487Y0048793D01*
X0068487Y0048792D02*
X0066754Y0048792D01*
X0066754Y0048791D02*
X0068487Y0048791D01*
X0068487Y0048790D02*
X0066754Y0048790D01*
X0066754Y0048789D02*
X0068487Y0048789D01*
X0068487Y0048788D02*
X0066754Y0048788D01*
X0066754Y0048787D02*
X0068487Y0048787D01*
X0068487Y0048786D02*
X0066754Y0048786D01*
X0066754Y0048785D02*
X0068487Y0048785D01*
X0068487Y0048784D02*
X0066754Y0048784D01*
X0066754Y0048783D02*
X0068487Y0048783D01*
X0068487Y0048782D02*
X0066754Y0048782D01*
X0066754Y0048781D02*
X0068487Y0048781D01*
X0068487Y0048780D02*
X0066754Y0048780D01*
X0066754Y0048779D02*
X0068487Y0048779D01*
X0068487Y0048778D02*
X0066754Y0048778D01*
X0066754Y0048777D02*
X0068487Y0048777D01*
X0068487Y0048776D02*
X0066754Y0048776D01*
X0066754Y0048775D02*
X0068487Y0048775D01*
X0068487Y0048774D02*
X0066754Y0048774D01*
X0066754Y0048773D02*
X0068487Y0048773D01*
X0068487Y0048772D02*
X0066754Y0048772D01*
X0066754Y0048771D02*
X0068487Y0048771D01*
X0068487Y0048770D02*
X0066754Y0048770D01*
X0066754Y0048769D02*
X0068487Y0048769D01*
X0066754Y0048769D01*
X0066754Y0048768D02*
X0068487Y0048768D01*
X0068487Y0048767D02*
X0066754Y0048767D01*
X0066754Y0048766D02*
X0068487Y0048766D01*
X0068487Y0048765D02*
X0066754Y0048765D01*
X0066754Y0048764D02*
X0068487Y0048764D01*
X0068487Y0048763D02*
X0066754Y0048763D01*
X0066754Y0048762D02*
X0068487Y0048762D01*
X0068487Y0048761D02*
X0066754Y0048761D01*
X0066754Y0048760D02*
X0068487Y0048760D01*
X0068487Y0048759D02*
X0066754Y0048759D01*
X0066754Y0048758D02*
X0068487Y0048758D01*
X0068487Y0048757D02*
X0066754Y0048757D01*
X0066754Y0048756D02*
X0068487Y0048756D01*
X0068487Y0048755D02*
X0066754Y0048755D01*
X0066754Y0048754D02*
X0068487Y0048754D01*
X0068487Y0048753D02*
X0066754Y0048753D01*
X0066754Y0048752D02*
X0068487Y0048752D01*
X0068487Y0048751D02*
X0066754Y0048751D01*
X0066754Y0048750D02*
X0068487Y0048750D01*
X0068487Y0048749D02*
X0066754Y0048749D01*
X0066754Y0048748D02*
X0068487Y0048748D01*
X0068487Y0048747D02*
X0066754Y0048747D01*
X0066754Y0048746D02*
X0068487Y0048746D01*
X0068487Y0048745D02*
X0066754Y0048745D01*
X0066754Y0048744D02*
X0068487Y0048744D01*
X0068487Y0048743D02*
X0066754Y0048743D01*
X0066754Y0048742D02*
X0068487Y0048742D01*
X0068487Y0048741D02*
X0066754Y0048741D01*
X0066754Y0048740D02*
X0068487Y0048740D01*
X0068487Y0048739D02*
X0066754Y0048739D01*
X0066754Y0048738D02*
X0068487Y0048738D01*
X0068487Y0048737D02*
X0066754Y0048737D01*
X0066754Y0048736D02*
X0068487Y0048736D01*
X0068487Y0048735D02*
X0066754Y0048735D01*
X0066754Y0048734D02*
X0068487Y0048734D01*
X0068487Y0048733D02*
X0066754Y0048733D01*
X0066754Y0048732D02*
X0068487Y0048732D01*
X0068487Y0048731D02*
X0066754Y0048731D01*
X0066754Y0048730D02*
X0068487Y0048730D01*
X0068487Y0048729D02*
X0066754Y0048729D01*
X0066754Y0048728D02*
X0068487Y0048728D01*
X0068487Y0048727D02*
X0066754Y0048727D01*
X0066754Y0048726D02*
X0068487Y0048726D01*
X0068487Y0048725D02*
X0066754Y0048725D01*
X0066754Y0048724D02*
X0068487Y0048724D01*
X0068487Y0048723D02*
X0066754Y0048723D01*
X0066754Y0048722D02*
X0068487Y0048722D01*
X0068487Y0048721D02*
X0066754Y0048721D01*
X0066754Y0048720D02*
X0068487Y0048720D01*
X0068487Y0048719D02*
X0066754Y0048719D01*
X0066754Y0048718D02*
X0068487Y0048718D01*
X0068487Y0048717D02*
X0066754Y0048717D01*
X0066754Y0048716D02*
X0068487Y0048716D01*
X0068487Y0048715D02*
X0066754Y0048715D01*
X0066754Y0048714D02*
X0068487Y0048714D01*
X0068487Y0048713D02*
X0066754Y0048713D01*
X0066754Y0048712D02*
X0068487Y0048712D01*
X0068487Y0048711D02*
X0066754Y0048711D01*
X0066754Y0048710D02*
X0068487Y0048710D01*
X0068487Y0048709D02*
X0066754Y0048709D01*
X0066754Y0048708D02*
X0068487Y0048708D01*
X0068487Y0048707D02*
X0066754Y0048707D01*
X0066754Y0048706D02*
X0068487Y0048706D01*
X0066754Y0048706D01*
X0066754Y0048705D02*
X0068487Y0048705D01*
X0068487Y0048704D02*
X0066754Y0048704D01*
X0066754Y0048703D02*
X0068487Y0048703D01*
X0068487Y0048702D02*
X0066754Y0048702D01*
X0066754Y0048701D02*
X0068487Y0048701D01*
X0068487Y0048700D02*
X0066754Y0048700D01*
X0066754Y0048699D02*
X0068487Y0048699D01*
X0068487Y0048698D02*
X0066754Y0048698D01*
X0066754Y0048697D02*
X0068487Y0048697D01*
X0068487Y0048696D02*
X0066754Y0048696D01*
X0066754Y0048695D02*
X0068487Y0048695D01*
X0068487Y0048694D02*
X0066754Y0048694D01*
X0066754Y0048693D02*
X0068487Y0048693D01*
X0068487Y0048692D02*
X0066754Y0048692D01*
X0066754Y0048691D02*
X0068487Y0048691D01*
X0068487Y0048690D02*
X0066754Y0048690D01*
X0066754Y0048689D02*
X0068487Y0048689D01*
X0068487Y0048688D02*
X0066754Y0048688D01*
X0066754Y0048687D02*
X0068487Y0048687D01*
X0068487Y0048686D02*
X0066754Y0048686D01*
X0066754Y0048685D02*
X0068487Y0048685D01*
X0068487Y0048684D02*
X0066754Y0048684D01*
X0066754Y0048683D02*
X0068487Y0048683D01*
X0068487Y0048682D02*
X0066754Y0048682D01*
X0066754Y0048681D02*
X0068487Y0048681D01*
X0068487Y0048680D02*
X0066754Y0048680D01*
X0066754Y0048679D02*
X0068487Y0048679D01*
X0068487Y0048678D02*
X0066754Y0048678D01*
X0066754Y0048677D02*
X0068487Y0048677D01*
X0068487Y0048676D02*
X0066754Y0048676D01*
X0066754Y0048675D02*
X0068487Y0048675D01*
X0068487Y0048674D02*
X0066754Y0048674D01*
X0066754Y0048673D02*
X0068487Y0048673D01*
X0068487Y0048672D02*
X0066754Y0048672D01*
X0066754Y0048671D02*
X0068487Y0048671D01*
X0068487Y0048670D02*
X0066754Y0048670D01*
X0066754Y0048669D02*
X0068487Y0048669D01*
X0068487Y0048668D02*
X0066754Y0048668D01*
X0066754Y0048667D02*
X0068487Y0048667D01*
X0068487Y0048666D02*
X0066754Y0048666D01*
X0066754Y0048665D02*
X0068487Y0048665D01*
X0068487Y0048664D02*
X0066754Y0048664D01*
X0066754Y0048663D02*
X0068487Y0048663D01*
X0068487Y0048662D02*
X0066754Y0048662D01*
X0066754Y0048661D02*
X0068487Y0048661D01*
X0068487Y0048660D02*
X0066754Y0048660D01*
X0066754Y0048659D02*
X0068487Y0048659D01*
X0068487Y0048658D02*
X0066754Y0048658D01*
X0066754Y0048657D02*
X0068487Y0048657D01*
X0068487Y0048656D02*
X0066754Y0048656D01*
X0066754Y0048655D02*
X0068487Y0048655D01*
X0068487Y0048654D02*
X0066754Y0048654D01*
X0066754Y0048653D02*
X0068487Y0048653D01*
X0068487Y0048652D02*
X0066754Y0048652D01*
X0066754Y0048651D02*
X0068487Y0048651D01*
X0068487Y0048650D02*
X0066754Y0048650D01*
X0066754Y0048649D02*
X0068487Y0048649D01*
X0068487Y0048648D02*
X0066754Y0048648D01*
X0066754Y0048647D02*
X0068487Y0048647D01*
X0068487Y0048646D02*
X0066754Y0048646D01*
X0066754Y0048645D02*
X0068487Y0048645D01*
X0068487Y0048644D02*
X0066754Y0048644D01*
X0068487Y0048644D01*
X0068487Y0048643D02*
X0066754Y0048643D01*
X0066754Y0048642D02*
X0068487Y0048642D01*
X0068487Y0048641D02*
X0066754Y0048641D01*
X0066754Y0048640D02*
X0068487Y0048640D01*
X0068487Y0048639D02*
X0066754Y0048639D01*
X0066754Y0048638D02*
X0068487Y0048638D01*
X0068487Y0048637D02*
X0066754Y0048637D01*
X0066754Y0048636D02*
X0068487Y0048636D01*
X0068487Y0048635D02*
X0066754Y0048635D01*
X0066754Y0048634D02*
X0068487Y0048634D01*
X0068487Y0048633D02*
X0066754Y0048633D01*
X0066754Y0048632D02*
X0068487Y0048632D01*
X0068487Y0048631D02*
X0066754Y0048631D01*
X0066754Y0048630D02*
X0068487Y0048630D01*
X0068487Y0048629D02*
X0066754Y0048629D01*
X0066754Y0048628D02*
X0068487Y0048628D01*
X0068487Y0048627D02*
X0066754Y0048627D01*
X0066754Y0048626D02*
X0068487Y0048626D01*
X0068487Y0048625D02*
X0066754Y0048625D01*
X0066754Y0048624D02*
X0068487Y0048624D01*
X0068487Y0048623D02*
X0066754Y0048623D01*
X0066754Y0048622D02*
X0068487Y0048622D01*
X0068487Y0048621D02*
X0066754Y0048621D01*
X0066754Y0048620D02*
X0068487Y0048620D01*
X0068487Y0048619D02*
X0066754Y0048619D01*
X0066754Y0048618D02*
X0068487Y0048618D01*
X0068487Y0048617D02*
X0066754Y0048617D01*
X0066754Y0048616D02*
X0068487Y0048616D01*
X0068487Y0048615D02*
X0066754Y0048615D01*
X0066754Y0048614D02*
X0068487Y0048614D01*
X0068487Y0048613D02*
X0066754Y0048613D01*
X0066754Y0048612D02*
X0068487Y0048612D01*
X0068487Y0048611D02*
X0066754Y0048611D01*
X0066754Y0048610D02*
X0068487Y0048610D01*
X0068487Y0048609D02*
X0066754Y0048609D01*
X0066754Y0048608D02*
X0068487Y0048608D01*
X0068487Y0048607D02*
X0066754Y0048607D01*
X0066754Y0048606D02*
X0068487Y0048606D01*
X0068487Y0048605D02*
X0066754Y0048605D01*
X0066754Y0048604D02*
X0068487Y0048604D01*
X0068487Y0048603D02*
X0066754Y0048603D01*
X0066754Y0048602D02*
X0068487Y0048602D01*
X0068487Y0048601D02*
X0066754Y0048601D01*
X0066754Y0048600D02*
X0068487Y0048600D01*
X0068487Y0048599D02*
X0066754Y0048599D01*
X0066754Y0048598D02*
X0068487Y0048598D01*
X0068487Y0048597D02*
X0066754Y0048597D01*
X0066754Y0048596D02*
X0068487Y0048596D01*
X0068487Y0048595D02*
X0066754Y0048595D01*
X0066754Y0048594D02*
X0068487Y0048594D01*
X0068487Y0048593D02*
X0066754Y0048593D01*
X0066754Y0048592D02*
X0068487Y0048592D01*
X0068487Y0048591D02*
X0066754Y0048591D01*
X0066754Y0048590D02*
X0068487Y0048590D01*
X0068487Y0048589D02*
X0066754Y0048589D01*
X0066754Y0048588D02*
X0068487Y0048588D01*
X0068487Y0048587D02*
X0066754Y0048587D01*
X0066754Y0048586D02*
X0068487Y0048586D01*
X0068487Y0048585D02*
X0066754Y0048585D01*
X0066754Y0048584D02*
X0068487Y0048584D01*
X0068487Y0048583D02*
X0066754Y0048583D01*
X0066754Y0048582D02*
X0068487Y0048582D01*
X0068487Y0048581D02*
X0066754Y0048581D01*
X0068487Y0048581D01*
X0068487Y0048580D02*
X0066754Y0048580D01*
X0066754Y0048579D02*
X0068487Y0048579D01*
X0068487Y0048578D02*
X0066754Y0048578D01*
X0066754Y0048577D02*
X0068487Y0048577D01*
X0068487Y0048576D02*
X0066754Y0048576D01*
X0066754Y0048575D02*
X0068487Y0048575D01*
X0068487Y0048574D02*
X0066754Y0048574D01*
X0066754Y0048573D02*
X0068487Y0048573D01*
X0068487Y0048572D02*
X0066754Y0048572D01*
X0066754Y0048571D02*
X0068487Y0048571D01*
X0068487Y0048570D02*
X0066754Y0048570D01*
X0066754Y0048569D02*
X0068487Y0048569D01*
X0068487Y0048568D02*
X0066754Y0048568D01*
X0066754Y0048567D02*
X0068487Y0048567D01*
X0068487Y0048566D02*
X0066754Y0048566D01*
X0066754Y0048565D02*
X0068487Y0048565D01*
X0068487Y0048564D02*
X0066754Y0048564D01*
X0066754Y0048563D02*
X0068487Y0048563D01*
X0068487Y0048562D02*
X0066754Y0048562D01*
X0066754Y0048561D02*
X0068487Y0048561D01*
X0068487Y0048560D02*
X0066754Y0048560D01*
X0066754Y0048559D02*
X0068487Y0048559D01*
X0068487Y0048558D02*
X0066754Y0048558D01*
X0066754Y0048557D02*
X0068487Y0048557D01*
X0068487Y0048556D02*
X0066754Y0048556D01*
X0066754Y0048555D02*
X0068487Y0048555D01*
X0068487Y0048554D02*
X0066754Y0048554D01*
X0066754Y0048553D02*
X0068487Y0048553D01*
X0068487Y0048552D02*
X0066754Y0048552D01*
X0066754Y0048551D02*
X0068487Y0048551D01*
X0068487Y0048550D02*
X0066754Y0048550D01*
X0066754Y0048549D02*
X0068487Y0048549D01*
X0068487Y0048548D02*
X0066754Y0048548D01*
X0066754Y0048547D02*
X0068487Y0048547D01*
X0068487Y0048546D02*
X0066754Y0048546D01*
X0066754Y0048545D02*
X0068487Y0048545D01*
X0068487Y0048544D02*
X0066754Y0048544D01*
X0066754Y0048543D02*
X0068487Y0048543D01*
X0068487Y0048542D02*
X0066754Y0048542D01*
X0066754Y0048541D02*
X0068487Y0048541D01*
X0068487Y0048540D02*
X0066754Y0048540D01*
X0066754Y0048539D02*
X0068487Y0048539D01*
X0068487Y0048538D02*
X0066754Y0048538D01*
X0066754Y0048537D02*
X0068487Y0048537D01*
X0068487Y0048536D02*
X0066754Y0048536D01*
X0066754Y0048535D02*
X0068487Y0048535D01*
X0068487Y0048534D02*
X0066754Y0048534D01*
X0066754Y0048533D02*
X0068487Y0048533D01*
X0068487Y0048532D02*
X0066754Y0048532D01*
X0066754Y0048531D02*
X0068487Y0048531D01*
X0068487Y0048530D02*
X0066754Y0048530D01*
X0066754Y0048529D02*
X0068487Y0048529D01*
X0068487Y0048528D02*
X0066754Y0048528D01*
X0066754Y0048527D02*
X0068487Y0048527D01*
X0068487Y0048526D02*
X0066754Y0048526D01*
X0066754Y0048525D02*
X0068487Y0048525D01*
X0068487Y0048524D02*
X0066754Y0048524D01*
X0066754Y0048523D02*
X0068487Y0048523D01*
X0068487Y0048522D02*
X0066754Y0048522D01*
X0066754Y0048521D02*
X0068487Y0048521D01*
X0068487Y0048520D02*
X0066754Y0048520D01*
X0066754Y0048519D02*
X0068487Y0048519D01*
X0066754Y0048519D01*
X0066754Y0048518D02*
X0068487Y0048518D01*
X0068487Y0048517D02*
X0066754Y0048517D01*
X0066754Y0048516D02*
X0068487Y0048516D01*
X0068487Y0048515D02*
X0066754Y0048515D01*
X0066754Y0048514D02*
X0068487Y0048514D01*
X0068487Y0048513D02*
X0066754Y0048513D01*
X0066754Y0048512D02*
X0068487Y0048512D01*
X0068487Y0048511D02*
X0066754Y0048511D01*
X0066754Y0048510D02*
X0068487Y0048510D01*
X0068487Y0048509D02*
X0066754Y0048509D01*
X0066754Y0048508D02*
X0068487Y0048508D01*
X0068487Y0048507D02*
X0066754Y0048507D01*
X0066754Y0048506D02*
X0068487Y0048506D01*
X0068487Y0048505D02*
X0066754Y0048505D01*
X0066754Y0048504D02*
X0068487Y0048504D01*
X0068487Y0048503D02*
X0066754Y0048503D01*
X0066754Y0048502D02*
X0068487Y0048502D01*
X0068487Y0048501D02*
X0066754Y0048501D01*
X0066754Y0048500D02*
X0068487Y0048500D01*
X0068487Y0048499D02*
X0066754Y0048499D01*
X0066754Y0048498D02*
X0068487Y0048498D01*
X0068487Y0048497D02*
X0066754Y0048497D01*
X0066754Y0048496D02*
X0068487Y0048496D01*
X0068487Y0048495D02*
X0066754Y0048495D01*
X0066754Y0048494D02*
X0068487Y0048494D01*
X0068487Y0048493D02*
X0066754Y0048493D01*
X0066754Y0048492D02*
X0068487Y0048492D01*
X0068487Y0048491D02*
X0066754Y0048491D01*
X0066754Y0048490D02*
X0068487Y0048490D01*
X0068487Y0048489D02*
X0066754Y0048489D01*
X0066754Y0048488D02*
X0068487Y0048488D01*
X0068487Y0048487D02*
X0066754Y0048487D01*
X0066754Y0048486D02*
X0068487Y0048486D01*
X0068487Y0048485D02*
X0066754Y0048485D01*
X0066754Y0048484D02*
X0068487Y0048484D01*
X0068487Y0048483D02*
X0066754Y0048483D01*
X0066754Y0048482D02*
X0068487Y0048482D01*
X0068487Y0048481D02*
X0066754Y0048481D01*
X0066754Y0048480D02*
X0068487Y0048480D01*
X0068487Y0048479D02*
X0066754Y0048479D01*
X0066754Y0048478D02*
X0068487Y0048478D01*
X0068487Y0048477D02*
X0066754Y0048477D01*
X0066754Y0048476D02*
X0068487Y0048476D01*
X0068487Y0048475D02*
X0066754Y0048475D01*
X0066754Y0048474D02*
X0068487Y0048474D01*
X0068487Y0048473D02*
X0066754Y0048473D01*
X0066754Y0048472D02*
X0068487Y0048472D01*
X0068487Y0048471D02*
X0066754Y0048471D01*
X0066754Y0048470D02*
X0068487Y0048470D01*
X0068487Y0048469D02*
X0066754Y0048469D01*
X0066754Y0048468D02*
X0068487Y0048468D01*
X0068487Y0048467D02*
X0066754Y0048467D01*
X0066754Y0048466D02*
X0068487Y0048466D01*
X0068487Y0048465D02*
X0066754Y0048465D01*
X0066754Y0048464D02*
X0068487Y0048464D01*
X0068487Y0048463D02*
X0066754Y0048463D01*
X0066754Y0048462D02*
X0068487Y0048462D01*
X0068487Y0048461D02*
X0066754Y0048461D01*
X0066754Y0048460D02*
X0068487Y0048460D01*
X0068487Y0048459D02*
X0066754Y0048459D01*
X0066754Y0048458D02*
X0068487Y0048458D01*
X0068487Y0048457D02*
X0066754Y0048457D01*
X0066754Y0048456D02*
X0068487Y0048456D01*
X0066754Y0048456D01*
X0066754Y0048455D02*
X0068487Y0048455D01*
X0068487Y0048454D02*
X0066754Y0048454D01*
X0066754Y0048453D02*
X0068487Y0048453D01*
X0068487Y0048452D02*
X0066754Y0048452D01*
X0066754Y0048451D02*
X0068487Y0048451D01*
X0068487Y0048450D02*
X0066754Y0048450D01*
X0066754Y0048449D02*
X0068487Y0048449D01*
X0068487Y0048448D02*
X0066754Y0048448D01*
X0066754Y0048447D02*
X0068487Y0048447D01*
X0068487Y0048446D02*
X0066754Y0048446D01*
X0066754Y0048445D02*
X0068487Y0048445D01*
X0068487Y0048444D02*
X0066754Y0048444D01*
X0066754Y0048443D02*
X0068487Y0048443D01*
X0068487Y0048442D02*
X0066754Y0048442D01*
X0066754Y0048441D02*
X0068487Y0048441D01*
X0068487Y0048440D02*
X0066754Y0048440D01*
X0066754Y0048439D02*
X0068487Y0048439D01*
X0068487Y0048438D02*
X0066754Y0048438D01*
X0066754Y0048437D02*
X0068487Y0048437D01*
X0068487Y0048436D02*
X0066754Y0048436D01*
X0066754Y0048435D02*
X0068487Y0048435D01*
X0068487Y0048434D02*
X0066754Y0048434D01*
X0066754Y0048433D02*
X0068487Y0048433D01*
X0068487Y0048432D02*
X0066754Y0048432D01*
X0066754Y0048431D02*
X0068487Y0048431D01*
X0068487Y0048430D02*
X0066754Y0048430D01*
X0066754Y0048429D02*
X0068487Y0048429D01*
X0068487Y0048428D02*
X0066754Y0048428D01*
X0066754Y0048427D02*
X0068487Y0048427D01*
X0068487Y0048426D02*
X0066754Y0048426D01*
X0066754Y0048425D02*
X0068487Y0048425D01*
X0068487Y0048424D02*
X0066754Y0048424D01*
X0066754Y0048423D02*
X0068487Y0048423D01*
X0068487Y0048422D02*
X0066754Y0048422D01*
X0066754Y0048421D02*
X0068487Y0048421D01*
X0068487Y0048420D02*
X0066754Y0048420D01*
X0066754Y0048419D02*
X0068487Y0048419D01*
X0068487Y0048418D02*
X0066754Y0048418D01*
X0066754Y0048417D02*
X0068487Y0048417D01*
X0068487Y0048416D02*
X0066754Y0048416D01*
X0066754Y0048415D02*
X0068487Y0048415D01*
X0068487Y0048414D02*
X0066754Y0048414D01*
X0066754Y0048413D02*
X0068487Y0048413D01*
X0068487Y0048412D02*
X0066754Y0048412D01*
X0066754Y0048411D02*
X0068487Y0048411D01*
X0068487Y0048410D02*
X0066754Y0048410D01*
X0066754Y0048409D02*
X0068487Y0048409D01*
X0068487Y0048408D02*
X0066754Y0048408D01*
X0066754Y0048407D02*
X0068487Y0048407D01*
X0068487Y0048406D02*
X0066754Y0048406D01*
X0066754Y0048405D02*
X0068487Y0048405D01*
X0068487Y0048404D02*
X0066754Y0048404D01*
X0066754Y0048403D02*
X0068487Y0048403D01*
X0068487Y0048402D02*
X0066754Y0048402D01*
X0066754Y0048401D02*
X0068487Y0048401D01*
X0068487Y0048400D02*
X0066754Y0048400D01*
X0066754Y0048399D02*
X0068487Y0048399D01*
X0068487Y0048398D02*
X0066754Y0048398D01*
X0066754Y0048397D02*
X0068487Y0048397D01*
X0068487Y0048396D02*
X0066754Y0048396D01*
X0066754Y0048395D02*
X0068487Y0048395D01*
X0068487Y0048394D02*
X0066754Y0048394D01*
X0068487Y0048394D01*
X0068487Y0048393D02*
X0066754Y0048393D01*
X0066754Y0048392D02*
X0068487Y0048392D01*
X0068487Y0048391D02*
X0066754Y0048391D01*
X0066754Y0048390D02*
X0068487Y0048390D01*
X0068487Y0048389D02*
X0066754Y0048389D01*
X0066754Y0048388D02*
X0068487Y0048388D01*
X0068487Y0048387D02*
X0066754Y0048387D01*
X0066754Y0048386D02*
X0068487Y0048386D01*
X0068487Y0048385D02*
X0066754Y0048385D01*
X0066754Y0048384D02*
X0068487Y0048384D01*
X0068487Y0048383D02*
X0066754Y0048383D01*
X0066754Y0048382D02*
X0068487Y0048382D01*
X0068487Y0048381D02*
X0066754Y0048381D01*
X0066754Y0048380D02*
X0068487Y0048380D01*
X0068487Y0048379D02*
X0066754Y0048379D01*
X0066754Y0048378D02*
X0068487Y0048378D01*
X0068487Y0048377D02*
X0066754Y0048377D01*
X0066754Y0048376D02*
X0068487Y0048376D01*
X0068487Y0048375D02*
X0066754Y0048375D01*
X0066754Y0048374D02*
X0068487Y0048374D01*
X0068487Y0048373D02*
X0066754Y0048373D01*
X0066754Y0048372D02*
X0068487Y0048372D01*
X0068487Y0048371D02*
X0066754Y0048371D01*
X0066754Y0048370D02*
X0068487Y0048370D01*
X0068487Y0048369D02*
X0066754Y0048369D01*
X0066754Y0048368D02*
X0068487Y0048368D01*
X0068487Y0048367D02*
X0066754Y0048367D01*
X0066754Y0048366D02*
X0068487Y0048366D01*
X0068487Y0048365D02*
X0066754Y0048365D01*
X0066754Y0048364D02*
X0068487Y0048364D01*
X0068487Y0048363D02*
X0066754Y0048363D01*
X0066754Y0048362D02*
X0068487Y0048362D01*
X0068487Y0048361D02*
X0066754Y0048361D01*
X0066754Y0048360D02*
X0068487Y0048360D01*
X0068487Y0048359D02*
X0066754Y0048359D01*
X0066754Y0048358D02*
X0068487Y0048358D01*
X0068487Y0048357D02*
X0066754Y0048357D01*
X0066754Y0048356D02*
X0068487Y0048356D01*
X0068487Y0048355D02*
X0066754Y0048355D01*
X0066754Y0048354D02*
X0068487Y0048354D01*
X0068487Y0048353D02*
X0066754Y0048353D01*
X0066754Y0048352D02*
X0068487Y0048352D01*
X0068487Y0048351D02*
X0066754Y0048351D01*
X0066754Y0048350D02*
X0068487Y0048350D01*
X0068487Y0048349D02*
X0066754Y0048349D01*
X0066754Y0048348D02*
X0068487Y0048348D01*
X0068487Y0048347D02*
X0066754Y0048347D01*
X0066754Y0048346D02*
X0068487Y0048346D01*
X0068487Y0048345D02*
X0066754Y0048345D01*
X0066754Y0048344D02*
X0068487Y0048344D01*
X0068487Y0048343D02*
X0066754Y0048343D01*
X0066754Y0048342D02*
X0068487Y0048342D01*
X0068487Y0048341D02*
X0066754Y0048341D01*
X0066754Y0048340D02*
X0068487Y0048340D01*
X0068487Y0048339D02*
X0066754Y0048339D01*
X0066754Y0048338D02*
X0068487Y0048338D01*
X0068487Y0048337D02*
X0066754Y0048337D01*
X0066754Y0048336D02*
X0068487Y0048336D01*
X0068487Y0048335D02*
X0066754Y0048335D01*
X0066754Y0048334D02*
X0068487Y0048334D01*
X0068487Y0048333D02*
X0066754Y0048333D01*
X0066754Y0048332D02*
X0068487Y0048332D01*
X0068487Y0048331D02*
X0066754Y0048331D01*
X0068487Y0048331D01*
X0068487Y0048330D02*
X0066754Y0048330D01*
X0066754Y0048329D02*
X0068487Y0048329D01*
X0068487Y0048328D02*
X0066754Y0048328D01*
X0066754Y0048327D02*
X0068487Y0048327D01*
X0068487Y0048326D02*
X0066754Y0048326D01*
X0066754Y0048325D02*
X0068487Y0048325D01*
X0068487Y0048324D02*
X0066754Y0048324D01*
X0066754Y0048323D02*
X0068487Y0048323D01*
X0068487Y0048322D02*
X0066754Y0048322D01*
X0066754Y0048321D02*
X0068487Y0048321D01*
X0068487Y0048320D02*
X0066754Y0048320D01*
X0066754Y0048319D02*
X0068487Y0048319D01*
X0068487Y0048318D02*
X0066754Y0048318D01*
X0066754Y0048317D02*
X0068487Y0048317D01*
X0068487Y0048316D02*
X0066754Y0048316D01*
X0066754Y0048315D02*
X0068487Y0048315D01*
X0068487Y0048314D02*
X0066754Y0048314D01*
X0066754Y0048313D02*
X0068487Y0048313D01*
X0068487Y0048312D02*
X0066754Y0048312D01*
X0066754Y0048311D02*
X0068487Y0048311D01*
X0068487Y0048310D02*
X0066754Y0048310D01*
X0066754Y0048309D02*
X0068487Y0048309D01*
X0068487Y0048308D02*
X0066754Y0048308D01*
X0066754Y0048307D02*
X0068487Y0048307D01*
X0068487Y0048306D02*
X0066754Y0048306D01*
X0066754Y0048305D02*
X0068487Y0048305D01*
X0068487Y0048304D02*
X0066754Y0048304D01*
X0066754Y0048303D02*
X0068487Y0048303D01*
X0068487Y0048302D02*
X0066754Y0048302D01*
X0066754Y0048301D02*
X0068487Y0048301D01*
X0068487Y0048300D02*
X0066754Y0048300D01*
X0066754Y0048299D02*
X0068487Y0048299D01*
X0068487Y0048298D02*
X0066754Y0048298D01*
X0066754Y0048297D02*
X0068487Y0048297D01*
X0068487Y0048296D02*
X0066754Y0048296D01*
X0066754Y0048295D02*
X0068487Y0048295D01*
X0068487Y0048294D02*
X0066754Y0048294D01*
X0066754Y0048293D02*
X0068487Y0048293D01*
X0068487Y0048292D02*
X0066754Y0048292D01*
X0066754Y0048291D02*
X0068487Y0048291D01*
X0068487Y0048290D02*
X0066754Y0048290D01*
X0066754Y0048289D02*
X0068487Y0048289D01*
X0068487Y0048288D02*
X0066754Y0048288D01*
X0066754Y0048287D02*
X0068487Y0048287D01*
X0068487Y0048286D02*
X0066754Y0048286D01*
X0066754Y0048285D02*
X0068487Y0048285D01*
X0068487Y0048284D02*
X0066754Y0048284D01*
X0066754Y0048283D02*
X0068487Y0048283D01*
X0068487Y0048282D02*
X0066754Y0048282D01*
X0066754Y0048281D02*
X0068487Y0048281D01*
X0068487Y0048280D02*
X0066754Y0048280D01*
X0066754Y0048279D02*
X0068487Y0048279D01*
X0068487Y0048278D02*
X0066754Y0048278D01*
X0066754Y0048277D02*
X0068487Y0048277D01*
X0068487Y0048276D02*
X0066754Y0048276D01*
X0066754Y0048275D02*
X0068487Y0048275D01*
X0068487Y0048274D02*
X0066754Y0048274D01*
X0066754Y0048273D02*
X0068487Y0048273D01*
X0068487Y0048272D02*
X0066754Y0048272D01*
X0066754Y0048271D02*
X0068487Y0048271D01*
X0068487Y0048270D02*
X0066754Y0048270D01*
X0066754Y0048269D02*
X0068487Y0048269D01*
X0066754Y0048269D01*
X0066754Y0048268D02*
X0068487Y0048268D01*
X0068487Y0048267D02*
X0066754Y0048267D01*
X0066754Y0048266D02*
X0068487Y0048266D01*
X0068487Y0048265D02*
X0066754Y0048265D01*
X0066754Y0048264D02*
X0068487Y0048264D01*
X0068487Y0048263D02*
X0066754Y0048263D01*
X0066754Y0048262D02*
X0068487Y0048262D01*
X0068487Y0048261D02*
X0066754Y0048261D01*
X0066754Y0048260D02*
X0068487Y0048260D01*
X0068487Y0048259D02*
X0066754Y0048259D01*
X0066754Y0048258D02*
X0068487Y0048258D01*
X0068487Y0048257D02*
X0066754Y0048257D01*
X0066754Y0048256D02*
X0068487Y0048256D01*
X0068487Y0048255D02*
X0066754Y0048255D01*
X0066754Y0048254D02*
X0068487Y0048254D01*
X0068487Y0048253D02*
X0066754Y0048253D01*
X0066754Y0048252D02*
X0068487Y0048252D01*
X0068487Y0048251D02*
X0066754Y0048251D01*
X0066754Y0048250D02*
X0068487Y0048250D01*
X0068487Y0048249D02*
X0066754Y0048249D01*
X0066754Y0048248D02*
X0068487Y0048248D01*
X0068487Y0048247D02*
X0066754Y0048247D01*
X0066754Y0048246D02*
X0068487Y0048246D01*
X0068487Y0048245D02*
X0066754Y0048245D01*
X0066754Y0048244D02*
X0068487Y0048244D01*
X0068487Y0048243D02*
X0066754Y0048243D01*
X0066754Y0048242D02*
X0068487Y0048242D01*
X0068487Y0048241D02*
X0066754Y0048241D01*
X0066754Y0048240D02*
X0068487Y0048240D01*
X0068487Y0048239D02*
X0066754Y0048239D01*
X0066754Y0048238D02*
X0068487Y0048238D01*
X0068487Y0048237D02*
X0066754Y0048237D01*
X0066754Y0048236D02*
X0068487Y0048236D01*
X0068487Y0048235D02*
X0066754Y0048235D01*
X0066754Y0048234D02*
X0068487Y0048234D01*
X0068487Y0048233D02*
X0066754Y0048233D01*
X0066754Y0048232D02*
X0068487Y0048232D01*
X0068487Y0048231D02*
X0066754Y0048231D01*
X0066754Y0048230D02*
X0068487Y0048230D01*
X0068487Y0048229D02*
X0066754Y0048229D01*
X0066754Y0048228D02*
X0068487Y0048228D01*
X0068487Y0048227D02*
X0066754Y0048227D01*
X0066754Y0048226D02*
X0068487Y0048226D01*
X0068487Y0048225D02*
X0066754Y0048225D01*
X0066754Y0048224D02*
X0068487Y0048224D01*
X0068487Y0048223D02*
X0066754Y0048223D01*
X0066754Y0048222D02*
X0068487Y0048222D01*
X0068487Y0048221D02*
X0066754Y0048221D01*
X0066754Y0048220D02*
X0068487Y0048220D01*
X0068487Y0048219D02*
X0066754Y0048219D01*
X0066754Y0048218D02*
X0068487Y0048218D01*
X0068487Y0048217D02*
X0066754Y0048217D01*
X0066754Y0048216D02*
X0068487Y0048216D01*
X0068487Y0048215D02*
X0066754Y0048215D01*
X0066754Y0048214D02*
X0068487Y0048214D01*
X0068487Y0048213D02*
X0066754Y0048213D01*
X0066754Y0048212D02*
X0068487Y0048212D01*
X0068487Y0048211D02*
X0066754Y0048211D01*
X0066754Y0048210D02*
X0068487Y0048210D01*
X0068487Y0048209D02*
X0066754Y0048209D01*
X0066754Y0048208D02*
X0068487Y0048208D01*
X0068487Y0048207D02*
X0066754Y0048207D01*
X0066754Y0048206D02*
X0068487Y0048206D01*
X0066754Y0048206D01*
X0066754Y0048205D02*
X0068487Y0048205D01*
X0068487Y0048204D02*
X0066754Y0048204D01*
X0066754Y0048203D02*
X0068487Y0048203D01*
X0068487Y0048202D02*
X0066754Y0048202D01*
X0066754Y0048201D02*
X0068487Y0048201D01*
X0068487Y0048200D02*
X0066754Y0048200D01*
X0066754Y0048199D02*
X0068487Y0048199D01*
X0068487Y0048198D02*
X0066754Y0048198D01*
X0066754Y0048197D02*
X0068487Y0048197D01*
X0068487Y0048196D02*
X0066754Y0048196D01*
X0066754Y0048195D02*
X0068487Y0048195D01*
X0068487Y0048194D02*
X0066754Y0048194D01*
X0066754Y0048193D02*
X0068487Y0048193D01*
X0068487Y0048192D02*
X0066754Y0048192D01*
X0066754Y0048191D02*
X0068487Y0048191D01*
X0068487Y0048190D02*
X0066754Y0048190D01*
X0066754Y0048189D02*
X0068487Y0048189D01*
X0068487Y0048188D02*
X0066754Y0048188D01*
X0066754Y0048187D02*
X0068487Y0048187D01*
X0068487Y0048186D02*
X0066754Y0048186D01*
X0066754Y0048185D02*
X0068487Y0048185D01*
X0068487Y0048184D02*
X0066754Y0048184D01*
X0066754Y0048183D02*
X0068487Y0048183D01*
X0068487Y0048182D02*
X0066754Y0048182D01*
X0066754Y0048181D02*
X0068487Y0048181D01*
X0068487Y0048180D02*
X0066754Y0048180D01*
X0066754Y0048179D02*
X0068487Y0048179D01*
X0068487Y0048178D02*
X0066754Y0048178D01*
X0066754Y0048177D02*
X0068487Y0048177D01*
X0068487Y0048176D02*
X0066754Y0048176D01*
X0066754Y0048175D02*
X0068487Y0048175D01*
X0068487Y0048174D02*
X0066754Y0048174D01*
X0066754Y0048173D02*
X0068487Y0048173D01*
X0068487Y0048172D02*
X0066754Y0048172D01*
X0066754Y0048171D02*
X0068487Y0048171D01*
X0068487Y0048170D02*
X0066754Y0048170D01*
X0066754Y0048169D02*
X0068487Y0048169D01*
X0068487Y0048168D02*
X0066754Y0048168D01*
X0066754Y0048167D02*
X0068487Y0048167D01*
X0068487Y0048166D02*
X0066754Y0048166D01*
X0066754Y0048165D02*
X0068487Y0048165D01*
X0068487Y0048164D02*
X0066754Y0048164D01*
X0066754Y0048163D02*
X0068487Y0048163D01*
X0068487Y0048162D02*
X0066754Y0048162D01*
X0066754Y0048161D02*
X0068487Y0048161D01*
X0068487Y0048160D02*
X0066754Y0048160D01*
X0066754Y0048159D02*
X0068487Y0048159D01*
X0068487Y0048158D02*
X0066754Y0048158D01*
X0066754Y0048157D02*
X0068487Y0048157D01*
X0068487Y0048156D02*
X0066754Y0048156D01*
X0066754Y0048155D02*
X0068487Y0048155D01*
X0068487Y0048154D02*
X0066754Y0048154D01*
X0066754Y0048153D02*
X0068487Y0048153D01*
X0068487Y0048152D02*
X0066754Y0048152D01*
X0066754Y0048151D02*
X0068487Y0048151D01*
X0068487Y0048150D02*
X0066754Y0048150D01*
X0066754Y0048149D02*
X0068487Y0048149D01*
X0068487Y0048148D02*
X0066754Y0048148D01*
X0066754Y0048147D02*
X0068487Y0048147D01*
X0068487Y0048146D02*
X0066754Y0048146D01*
X0066754Y0048145D02*
X0068487Y0048145D01*
X0068487Y0048144D02*
X0066754Y0048144D01*
X0068487Y0048144D01*
X0068487Y0048143D02*
X0066754Y0048143D01*
X0066754Y0048142D02*
X0068487Y0048142D01*
X0068487Y0048141D02*
X0066754Y0048141D01*
X0066754Y0048140D02*
X0068487Y0048140D01*
X0068487Y0048139D02*
X0066754Y0048139D01*
X0066754Y0048138D02*
X0068487Y0048138D01*
X0068487Y0048137D02*
X0066754Y0048137D01*
X0066754Y0048136D02*
X0068487Y0048136D01*
X0068487Y0048135D02*
X0066754Y0048135D01*
X0066754Y0048134D02*
X0068487Y0048134D01*
X0068487Y0048133D02*
X0066754Y0048133D01*
X0066754Y0048132D02*
X0068487Y0048132D01*
X0068487Y0048131D02*
X0066754Y0048131D01*
X0066754Y0048130D02*
X0068487Y0048130D01*
X0068487Y0048129D02*
X0066754Y0048129D01*
X0066754Y0048128D02*
X0068487Y0048128D01*
X0068487Y0048127D02*
X0066754Y0048127D01*
X0066754Y0048126D02*
X0068487Y0048126D01*
X0068487Y0048125D02*
X0066754Y0048125D01*
X0066754Y0048124D02*
X0068487Y0048124D01*
X0068487Y0048123D02*
X0066754Y0048123D01*
X0066754Y0048122D02*
X0068487Y0048122D01*
X0068487Y0048121D02*
X0066754Y0048121D01*
X0066754Y0048120D02*
X0068487Y0048120D01*
X0068487Y0048119D02*
X0066754Y0048119D01*
X0066754Y0048118D02*
X0068487Y0048118D01*
X0068487Y0048117D02*
X0066754Y0048117D01*
X0066754Y0048116D02*
X0068487Y0048116D01*
X0068487Y0048115D02*
X0066754Y0048115D01*
X0066754Y0048114D02*
X0068487Y0048114D01*
X0068487Y0048113D02*
X0066754Y0048113D01*
X0066754Y0048112D02*
X0068487Y0048112D01*
X0068487Y0048111D02*
X0066754Y0048111D01*
X0066754Y0048110D02*
X0068487Y0048110D01*
X0068487Y0048109D02*
X0066754Y0048109D01*
X0066754Y0048108D02*
X0068487Y0048108D01*
X0068487Y0048107D02*
X0066754Y0048107D01*
X0066754Y0048106D02*
X0068487Y0048106D01*
X0068487Y0048105D02*
X0066754Y0048105D01*
X0066754Y0048104D02*
X0068487Y0048104D01*
X0068487Y0048103D02*
X0066754Y0048103D01*
X0066754Y0048102D02*
X0068487Y0048102D01*
X0068487Y0048101D02*
X0066754Y0048101D01*
X0066754Y0048100D02*
X0068487Y0048100D01*
X0068487Y0048099D02*
X0066754Y0048099D01*
X0066754Y0048098D02*
X0068487Y0048098D01*
X0068487Y0048097D02*
X0066754Y0048097D01*
X0066754Y0048096D02*
X0068487Y0048096D01*
X0068487Y0048095D02*
X0066754Y0048095D01*
X0066754Y0048094D02*
X0068487Y0048094D01*
X0068487Y0048093D02*
X0066754Y0048093D01*
X0066754Y0048092D02*
X0068487Y0048092D01*
X0068487Y0048091D02*
X0066754Y0048091D01*
X0066754Y0048090D02*
X0068487Y0048090D01*
X0068487Y0048089D02*
X0066754Y0048089D01*
X0066754Y0048088D02*
X0068487Y0048088D01*
X0068487Y0048087D02*
X0066754Y0048087D01*
X0066754Y0048086D02*
X0068487Y0048086D01*
X0068487Y0048085D02*
X0066754Y0048085D01*
X0066754Y0048084D02*
X0068487Y0048084D01*
X0068487Y0048083D02*
X0066754Y0048083D01*
X0066754Y0048082D02*
X0068487Y0048082D01*
X0068487Y0048081D02*
X0066754Y0048081D01*
X0068487Y0048081D01*
X0068487Y0048080D02*
X0066754Y0048080D01*
X0066754Y0048079D02*
X0068487Y0048079D01*
X0068487Y0048078D02*
X0066754Y0048078D01*
X0066754Y0048077D02*
X0068487Y0048077D01*
X0068487Y0048076D02*
X0066754Y0048076D01*
X0066754Y0048075D02*
X0068487Y0048075D01*
X0068487Y0048074D02*
X0066754Y0048074D01*
X0066754Y0048073D02*
X0068487Y0048073D01*
X0068487Y0048072D02*
X0066754Y0048072D01*
X0066754Y0048071D02*
X0068487Y0048071D01*
X0068487Y0048070D02*
X0066754Y0048070D01*
X0066754Y0048069D02*
X0068487Y0048069D01*
X0068487Y0048068D02*
X0066754Y0048068D01*
X0066754Y0048067D02*
X0068487Y0048067D01*
X0068487Y0048066D02*
X0066754Y0048066D01*
X0066754Y0048065D02*
X0068487Y0048065D01*
X0068487Y0048064D02*
X0066754Y0048064D01*
X0066754Y0048063D02*
X0068487Y0048063D01*
X0068487Y0048062D02*
X0066754Y0048062D01*
X0066754Y0048061D02*
X0068487Y0048061D01*
X0068487Y0048060D02*
X0066754Y0048060D01*
D20*
X0064117Y0056524D03*
X0064117Y0061249D03*
X0069628Y0061249D03*
X0069628Y0056524D03*
X0075928Y0071091D03*
X0075928Y0075816D03*
X0081439Y0075816D03*
X0081439Y0071091D03*
X0081046Y0097863D03*
X0086557Y0097863D03*
X0104274Y0058493D03*
X0104274Y0053769D03*
X0104274Y0049044D03*
X0109786Y0049044D03*
X0109786Y0053769D03*
X0109786Y0058493D03*
D21*
X0054668Y0088808D03*
X0054668Y0094320D03*
D22*
X0076321Y0093335D03*
X0076321Y0089792D03*
X0076321Y0086249D03*
X0076321Y0082706D03*
X0081046Y0082706D03*
X0081046Y0086249D03*
X0081046Y0089792D03*
X0081046Y0093335D03*
D23*
X0078683Y0141564D03*
D24*
X0048683Y0141564D03*
X0108683Y0141564D03*
D25*
X0049943Y0093139D03*
X0049943Y0089989D03*
D26*
X0107916Y0031820D03*
X0110868Y0031820D03*
X0110868Y0021387D03*
X0107916Y0021387D03*
D27*
X0107916Y0031820D02*
X0107916Y0034182D01*
X0108605Y0034871D01*
X0111754Y0034871D01*
X0112542Y0034871D01*
X0116872Y0034871D01*
X0121203Y0039202D01*
X0121203Y0041643D01*
X0115888Y0044123D02*
X0121203Y0049438D01*
X0121203Y0051643D01*
X0116479Y0051800D02*
X0116479Y0070776D01*
X0121203Y0075501D01*
X0114904Y0079202D02*
X0121203Y0085501D01*
X0115691Y0092745D02*
X0111754Y0088808D01*
X0111754Y0066367D01*
X0107030Y0061643D01*
X0102305Y0061643D01*
X0101124Y0060461D01*
X0101124Y0055343D01*
X0090101Y0044320D01*
X0085770Y0044320D01*
X0084786Y0043335D01*
X0084786Y0040383D01*
X0086951Y0041957D02*
X0086951Y0038414D01*
X0085770Y0037233D01*
X0083802Y0037233D01*
X0082817Y0038217D01*
X0081833Y0037233D01*
X0069628Y0037233D01*
X0068841Y0038020D01*
X0068841Y0044320D01*
X0067660Y0045501D01*
X0062542Y0045501D01*
X0061361Y0046682D01*
X0061361Y0050225D01*
X0063034Y0048552D01*
X0064904Y0048552D01*
X0064904Y0051111D02*
X0064904Y0052587D01*
X0066872Y0054556D01*
X0066872Y0054950D01*
X0066872Y0055737D01*
X0067660Y0056524D01*
X0069628Y0056524D01*
X0066872Y0055737D02*
X0066872Y0060855D01*
X0066479Y0061249D01*
X0064117Y0061249D01*
X0064117Y0056524D02*
X0062148Y0056524D01*
X0061361Y0055737D01*
X0061361Y0050225D01*
X0067620Y0049831D02*
X0070416Y0049831D01*
X0071006Y0049241D01*
X0071006Y0040383D01*
X0072975Y0040383D02*
X0072975Y0046485D01*
X0073959Y0047469D01*
X0074943Y0044910D02*
X0080652Y0050619D01*
X0086951Y0050619D01*
X0094825Y0058493D01*
X0094825Y0063611D01*
X0099156Y0067942D01*
X0103880Y0067942D01*
X0105455Y0069517D01*
X0105455Y0091957D01*
X0109392Y0095894D01*
X0109392Y0107706D01*
X0107817Y0109280D01*
X0107817Y0116761D01*
X0111361Y0120304D01*
X0114117Y0119517D02*
X0114117Y0123060D01*
X0115691Y0121091D02*
X0115691Y0092745D01*
X0114117Y0093532D02*
X0114117Y0111249D01*
X0113329Y0112036D01*
X0110967Y0113217D02*
X0110967Y0110855D01*
X0112542Y0109280D01*
X0112542Y0094320D01*
X0108605Y0090383D01*
X0108605Y0067942D01*
X0105455Y0064792D01*
X0100731Y0064792D01*
X0097975Y0062036D01*
X0097975Y0056918D01*
X0088526Y0047469D01*
X0082227Y0047469D01*
X0078880Y0044123D01*
X0078880Y0040383D01*
X0080849Y0040383D02*
X0080849Y0043729D01*
X0083014Y0045894D01*
X0089313Y0045894D01*
X0099550Y0056131D01*
X0099550Y0061249D01*
X0101518Y0063217D01*
X0106242Y0063217D01*
X0110180Y0067154D01*
X0110180Y0089595D01*
X0114117Y0093532D01*
X0110967Y0095107D02*
X0110967Y0108493D01*
X0109392Y0110068D01*
X0109392Y0114792D01*
X0114117Y0119517D01*
X0115691Y0121091D02*
X0121203Y0126603D01*
X0121203Y0129083D01*
X0116479Y0128965D02*
X0106242Y0118729D01*
X0106242Y0108493D01*
X0107817Y0106918D01*
X0107817Y0096682D01*
X0103880Y0092745D01*
X0103880Y0070304D01*
X0103093Y0069517D01*
X0098368Y0069517D01*
X0093250Y0064398D01*
X0093250Y0059280D01*
X0086164Y0052194D01*
X0078683Y0052194D01*
X0074746Y0056131D01*
X0074746Y0059280D01*
X0072778Y0061249D01*
X0069628Y0061249D01*
X0075928Y0069123D02*
X0075928Y0071091D01*
X0072778Y0071091D01*
X0071597Y0072272D01*
X0071597Y0083690D01*
X0074156Y0086249D01*
X0076321Y0086249D01*
X0076321Y0082706D02*
X0074550Y0082706D01*
X0073172Y0081328D01*
X0073172Y0076603D01*
X0073959Y0075816D01*
X0075928Y0075816D01*
X0077502Y0075816D01*
X0078683Y0074635D01*
X0078683Y0069123D01*
X0079471Y0068335D01*
X0082227Y0068335D01*
X0083408Y0067154D01*
X0081046Y0064792D02*
X0079077Y0066761D01*
X0078290Y0066761D01*
X0075928Y0069123D01*
X0081439Y0071091D02*
X0083408Y0071091D01*
X0085770Y0073454D01*
X0083408Y0075816D01*
X0081439Y0075816D01*
X0081046Y0086249D02*
X0081242Y0086446D01*
X0085376Y0086446D01*
X0089117Y0086446D01*
X0089904Y0085658D01*
X0089904Y0090383D02*
X0085770Y0090383D01*
X0085376Y0089989D01*
X0085180Y0089792D01*
X0081046Y0089792D01*
X0081046Y0093335D02*
X0081046Y0097863D01*
X0062148Y0088808D02*
X0054668Y0088808D01*
X0053487Y0093139D02*
X0049943Y0093139D01*
X0049943Y0089989D02*
X0049943Y0031879D01*
X0050337Y0031485D01*
X0074943Y0040383D02*
X0074943Y0044910D01*
X0076912Y0044517D02*
X0081439Y0049044D01*
X0084589Y0049044D01*
X0086557Y0049044D01*
X0087739Y0049044D01*
X0096400Y0057706D01*
X0096400Y0062824D01*
X0099943Y0066367D01*
X0104668Y0066367D01*
X0107030Y0068729D01*
X0107030Y0091170D01*
X0110967Y0095107D01*
X0113329Y0087627D02*
X0121203Y0095501D01*
X0113329Y0087627D02*
X0113329Y0059280D01*
X0112542Y0058493D01*
X0109786Y0058493D01*
X0107030Y0057706D02*
X0106242Y0058493D01*
X0104274Y0058493D01*
X0107030Y0057706D02*
X0107030Y0047076D01*
X0108014Y0046091D01*
X0108014Y0044123D01*
X0110770Y0044123D02*
X0115888Y0044123D01*
X0113723Y0049044D02*
X0116479Y0051800D01*
X0113723Y0053769D02*
X0114904Y0054950D01*
X0114904Y0079202D01*
X0113723Y0053769D02*
X0109786Y0053769D01*
X0109786Y0049044D02*
X0113723Y0049044D01*
X0105849Y0045501D02*
X0105849Y0039595D01*
X0106439Y0039005D01*
X0108014Y0039005D01*
X0110770Y0039005D02*
X0110770Y0037036D01*
X0110180Y0036446D01*
X0105849Y0036446D01*
X0104274Y0038020D01*
X0104274Y0044713D01*
X0103487Y0045501D01*
X0102305Y0045501D01*
X0101124Y0046682D01*
X0101124Y0052981D01*
X0101912Y0053769D01*
X0104274Y0053769D01*
X0104274Y0049044D02*
X0104274Y0047076D01*
X0105849Y0045501D01*
X0111754Y0034871D02*
X0110868Y0033985D01*
X0110868Y0031820D01*
X0095613Y0046682D02*
X0091676Y0042745D01*
X0087739Y0042745D01*
X0086951Y0041957D01*
X0082817Y0040383D02*
X0082817Y0038217D01*
X0076912Y0040383D02*
X0076912Y0044517D01*
X0053487Y0093139D02*
X0054668Y0094320D01*
X0048683Y0100304D01*
X0048683Y0141564D01*
X0110967Y0113217D02*
X0113329Y0115580D01*
X0116479Y0128965D02*
X0116479Y0150619D01*
X0121203Y0155343D01*
X0121203Y0159083D01*
D28*
X0126853Y0158336D02*
X0133764Y0158336D01*
X0133764Y0159934D02*
X0126853Y0159934D01*
X0126853Y0161533D02*
X0133764Y0161533D01*
X0133764Y0163131D02*
X0126720Y0163131D01*
X0126853Y0162811D02*
X0126488Y0163693D01*
X0125813Y0164368D01*
X0124931Y0164733D01*
X0117476Y0164733D01*
X0116594Y0164368D01*
X0115919Y0163693D01*
X0115553Y0162811D01*
X0115553Y0155356D01*
X0115919Y0154474D01*
X0116146Y0154246D01*
X0115271Y0153371D01*
X0115043Y0153598D01*
X0114161Y0153964D01*
X0103206Y0153964D01*
X0102324Y0153598D01*
X0101649Y0152923D01*
X0101283Y0152041D01*
X0101283Y0131086D01*
X0101649Y0130204D01*
X0102324Y0129529D01*
X0103206Y0129164D01*
X0112717Y0129164D01*
X0104656Y0121103D01*
X0103869Y0120315D01*
X0103442Y0119286D01*
X0103442Y0107936D01*
X0103869Y0106907D01*
X0105017Y0105758D01*
X0105017Y0097842D01*
X0102294Y0095119D01*
X0101507Y0094331D01*
X0101080Y0093302D01*
X0101080Y0072317D01*
X0097812Y0072317D01*
X0096782Y0071890D01*
X0091664Y0066772D01*
X0090877Y0065984D01*
X0090450Y0064955D01*
X0090450Y0060440D01*
X0085004Y0054994D01*
X0079843Y0054994D01*
X0077546Y0057291D01*
X0077546Y0059837D01*
X0077120Y0060866D01*
X0075152Y0062835D01*
X0074364Y0063623D01*
X0073335Y0064049D01*
X0073175Y0064049D01*
X0072563Y0064661D01*
X0071681Y0065027D01*
X0067576Y0065027D01*
X0066872Y0064735D01*
X0066169Y0065027D01*
X0062064Y0065027D01*
X0061182Y0064661D01*
X0060507Y0063986D01*
X0060142Y0063104D01*
X0060142Y0059393D01*
X0060352Y0058887D01*
X0060211Y0058547D01*
X0059775Y0058111D01*
X0058987Y0057323D01*
X0058561Y0056294D01*
X0058561Y0046125D01*
X0058987Y0045096D01*
X0059775Y0044308D01*
X0060168Y0043915D01*
X0060168Y0043915D01*
X0060956Y0043127D01*
X0061985Y0042701D01*
X0066041Y0042701D01*
X0066041Y0037464D01*
X0066467Y0036434D01*
X0067255Y0035647D01*
X0068042Y0034859D01*
X0069071Y0034433D01*
X0082390Y0034433D01*
X0082817Y0034610D01*
X0083245Y0034433D01*
X0086327Y0034433D01*
X0087356Y0034859D01*
X0088537Y0036040D01*
X0089325Y0036828D01*
X0089751Y0037857D01*
X0089751Y0039945D01*
X0092233Y0039945D01*
X0093262Y0040371D01*
X0095982Y0043091D01*
X0096327Y0043091D01*
X0097646Y0043638D01*
X0098656Y0044648D01*
X0098815Y0045031D01*
X0099538Y0044308D01*
X0100719Y0043127D01*
X0101474Y0042815D01*
X0101474Y0037464D01*
X0101900Y0036434D01*
X0102688Y0035647D01*
X0103475Y0034860D01*
X0103475Y0034860D01*
X0104263Y0034072D01*
X0104653Y0033910D01*
X0104433Y0033380D01*
X0104433Y0030260D01*
X0104798Y0029378D01*
X0105474Y0028702D01*
X0106356Y0028337D01*
X0112429Y0028337D01*
X0113311Y0028702D01*
X0113986Y0029378D01*
X0114351Y0030260D01*
X0114351Y0032071D01*
X0115553Y0032071D01*
X0115553Y0030519D01*
X0116413Y0028442D01*
X0118003Y0026853D01*
X0118510Y0026643D01*
X0118003Y0026432D01*
X0116413Y0024843D01*
X0115553Y0022766D01*
X0115553Y0020519D01*
X0116413Y0018442D01*
X0118003Y0016853D01*
X0120079Y0015993D01*
X0122327Y0015993D01*
X0124404Y0016853D01*
X0125993Y0018442D01*
X0126853Y0020519D01*
X0126853Y0022766D01*
X0125993Y0024843D01*
X0124404Y0026432D01*
X0123896Y0026643D01*
X0124404Y0026853D01*
X0125993Y0028442D01*
X0126853Y0030519D01*
X0126853Y0032766D01*
X0125993Y0034843D01*
X0124404Y0036432D01*
X0123896Y0036643D01*
X0124404Y0036853D01*
X0125993Y0038442D01*
X0126853Y0040519D01*
X0126853Y0042766D01*
X0125993Y0044843D01*
X0124404Y0046432D01*
X0123896Y0046643D01*
X0124404Y0046853D01*
X0125993Y0048442D01*
X0126853Y0050519D01*
X0126853Y0052766D01*
X0125993Y0054843D01*
X0124404Y0056432D01*
X0124017Y0056593D01*
X0124690Y0056593D01*
X0125148Y0056715D01*
X0125558Y0056952D01*
X0125893Y0057287D01*
X0126130Y0057698D01*
X0126253Y0058156D01*
X0126253Y0061567D01*
X0121278Y0061567D01*
X0121278Y0061718D01*
X0121128Y0061718D01*
X0121128Y0066693D01*
X0119279Y0066693D01*
X0119279Y0069617D01*
X0119679Y0070017D01*
X0120079Y0069851D01*
X0122327Y0069851D01*
X0124404Y0070711D01*
X0125993Y0072300D01*
X0126853Y0074377D01*
X0126853Y0076625D01*
X0125993Y0078701D01*
X0124404Y0080291D01*
X0123896Y0080501D01*
X0124404Y0080711D01*
X0125993Y0082300D01*
X0126853Y0084377D01*
X0126853Y0086625D01*
X0125993Y0088701D01*
X0124843Y0089851D01*
X0124931Y0089851D01*
X0125813Y0090216D01*
X0126488Y0090891D01*
X0126853Y0091773D01*
X0126853Y0099228D01*
X0126488Y0100110D01*
X0125813Y0100785D01*
X0124931Y0101151D01*
X0118491Y0101151D01*
X0118491Y0104091D01*
X0120079Y0103433D01*
X0122327Y0103433D01*
X0124404Y0104294D01*
X0125993Y0105883D01*
X0126853Y0107960D01*
X0126853Y0110207D01*
X0125993Y0112284D01*
X0124404Y0113873D01*
X0123896Y0114083D01*
X0124404Y0114294D01*
X0125993Y0115883D01*
X0126853Y0117960D01*
X0126853Y0120207D01*
X0125993Y0122284D01*
X0124404Y0123873D01*
X0123896Y0124083D01*
X0124404Y0124294D01*
X0125993Y0125883D01*
X0126853Y0127960D01*
X0126853Y0130207D01*
X0125993Y0132284D01*
X0124404Y0133873D01*
X0123896Y0134083D01*
X0124404Y0134294D01*
X0125993Y0135883D01*
X0126853Y0137960D01*
X0126853Y0140207D01*
X0125993Y0142284D01*
X0124404Y0143873D01*
X0123896Y0144083D01*
X0124404Y0144294D01*
X0125993Y0145883D01*
X0126853Y0147960D01*
X0126853Y0150207D01*
X0125993Y0152284D01*
X0124843Y0153433D01*
X0124931Y0153433D01*
X0125813Y0153799D01*
X0126488Y0154474D01*
X0126853Y0155356D01*
X0126853Y0162811D01*
X0124940Y0164730D02*
X0133764Y0164730D01*
X0133764Y0164754D02*
X0040139Y0164754D01*
X0040139Y0012074D01*
X0133764Y0012074D01*
X0133764Y0164754D01*
X0133764Y0156737D02*
X0126853Y0156737D01*
X0126763Y0155139D02*
X0133764Y0155139D01*
X0133764Y0153540D02*
X0125188Y0153540D01*
X0126135Y0151942D02*
X0133764Y0151942D01*
X0133764Y0150343D02*
X0126797Y0150343D01*
X0126853Y0148745D02*
X0133764Y0148745D01*
X0133764Y0147146D02*
X0126516Y0147146D01*
X0125657Y0145547D02*
X0133764Y0145547D01*
X0133764Y0143949D02*
X0124221Y0143949D01*
X0125926Y0142350D02*
X0133764Y0142350D01*
X0133764Y0140752D02*
X0126628Y0140752D01*
X0126853Y0139153D02*
X0133764Y0139153D01*
X0133764Y0137555D02*
X0126685Y0137555D01*
X0126023Y0135956D02*
X0133764Y0135956D01*
X0133764Y0134358D02*
X0124468Y0134358D01*
X0125517Y0132759D02*
X0133764Y0132759D01*
X0133764Y0131161D02*
X0126458Y0131161D01*
X0126853Y0129562D02*
X0133764Y0129562D01*
X0133764Y0127964D02*
X0126853Y0127964D01*
X0126193Y0126365D02*
X0133764Y0126365D01*
X0133764Y0124767D02*
X0124877Y0124767D01*
X0125109Y0123168D02*
X0133764Y0123168D01*
X0133764Y0121570D02*
X0126289Y0121570D01*
X0126853Y0119971D02*
X0133764Y0119971D01*
X0133764Y0118373D02*
X0126853Y0118373D01*
X0126362Y0116774D02*
X0133764Y0116774D01*
X0133764Y0115176D02*
X0125286Y0115176D01*
X0124700Y0113577D02*
X0133764Y0113577D01*
X0133764Y0111979D02*
X0126119Y0111979D01*
X0126781Y0110380D02*
X0133764Y0110380D01*
X0133764Y0108782D02*
X0126853Y0108782D01*
X0126532Y0107183D02*
X0133764Y0107183D01*
X0133764Y0105585D02*
X0125695Y0105585D01*
X0123661Y0103986D02*
X0133764Y0103986D01*
X0133764Y0102388D02*
X0118491Y0102388D01*
X0118491Y0103986D02*
X0118745Y0103986D01*
X0125804Y0100789D02*
X0133764Y0100789D01*
X0133764Y0099191D02*
X0126853Y0099191D01*
X0126853Y0097592D02*
X0133764Y0097592D01*
X0133764Y0095994D02*
X0126853Y0095994D01*
X0126853Y0094395D02*
X0133764Y0094395D01*
X0133764Y0092797D02*
X0126853Y0092797D01*
X0126615Y0091198D02*
X0133764Y0091198D01*
X0133764Y0089600D02*
X0125095Y0089600D01*
X0126283Y0088001D02*
X0133764Y0088001D01*
X0133764Y0086403D02*
X0126853Y0086403D01*
X0126853Y0084804D02*
X0133764Y0084804D01*
X0133764Y0083206D02*
X0126368Y0083206D01*
X0125300Y0081607D02*
X0133764Y0081607D01*
X0133764Y0080009D02*
X0124686Y0080009D01*
X0126114Y0078410D02*
X0133764Y0078410D01*
X0133764Y0076811D02*
X0126776Y0076811D01*
X0126853Y0075213D02*
X0133764Y0075213D01*
X0133764Y0073614D02*
X0126537Y0073614D01*
X0125709Y0072016D02*
X0133764Y0072016D01*
X0133764Y0070417D02*
X0123695Y0070417D01*
X0124690Y0066693D02*
X0121278Y0066693D01*
X0121278Y0061718D01*
X0126253Y0061718D01*
X0126253Y0065129D01*
X0126130Y0065587D01*
X0125893Y0065998D01*
X0125558Y0066333D01*
X0125148Y0066570D01*
X0124690Y0066693D01*
X0126110Y0065622D02*
X0133764Y0065622D01*
X0133764Y0067220D02*
X0119279Y0067220D01*
X0119279Y0068819D02*
X0133764Y0068819D01*
X0133764Y0064023D02*
X0126253Y0064023D01*
X0126253Y0062425D02*
X0133764Y0062425D01*
X0133764Y0060826D02*
X0126253Y0060826D01*
X0126253Y0059228D02*
X0133764Y0059228D01*
X0133764Y0057629D02*
X0126091Y0057629D01*
X0124805Y0056031D02*
X0133764Y0056031D01*
X0133764Y0054432D02*
X0126163Y0054432D01*
X0126825Y0052834D02*
X0133764Y0052834D01*
X0133764Y0051235D02*
X0126853Y0051235D01*
X0126488Y0049637D02*
X0133764Y0049637D01*
X0133764Y0048038D02*
X0125589Y0048038D01*
X0124386Y0046440D02*
X0133764Y0046440D01*
X0133764Y0044841D02*
X0125994Y0044841D01*
X0126656Y0043243D02*
X0133764Y0043243D01*
X0133764Y0041644D02*
X0126853Y0041644D01*
X0126657Y0040046D02*
X0133764Y0040046D01*
X0133764Y0038447D02*
X0125995Y0038447D01*
X0124394Y0036849D02*
X0133764Y0036849D01*
X0133764Y0035250D02*
X0125586Y0035250D01*
X0126486Y0033652D02*
X0133764Y0033652D01*
X0133764Y0032053D02*
X0126853Y0032053D01*
X0126827Y0030455D02*
X0133764Y0030455D01*
X0133764Y0028856D02*
X0126164Y0028856D01*
X0124809Y0027258D02*
X0133764Y0027258D01*
X0133764Y0025659D02*
X0125177Y0025659D01*
X0126317Y0024061D02*
X0133764Y0024061D01*
X0133764Y0022462D02*
X0126853Y0022462D01*
X0126853Y0020864D02*
X0133764Y0020864D01*
X0133764Y0019265D02*
X0126334Y0019265D01*
X0125217Y0017667D02*
X0133764Y0017667D01*
X0133764Y0016068D02*
X0122509Y0016068D01*
X0119897Y0016068D02*
X0040139Y0016068D01*
X0040139Y0014470D02*
X0133764Y0014470D01*
X0133764Y0012871D02*
X0040139Y0012871D01*
X0040139Y0017667D02*
X0045376Y0017667D01*
X0045410Y0017540D02*
X0045647Y0017130D01*
X0045982Y0016795D01*
X0046392Y0016558D01*
X0046850Y0016435D01*
X0050262Y0016435D01*
X0050262Y0021410D01*
X0050412Y0021410D01*
X0050412Y0016435D01*
X0053824Y0016435D01*
X0054282Y0016558D01*
X0054692Y0016795D01*
X0055027Y0017130D01*
X0055264Y0017540D01*
X0055387Y0017998D01*
X0055387Y0021410D01*
X0050412Y0021410D01*
X0050412Y0021560D01*
X0055387Y0021560D01*
X0055387Y0024972D01*
X0055264Y0025430D01*
X0055027Y0025840D01*
X0054692Y0026175D01*
X0054282Y0026412D01*
X0053824Y0026535D01*
X0053151Y0026535D01*
X0053537Y0026695D01*
X0055127Y0028285D01*
X0055987Y0030361D01*
X0055987Y0032609D01*
X0055127Y0034685D01*
X0053537Y0036275D01*
X0052743Y0036604D01*
X0052743Y0084862D01*
X0052812Y0084833D01*
X0056523Y0084833D01*
X0057405Y0085198D01*
X0058080Y0085874D01*
X0058136Y0086008D01*
X0059870Y0086008D01*
X0060114Y0085764D01*
X0061434Y0085217D01*
X0062862Y0085217D01*
X0064182Y0085764D01*
X0065192Y0086774D01*
X0065739Y0088094D01*
X0065739Y0089522D01*
X0065192Y0090842D01*
X0064182Y0091852D01*
X0062862Y0092398D01*
X0061434Y0092398D01*
X0060114Y0091852D01*
X0059870Y0091608D01*
X0058172Y0091608D01*
X0058446Y0092267D01*
X0058446Y0096372D01*
X0058080Y0097254D01*
X0057405Y0097929D01*
X0056523Y0098294D01*
X0054653Y0098294D01*
X0051483Y0101464D01*
X0051483Y0129164D01*
X0054161Y0129164D01*
X0055043Y0129529D01*
X0055718Y0130204D01*
X0056083Y0131086D01*
X0056083Y0152041D01*
X0055718Y0152923D01*
X0055043Y0153598D01*
X0054161Y0153964D01*
X0043206Y0153964D01*
X0042324Y0153598D01*
X0041649Y0152923D01*
X0041283Y0152041D01*
X0041283Y0131086D01*
X0041649Y0130204D01*
X0042324Y0129529D01*
X0043206Y0129164D01*
X0045883Y0129164D01*
X0045883Y0099747D01*
X0046310Y0098718D01*
X0047097Y0097930D01*
X0048505Y0096523D01*
X0048088Y0096523D01*
X0047206Y0096157D01*
X0046531Y0095482D01*
X0046165Y0094600D01*
X0046165Y0091677D01*
X0046212Y0091564D01*
X0046165Y0091451D01*
X0046165Y0088527D01*
X0046531Y0087645D01*
X0047143Y0087033D01*
X0047143Y0036278D01*
X0047137Y0036275D01*
X0045547Y0034685D01*
X0044687Y0032609D01*
X0044687Y0030361D01*
X0045547Y0028285D01*
X0047137Y0026695D01*
X0047523Y0026535D01*
X0046850Y0026535D01*
X0046392Y0026412D01*
X0045982Y0026175D01*
X0045647Y0025840D01*
X0045410Y0025430D01*
X0045287Y0024972D01*
X0045287Y0021560D01*
X0050262Y0021560D01*
X0050262Y0021410D01*
X0045287Y0021410D01*
X0045287Y0017998D01*
X0045410Y0017540D01*
X0045287Y0019265D02*
X0040139Y0019265D01*
X0040139Y0020864D02*
X0045287Y0020864D01*
X0045287Y0022462D02*
X0040139Y0022462D01*
X0040139Y0024061D02*
X0045287Y0024061D01*
X0045542Y0025659D02*
X0040139Y0025659D01*
X0040139Y0027258D02*
X0046574Y0027258D01*
X0045310Y0028856D02*
X0040139Y0028856D01*
X0040139Y0030455D02*
X0044687Y0030455D01*
X0044687Y0032053D02*
X0040139Y0032053D01*
X0040139Y0033652D02*
X0045119Y0033652D01*
X0046112Y0035250D02*
X0040139Y0035250D01*
X0040139Y0036849D02*
X0047143Y0036849D01*
X0047143Y0038447D02*
X0040139Y0038447D01*
X0040139Y0040046D02*
X0047143Y0040046D01*
X0047143Y0041644D02*
X0040139Y0041644D01*
X0040139Y0043243D02*
X0047143Y0043243D01*
X0047143Y0044841D02*
X0040139Y0044841D01*
X0040139Y0046440D02*
X0047143Y0046440D01*
X0047143Y0048038D02*
X0040139Y0048038D01*
X0040139Y0049637D02*
X0047143Y0049637D01*
X0047143Y0051235D02*
X0040139Y0051235D01*
X0040139Y0052834D02*
X0047143Y0052834D01*
X0047143Y0054432D02*
X0040139Y0054432D01*
X0040139Y0056031D02*
X0047143Y0056031D01*
X0047143Y0057629D02*
X0040139Y0057629D01*
X0040139Y0059228D02*
X0047143Y0059228D01*
X0047143Y0060826D02*
X0040139Y0060826D01*
X0040139Y0062425D02*
X0047143Y0062425D01*
X0047143Y0064023D02*
X0040139Y0064023D01*
X0040139Y0065622D02*
X0047143Y0065622D01*
X0047143Y0067220D02*
X0040139Y0067220D01*
X0040139Y0068819D02*
X0047143Y0068819D01*
X0047143Y0070417D02*
X0040139Y0070417D01*
X0040139Y0072016D02*
X0047143Y0072016D01*
X0047143Y0073614D02*
X0040139Y0073614D01*
X0040139Y0075213D02*
X0047143Y0075213D01*
X0047143Y0076811D02*
X0040139Y0076811D01*
X0040139Y0078410D02*
X0047143Y0078410D01*
X0047143Y0080009D02*
X0040139Y0080009D01*
X0040139Y0081607D02*
X0047143Y0081607D01*
X0047143Y0083206D02*
X0040139Y0083206D01*
X0040139Y0084804D02*
X0047143Y0084804D01*
X0047143Y0086403D02*
X0040139Y0086403D01*
X0040139Y0088001D02*
X0046383Y0088001D01*
X0046165Y0089600D02*
X0040139Y0089600D01*
X0040139Y0091198D02*
X0046165Y0091198D01*
X0046165Y0092797D02*
X0040139Y0092797D01*
X0040139Y0094395D02*
X0046165Y0094395D01*
X0047042Y0095994D02*
X0040139Y0095994D01*
X0040139Y0097592D02*
X0047435Y0097592D01*
X0046114Y0099191D02*
X0040139Y0099191D01*
X0040139Y0100789D02*
X0045883Y0100789D01*
X0045883Y0102388D02*
X0040139Y0102388D01*
X0040139Y0103986D02*
X0045883Y0103986D01*
X0045883Y0105585D02*
X0040139Y0105585D01*
X0040139Y0107183D02*
X0045883Y0107183D01*
X0045883Y0108782D02*
X0040139Y0108782D01*
X0040139Y0110380D02*
X0045883Y0110380D01*
X0045883Y0111979D02*
X0040139Y0111979D01*
X0040139Y0113577D02*
X0045883Y0113577D01*
X0045883Y0115176D02*
X0040139Y0115176D01*
X0040139Y0116774D02*
X0045883Y0116774D01*
X0045883Y0118373D02*
X0040139Y0118373D01*
X0040139Y0119971D02*
X0045883Y0119971D01*
X0045883Y0121570D02*
X0040139Y0121570D01*
X0040139Y0123168D02*
X0045883Y0123168D01*
X0045883Y0124767D02*
X0040139Y0124767D01*
X0040139Y0126365D02*
X0045883Y0126365D01*
X0045883Y0127964D02*
X0040139Y0127964D01*
X0040139Y0129562D02*
X0042291Y0129562D01*
X0041283Y0131161D02*
X0040139Y0131161D01*
X0040139Y0132759D02*
X0041283Y0132759D01*
X0041283Y0134358D02*
X0040139Y0134358D01*
X0040139Y0135956D02*
X0041283Y0135956D01*
X0041283Y0137555D02*
X0040139Y0137555D01*
X0040139Y0139153D02*
X0041283Y0139153D01*
X0041283Y0140752D02*
X0040139Y0140752D01*
X0040139Y0142350D02*
X0041283Y0142350D01*
X0041283Y0143949D02*
X0040139Y0143949D01*
X0040139Y0145547D02*
X0041283Y0145547D01*
X0041283Y0147146D02*
X0040139Y0147146D01*
X0040139Y0148745D02*
X0041283Y0148745D01*
X0041283Y0150343D02*
X0040139Y0150343D01*
X0040139Y0151942D02*
X0041283Y0151942D01*
X0042266Y0153540D02*
X0040139Y0153540D01*
X0040139Y0155139D02*
X0061609Y0155139D01*
X0061550Y0155070D02*
X0060543Y0153685D01*
X0059648Y0152224D01*
X0058871Y0150698D01*
X0058215Y0149115D01*
X0057686Y0147486D01*
X0057286Y0145820D01*
X0057018Y0144128D01*
X0056883Y0142420D01*
X0056883Y0142364D01*
X0077883Y0142364D01*
X0077883Y0140764D01*
X0056883Y0140764D01*
X0056883Y0140707D01*
X0057018Y0138999D01*
X0057286Y0137308D01*
X0057686Y0135642D01*
X0058215Y0134013D01*
X0058871Y0132430D01*
X0059648Y0130904D01*
X0060543Y0129443D01*
X0061550Y0128057D01*
X0062663Y0126755D01*
X0063874Y0125543D01*
X0065177Y0124431D01*
X0066563Y0123424D01*
X0068023Y0122529D01*
X0069550Y0121751D01*
X0071132Y0121095D01*
X0072761Y0120566D01*
X0074427Y0120166D01*
X0076119Y0119898D01*
X0077827Y0119764D01*
X0077883Y0119764D01*
X0077883Y0140764D01*
X0079483Y0140764D01*
X0079483Y0119764D01*
X0079540Y0119764D01*
X0081248Y0119898D01*
X0082940Y0120166D01*
X0084605Y0120566D01*
X0086235Y0121095D01*
X0087817Y0121751D01*
X0089344Y0122529D01*
X0090804Y0123424D01*
X0092190Y0124431D01*
X0093493Y0125543D01*
X0094704Y0126755D01*
X0095817Y0128057D01*
X0096823Y0129443D01*
X0097719Y0130904D01*
X0098496Y0132430D01*
X0099152Y0134013D01*
X0099681Y0135642D01*
X0100081Y0137308D01*
X0100349Y0138999D01*
X0100483Y0140707D01*
X0100483Y0140764D01*
X0079483Y0140764D01*
X0079483Y0142364D01*
X0077883Y0142364D01*
X0077883Y0163364D01*
X0077827Y0163364D01*
X0076119Y0163229D01*
X0074427Y0162961D01*
X0072761Y0162561D01*
X0071132Y0162032D01*
X0069550Y0161377D01*
X0068023Y0160599D01*
X0066563Y0159704D01*
X0065177Y0158697D01*
X0063874Y0157584D01*
X0062663Y0156373D01*
X0061550Y0155070D01*
X0060455Y0153540D02*
X0055101Y0153540D01*
X0056083Y0151942D02*
X0059504Y0151942D01*
X0058724Y0150343D02*
X0056083Y0150343D01*
X0056083Y0148745D02*
X0058095Y0148745D01*
X0057604Y0147146D02*
X0056083Y0147146D01*
X0056083Y0145547D02*
X0057243Y0145547D01*
X0057004Y0143949D02*
X0056083Y0143949D01*
X0056083Y0142350D02*
X0077883Y0142350D01*
X0077883Y0140752D02*
X0079483Y0140752D01*
X0079483Y0142350D02*
X0101283Y0142350D01*
X0100483Y0142364D02*
X0100483Y0142420D01*
X0100349Y0144128D01*
X0100081Y0145820D01*
X0099681Y0147486D01*
X0099152Y0149115D01*
X0098496Y0150698D01*
X0097719Y0152224D01*
X0096823Y0153685D01*
X0095817Y0155070D01*
X0094704Y0156373D01*
X0093493Y0157584D01*
X0092190Y0158697D01*
X0090804Y0159704D01*
X0089344Y0160599D01*
X0087817Y0161377D01*
X0086235Y0162032D01*
X0084605Y0162561D01*
X0082940Y0162961D01*
X0081248Y0163229D01*
X0079540Y0163364D01*
X0079483Y0163364D01*
X0079483Y0142364D01*
X0100483Y0142364D01*
X0100363Y0143949D02*
X0101283Y0143949D01*
X0101283Y0145547D02*
X0100124Y0145547D01*
X0099763Y0147146D02*
X0101283Y0147146D01*
X0101283Y0148745D02*
X0099272Y0148745D01*
X0098643Y0150343D02*
X0101283Y0150343D01*
X0101283Y0151942D02*
X0097862Y0151942D01*
X0096912Y0153540D02*
X0102266Y0153540D01*
X0095758Y0155139D02*
X0115643Y0155139D01*
X0115553Y0156737D02*
X0094340Y0156737D01*
X0092613Y0158336D02*
X0115553Y0158336D01*
X0115553Y0159934D02*
X0090428Y0159934D01*
X0087441Y0161533D02*
X0115553Y0161533D01*
X0115686Y0163131D02*
X0081868Y0163131D01*
X0079483Y0163131D02*
X0077883Y0163131D01*
X0077883Y0161533D02*
X0079483Y0161533D01*
X0079483Y0159934D02*
X0077883Y0159934D01*
X0077883Y0158336D02*
X0079483Y0158336D01*
X0079483Y0156737D02*
X0077883Y0156737D01*
X0077883Y0155139D02*
X0079483Y0155139D01*
X0079483Y0153540D02*
X0077883Y0153540D01*
X0077883Y0151942D02*
X0079483Y0151942D01*
X0079483Y0150343D02*
X0077883Y0150343D01*
X0077883Y0148745D02*
X0079483Y0148745D01*
X0079483Y0147146D02*
X0077883Y0147146D01*
X0077883Y0145547D02*
X0079483Y0145547D01*
X0079483Y0143949D02*
X0077883Y0143949D01*
X0077883Y0139153D02*
X0079483Y0139153D01*
X0079483Y0137555D02*
X0077883Y0137555D01*
X0077883Y0135956D02*
X0079483Y0135956D01*
X0079483Y0134358D02*
X0077883Y0134358D01*
X0077883Y0132759D02*
X0079483Y0132759D01*
X0079483Y0131161D02*
X0077883Y0131161D01*
X0077883Y0129562D02*
X0079483Y0129562D01*
X0079483Y0127964D02*
X0077883Y0127964D01*
X0077883Y0126365D02*
X0079483Y0126365D01*
X0079483Y0124767D02*
X0077883Y0124767D01*
X0077883Y0123168D02*
X0079483Y0123168D01*
X0079483Y0121570D02*
X0077883Y0121570D01*
X0077883Y0119971D02*
X0079483Y0119971D01*
X0081709Y0119971D02*
X0103726Y0119971D01*
X0103442Y0118373D02*
X0051483Y0118373D01*
X0051483Y0119971D02*
X0075657Y0119971D01*
X0069987Y0121570D02*
X0051483Y0121570D01*
X0051483Y0123168D02*
X0066979Y0123168D01*
X0064783Y0124767D02*
X0051483Y0124767D01*
X0051483Y0126365D02*
X0063052Y0126365D01*
X0061630Y0127964D02*
X0051483Y0127964D01*
X0055076Y0129562D02*
X0060470Y0129562D01*
X0059517Y0131161D02*
X0056083Y0131161D01*
X0056083Y0132759D02*
X0058734Y0132759D01*
X0058103Y0134358D02*
X0056083Y0134358D01*
X0056083Y0135956D02*
X0057610Y0135956D01*
X0057247Y0137555D02*
X0056083Y0137555D01*
X0056083Y0139153D02*
X0057006Y0139153D01*
X0056883Y0140752D02*
X0056083Y0140752D01*
X0063027Y0156737D02*
X0040139Y0156737D01*
X0040139Y0158336D02*
X0064754Y0158336D01*
X0066938Y0159934D02*
X0040139Y0159934D01*
X0040139Y0161533D02*
X0069926Y0161533D01*
X0075499Y0163131D02*
X0040139Y0163131D01*
X0040139Y0164730D02*
X0117466Y0164730D01*
X0115440Y0153540D02*
X0115101Y0153540D01*
X0101283Y0140752D02*
X0100483Y0140752D01*
X0100361Y0139153D02*
X0101283Y0139153D01*
X0101283Y0137555D02*
X0100120Y0137555D01*
X0099757Y0135956D02*
X0101283Y0135956D01*
X0101283Y0134358D02*
X0099264Y0134358D01*
X0098633Y0132759D02*
X0101283Y0132759D01*
X0101283Y0131161D02*
X0097850Y0131161D01*
X0096897Y0129562D02*
X0102291Y0129562D01*
X0108320Y0124767D02*
X0092584Y0124767D01*
X0094315Y0126365D02*
X0109919Y0126365D01*
X0111517Y0127964D02*
X0095737Y0127964D01*
X0090387Y0123168D02*
X0106722Y0123168D01*
X0105123Y0121570D02*
X0087380Y0121570D01*
X0083098Y0101641D02*
X0078993Y0101641D01*
X0078111Y0101276D01*
X0077436Y0100600D01*
X0077071Y0099718D01*
X0077071Y0096720D01*
X0074269Y0096720D01*
X0073387Y0096354D01*
X0072712Y0095679D01*
X0072346Y0094797D01*
X0072346Y0091874D01*
X0072475Y0091564D01*
X0072346Y0091254D01*
X0072346Y0088399D01*
X0070011Y0086063D01*
X0069223Y0085276D01*
X0068797Y0084247D01*
X0068797Y0071715D01*
X0069223Y0070686D01*
X0070404Y0069505D01*
X0071192Y0068718D01*
X0072221Y0068291D01*
X0072381Y0068291D01*
X0072993Y0067679D01*
X0073708Y0067383D01*
X0075916Y0065175D01*
X0076704Y0064387D01*
X0077456Y0064075D01*
X0078002Y0062758D01*
X0079012Y0061748D01*
X0080331Y0061202D01*
X0081760Y0061202D01*
X0083080Y0061748D01*
X0084090Y0062758D01*
X0084486Y0063714D01*
X0085442Y0064110D01*
X0086452Y0065120D01*
X0086998Y0066440D01*
X0086998Y0067869D01*
X0086452Y0069188D01*
X0085958Y0069682D01*
X0086139Y0069863D01*
X0086484Y0069863D01*
X0087804Y0070410D01*
X0088814Y0071420D01*
X0089361Y0072739D01*
X0089361Y0074168D01*
X0088814Y0075487D01*
X0087804Y0076497D01*
X0086484Y0077044D01*
X0086139Y0077044D01*
X0085345Y0077839D01*
X0085049Y0078553D01*
X0084374Y0079228D01*
X0083492Y0079594D01*
X0079387Y0079594D01*
X0078683Y0079302D01*
X0078505Y0079376D01*
X0079256Y0079687D01*
X0079490Y0079921D01*
X0081046Y0079921D01*
X0082857Y0079921D01*
X0083315Y0080044D01*
X0083726Y0080281D01*
X0084061Y0080616D01*
X0084298Y0081026D01*
X0084420Y0081484D01*
X0084420Y0082705D01*
X0081046Y0082705D01*
X0081046Y0079921D01*
X0081046Y0082705D01*
X0081046Y0082705D01*
X0081046Y0082706D01*
X0084420Y0082706D01*
X0084420Y0082955D01*
X0084662Y0082855D01*
X0086091Y0082855D01*
X0086107Y0082862D01*
X0086724Y0082246D01*
X0087606Y0081880D01*
X0092202Y0081880D01*
X0093084Y0082246D01*
X0093319Y0082480D01*
X0095022Y0082480D01*
X0097080Y0082480D01*
X0097538Y0082603D01*
X0097948Y0082840D01*
X0098283Y0083175D01*
X0098520Y0083586D01*
X0098643Y0084043D01*
X0098643Y0085658D01*
X0095022Y0085658D01*
X0095022Y0085658D01*
X0095022Y0082480D01*
X0095022Y0085658D01*
X0095022Y0085658D01*
X0098643Y0085658D01*
X0098643Y0087273D01*
X0098520Y0087731D01*
X0098353Y0088020D01*
X0098520Y0088310D01*
X0098643Y0088768D01*
X0098643Y0090383D01*
X0098643Y0091998D01*
X0098520Y0092455D01*
X0098283Y0092866D01*
X0097948Y0093201D01*
X0097538Y0093438D01*
X0097080Y0093561D01*
X0095022Y0093561D01*
X0093319Y0093561D01*
X0093084Y0093795D01*
X0092202Y0094161D01*
X0087606Y0094161D01*
X0086724Y0093795D01*
X0086386Y0093457D01*
X0086091Y0093580D01*
X0085020Y0093580D01*
X0085020Y0094685D01*
X0086557Y0094685D01*
X0086557Y0097863D01*
X0086557Y0101041D01*
X0084746Y0101041D01*
X0084327Y0100929D01*
X0083980Y0101276D01*
X0083098Y0101641D01*
X0086558Y0101041D02*
X0086558Y0097863D01*
X0089932Y0097863D01*
X0089932Y0099478D01*
X0089810Y0099936D01*
X0089573Y0100346D01*
X0089237Y0100681D01*
X0088827Y0100918D01*
X0088369Y0101041D01*
X0086558Y0101041D01*
X0086557Y0100789D02*
X0086558Y0100789D01*
X0086557Y0099191D02*
X0086558Y0099191D01*
X0086558Y0097863D02*
X0086557Y0097863D01*
X0086558Y0097863D01*
X0086558Y0097863D01*
X0089932Y0097863D01*
X0089932Y0096248D01*
X0089810Y0095790D01*
X0089573Y0095380D01*
X0089237Y0095045D01*
X0088827Y0094808D01*
X0088369Y0094685D01*
X0086558Y0094685D01*
X0086558Y0097863D01*
X0086557Y0097592D02*
X0086558Y0097592D01*
X0086557Y0095994D02*
X0086558Y0095994D01*
X0085020Y0094395D02*
X0101571Y0094395D01*
X0101080Y0092797D02*
X0098323Y0092797D01*
X0098643Y0091198D02*
X0101080Y0091198D01*
X0101080Y0089600D02*
X0098643Y0089600D01*
X0098643Y0090383D02*
X0095022Y0090383D01*
X0095022Y0093561D01*
X0095022Y0090383D01*
X0095022Y0090383D01*
X0098643Y0090383D01*
X0098364Y0088001D02*
X0101080Y0088001D01*
X0101080Y0086403D02*
X0098643Y0086403D01*
X0098643Y0084804D02*
X0101080Y0084804D01*
X0101080Y0083206D02*
X0098301Y0083206D01*
X0101080Y0081607D02*
X0084420Y0081607D01*
X0083183Y0080009D02*
X0101080Y0080009D01*
X0101080Y0078410D02*
X0085108Y0078410D01*
X0087046Y0076811D02*
X0101080Y0076811D01*
X0101080Y0075213D02*
X0088928Y0075213D01*
X0089361Y0073614D02*
X0101080Y0073614D01*
X0097086Y0072016D02*
X0089061Y0072016D01*
X0087812Y0070417D02*
X0095310Y0070417D01*
X0093711Y0068819D02*
X0086605Y0068819D01*
X0086998Y0067220D02*
X0092113Y0067220D01*
X0091664Y0066772D02*
X0091664Y0066772D01*
X0090726Y0065622D02*
X0086659Y0065622D01*
X0085232Y0064023D02*
X0090450Y0064023D01*
X0090450Y0062425D02*
X0083756Y0062425D01*
X0087640Y0057629D02*
X0077546Y0057629D01*
X0077546Y0059228D02*
X0089238Y0059228D01*
X0090450Y0060826D02*
X0077137Y0060826D01*
X0078335Y0062425D02*
X0075562Y0062425D01*
X0077478Y0064023D02*
X0073396Y0064023D01*
X0075469Y0065622D02*
X0052743Y0065622D01*
X0052743Y0067220D02*
X0073870Y0067220D01*
X0071091Y0068819D02*
X0052743Y0068819D01*
X0052743Y0070417D02*
X0069492Y0070417D01*
X0068797Y0072016D02*
X0052743Y0072016D01*
X0052743Y0073614D02*
X0068797Y0073614D01*
X0068797Y0075213D02*
X0052743Y0075213D01*
X0052743Y0076811D02*
X0068797Y0076811D01*
X0068797Y0078410D02*
X0052743Y0078410D01*
X0052743Y0080009D02*
X0068797Y0080009D01*
X0068797Y0081607D02*
X0052743Y0081607D01*
X0052743Y0083206D02*
X0068797Y0083206D01*
X0069028Y0084804D02*
X0052743Y0084804D01*
X0058446Y0092797D02*
X0072346Y0092797D01*
X0072346Y0094395D02*
X0058446Y0094395D01*
X0058446Y0095994D02*
X0073026Y0095994D01*
X0077071Y0097592D02*
X0057742Y0097592D01*
X0053757Y0099191D02*
X0077071Y0099191D01*
X0077625Y0100789D02*
X0052158Y0100789D01*
X0051483Y0102388D02*
X0105017Y0102388D01*
X0105017Y0103986D02*
X0051483Y0103986D01*
X0051483Y0105585D02*
X0105017Y0105585D01*
X0103754Y0107183D02*
X0051483Y0107183D01*
X0051483Y0108782D02*
X0103442Y0108782D01*
X0103442Y0110380D02*
X0051483Y0110380D01*
X0051483Y0111979D02*
X0103442Y0111979D01*
X0103442Y0113577D02*
X0051483Y0113577D01*
X0051483Y0115176D02*
X0103442Y0115176D01*
X0103442Y0116774D02*
X0051483Y0116774D01*
X0064836Y0091198D02*
X0072346Y0091198D01*
X0072346Y0089600D02*
X0065706Y0089600D01*
X0065700Y0088001D02*
X0071948Y0088001D01*
X0070350Y0086403D02*
X0064820Y0086403D01*
X0081046Y0081607D02*
X0081046Y0081607D01*
X0081046Y0080009D02*
X0081046Y0080009D01*
X0089864Y0095994D02*
X0103169Y0095994D01*
X0104768Y0097592D02*
X0089932Y0097592D01*
X0089932Y0099191D02*
X0105017Y0099191D01*
X0105017Y0100789D02*
X0089051Y0100789D01*
X0095022Y0092797D02*
X0095022Y0092797D01*
X0095022Y0091198D02*
X0095022Y0091198D01*
X0095022Y0090383D02*
X0095022Y0090383D01*
X0095022Y0085658D01*
X0095022Y0088836D01*
X0095022Y0090383D01*
X0095022Y0090383D01*
X0095022Y0089600D02*
X0095022Y0089600D01*
X0095022Y0088001D02*
X0095022Y0088001D01*
X0095022Y0086403D02*
X0095022Y0086403D01*
X0095022Y0085658D02*
X0095022Y0085658D01*
X0095022Y0084804D02*
X0095022Y0084804D01*
X0095022Y0083206D02*
X0095022Y0083206D01*
X0086041Y0056031D02*
X0078806Y0056031D01*
X0075682Y0051235D02*
X0072972Y0051235D01*
X0072789Y0051418D02*
X0073380Y0050827D01*
X0073806Y0049798D01*
X0073806Y0048684D01*
X0073806Y0047733D01*
X0076495Y0050422D01*
X0073184Y0053733D01*
X0072563Y0053112D01*
X0071681Y0052746D01*
X0070611Y0052746D01*
X0070637Y0052684D01*
X0070763Y0052631D01*
X0070973Y0052631D01*
X0072002Y0052205D01*
X0072789Y0051418D01*
X0071891Y0052834D02*
X0074084Y0052834D01*
X0073806Y0049637D02*
X0075710Y0049637D01*
X0074112Y0048038D02*
X0073806Y0048038D01*
X0066041Y0041644D02*
X0052743Y0041644D01*
X0052743Y0040046D02*
X0066041Y0040046D01*
X0066041Y0038447D02*
X0052743Y0038447D01*
X0052743Y0036849D02*
X0066296Y0036849D01*
X0067651Y0035250D02*
X0054562Y0035250D01*
X0055555Y0033652D02*
X0061487Y0033652D01*
X0061671Y0033728D02*
X0060789Y0033362D01*
X0060113Y0032687D01*
X0059748Y0031805D01*
X0059748Y0024945D01*
X0060113Y0024063D01*
X0060789Y0023387D01*
X0061671Y0023022D01*
X0068137Y0023022D01*
X0069019Y0023387D01*
X0069694Y0024063D01*
X0070060Y0024945D01*
X0070060Y0031805D01*
X0069694Y0032687D01*
X0069019Y0033362D01*
X0068137Y0033728D01*
X0061671Y0033728D01*
X0059851Y0032053D02*
X0055987Y0032053D01*
X0055987Y0030455D02*
X0059748Y0030455D01*
X0059748Y0028856D02*
X0055364Y0028856D01*
X0054100Y0027258D02*
X0059748Y0027258D01*
X0059748Y0025659D02*
X0055132Y0025659D01*
X0055387Y0024061D02*
X0060115Y0024061D01*
X0055387Y0022462D02*
X0105033Y0022462D01*
X0105033Y0022706D02*
X0105033Y0021387D01*
X0107916Y0021387D01*
X0107916Y0021387D01*
X0107916Y0024269D01*
X0109235Y0024269D01*
X0109392Y0024227D01*
X0109549Y0024269D01*
X0110868Y0024269D01*
X0110868Y0021387D01*
X0110868Y0021387D01*
X0107916Y0021387D01*
X0107916Y0021387D01*
X0107916Y0024269D01*
X0106596Y0024269D01*
X0106138Y0024147D01*
X0105728Y0023910D01*
X0105393Y0023575D01*
X0105156Y0023164D01*
X0105033Y0022706D01*
X0105033Y0021387D02*
X0105033Y0020067D01*
X0105156Y0019609D01*
X0105393Y0019199D01*
X0105728Y0018864D01*
X0106138Y0018627D01*
X0106596Y0018504D01*
X0107916Y0018504D01*
X0109235Y0018504D01*
X0109392Y0018546D01*
X0109549Y0018504D01*
X0110868Y0018504D01*
X0110868Y0021386D01*
X0110869Y0021386D01*
X0110869Y0018504D01*
X0112188Y0018504D01*
X0112646Y0018627D01*
X0113056Y0018864D01*
X0113392Y0019199D01*
X0113628Y0019609D01*
X0113751Y0020067D01*
X0113751Y0021387D01*
X0113751Y0022706D01*
X0113628Y0023164D01*
X0113392Y0023575D01*
X0113056Y0023910D01*
X0112646Y0024147D01*
X0112188Y0024269D01*
X0110869Y0024269D01*
X0110869Y0021387D01*
X0113751Y0021387D01*
X0110869Y0021387D01*
X0110869Y0021387D01*
X0110868Y0021387D01*
X0107986Y0021387D01*
X0107916Y0021387D01*
X0107916Y0021387D01*
X0107916Y0021386D02*
X0107916Y0018504D01*
X0107916Y0021386D01*
X0107916Y0021386D01*
X0107916Y0021387D02*
X0105033Y0021387D01*
X0105033Y0020864D02*
X0055387Y0020864D01*
X0055387Y0019265D02*
X0105354Y0019265D01*
X0107916Y0019265D02*
X0107916Y0019265D01*
X0107916Y0020864D02*
X0107916Y0020864D01*
X0107916Y0022462D02*
X0107916Y0022462D01*
X0107916Y0024061D02*
X0107916Y0024061D01*
X0105989Y0024061D02*
X0095677Y0024061D01*
X0095679Y0024063D02*
X0096044Y0024945D01*
X0096044Y0031805D01*
X0095679Y0032687D01*
X0095004Y0033362D01*
X0094121Y0033728D01*
X0087655Y0033728D01*
X0086773Y0033362D01*
X0086098Y0032687D01*
X0085732Y0031805D01*
X0085732Y0024945D01*
X0086098Y0024063D01*
X0086773Y0023387D01*
X0087655Y0023022D01*
X0094121Y0023022D01*
X0095004Y0023387D01*
X0095679Y0024063D01*
X0096044Y0025659D02*
X0117229Y0025659D01*
X0117598Y0027258D02*
X0096044Y0027258D01*
X0096044Y0028856D02*
X0105320Y0028856D01*
X0104433Y0030455D02*
X0096044Y0030455D01*
X0095941Y0032053D02*
X0104433Y0032053D01*
X0104546Y0033652D02*
X0094305Y0033652D01*
X0089333Y0036849D02*
X0101729Y0036849D01*
X0102688Y0035647D02*
X0102688Y0035647D01*
X0103084Y0035250D02*
X0087747Y0035250D01*
X0087472Y0033652D02*
X0068320Y0033652D01*
X0069957Y0032053D02*
X0085835Y0032053D01*
X0085732Y0030455D02*
X0070060Y0030455D01*
X0070060Y0028856D02*
X0085732Y0028856D01*
X0085732Y0027258D02*
X0070060Y0027258D01*
X0070060Y0025659D02*
X0085732Y0025659D01*
X0086100Y0024061D02*
X0069692Y0024061D01*
X0055298Y0017667D02*
X0117189Y0017667D01*
X0116072Y0019265D02*
X0113430Y0019265D01*
X0113751Y0020864D02*
X0115553Y0020864D01*
X0115553Y0022462D02*
X0113751Y0022462D01*
X0112795Y0024061D02*
X0116089Y0024061D01*
X0116242Y0028856D02*
X0113464Y0028856D01*
X0114351Y0030455D02*
X0115580Y0030455D01*
X0115553Y0032053D02*
X0114351Y0032053D01*
X0110868Y0024061D02*
X0110869Y0024061D01*
X0110868Y0022462D02*
X0110869Y0022462D01*
X0110868Y0020864D02*
X0110869Y0020864D01*
X0110868Y0019265D02*
X0110869Y0019265D01*
X0101474Y0038447D02*
X0089751Y0038447D01*
X0092476Y0040046D02*
X0101474Y0040046D01*
X0101474Y0041644D02*
X0094535Y0041644D01*
X0096692Y0043243D02*
X0100604Y0043243D01*
X0099005Y0044841D02*
X0098737Y0044841D01*
X0121128Y0062425D02*
X0121278Y0062425D01*
X0121278Y0064023D02*
X0121128Y0064023D01*
X0121128Y0065622D02*
X0121278Y0065622D01*
X0060544Y0064023D02*
X0052743Y0064023D01*
X0052743Y0062425D02*
X0060142Y0062425D01*
X0060142Y0060826D02*
X0052743Y0060826D01*
X0052743Y0059228D02*
X0060210Y0059228D01*
X0059293Y0057629D02*
X0052743Y0057629D01*
X0052743Y0056031D02*
X0058561Y0056031D01*
X0058561Y0054432D02*
X0052743Y0054432D01*
X0052743Y0052834D02*
X0058561Y0052834D01*
X0058561Y0051235D02*
X0052743Y0051235D01*
X0052743Y0049637D02*
X0058561Y0049637D01*
X0058561Y0048038D02*
X0052743Y0048038D01*
X0052743Y0046440D02*
X0058561Y0046440D01*
X0059241Y0044841D02*
X0052743Y0044841D01*
X0052743Y0043243D02*
X0060840Y0043243D01*
X0059775Y0044308D02*
X0059775Y0044308D01*
X0050412Y0020864D02*
X0050262Y0020864D01*
X0050262Y0019265D02*
X0050412Y0019265D01*
X0050412Y0017667D02*
X0050262Y0017667D01*
D29*
X0073959Y0047469D03*
X0081046Y0064792D03*
X0083408Y0067154D03*
X0085770Y0073454D03*
X0085376Y0086446D03*
X0085376Y0089989D03*
X0062148Y0088808D03*
X0095613Y0046682D03*
X0113329Y0112036D03*
X0113329Y0115580D03*
X0111361Y0120304D03*
X0114117Y0123060D03*
M02*
