G75*
%MOIN*%
%OFA0B0*%
%FSLAX25Y25*%
%IPPOS*%
%LPD*%
%AMOC8*
5,1,8,0,0,1.08239X$1,22.5*
%
%ADD10C,0.00000*%
%ADD11C,0.00200*%
%ADD12C,0.00500*%
%ADD13C,0.00300*%
%ADD14C,0.00400*%
%ADD15R,0.01575X0.01575*%
D10*
X0037739Y0009674D02*
X0037739Y0167154D01*
X0136164Y0167154D01*
X0136164Y0009674D01*
X0037739Y0009674D01*
D11*
X0042922Y0018322D02*
X0044365Y0018322D01*
X0044725Y0018683D01*
X0044725Y0019404D01*
X0044365Y0019765D01*
X0043643Y0019765D01*
X0043643Y0019044D01*
X0042922Y0019765D02*
X0042561Y0019404D01*
X0042561Y0018683D01*
X0042922Y0018322D01*
X0042561Y0020497D02*
X0044725Y0021940D01*
X0042561Y0021940D01*
X0042561Y0022673D02*
X0042561Y0023755D01*
X0042922Y0024115D01*
X0044365Y0024115D01*
X0044725Y0023755D01*
X0044725Y0022673D01*
X0042561Y0022673D01*
X0042561Y0020497D02*
X0044725Y0020497D01*
X0044725Y0027077D02*
X0042561Y0027077D01*
X0042561Y0028159D01*
X0042922Y0028520D01*
X0043282Y0028520D01*
X0043643Y0028159D01*
X0043643Y0027077D01*
X0044725Y0027077D02*
X0044725Y0028159D01*
X0044365Y0028520D01*
X0044004Y0028520D01*
X0043643Y0028159D01*
X0043643Y0029252D02*
X0043643Y0030695D01*
X0043282Y0030695D02*
X0044725Y0030695D01*
X0043282Y0030695D02*
X0042561Y0029974D01*
X0043282Y0029252D01*
X0044725Y0029252D01*
X0042561Y0031428D02*
X0042561Y0032870D01*
X0042561Y0032149D02*
X0044725Y0032149D01*
X0044725Y0034324D02*
X0042561Y0034324D01*
X0042561Y0033603D02*
X0042561Y0035045D01*
X0058309Y0048117D02*
X0058309Y0048838D01*
X0058670Y0049199D01*
X0060113Y0049199D01*
X0060473Y0048838D01*
X0060473Y0048117D01*
X0060113Y0047756D01*
X0058670Y0047756D01*
X0058309Y0048117D01*
X0059752Y0048478D02*
X0060473Y0049199D01*
X0060473Y0049931D02*
X0060473Y0051374D01*
X0060473Y0050653D02*
X0058309Y0050653D01*
X0059031Y0049931D01*
X0058892Y0060168D02*
X0060335Y0060168D01*
X0059613Y0060168D02*
X0059613Y0062332D01*
X0058892Y0061610D01*
X0058159Y0061250D02*
X0058159Y0061971D01*
X0057799Y0062332D01*
X0056717Y0062332D01*
X0056717Y0060168D01*
X0056717Y0060889D02*
X0057799Y0060889D01*
X0058159Y0061250D01*
X0057438Y0060889D02*
X0058159Y0060168D01*
X0068528Y0070010D02*
X0068528Y0072174D01*
X0069610Y0072174D01*
X0069970Y0071814D01*
X0069970Y0071092D01*
X0069610Y0070732D01*
X0068528Y0070732D01*
X0069249Y0070732D02*
X0069970Y0070010D01*
X0070703Y0070010D02*
X0070703Y0070371D01*
X0072146Y0071814D01*
X0072146Y0072174D01*
X0070703Y0072174D01*
X0071064Y0074735D02*
X0071785Y0074735D01*
X0072146Y0075095D01*
X0072146Y0075456D01*
X0071785Y0075817D01*
X0070703Y0075817D01*
X0070703Y0075095D01*
X0071064Y0074735D01*
X0069970Y0074735D02*
X0069249Y0075456D01*
X0069610Y0075456D02*
X0068528Y0075456D01*
X0068528Y0074735D02*
X0068528Y0076899D01*
X0069610Y0076899D01*
X0069970Y0076538D01*
X0069970Y0075817D01*
X0069610Y0075456D01*
X0070703Y0075817D02*
X0071424Y0076538D01*
X0072146Y0076899D01*
X0072244Y0085345D02*
X0070076Y0085345D01*
X0070076Y0087080D02*
X0072244Y0087080D01*
X0072678Y0086647D01*
X0072678Y0085779D01*
X0072244Y0085345D01*
X0072678Y0087924D02*
X0072678Y0089658D01*
X0072678Y0088791D02*
X0070076Y0088791D01*
X0070943Y0087924D01*
X0081726Y0100719D02*
X0081726Y0102883D01*
X0082808Y0102883D01*
X0083169Y0102522D01*
X0083169Y0101801D01*
X0082808Y0101440D01*
X0081726Y0101440D01*
X0082448Y0101440D02*
X0083169Y0100719D01*
X0083902Y0101080D02*
X0083902Y0101440D01*
X0084262Y0101801D01*
X0084984Y0101801D01*
X0085344Y0101440D01*
X0085344Y0101080D01*
X0084984Y0100719D01*
X0084262Y0100719D01*
X0083902Y0101080D01*
X0084262Y0101801D02*
X0083902Y0102162D01*
X0083902Y0102522D01*
X0084262Y0102883D01*
X0084984Y0102883D01*
X0085344Y0102522D01*
X0085344Y0102162D01*
X0084984Y0101801D01*
X0098468Y0091105D02*
X0098468Y0089662D01*
X0098829Y0089302D01*
X0099551Y0089302D01*
X0099911Y0089662D01*
X0100644Y0089302D02*
X0102086Y0089302D01*
X0101365Y0089302D02*
X0101365Y0091466D01*
X0100644Y0090744D01*
X0099911Y0091105D02*
X0099551Y0091466D01*
X0098829Y0091466D01*
X0098468Y0091105D01*
X0098829Y0086741D02*
X0098468Y0086381D01*
X0098468Y0084938D01*
X0098829Y0084577D01*
X0099551Y0084577D01*
X0099911Y0084938D01*
X0100644Y0084577D02*
X0102086Y0086020D01*
X0102086Y0086381D01*
X0101726Y0086741D01*
X0101004Y0086741D01*
X0100644Y0086381D01*
X0099911Y0086381D02*
X0099551Y0086741D01*
X0098829Y0086741D01*
X0100644Y0084577D02*
X0102086Y0084577D01*
X0100131Y0059576D02*
X0100492Y0059215D01*
X0100492Y0058855D01*
X0100131Y0058494D01*
X0100492Y0058133D01*
X0100492Y0057772D01*
X0100131Y0057412D01*
X0099410Y0057412D01*
X0099049Y0057772D01*
X0098317Y0057412D02*
X0097596Y0058133D01*
X0097956Y0058133D02*
X0096874Y0058133D01*
X0096874Y0057412D02*
X0096874Y0059576D01*
X0097956Y0059576D01*
X0098317Y0059215D01*
X0098317Y0058494D01*
X0097956Y0058133D01*
X0099049Y0059215D02*
X0099410Y0059576D01*
X0100131Y0059576D01*
X0100131Y0058494D02*
X0099771Y0058494D01*
X0100131Y0054851D02*
X0099049Y0053769D01*
X0100492Y0053769D01*
X0100131Y0052687D02*
X0100131Y0054851D01*
X0098317Y0054491D02*
X0098317Y0053769D01*
X0097956Y0053409D01*
X0096874Y0053409D01*
X0097596Y0053409D02*
X0098317Y0052687D01*
X0096874Y0052687D02*
X0096874Y0054851D01*
X0097956Y0054851D01*
X0098317Y0054491D01*
X0097956Y0050127D02*
X0096874Y0050127D01*
X0096874Y0047963D01*
X0096874Y0048684D02*
X0097956Y0048684D01*
X0098317Y0049045D01*
X0098317Y0049766D01*
X0097956Y0050127D01*
X0099049Y0050127D02*
X0099049Y0049045D01*
X0099771Y0049406D01*
X0100131Y0049406D01*
X0100492Y0049045D01*
X0100492Y0048324D01*
X0100131Y0047963D01*
X0099410Y0047963D01*
X0099049Y0048324D01*
X0098317Y0047963D02*
X0097596Y0048684D01*
X0099049Y0050127D02*
X0100492Y0050127D01*
X0103191Y0042985D02*
X0105355Y0042985D01*
X0105355Y0042264D02*
X0105355Y0043707D01*
X0103912Y0042264D02*
X0103191Y0042985D01*
X0103552Y0041532D02*
X0103191Y0041171D01*
X0103191Y0040089D01*
X0105355Y0040089D01*
X0105355Y0041171D01*
X0104994Y0041532D01*
X0103552Y0041532D01*
X0126419Y0041658D02*
X0126419Y0040937D01*
X0126780Y0040576D01*
X0127141Y0040576D01*
X0127501Y0040937D01*
X0127501Y0041658D01*
X0127862Y0042019D01*
X0128223Y0042019D01*
X0128583Y0041658D01*
X0128583Y0040937D01*
X0128223Y0040576D01*
X0128583Y0039844D02*
X0127862Y0039123D01*
X0127862Y0039483D02*
X0127862Y0038401D01*
X0128583Y0038401D02*
X0126419Y0038401D01*
X0126419Y0039483D01*
X0126780Y0039844D01*
X0127501Y0039844D01*
X0127862Y0039483D01*
X0126419Y0041658D02*
X0126780Y0042019D01*
X0126419Y0042751D02*
X0126419Y0044194D01*
X0126419Y0043473D02*
X0128583Y0043473D01*
X0130356Y0044201D02*
X0130356Y0045480D01*
X0130782Y0045907D01*
X0131635Y0045907D01*
X0132061Y0045480D01*
X0132061Y0044201D01*
X0132061Y0045054D02*
X0132914Y0045907D01*
X0132914Y0046739D02*
X0132914Y0048444D01*
X0132488Y0049277D02*
X0132914Y0049703D01*
X0132914Y0050556D01*
X0132488Y0050982D01*
X0132061Y0050982D01*
X0131635Y0050556D01*
X0131635Y0049703D01*
X0131209Y0049277D01*
X0130782Y0049277D01*
X0130356Y0049703D01*
X0130356Y0050556D01*
X0130782Y0050982D01*
X0130356Y0051814D02*
X0132914Y0051814D01*
X0132914Y0053520D01*
X0131635Y0052667D02*
X0131635Y0051814D01*
X0130356Y0051814D02*
X0130356Y0053520D01*
X0130356Y0054352D02*
X0130356Y0056057D01*
X0130356Y0055204D02*
X0132914Y0055204D01*
X0128583Y0053676D02*
X0128223Y0054037D01*
X0126780Y0054037D01*
X0126419Y0053676D01*
X0126419Y0052594D01*
X0128583Y0052594D01*
X0128583Y0053676D01*
X0128223Y0051861D02*
X0126780Y0051861D01*
X0126419Y0051501D01*
X0126419Y0050419D01*
X0128583Y0050419D01*
X0128583Y0051501D01*
X0128223Y0051861D01*
X0127862Y0049686D02*
X0126419Y0049686D01*
X0126419Y0048244D02*
X0127862Y0048244D01*
X0128583Y0048965D01*
X0127862Y0049686D01*
X0130356Y0048444D02*
X0130356Y0046739D01*
X0132914Y0046739D01*
X0131635Y0046739D02*
X0131635Y0047592D01*
X0132914Y0044201D02*
X0130356Y0044201D01*
X0130356Y0040832D02*
X0132914Y0039126D01*
X0132488Y0035756D02*
X0132914Y0035330D01*
X0132914Y0034477D01*
X0132488Y0034051D01*
X0130782Y0034051D01*
X0130356Y0034477D01*
X0130356Y0035330D01*
X0130782Y0035756D01*
X0128583Y0034352D02*
X0127141Y0034352D01*
X0126419Y0033630D01*
X0127141Y0032909D01*
X0128583Y0032909D01*
X0128223Y0032176D02*
X0128583Y0031816D01*
X0128583Y0030734D01*
X0126419Y0030734D01*
X0126419Y0031816D01*
X0126780Y0032176D01*
X0128223Y0032176D01*
X0127501Y0032909D02*
X0127501Y0034352D01*
X0130356Y0032792D02*
X0130356Y0031940D01*
X0130782Y0031513D01*
X0132488Y0031513D01*
X0132914Y0031940D01*
X0132914Y0032792D01*
X0132488Y0033219D01*
X0130782Y0033219D02*
X0130356Y0032792D01*
X0130356Y0030681D02*
X0130356Y0028976D01*
X0130356Y0029828D02*
X0132914Y0029828D01*
X0132914Y0028144D02*
X0132061Y0027291D01*
X0132061Y0027717D02*
X0132061Y0026438D01*
X0132914Y0026438D02*
X0130356Y0026438D01*
X0130356Y0027717D01*
X0130782Y0028144D01*
X0131635Y0028144D01*
X0132061Y0027717D01*
X0128583Y0028919D02*
X0128223Y0028559D01*
X0128583Y0028919D02*
X0128583Y0029641D01*
X0128223Y0030001D01*
X0127862Y0030001D01*
X0127501Y0029641D01*
X0127501Y0028919D01*
X0127141Y0028559D01*
X0126780Y0028559D01*
X0126419Y0028919D01*
X0126419Y0029641D01*
X0126780Y0030001D01*
X0128583Y0024115D02*
X0128583Y0022673D01*
X0126419Y0022673D01*
X0126780Y0021940D02*
X0126419Y0021580D01*
X0126419Y0020858D01*
X0126780Y0020498D01*
X0128223Y0020498D01*
X0128583Y0020858D01*
X0128583Y0021580D01*
X0128223Y0021940D01*
X0128223Y0019765D02*
X0128583Y0019404D01*
X0128583Y0018683D01*
X0128223Y0018322D01*
X0127501Y0018683D02*
X0127501Y0019404D01*
X0127862Y0019765D01*
X0128223Y0019765D01*
X0127501Y0018683D02*
X0127141Y0018322D01*
X0126780Y0018322D01*
X0126419Y0018683D01*
X0126419Y0019404D01*
X0126780Y0019765D01*
X0126780Y0058480D02*
X0128223Y0058480D01*
X0128583Y0058841D01*
X0128583Y0059562D01*
X0128223Y0059923D01*
X0127501Y0059923D01*
X0127501Y0059201D01*
X0126780Y0058480D02*
X0126419Y0058841D01*
X0126419Y0059562D01*
X0126780Y0059923D01*
X0126419Y0060655D02*
X0128583Y0062098D01*
X0126419Y0062098D01*
X0126419Y0062830D02*
X0126419Y0063912D01*
X0126780Y0064273D01*
X0128223Y0064273D01*
X0128583Y0063912D01*
X0128583Y0062830D01*
X0126419Y0062830D01*
X0126419Y0060655D02*
X0128583Y0060655D01*
X0130356Y0069082D02*
X0130356Y0070787D01*
X0131209Y0071619D02*
X0132488Y0071619D01*
X0132914Y0072046D01*
X0132914Y0073325D01*
X0131209Y0073325D01*
X0130356Y0074157D02*
X0130356Y0074583D01*
X0132914Y0074583D01*
X0132914Y0074157D02*
X0132914Y0075010D01*
X0132914Y0075849D02*
X0132914Y0076701D01*
X0132914Y0076275D02*
X0130356Y0076275D01*
X0130356Y0075849D01*
X0128583Y0075883D02*
X0128583Y0076604D01*
X0128223Y0076965D01*
X0126419Y0076965D01*
X0126419Y0077697D02*
X0128583Y0077697D01*
X0128583Y0079140D01*
X0127501Y0078418D02*
X0127501Y0077697D01*
X0126419Y0077697D02*
X0126419Y0079140D01*
X0126780Y0082102D02*
X0128223Y0082102D01*
X0128583Y0082463D01*
X0128583Y0083184D01*
X0128223Y0083545D01*
X0127501Y0083545D01*
X0127501Y0082823D01*
X0126780Y0082102D02*
X0126419Y0082463D01*
X0126419Y0083184D01*
X0126780Y0083545D01*
X0126419Y0084277D02*
X0126419Y0085359D01*
X0126780Y0085720D01*
X0127501Y0085720D01*
X0127862Y0085359D01*
X0127862Y0084277D01*
X0127862Y0084998D02*
X0128583Y0085720D01*
X0128583Y0086452D02*
X0126419Y0086452D01*
X0128583Y0087895D01*
X0126419Y0087895D01*
X0126419Y0084277D02*
X0128583Y0084277D01*
X0130356Y0085153D02*
X0130356Y0085579D01*
X0132914Y0085579D01*
X0132914Y0085153D02*
X0132914Y0086006D01*
X0132488Y0086845D02*
X0132914Y0087271D01*
X0132914Y0088124D01*
X0132488Y0088550D01*
X0131635Y0088550D01*
X0131209Y0088124D01*
X0131209Y0087271D01*
X0131635Y0086845D01*
X0132488Y0086845D01*
X0132914Y0089382D02*
X0131209Y0089382D01*
X0132061Y0089382D02*
X0131209Y0090235D01*
X0131209Y0090661D01*
X0128583Y0092338D02*
X0126419Y0092338D01*
X0126419Y0093420D01*
X0126780Y0093781D01*
X0127501Y0093781D01*
X0127862Y0093420D01*
X0127862Y0092338D01*
X0127862Y0093060D02*
X0128583Y0093781D01*
X0128583Y0094513D02*
X0128583Y0095956D01*
X0128583Y0096688D02*
X0128583Y0097770D01*
X0128223Y0098131D01*
X0126780Y0098131D01*
X0126419Y0097770D01*
X0126419Y0096688D01*
X0128583Y0096688D01*
X0130356Y0096572D02*
X0130356Y0098278D01*
X0130356Y0099110D02*
X0130356Y0100389D01*
X0130782Y0100815D01*
X0132488Y0100815D01*
X0132914Y0100389D01*
X0132914Y0099110D01*
X0130356Y0099110D01*
X0131635Y0097425D02*
X0131635Y0096572D01*
X0130356Y0096572D02*
X0132914Y0096572D01*
X0132914Y0098278D01*
X0132914Y0095740D02*
X0132914Y0094035D01*
X0130356Y0094035D01*
X0128583Y0094513D02*
X0126419Y0094513D01*
X0126419Y0095956D01*
X0127501Y0095235D02*
X0127501Y0094513D01*
X0127141Y0104636D02*
X0126780Y0104636D01*
X0126419Y0104997D01*
X0126419Y0105718D01*
X0126780Y0106079D01*
X0126780Y0106812D02*
X0128223Y0106812D01*
X0128583Y0107172D01*
X0128583Y0107894D01*
X0128223Y0108254D01*
X0128583Y0108987D02*
X0126419Y0108987D01*
X0126780Y0108254D02*
X0126419Y0107894D01*
X0126419Y0107172D01*
X0126780Y0106812D01*
X0127862Y0106079D02*
X0128223Y0106079D01*
X0128583Y0105718D01*
X0128583Y0104997D01*
X0128223Y0104636D01*
X0127501Y0104997D02*
X0127501Y0105718D01*
X0127862Y0106079D01*
X0127501Y0104997D02*
X0127141Y0104636D01*
X0128583Y0108987D02*
X0128583Y0110429D01*
X0128583Y0111162D02*
X0126419Y0111162D01*
X0127501Y0111522D02*
X0128583Y0112604D01*
X0127862Y0111162D02*
X0126419Y0112604D01*
X0126419Y0115235D02*
X0127141Y0115957D01*
X0126419Y0116678D01*
X0128583Y0116678D01*
X0128223Y0117410D02*
X0128583Y0117771D01*
X0128583Y0118492D01*
X0128223Y0118853D01*
X0126780Y0118853D01*
X0126419Y0118492D01*
X0126419Y0117771D01*
X0126780Y0117410D01*
X0128223Y0117410D01*
X0128223Y0119585D02*
X0128583Y0119946D01*
X0128583Y0120667D01*
X0128223Y0121028D01*
X0127862Y0121028D01*
X0127501Y0120667D01*
X0127501Y0119946D01*
X0127141Y0119585D01*
X0126780Y0119585D01*
X0126419Y0119946D01*
X0126419Y0120667D01*
X0126780Y0121028D01*
X0126419Y0121760D02*
X0126419Y0122482D01*
X0126419Y0122121D02*
X0128583Y0122121D01*
X0128583Y0121760D02*
X0128583Y0122482D01*
X0130356Y0122771D02*
X0132914Y0122771D01*
X0132914Y0124456D02*
X0130356Y0124456D01*
X0130356Y0126161D01*
X0130356Y0126994D02*
X0130356Y0128699D01*
X0130356Y0127846D02*
X0132914Y0127846D01*
X0131635Y0125309D02*
X0131635Y0124456D01*
X0130356Y0123624D02*
X0130356Y0121918D01*
X0128223Y0125803D02*
X0126780Y0125803D01*
X0126419Y0126163D01*
X0126419Y0126885D01*
X0126780Y0127245D01*
X0128223Y0127245D02*
X0128583Y0126885D01*
X0128583Y0126163D01*
X0128223Y0125803D01*
X0128944Y0127978D02*
X0128944Y0129421D01*
X0128223Y0130153D02*
X0128583Y0130514D01*
X0128583Y0131235D01*
X0128223Y0131596D01*
X0127862Y0131596D01*
X0127501Y0131235D01*
X0127501Y0130514D01*
X0127141Y0130153D01*
X0126780Y0130153D01*
X0126419Y0130514D01*
X0126419Y0131235D01*
X0126780Y0131596D01*
X0126419Y0135645D02*
X0126419Y0136727D01*
X0126780Y0137088D01*
X0127501Y0137088D01*
X0127862Y0136727D01*
X0127862Y0135645D01*
X0128583Y0135645D02*
X0126419Y0135645D01*
X0127862Y0136367D02*
X0128583Y0137088D01*
X0128223Y0137820D02*
X0128583Y0138181D01*
X0128583Y0138902D01*
X0128223Y0139263D01*
X0127862Y0139263D01*
X0127501Y0138902D01*
X0127501Y0138181D01*
X0127141Y0137820D01*
X0126780Y0137820D01*
X0126419Y0138181D01*
X0126419Y0138902D01*
X0126780Y0139263D01*
X0126419Y0139995D02*
X0126419Y0141438D01*
X0126419Y0140717D02*
X0128583Y0140717D01*
X0130356Y0142219D02*
X0130356Y0142646D01*
X0132914Y0142646D01*
X0132914Y0143072D02*
X0132914Y0142219D01*
X0132914Y0141387D02*
X0131209Y0141387D01*
X0131209Y0139682D02*
X0132488Y0139682D01*
X0132914Y0140108D01*
X0132914Y0141387D01*
X0132914Y0138849D02*
X0132914Y0137570D01*
X0132488Y0137144D01*
X0131635Y0137144D01*
X0131209Y0137570D01*
X0131209Y0138849D01*
X0130356Y0138849D02*
X0132914Y0138849D01*
X0132488Y0136312D02*
X0131635Y0136312D01*
X0131209Y0135885D01*
X0131209Y0135033D01*
X0131635Y0134606D01*
X0132488Y0134606D01*
X0132914Y0135033D01*
X0132914Y0135885D01*
X0132488Y0136312D01*
X0132914Y0133774D02*
X0130356Y0133774D01*
X0131209Y0132921D01*
X0130356Y0132069D01*
X0132914Y0132069D01*
X0132488Y0143911D02*
X0131635Y0143911D01*
X0131209Y0144337D01*
X0131209Y0145190D01*
X0131635Y0145616D01*
X0132061Y0145616D01*
X0132061Y0143911D01*
X0132488Y0143911D02*
X0132914Y0144337D01*
X0132914Y0145190D01*
X0128583Y0145881D02*
X0128583Y0146963D01*
X0128223Y0147324D01*
X0126780Y0147324D01*
X0126419Y0146963D01*
X0126419Y0145881D01*
X0128583Y0145881D01*
X0128944Y0148057D02*
X0128944Y0149499D01*
X0128223Y0150232D02*
X0128583Y0150592D01*
X0128583Y0151314D01*
X0128223Y0151674D01*
X0128223Y0150232D02*
X0126780Y0150232D01*
X0126419Y0150592D01*
X0126419Y0151314D01*
X0126780Y0151674D01*
X0126419Y0156118D02*
X0128583Y0156118D01*
X0128583Y0157560D01*
X0128583Y0158293D02*
X0128583Y0159735D01*
X0128583Y0160468D02*
X0128583Y0161550D01*
X0128223Y0161911D01*
X0126780Y0161911D01*
X0126419Y0161550D01*
X0126419Y0160468D01*
X0128583Y0160468D01*
X0127501Y0159014D02*
X0127501Y0158293D01*
X0126419Y0158293D02*
X0126419Y0159735D01*
X0126419Y0158293D02*
X0128583Y0158293D01*
X0128583Y0115235D02*
X0126419Y0115235D01*
X0131635Y0084321D02*
X0131209Y0083895D01*
X0131209Y0083042D01*
X0131635Y0082615D01*
X0132488Y0082615D01*
X0132914Y0083042D01*
X0132914Y0083895D01*
X0132488Y0084321D01*
X0131635Y0084321D01*
X0130782Y0081783D02*
X0130356Y0081357D01*
X0130356Y0080504D01*
X0130782Y0080078D01*
X0132488Y0080078D01*
X0132914Y0080504D01*
X0132914Y0081357D01*
X0132488Y0081783D01*
X0128583Y0075883D02*
X0128223Y0075522D01*
X0126419Y0075522D01*
X0126419Y0073347D02*
X0128583Y0073347D01*
X0128583Y0074790D01*
X0128223Y0072615D02*
X0128583Y0072254D01*
X0128583Y0071172D01*
X0126419Y0071172D01*
X0126419Y0072254D01*
X0126780Y0072615D01*
X0127141Y0072615D01*
X0127501Y0072254D01*
X0127501Y0071172D01*
X0127501Y0072254D02*
X0127862Y0072615D01*
X0128223Y0072615D01*
X0130356Y0069082D02*
X0132914Y0069082D01*
X0131635Y0069082D02*
X0131635Y0069934D01*
X0076496Y0057247D02*
X0076135Y0057607D01*
X0075414Y0057607D01*
X0075053Y0057247D01*
X0074321Y0057247D02*
X0074321Y0056525D01*
X0073960Y0056165D01*
X0072878Y0056165D01*
X0073599Y0056165D02*
X0074321Y0055443D01*
X0075053Y0055443D02*
X0076496Y0056886D01*
X0076496Y0057247D01*
X0076496Y0055443D02*
X0075053Y0055443D01*
X0074321Y0057247D02*
X0073960Y0057607D01*
X0072878Y0057607D01*
X0072878Y0055443D01*
X0055749Y0081408D02*
X0053585Y0081408D01*
X0053585Y0082490D01*
X0053945Y0082851D01*
X0054667Y0082851D01*
X0055027Y0082490D01*
X0055027Y0081408D01*
X0055027Y0082129D02*
X0055749Y0082851D01*
X0055388Y0083583D02*
X0055749Y0083944D01*
X0055749Y0084665D01*
X0055388Y0085026D01*
X0053945Y0085026D01*
X0053585Y0084665D01*
X0053585Y0083944D01*
X0053945Y0083583D01*
X0054306Y0083583D01*
X0054667Y0083944D01*
X0054667Y0085026D01*
X0046694Y0089489D02*
X0046694Y0090571D01*
X0046333Y0090931D01*
X0044890Y0090931D01*
X0044530Y0090571D01*
X0044530Y0089489D01*
X0046694Y0089489D01*
X0046694Y0091664D02*
X0045251Y0093106D01*
X0044890Y0093106D01*
X0044530Y0092746D01*
X0044530Y0092024D01*
X0044890Y0091664D01*
X0046694Y0091664D02*
X0046694Y0093106D01*
D12*
X0059683Y0123564D02*
X0066683Y0123564D01*
X0059683Y0123564D02*
X0053683Y0129564D01*
X0053683Y0153564D02*
X0053910Y0153887D01*
X0054145Y0154204D01*
X0054387Y0154516D01*
X0054637Y0154821D01*
X0054894Y0155121D01*
X0055158Y0155414D01*
X0055430Y0155701D01*
X0055708Y0155981D01*
X0055993Y0156254D01*
X0056284Y0156520D01*
X0056582Y0156779D01*
X0056886Y0157030D01*
X0057196Y0157275D01*
X0057512Y0157511D01*
X0057834Y0157740D01*
X0058161Y0157961D01*
X0058493Y0158174D01*
X0058830Y0158379D01*
X0059173Y0158576D01*
X0059519Y0158764D01*
X0059871Y0158944D01*
X0060226Y0159115D01*
X0060586Y0159278D01*
X0060949Y0159431D01*
X0061317Y0159576D01*
X0061687Y0159712D01*
X0062061Y0159839D01*
X0062438Y0159957D01*
X0062817Y0160066D01*
X0063199Y0160165D01*
X0063583Y0160255D01*
X0063970Y0160336D01*
X0064358Y0160407D01*
X0064747Y0160469D01*
X0065139Y0160522D01*
X0065531Y0160565D01*
X0065924Y0160598D01*
X0066318Y0160622D01*
X0066713Y0160636D01*
X0067107Y0160641D01*
X0067502Y0160636D01*
X0067896Y0160622D01*
X0068290Y0160598D01*
X0068684Y0160564D01*
X0088683Y0160564D02*
X0089077Y0160598D01*
X0089471Y0160622D01*
X0089865Y0160636D01*
X0090260Y0160641D01*
X0090654Y0160636D01*
X0091049Y0160622D01*
X0091443Y0160598D01*
X0091836Y0160565D01*
X0092228Y0160522D01*
X0092620Y0160469D01*
X0093009Y0160407D01*
X0093397Y0160336D01*
X0093784Y0160255D01*
X0094168Y0160165D01*
X0094550Y0160066D01*
X0094929Y0159957D01*
X0095306Y0159839D01*
X0095680Y0159712D01*
X0096050Y0159576D01*
X0096418Y0159431D01*
X0096781Y0159278D01*
X0097141Y0159115D01*
X0097496Y0158944D01*
X0097848Y0158764D01*
X0098194Y0158576D01*
X0098537Y0158379D01*
X0098874Y0158174D01*
X0099206Y0157961D01*
X0099533Y0157740D01*
X0099855Y0157511D01*
X0100171Y0157275D01*
X0100481Y0157030D01*
X0100785Y0156779D01*
X0101083Y0156520D01*
X0101374Y0156254D01*
X0101659Y0155981D01*
X0101937Y0155701D01*
X0102209Y0155414D01*
X0102473Y0155121D01*
X0102730Y0154821D01*
X0102980Y0154516D01*
X0103222Y0154204D01*
X0103457Y0153887D01*
X0103684Y0153564D01*
X0103683Y0129564D02*
X0097683Y0123564D01*
X0090683Y0123564D01*
X0071203Y0052981D02*
X0062542Y0052981D01*
X0062542Y0046682D01*
X0071203Y0046682D01*
X0071203Y0052981D01*
X0068644Y0039989D02*
X0064904Y0039989D01*
X0064904Y0035658D01*
X0062739Y0035658D01*
X0062739Y0032509D01*
X0068644Y0039202D02*
X0068644Y0039989D01*
X0069431Y0025422D02*
X0069431Y0024241D01*
X0086361Y0024241D01*
X0086361Y0025422D01*
X0093054Y0032509D02*
X0093054Y0035658D01*
X0090888Y0035658D01*
X0090888Y0039989D01*
X0087148Y0039989D01*
X0087148Y0039202D01*
X0107423Y0026603D02*
X0107425Y0026691D01*
X0107431Y0026779D01*
X0107441Y0026867D01*
X0107455Y0026955D01*
X0107472Y0027041D01*
X0107494Y0027127D01*
X0107519Y0027211D01*
X0107549Y0027295D01*
X0107581Y0027377D01*
X0107618Y0027457D01*
X0107658Y0027536D01*
X0107702Y0027613D01*
X0107749Y0027688D01*
X0107799Y0027760D01*
X0107853Y0027831D01*
X0107909Y0027898D01*
X0107969Y0027964D01*
X0108031Y0028026D01*
X0108097Y0028086D01*
X0108164Y0028142D01*
X0108235Y0028196D01*
X0108307Y0028246D01*
X0108382Y0028293D01*
X0108459Y0028337D01*
X0108538Y0028377D01*
X0108618Y0028414D01*
X0108700Y0028446D01*
X0108784Y0028476D01*
X0108868Y0028501D01*
X0108954Y0028523D01*
X0109040Y0028540D01*
X0109128Y0028554D01*
X0109216Y0028564D01*
X0109304Y0028570D01*
X0109392Y0028572D01*
X0109480Y0028570D01*
X0109568Y0028564D01*
X0109656Y0028554D01*
X0109744Y0028540D01*
X0109830Y0028523D01*
X0109916Y0028501D01*
X0110000Y0028476D01*
X0110084Y0028446D01*
X0110166Y0028414D01*
X0110246Y0028377D01*
X0110325Y0028337D01*
X0110402Y0028293D01*
X0110477Y0028246D01*
X0110549Y0028196D01*
X0110620Y0028142D01*
X0110687Y0028086D01*
X0110753Y0028026D01*
X0110815Y0027964D01*
X0110875Y0027898D01*
X0110931Y0027831D01*
X0110985Y0027760D01*
X0111035Y0027688D01*
X0111082Y0027613D01*
X0111126Y0027536D01*
X0111166Y0027457D01*
X0111203Y0027377D01*
X0111235Y0027295D01*
X0111265Y0027211D01*
X0111290Y0027127D01*
X0111312Y0027041D01*
X0111329Y0026955D01*
X0111343Y0026867D01*
X0111353Y0026779D01*
X0111359Y0026691D01*
X0111361Y0026603D01*
X0111359Y0026515D01*
X0111353Y0026427D01*
X0111343Y0026339D01*
X0111329Y0026251D01*
X0111312Y0026165D01*
X0111290Y0026079D01*
X0111265Y0025995D01*
X0111235Y0025911D01*
X0111203Y0025829D01*
X0111166Y0025749D01*
X0111126Y0025670D01*
X0111082Y0025593D01*
X0111035Y0025518D01*
X0110985Y0025446D01*
X0110931Y0025375D01*
X0110875Y0025308D01*
X0110815Y0025242D01*
X0110753Y0025180D01*
X0110687Y0025120D01*
X0110620Y0025064D01*
X0110549Y0025010D01*
X0110477Y0024960D01*
X0110402Y0024913D01*
X0110325Y0024869D01*
X0110246Y0024829D01*
X0110166Y0024792D01*
X0110084Y0024760D01*
X0110000Y0024730D01*
X0109916Y0024705D01*
X0109830Y0024683D01*
X0109744Y0024666D01*
X0109656Y0024652D01*
X0109568Y0024642D01*
X0109480Y0024636D01*
X0109392Y0024634D01*
X0109304Y0024636D01*
X0109216Y0024642D01*
X0109128Y0024652D01*
X0109040Y0024666D01*
X0108954Y0024683D01*
X0108868Y0024705D01*
X0108784Y0024730D01*
X0108700Y0024760D01*
X0108618Y0024792D01*
X0108538Y0024829D01*
X0108459Y0024869D01*
X0108382Y0024913D01*
X0108307Y0024960D01*
X0108235Y0025010D01*
X0108164Y0025064D01*
X0108097Y0025120D01*
X0108031Y0025180D01*
X0107969Y0025242D01*
X0107909Y0025308D01*
X0107853Y0025375D01*
X0107799Y0025446D01*
X0107749Y0025518D01*
X0107702Y0025593D01*
X0107658Y0025670D01*
X0107618Y0025749D01*
X0107581Y0025829D01*
X0107549Y0025911D01*
X0107519Y0025995D01*
X0107494Y0026079D01*
X0107472Y0026165D01*
X0107455Y0026251D01*
X0107441Y0026339D01*
X0107431Y0026427D01*
X0107425Y0026515D01*
X0107423Y0026603D01*
D13*
X0104481Y0025982D02*
X0103647Y0026816D01*
X0104481Y0027651D01*
X0101979Y0027651D01*
X0102813Y0028561D02*
X0101979Y0029395D01*
X0104481Y0029395D01*
X0104481Y0028561D02*
X0104481Y0030229D01*
X0104481Y0025982D02*
X0101979Y0025982D01*
X0102396Y0025072D02*
X0101979Y0024655D01*
X0101979Y0023821D01*
X0102396Y0023404D01*
X0102813Y0023404D01*
X0103230Y0023821D01*
X0103230Y0024655D01*
X0103647Y0025072D01*
X0104064Y0025072D01*
X0104481Y0024655D01*
X0104481Y0023821D01*
X0104064Y0023404D01*
X0081966Y0016911D02*
X0079539Y0016911D01*
X0078341Y0016911D02*
X0078341Y0020551D01*
X0079539Y0019337D02*
X0080752Y0020551D01*
X0080752Y0016911D01*
X0078341Y0016911D02*
X0075914Y0020551D01*
X0075914Y0016911D01*
X0074715Y0017517D02*
X0074109Y0016911D01*
X0072895Y0016911D01*
X0072289Y0017517D01*
X0072289Y0019944D01*
X0072895Y0020551D01*
X0074109Y0020551D01*
X0074715Y0019944D01*
X0055352Y0157856D02*
X0053188Y0157856D01*
X0054270Y0157856D02*
X0054270Y0161102D01*
X0053188Y0160020D01*
X0052090Y0161102D02*
X0049926Y0161102D01*
X0051008Y0161102D02*
X0051008Y0157856D01*
X0048827Y0157856D02*
X0048827Y0160020D01*
X0047745Y0161102D01*
X0046663Y0160020D01*
X0046663Y0157856D01*
X0045564Y0158397D02*
X0045023Y0157856D01*
X0043400Y0157856D01*
X0043400Y0161102D01*
X0045023Y0161102D01*
X0045564Y0160561D01*
X0045564Y0160020D01*
X0045023Y0159479D01*
X0043400Y0159479D01*
X0045023Y0159479D02*
X0045564Y0158938D01*
X0045564Y0158397D01*
X0046663Y0159479D02*
X0048827Y0159479D01*
D14*
X0105829Y0160041D02*
X0106346Y0159524D01*
X0107381Y0159524D01*
X0107898Y0160041D01*
X0109052Y0159524D02*
X0109052Y0162626D01*
X0111121Y0159524D01*
X0111121Y0162626D01*
X0112275Y0162109D02*
X0112792Y0162626D01*
X0113826Y0162626D01*
X0114343Y0162109D01*
X0114343Y0161592D01*
X0112275Y0159524D01*
X0114343Y0159524D01*
X0107898Y0162109D02*
X0107381Y0162626D01*
X0106346Y0162626D01*
X0105829Y0162109D01*
X0105829Y0160041D01*
X0112512Y0089144D02*
X0111995Y0088627D01*
X0111995Y0087593D01*
X0112512Y0087076D01*
X0111995Y0085922D02*
X0115098Y0085922D01*
X0111995Y0083853D01*
X0115098Y0083853D01*
X0114581Y0082699D02*
X0115098Y0082182D01*
X0115098Y0081148D01*
X0114581Y0080630D01*
X0112512Y0080630D01*
X0111995Y0081148D01*
X0111995Y0082182D01*
X0112512Y0082699D01*
X0114581Y0087076D02*
X0115098Y0087593D01*
X0115098Y0088627D01*
X0114581Y0089144D01*
X0114063Y0089144D01*
X0113546Y0088627D01*
X0113546Y0088110D01*
X0113546Y0088627D02*
X0113029Y0089144D01*
X0112512Y0089144D01*
X0116976Y0015776D02*
X0116459Y0015259D01*
X0116459Y0013190D01*
X0116976Y0012673D01*
X0118011Y0012673D01*
X0118528Y0013190D01*
X0119682Y0012673D02*
X0119682Y0015776D01*
X0121750Y0012673D01*
X0121750Y0015776D01*
X0122905Y0014225D02*
X0124973Y0014225D01*
X0124456Y0015776D02*
X0124456Y0012673D01*
X0122905Y0014225D02*
X0124456Y0015776D01*
X0118528Y0015259D02*
X0118011Y0015776D01*
X0116976Y0015776D01*
X0054107Y0015776D02*
X0052039Y0015776D01*
X0052039Y0014225D01*
X0053073Y0014742D01*
X0053590Y0014742D01*
X0054107Y0014225D01*
X0054107Y0013190D01*
X0053590Y0012673D01*
X0052556Y0012673D01*
X0052039Y0013190D01*
X0050884Y0012673D02*
X0050884Y0015776D01*
X0048816Y0015776D02*
X0050884Y0012673D01*
X0048816Y0012673D02*
X0048816Y0015776D01*
X0047662Y0015259D02*
X0047144Y0015776D01*
X0046110Y0015776D01*
X0045593Y0015259D01*
X0045593Y0013190D01*
X0046110Y0012673D01*
X0047144Y0012673D01*
X0047662Y0013190D01*
D15*
X0075534Y0096485D03*
X0113723Y0045894D03*
M02*
