G75*
%MOIN*%
%OFA0B0*%
%FSLAX25Y25*%
%IPPOS*%
%LPD*%
%AMOC8*
5,1,8,0,0,1.08239X$1,22.5*
%
%ADD10C,0.00000*%
%ADD11R,0.03642X0.02756*%
%ADD12R,0.00984X0.02953*%
%ADD13R,0.05512X0.05906*%
%ADD14R,0.01378X0.01772*%
%ADD15R,0.01575X0.00984*%
%ADD16C,0.00001*%
%ADD17R,0.03150X0.02756*%
%ADD18R,0.02756X0.03150*%
%ADD19R,0.02953X0.01772*%
%ADD20R,0.10000X0.20000*%
%ADD21R,0.02362X0.01181*%
%ADD22R,0.02165X0.02165*%
D10*
X0037739Y0009674D02*
X0037739Y0167154D01*
X0136164Y0167154D01*
X0136164Y0009674D01*
X0037739Y0009674D01*
X0066951Y0048257D02*
X0068290Y0048257D01*
X0068290Y0049438D01*
X0069628Y0049438D01*
X0069628Y0050225D01*
X0068290Y0050225D01*
X0068290Y0051406D01*
X0066951Y0051406D01*
X0066951Y0048257D01*
D11*
X0089904Y0085658D03*
X0089904Y0090383D03*
X0095022Y0090383D03*
X0095022Y0085658D03*
D12*
X0084786Y0040383D03*
X0082817Y0040383D03*
X0080849Y0040383D03*
X0078880Y0040383D03*
X0076912Y0040383D03*
X0074943Y0040383D03*
X0072975Y0040383D03*
X0071006Y0040383D03*
D13*
X0064904Y0028375D03*
X0090888Y0028375D03*
D14*
X0108014Y0039005D03*
X0110770Y0039005D03*
X0110770Y0044123D03*
X0108014Y0044123D03*
D15*
X0064904Y0048552D03*
X0064904Y0051111D03*
D16*
X0066951Y0051118D02*
X0068290Y0051118D01*
X0068290Y0051119D02*
X0066951Y0051119D01*
X0066951Y0051120D02*
X0068290Y0051120D01*
X0068290Y0051121D02*
X0066951Y0051121D01*
X0066951Y0051122D02*
X0068290Y0051122D01*
X0068290Y0051123D02*
X0066951Y0051123D01*
X0066951Y0051124D02*
X0068290Y0051124D01*
X0068290Y0051125D02*
X0066951Y0051125D01*
X0066951Y0051126D02*
X0068290Y0051126D01*
X0068290Y0051127D02*
X0066951Y0051127D01*
X0066951Y0051128D02*
X0068290Y0051128D01*
X0068290Y0051129D02*
X0066951Y0051129D01*
X0066951Y0051130D02*
X0068290Y0051130D01*
X0068290Y0051131D02*
X0066951Y0051131D01*
X0066951Y0051132D02*
X0068290Y0051132D01*
X0068290Y0051133D02*
X0066951Y0051133D01*
X0066951Y0051134D02*
X0068290Y0051134D01*
X0068290Y0051135D02*
X0066951Y0051135D01*
X0066951Y0051136D02*
X0068290Y0051136D01*
X0068290Y0051137D02*
X0066951Y0051137D01*
X0066951Y0051138D02*
X0068290Y0051138D01*
X0068290Y0051139D02*
X0066951Y0051139D01*
X0066951Y0051140D02*
X0068290Y0051140D01*
X0068290Y0051141D02*
X0066951Y0051141D01*
X0066951Y0051142D02*
X0068290Y0051142D01*
X0068290Y0051143D02*
X0066951Y0051143D01*
X0066951Y0051144D02*
X0068290Y0051144D01*
X0066951Y0051144D01*
X0066951Y0051145D02*
X0068290Y0051145D01*
X0068290Y0051146D02*
X0066951Y0051146D01*
X0066951Y0051147D02*
X0068290Y0051147D01*
X0068290Y0051148D02*
X0066951Y0051148D01*
X0066951Y0051149D02*
X0068290Y0051149D01*
X0068290Y0051150D02*
X0066951Y0051150D01*
X0066951Y0051151D02*
X0068290Y0051151D01*
X0068290Y0051152D02*
X0066951Y0051152D01*
X0066951Y0051153D02*
X0068290Y0051153D01*
X0068290Y0051154D02*
X0066951Y0051154D01*
X0066951Y0051155D02*
X0068290Y0051155D01*
X0068290Y0051156D02*
X0066951Y0051156D01*
X0066951Y0051157D02*
X0068290Y0051157D01*
X0068290Y0051158D02*
X0066951Y0051158D01*
X0066951Y0051159D02*
X0068290Y0051159D01*
X0068290Y0051160D02*
X0066951Y0051160D01*
X0066951Y0051161D02*
X0068290Y0051161D01*
X0068290Y0051162D02*
X0066951Y0051162D01*
X0066951Y0051163D02*
X0068290Y0051163D01*
X0068290Y0051164D02*
X0066951Y0051164D01*
X0066951Y0051165D02*
X0068290Y0051165D01*
X0068290Y0051166D02*
X0066951Y0051166D01*
X0066951Y0051167D02*
X0068290Y0051167D01*
X0068290Y0051168D02*
X0066951Y0051168D01*
X0066951Y0051169D02*
X0068290Y0051169D01*
X0068290Y0051170D02*
X0066951Y0051170D01*
X0066951Y0051171D02*
X0068290Y0051171D01*
X0068290Y0051172D02*
X0066951Y0051172D01*
X0066951Y0051173D02*
X0068290Y0051173D01*
X0068290Y0051174D02*
X0066951Y0051174D01*
X0066951Y0051175D02*
X0068290Y0051175D01*
X0068290Y0051176D02*
X0066951Y0051176D01*
X0066951Y0051177D02*
X0068290Y0051177D01*
X0068290Y0051178D02*
X0066951Y0051178D01*
X0066951Y0051179D02*
X0068290Y0051179D01*
X0068290Y0051180D02*
X0066951Y0051180D01*
X0066951Y0051181D02*
X0068290Y0051181D01*
X0068290Y0051182D02*
X0066951Y0051182D01*
X0066951Y0051183D02*
X0068290Y0051183D01*
X0068290Y0051184D02*
X0066951Y0051184D01*
X0066951Y0051185D02*
X0068290Y0051185D01*
X0068290Y0051186D02*
X0066951Y0051186D01*
X0066951Y0051187D02*
X0068290Y0051187D01*
X0068290Y0051188D02*
X0066951Y0051188D01*
X0066951Y0051189D02*
X0068290Y0051189D01*
X0068290Y0051190D02*
X0066951Y0051190D01*
X0066951Y0051191D02*
X0068290Y0051191D01*
X0068290Y0051192D02*
X0066951Y0051192D01*
X0066951Y0051193D02*
X0068290Y0051193D01*
X0068290Y0051194D02*
X0066951Y0051194D01*
X0066951Y0051195D02*
X0068290Y0051195D01*
X0068290Y0051196D02*
X0066951Y0051196D01*
X0066951Y0051197D02*
X0068290Y0051197D01*
X0068290Y0051198D02*
X0066951Y0051198D01*
X0066951Y0051199D02*
X0068290Y0051199D01*
X0068290Y0051200D02*
X0066951Y0051200D01*
X0066951Y0051201D02*
X0068290Y0051201D01*
X0068290Y0051202D02*
X0066951Y0051202D01*
X0066951Y0051203D02*
X0068290Y0051203D01*
X0068290Y0051204D02*
X0066951Y0051204D01*
X0066951Y0051205D02*
X0068290Y0051205D01*
X0068290Y0051206D02*
X0066951Y0051206D01*
X0068290Y0051206D01*
X0068290Y0051207D02*
X0066951Y0051207D01*
X0066951Y0051208D02*
X0068290Y0051208D01*
X0068290Y0051209D02*
X0066951Y0051209D01*
X0066951Y0051210D02*
X0068290Y0051210D01*
X0068290Y0051211D02*
X0066951Y0051211D01*
X0066951Y0051212D02*
X0068290Y0051212D01*
X0068290Y0051213D02*
X0066951Y0051213D01*
X0066951Y0051214D02*
X0068290Y0051214D01*
X0068290Y0051215D02*
X0066951Y0051215D01*
X0066951Y0051216D02*
X0068290Y0051216D01*
X0068290Y0051217D02*
X0066951Y0051217D01*
X0066951Y0051218D02*
X0068290Y0051218D01*
X0068290Y0051219D02*
X0066951Y0051219D01*
X0066951Y0051220D02*
X0068290Y0051220D01*
X0068290Y0051221D02*
X0066951Y0051221D01*
X0066951Y0051222D02*
X0068290Y0051222D01*
X0068290Y0051223D02*
X0066951Y0051223D01*
X0066951Y0051224D02*
X0068290Y0051224D01*
X0068290Y0051225D02*
X0066951Y0051225D01*
X0066951Y0051226D02*
X0068290Y0051226D01*
X0068290Y0051227D02*
X0066951Y0051227D01*
X0066951Y0051228D02*
X0068290Y0051228D01*
X0068290Y0051229D02*
X0066951Y0051229D01*
X0066951Y0051230D02*
X0068290Y0051230D01*
X0068290Y0051231D02*
X0066951Y0051231D01*
X0066951Y0051232D02*
X0068290Y0051232D01*
X0068290Y0051233D02*
X0066951Y0051233D01*
X0066951Y0051234D02*
X0068290Y0051234D01*
X0068290Y0051235D02*
X0066951Y0051235D01*
X0066951Y0051236D02*
X0068290Y0051236D01*
X0068290Y0051237D02*
X0066951Y0051237D01*
X0066951Y0051238D02*
X0068290Y0051238D01*
X0068290Y0051239D02*
X0066951Y0051239D01*
X0066951Y0051240D02*
X0068290Y0051240D01*
X0068290Y0051241D02*
X0066951Y0051241D01*
X0066951Y0051242D02*
X0068290Y0051242D01*
X0068290Y0051243D02*
X0066951Y0051243D01*
X0066951Y0051244D02*
X0068290Y0051244D01*
X0068290Y0051245D02*
X0066951Y0051245D01*
X0066951Y0051246D02*
X0068290Y0051246D01*
X0068290Y0051247D02*
X0066951Y0051247D01*
X0066951Y0051248D02*
X0068290Y0051248D01*
X0068290Y0051249D02*
X0066951Y0051249D01*
X0066951Y0051250D02*
X0068290Y0051250D01*
X0068290Y0051251D02*
X0066951Y0051251D01*
X0066951Y0051252D02*
X0068290Y0051252D01*
X0068290Y0051253D02*
X0066951Y0051253D01*
X0066951Y0051254D02*
X0068290Y0051254D01*
X0068290Y0051255D02*
X0066951Y0051255D01*
X0066951Y0051256D02*
X0068290Y0051256D01*
X0068290Y0051257D02*
X0066951Y0051257D01*
X0066951Y0051258D02*
X0068290Y0051258D01*
X0068290Y0051259D02*
X0066951Y0051259D01*
X0066951Y0051260D02*
X0068290Y0051260D01*
X0068290Y0051261D02*
X0066951Y0051261D01*
X0066951Y0051262D02*
X0068290Y0051262D01*
X0068290Y0051263D02*
X0066951Y0051263D01*
X0066951Y0051264D02*
X0068290Y0051264D01*
X0068290Y0051265D02*
X0066951Y0051265D01*
X0066951Y0051266D02*
X0068290Y0051266D01*
X0068290Y0051267D02*
X0066951Y0051267D01*
X0066951Y0051268D02*
X0068290Y0051268D01*
X0068290Y0051269D02*
X0066951Y0051269D01*
X0068290Y0051269D01*
X0068290Y0051270D02*
X0066951Y0051270D01*
X0066951Y0051271D02*
X0068290Y0051271D01*
X0068290Y0051272D02*
X0066951Y0051272D01*
X0066951Y0051273D02*
X0068290Y0051273D01*
X0068290Y0051274D02*
X0066951Y0051274D01*
X0066951Y0051275D02*
X0068290Y0051275D01*
X0068290Y0051276D02*
X0066951Y0051276D01*
X0066951Y0051277D02*
X0068290Y0051277D01*
X0068290Y0051278D02*
X0066951Y0051278D01*
X0066951Y0051279D02*
X0068290Y0051279D01*
X0068290Y0051280D02*
X0066951Y0051280D01*
X0066951Y0051281D02*
X0068290Y0051281D01*
X0068290Y0051282D02*
X0066951Y0051282D01*
X0066951Y0051283D02*
X0068290Y0051283D01*
X0068290Y0051284D02*
X0066951Y0051284D01*
X0066951Y0051285D02*
X0068290Y0051285D01*
X0068290Y0051286D02*
X0066951Y0051286D01*
X0066951Y0051287D02*
X0068290Y0051287D01*
X0068290Y0051288D02*
X0066951Y0051288D01*
X0066951Y0051289D02*
X0068290Y0051289D01*
X0068290Y0051290D02*
X0066951Y0051290D01*
X0066951Y0051291D02*
X0068290Y0051291D01*
X0068290Y0051292D02*
X0066951Y0051292D01*
X0066951Y0051293D02*
X0068290Y0051293D01*
X0068290Y0051294D02*
X0066951Y0051294D01*
X0066951Y0051295D02*
X0068290Y0051295D01*
X0068290Y0051296D02*
X0066951Y0051296D01*
X0066951Y0051297D02*
X0068290Y0051297D01*
X0068290Y0051298D02*
X0066951Y0051298D01*
X0066951Y0051299D02*
X0068290Y0051299D01*
X0068290Y0051300D02*
X0066951Y0051300D01*
X0066951Y0051301D02*
X0068290Y0051301D01*
X0068290Y0051302D02*
X0066951Y0051302D01*
X0066951Y0051303D02*
X0068290Y0051303D01*
X0068290Y0051304D02*
X0066951Y0051304D01*
X0066951Y0051305D02*
X0068290Y0051305D01*
X0068290Y0051306D02*
X0066951Y0051306D01*
X0066951Y0051307D02*
X0068290Y0051307D01*
X0068290Y0051308D02*
X0066951Y0051308D01*
X0066951Y0051309D02*
X0068290Y0051309D01*
X0068290Y0051310D02*
X0066951Y0051310D01*
X0066951Y0051311D02*
X0068290Y0051311D01*
X0068290Y0051312D02*
X0066951Y0051312D01*
X0066951Y0051313D02*
X0068290Y0051313D01*
X0068290Y0051314D02*
X0066951Y0051314D01*
X0066951Y0051315D02*
X0068290Y0051315D01*
X0068290Y0051316D02*
X0066951Y0051316D01*
X0066951Y0051317D02*
X0068290Y0051317D01*
X0068290Y0051318D02*
X0066951Y0051318D01*
X0066951Y0051319D02*
X0068290Y0051319D01*
X0068290Y0051320D02*
X0066951Y0051320D01*
X0066951Y0051321D02*
X0068290Y0051321D01*
X0068290Y0051322D02*
X0066951Y0051322D01*
X0066951Y0051323D02*
X0068290Y0051323D01*
X0068290Y0051324D02*
X0066951Y0051324D01*
X0066951Y0051325D02*
X0068290Y0051325D01*
X0068290Y0051326D02*
X0066951Y0051326D01*
X0066951Y0051327D02*
X0068290Y0051327D01*
X0068290Y0051328D02*
X0066951Y0051328D01*
X0066951Y0051329D02*
X0068290Y0051329D01*
X0068290Y0051330D02*
X0066951Y0051330D01*
X0066951Y0051331D02*
X0068290Y0051331D01*
X0066951Y0051331D01*
X0066951Y0051332D02*
X0068290Y0051332D01*
X0068290Y0051333D02*
X0066951Y0051333D01*
X0066951Y0051334D02*
X0068290Y0051334D01*
X0068290Y0051335D02*
X0066951Y0051335D01*
X0066951Y0051336D02*
X0068290Y0051336D01*
X0068290Y0051337D02*
X0066951Y0051337D01*
X0066951Y0051338D02*
X0068290Y0051338D01*
X0068290Y0051339D02*
X0066951Y0051339D01*
X0066951Y0051340D02*
X0068290Y0051340D01*
X0068290Y0051341D02*
X0066951Y0051341D01*
X0066951Y0051342D02*
X0068290Y0051342D01*
X0068290Y0051343D02*
X0066951Y0051343D01*
X0066951Y0051344D02*
X0068290Y0051344D01*
X0068290Y0051345D02*
X0066951Y0051345D01*
X0066951Y0051346D02*
X0068290Y0051346D01*
X0068290Y0051347D02*
X0066951Y0051347D01*
X0066951Y0051348D02*
X0068290Y0051348D01*
X0068290Y0051349D02*
X0066951Y0051349D01*
X0066951Y0051350D02*
X0068290Y0051350D01*
X0068290Y0051351D02*
X0066951Y0051351D01*
X0066951Y0051352D02*
X0068290Y0051352D01*
X0068290Y0051353D02*
X0066951Y0051353D01*
X0066951Y0051354D02*
X0068290Y0051354D01*
X0068290Y0051355D02*
X0066951Y0051355D01*
X0066951Y0051356D02*
X0068290Y0051356D01*
X0068290Y0051357D02*
X0066951Y0051357D01*
X0066951Y0051358D02*
X0068290Y0051358D01*
X0068290Y0051359D02*
X0066951Y0051359D01*
X0066951Y0051360D02*
X0068290Y0051360D01*
X0068290Y0051361D02*
X0066951Y0051361D01*
X0066951Y0051362D02*
X0068290Y0051362D01*
X0068290Y0051363D02*
X0066951Y0051363D01*
X0066951Y0051364D02*
X0068290Y0051364D01*
X0068290Y0051365D02*
X0066951Y0051365D01*
X0066951Y0051366D02*
X0068290Y0051366D01*
X0068290Y0051367D02*
X0066951Y0051367D01*
X0066951Y0051368D02*
X0068290Y0051368D01*
X0068290Y0051369D02*
X0066951Y0051369D01*
X0066951Y0051370D02*
X0068290Y0051370D01*
X0068290Y0051371D02*
X0066951Y0051371D01*
X0066951Y0051372D02*
X0068290Y0051372D01*
X0068290Y0051373D02*
X0066951Y0051373D01*
X0066951Y0051374D02*
X0068290Y0051374D01*
X0068290Y0051375D02*
X0066951Y0051375D01*
X0066951Y0051376D02*
X0068290Y0051376D01*
X0068290Y0051377D02*
X0066951Y0051377D01*
X0066951Y0051378D02*
X0068290Y0051378D01*
X0068290Y0051379D02*
X0066951Y0051379D01*
X0066951Y0051380D02*
X0068290Y0051380D01*
X0068290Y0051381D02*
X0066951Y0051381D01*
X0066951Y0051382D02*
X0068290Y0051382D01*
X0068290Y0051383D02*
X0066951Y0051383D01*
X0066951Y0051384D02*
X0068290Y0051384D01*
X0068290Y0051385D02*
X0066951Y0051385D01*
X0066951Y0051386D02*
X0068290Y0051386D01*
X0068290Y0051387D02*
X0066951Y0051387D01*
X0066951Y0051388D02*
X0068290Y0051388D01*
X0068290Y0051389D02*
X0066951Y0051389D01*
X0066951Y0051390D02*
X0068290Y0051390D01*
X0068290Y0051391D02*
X0066951Y0051391D01*
X0066951Y0051392D02*
X0068290Y0051392D01*
X0068290Y0051393D02*
X0066951Y0051393D01*
X0066951Y0051394D02*
X0068290Y0051394D01*
X0066951Y0051394D01*
X0066951Y0051395D02*
X0068290Y0051395D01*
X0068290Y0051396D02*
X0066951Y0051396D01*
X0066951Y0051397D02*
X0068290Y0051397D01*
X0068290Y0051398D02*
X0066951Y0051398D01*
X0066951Y0051399D02*
X0068290Y0051399D01*
X0068290Y0051400D02*
X0066951Y0051400D01*
X0066951Y0051401D02*
X0068290Y0051401D01*
X0068290Y0051402D02*
X0066951Y0051402D01*
X0066951Y0051403D02*
X0068290Y0051403D01*
X0068290Y0051404D02*
X0066951Y0051404D01*
X0066951Y0051405D02*
X0068290Y0051405D01*
X0068290Y0051117D02*
X0066951Y0051117D01*
X0066951Y0051116D02*
X0068290Y0051116D01*
X0068290Y0051115D02*
X0066951Y0051115D01*
X0066951Y0051114D02*
X0068290Y0051114D01*
X0068290Y0051113D02*
X0066951Y0051113D01*
X0066951Y0051112D02*
X0068290Y0051112D01*
X0068290Y0051111D02*
X0066951Y0051111D01*
X0066951Y0051110D02*
X0068290Y0051110D01*
X0068290Y0051109D02*
X0066951Y0051109D01*
X0066951Y0051108D02*
X0068290Y0051108D01*
X0068290Y0051107D02*
X0066951Y0051107D01*
X0066951Y0051106D02*
X0068290Y0051106D01*
X0068290Y0051105D02*
X0066951Y0051105D01*
X0066951Y0051104D02*
X0068290Y0051104D01*
X0068290Y0051103D02*
X0066951Y0051103D01*
X0066951Y0051102D02*
X0068290Y0051102D01*
X0068290Y0051101D02*
X0066951Y0051101D01*
X0066951Y0051100D02*
X0068290Y0051100D01*
X0068290Y0051099D02*
X0066951Y0051099D01*
X0066951Y0051098D02*
X0068290Y0051098D01*
X0068290Y0051097D02*
X0066951Y0051097D01*
X0066951Y0051096D02*
X0068290Y0051096D01*
X0068290Y0051095D02*
X0066951Y0051095D01*
X0066951Y0051094D02*
X0068290Y0051094D01*
X0068290Y0051093D02*
X0066951Y0051093D01*
X0066951Y0051092D02*
X0068290Y0051092D01*
X0068290Y0051091D02*
X0066951Y0051091D01*
X0066951Y0051090D02*
X0068290Y0051090D01*
X0068290Y0051089D02*
X0066951Y0051089D01*
X0066951Y0051088D02*
X0068290Y0051088D01*
X0068290Y0051087D02*
X0066951Y0051087D01*
X0066951Y0051086D02*
X0068290Y0051086D01*
X0068290Y0051085D02*
X0066951Y0051085D01*
X0066951Y0051084D02*
X0068290Y0051084D01*
X0068290Y0051083D02*
X0066951Y0051083D01*
X0066951Y0051082D02*
X0068290Y0051082D01*
X0068290Y0051081D02*
X0066951Y0051081D01*
X0068290Y0051081D01*
X0068290Y0051080D02*
X0066951Y0051080D01*
X0066951Y0051079D02*
X0068290Y0051079D01*
X0068290Y0051078D02*
X0066951Y0051078D01*
X0066951Y0051077D02*
X0068290Y0051077D01*
X0068290Y0051076D02*
X0066951Y0051076D01*
X0066951Y0051075D02*
X0068290Y0051075D01*
X0068290Y0051074D02*
X0066951Y0051074D01*
X0066951Y0051073D02*
X0068290Y0051073D01*
X0068290Y0051072D02*
X0066951Y0051072D01*
X0066951Y0051071D02*
X0068290Y0051071D01*
X0068290Y0051070D02*
X0066951Y0051070D01*
X0066951Y0051069D02*
X0068290Y0051069D01*
X0068290Y0051068D02*
X0066951Y0051068D01*
X0066951Y0051067D02*
X0068290Y0051067D01*
X0068290Y0051066D02*
X0066951Y0051066D01*
X0066951Y0051065D02*
X0068290Y0051065D01*
X0068290Y0051064D02*
X0066951Y0051064D01*
X0066951Y0051063D02*
X0068290Y0051063D01*
X0068290Y0051062D02*
X0066951Y0051062D01*
X0066951Y0051061D02*
X0068290Y0051061D01*
X0068290Y0051060D02*
X0066951Y0051060D01*
X0066951Y0051059D02*
X0068290Y0051059D01*
X0068290Y0051058D02*
X0066951Y0051058D01*
X0066951Y0051057D02*
X0068290Y0051057D01*
X0068290Y0051056D02*
X0066951Y0051056D01*
X0066951Y0051055D02*
X0068290Y0051055D01*
X0068290Y0051054D02*
X0066951Y0051054D01*
X0066951Y0051053D02*
X0068290Y0051053D01*
X0068290Y0051052D02*
X0066951Y0051052D01*
X0066951Y0051051D02*
X0068290Y0051051D01*
X0068290Y0051050D02*
X0066951Y0051050D01*
X0066951Y0051049D02*
X0068290Y0051049D01*
X0068290Y0051048D02*
X0066951Y0051048D01*
X0066951Y0051047D02*
X0068290Y0051047D01*
X0068290Y0051046D02*
X0066951Y0051046D01*
X0066951Y0051045D02*
X0068290Y0051045D01*
X0068290Y0051044D02*
X0066951Y0051044D01*
X0066951Y0051043D02*
X0068290Y0051043D01*
X0068290Y0051042D02*
X0066951Y0051042D01*
X0066951Y0051041D02*
X0068290Y0051041D01*
X0068290Y0051040D02*
X0066951Y0051040D01*
X0066951Y0051039D02*
X0068290Y0051039D01*
X0068290Y0051038D02*
X0066951Y0051038D01*
X0066951Y0051037D02*
X0068290Y0051037D01*
X0068290Y0051036D02*
X0066951Y0051036D01*
X0066951Y0051035D02*
X0068290Y0051035D01*
X0068290Y0051034D02*
X0066951Y0051034D01*
X0066951Y0051033D02*
X0068290Y0051033D01*
X0068290Y0051032D02*
X0066951Y0051032D01*
X0066951Y0051031D02*
X0068290Y0051031D01*
X0068290Y0051030D02*
X0066951Y0051030D01*
X0066951Y0051029D02*
X0068290Y0051029D01*
X0068290Y0051028D02*
X0066951Y0051028D01*
X0066951Y0051027D02*
X0068290Y0051027D01*
X0068290Y0051026D02*
X0066951Y0051026D01*
X0066951Y0051025D02*
X0068290Y0051025D01*
X0068290Y0051024D02*
X0066951Y0051024D01*
X0066951Y0051023D02*
X0068290Y0051023D01*
X0068290Y0051022D02*
X0066951Y0051022D01*
X0066951Y0051021D02*
X0068290Y0051021D01*
X0068290Y0051020D02*
X0066951Y0051020D01*
X0066951Y0051019D02*
X0068290Y0051019D01*
X0066951Y0051019D01*
X0066951Y0051018D02*
X0068290Y0051018D01*
X0068290Y0051017D02*
X0066951Y0051017D01*
X0066951Y0051016D02*
X0068290Y0051016D01*
X0068290Y0051015D02*
X0066951Y0051015D01*
X0066951Y0051014D02*
X0068290Y0051014D01*
X0068290Y0051013D02*
X0066951Y0051013D01*
X0066951Y0051012D02*
X0068290Y0051012D01*
X0068290Y0051011D02*
X0066951Y0051011D01*
X0066951Y0051010D02*
X0068290Y0051010D01*
X0068290Y0051009D02*
X0066951Y0051009D01*
X0066951Y0051008D02*
X0068290Y0051008D01*
X0068290Y0051007D02*
X0066951Y0051007D01*
X0066951Y0051006D02*
X0068290Y0051006D01*
X0068290Y0051005D02*
X0066951Y0051005D01*
X0066951Y0051004D02*
X0068290Y0051004D01*
X0068290Y0051003D02*
X0066951Y0051003D01*
X0066951Y0051002D02*
X0068290Y0051002D01*
X0068290Y0051001D02*
X0066951Y0051001D01*
X0066951Y0051000D02*
X0068290Y0051000D01*
X0068290Y0050999D02*
X0066951Y0050999D01*
X0066951Y0050998D02*
X0068290Y0050998D01*
X0068290Y0050997D02*
X0066951Y0050997D01*
X0066951Y0050996D02*
X0068290Y0050996D01*
X0068290Y0050995D02*
X0066951Y0050995D01*
X0066951Y0050994D02*
X0068290Y0050994D01*
X0068290Y0050993D02*
X0066951Y0050993D01*
X0066951Y0050992D02*
X0068290Y0050992D01*
X0068290Y0050991D02*
X0066951Y0050991D01*
X0066951Y0050990D02*
X0068290Y0050990D01*
X0068290Y0050989D02*
X0066951Y0050989D01*
X0066951Y0050988D02*
X0068290Y0050988D01*
X0068290Y0050987D02*
X0066951Y0050987D01*
X0066951Y0050986D02*
X0068290Y0050986D01*
X0068290Y0050985D02*
X0066951Y0050985D01*
X0066951Y0050984D02*
X0068290Y0050984D01*
X0068290Y0050983D02*
X0066951Y0050983D01*
X0066951Y0050982D02*
X0068290Y0050982D01*
X0068290Y0050981D02*
X0066951Y0050981D01*
X0066951Y0050980D02*
X0068290Y0050980D01*
X0068290Y0050979D02*
X0066951Y0050979D01*
X0066951Y0050978D02*
X0068290Y0050978D01*
X0068290Y0050977D02*
X0066951Y0050977D01*
X0066951Y0050976D02*
X0068290Y0050976D01*
X0068290Y0050975D02*
X0066951Y0050975D01*
X0066951Y0050974D02*
X0068290Y0050974D01*
X0068290Y0050973D02*
X0066951Y0050973D01*
X0066951Y0050972D02*
X0068290Y0050972D01*
X0068290Y0050971D02*
X0066951Y0050971D01*
X0066951Y0050970D02*
X0068290Y0050970D01*
X0068290Y0050969D02*
X0066951Y0050969D01*
X0066951Y0050968D02*
X0068290Y0050968D01*
X0068290Y0050967D02*
X0066951Y0050967D01*
X0066951Y0050966D02*
X0068290Y0050966D01*
X0068290Y0050965D02*
X0066951Y0050965D01*
X0066951Y0050964D02*
X0068290Y0050964D01*
X0068290Y0050963D02*
X0066951Y0050963D01*
X0066951Y0050962D02*
X0068290Y0050962D01*
X0068290Y0050961D02*
X0066951Y0050961D01*
X0066951Y0050960D02*
X0068290Y0050960D01*
X0068290Y0050959D02*
X0066951Y0050959D01*
X0066951Y0050958D02*
X0068290Y0050958D01*
X0068290Y0050957D02*
X0066951Y0050957D01*
X0066951Y0050956D02*
X0068290Y0050956D01*
X0066951Y0050956D01*
X0066951Y0050955D02*
X0068290Y0050955D01*
X0068290Y0050954D02*
X0066951Y0050954D01*
X0066951Y0050953D02*
X0068290Y0050953D01*
X0068290Y0050952D02*
X0066951Y0050952D01*
X0066951Y0050951D02*
X0068290Y0050951D01*
X0068290Y0050950D02*
X0066951Y0050950D01*
X0066951Y0050949D02*
X0068290Y0050949D01*
X0068290Y0050948D02*
X0066951Y0050948D01*
X0066951Y0050947D02*
X0068290Y0050947D01*
X0068290Y0050946D02*
X0066951Y0050946D01*
X0066951Y0050945D02*
X0068290Y0050945D01*
X0068290Y0050944D02*
X0066951Y0050944D01*
X0066951Y0050943D02*
X0068290Y0050943D01*
X0068290Y0050942D02*
X0066951Y0050942D01*
X0066951Y0050941D02*
X0068290Y0050941D01*
X0068290Y0050940D02*
X0066951Y0050940D01*
X0066951Y0050939D02*
X0068290Y0050939D01*
X0068290Y0050938D02*
X0066951Y0050938D01*
X0066951Y0050937D02*
X0068290Y0050937D01*
X0068290Y0050936D02*
X0066951Y0050936D01*
X0066951Y0050935D02*
X0068290Y0050935D01*
X0068290Y0050934D02*
X0066951Y0050934D01*
X0066951Y0050933D02*
X0068290Y0050933D01*
X0068290Y0050932D02*
X0066951Y0050932D01*
X0066951Y0050931D02*
X0068290Y0050931D01*
X0068290Y0050930D02*
X0066951Y0050930D01*
X0066951Y0050929D02*
X0068290Y0050929D01*
X0068290Y0050928D02*
X0066951Y0050928D01*
X0066951Y0050927D02*
X0068290Y0050927D01*
X0068290Y0050926D02*
X0066951Y0050926D01*
X0066951Y0050925D02*
X0068290Y0050925D01*
X0068290Y0050924D02*
X0066951Y0050924D01*
X0066951Y0050923D02*
X0068290Y0050923D01*
X0068290Y0050922D02*
X0066951Y0050922D01*
X0066951Y0050921D02*
X0068290Y0050921D01*
X0068290Y0050920D02*
X0066951Y0050920D01*
X0066951Y0050919D02*
X0068290Y0050919D01*
X0068290Y0050918D02*
X0066951Y0050918D01*
X0066951Y0050917D02*
X0068290Y0050917D01*
X0068290Y0050916D02*
X0066951Y0050916D01*
X0066951Y0050915D02*
X0068290Y0050915D01*
X0068290Y0050914D02*
X0066951Y0050914D01*
X0066951Y0050913D02*
X0068290Y0050913D01*
X0068290Y0050912D02*
X0066951Y0050912D01*
X0066951Y0050911D02*
X0068290Y0050911D01*
X0068290Y0050910D02*
X0066951Y0050910D01*
X0066951Y0050909D02*
X0068290Y0050909D01*
X0068290Y0050908D02*
X0066951Y0050908D01*
X0066951Y0050907D02*
X0068290Y0050907D01*
X0068290Y0050906D02*
X0066951Y0050906D01*
X0066951Y0050905D02*
X0068290Y0050905D01*
X0068290Y0050904D02*
X0066951Y0050904D01*
X0066951Y0050903D02*
X0068290Y0050903D01*
X0068290Y0050902D02*
X0066951Y0050902D01*
X0066951Y0050901D02*
X0068290Y0050901D01*
X0068290Y0050900D02*
X0066951Y0050900D01*
X0066951Y0050899D02*
X0068290Y0050899D01*
X0068290Y0050898D02*
X0066951Y0050898D01*
X0066951Y0050897D02*
X0068290Y0050897D01*
X0068290Y0050896D02*
X0066951Y0050896D01*
X0066951Y0050895D02*
X0068290Y0050895D01*
X0068290Y0050894D02*
X0066951Y0050894D01*
X0068290Y0050894D01*
X0068290Y0050893D02*
X0066951Y0050893D01*
X0066951Y0050892D02*
X0068290Y0050892D01*
X0068290Y0050891D02*
X0066951Y0050891D01*
X0066951Y0050890D02*
X0068290Y0050890D01*
X0068290Y0050889D02*
X0066951Y0050889D01*
X0066951Y0050888D02*
X0068290Y0050888D01*
X0068290Y0050887D02*
X0066951Y0050887D01*
X0066951Y0050886D02*
X0068290Y0050886D01*
X0068290Y0050885D02*
X0066951Y0050885D01*
X0066951Y0050884D02*
X0068290Y0050884D01*
X0068290Y0050883D02*
X0066951Y0050883D01*
X0066951Y0050882D02*
X0068290Y0050882D01*
X0068290Y0050881D02*
X0066951Y0050881D01*
X0066951Y0050880D02*
X0068290Y0050880D01*
X0068290Y0050879D02*
X0066951Y0050879D01*
X0066951Y0050878D02*
X0068290Y0050878D01*
X0068290Y0050877D02*
X0066951Y0050877D01*
X0066951Y0050876D02*
X0068290Y0050876D01*
X0068290Y0050875D02*
X0066951Y0050875D01*
X0066951Y0050874D02*
X0068290Y0050874D01*
X0068290Y0050873D02*
X0066951Y0050873D01*
X0066951Y0050872D02*
X0068290Y0050872D01*
X0068290Y0050871D02*
X0066951Y0050871D01*
X0066951Y0050870D02*
X0068290Y0050870D01*
X0068290Y0050869D02*
X0066951Y0050869D01*
X0066951Y0050868D02*
X0068290Y0050868D01*
X0068290Y0050867D02*
X0066951Y0050867D01*
X0066951Y0050866D02*
X0068290Y0050866D01*
X0068290Y0050865D02*
X0066951Y0050865D01*
X0066951Y0050864D02*
X0068290Y0050864D01*
X0068290Y0050863D02*
X0066951Y0050863D01*
X0066951Y0050862D02*
X0068290Y0050862D01*
X0068290Y0050861D02*
X0066951Y0050861D01*
X0066951Y0050860D02*
X0068290Y0050860D01*
X0068290Y0050859D02*
X0066951Y0050859D01*
X0066951Y0050858D02*
X0068290Y0050858D01*
X0068290Y0050857D02*
X0066951Y0050857D01*
X0066951Y0050856D02*
X0068290Y0050856D01*
X0068290Y0050855D02*
X0066951Y0050855D01*
X0066951Y0050854D02*
X0068290Y0050854D01*
X0068290Y0050853D02*
X0066951Y0050853D01*
X0066951Y0050852D02*
X0068290Y0050852D01*
X0068290Y0050851D02*
X0066951Y0050851D01*
X0066951Y0050850D02*
X0068290Y0050850D01*
X0068290Y0050849D02*
X0066951Y0050849D01*
X0066951Y0050848D02*
X0068290Y0050848D01*
X0068290Y0050847D02*
X0066951Y0050847D01*
X0066951Y0050846D02*
X0068290Y0050846D01*
X0068290Y0050845D02*
X0066951Y0050845D01*
X0066951Y0050844D02*
X0068290Y0050844D01*
X0068290Y0050843D02*
X0066951Y0050843D01*
X0066951Y0050842D02*
X0068290Y0050842D01*
X0068290Y0050841D02*
X0066951Y0050841D01*
X0066951Y0050840D02*
X0068290Y0050840D01*
X0068290Y0050839D02*
X0066951Y0050839D01*
X0066951Y0050838D02*
X0068290Y0050838D01*
X0068290Y0050837D02*
X0066951Y0050837D01*
X0066951Y0050836D02*
X0068290Y0050836D01*
X0068290Y0050835D02*
X0066951Y0050835D01*
X0066951Y0050834D02*
X0068290Y0050834D01*
X0068290Y0050833D02*
X0066951Y0050833D01*
X0066951Y0050832D02*
X0068290Y0050832D01*
X0068290Y0050831D02*
X0066951Y0050831D01*
X0068290Y0050831D01*
X0068290Y0050830D02*
X0066951Y0050830D01*
X0066951Y0050829D02*
X0068290Y0050829D01*
X0068290Y0050828D02*
X0066951Y0050828D01*
X0066951Y0050827D02*
X0068290Y0050827D01*
X0068290Y0050826D02*
X0066951Y0050826D01*
X0066951Y0050825D02*
X0068290Y0050825D01*
X0068290Y0050824D02*
X0066951Y0050824D01*
X0066951Y0050823D02*
X0068290Y0050823D01*
X0068290Y0050822D02*
X0066951Y0050822D01*
X0066951Y0050821D02*
X0068290Y0050821D01*
X0068290Y0050820D02*
X0066951Y0050820D01*
X0066951Y0050819D02*
X0068290Y0050819D01*
X0068290Y0050818D02*
X0066951Y0050818D01*
X0066951Y0050817D02*
X0068290Y0050817D01*
X0068290Y0050816D02*
X0066951Y0050816D01*
X0066951Y0050815D02*
X0068290Y0050815D01*
X0068290Y0050814D02*
X0066951Y0050814D01*
X0066951Y0050813D02*
X0068290Y0050813D01*
X0068290Y0050812D02*
X0066951Y0050812D01*
X0066951Y0050811D02*
X0068290Y0050811D01*
X0068290Y0050810D02*
X0066951Y0050810D01*
X0066951Y0050809D02*
X0068290Y0050809D01*
X0068290Y0050808D02*
X0066951Y0050808D01*
X0066951Y0050807D02*
X0068290Y0050807D01*
X0068290Y0050806D02*
X0066951Y0050806D01*
X0066951Y0050805D02*
X0068290Y0050805D01*
X0068290Y0050804D02*
X0066951Y0050804D01*
X0066951Y0050803D02*
X0068290Y0050803D01*
X0068290Y0050802D02*
X0066951Y0050802D01*
X0066951Y0050801D02*
X0068290Y0050801D01*
X0068290Y0050800D02*
X0066951Y0050800D01*
X0066951Y0050799D02*
X0068290Y0050799D01*
X0068290Y0050798D02*
X0066951Y0050798D01*
X0066951Y0050797D02*
X0068290Y0050797D01*
X0068290Y0050796D02*
X0066951Y0050796D01*
X0066951Y0050795D02*
X0068290Y0050795D01*
X0068290Y0050794D02*
X0066951Y0050794D01*
X0066951Y0050793D02*
X0068290Y0050793D01*
X0068290Y0050792D02*
X0066951Y0050792D01*
X0066951Y0050791D02*
X0068290Y0050791D01*
X0068290Y0050790D02*
X0066951Y0050790D01*
X0066951Y0050789D02*
X0068290Y0050789D01*
X0068290Y0050788D02*
X0066951Y0050788D01*
X0066951Y0050787D02*
X0068290Y0050787D01*
X0068290Y0050786D02*
X0066951Y0050786D01*
X0066951Y0050785D02*
X0068290Y0050785D01*
X0068290Y0050784D02*
X0066951Y0050784D01*
X0066951Y0050783D02*
X0068290Y0050783D01*
X0068290Y0050782D02*
X0066951Y0050782D01*
X0066951Y0050781D02*
X0068290Y0050781D01*
X0068290Y0050780D02*
X0066951Y0050780D01*
X0066951Y0050779D02*
X0068290Y0050779D01*
X0068290Y0050778D02*
X0066951Y0050778D01*
X0066951Y0050777D02*
X0068290Y0050777D01*
X0068290Y0050776D02*
X0066951Y0050776D01*
X0066951Y0050775D02*
X0068290Y0050775D01*
X0068290Y0050774D02*
X0066951Y0050774D01*
X0066951Y0050773D02*
X0068290Y0050773D01*
X0068290Y0050772D02*
X0066951Y0050772D01*
X0066951Y0050771D02*
X0068290Y0050771D01*
X0068290Y0050770D02*
X0066951Y0050770D01*
X0066951Y0050769D02*
X0068290Y0050769D01*
X0066951Y0050769D01*
X0066951Y0050768D02*
X0068290Y0050768D01*
X0068290Y0050767D02*
X0066951Y0050767D01*
X0066951Y0050766D02*
X0068290Y0050766D01*
X0068290Y0050765D02*
X0066951Y0050765D01*
X0066951Y0050764D02*
X0068290Y0050764D01*
X0068290Y0050763D02*
X0066951Y0050763D01*
X0066951Y0050762D02*
X0068290Y0050762D01*
X0068290Y0050761D02*
X0066951Y0050761D01*
X0066951Y0050760D02*
X0068290Y0050760D01*
X0068290Y0050759D02*
X0066951Y0050759D01*
X0066951Y0050758D02*
X0068290Y0050758D01*
X0068290Y0050757D02*
X0066951Y0050757D01*
X0066951Y0050756D02*
X0068290Y0050756D01*
X0068290Y0050755D02*
X0066951Y0050755D01*
X0066951Y0050754D02*
X0068290Y0050754D01*
X0068290Y0050753D02*
X0066951Y0050753D01*
X0066951Y0050752D02*
X0068290Y0050752D01*
X0068290Y0050751D02*
X0066951Y0050751D01*
X0066951Y0050750D02*
X0068290Y0050750D01*
X0068290Y0050749D02*
X0066951Y0050749D01*
X0066951Y0050748D02*
X0068290Y0050748D01*
X0068290Y0050747D02*
X0066951Y0050747D01*
X0066951Y0050746D02*
X0068290Y0050746D01*
X0068290Y0050745D02*
X0066951Y0050745D01*
X0066951Y0050744D02*
X0068290Y0050744D01*
X0068290Y0050743D02*
X0066951Y0050743D01*
X0066951Y0050742D02*
X0068290Y0050742D01*
X0068290Y0050741D02*
X0066951Y0050741D01*
X0066951Y0050740D02*
X0068290Y0050740D01*
X0068290Y0050739D02*
X0066951Y0050739D01*
X0066951Y0050738D02*
X0068290Y0050738D01*
X0068290Y0050737D02*
X0066951Y0050737D01*
X0066951Y0050736D02*
X0068290Y0050736D01*
X0068290Y0050735D02*
X0066951Y0050735D01*
X0066951Y0050734D02*
X0068290Y0050734D01*
X0068290Y0050733D02*
X0066951Y0050733D01*
X0066951Y0050732D02*
X0068290Y0050732D01*
X0068290Y0050731D02*
X0066951Y0050731D01*
X0066951Y0050730D02*
X0068290Y0050730D01*
X0068290Y0050729D02*
X0066951Y0050729D01*
X0066951Y0050728D02*
X0068290Y0050728D01*
X0068290Y0050727D02*
X0066951Y0050727D01*
X0066951Y0050726D02*
X0068290Y0050726D01*
X0068290Y0050725D02*
X0066951Y0050725D01*
X0066951Y0050724D02*
X0068290Y0050724D01*
X0068290Y0050723D02*
X0066951Y0050723D01*
X0066951Y0050722D02*
X0068290Y0050722D01*
X0068290Y0050721D02*
X0066951Y0050721D01*
X0066951Y0050720D02*
X0068290Y0050720D01*
X0068290Y0050719D02*
X0066951Y0050719D01*
X0066951Y0050718D02*
X0068290Y0050718D01*
X0068290Y0050717D02*
X0066951Y0050717D01*
X0066951Y0050716D02*
X0068290Y0050716D01*
X0068290Y0050715D02*
X0066951Y0050715D01*
X0066951Y0050714D02*
X0068290Y0050714D01*
X0068290Y0050713D02*
X0066951Y0050713D01*
X0066951Y0050712D02*
X0068290Y0050712D01*
X0068290Y0050711D02*
X0066951Y0050711D01*
X0066951Y0050710D02*
X0068290Y0050710D01*
X0068290Y0050709D02*
X0066951Y0050709D01*
X0066951Y0050708D02*
X0068290Y0050708D01*
X0068290Y0050707D02*
X0066951Y0050707D01*
X0066951Y0050706D02*
X0068290Y0050706D01*
X0066951Y0050706D01*
X0066951Y0050705D02*
X0068290Y0050705D01*
X0068290Y0050704D02*
X0066951Y0050704D01*
X0066951Y0050703D02*
X0068290Y0050703D01*
X0068290Y0050702D02*
X0066951Y0050702D01*
X0066951Y0050701D02*
X0068290Y0050701D01*
X0068290Y0050700D02*
X0066951Y0050700D01*
X0066951Y0050699D02*
X0068290Y0050699D01*
X0068290Y0050698D02*
X0066951Y0050698D01*
X0066951Y0050697D02*
X0068290Y0050697D01*
X0068290Y0050696D02*
X0066951Y0050696D01*
X0066951Y0050695D02*
X0068290Y0050695D01*
X0068290Y0050694D02*
X0066951Y0050694D01*
X0066951Y0050693D02*
X0068290Y0050693D01*
X0068290Y0050692D02*
X0066951Y0050692D01*
X0066951Y0050691D02*
X0068290Y0050691D01*
X0068290Y0050690D02*
X0066951Y0050690D01*
X0066951Y0050689D02*
X0068290Y0050689D01*
X0068290Y0050688D02*
X0066951Y0050688D01*
X0066951Y0050687D02*
X0068290Y0050687D01*
X0068290Y0050686D02*
X0066951Y0050686D01*
X0066951Y0050685D02*
X0068290Y0050685D01*
X0068290Y0050684D02*
X0066951Y0050684D01*
X0066951Y0050683D02*
X0068290Y0050683D01*
X0068290Y0050682D02*
X0066951Y0050682D01*
X0066951Y0050681D02*
X0068290Y0050681D01*
X0068290Y0050680D02*
X0066951Y0050680D01*
X0066951Y0050679D02*
X0068290Y0050679D01*
X0068290Y0050678D02*
X0066951Y0050678D01*
X0066951Y0050677D02*
X0068290Y0050677D01*
X0068290Y0050676D02*
X0066951Y0050676D01*
X0066951Y0050675D02*
X0068290Y0050675D01*
X0068290Y0050674D02*
X0066951Y0050674D01*
X0066951Y0050673D02*
X0068290Y0050673D01*
X0068290Y0050672D02*
X0066951Y0050672D01*
X0066951Y0050671D02*
X0068290Y0050671D01*
X0068290Y0050670D02*
X0066951Y0050670D01*
X0066951Y0050669D02*
X0068290Y0050669D01*
X0068290Y0050668D02*
X0066951Y0050668D01*
X0066951Y0050667D02*
X0068290Y0050667D01*
X0068290Y0050666D02*
X0066951Y0050666D01*
X0066951Y0050665D02*
X0068290Y0050665D01*
X0068290Y0050664D02*
X0066951Y0050664D01*
X0066951Y0050663D02*
X0068290Y0050663D01*
X0068290Y0050662D02*
X0066951Y0050662D01*
X0066951Y0050661D02*
X0068290Y0050661D01*
X0068290Y0050660D02*
X0066951Y0050660D01*
X0066951Y0050659D02*
X0068290Y0050659D01*
X0068290Y0050658D02*
X0066951Y0050658D01*
X0066951Y0050657D02*
X0068290Y0050657D01*
X0068290Y0050656D02*
X0066951Y0050656D01*
X0066951Y0050655D02*
X0068290Y0050655D01*
X0068290Y0050654D02*
X0066951Y0050654D01*
X0066951Y0050653D02*
X0068290Y0050653D01*
X0068290Y0050652D02*
X0066951Y0050652D01*
X0066951Y0050651D02*
X0068290Y0050651D01*
X0068290Y0050650D02*
X0066951Y0050650D01*
X0066951Y0050649D02*
X0068290Y0050649D01*
X0068290Y0050648D02*
X0066951Y0050648D01*
X0066951Y0050647D02*
X0068290Y0050647D01*
X0068290Y0050646D02*
X0066951Y0050646D01*
X0066951Y0050645D02*
X0068290Y0050645D01*
X0068290Y0050644D02*
X0066951Y0050644D01*
X0068290Y0050644D01*
X0068290Y0050643D02*
X0066951Y0050643D01*
X0066951Y0050642D02*
X0068290Y0050642D01*
X0068290Y0050641D02*
X0066951Y0050641D01*
X0066951Y0050640D02*
X0068290Y0050640D01*
X0068290Y0050639D02*
X0066951Y0050639D01*
X0066951Y0050638D02*
X0068290Y0050638D01*
X0068290Y0050637D02*
X0066951Y0050637D01*
X0066951Y0050636D02*
X0068290Y0050636D01*
X0068290Y0050635D02*
X0066951Y0050635D01*
X0066951Y0050634D02*
X0068290Y0050634D01*
X0068290Y0050633D02*
X0066951Y0050633D01*
X0066951Y0050632D02*
X0068290Y0050632D01*
X0068290Y0050631D02*
X0066951Y0050631D01*
X0066951Y0050630D02*
X0068290Y0050630D01*
X0068290Y0050629D02*
X0066951Y0050629D01*
X0066951Y0050628D02*
X0068290Y0050628D01*
X0068290Y0050627D02*
X0066951Y0050627D01*
X0066951Y0050626D02*
X0068290Y0050626D01*
X0068290Y0050625D02*
X0066951Y0050625D01*
X0066951Y0050624D02*
X0068290Y0050624D01*
X0068290Y0050623D02*
X0066951Y0050623D01*
X0066951Y0050622D02*
X0068290Y0050622D01*
X0068290Y0050621D02*
X0066951Y0050621D01*
X0066951Y0050620D02*
X0068290Y0050620D01*
X0068290Y0050619D02*
X0066951Y0050619D01*
X0066951Y0050618D02*
X0068290Y0050618D01*
X0068290Y0050617D02*
X0066951Y0050617D01*
X0066951Y0050616D02*
X0068290Y0050616D01*
X0068290Y0050615D02*
X0066951Y0050615D01*
X0066951Y0050614D02*
X0068290Y0050614D01*
X0068290Y0050613D02*
X0066951Y0050613D01*
X0066951Y0050612D02*
X0068290Y0050612D01*
X0068290Y0050611D02*
X0066951Y0050611D01*
X0066951Y0050610D02*
X0068290Y0050610D01*
X0068290Y0050609D02*
X0066951Y0050609D01*
X0066951Y0050608D02*
X0068290Y0050608D01*
X0068290Y0050607D02*
X0066951Y0050607D01*
X0066951Y0050606D02*
X0068290Y0050606D01*
X0068290Y0050605D02*
X0066951Y0050605D01*
X0066951Y0050604D02*
X0068290Y0050604D01*
X0068290Y0050603D02*
X0066951Y0050603D01*
X0066951Y0050602D02*
X0068290Y0050602D01*
X0068290Y0050601D02*
X0066951Y0050601D01*
X0066951Y0050600D02*
X0068290Y0050600D01*
X0068290Y0050599D02*
X0066951Y0050599D01*
X0066951Y0050598D02*
X0068290Y0050598D01*
X0068290Y0050597D02*
X0066951Y0050597D01*
X0066951Y0050596D02*
X0068290Y0050596D01*
X0068290Y0050595D02*
X0066951Y0050595D01*
X0066951Y0050594D02*
X0068290Y0050594D01*
X0068290Y0050593D02*
X0066951Y0050593D01*
X0066951Y0050592D02*
X0068290Y0050592D01*
X0068290Y0050591D02*
X0066951Y0050591D01*
X0066951Y0050590D02*
X0068290Y0050590D01*
X0068290Y0050589D02*
X0066951Y0050589D01*
X0066951Y0050588D02*
X0068290Y0050588D01*
X0068290Y0050587D02*
X0066951Y0050587D01*
X0066951Y0050586D02*
X0068290Y0050586D01*
X0068290Y0050585D02*
X0066951Y0050585D01*
X0066951Y0050584D02*
X0068290Y0050584D01*
X0068290Y0050583D02*
X0066951Y0050583D01*
X0066951Y0050582D02*
X0068290Y0050582D01*
X0068290Y0050581D02*
X0066951Y0050581D01*
X0068290Y0050581D01*
X0068290Y0050580D02*
X0066951Y0050580D01*
X0066951Y0050579D02*
X0068290Y0050579D01*
X0068290Y0050578D02*
X0066951Y0050578D01*
X0066951Y0050577D02*
X0068290Y0050577D01*
X0068290Y0050576D02*
X0066951Y0050576D01*
X0066951Y0050575D02*
X0068290Y0050575D01*
X0068290Y0050574D02*
X0066951Y0050574D01*
X0066951Y0050573D02*
X0068290Y0050573D01*
X0068290Y0050572D02*
X0066951Y0050572D01*
X0066951Y0050571D02*
X0068290Y0050571D01*
X0068290Y0050570D02*
X0066951Y0050570D01*
X0066951Y0050569D02*
X0068290Y0050569D01*
X0068290Y0050568D02*
X0066951Y0050568D01*
X0066951Y0050567D02*
X0068290Y0050567D01*
X0068290Y0050566D02*
X0066951Y0050566D01*
X0066951Y0050565D02*
X0068290Y0050565D01*
X0068290Y0050564D02*
X0066951Y0050564D01*
X0066951Y0050563D02*
X0068290Y0050563D01*
X0068290Y0050562D02*
X0066951Y0050562D01*
X0066951Y0050561D02*
X0068290Y0050561D01*
X0068290Y0050560D02*
X0066951Y0050560D01*
X0066951Y0050559D02*
X0068290Y0050559D01*
X0068290Y0050558D02*
X0066951Y0050558D01*
X0066951Y0050557D02*
X0068290Y0050557D01*
X0068290Y0050556D02*
X0066951Y0050556D01*
X0066951Y0050555D02*
X0068290Y0050555D01*
X0068290Y0050554D02*
X0066951Y0050554D01*
X0066951Y0050553D02*
X0068290Y0050553D01*
X0068290Y0050552D02*
X0066951Y0050552D01*
X0066951Y0050551D02*
X0068290Y0050551D01*
X0068290Y0050550D02*
X0066951Y0050550D01*
X0066951Y0050549D02*
X0068290Y0050549D01*
X0068290Y0050548D02*
X0066951Y0050548D01*
X0066951Y0050547D02*
X0068290Y0050547D01*
X0068290Y0050546D02*
X0066951Y0050546D01*
X0066951Y0050545D02*
X0068290Y0050545D01*
X0068290Y0050544D02*
X0066951Y0050544D01*
X0066951Y0050543D02*
X0068290Y0050543D01*
X0068290Y0050542D02*
X0066951Y0050542D01*
X0066951Y0050541D02*
X0068290Y0050541D01*
X0068290Y0050540D02*
X0066951Y0050540D01*
X0066951Y0050539D02*
X0068290Y0050539D01*
X0068290Y0050538D02*
X0066951Y0050538D01*
X0066951Y0050537D02*
X0068290Y0050537D01*
X0068290Y0050536D02*
X0066951Y0050536D01*
X0066951Y0050535D02*
X0068290Y0050535D01*
X0068290Y0050534D02*
X0066951Y0050534D01*
X0066951Y0050533D02*
X0068290Y0050533D01*
X0068290Y0050532D02*
X0066951Y0050532D01*
X0066951Y0050531D02*
X0068290Y0050531D01*
X0068290Y0050530D02*
X0066951Y0050530D01*
X0066951Y0050529D02*
X0068290Y0050529D01*
X0068290Y0050528D02*
X0066951Y0050528D01*
X0066951Y0050527D02*
X0068290Y0050527D01*
X0068290Y0050526D02*
X0066951Y0050526D01*
X0066951Y0050525D02*
X0068290Y0050525D01*
X0068290Y0050524D02*
X0066951Y0050524D01*
X0066951Y0050523D02*
X0068290Y0050523D01*
X0068290Y0050522D02*
X0066951Y0050522D01*
X0066951Y0050521D02*
X0068290Y0050521D01*
X0068290Y0050520D02*
X0066951Y0050520D01*
X0066951Y0050519D02*
X0068290Y0050519D01*
X0066951Y0050519D01*
X0066951Y0050518D02*
X0068290Y0050518D01*
X0068290Y0050517D02*
X0066951Y0050517D01*
X0066951Y0050516D02*
X0068290Y0050516D01*
X0068290Y0050515D02*
X0066951Y0050515D01*
X0066951Y0050514D02*
X0068290Y0050514D01*
X0068290Y0050513D02*
X0066951Y0050513D01*
X0066951Y0050512D02*
X0068290Y0050512D01*
X0068290Y0050511D02*
X0066951Y0050511D01*
X0066951Y0050510D02*
X0068290Y0050510D01*
X0068290Y0050509D02*
X0066951Y0050509D01*
X0066951Y0050508D02*
X0068290Y0050508D01*
X0068290Y0050507D02*
X0066951Y0050507D01*
X0066951Y0050506D02*
X0068290Y0050506D01*
X0068290Y0050505D02*
X0066951Y0050505D01*
X0066951Y0050504D02*
X0068290Y0050504D01*
X0068290Y0050503D02*
X0066951Y0050503D01*
X0066951Y0050502D02*
X0068290Y0050502D01*
X0068290Y0050501D02*
X0066951Y0050501D01*
X0066951Y0050500D02*
X0068290Y0050500D01*
X0068290Y0050499D02*
X0066951Y0050499D01*
X0066951Y0050498D02*
X0068290Y0050498D01*
X0068290Y0050497D02*
X0066951Y0050497D01*
X0066951Y0050496D02*
X0068290Y0050496D01*
X0068290Y0050495D02*
X0066951Y0050495D01*
X0066951Y0050494D02*
X0068290Y0050494D01*
X0068290Y0050493D02*
X0066951Y0050493D01*
X0066951Y0050492D02*
X0068290Y0050492D01*
X0068290Y0050491D02*
X0066951Y0050491D01*
X0066951Y0050490D02*
X0068290Y0050490D01*
X0068290Y0050489D02*
X0066951Y0050489D01*
X0066951Y0050488D02*
X0068290Y0050488D01*
X0068290Y0050487D02*
X0066951Y0050487D01*
X0066951Y0050486D02*
X0068290Y0050486D01*
X0068290Y0050485D02*
X0066951Y0050485D01*
X0066951Y0050484D02*
X0068290Y0050484D01*
X0068290Y0050483D02*
X0066951Y0050483D01*
X0066951Y0050482D02*
X0068290Y0050482D01*
X0068290Y0050481D02*
X0066951Y0050481D01*
X0066951Y0050480D02*
X0068290Y0050480D01*
X0068290Y0050479D02*
X0066951Y0050479D01*
X0066951Y0050478D02*
X0068290Y0050478D01*
X0068290Y0050477D02*
X0066951Y0050477D01*
X0066951Y0050476D02*
X0068290Y0050476D01*
X0068290Y0050475D02*
X0066951Y0050475D01*
X0066951Y0050474D02*
X0068290Y0050474D01*
X0068290Y0050473D02*
X0066951Y0050473D01*
X0066951Y0050472D02*
X0068290Y0050472D01*
X0068290Y0050471D02*
X0066951Y0050471D01*
X0066951Y0050470D02*
X0068290Y0050470D01*
X0068290Y0050469D02*
X0066951Y0050469D01*
X0066951Y0050468D02*
X0068290Y0050468D01*
X0068290Y0050467D02*
X0066951Y0050467D01*
X0066951Y0050466D02*
X0068290Y0050466D01*
X0068290Y0050465D02*
X0066951Y0050465D01*
X0066951Y0050464D02*
X0068290Y0050464D01*
X0068290Y0050463D02*
X0066951Y0050463D01*
X0066951Y0050462D02*
X0068290Y0050462D01*
X0068290Y0050461D02*
X0066951Y0050461D01*
X0066951Y0050460D02*
X0068290Y0050460D01*
X0068290Y0050459D02*
X0066951Y0050459D01*
X0066951Y0050458D02*
X0068290Y0050458D01*
X0068290Y0050457D02*
X0066951Y0050457D01*
X0066951Y0050456D02*
X0068290Y0050456D01*
X0066951Y0050456D01*
X0066951Y0050455D02*
X0068290Y0050455D01*
X0068290Y0050454D02*
X0066951Y0050454D01*
X0066951Y0050453D02*
X0068290Y0050453D01*
X0068290Y0050452D02*
X0066951Y0050452D01*
X0066951Y0050451D02*
X0068290Y0050451D01*
X0068290Y0050450D02*
X0066951Y0050450D01*
X0066951Y0050449D02*
X0068290Y0050449D01*
X0068290Y0050448D02*
X0066951Y0050448D01*
X0066951Y0050447D02*
X0068290Y0050447D01*
X0068290Y0050446D02*
X0066951Y0050446D01*
X0066951Y0050445D02*
X0068290Y0050445D01*
X0068290Y0050444D02*
X0066951Y0050444D01*
X0066951Y0050443D02*
X0068290Y0050443D01*
X0068290Y0050442D02*
X0066951Y0050442D01*
X0066951Y0050441D02*
X0068290Y0050441D01*
X0068290Y0050440D02*
X0066951Y0050440D01*
X0066951Y0050439D02*
X0068290Y0050439D01*
X0068290Y0050438D02*
X0066951Y0050438D01*
X0066951Y0050437D02*
X0068290Y0050437D01*
X0068290Y0050436D02*
X0066951Y0050436D01*
X0066951Y0050435D02*
X0068290Y0050435D01*
X0068290Y0050434D02*
X0066951Y0050434D01*
X0066951Y0050433D02*
X0068290Y0050433D01*
X0068290Y0050432D02*
X0066951Y0050432D01*
X0066951Y0050431D02*
X0068290Y0050431D01*
X0068290Y0050430D02*
X0066951Y0050430D01*
X0066951Y0050429D02*
X0068290Y0050429D01*
X0068290Y0050428D02*
X0066951Y0050428D01*
X0066951Y0050427D02*
X0068290Y0050427D01*
X0068290Y0050426D02*
X0066951Y0050426D01*
X0066951Y0050425D02*
X0068290Y0050425D01*
X0068290Y0050424D02*
X0066951Y0050424D01*
X0066951Y0050423D02*
X0068290Y0050423D01*
X0068290Y0050422D02*
X0066951Y0050422D01*
X0066951Y0050421D02*
X0068290Y0050421D01*
X0068290Y0050420D02*
X0066951Y0050420D01*
X0066951Y0050419D02*
X0068290Y0050419D01*
X0068290Y0050418D02*
X0066951Y0050418D01*
X0066951Y0050417D02*
X0068290Y0050417D01*
X0068290Y0050416D02*
X0066951Y0050416D01*
X0066951Y0050415D02*
X0068290Y0050415D01*
X0068290Y0050414D02*
X0066951Y0050414D01*
X0066951Y0050413D02*
X0068290Y0050413D01*
X0068290Y0050412D02*
X0066951Y0050412D01*
X0066951Y0050411D02*
X0068290Y0050411D01*
X0068290Y0050410D02*
X0066951Y0050410D01*
X0066951Y0050409D02*
X0068290Y0050409D01*
X0068290Y0050408D02*
X0066951Y0050408D01*
X0066951Y0050407D02*
X0068290Y0050407D01*
X0068290Y0050406D02*
X0066951Y0050406D01*
X0066951Y0050405D02*
X0068290Y0050405D01*
X0068290Y0050404D02*
X0066951Y0050404D01*
X0066951Y0050403D02*
X0068290Y0050403D01*
X0068290Y0050402D02*
X0066951Y0050402D01*
X0066951Y0050401D02*
X0068290Y0050401D01*
X0068290Y0050400D02*
X0066951Y0050400D01*
X0066951Y0050399D02*
X0068290Y0050399D01*
X0068290Y0050398D02*
X0066951Y0050398D01*
X0066951Y0050397D02*
X0068290Y0050397D01*
X0068290Y0050396D02*
X0066951Y0050396D01*
X0066951Y0050395D02*
X0068290Y0050395D01*
X0068290Y0050394D02*
X0066951Y0050394D01*
X0068290Y0050394D01*
X0068290Y0050393D02*
X0066951Y0050393D01*
X0066951Y0050392D02*
X0068290Y0050392D01*
X0068290Y0050391D02*
X0066951Y0050391D01*
X0066951Y0050390D02*
X0068290Y0050390D01*
X0068290Y0050389D02*
X0066951Y0050389D01*
X0066951Y0050388D02*
X0068290Y0050388D01*
X0068290Y0050387D02*
X0066951Y0050387D01*
X0066951Y0050386D02*
X0068290Y0050386D01*
X0068290Y0050385D02*
X0066951Y0050385D01*
X0066951Y0050384D02*
X0068290Y0050384D01*
X0068290Y0050383D02*
X0066951Y0050383D01*
X0066951Y0050382D02*
X0068290Y0050382D01*
X0068290Y0050381D02*
X0066951Y0050381D01*
X0066951Y0050380D02*
X0068290Y0050380D01*
X0068290Y0050379D02*
X0066951Y0050379D01*
X0066951Y0050378D02*
X0068290Y0050378D01*
X0068290Y0050377D02*
X0066951Y0050377D01*
X0066951Y0050376D02*
X0068290Y0050376D01*
X0068290Y0050375D02*
X0066951Y0050375D01*
X0066951Y0050374D02*
X0068290Y0050374D01*
X0068290Y0050373D02*
X0066951Y0050373D01*
X0066951Y0050372D02*
X0068290Y0050372D01*
X0068290Y0050371D02*
X0066951Y0050371D01*
X0066951Y0050370D02*
X0068290Y0050370D01*
X0068290Y0050369D02*
X0066951Y0050369D01*
X0066951Y0050368D02*
X0068290Y0050368D01*
X0068290Y0050367D02*
X0066951Y0050367D01*
X0066951Y0050366D02*
X0068290Y0050366D01*
X0068290Y0050365D02*
X0066951Y0050365D01*
X0066951Y0050364D02*
X0068290Y0050364D01*
X0068290Y0050363D02*
X0066951Y0050363D01*
X0066951Y0050362D02*
X0068290Y0050362D01*
X0068290Y0050361D02*
X0066951Y0050361D01*
X0066951Y0050360D02*
X0068290Y0050360D01*
X0068290Y0050359D02*
X0066951Y0050359D01*
X0066951Y0050358D02*
X0068290Y0050358D01*
X0068290Y0050357D02*
X0066951Y0050357D01*
X0066951Y0050356D02*
X0068290Y0050356D01*
X0068290Y0050355D02*
X0066951Y0050355D01*
X0066951Y0050354D02*
X0068290Y0050354D01*
X0068290Y0050353D02*
X0066951Y0050353D01*
X0066951Y0050352D02*
X0068290Y0050352D01*
X0068290Y0050351D02*
X0066951Y0050351D01*
X0066951Y0050350D02*
X0068290Y0050350D01*
X0068290Y0050349D02*
X0066951Y0050349D01*
X0066951Y0050348D02*
X0068290Y0050348D01*
X0068290Y0050347D02*
X0066951Y0050347D01*
X0066951Y0050346D02*
X0068290Y0050346D01*
X0068290Y0050345D02*
X0066951Y0050345D01*
X0066951Y0050344D02*
X0068290Y0050344D01*
X0068290Y0050343D02*
X0066951Y0050343D01*
X0066951Y0050342D02*
X0068290Y0050342D01*
X0068290Y0050341D02*
X0066951Y0050341D01*
X0066951Y0050340D02*
X0068290Y0050340D01*
X0068290Y0050339D02*
X0066951Y0050339D01*
X0066951Y0050338D02*
X0068290Y0050338D01*
X0068290Y0050337D02*
X0066951Y0050337D01*
X0066951Y0050336D02*
X0068290Y0050336D01*
X0068290Y0050335D02*
X0066951Y0050335D01*
X0066951Y0050334D02*
X0068290Y0050334D01*
X0068290Y0050333D02*
X0066951Y0050333D01*
X0066951Y0050332D02*
X0068290Y0050332D01*
X0068290Y0050331D02*
X0066951Y0050331D01*
X0068290Y0050331D01*
X0068290Y0050330D02*
X0066951Y0050330D01*
X0066951Y0050329D02*
X0068290Y0050329D01*
X0068290Y0050328D02*
X0066951Y0050328D01*
X0066951Y0050327D02*
X0068290Y0050327D01*
X0068290Y0050326D02*
X0066951Y0050326D01*
X0066951Y0050325D02*
X0068290Y0050325D01*
X0068290Y0050324D02*
X0066951Y0050324D01*
X0066951Y0050323D02*
X0068290Y0050323D01*
X0068290Y0050322D02*
X0066951Y0050322D01*
X0066951Y0050321D02*
X0068290Y0050321D01*
X0068290Y0050320D02*
X0066951Y0050320D01*
X0066951Y0050319D02*
X0068290Y0050319D01*
X0068290Y0050318D02*
X0066951Y0050318D01*
X0066951Y0050317D02*
X0068290Y0050317D01*
X0068290Y0050316D02*
X0066951Y0050316D01*
X0066951Y0050315D02*
X0068290Y0050315D01*
X0068290Y0050314D02*
X0066951Y0050314D01*
X0066951Y0050313D02*
X0068290Y0050313D01*
X0068290Y0050312D02*
X0066951Y0050312D01*
X0066951Y0050311D02*
X0068290Y0050311D01*
X0068290Y0050310D02*
X0066951Y0050310D01*
X0066951Y0050309D02*
X0068290Y0050309D01*
X0068290Y0050308D02*
X0066951Y0050308D01*
X0066951Y0050307D02*
X0068290Y0050307D01*
X0068290Y0050306D02*
X0066951Y0050306D01*
X0066951Y0050305D02*
X0068290Y0050305D01*
X0068290Y0050304D02*
X0066951Y0050304D01*
X0066951Y0050303D02*
X0068290Y0050303D01*
X0068290Y0050302D02*
X0066951Y0050302D01*
X0066951Y0050301D02*
X0068290Y0050301D01*
X0068290Y0050300D02*
X0066951Y0050300D01*
X0066951Y0050299D02*
X0068290Y0050299D01*
X0068290Y0050298D02*
X0066951Y0050298D01*
X0066951Y0050297D02*
X0068290Y0050297D01*
X0068290Y0050296D02*
X0066951Y0050296D01*
X0066951Y0050295D02*
X0068290Y0050295D01*
X0068290Y0050294D02*
X0066951Y0050294D01*
X0066951Y0050293D02*
X0068290Y0050293D01*
X0068290Y0050292D02*
X0066951Y0050292D01*
X0066951Y0050291D02*
X0068290Y0050291D01*
X0068290Y0050290D02*
X0066951Y0050290D01*
X0066951Y0050289D02*
X0068290Y0050289D01*
X0068290Y0050288D02*
X0066951Y0050288D01*
X0066951Y0050287D02*
X0068290Y0050287D01*
X0068290Y0050286D02*
X0066951Y0050286D01*
X0066951Y0050285D02*
X0068290Y0050285D01*
X0068290Y0050284D02*
X0066951Y0050284D01*
X0066951Y0050283D02*
X0068290Y0050283D01*
X0068290Y0050282D02*
X0066951Y0050282D01*
X0066951Y0050281D02*
X0068290Y0050281D01*
X0068290Y0050280D02*
X0066951Y0050280D01*
X0066951Y0050279D02*
X0068290Y0050279D01*
X0068290Y0050278D02*
X0066951Y0050278D01*
X0066951Y0050277D02*
X0068290Y0050277D01*
X0068290Y0050276D02*
X0066951Y0050276D01*
X0066951Y0050275D02*
X0068290Y0050275D01*
X0068290Y0050274D02*
X0066951Y0050274D01*
X0066951Y0050273D02*
X0068290Y0050273D01*
X0068290Y0050272D02*
X0066951Y0050272D01*
X0066951Y0050271D02*
X0068290Y0050271D01*
X0068290Y0050270D02*
X0066951Y0050270D01*
X0066951Y0050269D02*
X0068290Y0050269D01*
X0066951Y0050269D01*
X0066951Y0050268D02*
X0068290Y0050268D01*
X0068290Y0050267D02*
X0066951Y0050267D01*
X0066951Y0050266D02*
X0068290Y0050266D01*
X0068290Y0050265D02*
X0066951Y0050265D01*
X0066951Y0050264D02*
X0068290Y0050264D01*
X0068290Y0050263D02*
X0066951Y0050263D01*
X0066951Y0050262D02*
X0068290Y0050262D01*
X0068290Y0050261D02*
X0066951Y0050261D01*
X0066951Y0050260D02*
X0068290Y0050260D01*
X0068290Y0050259D02*
X0066951Y0050259D01*
X0066951Y0050258D02*
X0068290Y0050258D01*
X0068290Y0050257D02*
X0066951Y0050257D01*
X0066951Y0050256D02*
X0068290Y0050256D01*
X0068290Y0050255D02*
X0066951Y0050255D01*
X0066951Y0050254D02*
X0068290Y0050254D01*
X0068290Y0050253D02*
X0066951Y0050253D01*
X0066951Y0050252D02*
X0068290Y0050252D01*
X0068290Y0050251D02*
X0066951Y0050251D01*
X0066951Y0050250D02*
X0068290Y0050250D01*
X0068290Y0050249D02*
X0066951Y0050249D01*
X0066951Y0050248D02*
X0068290Y0050248D01*
X0068290Y0050247D02*
X0066951Y0050247D01*
X0066951Y0050246D02*
X0068290Y0050246D01*
X0068290Y0050245D02*
X0066951Y0050245D01*
X0066951Y0050244D02*
X0068290Y0050244D01*
X0068290Y0050243D02*
X0066951Y0050243D01*
X0066951Y0050242D02*
X0068290Y0050242D01*
X0068290Y0050241D02*
X0066951Y0050241D01*
X0066951Y0050240D02*
X0068290Y0050240D01*
X0068290Y0050239D02*
X0066951Y0050239D01*
X0066951Y0050238D02*
X0068290Y0050238D01*
X0068290Y0050237D02*
X0066951Y0050237D01*
X0066951Y0050236D02*
X0068290Y0050236D01*
X0068290Y0050235D02*
X0066951Y0050235D01*
X0066951Y0050234D02*
X0068290Y0050234D01*
X0068290Y0050233D02*
X0066951Y0050233D01*
X0066951Y0050232D02*
X0068290Y0050232D01*
X0068290Y0050231D02*
X0066951Y0050231D01*
X0066951Y0050230D02*
X0068290Y0050230D01*
X0068290Y0050229D02*
X0066951Y0050229D01*
X0066951Y0050228D02*
X0068290Y0050228D01*
X0068290Y0050227D02*
X0066951Y0050227D01*
X0066951Y0050226D02*
X0068290Y0050226D01*
X0068290Y0050225D02*
X0066951Y0050225D01*
X0066951Y0050224D02*
X0069628Y0050224D01*
X0069628Y0050223D02*
X0066951Y0050223D01*
X0066951Y0050222D02*
X0069628Y0050222D01*
X0069628Y0050221D02*
X0066951Y0050221D01*
X0066951Y0050220D02*
X0069628Y0050220D01*
X0069628Y0050219D02*
X0066951Y0050219D01*
X0066951Y0050218D02*
X0069628Y0050218D01*
X0069628Y0050217D02*
X0066951Y0050217D01*
X0066951Y0050216D02*
X0069628Y0050216D01*
X0069628Y0050215D02*
X0066951Y0050215D01*
X0066951Y0050214D02*
X0069628Y0050214D01*
X0069628Y0050213D02*
X0066951Y0050213D01*
X0066951Y0050212D02*
X0069628Y0050212D01*
X0069628Y0050211D02*
X0066951Y0050211D01*
X0066951Y0050210D02*
X0069628Y0050210D01*
X0069628Y0050209D02*
X0066951Y0050209D01*
X0066951Y0050208D02*
X0069628Y0050208D01*
X0069628Y0050207D02*
X0066951Y0050207D01*
X0066951Y0050206D02*
X0069628Y0050206D01*
X0066951Y0050206D01*
X0066951Y0050205D02*
X0069628Y0050205D01*
X0069628Y0050204D02*
X0066951Y0050204D01*
X0066951Y0050203D02*
X0069628Y0050203D01*
X0069628Y0050202D02*
X0066951Y0050202D01*
X0066951Y0050201D02*
X0069628Y0050201D01*
X0069628Y0050200D02*
X0066951Y0050200D01*
X0066951Y0050199D02*
X0069628Y0050199D01*
X0069628Y0050198D02*
X0066951Y0050198D01*
X0066951Y0050197D02*
X0069628Y0050197D01*
X0069628Y0050196D02*
X0066951Y0050196D01*
X0066951Y0050195D02*
X0069628Y0050195D01*
X0069628Y0050194D02*
X0066951Y0050194D01*
X0066951Y0050193D02*
X0069628Y0050193D01*
X0069628Y0050192D02*
X0066951Y0050192D01*
X0066951Y0050191D02*
X0069628Y0050191D01*
X0069628Y0050190D02*
X0066951Y0050190D01*
X0066951Y0050189D02*
X0069628Y0050189D01*
X0069628Y0050188D02*
X0066951Y0050188D01*
X0066951Y0050187D02*
X0069628Y0050187D01*
X0069628Y0050186D02*
X0066951Y0050186D01*
X0066951Y0050185D02*
X0069628Y0050185D01*
X0069628Y0050184D02*
X0066951Y0050184D01*
X0066951Y0050183D02*
X0069628Y0050183D01*
X0069628Y0050182D02*
X0066951Y0050182D01*
X0066951Y0050181D02*
X0069628Y0050181D01*
X0069628Y0050180D02*
X0066951Y0050180D01*
X0066951Y0050179D02*
X0069628Y0050179D01*
X0069628Y0050178D02*
X0066951Y0050178D01*
X0066951Y0050177D02*
X0069628Y0050177D01*
X0069628Y0050176D02*
X0066951Y0050176D01*
X0066951Y0050175D02*
X0069628Y0050175D01*
X0069628Y0050174D02*
X0066951Y0050174D01*
X0066951Y0050173D02*
X0069628Y0050173D01*
X0069628Y0050172D02*
X0066951Y0050172D01*
X0066951Y0050171D02*
X0069628Y0050171D01*
X0069628Y0050170D02*
X0066951Y0050170D01*
X0066951Y0050169D02*
X0069628Y0050169D01*
X0069628Y0050168D02*
X0066951Y0050168D01*
X0066951Y0050167D02*
X0069628Y0050167D01*
X0069628Y0050166D02*
X0066951Y0050166D01*
X0066951Y0050165D02*
X0069628Y0050165D01*
X0069628Y0050164D02*
X0066951Y0050164D01*
X0066951Y0050163D02*
X0069628Y0050163D01*
X0069628Y0050162D02*
X0066951Y0050162D01*
X0066951Y0050161D02*
X0069628Y0050161D01*
X0069628Y0050160D02*
X0066951Y0050160D01*
X0066951Y0050159D02*
X0069628Y0050159D01*
X0069628Y0050158D02*
X0066951Y0050158D01*
X0066951Y0050157D02*
X0069628Y0050157D01*
X0069628Y0050156D02*
X0066951Y0050156D01*
X0066951Y0050155D02*
X0069628Y0050155D01*
X0069628Y0050154D02*
X0066951Y0050154D01*
X0066951Y0050153D02*
X0069628Y0050153D01*
X0069628Y0050152D02*
X0066951Y0050152D01*
X0066951Y0050151D02*
X0069628Y0050151D01*
X0069628Y0050150D02*
X0066951Y0050150D01*
X0066951Y0050149D02*
X0069628Y0050149D01*
X0069628Y0050148D02*
X0066951Y0050148D01*
X0066951Y0050147D02*
X0069628Y0050147D01*
X0069628Y0050146D02*
X0066951Y0050146D01*
X0066951Y0050145D02*
X0069628Y0050145D01*
X0069628Y0050144D02*
X0066951Y0050144D01*
X0069628Y0050144D01*
X0069628Y0050143D02*
X0066951Y0050143D01*
X0066951Y0050142D02*
X0069628Y0050142D01*
X0069628Y0050141D02*
X0066951Y0050141D01*
X0066951Y0050140D02*
X0069628Y0050140D01*
X0069628Y0050139D02*
X0066951Y0050139D01*
X0066951Y0050138D02*
X0069628Y0050138D01*
X0069628Y0050137D02*
X0066951Y0050137D01*
X0066951Y0050136D02*
X0069628Y0050136D01*
X0069628Y0050135D02*
X0066951Y0050135D01*
X0066951Y0050134D02*
X0069628Y0050134D01*
X0069628Y0050133D02*
X0066951Y0050133D01*
X0066951Y0050132D02*
X0069628Y0050132D01*
X0069628Y0050131D02*
X0066951Y0050131D01*
X0066951Y0050130D02*
X0069628Y0050130D01*
X0069628Y0050129D02*
X0066951Y0050129D01*
X0066951Y0050128D02*
X0069628Y0050128D01*
X0069628Y0050127D02*
X0066951Y0050127D01*
X0066951Y0050126D02*
X0069628Y0050126D01*
X0069628Y0050125D02*
X0066951Y0050125D01*
X0066951Y0050124D02*
X0069628Y0050124D01*
X0069628Y0050123D02*
X0066951Y0050123D01*
X0066951Y0050122D02*
X0069628Y0050122D01*
X0069628Y0050121D02*
X0066951Y0050121D01*
X0066951Y0050120D02*
X0069628Y0050120D01*
X0069628Y0050119D02*
X0066951Y0050119D01*
X0066951Y0050118D02*
X0069628Y0050118D01*
X0069628Y0050117D02*
X0066951Y0050117D01*
X0066951Y0050116D02*
X0069628Y0050116D01*
X0069628Y0050115D02*
X0066951Y0050115D01*
X0066951Y0050114D02*
X0069628Y0050114D01*
X0069628Y0050113D02*
X0066951Y0050113D01*
X0066951Y0050112D02*
X0069628Y0050112D01*
X0069628Y0050111D02*
X0066951Y0050111D01*
X0066951Y0050110D02*
X0069628Y0050110D01*
X0069628Y0050109D02*
X0066951Y0050109D01*
X0066951Y0050108D02*
X0069628Y0050108D01*
X0069628Y0050107D02*
X0066951Y0050107D01*
X0066951Y0050106D02*
X0069628Y0050106D01*
X0069628Y0050105D02*
X0066951Y0050105D01*
X0066951Y0050104D02*
X0069628Y0050104D01*
X0069628Y0050103D02*
X0066951Y0050103D01*
X0066951Y0050102D02*
X0069628Y0050102D01*
X0069628Y0050101D02*
X0066951Y0050101D01*
X0066951Y0050100D02*
X0069628Y0050100D01*
X0069628Y0050099D02*
X0066951Y0050099D01*
X0066951Y0050098D02*
X0069628Y0050098D01*
X0069628Y0050097D02*
X0066951Y0050097D01*
X0066951Y0050096D02*
X0069628Y0050096D01*
X0069628Y0050095D02*
X0066951Y0050095D01*
X0066951Y0050094D02*
X0069628Y0050094D01*
X0069628Y0050093D02*
X0066951Y0050093D01*
X0066951Y0050092D02*
X0069628Y0050092D01*
X0069628Y0050091D02*
X0066951Y0050091D01*
X0066951Y0050090D02*
X0069628Y0050090D01*
X0069628Y0050089D02*
X0066951Y0050089D01*
X0066951Y0050088D02*
X0069628Y0050088D01*
X0069628Y0050087D02*
X0066951Y0050087D01*
X0066951Y0050086D02*
X0069628Y0050086D01*
X0069628Y0050085D02*
X0066951Y0050085D01*
X0066951Y0050084D02*
X0069628Y0050084D01*
X0069628Y0050083D02*
X0066951Y0050083D01*
X0066951Y0050082D02*
X0069628Y0050082D01*
X0069628Y0050081D02*
X0066951Y0050081D01*
X0069628Y0050081D01*
X0069628Y0050080D02*
X0066951Y0050080D01*
X0066951Y0050079D02*
X0069628Y0050079D01*
X0069628Y0050078D02*
X0066951Y0050078D01*
X0066951Y0050077D02*
X0069628Y0050077D01*
X0069628Y0050076D02*
X0066951Y0050076D01*
X0066951Y0050075D02*
X0069628Y0050075D01*
X0069628Y0050074D02*
X0066951Y0050074D01*
X0066951Y0050073D02*
X0069628Y0050073D01*
X0069628Y0050072D02*
X0066951Y0050072D01*
X0066951Y0050071D02*
X0069628Y0050071D01*
X0069628Y0050070D02*
X0066951Y0050070D01*
X0066951Y0050069D02*
X0069628Y0050069D01*
X0069628Y0050068D02*
X0066951Y0050068D01*
X0066951Y0050067D02*
X0069628Y0050067D01*
X0069628Y0050066D02*
X0066951Y0050066D01*
X0066951Y0050065D02*
X0069628Y0050065D01*
X0069628Y0050064D02*
X0066951Y0050064D01*
X0066951Y0050063D02*
X0069628Y0050063D01*
X0069628Y0050062D02*
X0066951Y0050062D01*
X0066951Y0050061D02*
X0069628Y0050061D01*
X0069628Y0050060D02*
X0066951Y0050060D01*
X0066951Y0050059D02*
X0069628Y0050059D01*
X0069628Y0050058D02*
X0066951Y0050058D01*
X0066951Y0050057D02*
X0069628Y0050057D01*
X0069628Y0050056D02*
X0066951Y0050056D01*
X0066951Y0050055D02*
X0069628Y0050055D01*
X0069628Y0050054D02*
X0066951Y0050054D01*
X0066951Y0050053D02*
X0069628Y0050053D01*
X0069628Y0050052D02*
X0066951Y0050052D01*
X0066951Y0050051D02*
X0069628Y0050051D01*
X0069628Y0050050D02*
X0066951Y0050050D01*
X0066951Y0050049D02*
X0069628Y0050049D01*
X0069628Y0050048D02*
X0066951Y0050048D01*
X0066951Y0050047D02*
X0069628Y0050047D01*
X0069628Y0050046D02*
X0066951Y0050046D01*
X0066951Y0050045D02*
X0069628Y0050045D01*
X0069628Y0050044D02*
X0066951Y0050044D01*
X0066951Y0050043D02*
X0069628Y0050043D01*
X0069628Y0050042D02*
X0066951Y0050042D01*
X0066951Y0050041D02*
X0069628Y0050041D01*
X0069628Y0050040D02*
X0066951Y0050040D01*
X0066951Y0050039D02*
X0069628Y0050039D01*
X0069628Y0050038D02*
X0066951Y0050038D01*
X0066951Y0050037D02*
X0069628Y0050037D01*
X0069628Y0050036D02*
X0066951Y0050036D01*
X0066951Y0050035D02*
X0069628Y0050035D01*
X0069628Y0050034D02*
X0066951Y0050034D01*
X0066951Y0050033D02*
X0069628Y0050033D01*
X0069628Y0050032D02*
X0066951Y0050032D01*
X0066951Y0050031D02*
X0069628Y0050031D01*
X0069628Y0050030D02*
X0066951Y0050030D01*
X0066951Y0050029D02*
X0069628Y0050029D01*
X0069628Y0050028D02*
X0066951Y0050028D01*
X0066951Y0050027D02*
X0069628Y0050027D01*
X0069628Y0050026D02*
X0066951Y0050026D01*
X0066951Y0050025D02*
X0069628Y0050025D01*
X0069628Y0050024D02*
X0066951Y0050024D01*
X0066951Y0050023D02*
X0069628Y0050023D01*
X0069628Y0050022D02*
X0066951Y0050022D01*
X0066951Y0050021D02*
X0069628Y0050021D01*
X0069628Y0050020D02*
X0066951Y0050020D01*
X0066951Y0050019D02*
X0069628Y0050019D01*
X0066951Y0050019D01*
X0066951Y0050018D02*
X0069628Y0050018D01*
X0069628Y0050017D02*
X0066951Y0050017D01*
X0066951Y0050016D02*
X0069628Y0050016D01*
X0069628Y0050015D02*
X0066951Y0050015D01*
X0066951Y0050014D02*
X0069628Y0050014D01*
X0069628Y0050013D02*
X0066951Y0050013D01*
X0066951Y0050012D02*
X0069628Y0050012D01*
X0069628Y0050011D02*
X0066951Y0050011D01*
X0066951Y0050010D02*
X0069628Y0050010D01*
X0069628Y0050009D02*
X0066951Y0050009D01*
X0066951Y0050008D02*
X0069628Y0050008D01*
X0069628Y0050007D02*
X0066951Y0050007D01*
X0066951Y0050006D02*
X0069628Y0050006D01*
X0069628Y0050005D02*
X0066951Y0050005D01*
X0066951Y0050004D02*
X0069628Y0050004D01*
X0069628Y0050003D02*
X0066951Y0050003D01*
X0066951Y0050002D02*
X0069628Y0050002D01*
X0069628Y0050001D02*
X0066951Y0050001D01*
X0066951Y0050000D02*
X0069628Y0050000D01*
X0069628Y0049999D02*
X0066951Y0049999D01*
X0066951Y0049998D02*
X0069628Y0049998D01*
X0069628Y0049997D02*
X0066951Y0049997D01*
X0066951Y0049996D02*
X0069628Y0049996D01*
X0069628Y0049995D02*
X0066951Y0049995D01*
X0066951Y0049994D02*
X0069628Y0049994D01*
X0069628Y0049993D02*
X0066951Y0049993D01*
X0066951Y0049992D02*
X0069628Y0049992D01*
X0069628Y0049991D02*
X0066951Y0049991D01*
X0066951Y0049990D02*
X0069628Y0049990D01*
X0069628Y0049989D02*
X0066951Y0049989D01*
X0066951Y0049988D02*
X0069628Y0049988D01*
X0069628Y0049987D02*
X0066951Y0049987D01*
X0066951Y0049986D02*
X0069628Y0049986D01*
X0069628Y0049985D02*
X0066951Y0049985D01*
X0066951Y0049984D02*
X0069628Y0049984D01*
X0069628Y0049983D02*
X0066951Y0049983D01*
X0066951Y0049982D02*
X0069628Y0049982D01*
X0069628Y0049981D02*
X0066951Y0049981D01*
X0066951Y0049980D02*
X0069628Y0049980D01*
X0069628Y0049979D02*
X0066951Y0049979D01*
X0066951Y0049978D02*
X0069628Y0049978D01*
X0069628Y0049977D02*
X0066951Y0049977D01*
X0066951Y0049976D02*
X0069628Y0049976D01*
X0069628Y0049975D02*
X0066951Y0049975D01*
X0066951Y0049974D02*
X0069628Y0049974D01*
X0069628Y0049973D02*
X0066951Y0049973D01*
X0066951Y0049972D02*
X0069628Y0049972D01*
X0069628Y0049971D02*
X0066951Y0049971D01*
X0066951Y0049970D02*
X0069628Y0049970D01*
X0069628Y0049969D02*
X0066951Y0049969D01*
X0066951Y0049968D02*
X0069628Y0049968D01*
X0069628Y0049967D02*
X0066951Y0049967D01*
X0066951Y0049966D02*
X0069628Y0049966D01*
X0069628Y0049965D02*
X0066951Y0049965D01*
X0066951Y0049964D02*
X0069628Y0049964D01*
X0069628Y0049963D02*
X0066951Y0049963D01*
X0066951Y0049962D02*
X0069628Y0049962D01*
X0069628Y0049961D02*
X0066951Y0049961D01*
X0066951Y0049960D02*
X0069628Y0049960D01*
X0069628Y0049959D02*
X0066951Y0049959D01*
X0066951Y0049958D02*
X0069628Y0049958D01*
X0069628Y0049957D02*
X0066951Y0049957D01*
X0066951Y0049956D02*
X0069628Y0049956D01*
X0066951Y0049956D01*
X0066951Y0049955D02*
X0069628Y0049955D01*
X0069628Y0049954D02*
X0066951Y0049954D01*
X0066951Y0049953D02*
X0069628Y0049953D01*
X0069628Y0049952D02*
X0066951Y0049952D01*
X0066951Y0049951D02*
X0069628Y0049951D01*
X0069628Y0049950D02*
X0066951Y0049950D01*
X0066951Y0049949D02*
X0069628Y0049949D01*
X0069628Y0049948D02*
X0066951Y0049948D01*
X0066951Y0049947D02*
X0069628Y0049947D01*
X0069628Y0049946D02*
X0066951Y0049946D01*
X0066951Y0049945D02*
X0069628Y0049945D01*
X0069628Y0049944D02*
X0066951Y0049944D01*
X0066951Y0049943D02*
X0069628Y0049943D01*
X0069628Y0049942D02*
X0066951Y0049942D01*
X0066951Y0049941D02*
X0069628Y0049941D01*
X0069628Y0049940D02*
X0066951Y0049940D01*
X0066951Y0049939D02*
X0069628Y0049939D01*
X0069628Y0049938D02*
X0066951Y0049938D01*
X0066951Y0049937D02*
X0069628Y0049937D01*
X0069628Y0049936D02*
X0066951Y0049936D01*
X0066951Y0049935D02*
X0069628Y0049935D01*
X0069628Y0049934D02*
X0066951Y0049934D01*
X0066951Y0049933D02*
X0069628Y0049933D01*
X0069628Y0049932D02*
X0066951Y0049932D01*
X0066951Y0049931D02*
X0069628Y0049931D01*
X0069628Y0049930D02*
X0066951Y0049930D01*
X0066951Y0049929D02*
X0069628Y0049929D01*
X0069628Y0049928D02*
X0066951Y0049928D01*
X0066951Y0049927D02*
X0069628Y0049927D01*
X0069628Y0049926D02*
X0066951Y0049926D01*
X0066951Y0049925D02*
X0069628Y0049925D01*
X0069628Y0049924D02*
X0066951Y0049924D01*
X0066951Y0049923D02*
X0069628Y0049923D01*
X0069628Y0049922D02*
X0066951Y0049922D01*
X0066951Y0049921D02*
X0069628Y0049921D01*
X0069628Y0049920D02*
X0066951Y0049920D01*
X0066951Y0049919D02*
X0069628Y0049919D01*
X0069628Y0049918D02*
X0066951Y0049918D01*
X0066951Y0049917D02*
X0069628Y0049917D01*
X0069628Y0049916D02*
X0066951Y0049916D01*
X0066951Y0049915D02*
X0069628Y0049915D01*
X0069628Y0049914D02*
X0066951Y0049914D01*
X0066951Y0049913D02*
X0069628Y0049913D01*
X0069628Y0049912D02*
X0066951Y0049912D01*
X0066951Y0049911D02*
X0069628Y0049911D01*
X0069628Y0049910D02*
X0066951Y0049910D01*
X0066951Y0049909D02*
X0069628Y0049909D01*
X0069628Y0049908D02*
X0066951Y0049908D01*
X0066951Y0049907D02*
X0069628Y0049907D01*
X0069628Y0049906D02*
X0066951Y0049906D01*
X0066951Y0049905D02*
X0069628Y0049905D01*
X0069628Y0049904D02*
X0066951Y0049904D01*
X0066951Y0049903D02*
X0069628Y0049903D01*
X0069628Y0049902D02*
X0066951Y0049902D01*
X0066951Y0049901D02*
X0069628Y0049901D01*
X0069628Y0049900D02*
X0066951Y0049900D01*
X0066951Y0049899D02*
X0069628Y0049899D01*
X0069628Y0049898D02*
X0066951Y0049898D01*
X0066951Y0049897D02*
X0069628Y0049897D01*
X0069628Y0049896D02*
X0066951Y0049896D01*
X0066951Y0049895D02*
X0069628Y0049895D01*
X0069628Y0049894D02*
X0066951Y0049894D01*
X0069628Y0049894D01*
X0069628Y0049893D02*
X0066951Y0049893D01*
X0066951Y0049892D02*
X0069628Y0049892D01*
X0069628Y0049891D02*
X0066951Y0049891D01*
X0066951Y0049890D02*
X0069628Y0049890D01*
X0069628Y0049889D02*
X0066951Y0049889D01*
X0066951Y0049888D02*
X0069628Y0049888D01*
X0069628Y0049887D02*
X0066951Y0049887D01*
X0066951Y0049886D02*
X0069628Y0049886D01*
X0069628Y0049885D02*
X0066951Y0049885D01*
X0066951Y0049884D02*
X0069628Y0049884D01*
X0069628Y0049883D02*
X0066951Y0049883D01*
X0066951Y0049882D02*
X0069628Y0049882D01*
X0069628Y0049881D02*
X0066951Y0049881D01*
X0066951Y0049880D02*
X0069628Y0049880D01*
X0069628Y0049879D02*
X0066951Y0049879D01*
X0066951Y0049878D02*
X0069628Y0049878D01*
X0069628Y0049877D02*
X0066951Y0049877D01*
X0066951Y0049876D02*
X0069628Y0049876D01*
X0069628Y0049875D02*
X0066951Y0049875D01*
X0066951Y0049874D02*
X0069628Y0049874D01*
X0069628Y0049873D02*
X0066951Y0049873D01*
X0066951Y0049872D02*
X0069628Y0049872D01*
X0069628Y0049871D02*
X0066951Y0049871D01*
X0066951Y0049870D02*
X0069628Y0049870D01*
X0069628Y0049869D02*
X0066951Y0049869D01*
X0066951Y0049868D02*
X0069628Y0049868D01*
X0069628Y0049867D02*
X0066951Y0049867D01*
X0066951Y0049866D02*
X0069628Y0049866D01*
X0069628Y0049865D02*
X0066951Y0049865D01*
X0066951Y0049864D02*
X0069628Y0049864D01*
X0069628Y0049863D02*
X0066951Y0049863D01*
X0066951Y0049862D02*
X0069628Y0049862D01*
X0069628Y0049861D02*
X0066951Y0049861D01*
X0066951Y0049860D02*
X0069628Y0049860D01*
X0069628Y0049859D02*
X0066951Y0049859D01*
X0066951Y0049858D02*
X0069628Y0049858D01*
X0069628Y0049857D02*
X0066951Y0049857D01*
X0066951Y0049856D02*
X0069628Y0049856D01*
X0069628Y0049855D02*
X0066951Y0049855D01*
X0066951Y0049854D02*
X0069628Y0049854D01*
X0069628Y0049853D02*
X0066951Y0049853D01*
X0066951Y0049852D02*
X0069628Y0049852D01*
X0069628Y0049851D02*
X0066951Y0049851D01*
X0066951Y0049850D02*
X0069628Y0049850D01*
X0069628Y0049849D02*
X0066951Y0049849D01*
X0066951Y0049848D02*
X0069628Y0049848D01*
X0069628Y0049847D02*
X0066951Y0049847D01*
X0066951Y0049846D02*
X0069628Y0049846D01*
X0069628Y0049845D02*
X0066951Y0049845D01*
X0066951Y0049844D02*
X0069628Y0049844D01*
X0069628Y0049843D02*
X0066951Y0049843D01*
X0066951Y0049842D02*
X0069628Y0049842D01*
X0069628Y0049841D02*
X0066951Y0049841D01*
X0066951Y0049840D02*
X0069628Y0049840D01*
X0069628Y0049839D02*
X0066951Y0049839D01*
X0066951Y0049838D02*
X0069628Y0049838D01*
X0069628Y0049837D02*
X0066951Y0049837D01*
X0066951Y0049836D02*
X0069628Y0049836D01*
X0069628Y0049835D02*
X0066951Y0049835D01*
X0066951Y0049834D02*
X0069628Y0049834D01*
X0069628Y0049833D02*
X0066951Y0049833D01*
X0066951Y0049832D02*
X0069628Y0049832D01*
X0069628Y0049831D02*
X0066951Y0049831D01*
X0069628Y0049831D01*
X0069628Y0049830D02*
X0066951Y0049830D01*
X0066951Y0049829D02*
X0069628Y0049829D01*
X0069628Y0049828D02*
X0066951Y0049828D01*
X0066951Y0049827D02*
X0069628Y0049827D01*
X0069628Y0049826D02*
X0066951Y0049826D01*
X0066951Y0049825D02*
X0069628Y0049825D01*
X0069628Y0049824D02*
X0066951Y0049824D01*
X0066951Y0049823D02*
X0069628Y0049823D01*
X0069628Y0049822D02*
X0066951Y0049822D01*
X0066951Y0049821D02*
X0069628Y0049821D01*
X0069628Y0049820D02*
X0066951Y0049820D01*
X0066951Y0049819D02*
X0069628Y0049819D01*
X0069628Y0049818D02*
X0066951Y0049818D01*
X0066951Y0049817D02*
X0069628Y0049817D01*
X0069628Y0049816D02*
X0066951Y0049816D01*
X0066951Y0049815D02*
X0069628Y0049815D01*
X0069628Y0049814D02*
X0066951Y0049814D01*
X0066951Y0049813D02*
X0069628Y0049813D01*
X0069628Y0049812D02*
X0066951Y0049812D01*
X0066951Y0049811D02*
X0069628Y0049811D01*
X0069628Y0049810D02*
X0066951Y0049810D01*
X0066951Y0049809D02*
X0069628Y0049809D01*
X0069628Y0049808D02*
X0066951Y0049808D01*
X0066951Y0049807D02*
X0069628Y0049807D01*
X0069628Y0049806D02*
X0066951Y0049806D01*
X0066951Y0049805D02*
X0069628Y0049805D01*
X0069628Y0049804D02*
X0066951Y0049804D01*
X0066951Y0049803D02*
X0069628Y0049803D01*
X0069628Y0049802D02*
X0066951Y0049802D01*
X0066951Y0049801D02*
X0069628Y0049801D01*
X0069628Y0049800D02*
X0066951Y0049800D01*
X0066951Y0049799D02*
X0069628Y0049799D01*
X0069628Y0049798D02*
X0066951Y0049798D01*
X0066951Y0049797D02*
X0069628Y0049797D01*
X0069628Y0049796D02*
X0066951Y0049796D01*
X0066951Y0049795D02*
X0069628Y0049795D01*
X0069628Y0049794D02*
X0066951Y0049794D01*
X0066951Y0049793D02*
X0069628Y0049793D01*
X0069628Y0049792D02*
X0066951Y0049792D01*
X0066951Y0049791D02*
X0069628Y0049791D01*
X0069628Y0049790D02*
X0066951Y0049790D01*
X0066951Y0049789D02*
X0069628Y0049789D01*
X0069628Y0049788D02*
X0066951Y0049788D01*
X0066951Y0049787D02*
X0069628Y0049787D01*
X0069628Y0049786D02*
X0066951Y0049786D01*
X0066951Y0049785D02*
X0069628Y0049785D01*
X0069628Y0049784D02*
X0066951Y0049784D01*
X0066951Y0049783D02*
X0069628Y0049783D01*
X0069628Y0049782D02*
X0066951Y0049782D01*
X0066951Y0049781D02*
X0069628Y0049781D01*
X0069628Y0049780D02*
X0066951Y0049780D01*
X0066951Y0049779D02*
X0069628Y0049779D01*
X0069628Y0049778D02*
X0066951Y0049778D01*
X0066951Y0049777D02*
X0069628Y0049777D01*
X0069628Y0049776D02*
X0066951Y0049776D01*
X0066951Y0049775D02*
X0069628Y0049775D01*
X0069628Y0049774D02*
X0066951Y0049774D01*
X0066951Y0049773D02*
X0069628Y0049773D01*
X0069628Y0049772D02*
X0066951Y0049772D01*
X0066951Y0049771D02*
X0069628Y0049771D01*
X0069628Y0049770D02*
X0066951Y0049770D01*
X0066951Y0049769D02*
X0069628Y0049769D01*
X0066951Y0049769D01*
X0066951Y0049768D02*
X0069628Y0049768D01*
X0069628Y0049767D02*
X0066951Y0049767D01*
X0066951Y0049766D02*
X0069628Y0049766D01*
X0069628Y0049765D02*
X0066951Y0049765D01*
X0066951Y0049764D02*
X0069628Y0049764D01*
X0069628Y0049763D02*
X0066951Y0049763D01*
X0066951Y0049762D02*
X0069628Y0049762D01*
X0069628Y0049761D02*
X0066951Y0049761D01*
X0066951Y0049760D02*
X0069628Y0049760D01*
X0069628Y0049759D02*
X0066951Y0049759D01*
X0066951Y0049758D02*
X0069628Y0049758D01*
X0069628Y0049757D02*
X0066951Y0049757D01*
X0066951Y0049756D02*
X0069628Y0049756D01*
X0069628Y0049755D02*
X0066951Y0049755D01*
X0066951Y0049754D02*
X0069628Y0049754D01*
X0069628Y0049753D02*
X0066951Y0049753D01*
X0066951Y0049752D02*
X0069628Y0049752D01*
X0069628Y0049751D02*
X0066951Y0049751D01*
X0066951Y0049750D02*
X0069628Y0049750D01*
X0069628Y0049749D02*
X0066951Y0049749D01*
X0066951Y0049748D02*
X0069628Y0049748D01*
X0069628Y0049747D02*
X0066951Y0049747D01*
X0066951Y0049746D02*
X0069628Y0049746D01*
X0069628Y0049745D02*
X0066951Y0049745D01*
X0066951Y0049744D02*
X0069628Y0049744D01*
X0069628Y0049743D02*
X0066951Y0049743D01*
X0066951Y0049742D02*
X0069628Y0049742D01*
X0069628Y0049741D02*
X0066951Y0049741D01*
X0066951Y0049740D02*
X0069628Y0049740D01*
X0069628Y0049739D02*
X0066951Y0049739D01*
X0066951Y0049738D02*
X0069628Y0049738D01*
X0069628Y0049737D02*
X0066951Y0049737D01*
X0066951Y0049736D02*
X0069628Y0049736D01*
X0069628Y0049735D02*
X0066951Y0049735D01*
X0066951Y0049734D02*
X0069628Y0049734D01*
X0069628Y0049733D02*
X0066951Y0049733D01*
X0066951Y0049732D02*
X0069628Y0049732D01*
X0069628Y0049731D02*
X0066951Y0049731D01*
X0066951Y0049730D02*
X0069628Y0049730D01*
X0069628Y0049729D02*
X0066951Y0049729D01*
X0066951Y0049728D02*
X0069628Y0049728D01*
X0069628Y0049727D02*
X0066951Y0049727D01*
X0066951Y0049726D02*
X0069628Y0049726D01*
X0069628Y0049725D02*
X0066951Y0049725D01*
X0066951Y0049724D02*
X0069628Y0049724D01*
X0069628Y0049723D02*
X0066951Y0049723D01*
X0066951Y0049722D02*
X0069628Y0049722D01*
X0069628Y0049721D02*
X0066951Y0049721D01*
X0066951Y0049720D02*
X0069628Y0049720D01*
X0069628Y0049719D02*
X0066951Y0049719D01*
X0066951Y0049718D02*
X0069628Y0049718D01*
X0069628Y0049717D02*
X0066951Y0049717D01*
X0066951Y0049716D02*
X0069628Y0049716D01*
X0069628Y0049715D02*
X0066951Y0049715D01*
X0066951Y0049714D02*
X0069628Y0049714D01*
X0069628Y0049713D02*
X0066951Y0049713D01*
X0066951Y0049712D02*
X0069628Y0049712D01*
X0069628Y0049711D02*
X0066951Y0049711D01*
X0066951Y0049710D02*
X0069628Y0049710D01*
X0069628Y0049709D02*
X0066951Y0049709D01*
X0066951Y0049708D02*
X0069628Y0049708D01*
X0069628Y0049707D02*
X0066951Y0049707D01*
X0066951Y0049706D02*
X0069628Y0049706D01*
X0066951Y0049706D01*
X0066951Y0049705D02*
X0069628Y0049705D01*
X0069628Y0049704D02*
X0066951Y0049704D01*
X0066951Y0049703D02*
X0069628Y0049703D01*
X0069628Y0049702D02*
X0066951Y0049702D01*
X0066951Y0049701D02*
X0069628Y0049701D01*
X0069628Y0049700D02*
X0066951Y0049700D01*
X0066951Y0049699D02*
X0069628Y0049699D01*
X0069628Y0049698D02*
X0066951Y0049698D01*
X0066951Y0049697D02*
X0069628Y0049697D01*
X0069628Y0049696D02*
X0066951Y0049696D01*
X0066951Y0049695D02*
X0069628Y0049695D01*
X0069628Y0049694D02*
X0066951Y0049694D01*
X0066951Y0049693D02*
X0069628Y0049693D01*
X0069628Y0049692D02*
X0066951Y0049692D01*
X0066951Y0049691D02*
X0069628Y0049691D01*
X0069628Y0049690D02*
X0066951Y0049690D01*
X0066951Y0049689D02*
X0069628Y0049689D01*
X0069628Y0049688D02*
X0066951Y0049688D01*
X0066951Y0049687D02*
X0069628Y0049687D01*
X0069628Y0049686D02*
X0066951Y0049686D01*
X0066951Y0049685D02*
X0069628Y0049685D01*
X0069628Y0049684D02*
X0066951Y0049684D01*
X0066951Y0049683D02*
X0069628Y0049683D01*
X0069628Y0049682D02*
X0066951Y0049682D01*
X0066951Y0049681D02*
X0069628Y0049681D01*
X0069628Y0049680D02*
X0066951Y0049680D01*
X0066951Y0049679D02*
X0069628Y0049679D01*
X0069628Y0049678D02*
X0066951Y0049678D01*
X0066951Y0049677D02*
X0069628Y0049677D01*
X0069628Y0049676D02*
X0066951Y0049676D01*
X0066951Y0049675D02*
X0069628Y0049675D01*
X0069628Y0049674D02*
X0066951Y0049674D01*
X0066951Y0049673D02*
X0069628Y0049673D01*
X0069628Y0049672D02*
X0066951Y0049672D01*
X0066951Y0049671D02*
X0069628Y0049671D01*
X0069628Y0049670D02*
X0066951Y0049670D01*
X0066951Y0049669D02*
X0069628Y0049669D01*
X0069628Y0049668D02*
X0066951Y0049668D01*
X0066951Y0049667D02*
X0069628Y0049667D01*
X0069628Y0049666D02*
X0066951Y0049666D01*
X0066951Y0049665D02*
X0069628Y0049665D01*
X0069628Y0049664D02*
X0066951Y0049664D01*
X0066951Y0049663D02*
X0069628Y0049663D01*
X0069628Y0049662D02*
X0066951Y0049662D01*
X0066951Y0049661D02*
X0069628Y0049661D01*
X0069628Y0049660D02*
X0066951Y0049660D01*
X0066951Y0049659D02*
X0069628Y0049659D01*
X0069628Y0049658D02*
X0066951Y0049658D01*
X0066951Y0049657D02*
X0069628Y0049657D01*
X0069628Y0049656D02*
X0066951Y0049656D01*
X0066951Y0049655D02*
X0069628Y0049655D01*
X0069628Y0049654D02*
X0066951Y0049654D01*
X0066951Y0049653D02*
X0069628Y0049653D01*
X0069628Y0049652D02*
X0066951Y0049652D01*
X0066951Y0049651D02*
X0069628Y0049651D01*
X0069628Y0049650D02*
X0066951Y0049650D01*
X0066951Y0049649D02*
X0069628Y0049649D01*
X0069628Y0049648D02*
X0066951Y0049648D01*
X0066951Y0049647D02*
X0069628Y0049647D01*
X0069628Y0049646D02*
X0066951Y0049646D01*
X0066951Y0049645D02*
X0069628Y0049645D01*
X0069628Y0049644D02*
X0066951Y0049644D01*
X0069628Y0049644D01*
X0069628Y0049643D02*
X0066951Y0049643D01*
X0066951Y0049642D02*
X0069628Y0049642D01*
X0069628Y0049641D02*
X0066951Y0049641D01*
X0066951Y0049640D02*
X0069628Y0049640D01*
X0069628Y0049639D02*
X0066951Y0049639D01*
X0066951Y0049638D02*
X0069628Y0049638D01*
X0069628Y0049637D02*
X0066951Y0049637D01*
X0066951Y0049636D02*
X0069628Y0049636D01*
X0069628Y0049635D02*
X0066951Y0049635D01*
X0066951Y0049634D02*
X0069628Y0049634D01*
X0069628Y0049633D02*
X0066951Y0049633D01*
X0066951Y0049632D02*
X0069628Y0049632D01*
X0069628Y0049631D02*
X0066951Y0049631D01*
X0066951Y0049630D02*
X0069628Y0049630D01*
X0069628Y0049629D02*
X0066951Y0049629D01*
X0066951Y0049628D02*
X0069628Y0049628D01*
X0069628Y0049627D02*
X0066951Y0049627D01*
X0066951Y0049626D02*
X0069628Y0049626D01*
X0069628Y0049625D02*
X0066951Y0049625D01*
X0066951Y0049624D02*
X0069628Y0049624D01*
X0069628Y0049623D02*
X0066951Y0049623D01*
X0066951Y0049622D02*
X0069628Y0049622D01*
X0069628Y0049621D02*
X0066951Y0049621D01*
X0066951Y0049620D02*
X0069628Y0049620D01*
X0069628Y0049619D02*
X0066951Y0049619D01*
X0066951Y0049618D02*
X0069628Y0049618D01*
X0069628Y0049617D02*
X0066951Y0049617D01*
X0066951Y0049616D02*
X0069628Y0049616D01*
X0069628Y0049615D02*
X0066951Y0049615D01*
X0066951Y0049614D02*
X0069628Y0049614D01*
X0069628Y0049613D02*
X0066951Y0049613D01*
X0066951Y0049612D02*
X0069628Y0049612D01*
X0069628Y0049611D02*
X0066951Y0049611D01*
X0066951Y0049610D02*
X0069628Y0049610D01*
X0069628Y0049609D02*
X0066951Y0049609D01*
X0066951Y0049608D02*
X0069628Y0049608D01*
X0069628Y0049607D02*
X0066951Y0049607D01*
X0066951Y0049606D02*
X0069628Y0049606D01*
X0069628Y0049605D02*
X0066951Y0049605D01*
X0066951Y0049604D02*
X0069628Y0049604D01*
X0069628Y0049603D02*
X0066951Y0049603D01*
X0066951Y0049602D02*
X0069628Y0049602D01*
X0069628Y0049601D02*
X0066951Y0049601D01*
X0066951Y0049600D02*
X0069628Y0049600D01*
X0069628Y0049599D02*
X0066951Y0049599D01*
X0066951Y0049598D02*
X0069628Y0049598D01*
X0069628Y0049597D02*
X0066951Y0049597D01*
X0066951Y0049596D02*
X0069628Y0049596D01*
X0069628Y0049595D02*
X0066951Y0049595D01*
X0066951Y0049594D02*
X0069628Y0049594D01*
X0069628Y0049593D02*
X0066951Y0049593D01*
X0066951Y0049592D02*
X0069628Y0049592D01*
X0069628Y0049591D02*
X0066951Y0049591D01*
X0066951Y0049590D02*
X0069628Y0049590D01*
X0069628Y0049589D02*
X0066951Y0049589D01*
X0066951Y0049588D02*
X0069628Y0049588D01*
X0069628Y0049587D02*
X0066951Y0049587D01*
X0066951Y0049586D02*
X0069628Y0049586D01*
X0069628Y0049585D02*
X0066951Y0049585D01*
X0066951Y0049584D02*
X0069628Y0049584D01*
X0069628Y0049583D02*
X0066951Y0049583D01*
X0066951Y0049582D02*
X0069628Y0049582D01*
X0069628Y0049581D02*
X0066951Y0049581D01*
X0069628Y0049581D01*
X0069628Y0049580D02*
X0066951Y0049580D01*
X0066951Y0049579D02*
X0069628Y0049579D01*
X0069628Y0049578D02*
X0066951Y0049578D01*
X0066951Y0049577D02*
X0069628Y0049577D01*
X0069628Y0049576D02*
X0066951Y0049576D01*
X0066951Y0049575D02*
X0069628Y0049575D01*
X0069628Y0049574D02*
X0066951Y0049574D01*
X0066951Y0049573D02*
X0069628Y0049573D01*
X0069628Y0049572D02*
X0066951Y0049572D01*
X0066951Y0049571D02*
X0069628Y0049571D01*
X0069628Y0049570D02*
X0066951Y0049570D01*
X0066951Y0049569D02*
X0069628Y0049569D01*
X0069628Y0049568D02*
X0066951Y0049568D01*
X0066951Y0049567D02*
X0069628Y0049567D01*
X0069628Y0049566D02*
X0066951Y0049566D01*
X0066951Y0049565D02*
X0069628Y0049565D01*
X0069628Y0049564D02*
X0066951Y0049564D01*
X0066951Y0049563D02*
X0069628Y0049563D01*
X0069628Y0049562D02*
X0066951Y0049562D01*
X0066951Y0049561D02*
X0069628Y0049561D01*
X0069628Y0049560D02*
X0066951Y0049560D01*
X0066951Y0049559D02*
X0069628Y0049559D01*
X0069628Y0049558D02*
X0066951Y0049558D01*
X0066951Y0049557D02*
X0069628Y0049557D01*
X0069628Y0049556D02*
X0066951Y0049556D01*
X0066951Y0049555D02*
X0069628Y0049555D01*
X0069628Y0049554D02*
X0066951Y0049554D01*
X0066951Y0049553D02*
X0069628Y0049553D01*
X0069628Y0049552D02*
X0066951Y0049552D01*
X0066951Y0049551D02*
X0069628Y0049551D01*
X0069628Y0049550D02*
X0066951Y0049550D01*
X0066951Y0049549D02*
X0069628Y0049549D01*
X0069628Y0049548D02*
X0066951Y0049548D01*
X0066951Y0049547D02*
X0069628Y0049547D01*
X0069628Y0049546D02*
X0066951Y0049546D01*
X0066951Y0049545D02*
X0069628Y0049545D01*
X0069628Y0049544D02*
X0066951Y0049544D01*
X0066951Y0049543D02*
X0069628Y0049543D01*
X0069628Y0049542D02*
X0066951Y0049542D01*
X0066951Y0049541D02*
X0069628Y0049541D01*
X0069628Y0049540D02*
X0066951Y0049540D01*
X0066951Y0049539D02*
X0069628Y0049539D01*
X0069628Y0049538D02*
X0066951Y0049538D01*
X0066951Y0049537D02*
X0069628Y0049537D01*
X0069628Y0049536D02*
X0066951Y0049536D01*
X0066951Y0049535D02*
X0069628Y0049535D01*
X0069628Y0049534D02*
X0066951Y0049534D01*
X0066951Y0049533D02*
X0069628Y0049533D01*
X0069628Y0049532D02*
X0066951Y0049532D01*
X0066951Y0049531D02*
X0069628Y0049531D01*
X0069628Y0049530D02*
X0066951Y0049530D01*
X0066951Y0049529D02*
X0069628Y0049529D01*
X0069628Y0049528D02*
X0066951Y0049528D01*
X0066951Y0049527D02*
X0069628Y0049527D01*
X0069628Y0049526D02*
X0066951Y0049526D01*
X0066951Y0049525D02*
X0069628Y0049525D01*
X0069628Y0049524D02*
X0066951Y0049524D01*
X0066951Y0049523D02*
X0069628Y0049523D01*
X0069628Y0049522D02*
X0066951Y0049522D01*
X0066951Y0049521D02*
X0069628Y0049521D01*
X0069628Y0049520D02*
X0066951Y0049520D01*
X0066951Y0049519D02*
X0069628Y0049519D01*
X0066951Y0049519D01*
X0066951Y0049518D02*
X0069628Y0049518D01*
X0069628Y0049517D02*
X0066951Y0049517D01*
X0066951Y0049516D02*
X0069628Y0049516D01*
X0069628Y0049515D02*
X0066951Y0049515D01*
X0066951Y0049514D02*
X0069628Y0049514D01*
X0069628Y0049513D02*
X0066951Y0049513D01*
X0066951Y0049512D02*
X0069628Y0049512D01*
X0069628Y0049511D02*
X0066951Y0049511D01*
X0066951Y0049510D02*
X0069628Y0049510D01*
X0069628Y0049509D02*
X0066951Y0049509D01*
X0066951Y0049508D02*
X0069628Y0049508D01*
X0069628Y0049507D02*
X0066951Y0049507D01*
X0066951Y0049506D02*
X0069628Y0049506D01*
X0069628Y0049505D02*
X0066951Y0049505D01*
X0066951Y0049504D02*
X0069628Y0049504D01*
X0069628Y0049503D02*
X0066951Y0049503D01*
X0066951Y0049502D02*
X0069628Y0049502D01*
X0069628Y0049501D02*
X0066951Y0049501D01*
X0066951Y0049500D02*
X0069628Y0049500D01*
X0069628Y0049499D02*
X0066951Y0049499D01*
X0066951Y0049498D02*
X0069628Y0049498D01*
X0069628Y0049497D02*
X0066951Y0049497D01*
X0066951Y0049496D02*
X0069628Y0049496D01*
X0069628Y0049495D02*
X0066951Y0049495D01*
X0066951Y0049494D02*
X0069628Y0049494D01*
X0069628Y0049493D02*
X0066951Y0049493D01*
X0066951Y0049492D02*
X0069628Y0049492D01*
X0069628Y0049491D02*
X0066951Y0049491D01*
X0066951Y0049490D02*
X0069628Y0049490D01*
X0069628Y0049489D02*
X0066951Y0049489D01*
X0066951Y0049488D02*
X0069628Y0049488D01*
X0069628Y0049487D02*
X0066951Y0049487D01*
X0066951Y0049486D02*
X0069628Y0049486D01*
X0069628Y0049485D02*
X0066951Y0049485D01*
X0066951Y0049484D02*
X0069628Y0049484D01*
X0069628Y0049483D02*
X0066951Y0049483D01*
X0066951Y0049482D02*
X0069628Y0049482D01*
X0069628Y0049481D02*
X0066951Y0049481D01*
X0066951Y0049480D02*
X0069628Y0049480D01*
X0069628Y0049479D02*
X0066951Y0049479D01*
X0066951Y0049478D02*
X0069628Y0049478D01*
X0069628Y0049477D02*
X0066951Y0049477D01*
X0066951Y0049476D02*
X0069628Y0049476D01*
X0069628Y0049475D02*
X0066951Y0049475D01*
X0066951Y0049474D02*
X0069628Y0049474D01*
X0069628Y0049473D02*
X0066951Y0049473D01*
X0066951Y0049472D02*
X0069628Y0049472D01*
X0069628Y0049471D02*
X0066951Y0049471D01*
X0066951Y0049470D02*
X0069628Y0049470D01*
X0069628Y0049469D02*
X0066951Y0049469D01*
X0066951Y0049468D02*
X0069628Y0049468D01*
X0069628Y0049467D02*
X0066951Y0049467D01*
X0066951Y0049466D02*
X0069628Y0049466D01*
X0069628Y0049465D02*
X0066951Y0049465D01*
X0066951Y0049464D02*
X0069628Y0049464D01*
X0069628Y0049463D02*
X0066951Y0049463D01*
X0066951Y0049462D02*
X0069628Y0049462D01*
X0069628Y0049461D02*
X0066951Y0049461D01*
X0066951Y0049460D02*
X0069628Y0049460D01*
X0069628Y0049459D02*
X0066951Y0049459D01*
X0066951Y0049458D02*
X0069628Y0049458D01*
X0069628Y0049457D02*
X0066951Y0049457D01*
X0066951Y0049456D02*
X0069628Y0049456D01*
X0066951Y0049456D01*
X0066951Y0049455D02*
X0069628Y0049455D01*
X0069628Y0049454D02*
X0066951Y0049454D01*
X0066951Y0049453D02*
X0069628Y0049453D01*
X0069628Y0049452D02*
X0066951Y0049452D01*
X0066951Y0049451D02*
X0069628Y0049451D01*
X0069628Y0049450D02*
X0066951Y0049450D01*
X0066951Y0049449D02*
X0069628Y0049449D01*
X0069628Y0049448D02*
X0066951Y0049448D01*
X0066951Y0049447D02*
X0069628Y0049447D01*
X0069628Y0049446D02*
X0066951Y0049446D01*
X0066951Y0049445D02*
X0069628Y0049445D01*
X0069628Y0049444D02*
X0066951Y0049444D01*
X0066951Y0049443D02*
X0069628Y0049443D01*
X0069628Y0049442D02*
X0066951Y0049442D01*
X0066951Y0049441D02*
X0069628Y0049441D01*
X0069628Y0049440D02*
X0066951Y0049440D01*
X0066951Y0049439D02*
X0069628Y0049439D01*
X0069628Y0049438D02*
X0066951Y0049438D01*
X0066951Y0049437D02*
X0068290Y0049437D01*
X0068290Y0049436D02*
X0066951Y0049436D01*
X0066951Y0049435D02*
X0068290Y0049435D01*
X0068290Y0049434D02*
X0066951Y0049434D01*
X0066951Y0049433D02*
X0068290Y0049433D01*
X0068290Y0049432D02*
X0066951Y0049432D01*
X0066951Y0049431D02*
X0068290Y0049431D01*
X0068290Y0049430D02*
X0066951Y0049430D01*
X0066951Y0049429D02*
X0068290Y0049429D01*
X0068290Y0049428D02*
X0066951Y0049428D01*
X0066951Y0049427D02*
X0068290Y0049427D01*
X0068290Y0049426D02*
X0066951Y0049426D01*
X0066951Y0049425D02*
X0068290Y0049425D01*
X0068290Y0049424D02*
X0066951Y0049424D01*
X0066951Y0049423D02*
X0068290Y0049423D01*
X0068290Y0049422D02*
X0066951Y0049422D01*
X0066951Y0049421D02*
X0068290Y0049421D01*
X0068290Y0049420D02*
X0066951Y0049420D01*
X0066951Y0049419D02*
X0068290Y0049419D01*
X0068290Y0049418D02*
X0066951Y0049418D01*
X0066951Y0049417D02*
X0068290Y0049417D01*
X0068290Y0049416D02*
X0066951Y0049416D01*
X0066951Y0049415D02*
X0068290Y0049415D01*
X0068290Y0049414D02*
X0066951Y0049414D01*
X0066951Y0049413D02*
X0068290Y0049413D01*
X0068290Y0049412D02*
X0066951Y0049412D01*
X0066951Y0049411D02*
X0068290Y0049411D01*
X0068290Y0049410D02*
X0066951Y0049410D01*
X0066951Y0049409D02*
X0068290Y0049409D01*
X0068290Y0049408D02*
X0066951Y0049408D01*
X0066951Y0049407D02*
X0068290Y0049407D01*
X0068290Y0049406D02*
X0066951Y0049406D01*
X0066951Y0049405D02*
X0068290Y0049405D01*
X0068290Y0049404D02*
X0066951Y0049404D01*
X0066951Y0049403D02*
X0068290Y0049403D01*
X0068290Y0049402D02*
X0066951Y0049402D01*
X0066951Y0049401D02*
X0068290Y0049401D01*
X0068290Y0049400D02*
X0066951Y0049400D01*
X0066951Y0049399D02*
X0068290Y0049399D01*
X0068290Y0049398D02*
X0066951Y0049398D01*
X0066951Y0049397D02*
X0068290Y0049397D01*
X0068290Y0049396D02*
X0066951Y0049396D01*
X0066951Y0049395D02*
X0068290Y0049395D01*
X0068290Y0049394D02*
X0066951Y0049394D01*
X0068290Y0049394D01*
X0068290Y0049393D02*
X0066951Y0049393D01*
X0066951Y0049392D02*
X0068290Y0049392D01*
X0068290Y0049391D02*
X0066951Y0049391D01*
X0066951Y0049390D02*
X0068290Y0049390D01*
X0068290Y0049389D02*
X0066951Y0049389D01*
X0066951Y0049388D02*
X0068290Y0049388D01*
X0068290Y0049387D02*
X0066951Y0049387D01*
X0066951Y0049386D02*
X0068290Y0049386D01*
X0068290Y0049385D02*
X0066951Y0049385D01*
X0066951Y0049384D02*
X0068290Y0049384D01*
X0068290Y0049383D02*
X0066951Y0049383D01*
X0066951Y0049382D02*
X0068290Y0049382D01*
X0068290Y0049381D02*
X0066951Y0049381D01*
X0066951Y0049380D02*
X0068290Y0049380D01*
X0068290Y0049379D02*
X0066951Y0049379D01*
X0066951Y0049378D02*
X0068290Y0049378D01*
X0068290Y0049377D02*
X0066951Y0049377D01*
X0066951Y0049376D02*
X0068290Y0049376D01*
X0068290Y0049375D02*
X0066951Y0049375D01*
X0066951Y0049374D02*
X0068290Y0049374D01*
X0068290Y0049373D02*
X0066951Y0049373D01*
X0066951Y0049372D02*
X0068290Y0049372D01*
X0068290Y0049371D02*
X0066951Y0049371D01*
X0066951Y0049370D02*
X0068290Y0049370D01*
X0068290Y0049369D02*
X0066951Y0049369D01*
X0066951Y0049368D02*
X0068290Y0049368D01*
X0068290Y0049367D02*
X0066951Y0049367D01*
X0066951Y0049366D02*
X0068290Y0049366D01*
X0068290Y0049365D02*
X0066951Y0049365D01*
X0066951Y0049364D02*
X0068290Y0049364D01*
X0068290Y0049363D02*
X0066951Y0049363D01*
X0066951Y0049362D02*
X0068290Y0049362D01*
X0068290Y0049361D02*
X0066951Y0049361D01*
X0066951Y0049360D02*
X0068290Y0049360D01*
X0068290Y0049359D02*
X0066951Y0049359D01*
X0066951Y0049358D02*
X0068290Y0049358D01*
X0068290Y0049357D02*
X0066951Y0049357D01*
X0066951Y0049356D02*
X0068290Y0049356D01*
X0068290Y0049355D02*
X0066951Y0049355D01*
X0066951Y0049354D02*
X0068290Y0049354D01*
X0068290Y0049353D02*
X0066951Y0049353D01*
X0066951Y0049352D02*
X0068290Y0049352D01*
X0068290Y0049351D02*
X0066951Y0049351D01*
X0066951Y0049350D02*
X0068290Y0049350D01*
X0068290Y0049349D02*
X0066951Y0049349D01*
X0066951Y0049348D02*
X0068290Y0049348D01*
X0068290Y0049347D02*
X0066951Y0049347D01*
X0066951Y0049346D02*
X0068290Y0049346D01*
X0068290Y0049345D02*
X0066951Y0049345D01*
X0066951Y0049344D02*
X0068290Y0049344D01*
X0068290Y0049343D02*
X0066951Y0049343D01*
X0066951Y0049342D02*
X0068290Y0049342D01*
X0068290Y0049341D02*
X0066951Y0049341D01*
X0066951Y0049340D02*
X0068290Y0049340D01*
X0068290Y0049339D02*
X0066951Y0049339D01*
X0066951Y0049338D02*
X0068290Y0049338D01*
X0068290Y0049337D02*
X0066951Y0049337D01*
X0066951Y0049336D02*
X0068290Y0049336D01*
X0068290Y0049335D02*
X0066951Y0049335D01*
X0066951Y0049334D02*
X0068290Y0049334D01*
X0068290Y0049333D02*
X0066951Y0049333D01*
X0066951Y0049332D02*
X0068290Y0049332D01*
X0068290Y0049331D02*
X0066951Y0049331D01*
X0068290Y0049331D01*
X0068290Y0049330D02*
X0066951Y0049330D01*
X0066951Y0049329D02*
X0068290Y0049329D01*
X0068290Y0049328D02*
X0066951Y0049328D01*
X0066951Y0049327D02*
X0068290Y0049327D01*
X0068290Y0049326D02*
X0066951Y0049326D01*
X0066951Y0049325D02*
X0068290Y0049325D01*
X0068290Y0049324D02*
X0066951Y0049324D01*
X0066951Y0049323D02*
X0068290Y0049323D01*
X0068290Y0049322D02*
X0066951Y0049322D01*
X0066951Y0049321D02*
X0068290Y0049321D01*
X0068290Y0049320D02*
X0066951Y0049320D01*
X0066951Y0049319D02*
X0068290Y0049319D01*
X0068290Y0049318D02*
X0066951Y0049318D01*
X0066951Y0049317D02*
X0068290Y0049317D01*
X0068290Y0049316D02*
X0066951Y0049316D01*
X0066951Y0049315D02*
X0068290Y0049315D01*
X0068290Y0049314D02*
X0066951Y0049314D01*
X0066951Y0049313D02*
X0068290Y0049313D01*
X0068290Y0049312D02*
X0066951Y0049312D01*
X0066951Y0049311D02*
X0068290Y0049311D01*
X0068290Y0049310D02*
X0066951Y0049310D01*
X0066951Y0049309D02*
X0068290Y0049309D01*
X0068290Y0049308D02*
X0066951Y0049308D01*
X0066951Y0049307D02*
X0068290Y0049307D01*
X0068290Y0049306D02*
X0066951Y0049306D01*
X0066951Y0049305D02*
X0068290Y0049305D01*
X0068290Y0049304D02*
X0066951Y0049304D01*
X0066951Y0049303D02*
X0068290Y0049303D01*
X0068290Y0049302D02*
X0066951Y0049302D01*
X0066951Y0049301D02*
X0068290Y0049301D01*
X0068290Y0049300D02*
X0066951Y0049300D01*
X0066951Y0049299D02*
X0068290Y0049299D01*
X0068290Y0049298D02*
X0066951Y0049298D01*
X0066951Y0049297D02*
X0068290Y0049297D01*
X0068290Y0049296D02*
X0066951Y0049296D01*
X0066951Y0049295D02*
X0068290Y0049295D01*
X0068290Y0049294D02*
X0066951Y0049294D01*
X0066951Y0049293D02*
X0068290Y0049293D01*
X0068290Y0049292D02*
X0066951Y0049292D01*
X0066951Y0049291D02*
X0068290Y0049291D01*
X0068290Y0049290D02*
X0066951Y0049290D01*
X0066951Y0049289D02*
X0068290Y0049289D01*
X0068290Y0049288D02*
X0066951Y0049288D01*
X0066951Y0049287D02*
X0068290Y0049287D01*
X0068290Y0049286D02*
X0066951Y0049286D01*
X0066951Y0049285D02*
X0068290Y0049285D01*
X0068290Y0049284D02*
X0066951Y0049284D01*
X0066951Y0049283D02*
X0068290Y0049283D01*
X0068290Y0049282D02*
X0066951Y0049282D01*
X0066951Y0049281D02*
X0068290Y0049281D01*
X0068290Y0049280D02*
X0066951Y0049280D01*
X0066951Y0049279D02*
X0068290Y0049279D01*
X0068290Y0049278D02*
X0066951Y0049278D01*
X0066951Y0049277D02*
X0068290Y0049277D01*
X0068290Y0049276D02*
X0066951Y0049276D01*
X0066951Y0049275D02*
X0068290Y0049275D01*
X0068290Y0049274D02*
X0066951Y0049274D01*
X0066951Y0049273D02*
X0068290Y0049273D01*
X0068290Y0049272D02*
X0066951Y0049272D01*
X0066951Y0049271D02*
X0068290Y0049271D01*
X0068290Y0049270D02*
X0066951Y0049270D01*
X0066951Y0049269D02*
X0068290Y0049269D01*
X0066951Y0049269D01*
X0066951Y0049268D02*
X0068290Y0049268D01*
X0068290Y0049267D02*
X0066951Y0049267D01*
X0066951Y0049266D02*
X0068290Y0049266D01*
X0068290Y0049265D02*
X0066951Y0049265D01*
X0066951Y0049264D02*
X0068290Y0049264D01*
X0068290Y0049263D02*
X0066951Y0049263D01*
X0066951Y0049262D02*
X0068290Y0049262D01*
X0068290Y0049261D02*
X0066951Y0049261D01*
X0066951Y0049260D02*
X0068290Y0049260D01*
X0068290Y0049259D02*
X0066951Y0049259D01*
X0066951Y0049258D02*
X0068290Y0049258D01*
X0068290Y0049257D02*
X0066951Y0049257D01*
X0066951Y0049256D02*
X0068290Y0049256D01*
X0068290Y0049255D02*
X0066951Y0049255D01*
X0066951Y0049254D02*
X0068290Y0049254D01*
X0068290Y0049253D02*
X0066951Y0049253D01*
X0066951Y0049252D02*
X0068290Y0049252D01*
X0068290Y0049251D02*
X0066951Y0049251D01*
X0066951Y0049250D02*
X0068290Y0049250D01*
X0068290Y0049249D02*
X0066951Y0049249D01*
X0066951Y0049248D02*
X0068290Y0049248D01*
X0068290Y0049247D02*
X0066951Y0049247D01*
X0066951Y0049246D02*
X0068290Y0049246D01*
X0068290Y0049245D02*
X0066951Y0049245D01*
X0066951Y0049244D02*
X0068290Y0049244D01*
X0068290Y0049243D02*
X0066951Y0049243D01*
X0066951Y0049242D02*
X0068290Y0049242D01*
X0068290Y0049241D02*
X0066951Y0049241D01*
X0066951Y0049240D02*
X0068290Y0049240D01*
X0068290Y0049239D02*
X0066951Y0049239D01*
X0066951Y0049238D02*
X0068290Y0049238D01*
X0068290Y0049237D02*
X0066951Y0049237D01*
X0066951Y0049236D02*
X0068290Y0049236D01*
X0068290Y0049235D02*
X0066951Y0049235D01*
X0066951Y0049234D02*
X0068290Y0049234D01*
X0068290Y0049233D02*
X0066951Y0049233D01*
X0066951Y0049232D02*
X0068290Y0049232D01*
X0068290Y0049231D02*
X0066951Y0049231D01*
X0066951Y0049230D02*
X0068290Y0049230D01*
X0068290Y0049229D02*
X0066951Y0049229D01*
X0066951Y0049228D02*
X0068290Y0049228D01*
X0068290Y0049227D02*
X0066951Y0049227D01*
X0066951Y0049226D02*
X0068290Y0049226D01*
X0068290Y0049225D02*
X0066951Y0049225D01*
X0066951Y0049224D02*
X0068290Y0049224D01*
X0068290Y0049223D02*
X0066951Y0049223D01*
X0066951Y0049222D02*
X0068290Y0049222D01*
X0068290Y0049221D02*
X0066951Y0049221D01*
X0066951Y0049220D02*
X0068290Y0049220D01*
X0068290Y0049219D02*
X0066951Y0049219D01*
X0066951Y0049218D02*
X0068290Y0049218D01*
X0068290Y0049217D02*
X0066951Y0049217D01*
X0066951Y0049216D02*
X0068290Y0049216D01*
X0068290Y0049215D02*
X0066951Y0049215D01*
X0066951Y0049214D02*
X0068290Y0049214D01*
X0068290Y0049213D02*
X0066951Y0049213D01*
X0066951Y0049212D02*
X0068290Y0049212D01*
X0068290Y0049211D02*
X0066951Y0049211D01*
X0066951Y0049210D02*
X0068290Y0049210D01*
X0068290Y0049209D02*
X0066951Y0049209D01*
X0066951Y0049208D02*
X0068290Y0049208D01*
X0068290Y0049207D02*
X0066951Y0049207D01*
X0066951Y0049206D02*
X0068290Y0049206D01*
X0066951Y0049206D01*
X0066951Y0049205D02*
X0068290Y0049205D01*
X0068290Y0049204D02*
X0066951Y0049204D01*
X0066951Y0049203D02*
X0068290Y0049203D01*
X0068290Y0049202D02*
X0066951Y0049202D01*
X0066951Y0049201D02*
X0068290Y0049201D01*
X0068290Y0049200D02*
X0066951Y0049200D01*
X0066951Y0049199D02*
X0068290Y0049199D01*
X0068290Y0049198D02*
X0066951Y0049198D01*
X0066951Y0049197D02*
X0068290Y0049197D01*
X0068290Y0049196D02*
X0066951Y0049196D01*
X0066951Y0049195D02*
X0068290Y0049195D01*
X0068290Y0049194D02*
X0066951Y0049194D01*
X0066951Y0049193D02*
X0068290Y0049193D01*
X0068290Y0049192D02*
X0066951Y0049192D01*
X0066951Y0049191D02*
X0068290Y0049191D01*
X0068290Y0049190D02*
X0066951Y0049190D01*
X0066951Y0049189D02*
X0068290Y0049189D01*
X0068290Y0049188D02*
X0066951Y0049188D01*
X0066951Y0049187D02*
X0068290Y0049187D01*
X0068290Y0049186D02*
X0066951Y0049186D01*
X0066951Y0049185D02*
X0068290Y0049185D01*
X0068290Y0049184D02*
X0066951Y0049184D01*
X0066951Y0049183D02*
X0068290Y0049183D01*
X0068290Y0049182D02*
X0066951Y0049182D01*
X0066951Y0049181D02*
X0068290Y0049181D01*
X0068290Y0049180D02*
X0066951Y0049180D01*
X0066951Y0049179D02*
X0068290Y0049179D01*
X0068290Y0049178D02*
X0066951Y0049178D01*
X0066951Y0049177D02*
X0068290Y0049177D01*
X0068290Y0049176D02*
X0066951Y0049176D01*
X0066951Y0049175D02*
X0068290Y0049175D01*
X0068290Y0049174D02*
X0066951Y0049174D01*
X0066951Y0049173D02*
X0068290Y0049173D01*
X0068290Y0049172D02*
X0066951Y0049172D01*
X0066951Y0049171D02*
X0068290Y0049171D01*
X0068290Y0049170D02*
X0066951Y0049170D01*
X0066951Y0049169D02*
X0068290Y0049169D01*
X0068290Y0049168D02*
X0066951Y0049168D01*
X0066951Y0049167D02*
X0068290Y0049167D01*
X0068290Y0049166D02*
X0066951Y0049166D01*
X0066951Y0049165D02*
X0068290Y0049165D01*
X0068290Y0049164D02*
X0066951Y0049164D01*
X0066951Y0049163D02*
X0068290Y0049163D01*
X0068290Y0049162D02*
X0066951Y0049162D01*
X0066951Y0049161D02*
X0068290Y0049161D01*
X0068290Y0049160D02*
X0066951Y0049160D01*
X0066951Y0049159D02*
X0068290Y0049159D01*
X0068290Y0049158D02*
X0066951Y0049158D01*
X0066951Y0049157D02*
X0068290Y0049157D01*
X0068290Y0049156D02*
X0066951Y0049156D01*
X0066951Y0049155D02*
X0068290Y0049155D01*
X0068290Y0049154D02*
X0066951Y0049154D01*
X0066951Y0049153D02*
X0068290Y0049153D01*
X0068290Y0049152D02*
X0066951Y0049152D01*
X0066951Y0049151D02*
X0068290Y0049151D01*
X0068290Y0049150D02*
X0066951Y0049150D01*
X0066951Y0049149D02*
X0068290Y0049149D01*
X0068290Y0049148D02*
X0066951Y0049148D01*
X0066951Y0049147D02*
X0068290Y0049147D01*
X0068290Y0049146D02*
X0066951Y0049146D01*
X0066951Y0049145D02*
X0068290Y0049145D01*
X0068290Y0049144D02*
X0066951Y0049144D01*
X0068290Y0049144D01*
X0068290Y0049143D02*
X0066951Y0049143D01*
X0066951Y0049142D02*
X0068290Y0049142D01*
X0068290Y0049141D02*
X0066951Y0049141D01*
X0066951Y0049140D02*
X0068290Y0049140D01*
X0068290Y0049139D02*
X0066951Y0049139D01*
X0066951Y0049138D02*
X0068290Y0049138D01*
X0068290Y0049137D02*
X0066951Y0049137D01*
X0066951Y0049136D02*
X0068290Y0049136D01*
X0068290Y0049135D02*
X0066951Y0049135D01*
X0066951Y0049134D02*
X0068290Y0049134D01*
X0068290Y0049133D02*
X0066951Y0049133D01*
X0066951Y0049132D02*
X0068290Y0049132D01*
X0068290Y0049131D02*
X0066951Y0049131D01*
X0066951Y0049130D02*
X0068290Y0049130D01*
X0068290Y0049129D02*
X0066951Y0049129D01*
X0066951Y0049128D02*
X0068290Y0049128D01*
X0068290Y0049127D02*
X0066951Y0049127D01*
X0066951Y0049126D02*
X0068290Y0049126D01*
X0068290Y0049125D02*
X0066951Y0049125D01*
X0066951Y0049124D02*
X0068290Y0049124D01*
X0068290Y0049123D02*
X0066951Y0049123D01*
X0066951Y0049122D02*
X0068290Y0049122D01*
X0068290Y0049121D02*
X0066951Y0049121D01*
X0066951Y0049120D02*
X0068290Y0049120D01*
X0068290Y0049119D02*
X0066951Y0049119D01*
X0066951Y0049118D02*
X0068290Y0049118D01*
X0068290Y0049117D02*
X0066951Y0049117D01*
X0066951Y0049116D02*
X0068290Y0049116D01*
X0068290Y0049115D02*
X0066951Y0049115D01*
X0066951Y0049114D02*
X0068290Y0049114D01*
X0068290Y0049113D02*
X0066951Y0049113D01*
X0066951Y0049112D02*
X0068290Y0049112D01*
X0068290Y0049111D02*
X0066951Y0049111D01*
X0066951Y0049110D02*
X0068290Y0049110D01*
X0068290Y0049109D02*
X0066951Y0049109D01*
X0066951Y0049108D02*
X0068290Y0049108D01*
X0068290Y0049107D02*
X0066951Y0049107D01*
X0066951Y0049106D02*
X0068290Y0049106D01*
X0068290Y0049105D02*
X0066951Y0049105D01*
X0066951Y0049104D02*
X0068290Y0049104D01*
X0068290Y0049103D02*
X0066951Y0049103D01*
X0066951Y0049102D02*
X0068290Y0049102D01*
X0068290Y0049101D02*
X0066951Y0049101D01*
X0066951Y0049100D02*
X0068290Y0049100D01*
X0068290Y0049099D02*
X0066951Y0049099D01*
X0066951Y0049098D02*
X0068290Y0049098D01*
X0068290Y0049097D02*
X0066951Y0049097D01*
X0066951Y0049096D02*
X0068290Y0049096D01*
X0068290Y0049095D02*
X0066951Y0049095D01*
X0066951Y0049094D02*
X0068290Y0049094D01*
X0068290Y0049093D02*
X0066951Y0049093D01*
X0066951Y0049092D02*
X0068290Y0049092D01*
X0068290Y0049091D02*
X0066951Y0049091D01*
X0066951Y0049090D02*
X0068290Y0049090D01*
X0068290Y0049089D02*
X0066951Y0049089D01*
X0066951Y0049088D02*
X0068290Y0049088D01*
X0068290Y0049087D02*
X0066951Y0049087D01*
X0066951Y0049086D02*
X0068290Y0049086D01*
X0068290Y0049085D02*
X0066951Y0049085D01*
X0066951Y0049084D02*
X0068290Y0049084D01*
X0068290Y0049083D02*
X0066951Y0049083D01*
X0066951Y0049082D02*
X0068290Y0049082D01*
X0068290Y0049081D02*
X0066951Y0049081D01*
X0068290Y0049081D01*
X0068290Y0049080D02*
X0066951Y0049080D01*
X0066951Y0049079D02*
X0068290Y0049079D01*
X0068290Y0049078D02*
X0066951Y0049078D01*
X0066951Y0049077D02*
X0068290Y0049077D01*
X0068290Y0049076D02*
X0066951Y0049076D01*
X0066951Y0049075D02*
X0068290Y0049075D01*
X0068290Y0049074D02*
X0066951Y0049074D01*
X0066951Y0049073D02*
X0068290Y0049073D01*
X0068290Y0049072D02*
X0066951Y0049072D01*
X0066951Y0049071D02*
X0068290Y0049071D01*
X0068290Y0049070D02*
X0066951Y0049070D01*
X0066951Y0049069D02*
X0068290Y0049069D01*
X0068290Y0049068D02*
X0066951Y0049068D01*
X0066951Y0049067D02*
X0068290Y0049067D01*
X0068290Y0049066D02*
X0066951Y0049066D01*
X0066951Y0049065D02*
X0068290Y0049065D01*
X0068290Y0049064D02*
X0066951Y0049064D01*
X0066951Y0049063D02*
X0068290Y0049063D01*
X0068290Y0049062D02*
X0066951Y0049062D01*
X0066951Y0049061D02*
X0068290Y0049061D01*
X0068290Y0049060D02*
X0066951Y0049060D01*
X0066951Y0049059D02*
X0068290Y0049059D01*
X0068290Y0049058D02*
X0066951Y0049058D01*
X0066951Y0049057D02*
X0068290Y0049057D01*
X0068290Y0049056D02*
X0066951Y0049056D01*
X0066951Y0049055D02*
X0068290Y0049055D01*
X0068290Y0049054D02*
X0066951Y0049054D01*
X0066951Y0049053D02*
X0068290Y0049053D01*
X0068290Y0049052D02*
X0066951Y0049052D01*
X0066951Y0049051D02*
X0068290Y0049051D01*
X0068290Y0049050D02*
X0066951Y0049050D01*
X0066951Y0049049D02*
X0068290Y0049049D01*
X0068290Y0049048D02*
X0066951Y0049048D01*
X0066951Y0049047D02*
X0068290Y0049047D01*
X0068290Y0049046D02*
X0066951Y0049046D01*
X0066951Y0049045D02*
X0068290Y0049045D01*
X0068290Y0049044D02*
X0066951Y0049044D01*
X0066951Y0049043D02*
X0068290Y0049043D01*
X0068290Y0049042D02*
X0066951Y0049042D01*
X0066951Y0049041D02*
X0068290Y0049041D01*
X0068290Y0049040D02*
X0066951Y0049040D01*
X0066951Y0049039D02*
X0068290Y0049039D01*
X0068290Y0049038D02*
X0066951Y0049038D01*
X0066951Y0049037D02*
X0068290Y0049037D01*
X0068290Y0049036D02*
X0066951Y0049036D01*
X0066951Y0049035D02*
X0068290Y0049035D01*
X0068290Y0049034D02*
X0066951Y0049034D01*
X0066951Y0049033D02*
X0068290Y0049033D01*
X0068290Y0049032D02*
X0066951Y0049032D01*
X0066951Y0049031D02*
X0068290Y0049031D01*
X0068290Y0049030D02*
X0066951Y0049030D01*
X0066951Y0049029D02*
X0068290Y0049029D01*
X0068290Y0049028D02*
X0066951Y0049028D01*
X0066951Y0049027D02*
X0068290Y0049027D01*
X0068290Y0049026D02*
X0066951Y0049026D01*
X0066951Y0049025D02*
X0068290Y0049025D01*
X0068290Y0049024D02*
X0066951Y0049024D01*
X0066951Y0049023D02*
X0068290Y0049023D01*
X0068290Y0049022D02*
X0066951Y0049022D01*
X0066951Y0049021D02*
X0068290Y0049021D01*
X0068290Y0049020D02*
X0066951Y0049020D01*
X0066951Y0049019D02*
X0068290Y0049019D01*
X0066951Y0049019D01*
X0066951Y0049018D02*
X0068290Y0049018D01*
X0068290Y0049017D02*
X0066951Y0049017D01*
X0066951Y0049016D02*
X0068290Y0049016D01*
X0068290Y0049015D02*
X0066951Y0049015D01*
X0066951Y0049014D02*
X0068290Y0049014D01*
X0068290Y0049013D02*
X0066951Y0049013D01*
X0066951Y0049012D02*
X0068290Y0049012D01*
X0068290Y0049011D02*
X0066951Y0049011D01*
X0066951Y0049010D02*
X0068290Y0049010D01*
X0068290Y0049009D02*
X0066951Y0049009D01*
X0066951Y0049008D02*
X0068290Y0049008D01*
X0068290Y0049007D02*
X0066951Y0049007D01*
X0066951Y0049006D02*
X0068290Y0049006D01*
X0068290Y0049005D02*
X0066951Y0049005D01*
X0066951Y0049004D02*
X0068290Y0049004D01*
X0068290Y0049003D02*
X0066951Y0049003D01*
X0066951Y0049002D02*
X0068290Y0049002D01*
X0068290Y0049001D02*
X0066951Y0049001D01*
X0066951Y0049000D02*
X0068290Y0049000D01*
X0068290Y0048999D02*
X0066951Y0048999D01*
X0066951Y0048998D02*
X0068290Y0048998D01*
X0068290Y0048997D02*
X0066951Y0048997D01*
X0066951Y0048996D02*
X0068290Y0048996D01*
X0068290Y0048995D02*
X0066951Y0048995D01*
X0066951Y0048994D02*
X0068290Y0048994D01*
X0068290Y0048993D02*
X0066951Y0048993D01*
X0066951Y0048992D02*
X0068290Y0048992D01*
X0068290Y0048991D02*
X0066951Y0048991D01*
X0066951Y0048990D02*
X0068290Y0048990D01*
X0068290Y0048989D02*
X0066951Y0048989D01*
X0066951Y0048988D02*
X0068290Y0048988D01*
X0068290Y0048987D02*
X0066951Y0048987D01*
X0066951Y0048986D02*
X0068290Y0048986D01*
X0068290Y0048985D02*
X0066951Y0048985D01*
X0066951Y0048984D02*
X0068290Y0048984D01*
X0068290Y0048983D02*
X0066951Y0048983D01*
X0066951Y0048982D02*
X0068290Y0048982D01*
X0068290Y0048981D02*
X0066951Y0048981D01*
X0066951Y0048980D02*
X0068290Y0048980D01*
X0068290Y0048979D02*
X0066951Y0048979D01*
X0066951Y0048978D02*
X0068290Y0048978D01*
X0068290Y0048977D02*
X0066951Y0048977D01*
X0066951Y0048976D02*
X0068290Y0048976D01*
X0068290Y0048975D02*
X0066951Y0048975D01*
X0066951Y0048974D02*
X0068290Y0048974D01*
X0068290Y0048973D02*
X0066951Y0048973D01*
X0066951Y0048972D02*
X0068290Y0048972D01*
X0068290Y0048971D02*
X0066951Y0048971D01*
X0066951Y0048970D02*
X0068290Y0048970D01*
X0068290Y0048969D02*
X0066951Y0048969D01*
X0066951Y0048968D02*
X0068290Y0048968D01*
X0068290Y0048967D02*
X0066951Y0048967D01*
X0066951Y0048966D02*
X0068290Y0048966D01*
X0068290Y0048965D02*
X0066951Y0048965D01*
X0066951Y0048964D02*
X0068290Y0048964D01*
X0068290Y0048963D02*
X0066951Y0048963D01*
X0066951Y0048962D02*
X0068290Y0048962D01*
X0068290Y0048961D02*
X0066951Y0048961D01*
X0066951Y0048960D02*
X0068290Y0048960D01*
X0068290Y0048959D02*
X0066951Y0048959D01*
X0066951Y0048958D02*
X0068290Y0048958D01*
X0068290Y0048957D02*
X0066951Y0048957D01*
X0066951Y0048956D02*
X0068290Y0048956D01*
X0066951Y0048956D01*
X0066951Y0048955D02*
X0068290Y0048955D01*
X0068290Y0048954D02*
X0066951Y0048954D01*
X0066951Y0048953D02*
X0068290Y0048953D01*
X0068290Y0048952D02*
X0066951Y0048952D01*
X0066951Y0048951D02*
X0068290Y0048951D01*
X0068290Y0048950D02*
X0066951Y0048950D01*
X0066951Y0048949D02*
X0068290Y0048949D01*
X0068290Y0048948D02*
X0066951Y0048948D01*
X0066951Y0048947D02*
X0068290Y0048947D01*
X0068290Y0048946D02*
X0066951Y0048946D01*
X0066951Y0048945D02*
X0068290Y0048945D01*
X0068290Y0048944D02*
X0066951Y0048944D01*
X0066951Y0048943D02*
X0068290Y0048943D01*
X0068290Y0048942D02*
X0066951Y0048942D01*
X0066951Y0048941D02*
X0068290Y0048941D01*
X0068290Y0048940D02*
X0066951Y0048940D01*
X0066951Y0048939D02*
X0068290Y0048939D01*
X0068290Y0048938D02*
X0066951Y0048938D01*
X0066951Y0048937D02*
X0068290Y0048937D01*
X0068290Y0048936D02*
X0066951Y0048936D01*
X0066951Y0048935D02*
X0068290Y0048935D01*
X0068290Y0048934D02*
X0066951Y0048934D01*
X0066951Y0048933D02*
X0068290Y0048933D01*
X0068290Y0048932D02*
X0066951Y0048932D01*
X0066951Y0048931D02*
X0068290Y0048931D01*
X0068290Y0048930D02*
X0066951Y0048930D01*
X0066951Y0048929D02*
X0068290Y0048929D01*
X0068290Y0048928D02*
X0066951Y0048928D01*
X0066951Y0048927D02*
X0068290Y0048927D01*
X0068290Y0048926D02*
X0066951Y0048926D01*
X0066951Y0048925D02*
X0068290Y0048925D01*
X0068290Y0048924D02*
X0066951Y0048924D01*
X0066951Y0048923D02*
X0068290Y0048923D01*
X0068290Y0048922D02*
X0066951Y0048922D01*
X0066951Y0048921D02*
X0068290Y0048921D01*
X0068290Y0048920D02*
X0066951Y0048920D01*
X0066951Y0048919D02*
X0068290Y0048919D01*
X0068290Y0048918D02*
X0066951Y0048918D01*
X0066951Y0048917D02*
X0068290Y0048917D01*
X0068290Y0048916D02*
X0066951Y0048916D01*
X0066951Y0048915D02*
X0068290Y0048915D01*
X0068290Y0048914D02*
X0066951Y0048914D01*
X0066951Y0048913D02*
X0068290Y0048913D01*
X0068290Y0048912D02*
X0066951Y0048912D01*
X0066951Y0048911D02*
X0068290Y0048911D01*
X0068290Y0048910D02*
X0066951Y0048910D01*
X0066951Y0048909D02*
X0068290Y0048909D01*
X0068290Y0048908D02*
X0066951Y0048908D01*
X0066951Y0048907D02*
X0068290Y0048907D01*
X0068290Y0048906D02*
X0066951Y0048906D01*
X0066951Y0048905D02*
X0068290Y0048905D01*
X0068290Y0048904D02*
X0066951Y0048904D01*
X0066951Y0048903D02*
X0068290Y0048903D01*
X0068290Y0048902D02*
X0066951Y0048902D01*
X0066951Y0048901D02*
X0068290Y0048901D01*
X0068290Y0048900D02*
X0066951Y0048900D01*
X0066951Y0048899D02*
X0068290Y0048899D01*
X0068290Y0048898D02*
X0066951Y0048898D01*
X0066951Y0048897D02*
X0068290Y0048897D01*
X0068290Y0048896D02*
X0066951Y0048896D01*
X0066951Y0048895D02*
X0068290Y0048895D01*
X0068290Y0048894D02*
X0066951Y0048894D01*
X0068290Y0048894D01*
X0068290Y0048893D02*
X0066951Y0048893D01*
X0066951Y0048892D02*
X0068290Y0048892D01*
X0068290Y0048891D02*
X0066951Y0048891D01*
X0066951Y0048890D02*
X0068290Y0048890D01*
X0068290Y0048889D02*
X0066951Y0048889D01*
X0066951Y0048888D02*
X0068290Y0048888D01*
X0068290Y0048887D02*
X0066951Y0048887D01*
X0066951Y0048886D02*
X0068290Y0048886D01*
X0068290Y0048885D02*
X0066951Y0048885D01*
X0066951Y0048884D02*
X0068290Y0048884D01*
X0068290Y0048883D02*
X0066951Y0048883D01*
X0066951Y0048882D02*
X0068290Y0048882D01*
X0068290Y0048881D02*
X0066951Y0048881D01*
X0066951Y0048880D02*
X0068290Y0048880D01*
X0068290Y0048879D02*
X0066951Y0048879D01*
X0066951Y0048878D02*
X0068290Y0048878D01*
X0068290Y0048877D02*
X0066951Y0048877D01*
X0066951Y0048876D02*
X0068290Y0048876D01*
X0068290Y0048875D02*
X0066951Y0048875D01*
X0066951Y0048874D02*
X0068290Y0048874D01*
X0068290Y0048873D02*
X0066951Y0048873D01*
X0066951Y0048872D02*
X0068290Y0048872D01*
X0068290Y0048871D02*
X0066951Y0048871D01*
X0066951Y0048870D02*
X0068290Y0048870D01*
X0068290Y0048869D02*
X0066951Y0048869D01*
X0066951Y0048868D02*
X0068290Y0048868D01*
X0068290Y0048867D02*
X0066951Y0048867D01*
X0066951Y0048866D02*
X0068290Y0048866D01*
X0068290Y0048865D02*
X0066951Y0048865D01*
X0066951Y0048864D02*
X0068290Y0048864D01*
X0068290Y0048863D02*
X0066951Y0048863D01*
X0066951Y0048862D02*
X0068290Y0048862D01*
X0068290Y0048861D02*
X0066951Y0048861D01*
X0066951Y0048860D02*
X0068290Y0048860D01*
X0068290Y0048859D02*
X0066951Y0048859D01*
X0066951Y0048858D02*
X0068290Y0048858D01*
X0068290Y0048857D02*
X0066951Y0048857D01*
X0066951Y0048856D02*
X0068290Y0048856D01*
X0068290Y0048855D02*
X0066951Y0048855D01*
X0066951Y0048854D02*
X0068290Y0048854D01*
X0068290Y0048853D02*
X0066951Y0048853D01*
X0066951Y0048852D02*
X0068290Y0048852D01*
X0068290Y0048851D02*
X0066951Y0048851D01*
X0066951Y0048850D02*
X0068290Y0048850D01*
X0068290Y0048849D02*
X0066951Y0048849D01*
X0066951Y0048848D02*
X0068290Y0048848D01*
X0068290Y0048847D02*
X0066951Y0048847D01*
X0066951Y0048846D02*
X0068290Y0048846D01*
X0068290Y0048845D02*
X0066951Y0048845D01*
X0066951Y0048844D02*
X0068290Y0048844D01*
X0068290Y0048843D02*
X0066951Y0048843D01*
X0066951Y0048842D02*
X0068290Y0048842D01*
X0068290Y0048841D02*
X0066951Y0048841D01*
X0066951Y0048840D02*
X0068290Y0048840D01*
X0068290Y0048839D02*
X0066951Y0048839D01*
X0066951Y0048838D02*
X0068290Y0048838D01*
X0068290Y0048837D02*
X0066951Y0048837D01*
X0066951Y0048836D02*
X0068290Y0048836D01*
X0068290Y0048835D02*
X0066951Y0048835D01*
X0066951Y0048834D02*
X0068290Y0048834D01*
X0068290Y0048833D02*
X0066951Y0048833D01*
X0066951Y0048832D02*
X0068290Y0048832D01*
X0068290Y0048831D02*
X0066951Y0048831D01*
X0068290Y0048831D01*
X0068290Y0048830D02*
X0066951Y0048830D01*
X0066951Y0048829D02*
X0068290Y0048829D01*
X0068290Y0048828D02*
X0066951Y0048828D01*
X0066951Y0048827D02*
X0068290Y0048827D01*
X0068290Y0048826D02*
X0066951Y0048826D01*
X0066951Y0048825D02*
X0068290Y0048825D01*
X0068290Y0048824D02*
X0066951Y0048824D01*
X0066951Y0048823D02*
X0068290Y0048823D01*
X0068290Y0048822D02*
X0066951Y0048822D01*
X0066951Y0048821D02*
X0068290Y0048821D01*
X0068290Y0048820D02*
X0066951Y0048820D01*
X0066951Y0048819D02*
X0068290Y0048819D01*
X0068290Y0048818D02*
X0066951Y0048818D01*
X0066951Y0048817D02*
X0068290Y0048817D01*
X0068290Y0048816D02*
X0066951Y0048816D01*
X0066951Y0048815D02*
X0068290Y0048815D01*
X0068290Y0048814D02*
X0066951Y0048814D01*
X0066951Y0048813D02*
X0068290Y0048813D01*
X0068290Y0048812D02*
X0066951Y0048812D01*
X0066951Y0048811D02*
X0068290Y0048811D01*
X0068290Y0048810D02*
X0066951Y0048810D01*
X0066951Y0048809D02*
X0068290Y0048809D01*
X0068290Y0048808D02*
X0066951Y0048808D01*
X0066951Y0048807D02*
X0068290Y0048807D01*
X0068290Y0048806D02*
X0066951Y0048806D01*
X0066951Y0048805D02*
X0068290Y0048805D01*
X0068290Y0048804D02*
X0066951Y0048804D01*
X0066951Y0048803D02*
X0068290Y0048803D01*
X0068290Y0048802D02*
X0066951Y0048802D01*
X0066951Y0048801D02*
X0068290Y0048801D01*
X0068290Y0048800D02*
X0066951Y0048800D01*
X0066951Y0048799D02*
X0068290Y0048799D01*
X0068290Y0048798D02*
X0066951Y0048798D01*
X0066951Y0048797D02*
X0068290Y0048797D01*
X0068290Y0048796D02*
X0066951Y0048796D01*
X0066951Y0048795D02*
X0068290Y0048795D01*
X0068290Y0048794D02*
X0066951Y0048794D01*
X0066951Y0048793D02*
X0068290Y0048793D01*
X0068290Y0048792D02*
X0066951Y0048792D01*
X0066951Y0048791D02*
X0068290Y0048791D01*
X0068290Y0048790D02*
X0066951Y0048790D01*
X0066951Y0048789D02*
X0068290Y0048789D01*
X0068290Y0048788D02*
X0066951Y0048788D01*
X0066951Y0048787D02*
X0068290Y0048787D01*
X0068290Y0048786D02*
X0066951Y0048786D01*
X0066951Y0048785D02*
X0068290Y0048785D01*
X0068290Y0048784D02*
X0066951Y0048784D01*
X0066951Y0048783D02*
X0068290Y0048783D01*
X0068290Y0048782D02*
X0066951Y0048782D01*
X0066951Y0048781D02*
X0068290Y0048781D01*
X0068290Y0048780D02*
X0066951Y0048780D01*
X0066951Y0048779D02*
X0068290Y0048779D01*
X0068290Y0048778D02*
X0066951Y0048778D01*
X0066951Y0048777D02*
X0068290Y0048777D01*
X0068290Y0048776D02*
X0066951Y0048776D01*
X0066951Y0048775D02*
X0068290Y0048775D01*
X0068290Y0048774D02*
X0066951Y0048774D01*
X0066951Y0048773D02*
X0068290Y0048773D01*
X0068290Y0048772D02*
X0066951Y0048772D01*
X0066951Y0048771D02*
X0068290Y0048771D01*
X0068290Y0048770D02*
X0066951Y0048770D01*
X0066951Y0048769D02*
X0068290Y0048769D01*
X0066951Y0048769D01*
X0066951Y0048768D02*
X0068290Y0048768D01*
X0068290Y0048767D02*
X0066951Y0048767D01*
X0066951Y0048766D02*
X0068290Y0048766D01*
X0068290Y0048765D02*
X0066951Y0048765D01*
X0066951Y0048764D02*
X0068290Y0048764D01*
X0068290Y0048763D02*
X0066951Y0048763D01*
X0066951Y0048762D02*
X0068290Y0048762D01*
X0068290Y0048761D02*
X0066951Y0048761D01*
X0066951Y0048760D02*
X0068290Y0048760D01*
X0068290Y0048759D02*
X0066951Y0048759D01*
X0066951Y0048758D02*
X0068290Y0048758D01*
X0068290Y0048757D02*
X0066951Y0048757D01*
X0066951Y0048756D02*
X0068290Y0048756D01*
X0068290Y0048755D02*
X0066951Y0048755D01*
X0066951Y0048754D02*
X0068290Y0048754D01*
X0068290Y0048753D02*
X0066951Y0048753D01*
X0066951Y0048752D02*
X0068290Y0048752D01*
X0068290Y0048751D02*
X0066951Y0048751D01*
X0066951Y0048750D02*
X0068290Y0048750D01*
X0068290Y0048749D02*
X0066951Y0048749D01*
X0066951Y0048748D02*
X0068290Y0048748D01*
X0068290Y0048747D02*
X0066951Y0048747D01*
X0066951Y0048746D02*
X0068290Y0048746D01*
X0068290Y0048745D02*
X0066951Y0048745D01*
X0066951Y0048744D02*
X0068290Y0048744D01*
X0068290Y0048743D02*
X0066951Y0048743D01*
X0066951Y0048742D02*
X0068290Y0048742D01*
X0068290Y0048741D02*
X0066951Y0048741D01*
X0066951Y0048740D02*
X0068290Y0048740D01*
X0068290Y0048739D02*
X0066951Y0048739D01*
X0066951Y0048738D02*
X0068290Y0048738D01*
X0068290Y0048737D02*
X0066951Y0048737D01*
X0066951Y0048736D02*
X0068290Y0048736D01*
X0068290Y0048735D02*
X0066951Y0048735D01*
X0066951Y0048734D02*
X0068290Y0048734D01*
X0068290Y0048733D02*
X0066951Y0048733D01*
X0066951Y0048732D02*
X0068290Y0048732D01*
X0068290Y0048731D02*
X0066951Y0048731D01*
X0066951Y0048730D02*
X0068290Y0048730D01*
X0068290Y0048729D02*
X0066951Y0048729D01*
X0066951Y0048728D02*
X0068290Y0048728D01*
X0068290Y0048727D02*
X0066951Y0048727D01*
X0066951Y0048726D02*
X0068290Y0048726D01*
X0068290Y0048725D02*
X0066951Y0048725D01*
X0066951Y0048724D02*
X0068290Y0048724D01*
X0068290Y0048723D02*
X0066951Y0048723D01*
X0066951Y0048722D02*
X0068290Y0048722D01*
X0068290Y0048721D02*
X0066951Y0048721D01*
X0066951Y0048720D02*
X0068290Y0048720D01*
X0068290Y0048719D02*
X0066951Y0048719D01*
X0066951Y0048718D02*
X0068290Y0048718D01*
X0068290Y0048717D02*
X0066951Y0048717D01*
X0066951Y0048716D02*
X0068290Y0048716D01*
X0068290Y0048715D02*
X0066951Y0048715D01*
X0066951Y0048714D02*
X0068290Y0048714D01*
X0068290Y0048713D02*
X0066951Y0048713D01*
X0066951Y0048712D02*
X0068290Y0048712D01*
X0068290Y0048711D02*
X0066951Y0048711D01*
X0066951Y0048710D02*
X0068290Y0048710D01*
X0068290Y0048709D02*
X0066951Y0048709D01*
X0066951Y0048708D02*
X0068290Y0048708D01*
X0068290Y0048707D02*
X0066951Y0048707D01*
X0066951Y0048706D02*
X0068290Y0048706D01*
X0066951Y0048706D01*
X0066951Y0048705D02*
X0068290Y0048705D01*
X0068290Y0048704D02*
X0066951Y0048704D01*
X0066951Y0048703D02*
X0068290Y0048703D01*
X0068290Y0048702D02*
X0066951Y0048702D01*
X0066951Y0048701D02*
X0068290Y0048701D01*
X0068290Y0048700D02*
X0066951Y0048700D01*
X0066951Y0048699D02*
X0068290Y0048699D01*
X0068290Y0048698D02*
X0066951Y0048698D01*
X0066951Y0048697D02*
X0068290Y0048697D01*
X0068290Y0048696D02*
X0066951Y0048696D01*
X0066951Y0048695D02*
X0068290Y0048695D01*
X0068290Y0048694D02*
X0066951Y0048694D01*
X0066951Y0048693D02*
X0068290Y0048693D01*
X0068290Y0048692D02*
X0066951Y0048692D01*
X0066951Y0048691D02*
X0068290Y0048691D01*
X0068290Y0048690D02*
X0066951Y0048690D01*
X0066951Y0048689D02*
X0068290Y0048689D01*
X0068290Y0048688D02*
X0066951Y0048688D01*
X0066951Y0048687D02*
X0068290Y0048687D01*
X0068290Y0048686D02*
X0066951Y0048686D01*
X0066951Y0048685D02*
X0068290Y0048685D01*
X0068290Y0048684D02*
X0066951Y0048684D01*
X0066951Y0048683D02*
X0068290Y0048683D01*
X0068290Y0048682D02*
X0066951Y0048682D01*
X0066951Y0048681D02*
X0068290Y0048681D01*
X0068290Y0048680D02*
X0066951Y0048680D01*
X0066951Y0048679D02*
X0068290Y0048679D01*
X0068290Y0048678D02*
X0066951Y0048678D01*
X0066951Y0048677D02*
X0068290Y0048677D01*
X0068290Y0048676D02*
X0066951Y0048676D01*
X0066951Y0048675D02*
X0068290Y0048675D01*
X0068290Y0048674D02*
X0066951Y0048674D01*
X0066951Y0048673D02*
X0068290Y0048673D01*
X0068290Y0048672D02*
X0066951Y0048672D01*
X0066951Y0048671D02*
X0068290Y0048671D01*
X0068290Y0048670D02*
X0066951Y0048670D01*
X0066951Y0048669D02*
X0068290Y0048669D01*
X0068290Y0048668D02*
X0066951Y0048668D01*
X0066951Y0048667D02*
X0068290Y0048667D01*
X0068290Y0048666D02*
X0066951Y0048666D01*
X0066951Y0048665D02*
X0068290Y0048665D01*
X0068290Y0048664D02*
X0066951Y0048664D01*
X0066951Y0048663D02*
X0068290Y0048663D01*
X0068290Y0048662D02*
X0066951Y0048662D01*
X0066951Y0048661D02*
X0068290Y0048661D01*
X0068290Y0048660D02*
X0066951Y0048660D01*
X0066951Y0048659D02*
X0068290Y0048659D01*
X0068290Y0048658D02*
X0066951Y0048658D01*
X0066951Y0048657D02*
X0068290Y0048657D01*
X0068290Y0048656D02*
X0066951Y0048656D01*
X0066951Y0048655D02*
X0068290Y0048655D01*
X0068290Y0048654D02*
X0066951Y0048654D01*
X0066951Y0048653D02*
X0068290Y0048653D01*
X0068290Y0048652D02*
X0066951Y0048652D01*
X0066951Y0048651D02*
X0068290Y0048651D01*
X0068290Y0048650D02*
X0066951Y0048650D01*
X0066951Y0048649D02*
X0068290Y0048649D01*
X0068290Y0048648D02*
X0066951Y0048648D01*
X0066951Y0048647D02*
X0068290Y0048647D01*
X0068290Y0048646D02*
X0066951Y0048646D01*
X0066951Y0048645D02*
X0068290Y0048645D01*
X0068290Y0048644D02*
X0066951Y0048644D01*
X0068290Y0048644D01*
X0068290Y0048643D02*
X0066951Y0048643D01*
X0066951Y0048642D02*
X0068290Y0048642D01*
X0068290Y0048641D02*
X0066951Y0048641D01*
X0066951Y0048640D02*
X0068290Y0048640D01*
X0068290Y0048639D02*
X0066951Y0048639D01*
X0066951Y0048638D02*
X0068290Y0048638D01*
X0068290Y0048637D02*
X0066951Y0048637D01*
X0066951Y0048636D02*
X0068290Y0048636D01*
X0068290Y0048635D02*
X0066951Y0048635D01*
X0066951Y0048634D02*
X0068290Y0048634D01*
X0068290Y0048633D02*
X0066951Y0048633D01*
X0066951Y0048632D02*
X0068290Y0048632D01*
X0068290Y0048631D02*
X0066951Y0048631D01*
X0066951Y0048630D02*
X0068290Y0048630D01*
X0068290Y0048629D02*
X0066951Y0048629D01*
X0066951Y0048628D02*
X0068290Y0048628D01*
X0068290Y0048627D02*
X0066951Y0048627D01*
X0066951Y0048626D02*
X0068290Y0048626D01*
X0068290Y0048625D02*
X0066951Y0048625D01*
X0066951Y0048624D02*
X0068290Y0048624D01*
X0068290Y0048623D02*
X0066951Y0048623D01*
X0066951Y0048622D02*
X0068290Y0048622D01*
X0068290Y0048621D02*
X0066951Y0048621D01*
X0066951Y0048620D02*
X0068290Y0048620D01*
X0068290Y0048619D02*
X0066951Y0048619D01*
X0066951Y0048618D02*
X0068290Y0048618D01*
X0068290Y0048617D02*
X0066951Y0048617D01*
X0066951Y0048616D02*
X0068290Y0048616D01*
X0068290Y0048615D02*
X0066951Y0048615D01*
X0066951Y0048614D02*
X0068290Y0048614D01*
X0068290Y0048613D02*
X0066951Y0048613D01*
X0066951Y0048612D02*
X0068290Y0048612D01*
X0068290Y0048611D02*
X0066951Y0048611D01*
X0066951Y0048610D02*
X0068290Y0048610D01*
X0068290Y0048609D02*
X0066951Y0048609D01*
X0066951Y0048608D02*
X0068290Y0048608D01*
X0068290Y0048607D02*
X0066951Y0048607D01*
X0066951Y0048606D02*
X0068290Y0048606D01*
X0068290Y0048605D02*
X0066951Y0048605D01*
X0066951Y0048604D02*
X0068290Y0048604D01*
X0068290Y0048603D02*
X0066951Y0048603D01*
X0066951Y0048602D02*
X0068290Y0048602D01*
X0068290Y0048601D02*
X0066951Y0048601D01*
X0066951Y0048600D02*
X0068290Y0048600D01*
X0068290Y0048599D02*
X0066951Y0048599D01*
X0066951Y0048598D02*
X0068290Y0048598D01*
X0068290Y0048597D02*
X0066951Y0048597D01*
X0066951Y0048596D02*
X0068290Y0048596D01*
X0068290Y0048595D02*
X0066951Y0048595D01*
X0066951Y0048594D02*
X0068290Y0048594D01*
X0068290Y0048593D02*
X0066951Y0048593D01*
X0066951Y0048592D02*
X0068290Y0048592D01*
X0068290Y0048591D02*
X0066951Y0048591D01*
X0066951Y0048590D02*
X0068290Y0048590D01*
X0068290Y0048589D02*
X0066951Y0048589D01*
X0066951Y0048588D02*
X0068290Y0048588D01*
X0068290Y0048587D02*
X0066951Y0048587D01*
X0066951Y0048586D02*
X0068290Y0048586D01*
X0068290Y0048585D02*
X0066951Y0048585D01*
X0066951Y0048584D02*
X0068290Y0048584D01*
X0068290Y0048583D02*
X0066951Y0048583D01*
X0066951Y0048582D02*
X0068290Y0048582D01*
X0068290Y0048581D02*
X0066951Y0048581D01*
X0068290Y0048581D01*
X0068290Y0048580D02*
X0066951Y0048580D01*
X0066951Y0048579D02*
X0068290Y0048579D01*
X0068290Y0048578D02*
X0066951Y0048578D01*
X0066951Y0048577D02*
X0068290Y0048577D01*
X0068290Y0048576D02*
X0066951Y0048576D01*
X0066951Y0048575D02*
X0068290Y0048575D01*
X0068290Y0048574D02*
X0066951Y0048574D01*
X0066951Y0048573D02*
X0068290Y0048573D01*
X0068290Y0048572D02*
X0066951Y0048572D01*
X0066951Y0048571D02*
X0068290Y0048571D01*
X0068290Y0048570D02*
X0066951Y0048570D01*
X0066951Y0048569D02*
X0068290Y0048569D01*
X0068290Y0048568D02*
X0066951Y0048568D01*
X0066951Y0048567D02*
X0068290Y0048567D01*
X0068290Y0048566D02*
X0066951Y0048566D01*
X0066951Y0048565D02*
X0068290Y0048565D01*
X0068290Y0048564D02*
X0066951Y0048564D01*
X0066951Y0048563D02*
X0068290Y0048563D01*
X0068290Y0048562D02*
X0066951Y0048562D01*
X0066951Y0048561D02*
X0068290Y0048561D01*
X0068290Y0048560D02*
X0066951Y0048560D01*
X0066951Y0048559D02*
X0068290Y0048559D01*
X0068290Y0048558D02*
X0066951Y0048558D01*
X0066951Y0048557D02*
X0068290Y0048557D01*
X0068290Y0048556D02*
X0066951Y0048556D01*
X0066951Y0048555D02*
X0068290Y0048555D01*
X0068290Y0048554D02*
X0066951Y0048554D01*
X0066951Y0048553D02*
X0068290Y0048553D01*
X0068290Y0048552D02*
X0066951Y0048552D01*
X0066951Y0048551D02*
X0068290Y0048551D01*
X0068290Y0048550D02*
X0066951Y0048550D01*
X0066951Y0048549D02*
X0068290Y0048549D01*
X0068290Y0048548D02*
X0066951Y0048548D01*
X0066951Y0048547D02*
X0068290Y0048547D01*
X0068290Y0048546D02*
X0066951Y0048546D01*
X0066951Y0048545D02*
X0068290Y0048545D01*
X0068290Y0048544D02*
X0066951Y0048544D01*
X0066951Y0048543D02*
X0068290Y0048543D01*
X0068290Y0048542D02*
X0066951Y0048542D01*
X0066951Y0048541D02*
X0068290Y0048541D01*
X0068290Y0048540D02*
X0066951Y0048540D01*
X0066951Y0048539D02*
X0068290Y0048539D01*
X0068290Y0048538D02*
X0066951Y0048538D01*
X0066951Y0048537D02*
X0068290Y0048537D01*
X0068290Y0048536D02*
X0066951Y0048536D01*
X0066951Y0048535D02*
X0068290Y0048535D01*
X0068290Y0048534D02*
X0066951Y0048534D01*
X0066951Y0048533D02*
X0068290Y0048533D01*
X0068290Y0048532D02*
X0066951Y0048532D01*
X0066951Y0048531D02*
X0068290Y0048531D01*
X0068290Y0048530D02*
X0066951Y0048530D01*
X0066951Y0048529D02*
X0068290Y0048529D01*
X0068290Y0048528D02*
X0066951Y0048528D01*
X0066951Y0048527D02*
X0068290Y0048527D01*
X0068290Y0048526D02*
X0066951Y0048526D01*
X0066951Y0048525D02*
X0068290Y0048525D01*
X0068290Y0048524D02*
X0066951Y0048524D01*
X0066951Y0048523D02*
X0068290Y0048523D01*
X0068290Y0048522D02*
X0066951Y0048522D01*
X0066951Y0048521D02*
X0068290Y0048521D01*
X0068290Y0048520D02*
X0066951Y0048520D01*
X0066951Y0048519D02*
X0068290Y0048519D01*
X0066951Y0048519D01*
X0066951Y0048518D02*
X0068290Y0048518D01*
X0068290Y0048517D02*
X0066951Y0048517D01*
X0066951Y0048516D02*
X0068290Y0048516D01*
X0068290Y0048515D02*
X0066951Y0048515D01*
X0066951Y0048514D02*
X0068290Y0048514D01*
X0068290Y0048513D02*
X0066951Y0048513D01*
X0066951Y0048512D02*
X0068290Y0048512D01*
X0068290Y0048511D02*
X0066951Y0048511D01*
X0066951Y0048510D02*
X0068290Y0048510D01*
X0068290Y0048509D02*
X0066951Y0048509D01*
X0066951Y0048508D02*
X0068290Y0048508D01*
X0068290Y0048507D02*
X0066951Y0048507D01*
X0066951Y0048506D02*
X0068290Y0048506D01*
X0068290Y0048505D02*
X0066951Y0048505D01*
X0066951Y0048504D02*
X0068290Y0048504D01*
X0068290Y0048503D02*
X0066951Y0048503D01*
X0066951Y0048502D02*
X0068290Y0048502D01*
X0068290Y0048501D02*
X0066951Y0048501D01*
X0066951Y0048500D02*
X0068290Y0048500D01*
X0068290Y0048499D02*
X0066951Y0048499D01*
X0066951Y0048498D02*
X0068290Y0048498D01*
X0068290Y0048497D02*
X0066951Y0048497D01*
X0066951Y0048496D02*
X0068290Y0048496D01*
X0068290Y0048495D02*
X0066951Y0048495D01*
X0066951Y0048494D02*
X0068290Y0048494D01*
X0068290Y0048493D02*
X0066951Y0048493D01*
X0066951Y0048492D02*
X0068290Y0048492D01*
X0068290Y0048491D02*
X0066951Y0048491D01*
X0066951Y0048490D02*
X0068290Y0048490D01*
X0068290Y0048489D02*
X0066951Y0048489D01*
X0066951Y0048488D02*
X0068290Y0048488D01*
X0068290Y0048487D02*
X0066951Y0048487D01*
X0066951Y0048486D02*
X0068290Y0048486D01*
X0068290Y0048485D02*
X0066951Y0048485D01*
X0066951Y0048484D02*
X0068290Y0048484D01*
X0068290Y0048483D02*
X0066951Y0048483D01*
X0066951Y0048482D02*
X0068290Y0048482D01*
X0068290Y0048481D02*
X0066951Y0048481D01*
X0066951Y0048480D02*
X0068290Y0048480D01*
X0068290Y0048479D02*
X0066951Y0048479D01*
X0066951Y0048478D02*
X0068290Y0048478D01*
X0068290Y0048477D02*
X0066951Y0048477D01*
X0066951Y0048476D02*
X0068290Y0048476D01*
X0068290Y0048475D02*
X0066951Y0048475D01*
X0066951Y0048474D02*
X0068290Y0048474D01*
X0068290Y0048473D02*
X0066951Y0048473D01*
X0066951Y0048472D02*
X0068290Y0048472D01*
X0068290Y0048471D02*
X0066951Y0048471D01*
X0066951Y0048470D02*
X0068290Y0048470D01*
X0068290Y0048469D02*
X0066951Y0048469D01*
X0066951Y0048468D02*
X0068290Y0048468D01*
X0068290Y0048467D02*
X0066951Y0048467D01*
X0066951Y0048466D02*
X0068290Y0048466D01*
X0068290Y0048465D02*
X0066951Y0048465D01*
X0066951Y0048464D02*
X0068290Y0048464D01*
X0068290Y0048463D02*
X0066951Y0048463D01*
X0066951Y0048462D02*
X0068290Y0048462D01*
X0068290Y0048461D02*
X0066951Y0048461D01*
X0066951Y0048460D02*
X0068290Y0048460D01*
X0068290Y0048459D02*
X0066951Y0048459D01*
X0066951Y0048458D02*
X0068290Y0048458D01*
X0068290Y0048457D02*
X0066951Y0048457D01*
X0066951Y0048456D02*
X0068290Y0048456D01*
X0066951Y0048456D01*
X0066951Y0048455D02*
X0068290Y0048455D01*
X0068290Y0048454D02*
X0066951Y0048454D01*
X0066951Y0048453D02*
X0068290Y0048453D01*
X0068290Y0048452D02*
X0066951Y0048452D01*
X0066951Y0048451D02*
X0068290Y0048451D01*
X0068290Y0048450D02*
X0066951Y0048450D01*
X0066951Y0048449D02*
X0068290Y0048449D01*
X0068290Y0048448D02*
X0066951Y0048448D01*
X0066951Y0048447D02*
X0068290Y0048447D01*
X0068290Y0048446D02*
X0066951Y0048446D01*
X0066951Y0048445D02*
X0068290Y0048445D01*
X0068290Y0048444D02*
X0066951Y0048444D01*
X0066951Y0048443D02*
X0068290Y0048443D01*
X0068290Y0048442D02*
X0066951Y0048442D01*
X0066951Y0048441D02*
X0068290Y0048441D01*
X0068290Y0048440D02*
X0066951Y0048440D01*
X0066951Y0048439D02*
X0068290Y0048439D01*
X0068290Y0048438D02*
X0066951Y0048438D01*
X0066951Y0048437D02*
X0068290Y0048437D01*
X0068290Y0048436D02*
X0066951Y0048436D01*
X0066951Y0048435D02*
X0068290Y0048435D01*
X0068290Y0048434D02*
X0066951Y0048434D01*
X0066951Y0048433D02*
X0068290Y0048433D01*
X0068290Y0048432D02*
X0066951Y0048432D01*
X0066951Y0048431D02*
X0068290Y0048431D01*
X0068290Y0048430D02*
X0066951Y0048430D01*
X0066951Y0048429D02*
X0068290Y0048429D01*
X0068290Y0048428D02*
X0066951Y0048428D01*
X0066951Y0048427D02*
X0068290Y0048427D01*
X0068290Y0048426D02*
X0066951Y0048426D01*
X0066951Y0048425D02*
X0068290Y0048425D01*
X0068290Y0048424D02*
X0066951Y0048424D01*
X0066951Y0048423D02*
X0068290Y0048423D01*
X0068290Y0048422D02*
X0066951Y0048422D01*
X0066951Y0048421D02*
X0068290Y0048421D01*
X0068290Y0048420D02*
X0066951Y0048420D01*
X0066951Y0048419D02*
X0068290Y0048419D01*
X0068290Y0048418D02*
X0066951Y0048418D01*
X0066951Y0048417D02*
X0068290Y0048417D01*
X0068290Y0048416D02*
X0066951Y0048416D01*
X0066951Y0048415D02*
X0068290Y0048415D01*
X0068290Y0048414D02*
X0066951Y0048414D01*
X0066951Y0048413D02*
X0068290Y0048413D01*
X0068290Y0048412D02*
X0066951Y0048412D01*
X0066951Y0048411D02*
X0068290Y0048411D01*
X0068290Y0048410D02*
X0066951Y0048410D01*
X0066951Y0048409D02*
X0068290Y0048409D01*
X0068290Y0048408D02*
X0066951Y0048408D01*
X0066951Y0048407D02*
X0068290Y0048407D01*
X0068290Y0048406D02*
X0066951Y0048406D01*
X0066951Y0048405D02*
X0068290Y0048405D01*
X0068290Y0048404D02*
X0066951Y0048404D01*
X0066951Y0048403D02*
X0068290Y0048403D01*
X0068290Y0048402D02*
X0066951Y0048402D01*
X0066951Y0048401D02*
X0068290Y0048401D01*
X0068290Y0048400D02*
X0066951Y0048400D01*
X0066951Y0048399D02*
X0068290Y0048399D01*
X0068290Y0048398D02*
X0066951Y0048398D01*
X0066951Y0048397D02*
X0068290Y0048397D01*
X0068290Y0048396D02*
X0066951Y0048396D01*
X0066951Y0048395D02*
X0068290Y0048395D01*
X0068290Y0048394D02*
X0066951Y0048394D01*
X0068290Y0048394D01*
X0068290Y0048393D02*
X0066951Y0048393D01*
X0066951Y0048392D02*
X0068290Y0048392D01*
X0068290Y0048391D02*
X0066951Y0048391D01*
X0066951Y0048390D02*
X0068290Y0048390D01*
X0068290Y0048389D02*
X0066951Y0048389D01*
X0066951Y0048388D02*
X0068290Y0048388D01*
X0068290Y0048387D02*
X0066951Y0048387D01*
X0066951Y0048386D02*
X0068290Y0048386D01*
X0068290Y0048385D02*
X0066951Y0048385D01*
X0066951Y0048384D02*
X0068290Y0048384D01*
X0068290Y0048383D02*
X0066951Y0048383D01*
X0066951Y0048382D02*
X0068290Y0048382D01*
X0068290Y0048381D02*
X0066951Y0048381D01*
X0066951Y0048380D02*
X0068290Y0048380D01*
X0068290Y0048379D02*
X0066951Y0048379D01*
X0066951Y0048378D02*
X0068290Y0048378D01*
X0068290Y0048377D02*
X0066951Y0048377D01*
X0066951Y0048376D02*
X0068290Y0048376D01*
X0068290Y0048375D02*
X0066951Y0048375D01*
X0066951Y0048374D02*
X0068290Y0048374D01*
X0068290Y0048373D02*
X0066951Y0048373D01*
X0066951Y0048372D02*
X0068290Y0048372D01*
X0068290Y0048371D02*
X0066951Y0048371D01*
X0066951Y0048370D02*
X0068290Y0048370D01*
X0068290Y0048369D02*
X0066951Y0048369D01*
X0066951Y0048368D02*
X0068290Y0048368D01*
X0068290Y0048367D02*
X0066951Y0048367D01*
X0066951Y0048366D02*
X0068290Y0048366D01*
X0068290Y0048365D02*
X0066951Y0048365D01*
X0066951Y0048364D02*
X0068290Y0048364D01*
X0068290Y0048363D02*
X0066951Y0048363D01*
X0066951Y0048362D02*
X0068290Y0048362D01*
X0068290Y0048361D02*
X0066951Y0048361D01*
X0066951Y0048360D02*
X0068290Y0048360D01*
X0068290Y0048359D02*
X0066951Y0048359D01*
X0066951Y0048358D02*
X0068290Y0048358D01*
X0068290Y0048357D02*
X0066951Y0048357D01*
X0066951Y0048356D02*
X0068290Y0048356D01*
X0068290Y0048355D02*
X0066951Y0048355D01*
X0066951Y0048354D02*
X0068290Y0048354D01*
X0068290Y0048353D02*
X0066951Y0048353D01*
X0066951Y0048352D02*
X0068290Y0048352D01*
X0068290Y0048351D02*
X0066951Y0048351D01*
X0066951Y0048350D02*
X0068290Y0048350D01*
X0068290Y0048349D02*
X0066951Y0048349D01*
X0066951Y0048348D02*
X0068290Y0048348D01*
X0068290Y0048347D02*
X0066951Y0048347D01*
X0066951Y0048346D02*
X0068290Y0048346D01*
X0068290Y0048345D02*
X0066951Y0048345D01*
X0066951Y0048344D02*
X0068290Y0048344D01*
X0068290Y0048343D02*
X0066951Y0048343D01*
X0066951Y0048342D02*
X0068290Y0048342D01*
X0068290Y0048341D02*
X0066951Y0048341D01*
X0066951Y0048340D02*
X0068290Y0048340D01*
X0068290Y0048339D02*
X0066951Y0048339D01*
X0066951Y0048338D02*
X0068290Y0048338D01*
X0068290Y0048337D02*
X0066951Y0048337D01*
X0066951Y0048336D02*
X0068290Y0048336D01*
X0068290Y0048335D02*
X0066951Y0048335D01*
X0066951Y0048334D02*
X0068290Y0048334D01*
X0068290Y0048333D02*
X0066951Y0048333D01*
X0066951Y0048332D02*
X0068290Y0048332D01*
X0068290Y0048331D02*
X0066951Y0048331D01*
X0068290Y0048331D01*
X0068290Y0048330D02*
X0066951Y0048330D01*
X0066951Y0048329D02*
X0068290Y0048329D01*
X0068290Y0048328D02*
X0066951Y0048328D01*
X0066951Y0048327D02*
X0068290Y0048327D01*
X0068290Y0048326D02*
X0066951Y0048326D01*
X0066951Y0048325D02*
X0068290Y0048325D01*
X0068290Y0048324D02*
X0066951Y0048324D01*
X0066951Y0048323D02*
X0068290Y0048323D01*
X0068290Y0048322D02*
X0066951Y0048322D01*
X0066951Y0048321D02*
X0068290Y0048321D01*
X0068290Y0048320D02*
X0066951Y0048320D01*
X0066951Y0048319D02*
X0068290Y0048319D01*
X0068290Y0048318D02*
X0066951Y0048318D01*
X0066951Y0048317D02*
X0068290Y0048317D01*
X0068290Y0048316D02*
X0066951Y0048316D01*
X0066951Y0048315D02*
X0068290Y0048315D01*
X0068290Y0048314D02*
X0066951Y0048314D01*
X0066951Y0048313D02*
X0068290Y0048313D01*
X0068290Y0048312D02*
X0066951Y0048312D01*
X0066951Y0048311D02*
X0068290Y0048311D01*
X0068290Y0048310D02*
X0066951Y0048310D01*
X0066951Y0048309D02*
X0068290Y0048309D01*
X0068290Y0048308D02*
X0066951Y0048308D01*
X0066951Y0048307D02*
X0068290Y0048307D01*
X0068290Y0048306D02*
X0066951Y0048306D01*
X0066951Y0048305D02*
X0068290Y0048305D01*
X0068290Y0048304D02*
X0066951Y0048304D01*
X0066951Y0048303D02*
X0068290Y0048303D01*
X0068290Y0048302D02*
X0066951Y0048302D01*
X0066951Y0048301D02*
X0068290Y0048301D01*
X0068290Y0048300D02*
X0066951Y0048300D01*
X0066951Y0048299D02*
X0068290Y0048299D01*
X0068290Y0048298D02*
X0066951Y0048298D01*
X0066951Y0048297D02*
X0068290Y0048297D01*
X0068290Y0048296D02*
X0066951Y0048296D01*
X0066951Y0048295D02*
X0068290Y0048295D01*
X0068290Y0048294D02*
X0066951Y0048294D01*
X0066951Y0048293D02*
X0068290Y0048293D01*
X0068290Y0048292D02*
X0066951Y0048292D01*
X0066951Y0048291D02*
X0068290Y0048291D01*
X0068290Y0048290D02*
X0066951Y0048290D01*
X0066951Y0048289D02*
X0068290Y0048289D01*
X0068290Y0048288D02*
X0066951Y0048288D01*
X0066951Y0048287D02*
X0068290Y0048287D01*
X0068290Y0048286D02*
X0066951Y0048286D01*
X0066951Y0048285D02*
X0068290Y0048285D01*
X0068290Y0048284D02*
X0066951Y0048284D01*
X0066951Y0048283D02*
X0068290Y0048283D01*
X0068290Y0048282D02*
X0066951Y0048282D01*
X0066951Y0048281D02*
X0068290Y0048281D01*
X0068290Y0048280D02*
X0066951Y0048280D01*
X0066951Y0048279D02*
X0068290Y0048279D01*
X0068290Y0048278D02*
X0066951Y0048278D01*
X0066951Y0048277D02*
X0068290Y0048277D01*
X0068290Y0048276D02*
X0066951Y0048276D01*
X0066951Y0048275D02*
X0068290Y0048275D01*
X0068290Y0048274D02*
X0066951Y0048274D01*
X0066951Y0048273D02*
X0068290Y0048273D01*
X0068290Y0048272D02*
X0066951Y0048272D01*
X0066951Y0048271D02*
X0068290Y0048271D01*
X0068290Y0048270D02*
X0066951Y0048270D01*
X0066951Y0048269D02*
X0068290Y0048269D01*
X0066951Y0048269D01*
X0066951Y0048268D02*
X0068290Y0048268D01*
X0068290Y0048267D02*
X0066951Y0048267D01*
X0066951Y0048266D02*
X0068290Y0048266D01*
X0068290Y0048265D02*
X0066951Y0048265D01*
X0066951Y0048264D02*
X0068290Y0048264D01*
X0068290Y0048263D02*
X0066951Y0048263D01*
X0066951Y0048262D02*
X0068290Y0048262D01*
X0068290Y0048261D02*
X0066951Y0048261D01*
X0066951Y0048260D02*
X0068290Y0048260D01*
X0068290Y0048259D02*
X0066951Y0048259D01*
X0066951Y0048258D02*
X0068290Y0048258D01*
X0068290Y0048257D02*
X0066951Y0048257D01*
D17*
X0069628Y0056524D03*
X0069628Y0061249D03*
X0064117Y0061249D03*
X0064117Y0056524D03*
X0075928Y0071091D03*
X0075928Y0075816D03*
X0081439Y0075816D03*
X0081439Y0071091D03*
X0081046Y0097863D03*
X0086557Y0097863D03*
X0104274Y0058493D03*
X0104274Y0053769D03*
X0104274Y0049044D03*
X0109786Y0049044D03*
X0109786Y0053769D03*
X0109786Y0058493D03*
D18*
X0054668Y0088808D03*
X0054668Y0094320D03*
D19*
X0076321Y0093335D03*
X0076321Y0089792D03*
X0076321Y0086249D03*
X0076321Y0082706D03*
X0081046Y0082706D03*
X0081046Y0086249D03*
X0081046Y0089792D03*
X0081046Y0093335D03*
D20*
X0108683Y0141564D03*
X0048683Y0141564D03*
D21*
X0049943Y0092942D03*
X0049943Y0090186D03*
D22*
X0107916Y0031820D03*
X0110868Y0031820D03*
X0110868Y0021387D03*
X0107916Y0021387D03*
M02*
